<!-- Generated by IcoMoon.io -->
<svg version="1.1" xmlns="http://www.w3.org/2000/svg" width="32" height="32" viewBox="0 0 32 32">
<title>instagram</title>
<path d="M23.968 0.032h-15.936c-4.416 0-7.968 3.552-7.968 7.936v16.064c0 4.384 3.552 7.936 7.968 7.936h15.936c4.416 0 8-3.552 8-7.936v-16.064c0-4.384-3.584-7.936-8-7.936zM28.992 24.032c0 2.752-2.24 4.992-5.024 4.992h-15.936c-2.784 0-5.024-2.24-5.024-4.992v-10.368h6.304c-0.448 0.96-0.736 2.048-0.736 3.2 0 4.16 3.424 7.552 7.584 7.552 4.192 0 7.584-3.392 7.584-7.552 0-1.152-0.256-2.24-0.736-3.2h5.984v10.368zM13.024 16.864c0-1.728 1.408-3.136 3.136-3.136s3.136 1.408 3.136 3.136c0 1.728-1.408 3.136-3.136 3.136s-3.136-1.408-3.136-3.136zM28.992 10.72h-8.448c-1.248-0.896-2.752-1.408-4.384-1.408s-3.136 0.512-4.384 1.408h-8.768v-2.752c0-2.752 2.24-4.992 5.024-4.992h15.936c2.784 0 5.024 2.24 5.024 4.992v2.752zM25.792 4.768h-2.72c-0.48 0-0.896 0.384-0.896 0.864v2.752c0 0.48 0.416 0.864 0.896 0.864h2.72c0.512 0 0.896-0.384 0.896-0.864v-2.752c0-0.48-0.384-0.864-0.896-0.864z"></path>
</svg>
