<!-- Generated by IcoMoon.io -->
<svg version="1.1" xmlns="http://www.w3.org/2000/svg" width="30" height="32" viewBox="0 0 30 32">
<title>slack</title>
<path d="M27.136 13.856q1.088 0 1.824 0.736t0.768 1.792q0 1.728-1.664 2.336l-3.072 1.056 0.992 2.976q0.128 0.384 0.128 0.832 0 1.056-0.768 1.824t-1.792 0.768q-0.832 0-1.536-0.48t-0.928-1.28l-0.992-2.944-5.536 1.888 0.992 2.912q0.128 0.448 0.128 0.864 0 1.056-0.736 1.824t-1.824 0.768q-0.864 0-1.536-0.48t-0.928-1.312l-0.992-2.912-2.72 0.96q-0.544 0.16-0.896 0.16-1.088 0-1.824-0.704t-0.736-1.824q0-0.832 0.512-1.504t1.28-0.96l2.784-0.928-1.888-5.6-2.784 0.96q-0.448 0.16-0.864 0.16-1.056 0-1.792-0.736t-0.736-1.792q0-0.832 0.48-1.536t1.28-0.928l2.816-0.96-0.96-2.816q-0.128-0.448-0.128-0.864 0-1.056 0.736-1.824t1.824-0.768q0.832 0 1.536 0.512t0.928 1.28l0.96 2.848 5.536-1.888-0.96-2.848q-0.128-0.416-0.128-0.832 0-1.056 0.736-1.824t1.824-0.768q0.832 0 1.536 0.48t0.96 1.28l0.928 2.88 2.912-0.992q0.352-0.096 0.768-0.096 1.056 0 1.824 0.704t0.768 1.76q0 0.8-0.544 1.44t-1.312 0.928l-2.816 0.96 1.888 5.664 2.912-1.024q0.416-0.128 0.832-0.128zM12.96 18.528l5.536-1.856-1.888-5.632-5.536 1.92z"></path>
</svg>
