<svg xmlns="http://www.w3.org/2000/svg" xmlns:xlink="http://www.w3.org/1999/xlink"><symbol viewBox="0 0 12 32" id="facebook" xmlns="http://www.w3.org/2000/svg"><path d="M12.16 8.352H9.92C8.192 8.352 8 9.408 8 10.464v1.664h4.16l-.384 5.056H8V28.32H2.912V17.184H0v-5.056h2.912V8.384C2.912 5.344 4.64 3.68 8 3.68h4.16v4.672z"/></symbol><symbol viewBox="0 0 30 32" id="github" xmlns="http://www.w3.org/2000/svg"><path d="M11.424 21.728q0 .704-.224 1.44t-.768 1.376-1.28.608-1.312-.608-.768-1.376-.224-1.44.224-1.472.768-1.376 1.312-.608 1.28.608.768 1.376.224 1.472zm11.424 0q0 .704-.224 1.44t-.768 1.376-1.28.608-1.312-.608-.768-1.376-.224-1.44.224-1.472.768-1.376 1.312-.608 1.28.608.768 1.376.224 1.472zm2.88 0q0-2.144-1.248-3.648t-3.328-1.504q-.736 0-3.488.384-1.28.192-2.816.192t-2.784-.192q-2.72-.384-3.488-.384-2.112 0-3.328 1.504T4 21.728q0 1.568.576 2.72t1.44 1.856 2.176 1.056 2.496.544 2.656.128h3.008q1.472 0 2.656-.128t2.496-.544 2.208-1.056 1.44-1.856.576-2.72zm4-3.168q0 3.712-1.088 5.92-.704 1.376-1.888 2.368t-2.528 1.536-3.04.864-3.072.384-2.976.096q-1.376 0-2.528-.064t-2.624-.224-2.72-.544-2.464-.928-2.144-1.44T1.12 24.48Q0 22.272 0 18.56q0-4.224 2.432-7.072-.48-1.44-.48-3.04 0-2.048.896-3.872 1.952 0 3.392.704t3.392 2.208q2.624-.64 5.504-.64 2.656 0 5.024.576 1.856-1.472 3.328-2.144t3.36-.704q.928 1.824.928 3.872 0 1.568-.48 3.008 2.432 2.848 2.432 7.104z"/></symbol><symbol viewBox="0 0 32 32" id="instagram" xmlns="http://www.w3.org/2000/svg"><path d="M23.968.032H8.032C3.616.032.064 3.584.064 7.968v16.064c0 4.384 3.552 7.936 7.968 7.936h15.936c4.416 0 8-3.552 8-7.936V7.968c0-4.384-3.584-7.936-8-7.936zm5.024 24c0 2.752-2.24 4.992-5.024 4.992H8.032c-2.784 0-5.024-2.24-5.024-4.992V13.664h6.304c-.448.96-.736 2.048-.736 3.2 0 4.16 3.424 7.552 7.584 7.552 4.192 0 7.584-3.392 7.584-7.552 0-1.152-.256-2.24-.736-3.2h5.984v10.368zm-15.968-7.168c0-1.728 1.408-3.136 3.136-3.136s3.136 1.408 3.136 3.136c0 1.728-1.408 3.136-3.136 3.136s-3.136-1.408-3.136-3.136zm15.968-6.144h-8.448c-1.248-.896-2.752-1.408-4.384-1.408s-3.136.512-4.384 1.408H3.008V7.968c0-2.752 2.24-4.992 5.024-4.992h15.936c2.784 0 5.024 2.24 5.024 4.992v2.752zm-3.2-5.952h-2.72c-.48 0-.896.384-.896.864v2.752c0 .48.416.864.896.864h2.72c.512 0 .896-.384.896-.864V5.632c0-.48-.384-.864-.896-.864z"/></symbol><symbol viewBox="0 0 29 32" id="linkedin" xmlns="http://www.w3.org/2000/svg"><path d="M6.528 4.864q0 1.28-.928 2.176t-2.4.896q-1.408 0-2.304-.896T0 4.864Q0 3.52.896 2.656t2.368-.864 2.336.864.928 2.208zM.192 30.144V10.368h6.144v19.776H.192zm9.792-13.44q0-2.752-.128-6.336h5.312l.32 2.752h.128q1.92-3.2 6.08-3.2 3.2 0 5.152 2.144t1.952 6.368v11.712h-6.144V19.2q0-4.288-3.136-4.288-2.24 0-3.136 2.304-.192.384-.192 1.536v11.392H9.984v-13.44z"/></symbol><symbol viewBox="0 0 30 32" id="slack" xmlns="http://www.w3.org/2000/svg"><path d="M27.136 13.856q1.088 0 1.824.736t.768 1.792q0 1.728-1.664 2.336l-3.072 1.056.992 2.976q.128.384.128.832 0 1.056-.768 1.824t-1.792.768q-.832 0-1.536-.48t-.928-1.28l-.992-2.944-5.536 1.888.992 2.912q.128.448.128.864 0 1.056-.736 1.824t-1.824.768q-.864 0-1.536-.48t-.928-1.312l-.992-2.912-2.72.96q-.544.16-.896.16-1.088 0-1.824-.704t-.736-1.824q0-.832.512-1.504t1.28-.96l2.784-.928-1.888-5.6-2.784.96q-.448.16-.864.16-1.056 0-1.792-.736T0 13.216q0-.832.48-1.536t1.28-.928l2.816-.96-.96-2.816q-.128-.448-.128-.864 0-1.056.736-1.824t1.824-.768q.832 0 1.536.512t.928 1.28l.96 2.848 5.536-1.888-.96-2.848q-.128-.416-.128-.832 0-1.056.736-1.824T16.48 0q.832 0 1.536.48t.96 1.28l.928 2.88 2.912-.992q.352-.096.768-.096 1.056 0 1.824.704t.768 1.76q0 .8-.544 1.44t-1.312.928l-2.816.96 1.888 5.664 2.912-1.024q.416-.128.832-.128zM12.96 18.528l5.536-1.856-1.888-5.632-5.536 1.92z"/></symbol><symbol id="telegram" viewBox="0 0 189.473 189.473"><path d="M152.531,179.476c-1.48,0-2.95-0.438-4.211-1.293l-47.641-32.316l-25.552,18.386c-2.004,1.441-4.587,1.804-6.914,0.972 c-2.324-0.834-4.089-2.759-4.719-5.146l-12.83-48.622L4.821,93.928c-2.886-1.104-4.8-3.865-4.821-6.955 c-0.021-3.09,1.855-5.877,4.727-7.02l174.312-69.36c0.791-0.336,1.628-0.53,2.472-0.582c0.302-0.018,0.605-0.018,0.906-0.001 c1.748,0.104,3.465,0.816,4.805,2.13c0.139,0.136,0.271,0.275,0.396,0.42c1.11,1.268,1.72,2.814,1.835,4.389 c0.028,0.396,0.026,0.797-0.009,1.198c-0.024,0.286-0.065,0.571-0.123,0.854L159.898,173.38c-0.473,2.48-2.161,4.556-4.493,5.523 C154.48,179.287,153.503,179.476,152.531,179.476z M104.862,130.579l42.437,28.785L170.193,39.24l-82.687,79.566l17.156,11.638 C104.731,130.487,104.797,130.533,104.862,130.579z M69.535,124.178l5.682,21.53l12.242-8.809l-16.03-10.874 C70.684,125.521,70.046,124.893,69.535,124.178z M28.136,86.782l31.478,12.035c2.255,0.862,3.957,2.758,4.573,5.092l3.992,15.129 c0.183-1.745,0.974-3.387,2.259-4.624L149.227,38.6L28.136,86.782z"/></symbol><symbol viewBox="0 0 30 32" id="twitter" xmlns="http://www.w3.org/2000/svg"><path d="M28.928 7.296q-1.184 1.728-2.88 2.976v.736q0 2.336-.672 4.64t-2.048 4.448-3.296 3.744-4.608 2.624-5.792.96Q4.8 27.424.8 24.832q.608.064 1.376.064 4.032 0 7.168-2.464-1.888-.032-3.36-1.152t-2.048-2.848q.608.096 1.088.096.768 0 1.536-.192-2.016-.416-3.328-1.984t-1.312-3.68v-.064q1.216.672 2.624.736-1.184-.8-1.888-2.048t-.704-2.752q0-1.568.8-2.912Q4.928 8.288 8 9.888t6.656 1.76q-.16-.672-.16-1.312 0-2.4 1.696-4.064t4.064-1.696q2.528 0 4.224 1.824 1.952-.384 3.68-1.408-.672 2.048-2.56 3.2 1.664-.192 3.328-.896z"/></symbol><symbol viewBox="0 0 32 32" id="youtube" xmlns="http://www.w3.org/2000/svg"><path d="M12.704 20.128l8.64-4.448-8.64-4.512v8.96zM16 4.736q3.008 0 5.792.096t4.096.16l1.312.064.288.032q.288.032.416.064t.416.064.512.16.512.224.544.352.512.48q.128.096.288.32t.512 1.056.48 1.792q.128 1.152.224 2.432T32 14.08v3.136q.032 2.592-.32 5.184-.128.96-.448 1.76t-.576 1.12l-.256.288q-.224.256-.512.48t-.544.32-.512.224-.512.16-.416.064-.416.064-.288.032q-4.48.352-11.2.352-3.68-.064-6.432-.128t-3.552-.128l-.896-.096-.64-.064q-.64-.096-.96-.16t-.928-.384-.992-.736q-.128-.096-.288-.32T.8 24.192.32 22.4q-.128-1.152-.224-2.432T0 17.92v-3.136Q-.032 12.192.32 9.6q.128-.992.448-1.76t.576-1.12l.256-.288q.256-.288.512-.48t.544-.352.512-.224.512-.16.416-.064.416-.064.288-.032q4.48-.32 11.2-.32z"/></symbol></svg>