<svg xmlns="http://www.w3.org/2000/svg" width="18" height="18" viewBox="0 0 18 18">
    <path fill="#179cde" fill-rule="nonzero" d="M9 0a9 9 0 1 0 0 18A9 9 0 0 0 9 0zm5.345 14.345a7.536 7.536 0 0 1-3.1 1.875V14.87c0-.709-.243-1.23-.729-1.564.305-.03.584-.07.84-.123.254-.053.524-.13.808-.229.284-.1.539-.218.765-.356.225-.138.442-.316.65-.536.208-.22.382-.469.523-.747.14-.278.252-.612.334-1.002.082-.39.123-.819.123-1.288 0-.908-.296-1.681-.888-2.32.27-.703.24-1.468-.088-2.294l-.22-.026c-.152-.018-.426.047-.821.193-.396.147-.84.387-1.332.72a8.086 8.086 0 0 0-2.17-.29c-.756 0-1.477.097-2.163.29a7.527 7.527 0 0 0-.883-.522 4.547 4.547 0 0 0-.668-.281 2.29 2.29 0 0 0-.743-.101.562.562 0 0 0-.087.017c-.329.832-.358 1.597-.088 2.294-.592.639-.888 1.412-.888 2.32 0 .47.041.898.123 1.288.082.39.193.724.334 1.002.14.278.315.527.523.747.208.22.425.398.65.536.226.138.48.256.765.356.284.1.554.176.809.229.254.052.534.093.839.123-.48.328-.72.85-.72 1.564v1.375a7.512 7.512 0 0 1-3.188-1.901A7.535 7.535 0 0 1 1.441 9a7.536 7.536 0 0 1 2.214-5.345A7.534 7.534 0 0 1 9 1.441a7.536 7.536 0 0 1 5.345 2.214A7.535 7.535 0 0 1 16.559 9a7.535 7.535 0 0 1-2.214 5.345z"/>
</svg>
