<svg xmlns="http://www.w3.org/2000/svg" xmlns:xlink="http://www.w3.org/1999/xlink" width="18px" height="18px" viewBox="0 0 18 18" version="1.1">
  <!-- Generator: Sketch 45.2 (43514) - http://www.bohemiancoding.com/sketch -->
  <title>instagram</title>
  <desc>Created with Sketch.</desc>
  <defs/>
  <g id="Symbols" stroke="none" stroke-width="1" fill="none" fill-rule="evenodd">
    <g id="Footer-/-Desktop" transform="translate(-1074.000000, -184.000000)" fill-rule="nonzero" fill="#179CDE">
      <g id="Trailer" transform="translate(0.000000, -1.000000)">
        <g id="Group-25" transform="translate(814.000000, 185.000000)">
          <g id="Group-23">
            <g id="instagram" transform="translate(260.000000, 0.000000)">
              <path d="M9,1.62225 C11.403,1.62225 11.688,1.63125 12.6375,1.67475 C15.0765,1.78575 16.21575,2.943 16.32675,5.364 C16.37025,6.31275 16.3785,6.59775 16.3785,9.00075 C16.3785,11.4045 16.3695,11.68875 16.32675,12.6375 C16.215,15.05625 15.07875,16.21575 12.6375,16.32675 C11.688,16.37025 11.4045,16.37925 9,16.37925 C6.597,16.37925 6.312,16.37025 5.36325,16.32675 C2.91825,16.215 1.785,15.0525 1.674,12.63675 C1.6305,11.688 1.6215,11.40375 1.6215,9 C1.6215,6.597 1.63125,6.31275 1.674,5.36325 C1.78575,2.943 2.922,1.785 5.36325,1.674 C6.31275,1.63125 6.597,1.62225 9,1.62225 L9,1.62225 Z M9,-1.21430643e-16 C6.55575,-1.21430643e-16 6.24975,0.0105 5.28975,0.054 C2.02125,0.204 0.20475,2.0175 0.05475,5.289 C0.0105,6.24975 -4.85722573e-16,6.55575 -4.85722573e-16,9 C-4.85722573e-16,11.44425 0.0105,11.751 0.054,12.711 C0.204,15.9795 2.0175,17.796 5.289,17.946 C6.24975,17.9895 6.55575,18 9,18 C11.44425,18 11.751,17.9895 12.711,17.946 C15.9765,17.796 17.7975,15.9825 17.94525,12.711 C17.9895,11.751 18,11.44425 18,9 C18,6.55575 17.9895,6.24975 17.946,5.28975 C17.799,2.02425 15.98325,0.20475 12.71175,0.05475 C11.751,0.0105 11.44425,-4.85722573e-16 9,-1.21430643e-16 Z M9,4.3785 C6.44775,4.3785 4.3785,6.44775 4.3785,9 C4.3785,11.55225 6.44775,13.62225 9,13.62225 C11.55225,13.62225 13.6215,11.553 13.6215,9 C13.6215,6.44775 11.55225,4.3785 9,4.3785 Z M9,12 C7.34325,12 6,10.6575 6,9 C6,7.34325 7.34325,6 9,6 C10.65675,6 12,7.34325 12,9 C12,10.6575 10.65675,12 9,12 Z M13.8045,3.11625 C13.2075,3.11625 12.72375,3.6 12.72375,4.19625 C12.72375,4.7925 13.2075,5.27625 13.8045,5.27625 C14.40075,5.27625 14.88375,4.7925 14.88375,4.19625 C14.88375,3.6 14.40075,3.11625 13.8045,3.11625 Z" id="Shape"/>
            </g>
          </g>
        </g>
      </g>
    </g>
  </g>
</svg>