<svg xmlns="http://www.w3.org/2000/svg" width="22" height="18" viewBox="0 0 22 18">
    <path fill="#179cde" fill-rule="nonzero" d="M21.6 2.128a8.855 8.855 0 0 1-2.545.698A4.445 4.445 0 0 0 21.003.374 8.871 8.871 0 0 1 18.19 1.45a4.432 4.432 0 0 0-7.551 4.042A12.58 12.58 0 0 1 1.504.861a4.41 4.41 0 0 0-.6 2.228 4.43 4.43 0 0 0 1.971 3.689 4.414 4.414 0 0 1-2.007-.555v.056a4.434 4.434 0 0 0 3.554 4.345 4.436 4.436 0 0 1-2 .076 4.436 4.436 0 0 0 4.139 3.078 8.89 8.89 0 0 1-5.504 1.897c-.358 0-.71-.021-1.057-.062a12.543 12.543 0 0 0 6.793 1.991c8.151 0 12.609-6.753 12.609-12.609 0-.192-.005-.383-.013-.573A9.004 9.004 0 0 0 21.6 2.128"/>
</svg>
