<svg xmlns="http://www.w3.org/2000/svg" width="22" height="16" viewBox="0 0 22 16">
    <path fill="#179cde" fill-rule="evenodd" d="M0 7.127C0 5.4.213 3.673.213 3.673s.208-1.466.848-2.116C1.872.708 2.94.735 3.413.645 5.12.48 10.667.432 10.667.432s4.482.005 7.466.221c.419.051 1.328.054 2.139.904.64.648.848 2.118.848 2.118s.213 1.725.213 3.453v1.677c0 1.728-.213 3.454-.213 3.454s-.208 1.469-.848 2.117c-.81.85-1.72.853-2.139.904-2.984.216-7.466.221-7.466.221s-5.547-.049-7.254-.213c-.474-.09-1.541-.063-2.352-.912-.64-.65-.848-2.116-.848-2.116S0 10.533 0 8.807v-1.68zm8.464 3.64V4.773l5.764 3.007-5.76 2.987h-.004z"/>
</svg>
