<?xml version="1.0" encoding="utf-8"?>
<!-- Generator: Adobe Illustrator 21.1.0, SVG Export Plug-In . SVG Version: 6.00 Build 0)  -->
<svg version="1.1" id="Layer_1" xmlns="http://www.w3.org/2000/svg" xmlns:xlink="http://www.w3.org/1999/xlink" x="0px" y="0px"
	 viewBox="0 0 160 160" style="enable-background:new 0 0 160 160;" xml:space="preserve">
<style type="text/css">
	.st0{fill:#143D8A;}
	.st1{fill:#3AA3E3;}
	.st2{fill:#67BCEF;}
	.st3{fill:#2978BE;}
	.st4{fill:#90D8F0;}
	.st5{fill:#308DD1;}
	.st6{fill:#1E54A0;}
	.st7{opacity:0.6;}
</style>
<title>Asset 1</title>
<g>
	<g>
		<path class="st0" d="M130,83.6c-1.2,0.4-3.6,0.6-3.9,0.4c-2-0.7-2.3-4.5-1.9-5.4c0.4-0.9,3.6-1.5,5.2-0.9
			C129.5,79.3,129.7,81.5,130,83.6z"/>
	</g>
	<g>
		<path class="st0" d="M119.4,137.1c-9.8,1.9-15.1,0.9-14.6-22.7c0.1-5.8,0.8-36.9,1.7-37.5c0.1-0.1,0.5-0.1,1.2-0.2
			c0,1.9,19.1,10.5,22.7,10c0,0.1,0,0.2,0,0.2c0.5,3.4,0.9,36.7,0.7,38.8C130.6,131.2,125.3,135.9,119.4,137.1z"/>
	</g>
	<g>
		<path class="st1" d="M125.4,98.7c-12.4,2.8-25.9,3.5-29.2,1.9c2.8-2.4,6.5-4.6,10-6.2c0.7-0.3,1.4-0.6,2-0.9
			c5.2-2.7,11.4-2.4,17.2-2.7c3.6-0.2,7.1-1.1,7.1,0.2C133.1,95.5,129.1,97.7,125.4,98.7z"/>
	</g>
	<g>
		<path class="st2" d="M123.6,132c-9.6,1-22.1-1.1-30-4.5c-4.5-1.9-13.1-1.7-15.3-8.5l-0.8-11.1l3.2-3c4.3-0.3,9.5-1.7,13.3-3.3
			c0.7-0.3,1.5-0.6,2.2-0.9c3.3-1.4,6.4-2.6,10.2-2.9c2.8-0.2,5.5,0,8.3,0.2c1.5,0.1,3.1,0.3,4.6,0.4c1.9,0.2,4,0.1,6.1,0.3
			c2.4,0.2,4.7,0.7,6.5,1.9c2.9,2.1,2.2,6.8,1.8,11.1c-0.4,4,0.1,8.9-1.3,12.7C131.1,127.9,127.5,130.7,123.6,132z"/>
	</g>
	<g>
		<path class="st3" d="M123.6,132L123.6,132c-4.1,1.2-9.2,1-13.2,0.7c-9.4-0.7-18.8-4.8-28.3-4.9c0,0-2.6,0.3-3-7.5s2-9.2,2-9.2
			c2.2,6.8,8,13,12.5,14.9C101.5,129.5,113.6,131.9,123.6,132z"/>
	</g>
	<g>
		<path class="st4" d="M52.4,84.4l-21.5-12l0,0c0-3.5-0.5-6.6-1.3-10C28,55,32.2,33.9,37.4,32.2c4.2-1.4,23.5,2.8,22.4,7.2
			c-0.2,1.9-1.4,5.5-1.5,7.3c-0.5,5.7-1,11.5-1.9,17.1c-0.4,2.6-2.9,9.8-2.9,12.4c0,2,0.2,4.6-0.1,7C53.3,84.2,52.7,84.4,52.4,84.4z
			"/>
	</g>
	<g>
		<path class="st5" d="M78,61.7c-1.1,0.2-2.2,0.5-3.3,0.8c-9.5-5.6-26.9-21.2-31.5-25.8c1-0.1,2-0.1,2.9-0.1
			c9.4-0.2,19.1,2.8,28.5,2c3.5-0.4,4.7,2,5.7,8.6C81.9,58.1,83.1,60.6,78,61.7z"/>
	</g>
	<g>
		<path class="st6" d="M80.7,130l-5.9,0.5l-5.5-26.3l9.8-0.7c0.8-0.1,1.6,0.6,1.6,1.4l0,0l0.4,6.2l1,16.7v0.6
			C82.1,129.2,81.5,129.9,80.7,130z"/>
	</g>
	<g>
		<path class="st2" d="M75.8,131.3c0.2,0.9-7,1.6-9,1.8c-7.2,0.6-23.4,0.7-30.3-1.4c-3.9-1.2-7.7-6.7-9.5-10.5
			c-2.3-4.9-8-20.4-1.4-20.2c6.7,0.2,13.4,0.4,20,1.1c4.4,0.5,20.5,0.7,25,0.2c0.2,0,0.5,0,0.6,0.1c0.2,0.1,0.3,0.3,0.3,0.4
			c2.2,4.5,2.7,9.6,2.9,14.5C74.6,122.1,74.6,126.8,75.8,131.3z"/>
	</g>
	<g>
		<path class="st4" d="M88.4,61.8c-0.4,0-0.8,0.1-1.2,0.1c-2.8,0.3-6.6,1.2-9,1.8c-0.1-0.7-0.1-1.3-0.2-2c-0.7-6-1.5-12-2.6-18
			c-0.3-1.7-0.6-3.5-0.8-5.2c-0.1-0.6-0.1-1.2-0.2-1.8c2-0.2,4-0.6,6-1.1c0.4-0.1,0.8-0.2,1.2-0.3L88.4,61.8z"/>
	</g>
	<g>
		<path class="st0" d="M80.3,33.8c3.3-1,35.9-5.6,38.3-5.1c2.3,0.5,6.2,5.4,7.7,8.2c2.9,5.7,9.9,17.7,11.2,22.8
			c-2.2,0.1-17.4,1.1-24,1.1c-4.5,0-20.5,1.3-24.9,2.2c-0.2,0-0.4,0.1-0.6,0s-0.3-0.2-0.4-0.4C85,58.3,80.6,39.5,80.3,33.8z"/>
	</g>
	<g>
		<path class="st3" d="M101.5,53.4c-1.9-2.3-7.9-11.5-8.2-12.1c-0.3-0.6-0.6-1.2-0.8-1.8c-1.6-4.9-1.7-10.3-3.4-15.1
			c0-0.1-0.1-0.3,0-0.4s0.3-0.1,0.5-0.1c2.3,0.4,4,2.2,5.5,4c0.7,0.9,1.5,2,2.2,3.2c0.9,1.4,1.7,2.9,2.3,4.2l0.9,10.2L101.5,53.4z"
			/>
	</g>
	<g>
		<path class="st0" d="M91.8,30.8c0.3-2.2-0.4-4.3-1.8-6c-0.2-0.2-0.6,0.1-0.4,0.4c1.3,1.6,1.9,3.5,1.6,5.6
			C91.2,31.2,91.7,31.2,91.8,30.8L91.8,30.8z"/>
	</g>
	<g>
		<path class="st6" d="M100.4,45.5c-2.6-5.7-3-10.1-3.2-14.4c0.9,1.4,1.7,2.9,2.3,4.2L100.4,45.5z"/>
	</g>
	<g>
		<path class="st6" d="M128.2,76.4l-20.5,2.4c0.1-1.6,0.1-3.2,0-4.7c2.1-14.5,11-34.1,20.9-43.5c0.4,0.9,0.7,1.8,0.8,2.8
			c0.2,1.7-0.2,3.5-0.5,5.2c-0.8,4.8-1.5,9.7-2,14.6c-0.4,4-1,8.3-0.4,12.3C126.8,67.4,127.7,73.2,128.2,76.4z"/>
	</g>
	<g>
		<path class="st3" d="M121.3,62.2c-1.6,3-4.4,5.2-7.2,7.3c-1.3,1-4.1,2.9-6.4,4.5c-0.3-7-1.8-13.5-5.1-18.9c-0.7-1.2-1.5-2.3-2-3.6
			s-0.6-2.7-0.7-4c-0.4-4.5-0.7-9.1-0.8-13.6C99,31.6,99,29.3,99,27.1c0-1.6-0.5-4.2,1.7-4.7c0.8-0.2,1.6,0,2.4,0.2
			c6.7,1.5,13.4,3,20.1,4.5c1.5,0.3,3,0.7,4.1,1.6c0.6,0.5,1.1,1.1,1.4,1.8c0.1,8.3-3.3,19.4-5.4,26.6
			C122.7,58.8,122.2,60.6,121.3,62.2z"/>
	</g>
	<g>
		<path class="st4" d="M130.4,86.7c-3.6,0.5-8,0.8-11.5,0.7c-2-0.1-4-0.2-5.8-0.9c-1.8-0.7-3.6-1.9-4.5-3.6
			c-0.8-1.5-0.8-4.2-0.9-6.2c4.6-0.6,20.3-1.5,21.1-1c0.1,0.1,0.3,0.9,0.5,2c-1.6,0.1-3.9,0.4-4.3,1.3c-0.4,0.9-0.4,4.2,1.2,4.7
			c0.3,0.1,2.5,0,3.8-0.1C130.2,84.8,130.3,85.9,130.4,86.7z"/>
	</g>
	<g>
		<path class="st3" d="M73.1,136.1c-0.1,0.2-0.3,0.2-0.5,0.1c-2.3-0.3-4.1-2-5.6-3.7c-0.6-0.7-1.2-1.3-1.7-2c-1.2-1.4-2.3-3-3.2-4.5
			l-2.8-18.4c1.4,1.7,2.6,3.1,3.6,4.3c3.9,4.8,5.1,6.6,6,8.9c1.7,4.3,2.1,9,3.6,13.4c0.1,0.2,0.1,0.4,0.2,0.6
			c0.1,0.3,0.2,0.6,0.4,0.9C73.1,135.8,73.2,135.9,73.1,136.1z"/>
	</g>
	<g>
		<path class="st6" d="M65.3,130.4c-1.2-1.4-2.3-3-3.2-4.5l-2.8-18.4c1.4,1.7,2.6,3.1,3.6,4.3C63.7,116.7,64.8,124.6,65.3,130.4z"/>
	</g>
	<g>
		<path class="st0" d="M72.7,134.7c-2.2-0.7-3.2-3.1-3.5-5.3c0-0.3,0.5-0.3,0.5,0c0.2,1.9,1,3.9,2.7,4.7
			C72.6,134.3,72.6,134.5,72.7,134.7z"/>
	</g>
	<g>
		<path class="st6" d="M61.8,133c-2,3.7-6.6,4.6-12.6,4.5c-9.4-0.2-15.1-2.1-17-8.1c-1.4-4.7-1.6-9.7-2.1-19.3
			c-0.8-15,4-9.8,3.5-26.3c0.9-0.4,2.7-0.6,3.9-0.6C38.6,93.9,49.1,124,61.8,133z"/>
	</g>
	<g>
		<path class="st3" d="M61.8,133c-21.6,3.8-27.5-6.1-28.7-23.4c-0.7-9.5,4.8-15.1,3.7-25.8c3.5-2.3,12-1.4,15.6,0.6
			c-0.5,7.4,1.7,15,5.9,21.2c0.8,1.1,1.6,2.2,2.2,3.5c0.5,1.3,0.7,2.6,0.9,4c0.6,4.5,1.1,9,1.5,13.6C62.9,129.4,62.6,131.4,61.8,133
			z"/>
	</g>
	<g>
		<path class="st5" d="M52.4,84.4c-3.1-0.2-10.6-0.5-15.7-0.6c-1.2,0-2.3,0-3.1,0c-0.3,0-0.6,0-0.9,0c-2,0-1.8-1.3-1.8-11.3
			c3.5-0.2,7.7,0,11.1,0.4c2,0.2,3.9,0.5,5.7,1.3s3.4,2.1,4.2,4C52.6,79.7,52.4,82.5,52.4,84.4z"/>
	</g>
	<g class="st7">
		<path class="st0" d="M124.1,92.2c1.2,2.8,5.4,1.5,6.6-0.6c0.2-0.3-0.3-0.5-0.4-0.3c-1,1.8-4.6,3.1-5.7,0.6
			C124.4,91.6,124,91.9,124.1,92.2L124.1,92.2z"/>
	</g>
	<g>
		<path class="st6" d="M63.5,66.8c-2.7,2.9-6.5,5.7-10.1,7.7c-0.5,0.3-1,0.6-1.5,0.8c-5,3.2-11.3,3.4-17.1,4.1
			c-2.1,0.2-3.6,1.5-5.7,1.7c-0.5,0.1-1.1-0.4-1.2-0.9c-1.1-4.7,3.4-7.3,7.3-8.6l0.9-0.1L63.5,66.8z"/>
	</g>
	<g>
		<g>
			<path class="st5" d="M36.2,78.3c-1.5-2.6-5.5-1-6.5,1.2c-0.1,0.3,0.3,0.5,0.4,0.3c0.8-1.9,4.3-3.6,5.6-1.2
				C36,78.8,36.4,78.6,36.2,78.3L36.2,78.3z"/>
		</g>
	</g>
	<g>
		<path class="st3" d="M74.7,62.5c-3.3,0.9-6.9,2.2-9.4,3.6c-0.7,0.4-1.4,0.8-2.1,1.1c-3.2,1.7-6.1,3.2-9.9,3.8
			c-4.3,0.7-8.6,0.6-12.9,0.6c-1.9,0-4,0.3-6.1,0.3c-2.4,0-4.7-0.2-6.7-1.3c-3.1-1.8-3.1-7.8-2.8-10.9c0.3-4,1.5-7.9,2.5-11.7
			c0.9-3.6,1.8-7.8,5.7-9.4c3-1.2,6.7-1.7,10.1-1.9c6,0.6,11.9,1.7,17.5,4.3C67.8,44.3,73.4,52.8,74.7,62.5z"/>
	</g>
	<g>
		<path class="st4" d="M87.5,38.5c0.7-0.2,1.3-0.8,1.4-1.5s-0.4-1.4-1-1.8c-0.6-0.4-1.4-0.4-2.1-0.4c-0.5,0-0.9,0.1-1.3,0.3
			s-0.7,0.6-0.8,1c-0.1,0.5,0.2,1,0.6,1.4C84.9,38.2,86.3,38.9,87.5,38.5z"/>
	</g>
</g>
</svg>
