<svg xmlns="http://www.w3.org/2000/svg" width="18" height="24" viewBox="0 0 18 24">
    <path fill="none" fill-rule="evenodd" stroke="#5F7387" d="M14.012 10.896c.097-.06.173-.111.251-.158.344-.206.649-.46.868-.787.79-1.175.746-2.401.172-3.614-.393-.83-1.153-1.27-2.004-1.569-.76-.267-1.553-.373-2.355-.43-.153-.011-.193-.063-.194-.21-.006-.954-.025-1.907-.029-2.862 0-.158-.05-.192-.2-.187-.54.02-1.079.032-1.618.036-.159 0-.205.04-.201.205.021.922.026 1.844.043 2.765.002.14-.022.204-.187.205-.414.002-.83.02-1.243.044-.146.008-.186-.028-.187-.174-.003-.935-.019-1.87-.025-2.805-.001-.139-.029-.201-.194-.194-.54.023-1.079.037-1.618.035-.185-.001-.21.065-.206.222.018.934.02 1.87.043 2.803.004.19-.054.234-.24.237-1.203.02-2.406.056-3.61.077-.159.003-.216.038-.211.205.017.58.023 1.16.022 1.74 0 .14.043.173.18.167.5-.022 1-.06 1.5-.02.568.046.95.429.956.96l.104 8.606c.006.494-.264.78-.765.801-.42.019-.841.031-1.262.032-.14 0-.193.03-.214.173a87.25 87.25 0 0 1-.315 2.011c-.023.14-.01.185.153.18 1.23-.03 2.46-.05 3.69-.077.134-.003.191.014.191.173.002.967.022 1.934.03 2.9 0 .146.025.21.201.202a36.003 36.003 0 0 1 1.618-.039c.156 0 .2-.037.197-.194-.02-.954-.024-1.908-.042-2.862-.002-.15.035-.2.196-.198.4.006.802 0 1.203-.019.178-.008.217.052.218.215.004.948.023 1.895.028 2.843 0 .135.029.175.172.17.553-.021 1.105-.032 1.658-.037.145-.001.188-.04.185-.189-.018-.895-.023-1.792-.034-2.688-.005-.406-.006-.397.4-.438 1.058-.109 2.106-.267 3.095-.691.937-.402 1.675-1.01 2.097-1.943.317-.7.421-1.439.416-2.194-.004-.58-.088-1.144-.348-1.67-.41-.83-1.118-1.302-1.984-1.584-.191-.062-.387-.112-.6-.174z"/>
</svg>
