<svg xmlns="http://www.w3.org/2000/svg" width="108" height="26" viewBox="0 0 108 26">
    <path fill="#4594FF" fill-rule="evenodd" d="M87.79 20.332V6.802h2.186v13.53H87.79zM59.82 5.396c4.2 0 7.617 3.544 7.617 7.898v6.766h-2.186v-1.234c-1.382 1.46-3.306 2.367-5.43 2.367-4.2 0-7.616-3.543-7.616-7.899 0-4.354 3.416-7.898 7.616-7.898zm0 13.53c2.995 0 5.43-2.526 5.43-5.632 0-3.104-2.435-5.631-5.43-5.631-2.993 0-5.43 2.527-5.43 5.631 0 3.106 2.437 5.632 5.43 5.632zm-29.238-6.442v-5.68h2.186v5.68c0 4.355-3.417 7.899-7.616 7.899-4.2 0-7.616-3.544-7.616-7.9v-5.68h2.185v5.68c0 3.106 2.437 5.632 5.431 5.632s5.43-2.526 5.43-5.631zm12.244-.519l4.911-5.162h2.255v13.58h-2.014V9.395l-4.365 4.498v6.488h-2.015v-6.488l-4.365-4.498v10.986H35.22V6.803h2.697l4.91 5.162zm64.751 1.347h.001c0 .05-.003.1-.004.15h.004V25.94h-2.186v-7.097c-1.382 1.459-3.306 2.367-5.43 2.367-4.2 0-7.616-3.543-7.616-7.898v-.017c0-4.355 3.416-7.898 7.615-7.898 4.2 0 7.617 3.543 7.617 7.898v.017zm-7.616-5.649c-2.993 0-5.43 2.526-5.43 5.632 0 3.105 2.437 5.632 5.43 5.632 2.995 0 5.43-2.527 5.43-5.632 0-3.106-2.435-5.632-5.43-5.632zm-16.974-.86h2.35v13.58h-2.453L72.243 9.871v10.51h-2.35V6.802h2.651l10.443 10.316V6.803zm-67.8 6.398h.002v6.858h-2.186v-6.764c0-3.106-2.436-5.632-5.43-5.632-2.772 0-5.063 2.167-5.388 4.954v7.442H0V.667h2.185v7.05c1.38-1.433 3.286-2.321 5.388-2.321 4.17 0 7.565 3.493 7.614 7.805z"/>
</svg>
