<svg width="38" height="38" viewBox="0 0 38 38" fill="none" xmlns="http://www.w3.org/2000/svg">
<path d="M30.5781 10.0938C30.5781 10.5034 30.9107 10.8359 31.3203 10.8359C31.73 10.8359 32.0625 10.5034 32.0625 10.0938C32.0625 9.6841 31.73 9.35156 31.3203 9.35156C30.9107 9.35156 30.5781 9.6841 30.5781 10.0938Z" fill="#01A2FF"/>
<path d="M33.547 19.0002C33.547 19.9509 33.4516 20.8998 33.2637 21.8206C33.1817 22.2221 33.4409 22.6141 33.8424 22.6961C33.8926 22.7065 33.9424 22.7115 33.9917 22.7115C34.337 22.7115 34.6463 22.4688 34.7182 22.1174C34.9261 21.099 35.0313 20.0503 35.0313 19.0002C35.0313 16.6632 34.5246 14.4143 33.5246 12.3159C33.3484 11.946 32.9057 11.7889 32.5355 11.9651C32.1652 12.1414 32.0084 12.5844 32.1847 12.9546C33.0886 14.8518 33.547 16.8859 33.547 19.0002Z" fill="#01A2FF"/>
<path d="M22.7109 25.6797H21.9687V16.0312C21.9687 15.6213 21.6365 15.2891 21.2266 15.2891H15.2891C14.8791 15.2891 14.5469 15.6213 14.5469 16.0312V19C14.5469 19.4099 14.8791 19.7422 15.2891 19.7422H16.0312V25.6797H15.2891C14.8791 25.6797 14.5469 26.0119 14.5469 26.4219V29.3906C14.5469 29.8006 14.8791 30.1328 15.2891 30.1328H22.7109C23.1209 30.1328 23.4531 29.8006 23.4531 29.3906V26.4219C23.4531 26.0119 23.1209 25.6797 22.7109 25.6797ZM21.9687 28.6484H16.0312V27.1641H16.7734C17.1834 27.1641 17.5156 26.8318 17.5156 26.4219V19C17.5156 18.5901 17.1834 18.2578 16.7734 18.2578H16.0312V16.7734H20.4844V26.4219C20.4844 26.8318 20.8169 27.1641 21.2266 27.1641H21.9687V28.6484Z" fill="#01A2FF"/>
<path d="M19 13.8047C20.6369 13.8047 21.9687 12.4728 21.9687 10.8359C21.9687 9.19907 20.6369 7.86719 19 7.86719C17.3631 7.86719 16.0312 9.19907 16.0312 10.8359C16.0312 12.4728 17.3631 13.8047 19 13.8047ZM19 9.35156C19.8184 9.35156 20.4844 10.0175 20.4844 10.8359C20.4844 11.6544 19.8184 12.3203 19 12.3203C18.1816 12.3203 17.5156 11.6544 17.5156 10.8359C17.5156 10.0175 18.1816 9.35156 19 9.35156Z" fill="#01A2FF"/>
<path d="M19 0C8.75958 0 3.23652e-05 8.74303 3.23652e-05 19C3.23652e-05 22.5036 1.00401 26.2297 2.69684 29.0479L0.0380115 37.0233C-0.0507031 37.2897 0.018587 37.584 0.21747 37.7826C0.417223 37.9823 0.711778 38.0504 0.977052 37.9617L8.95237 35.3032C11.7704 36.9963 15.4964 38 19 38C29.2431 38 38 29.2558 38 19C38 8.75694 29.2561 0 19 0V0ZM19 36.5156C15.639 36.5156 12.0667 35.5238 9.44378 33.8626C9.25794 33.7449 9.0263 33.7139 8.81176 33.7855L1.9158 36.0842L4.21455 29.1883C4.28529 28.9766 4.25688 28.7447 4.13743 28.5562C2.47621 25.9337 1.48441 22.361 1.48441 19C1.48441 9.50551 9.50553 1.48438 19 1.48438C28.4945 1.48438 36.5156 9.50551 36.5156 19C36.5156 28.4945 28.4945 36.5156 19 36.5156Z" fill="#01A2FF"/>
</svg>
