<svg xmlns="http://www.w3.org/2000/svg" width="21" height="19" viewBox="0 0 21 19">
    <path fill="none" fill-rule="evenodd" stroke="#4594FF" d="M18.281 5.225c-.156 7.336-4.687 12.439-11.562 12.758-2.813.159-4.844-.798-6.719-1.914 2.031.319 4.688-.479 6.094-1.754-2.032-.16-3.282-1.276-3.907-3.03.626.16 1.25 0 1.72 0C2.03 10.647.78 9.53.624 6.979c.469.319 1.094.479 1.719.479C.938 6.66 0 3.63 1.094 1.717c2.031 2.232 4.531 4.146 8.594 4.465-1.094-4.465 4.843-6.857 7.187-3.828 1.094-.159 1.875-.637 2.656-.956-.312 1.116-.937 1.754-1.718 2.392.78-.16 1.562-.32 2.187-.638-.156.797-.938 1.435-1.719 2.073z"/>
</svg>
