<svg xmlns="http://www.w3.org/2000/svg" width="101" height="24" viewBox="0 0 101 24">
    <path fill="#FFF" fill-rule="evenodd" stroke="#FFF" stroke-width=".5" d="M82.075 18.258V6.213h2.03v12.045h-2.03zM56.1 4.96c3.9 0 7.073 3.154 7.073 7.031v6.023h-2.03v-1.099a7.069 7.069 0 0 1-5.043 2.108c-3.9 0-7.072-3.155-7.072-7.032 0-3.877 3.173-7.031 7.072-7.031zm0 12.045c2.78 0 5.043-2.25 5.043-5.014 0-2.764-2.262-5.013-5.043-5.013-2.78 0-5.043 2.249-5.043 5.013 0 2.765 2.263 5.014 5.043 5.014zM28.948 11.27V6.213h2.03v5.057c0 3.878-3.172 7.032-7.072 7.032s-7.073-3.154-7.073-7.032V6.213h2.03v5.057c0 2.765 2.263 5.014 5.043 5.014 2.78 0 5.042-2.249 5.042-5.014zm11.371-.461l4.56-4.596h2.094v12.09h-1.87V8.52l-4.053 4.005v5.776h-1.87v-5.776l-4.055-4.005v9.781h-1.87V6.213h2.504l4.56 4.596zm60.132 1.199l-.003.134h.003V23.25h-2.03v-6.319a7.071 7.071 0 0 1-5.043 2.108c-3.9 0-7.073-3.154-7.073-7.031v-.016c0-3.877 3.173-7.031 7.073-7.031 3.9 0 7.073 3.154 7.073 7.031v.016zm-7.073-5.03c-2.78 0-5.043 2.25-5.043 5.014 0 2.765 2.263 5.014 5.043 5.014 2.78 0 5.043-2.25 5.043-5.014 0-2.764-2.262-5.013-5.043-5.013zm-15.764-.765h2.183v12.09h-2.278l-9.882-9.358v9.357h-2.182V6.212h2.462l9.697 9.184V6.213zm-62.962 5.696h.002v6.106h-2.03v-6.023c0-2.764-2.262-5.013-5.043-5.013a5.038 5.038 0 0 0-5.003 4.41v6.626H.548V.75h2.03v6.276A7.074 7.074 0 0 1 7.581 4.96c3.872 0 7.026 3.11 7.07 6.95z"/>
</svg>
