<svg xmlns="http://www.w3.org/2000/svg" width="62" height="78" viewBox="0 0 62 78">
    <g fill="#FFF" fill-rule="nonzero">
        <path d="M50.684 38.475l-.128.095c-.024.016-.643.478-.972.732l-1.47 1.17 1.863.287c.12.016.29.032.555.056 3.196.278 5.091.827 5.621 1.647.924 1.425.868 3.017-.168 4.354-1.173 1.528-2.683 2.841-4.393 4.282-.723.605-1.582 1.122-2.49 1.671-.442.271-.907.55-1.381.852l-2.65 1.695 3.148-.19c4.136-.255 9.854-3.304 12.239-6.52 1.47-1.981 1.871-4.417 1.076-6.502-.763-1.998-2.49-3.422-4.754-3.916l-.08-.016a17.724 17.724 0 0 0-2.169-.127c-2.16 0-3.638.382-3.694.398l-.153.032zM26.487 37.846a97.206 97.206 0 0 1 1.855 1.775l.433.43.57-.438c.089-.072.185-.143.274-.207l.514-.39-.362-.533c-.377-.565-.755-1.13-1.14-1.696-.835-1.241-1.703-2.53-2.538-3.812-2.345-3.606-2.104-6.582.771-9.663.972-1.042 2.112-1.997 3.204-2.92.394-.327.795-.67 1.189-1.011 3.1-2.683 6.112-5.779 7.132-10.172.682-2.937.096-5.412-1.76-7.362L34.896 0l.562 2.475c.884 3.86-.209 7.227-3.317 10.276-.626.612-1.317 1.193-1.991 1.759-.49.406-.988.827-1.478 1.265-.675.613-1.365 1.226-2.032 1.823-1.96 1.75-3.991 3.565-5.863 5.484-1.55 1.584-1.847 3.772-.867 6.32 1.373 3.557 4.016 6.04 6.578 8.444z"/>
        <path d="M18.247 47.293h.056c.088 0 .177.008.265.008l-.811.406c-1.044.518-3.269 2.332-3.052 4.338.16 1.44 1.47 2.483 3.911 3.104 2.176.55 4.875.828 8.031.828 8.907 0 18.769-2.237 18.865-2.26l.643-.144v-.652c0-.287 0-.534-2.113-3.224l-.329-.422-.522.128c-.08.016-8.055 1.902-19.146 1.902-.811 0-1.63-.008-2.441-.032-1.47-.04-2.466-.366-2.803-.923-.378-.621.056-1.52.056-1.528l.779-1.497h.442c13.476 0 27.98-4.05 28.125-4.09l-.29-1.608c-.12.007-6.24.477-12.52.939a88.705 88.705 0 0 1 1.558-1.505c1.165-1.098 2.265-2.133 3.14-3.358 1.735-2.436 1.695-5.102-.112-7.53a48.52 48.52 0 0 1-2.145-3.16c-1.582-2.499-1.51-3.971.29-6.064 1.124-1.314 2.537-2.595 4.296-3.908 1.486-1.107 3.068-2.133 4.747-3.216.763-.493 1.55-1.003 2.36-1.536l2.86-1.894-3.413.39c-.233.024-.418.04-.587.047-.313.024-.594.04-.875.168-.964.43-1.96.86-2.923 1.265-2.522 1.083-5.132 2.197-7.574 3.566-1.83 1.027-3.606 2.682-5.003 4.656-2.755 3.908-2.28 8.142 1.437 12.95 2.538 3.287 2.578 3.828.466 7.242-.184.295-.144.573-.104.836.024.135.048.318.08.613l.056.525c-5.605.406-10.986.78-11.99.78h-.048c-3.799-.087-4.94-.51-5.269-.7.177-.207.707-.7 2.281-1.449a28.874 28.874 0 0 1 2.377-.995l.603-.215-.129-1.376h-.755c-.257 0-3.124.74-5.437 1.528-5.003 1.695-5.726 2.873-5.774 3.804-.08 1.72 2.37 2.667 8.44 3.263zM24.174 73.917c-7.421 0-11.244-.995-11.284-1.003l-.37-.103c1.14.04 2.362.055 3.67.055 7.534 0 17.822-.66 30.583-1.958h.024c7.14-.963 10.264-3.319 10.81-5.213.24-.828.008-1.608-.626-2.125l-1.318-1.082-.04 1.655c-.257.446-2.401 1.584-8.85 2.81-4.441.843-9.806 1.52-13.058 1.631-1.173.04-2.426.064-3.703.064-4.4 0-8.898-.247-13.243-.486l-3.092-.167h-.016c-3.638-.127-3.992-.82-4-.82-.016-.087.177-.588 1.326-1.424.94-.677 2.08-1.25 2.786-1.528l2.867-1.099-3.035-.477c-.514-.08-1.125-.12-1.815-.12-2.98 0-8.545.884-10.802 3.24-.675.708-.996 1.488-.948 2.324v.12c-.016.405-.04 1.24.755 2.053 1.269 1.297 4.353 2.1 9.364 2.427l1.96 1.64c.177.151 4.505 3.669 14.64 3.669 3.165 0 6.594-.35 10.184-1.035 6.16-1.178 17.66-4.473 24.31-7.314l-.554-1.544c-16.785 4.8-29.129 5.81-36.525 5.81z"/>
        <path d="M36.3 58.643c-2.602.541-5.067.82-7.34.82-5.782 0-8.738-1.783-9.5-2.324l-.53-.382-3.775 3.255.682.621c.169.151 4.209 3.725 13.717 3.725 4.434 0 9.365-.788 14.665-2.332l2.964-.868-10.698-2.562-.184.047z"/>
    </g>
</svg>
