<svg xmlns="http://www.w3.org/2000/svg" width="80" height="68" viewBox="0 0 80 68">
    <path fill="#FFF" fill-rule="nonzero" d="M.05 54.449l73.94-9.8c2.849-.367 3.956 1.362 2.427 3.825l-2.426 4.088c-1.582 2.464-5.116 4.507-7.911 4.507H.05v-2.62zm64.87 5.765c2.004-.314 2.795.839 1.582 2.62l-3.165 4.717H10.6l54.32-7.337zM25.366 39.25c-4.747 4.088-9.915 6.29-15.295 6.656-5.432.367-8.649-1.258-9.704-4.874-1.054-3.668.159-8.805 3.692-15.46 3.48-6.814 7.805-12.317 12.868-16.405 5.274-4.14 10.39-6.236 15.664-6.603 7.014-.524 10.178 2.62 9.81 9.276l-13.713 4.717c.527-1.258.686-2.306.527-2.987-.263-.682-.843-1.048-1.793-.944-3.375.21-7.225 4.56-11.708 13.103-1.898 3.668-2.9 6.289-3.006 7.861-.105 1.572.633 2.411 2.215 2.306.633 0 1.319-.262 1.952-.524a10.705 10.705 0 0 0 1.898-1.363c.633-.524 1.266-1.205 1.846-1.939.633-.786 1.16-1.572 1.582-2.62l-4.377.367 4.64-8.91L39.13 19.86l-.843 1.73c-4.272 8.123-8.491 13.993-12.921 17.661zm13.079.367c-1.952-3.668-.844-9.276 3.164-17.033 3.797-7.442 8.86-13.207 14.978-17.4C61.175 2.04 65.553.31 69.772.048c5.063-.367 8.121 1.363 9.07 5.084.95 3.669-.263 8.91-3.691 15.618-3.375 6.446-7.7 11.687-12.868 15.88-5.063 4.193-10.02 6.499-15.03 6.813-4.325.315-7.279-1.048-8.808-3.826zM53.739 21.17c-2.215 3.774-3.48 6.656-3.903 8.752-.369 2.097.159 3.145 1.582 3.145 1.424 0 3.165-1.048 5.116-3.145 2.11-1.991 4.114-4.874 6.223-8.49 4.641-8.07 5.485-12.054 2.637-12.054-1.582 0-3.322 1.048-5.38 3.145-2.003 1.939-4.06 4.821-6.328 8.647h.053z"/>
</svg>
