<svg xmlns="http://www.w3.org/2000/svg" width="78" height="78" viewBox="0 0 78 78">
    <path fill="#FFF" fill-rule="nonzero" d="M0 6c0-3.3 2.7-6 6-6h66c3.3 0 6 2.7 6 6v66c0 3.3-2.7 6-6 6H6c-3.3 0-6-2.7-6-6V6zm42.42 55.2l.06.12v-24.9h-8.82v24.54l-.12.48-.18.6-.12.48-.18.42-.24.42-.24.24-.3.3-.42.24-.42.24-.42.18-.42.18-.6.12-.48.12h-2.88l-.42-.12h-.48l-.48-.12h-.48l-.48-.12-.42-.18.12.6v.48l.18.48v.36l.18.42v.6l.12.48v1.02l.12.48.18.42v.6l.12.48v.48l.12.48.3.12.6.12h.6l.6.12h.42l.48.12h3l.48-.12h.6l.48-.12h.48l.42-.12h.6l.42-.12.48-.12.36-.12.6-.18.48-.12.42-.24.42-.24.48-.24.42-.24.36-.24.48-.3.36-.3.3-.36.3-.3.3-.42.3-.42.3-.36.24-.48.24-.42.12-.42.18-.36.12-.36.24-.48v-.42l.12-.36.12-.6v-.36l.18-.6V61.2zm31.68 0l.12.3v-1.08l-.12-.48v-.48l-.12-.48v-.48l-.12-.42-.12-.36-.18-.42-.24-.42-.3-.48-.18-.42-.3-.42-.36-.36-.36-.42-.36-.24-.36-.36-.36-.3-.3-.24-.36-.3-.42-.24-.36-.18-.6-.24-.42-.3-.42-.18-.42-.24-.42-.24-.42-.18-.48-.18-.48-.3-.42-.18-.6-.18-.48-.3-.48-.18-.6-.18-.6-.18-.48-.24-.6-.18-.48-.18-.42-.12-.36-.24-.6-.3-.48-.24-.42-.24-.3-.18-.48-.36-.3-.36-.18-.3-.12-.36-.12-.36v-1.14l.12-.48.18-.36.24-.36.42-.3.36-.24.36-.24h.42l.42-.18h3.54l.36.12.42.12h.6l.48.24h.36l.6.18.48.18.42.18.42.12.48.18.48.18.42.18.48.18.36.18.42.24.48.3.42.24.12-.42.12-.6v-.48l.18-.48.18-.48v-.48l.12-.48.12-.48v-.6l.12-.48.12-.48.12-.48v-.42l.18-.6v-.42l-.42-.18-.48-.18-.42-.18-.42-.12-.42-.18-.42-.24h-.48l-.48-.18-.36-.12-.42-.12-.48-.12h-.42l-.42-.12-.6-.12h-.36l-.48-.18h-.96l-.6-.12h-2.58l-.6.12h-1.5l-.6.12-.48.18h-.48l-.48.18h-.42l-.6.18-.48.18-.48.18-.48.24-.42.24-.54.06-.48.3-.3.24-.36.3-.42.3-.36.36-.36.24-.3.36-.3.36-.3.42-.24.42-.24.36-.24.48-.18.36-.18.42-.12.42-.24.48v.42l-.12.42-.12.48v2.58l.12.42v.6l.18.48v.42l.18.48.12.36.18.48.3.42.24.42.24.42.36.36.3.42.36.36.36.24.42.3.24.24.54.36.36.24.48.3.42.3.78.06.36.24.3.18.42.18.36.24.48.12.48.12.42.24.48.18.48.12.48.24.42.18.6.18.48.18.6.24.48.18.42.18.42.18.36.12.42.24.42.24.42.24.3.24.36.18.42.36.3.42.24.42.24.36v1.56l-.12.48-.24.42-.24.36-.3.36-.42.36-.3.24-.6.12-.42.18-.42.12-.6.12h-2.64l-.48-.12h-.48l-.42-.12h-.42l-.6-.12-.48-.12-.48-.12-.48-.12-.48-.18-.6-.12-.42-.18-.48-.12-.36-.24-.6-.12-.42-.24-.48-.18-.36-.18-.42-.18-.48-.24-.42-.18-.42-.3-.48-.18-.12.48v.48l-.18.48v.48l-.18.6v.48l-.12.48-.12.48v.48l-.12.48v.48l-.12.6-.12.48v.48l-.18.48.42.18.48.18.42.12.42.18.48.18.42.18.48.18.42.12.42.24h.48l.48.24h.48l.48.12.36.06h.6l.42.18.42.18h1.02l.48.18h.48l.42.12h4.26l.48-.12h.48l.48-.12h.42l.48-.12h.48l.42-.18h.42l.6-.18.42-.18.42-.18.42-.18.42-.18.42-.12.3-.3.42-.24.36-.3.36-.24.36-.3.36-.3.42-.36.36-.36.3-.36.24-.42.36-.36.24-.48.3-.48.12-.36.18-.48.24-.42v-.42l.12-.6.12-.48V63l.12-.6v-1.2z"/>
</svg>
