<svg xmlns="http://www.w3.org/2000/svg" xmlns:xlink="http://www.w3.org/1999/xlink" width="138" height="118" viewBox="0 0 138 118">
    <defs>
        <linearGradient id="a" x1="56.685%" x2="2.585%" y1="56.685%" y2="2.586%">
            <stop offset="0%" stop-opacity="0"/>
            <stop offset="100%"/>
        </linearGradient>
        <linearGradient id="b" x1="76.387%" x2="30.75%" y1="76.492%" y2="30.854%">
            <stop offset="0%" stop-opacity="0"/>
            <stop offset="100%"/>
        </linearGradient>
        <linearGradient id="c" x1="74.876%" x2="11.184%" y1="74.767%" y2="11.629%">
            <stop offset="0%" stop-opacity="0"/>
            <stop offset="100%"/>
        </linearGradient>
        <linearGradient id="d" x1="69.7%" x2="6.797%" y1="69.468%" y2="6.289%">
            <stop offset="0%" stop-opacity="0"/>
            <stop offset="100%"/>
        </linearGradient>
        <path id="e" d="M.9 6.7v12.6c0 3.6 2.9 6.6 6.6 6.6 3.6 0 6.6-2.9 6.6-6.6V6.7c0-3.6-2.9-6.6-6.6-6.6C3.9.1.9 3 .9 6.7z"/>
        <linearGradient id="f" x1="164.527%" x2="-5.954%" y1="-27.841%" y2="52.817%">
            <stop offset="0%" stop-color="#1E54A0"/>
            <stop offset="100%" stop-color="#2478BE"/>
        </linearGradient>
        <path id="h" d="M14.1 6.7v12.6c0 3.6-2.9 6.6-6.6 6.6-3.6 0-6.6-2.9-6.6-6.6V6.7C.9 3.1 3.8.1 7.5.1c3.6 0 6.6 2.9 6.6 6.6z"/>
        <linearGradient id="i" x1="-63.54%" x2="105.788%" y1="-28.216%" y2="52.768%">
            <stop offset="0%" stop-color="#1E54A0"/>
            <stop offset="100%" stop-color="#2478BE"/>
        </linearGradient>
    </defs>
    <g fill="none" fill-rule="evenodd">
        <g fill-rule="nonzero">
            <path fill="#1E54A0" d="M68.2 20.5h1.7v8.7h-1.7z"/>
            <path fill="#2478BE" d="M69 28.1V38H58.3c.4-5.3 4.6-9.5 9.9-9.9h.8z"/>
            <path fill="#3AA3E3" d="M79.7 38H69v-9.9h.8c5.3.4 9.5 4.6 9.9 9.9zM69 11.9V22c-2.8 0-5-2.3-5-5 0-2.8 2.2-5.1 5-5.1z"/>
            <path fill="#67BCEF" d="M74 17c0 2.8-2.3 5-5 5V11.9c2.8 0 5 2.3 5 5.1z"/>
            <path fill="#3AA3E3" d="M85.6 17h-1.1c0-8.6-7-15.5-15.5-15.5-8.6 0-15.5 7-15.5 15.5h-1.1C52.4 7.8 59.9.3 69 .3 78.2.3 85.6 7.8 85.6 17z"/>
            <path fill="#3AA3E3" d="M80.1 17H79c0-5.5-4.5-10-10-10s-10 4.5-10 10h-1.1c0-6.1 5-11.1 11.1-11.1s11.1 5 11.1 11.1z"/>
        </g>
        <path fill="#67BCEF" fill-rule="nonzero" d="M130.5 78l-18.2 33.8c-2.1-2.7-3.3-6.1-3.3-9.7V53.9c0-3.7 1.2-7 3.3-9.7L130.5 78z"/>
        <path fill="#3AA3E3" fill-rule="nonzero" d="M130.5 78v34.4c0 3.1-2.5 5.6-5.6 5.6-5.1 0-9.7-2.4-12.6-6.2L130.5 78zM130.5 78V43.6c0-3.1-2.5-5.6-5.6-5.6-5.1 0-9.7 2.4-12.6 6.2L130.5 78z"/>
        <path fill="#1E54A0" fill-rule="nonzero" d="M109 53.8v48.3c0 4.4-1.8 8.3-4.6 11.2-2.9 2.9-6.8 4.6-11.2 4.6H44.9c-4.4 0-8.3-1.8-11.2-4.6-2.9-2.9-4.6-6.8-4.6-11.2V53.8c0-4.4 1.8-8.3 4.6-11.2 2.9-2.9 6.8-4.6 11.2-4.6h48.3c4.4 0 8.3 1.8 11.2 4.6 2.8 2.9 4.6 6.9 4.6 11.2z"/>
        <path fill="url(#a)" fill-rule="nonzero" d="M44.9 114.6c-3.3 0-6.5-1.3-8.8-3.7-2.4-2.4-3.7-5.5-3.7-8.8V53.8c0-3.3 1.3-6.5 3.7-8.8 2.4-2.4 5.5-3.7 8.8-3.7h48.3c3.3 0 6.5 1.3 8.8 3.7 2.4 2.4 3.7 5.5 3.7 8.8v48.3c0 3.3-1.3 6.5-3.7 8.8-2.4 2.4-5.5 3.7-8.8 3.7H44.9z" opacity=".2"/>
        <path fill="url(#b)" fill-rule="nonzero" d="M85.2 91.5c-.1-.2-5-5.1-5.2-5.2l1.5-3.1c.3-.7.2-1.4-.3-2L69.1 69.1c-.5-.5-1.3-.6-2-.3L64 70.2c-.1-.2-5-5-5.2-5.2-.3-.5-.9-.8-1.5-.8h-1.4c-.7 0-1.4.5-1.6 1.1l-1.2 3.3c-.2.5-.5.8-1 1l-1.4.6c-.4.2-1 .2-1.4 0l-3.2-1.5c-.7-.3-1.4-.2-2 .3l-1 1c-.5.5-.6 1.3-.3 2l1.5 3.2c.2.4.2.9 0 1.4l-.6 1.4c-.2.4-.6.8-1 1l-3.3 1.2c-.7.2-1.1.9-1.1 1.6v1.4c0 .6.3 1.2.8 1.5.1.2 5 5.1 5.2 5.2L42.8 93c-.3.7-.2 1.4.3 2l12.1 12.1c.5.5 1.3.6 2 .3l3.1-1.5c.1.2.3.4.5.5.1.2.3.4.6.6.1.2.3.4.6.6.1.2.3.4.6.6.1.2.3.4.6.6.1.2.3.4.6.6.1.2.3.4.6.6.1.2.3.4.6.6.1.2.3.4.6.6.3.5.9.8 1.5.8h1.4c.7 0 1.4-.5 1.6-1.1l1.2-3.3c.2-.5.5-.8 1-1l1.4-.6c.4-.2 1-.2 1.4 0l3.2 1.5c.7.3 1.4.2 2-.3l1-1c.5-.5.6-1.3.3-2l-1.5-3.2c-.2-.4-.2-.9 0-1.4l.6-1.4c.2-.4.6-.8 1-1L85 96c.7-.2 1.1-.9 1.1-1.6V93c-.1-.7-.4-1.2-.9-1.5z" opacity=".2"/>
        <path fill="url(#c)" fill-rule="nonzero" d="M107.7 75.4c-.2-.2-4.8-4.8-4.9-5l.4-1.9c.2-1-.2-1.9-.9-2.4l-8.6-8.6c-.7-1-2.1-1.4-3.2-.6L88 58.7c-.6.4-1.3.5-1.9.3l-.2-.2c-.1-.2-2.9-2.9-2.9-2.9-1.3-1.6-4-.8-4.1 1.3l-.2 3c-.1 1.2-1.1 2.2-2.3 2.2h-3c-2.1 0-3.1 2.6-1.5 4l2.7 2.7c.4.8.3 1.7-.3 2.4L72.4 74c-.9 1.1-.5 2.6.5 3.4l8.6 8.6c.5.7 1.3 1.1 2.3 1l1.4-.2s5 5.1 5.3 5.2c.9 1.3 3 1.4 3.9-.2l1.5-2.6c.6-1.1 1.9-1.5 3-1l2.7 1.3c1.9.9 3.9-1 3.1-3l-1.1-2.8c-.5-1.1 0-2.4 1.1-3l2.7-1.3c1.7-.8 1.7-3 .3-4z" opacity=".2"/>
        <path fill="url(#d)" fill-rule="nonzero" d="M108.4 97.2c.7-.9.4-2.1-.4-2.7l-8.7-8.7c-.4-.4-.9-.7-1.6-.7 0 0-3.2.1-3.3.1L91 81.8c-1-1.2-3-.8-3.4.7l-.9 3c-.2.6-.7 1.1-1.3 1.3l-3 1c-1.5.5-1.8 2.4-.7 3.4l3.6 3.6v3c0 .6.3 1.1.7 1.5.1.2 8.5 8.5 8.7 8.7.6.8 1.8 1 2.7.3l2.5-1.9c.5-.4 1.2-.5 1.8-.3l3 .9c1.6.5 3-1 2.5-2.5l-1.1-2.9c-.2-.6-.1-1.3.3-1.8l2-2.6z" opacity=".2"/>
        <path fill="#3AA3E3" fill-rule="nonzero" d="M73.8 80.2L70.5 79c-.5-.2-.8-.5-1-1l-.6-1.4c-.2-.4-.2-1 0-1.4l1.5-3.2c.3-.7.2-1.4-.3-2l-1-1c-.5-.5-1.3-.6-2-.3l-3.2 1.5c-.4.2-.9.2-1.4 0l-1.4-.6c-.4-.2-.8-.6-1-1L59 65.4c-.2-.7-.9-1.1-1.6-1.1H56c-.7 0-1.4.5-1.6 1.1l-1.2 3.3c-.2.5-.5.8-1 1l-1.4.6c-.4.2-1 .2-1.4 0l-3.2-1.5c-.7-.3-1.4-.2-2 .3l-1 1c-.5.5-.6 1.3-.3 2l1.5 3.2c.2.4.2.9 0 1.4l-.6 1.4c-.2.4-.6.8-1 1l-3.3 1.2c-.7.2-1.1.9-1.1 1.6v1.4c0 .7.5 1.4 1.1 1.6l3.3 1.2c.5.2.8.5 1 1l.6 1.4c.2.4.2 1 0 1.4l-1.5 3.2c-.3.7-.2 1.4.3 2l1 1c.5.5 1.3.6 2 .3l3.2-1.5c.4-.2.9-.2 1.4 0l1.4.6c.4.2.8.6 1 1l1.2 3.3c.2.7.9 1.1 1.6 1.1h1.4c.7 0 1.4-.5 1.6-1.1l1.2-3.3c.2-.5.5-.8 1-1l1.4-.6c.4-.2 1-.2 1.4 0l3.2 1.5c.7.3 1.4.2 2-.3l1-1c.5-.5.6-1.3.3-2L69 89.9c-.2-.4-.2-.9 0-1.4l.6-1.4c.2-.4.6-.8 1-1l3.3-1.2c.7-.2 1.1-.9 1.1-1.6v-1.4c-.1-.8-.5-1.4-1.2-1.7zm-17.2 12c-5.3 0-9.6-4.3-9.6-9.6s4.3-9.6 9.6-9.6 9.6 4.3 9.6 9.6c.1 5.3-4.2 9.6-9.6 9.6z"/>
        <path fill="#2478BE" fill-rule="nonzero" d="M91.2 81.9l1.8 2.5c.4.5 1 .8 1.6.8l3.1-.1c1.6 0 2.6 1.8 1.7 3.1l-1.8 2.5c-.4.5-.5 1.2-.3 1.8l1.1 2.9c.6 1.5-.9 3-2.5 2.5l-3-.9c-.6-.2-1.3-.1-1.8.3l-2.5 1.9c-1.3 1-3.2.1-3.2-1.5v-3.1c0-.6-.3-1.3-.9-1.6l-2.6-1.8c-1.3-.9-1.1-3 .5-3.5l3-1c.6-.2 1.1-.7 1.3-1.3l.9-3c.6-1.4 2.6-1.8 3.6-.5z"/>
        <path fill="#67BCEF" fill-rule="nonzero" d="M82.9 55.9l1.9 2.3c.8.9 2.1 1.1 3.1.4l2.5-1.7c1.7-1.2 4 .3 3.6 2.4l-.6 2.9c-.3 1.2.4 2.4 1.6 2.7l2.9.9c2 .6 2.3 3.4.4 4.3l-2.7 1.3c-1.1.5-1.6 1.8-1.1 3l1.1 2.8c.8 2-1.2 3.9-3.1 3l-2.7-1.3c-1.1-.5-2.4-.1-3 1l-1.5 2.6c-1 1.8-3.8 1.4-4.3-.6l-.7-2.9c-.3-1.2-1.4-1.9-2.6-1.8l-3 .5c-2.1.3-3.5-2.1-2.2-3.7l1.9-2.4c.7-1 .6-2.3-.3-3.1l-2.2-2c-1.6-1.4-.6-4 1.5-4h3c1.2 0 2.2-1 2.3-2.2l.2-3c0-2.2 2.7-3 4-1.4z"/>
        <circle cx="56.6" cy="82.6" r="7.8" fill="#67BCEF" fill-rule="nonzero"/>
        <path fill="#FFF" fill-rule="nonzero" d="M62.1 82.6H61c0-2.4-2-4.4-4.4-4.4v-1.1c3.1 0 5.5 2.4 5.5 5.5z"/>
        <circle cx="85.3" cy="69.4" r="6.5" fill="#FFF" fill-rule="nonzero"/>
        <circle cx="85.3" cy="69.4" r="5.4" fill="#1E54A0" fill-rule="nonzero"/>
        <circle cx="90.9" cy="90.8" r="3.6" fill="#67BCEF" fill-rule="nonzero"/>
        <circle cx="90.9" cy="90.8" r="1.5" fill="#FFF" fill-rule="nonzero"/>
        <g transform="translate(123 65)">
            <mask id="g" fill="#fff">
                <use xlink:href="#e"/>
            </mask>
            <use fill="#2478BE" fill-rule="nonzero" xlink:href="#e"/>
            <path fill="url(#f)" fill-rule="nonzero" d="M.9 28L14.1 3.9V.1H.9z" mask="url(#g)"/>
        </g>
        <path fill="#3AA3E3" fill-rule="nonzero" d="M123.9 81.7h4.5v1.1h-4.5zM123.9 73.1h4.5v1.1h-4.5zM113.2 82.2c-.8 0-1.4-.6-1.4-1.4v-5.6c0-.8.6-1.4 1.4-1.4.8 0 1.4.6 1.4 1.4v5.6c-.1.7-.7 1.4-1.4 1.4z"/>
        <path fill="#67BCEF" fill-rule="nonzero" d="M7.5 78l18.2 33.8c2.1-2.7 3.3-6.1 3.3-9.7V53.9c0-3.7-1.2-7-3.3-9.7L7.5 78z"/>
        <path fill="#3AA3E3" fill-rule="nonzero" d="M7.5 78v34.4c0 3.1 2.5 5.6 5.6 5.6 5.1 0 9.7-2.4 12.6-6.2L7.5 78zM7.5 78V43.6c0-3.1 2.5-5.6 5.6-5.6 5.1 0 9.7 2.4 12.6 6.2L7.5 78z"/>
        <g transform="translate(0 65)">
            <mask id="j" fill="#fff">
                <use xlink:href="#h"/>
            </mask>
            <use fill="#2478BE" fill-rule="nonzero" xlink:href="#h"/>
            <path fill="url(#i)" fill-rule="nonzero" d="M14.1 27.7L.9 3.9V.1h13.2z" mask="url(#j)"/>
        </g>
        <path fill="#3AA3E3" fill-rule="nonzero" d="M9.6 81.7h4.5v1.1H9.6zM9.6 73.1h4.5v1.1H9.6zM24.8 82.2c.8 0 1.4-.6 1.4-1.4v-5.6c0-.8-.6-1.4-1.4-1.4-.8 0-1.4.6-1.4 1.4v5.6c.1.7.7 1.4 1.4 1.4z"/>
        <path fill="#FFF" fill-rule="nonzero" d="M88.2 69.4h-.8c0-1.2-1-2.1-2.1-2.1v-.8c1.6-.1 2.9 1.3 2.9 2.9z"/>
    </g>
</svg>
