<?xml version="1.0" encoding="utf-8"?>
<!-- Generator: Adobe Illustrator 21.1.0, SVG Export Plug-In . SVG Version: 6.00 Build 0)  -->
<svg version="1.1" id="Layer_1" xmlns="http://www.w3.org/2000/svg" xmlns:xlink="http://www.w3.org/1999/xlink" x="0px" y="0px"
	 viewBox="0 0 1366 450" style="enable-background:new 0 0 1366 450;" xml:space="preserve">
<g>
	<path d="M771.4,142.8c-44.3,0-80.3,36-80.3,80.3s36,80.3,80.3,80.3c22.3,0,42.6-9.3,57.2-24v24h23.1v-80.3
		C851.7,178.8,815.5,142.8,771.4,142.8z M771.4,280.3c-31.6,0-57.2-25.6-57.2-57.2s25.6-57.2,57.2-57.2c31.6,0,57.2,25.6,57.2,57.2
		S803,280.3,771.4,280.3z"/>
	<path d="M251.9,230.7c0-55.3-32.7-87.9-81.3-87.9c-24.5,0-40.7,9.9-56.7,26.1V97.7H88.5v57.8v147.7H114v-44.6v-6v-28.9
		c0-30.5,24.5-55.6,56.7-55.6c34.9,0,55.8,28.6,55.8,63.5v71.5h25.5L251.9,230.7L251.9,230.7z"/>
	<polyline points="878.9,303.4 902.4,303.4 902.4,183.5 1027.2,303.4 1051.1,303.4 1051.1,293.8 1051.1,150.8 1027.7,150.8 
		1027.7,271.2 902.4,150.8 878.7,150.8 	"/>
	<rect x="1078.5" y="151.1" width="23.7" height="152.3"/>
	<path d="M1209.7,142.8c-44.3,0-80.3,36-80.3,80.3s36,80.3,80.3,80.3c22.3,0,42.6-9.3,57.2-24v75h23.1V223.1
		C1290,178.8,1254,142.8,1209.7,142.8z M1209.7,280.3c-31.6,0-57.2-25.6-57.2-57.2s25.6-57.2,57.2-57.2s57.2,25.6,57.2,57.2
		C1266.9,254.7,1241.3,280.3,1209.7,280.3z"/>
	<path d="M415.6,150.7v63.8c0,34.9-20.6,63.2-55.3,63.2c-34.9,0-55.3-28.4-55.3-63.2v-63.8h-25.5v63.8c0,48.9,31.9,88.6,80.8,88.6
		s80.8-39.8,80.8-88.6v-63.8H415.6z"/>
	<polygon points="629.5,150.8 566.1,202.4 502.6,150.8 468.4,150.8 468.4,303.4 491.8,303.4 491.8,173.6 554.3,224.4 554.3,303.4 
		566.1,303.4 577.7,303.4 577.7,224.4 640.3,173.6 640.3,303.4 663.7,303.4 663.7,150.8 	"/>
</g>
</svg>
