<?xml version="1.0" encoding="utf-8"?>
<!-- Generator: Adobe Illustrator 21.0.1, SVG Export Plug-In . SVG Version: 6.00 Build 0)  -->
<svg version="1.1" id="Слой_1" xmlns="http://www.w3.org/2000/svg" xmlns:xlink="http://www.w3.org/1999/xlink" x="0px" y="0px"
	 viewBox="0 0 56.25 56.766" style="enable-background:new 0 0 56.25 56.766;" xml:space="preserve">
<style type="text/css">
	.st0{fill:none;stroke:#fff;stroke-width:1.5;stroke-miterlimit:10;}
	.st1{fill-rule:evenodd;clip-rule:evenodd;fill:none;stroke:#fff;stroke-width:1.5;stroke-miterlimit:10;}
</style>
<path class="st0" d="M45.55,48.051C41.301,52.922,35.048,56,28.076,56c-6.839,0-12.986-2.961-17.228-7.672"/>
<path class="st0" d="M31.036,9.827c11.404,1.454,20.22,11.194,20.22,22.993c0,3.7-0.867,7.197-2.408,10.3"/>
<path class="st0" d="M7.304,43.119c-1.541-3.103-2.408-6.6-2.408-10.299c0-11.807,8.827-21.552,20.242-22.996"/>
<g>
	<line class="st0" x1="28.076" y1="0" x2="28.076" y2="26.393"/>
</g>
<polyline class="st1" points="34.243,20.197 28.076,26.364 21.909,20.197 "/>
<g>
	<line class="st0" x1="0.352" y1="50.549" x2="23.21" y2="37.352"/>
</g>
<polyline class="st1" points="14.76,35.11 23.184,37.367 20.927,45.792 "/>
<g>
	<line class="st0" x1="55.8" y1="50.549" x2="32.942" y2="37.352"/>
</g>
<polyline class="st1" points="41.392,35.11 32.968,37.367 35.226,45.792 "/>
</svg>
