<?xml version="1.0" encoding="utf-8"?>
<!-- Generator: Adobe Illustrator 21.0.0, SVG Export Plug-In . SVG Version: 6.00 Build 0)  -->
<svg version="1.1" id="Слой_1" xmlns="http://www.w3.org/2000/svg" xmlns:xlink="http://www.w3.org/1999/xlink" x="0px" y="0px"
	 viewBox="0 0 56.2 56.8" style="enable-background:new 0 0 56.2 56.8;" xml:space="preserve">
<style type="text/css">
	.st0{fill:none;stroke:#58A1FC;stroke-width:1.5;stroke-miterlimit:10;}
	.st1{fill-rule:evenodd;clip-rule:evenodd;fill:none;stroke:#58A1FC;stroke-width:1.5;stroke-miterlimit:10;}
</style>
<path class="st0" d="M45.6,48.1C41.3,52.9,35.1,56,28.1,56c-6.8,0-13-3-17.2-7.7"/>
<path class="st0" d="M31.1,9.8c11.4,1.5,20.2,11.2,20.2,23c0,3.7-0.9,7.2-2.4,10.3"/>
<path class="st0" d="M7.3,43.1C5.8,40,4.9,36.5,4.9,32.8c0-11.8,8.8-21.6,20.2-23"/>
<g>
	<line class="st0" x1="28.1" y1="0" x2="28.1" y2="26.4"/>
</g>
<polyline class="st1" points="34.3,20.2 28.1,26.4 21.9,20.2 "/>
<g>
	<line class="st0" x1="0.4" y1="50.5" x2="23.2" y2="37.4"/>
</g>
<polyline class="st1" points="14.8,35.1 23.2,37.4 20.9,45.8 "/>
<g>
	<line class="st0" x1="55.8" y1="50.5" x2="33" y2="37.4"/>
</g>
<polyline class="st1" points="41.4,35.1 33,37.4 35.2,45.8 "/>
</svg>
