<?xml version="1.0" encoding="utf-8"?>
<!-- Generator: Adobe Illustrator 21.0.0, SVG Export Plug-In . SVG Version: 6.00 Build 0)  -->
<svg version="1.1" id="Слой_1" xmlns="http://www.w3.org/2000/svg" xmlns:xlink="http://www.w3.org/1999/xlink" x="0px" y="0px"
	 viewBox="0 0 54.5 49.6" style="enable-background:new 0 0 54.5 49.6;" xml:space="preserve">
<style type="text/css">
	.st0{fill:none;stroke:#00A1FF;stroke-width:1.5;stroke-miterlimit:10;}
</style>
<g>
	<circle class="st0" cx="7.7" cy="14.8" r="4.9"/>
	<circle class="st0" cx="27.4" cy="14.8" r="4.9"/>
	<circle class="st0" cx="46.8" cy="14.8" r="4.9"/>
	<path class="st0" d="M20.5,26v11.7c0,0.6,0.5,1.1,1.1,1.1h0c0.6,0,1.1,0.5,1.1,1.1v7.8c0,0.6,0.5,1.1,1.1,1.1H31
		c0.6,0,1.1-0.5,1.1-1.1v-7.8c0-0.6,0.5-1.1,1.1-1.1h0c0.6,0,1.1-0.5,1.1-1.1V26c0-1.6-1.3-3-3-3h-7.9C21.8,23,20.5,24.4,20.5,26z"
		/>
	<path class="st0" d="M0.8,26v11.7c0,0.6,0.5,1.1,1.1,1.1h0c0.6,0,1.1,0.5,1.1,1.1v7.8c0,0.6,0.5,1.1,1.1,1.1h7.1
		c0.6,0,1.1-0.5,1.1-1.1v-7.8c0-0.6,0.5-1.1,1.1-1.1h0c0.6,0,1.1-0.5,1.1-1.1V26c0-1.6-1.3-3-3-3H3.7C2.1,23,0.8,24.4,0.8,26z"/>
	<path class="st0" d="M39.9,26v11.7c0,0.6,0.5,1.1,1.1,1.1h0c0.6,0,1.1,0.5,1.1,1.1v7.8c0,0.6,0.5,1.1,1.1,1.1h7.1
		c0.6,0,1.1-0.5,1.1-1.1v-7.8c0-0.6,0.5-1.1,1.1-1.1h0c0.6,0,1.1-0.5,1.1-1.1V26c0-1.6-1.3-3-3-3h-7.9C41.2,23,39.9,24.4,39.9,26z"
		/>
	<path class="st0" d="M23,6.2c0-2.7-1.6-5.5-4.9-5.5c-3.4,0-4.9,2.8-4.9,5.5"/>
	<path class="st0" d="M42,6.2c0-2.7-1.6-5.5-4.9-5.5c-3.4,0-4.9,2.8-4.9,5.5"/>
</g>
</svg>
