<svg id="Слой_1" xmlns="http://www.w3.org/2000/svg" viewBox="0 0 65.167 45.435"><style>.st0{fill:none;stroke:#fff;stroke-width:1.5;stroke-miterlimit:10;}</style><path class="st0" d="M57.415 44.68H7.755c-3.867 0-7-3.133-7-7V7.756c0-3.866 3.133-7 7-7h49.66c3.866 0 7 3.134 7 7V37.68c0 3.867-3.134 7-7 7zM23.776 23.17c4.396 1.485 7.535 5.393 7.535 9.982M8.394 33.152c0-4.587 3.138-8.496 7.533-9.98"/><path class="st0" d="M25.722 16.942c0 4.63-2.628 8.385-5.87 8.385s-5.868-3.754-5.868-8.385 2.628-7.267 5.87-7.267 5.868 2.636 5.868 7.267zM38.345 13.17h16.52M38.345 19.535h16.52M38.345 25.9h16.52M38.345 32.267h16.52"/></svg>