<?xml version="1.0" encoding="utf-8"?>
<!-- Generator: Adobe Illustrator 21.0.0, SVG Export Plug-In . SVG Version: 6.00 Build 0)  -->
<svg version="1.1" id="Layer_1" xmlns="http://www.w3.org/2000/svg" xmlns:xlink="http://www.w3.org/1999/xlink" x="0px" y="0px"
	 viewBox="0 0 72.3 95" style="enable-background:new 0 0 72.3 95;" xml:space="preserve">
<style type="text/css">
	.st0{fill:none;stroke:#fff;stroke-width:2;stroke-miterlimit:10;}
	.st1{fill:none;stroke:#fff;stroke-width:2;stroke-miterlimit:10;}
</style>
<path class="st0" d="M65.9,94H6.4c-3,0-5.4-2.4-5.4-5.4V6.4C1,3.4,3.4,1,6.4,1h59.5c3,0,5.4,2.4,5.4,5.4v82.2
	C71.3,91.6,68.9,94,65.9,94z"/>
<rect x="8" y="8.4" class="st1" width="56.3" height="67.9"/>
<circle class="st1" cx="36.2" cy="85.7" r="2.9"/>
<path class="st0" d="M42.6,30c-1.9-1-4.1-1.6-6.4-1.6c-2.4,0-4.6,0.6-6.6,1.7c-3.2,1.7-5.6,4.6-6.7,8.1c-0.4,1.3-0.6,2.7-0.6,4.2
	c0,2.8,0.8,5.4,2.2,7.5c2.5,3.8,6.8,6.4,11.7,6.4c7.7,0,13.9-6.2,13.9-13.9C50.1,37,47,32.3,42.6,30z"/>
<polyline class="st0" points="44.2,37.9 35,47.1 28.1,40.2 "/>
</svg>
