<?xml version="1.0" encoding="utf-8"?>
<!-- Generator: Adobe Illustrator 21.1.0, SVG Export Plug-In . SVG Version: 6.00 Build 0)  -->
<svg version="1.1" id="Layer_1" xmlns="http://www.w3.org/2000/svg" xmlns:xlink="http://www.w3.org/1999/xlink" x="0px" y="0px"
	 viewBox="0 0 1950 650" style="enable-background:new 0 0 1950 650;" xml:space="preserve">
<style type="text/css">
	.st0{fill:#67BCEF;}
	.st1{fill:#3AA3E3;}
	.st2{fill:#FFFFFF;}
</style>
<g>
	<rect y="0" class="st0" width="1950" height="650"/>
	<path class="st1" d="M1019.7,338.1c0,5.6-4.5,10.1-10.1,10.1c-5.6,0-10.1-4.5-10.1-10.1s4.5-10.1,10.1-10.1
		C1015.1,328,1019.7,332.6,1019.7,338.1z"/>
	<path class="st1" d="M1112.6,546.8c0,5.6-4.5,10.1-10.1,10.1c-5.6,0-10.1-4.5-10.1-10.1s4.5-10.1,10.1-10.1
		C1108.1,536.7,1112.6,541.2,1112.6,546.8z"/>
	<path class="st1" d="M820.6,557c-3.8,6.1-22.9,7.1-16.4-3.6c2.1-3.5,7.8-14.4,12.8-12C821.4,543.5,822.9,553.3,820.6,557z"/>
	<path class="st1" d="M1164,536.5c-13.4,3.6-28.4,6.5-44.8,8.5c-1.4,0.2-4.3-0.2-5.8-3.2c-0.9-2-2.4-3.7-4.2-5
		c-2-1.4-2.9-3.8-2.3-6.1c0.3-1,0.6-2.2,0.8-3.2c0.2-0.8,7.3-34.8,10.2-47.4c3.9-16.2,13.2-69.5,28.5-88.5
		c4.5-5.5-5.6-12.5,2.5-20.5c10-10,16,1,21.5-2.4c28.4-17.7,51.9-16.7,71.4-15.6c6,0.4,10.9,5.5,11,11.7
		C1254.8,448.4,1259.4,510.4,1164,536.5z"/>
	<path class="st1" d="M936,295l-62,36l-54,38l-43,37h-10c0,0-7-51,5-101s44-68,44-68s29-19,38-13c17.3,11.6,9,23,41,46
		C912.4,282.5,936,295,936,295z"/>
	<path class="st1" d="M1245,176c-4.3,5.5-19.6-2.9-42.2-6.7c-18.1-3-36.4-5-54.8-6.2c-15.3-1.1-30.6-1.6-46-1.9
		c-4-0.1-14,1.9-15.7-3.6c-2-6.2,11.3-11.5,15.1-13.7c28.4-16.5,59.6-27.5,91.6-34.7c24-5.3,25.8-5.5,37.6,18.7
		C1234.7,136.1,1251.5,167.6,1245,176z"/>
	<path class="st1" d="M1186,271c17.5,31-14.4,49.7-39,60c-23.5,9.9-57.6,19-62,49c-2.1,14.3,11.1,17.4,10,31
		c-1.2,15.1-11.4,30.6-18,44c-6.8,13.7-12.3,27.5-11,43c1,12.5,4.6,24,3,36c-1.8,14.3-9.4,21.3-16,33c-7.4,13.2-0.1,27.4-7,41
		c-5.8,11.5-12.8,28.5-13,42h-21c1.4-21.3,14-39.1,16-63c2.2-27.7,34.6-51.6,25-80c-4.2-12.3-12.4-22.6-13-36
		c-0.7-15.9,7-26.4,15-39c9.2-14.4,8.6-25.7,6-42c-2.5-15.9-1.2-29.9,7-44c18.2-31.1,42.6-34.2,45-57c3.1-29.9-31.2-35.4-50-49
		c-23.4-16.8-29.6-47.2-52-64c-11.9-8.9-22.1-4.6-31-8c-10.4-4-16.2-21.8-14-32c6-28.2,40.1-27.1,50-53c10.7-27.9-5.9-54.2-4-83h22
		c-0.2,17,3.3,26.3,6,43c4.8,30.3,2.6,53.6-15,79c-8,11.4-11.4,22.4-1,33c12.4,12.5,38.1,43.9,57,52
		C1132.6,229.2,1161.9,228.4,1186,271z"/>
	<path class="st1" d="M923.1,396.9c12.8-6,43.1-28.6,57.8-19.9c8.2,4.8,8.9,18.6,8.2,27.5c-1.1,13.1-1.6,13.8-15.4,17
		c-11.3,2.6-23.6,0.5-34.9,3.3c-9.9,2.4-22.3,12.8-33.1,9.8C871.6,425.2,910.1,402.3,923.1,396.9z"/>
	<path class="st1" d="M731.2,61.8c-2.4,4.6-9.8,0.6-13.2-0.5c-6.6-2-8.4-4.2-12.7-9.4c-2.8-3.4-6.3-5.8-10.5-7.3
		c-5-1.7-8.6-2.2-10-8c-2.5-9.9-4.8-19.9-14.7-24.8c-5.9-3-7.4-7.1-7.1-11.8h51c-1.4,3.3-3.8,5.3-5.4,8.8c-1.3,2.8-0.8,5.1-1.2,8
		c-0.3,2.5-1.7,4.5-2.2,6.9c-1.1,5,1.8,10.8,4.5,14.9c3.4,5.2,8.6,8.5,13.6,12C726.7,52.9,734.2,56.3,731.2,61.8z"/>
	<path class="st1" d="M716.9,632.1c-1,5.1-1.7,14.9-2.9,17.9h-51c0.3-8.7,9.7-19.3,23-26.8c8.6-4.8,20-13.9,30.4-13.7
		C727,609.8,718,626.3,716.9,632.1z"/>
	<path class="st1" d="M1762.6,546.8c0,5.6-4.5,10.1-10.1,10.1c-5.6,0-10.1-4.5-10.1-10.1s4.5-10.1,10.1-10.1
		C1758.1,536.7,1762.6,541.2,1762.6,546.8z"/>
	<path class="st1" d="M1470.6,557c-3.8,6.1-22.9,7.1-16.4-3.6c2.1-3.5,7.8-14.4,12.8-12C1471.4,543.5,1472.9,553.3,1470.6,557z"/>
	<path class="st1" d="M1902.9,369.8c0.3,32.9,0.6,70.2-9,102.4c-1.9,6.6-8.1,9.2-14.1,4.9c-31.6-22.5-49.5-28.6-90.4-31
		c-8.7-0.5-12-6.6-10-13.8c4.5-17.2,9.9-30.1,17.1-40.7c2.3-3.4,0.7-3.2-0.5-10.5c-1.4-8.1,3.3-12.8,0.1-15.7
		c-15-13.6-34.1-23.2-56.9-28.5c-22.3-5.2-48.2-4.1-64.3-1.8c-3.5,0.5-3,9-10,12c-7.9,3.4-14-1-16-7c-1.6-4.8,2.4-10.3-1-13
		c-14.6-11.6-31.1-20.4-50.1-29.4c-2.1-1-3.5-2.9-3.9-5.2c-0.4-2.3,0.4-4.5,2-6c1.1-1.1,2.1-2.1,3.2-3.1c1-1,2.1-2,3.1-3.1
		c7.6-7.6,15.4-15.4,24.8-21.6c21.4-13.8,35.6-27.5,35.5-49.7c-0.1-8.9,5.4-17,13.5-20.5c59.9-25.5,63.7-59.4,178.7-81.6
		c5.4-1,13.5-1,19.3,8.8c19.5,33.1,25.8,64.5,29.1,101.3C1906.9,258.9,1902.9,348.7,1902.9,369.8z"/>
	<path class="st1" d="M1573.1,396.9c12.8-6,43.1-28.6,57.8-19.9c8.2,4.8,8.9,18.6,8.2,27.5c-1.1,13.1-1.6,13.8-15.4,17
		c-11.3,2.6-23.6,0.5-34.9,3.3c-9.9,2.4-22.3,12.8-33.1,9.8C1521.6,425.2,1560.1,402.3,1573.1,396.9z"/>
	<path class="st1" d="M503.9,650H370.4c0,0,33.6-15,49.6-27c19.5-14.6,26-45.3,28-59c1-7,9-7,9-7s6.1-1.9,11,3
		C483.2,575.1,499.3,610,503.9,650z"/>
	<polygon class="st1" points="516,33 541,70 567,103 513,116 467,133 391,181 352,197 248,210 206,217 181,79 251.1,58.5 368,0 
		505,0 	"/>
	<path class="st1" d="M369.7,338.1c0,5.6-4.5,10.1-10.1,10.1c-5.6,0-10.1-4.5-10.1-10.1S354,328,359.6,328
		C365.1,328,369.7,332.6,369.7,338.1z"/>
	<path class="st1" d="M516.4,377.8c0,5.6-4.5,10.1-10.1,10.1c-5.5,0-10.1-4.6-10.1-10.1c0-5.6,4.5-10.1,10.1-10.1
		C511.9,367.7,516.4,372.2,516.4,377.8z"/>
	<path class="st1" d="M462.6,546.8c0,5.6-4.5,10.1-10.1,10.1c-5.6,0-10.1-4.5-10.1-10.1s4.5-10.1,10.1-10.1
		C458.1,536.7,462.6,541.2,462.6,546.8z"/>
	<path class="st1" d="M170.6,557c-3.8,6.1-22.9,7.1-16.4-3.6c2.1-3.5,7.8-14.4,12.8-12C171.4,543.5,172.9,553.3,170.6,557z"/>
</g>
<path class="st2" d="M1850.7,49.4c28.5-25.7,74.5-25.1,99.3-22.4v-4c-20.5-2-55.1-2.7-83.3,11.1c-3.3,1.6-7.4,0.5-9.3-2.7
	c-0.8-1.3-1.6-2.6-2.5-3.9c-5.5-8.7-10.3-16.3-13.9-27.6h-4c3.7,12.1,8.8,20.6,14.5,29.7c1.1,1.8,2.2,3.6,3.4,5.5
	c1.4,2.3,0.8,5.2-1.4,6.8c-1.9,1.4-3.8,2.9-5.6,4.5c-3.3,2.9-6.2,6.2-8.9,9.6c-1,1.3-3,1.2-3.9-0.1c-12.2-16.9-22.5-34.8-27.2-56h-6
	c2,9.8,5.4,19.6,9.4,28.2c1.6,3.3,1.7,7.2,0.3,10.6c-4.6,11-13.6,18.3-24.4,24c-2.2,1.2-5,0.6-6.6-1.3c-2.2-2.6-4.4-5-6.6-7.4
	C1761.7,40.4,1751,28.4,1751,0h-4c0,6.8,0.7,12.9,1.8,18.1c0.3,1.8-0.9,3.4-2.7,3.7c-14.2,1.8-24.1,7.8-29.5,17.7
	c-7.9,14.9-3.7,36,4.8,52.2c1.2,2.3,1.1,5.1-0.4,7.2c-6.4,9.5-8.1,22.6-1.2,41.7c1.1,3.1,2.3,6.4,3.7,9.7c1.3,3.2,0.2,7-2.8,8.9l0,0
	l-1.4,0.9c-28.6,19.2-53.5,30.1-81.8,35.8c-2.4,0.5-4.9-0.6-6.2-2.7c-2.5-4.2-5.1-8.4-7.7-12.6c-5.3-8.5-10.7-17.2-15.7-26.6
	c-4-7.5-8-15.2-11.9-22.6c-2.9-5.4-5.6-10.8-8.5-16.2c-0.9-1.8-0.4-4,1.3-5.1c5.3-3.4,11.8-7,18.4-10.7c19.9-11,42.5-23.5,46.2-38.8
	c2.8-11.7,3.4-28-1.6-44.2c-0.8-2.5,0.3-5.2,2.6-6.3c4.9-2.4,9.8-4.9,14.7-7.2c1.9-0.9,3.7-1.9,5.7-2.8h-14c-3,1.5-5.9,3.1-8.9,4.6
	c-2.1,1.1-4.7,0.2-5.8-1.8c-0.5-0.9-0.8-1.8-1.3-2.7h-5c0.5,0.8,1.7,2.7,2.2,3.5c1.4,2.6,0.4,5.9-2.3,7.3
	c-6.3,3.2-12.5,6.5-18.7,9.6c-13.5,7-27.1,14.1-41,20.8c-2.7,1.3-5.9,0.5-7.8-1.8c-1.1-1.4-2.2-2.8-3.3-4.1
	c-5-6.2-9.4-11.8-12.7-17.2c-0.9-1.4-0.4-3.2,1-4.1c5.9-3.8,12-7.9,18.2-12.2c0.8-0.5,1.6-1.1,2.4-1.7h-7
	c-5.3,3.6-10.6,7.1-15.6,10.4c-1.2,0.8-2.9,0.2-3.3-1.2c-1-3-1.1-6-1.1-9.2h-4c0,3.7,0.2,7.2,1.4,10.7c0.7,2-0.1,4.2-1.9,5.3
	c-3.8,2.4-7.5,4.6-11.1,6.8c-3.1,1.9-7.1,1.3-9.7-1.4c-7.7-8-15.9-15.3-24.7-21.4h-7c0.8,0.6,1.7,1.1,2.5,1.7
	c10.1,6.9,19.4,15.1,28.1,24.3c1,1.1,0.7,2.8-0.6,3.5c-13.9,7.7-27.3,14.1-40.8,19.6c-2.5,1-5.3-0.7-5.5-3.4
	c-1.2-15.4-0.5-30.8,4.3-45.7h-6c-4.9,16-5.6,32.3-4.2,48.6c0.2,2.8-1.4,5.4-4,6.3c-0.3,0.1-0.5,0.2-0.8,0.3
	c-13.3,4.7-27.4,8.6-42.7,12c-2.4,0.5-4.6-1.6-4.1-4c0.7-3.4,1.5-6.8,2.2-10.2c4.8-21,8.8-39.2-1.4-53h-5
	c10.3,12.4,7.2,31.6,2.5,52.2c-0.8,3.6-1.6,7.3-2.4,11.1c-0.8,3.6-3.6,6.4-7.3,7.1c-20.9,3.9-44,6.9-70.6,9.2
	c-2.5,0.2-4.8-1.3-5.5-3.7c-1.9-5.8-3.2-11.5-4.5-16.9c-4.4-18.2-8.9-34-28.2-36.1c-20.5-2-55.1-2.7-83.3,11.1
	c-3.3,1.6-7.4,0.5-9.3-2.7c-0.8-1.3-1.6-2.6-2.5-3.9c-5.5-8.7-10.3-16.3-13.9-27.6h-4c3.7,12.1,8.8,20.6,14.5,29.7
	c1.1,1.8,2.2,3.6,3.4,5.5c1.4,2.3,0.8,5.2-1.4,6.8c-1.9,1.4-3.8,2.9-5.6,4.5c-3.3,2.9-6.2,6.2-8.9,9.6c-1,1.3-3,1.2-3.9-0.1
	c-12.2-16.9-22.5-34.8-27.2-56h-6c2,9.8,5.4,19.6,9.4,28.2c1.6,3.3,1.7,7.2,0.3,10.6c-4.6,11-13.6,18.3-24.4,24
	c-2.2,1.2-5,0.6-6.6-1.3c-2.2-2.6-4.4-5-6.6-7.4C1111.7,40.4,1101,28.4,1101,0h-4c0,6.8,0.7,12.9,1.8,18.1c0.3,1.8-0.9,3.4-2.7,3.7
	c-14.2,1.8-24.1,7.8-29.5,17.7c-7.9,14.9-3.7,36,4.8,52.2c1.2,2.3,1.1,5.1-0.4,7.2c-6.4,9.5-8.1,22.6-1.2,41.7
	c1.1,3.1,2.3,6.4,3.7,9.7c1.3,3.2,0.2,7-2.8,8.9l0,0l-1.4,0.9c-28.6,19.2-53.5,30.1-81.8,35.8c-2.4,0.5-4.9-0.6-6.2-2.7
	c-2.5-4.2-5.1-8.4-7.7-12.6c-5.3-8.5-10.7-17.2-15.7-26.6c-4-7.5-8-15.2-11.9-22.6c-2.9-5.4-5.6-10.8-8.5-16.2
	c-0.9-1.8-0.4-4,1.3-5.1c5.3-3.4,11.8-7,18.4-10.7c19.9-11,42.5-23.5,46.2-38.8c2.8-11.7,3.4-28-1.6-44.2c-0.8-2.5,0.3-5.2,2.6-6.3
	c4.9-2.4,9.8-4.9,14.7-7.2c1.9-0.9,3.7-1.9,5.7-2.8h-14c-3,1.5-5.9,3.1-8.9,4.6c-2.1,1.1-4.7,0.2-5.8-1.8c-0.5-0.9-0.8-1.8-1.3-2.7
	h-5c0.5,0.8,1.7,2.7,2.2,3.5c1.4,2.6,0.4,5.9-2.3,7.3c-6.3,3.2-12.5,6.5-18.7,9.6c-13.5,7-27.1,14.1-41,20.8
	c-2.7,1.3-5.9,0.5-7.8-1.8c-1.1-1.4-2.2-2.8-3.3-4.1c-5-6.2-9.4-11.8-12.7-17.2c-0.9-1.4-0.4-3.2,1-4.1c5.9-3.8,12-7.9,18.2-12.2
	c0.8-0.5,1.6-1.1,2.4-1.7h-7c-5.3,3.6-10.6,7.1-15.6,10.4c-1.2,0.8-2.9,0.2-3.3-1.2c-1-3-1.1-6-1.1-9.2h-4c0,3.7,0.2,7.2,1.4,10.7
	c0.7,2-0.1,4.2-1.9,5.3c-3.8,2.4-7.5,4.6-11.1,6.8c-3.1,1.9-7.1,1.3-9.7-1.4C868,13.4,859.8,6.1,851,0h-7c0.8,0.6,1.7,1.1,2.5,1.7
	c10.1,6.9,19.4,15.1,28.1,24.3c1,1.1,0.7,2.8-0.6,3.5c-13.9,7.7-27.3,14.1-40.8,19.6c-2.5,1-5.3-0.7-5.5-3.4
	c-1.2-15.4-0.5-30.8,4.3-45.7h-6c-4.9,16-5.6,32.3-4.2,48.6c0.2,2.8-1.4,5.4-4,6.3c-0.3,0.1-0.5,0.2-0.8,0.3
	c-13.3,4.7-27.4,8.6-42.7,12c-2.4,0.5-4.6-1.6-4.1-4c0.7-3.4,1.5-6.8,2.2-10.2c4.8-21,8.8-39.2-1.4-53h-5
	c10.3,12.4,7.2,31.6,2.5,52.2c-0.8,3.6-1.6,7.3-2.4,11.1c-0.8,3.6-3.6,6.4-7.3,7.1c-20.9,3.9-44,6.9-70.6,9.2
	c-2.5,0.2-4.8-1.3-5.5-3.7c-1.9-5.8-3.2-11.5-4.5-16.9c-4.4-18.2-8.9-34-28.2-36.1c-20.5-2-55.1-2.7-83.3,11.1
	c-3.3,1.6-7.4,0.5-9.3-2.7c-0.8-1.3-1.6-2.6-2.5-3.9C549.4,18.9,544.6,11.3,541,0h-4c3.7,12.1,8.8,20.6,14.5,29.7
	c1.1,1.8,2.2,3.6,3.4,5.5c1.4,2.3,0.8,5.2-1.4,6.8c-1.9,1.4-3.8,2.9-5.6,4.5c-3.3,2.9-6.2,6.2-8.9,9.6c-1,1.3-3,1.2-3.9-0.1
	C522.9,39,512.6,21.2,508,0h-6c2,9.8,5.4,19.6,9.4,28.2c1.6,3.3,1.7,7.2,0.3,10.6c-4.6,11-13.6,18.3-24.4,24c-2.2,1.2-5,0.6-6.6-1.3
	c-2.2-2.6-4.4-5-6.6-7.4C461.7,40.4,451,28.4,451,0h-4c0,6.8,0.7,12.9,1.8,18.1c0.3,1.8-0.9,3.4-2.7,3.7
	c-14.2,1.8-24.1,7.8-29.5,17.7c-7.9,14.9-3.7,36,4.8,52.2c1.2,2.3,1.1,5.1-0.4,7.2c-6.4,9.5-8.1,22.6-1.2,41.7
	c1.1,3.1,2.3,6.4,3.7,9.7c1.3,3.2,0.2,7-2.8,8.9l0,0l-1.4,0.9c-28.6,19.2-53.5,30.1-81.8,35.8c-2.4,0.5-4.9-0.6-6.2-2.7
	c-2.5-4.2-5.1-8.4-7.7-12.6c-5.3-8.5-10.7-17.2-15.7-26.6c-4-7.5-8-15.2-11.9-22.6c-2.9-5.4-5.6-10.8-8.5-16.2
	c-0.9-1.8-0.4-4,1.3-5.1c5.3-3.4,11.8-7,18.4-10.7c19.9-11,42.5-23.5,46.2-38.8c2.8-11.7,3.4-28-1.6-44.2c-0.8-2.5,0.3-5.2,2.6-6.3
	c4.9-2.4,9.8-4.9,14.7-7.2c1.9-0.9,3.7-1.9,5.7-2.8h-14c-3,1.5-5.9,3.1-8.9,4.6c-2.1,1.1-4.7,0.2-5.8-1.8c-0.5-0.9-0.8-1.8-1.3-2.7
	h-5c0.5,0.8,1.7,2.7,2.2,3.5c1.4,2.6,0.4,5.9-2.3,7.3c-6.3,3.2-12.5,6.5-18.7,9.6c-13.5,7-27.1,14.1-41,20.8
	c-2.7,1.3-5.9,0.5-7.8-1.8c-1.1-1.4-2.2-2.8-3.3-4.1c-5-6.2-9.4-11.8-12.7-17.2c-0.9-1.4-0.4-3.2,1-4.1c5.9-3.8,12-7.9,18.2-12.2
	c0.8-0.5,1.6-1.1,2.4-1.7h-7c-5.3,3.6-10.6,7.1-15.6,10.4c-1.2,0.8-2.9,0.2-3.3-1.2c-1-3-1.1-6-1.1-9.2h-4c0,3.7,0.2,7.2,1.4,10.7
	c0.7,2-0.1,4.2-1.9,5.3c-3.8,2.4-7.5,4.6-11.1,6.8c-3.1,1.9-7.1,1.3-9.7-1.4C218,13.4,209.8,6.1,201,0h-7c0.8,0.6,1.7,1.1,2.5,1.7
	c10.1,6.9,19.4,15.1,28.1,24.3c1,1.1,0.7,2.8-0.6,3.5c-13.9,7.7-27.3,14.1-40.8,19.6c-2.5,1-5.3-0.7-5.5-3.4
	c-1.2-15.4-0.5-30.8,4.3-45.7h-6c-4.9,16-5.6,32.3-4.2,48.6c0.2,2.8-1.4,5.4-4,6.3c-0.3,0.1-0.5,0.2-0.8,0.3
	c-13.3,4.7-27.4,8.6-42.7,12c-2.4,0.5-4.6-1.6-4.1-4c0.7-3.4,1.5-6.8,2.2-10.2c4.8-21,8.8-39.2-1.4-53h-5
	c10.3,12.4,7.2,31.6,2.5,52.2c-0.8,3.6-1.6,7.3-2.4,11.1c-0.8,3.6-3.6,6.4-7.3,7.1c-20.9,3.9-44,6.9-70.6,9.2
	c-2.5,0.2-4.8-1.3-5.5-3.7c-1.9-5.8-3.2-11.5-4.5-16.9C23.8,40.8,19.2,25,0,23v4c16.1,1.8,20,15,24.3,33c1.7,7.3,3.6,15.3,6.7,23.2
	c1.3,3.4-1.1,7.1-4.8,7.3C18.3,91,6.2,91.6,0,92v6c3.1-0.2,6.5-0.3,9.7-0.5c3.8-0.2,7.3,1.9,8.9,5.4c13.3,29.3,29.2,71.5,36.5,108.2
	c0.4,2.2-1.5,4.3-3.8,3.9c-17.4-3-34.8-7.8-51.3-16.9v7c24.1,12.6,50.4,16.8,75.6,18.6c2.4,0.2,4.3,1.9,4.9,4.2
	c0.3,1.1,0.5,2.2,0.7,3c0.5,2-0.8,4-2.8,4.4c-6.6,1.4-13.5,2.7-20.4,4c-19.5,3.8-40.2,8.1-58,13.8v4c11-3.6,24.2-6.8,36.3-9.4
	c2-0.4,3.9,0.9,4.3,2.9c8.4,49.7,32.8,94.3,66.5,121.9c2.7,2.2,4.3,5.3,4.6,8.8c0.3,4.3,0.7,8.5,1.2,12.8c0.5,4-3.5,7.1-7.2,5.7
	c-15.6-5.8-31.3-11.3-46.8-16.8C39.5,376.1,19.5,369.4,0,362v7c18.8,7.2,38.2,13,56.9,19.6c14.8,5.2,29.8,10.5,44.7,16
	c1.2,0.5,2.4,1,3.5,1.6c1.8,1,1.4,3.7-0.6,4.1c-12.1,2.4-24.2,4-36.1,5.4C45.9,418.6,22.1,421.8,0,430v4c4.7-1.7,10.7-3.4,15.5-4.8
	c1.4-0.4,2.8,0.4,3.1,1.8c4.5,16.8,5.5,36.7,5.5,57.1c0,2.4-2,4.3-4.4,4.2c-6.4-0.3-13.7-0.5-19.8-0.4v4c6.2-0.1,13.5,0.1,20,0.4h0
	c2.3,0.1,4.1,2,4.1,4.3c0,3.9-0.1,7.9-0.2,11.8c-0.1,7.1-0.2,14.2-0.2,21c0,1.7-1.8,2.9-3.4,2.2C14,532.7,6.2,529.4,0,526v7
	c6.7,3.6,13.5,6.1,20.4,9.2c2.1,0.9,3.4,2.9,3.5,5.2c0.5,13.7,1.9,25.9,5.4,34.9c0.9,2.3,0.2,4.9-1.7,6.5C19.4,595.5,9.9,602,0,607
	v4c23.3-11.7,43-29.2,59.4-47.4c1.4-1.6,4-1.2,4.8,0.8c13.2,30,32.2,61.5,51.7,85.6h5c-0.3-0.4-4.4-5.7-6.1-8
	c-2.4-3.2-3.2-7.3-1.9-11.1c2.6-7.7,5.6-15.4,9.2-23.1c1.7-3.7,5.7-5.7,9.7-4.8c4.9,1.1,9.8,3.2,14.7,6.6
	c9.7,6.7,16.9,13.5,23.9,20.2c1.5,1.4,3,2.9,4.6,4.4c2.4,2.3,3.4,5.7,2.6,8.9c-0.6,2.2-0.9,4.8-1.6,7h6c0.4-1.3,0.7-3,1.1-4.2
	c0.4-1.7,2.4-2.3,3.8-1.2c2.3,1.8,4.5,3.6,7.1,5.5h7c-0.8-0.6-1.4-1.1-2.2-1.7c-3.6-2.4-6.8-4.8-9.8-7.2c-2.5-2-3.6-5.1-3.2-8.2
	c1.5-9.5,1.8-19,1.2-28.5c-0.1-1.8,2-3,3.4-1.9c18.5,13.4,37.2,26,54.1,36.2c1.3,0.8,2.1,2.3,2.1,3.8l0.4,7.5h4l-0.4-35.7
	c0-2.3,2.6-3.8,4.5-2.5c10.9,6.7,21.3,13.1,30.9,18.9c2.4,1.4,2.7,4.8,0.7,6.7c-4.2,4-8.6,7.7-13.3,10.9c-0.8,0.6-1.7,1.2-2.5,1.8h7
	c11-8.1,21.2-18.8,29.6-30.9c2.1-3,6.5-3.4,9-0.7c8.5,9,15.8,19,23.4,31.6h5c-0.2-0.3-6.8-11.1-10-15.5c-2-2.8-1.5-6.6,1.2-8.7
	c13.6-11.2,24.1-26.3,26.4-38.4c3-15.6,8.2-24,13.1-31c1.5-2.2,4.1-3.5,6.7-3.5c6,0,12-0.2,17.8-0.3l3.4-0.1
	c8.7-0.2,20.1-0.5,32.9-1.2c1.4-0.1,2.7,0.6,3.3,1.8c0.9,1.7,2.2,3.1,3.7,4.3c1.1,0.9,1.7,2.3,1.3,3.6c-0.7,3.1-1.9,8.4-2.4,11.1
	c-2.5,12.1-5,24.6-11.3,34.2c-10.8,16.7-33,26.5-52.6,35.1c-4.3,1.9-15.8,7.8-17.6,8.7h14c2-0.9,3.9-2.3,6-3.2
	c19-8.4,40.5-17.9,52.9-34c1.4-1.8,4-1.9,5.5-0.3c7.2,7.9,7.6,21.9,7.6,37.5h4c-0.1-15.8-0.6-31.1-8.7-40.1c-2.2-2.5-2.9-6-1.6-9.1
	c1.2-2.9,2.3-5.9,3.2-8.9c0.6-2.1,3-3,4.9-1.8C462,598.4,475,605.8,488,612c3.3,1.6,5.8,4.5,6.7,8.1c2.6,9.7,7.3,30,7.3,30h6
	c0-0.2-4.4-19.2-6.5-27.8c-0.5-2,1.5-3.7,3.4-3c7.1,2.8,14.3,5.2,21.5,7.1c3.3,0.9,5.8,3.6,6.4,7c0.9,5.3,2.4,10.8,4.3,16.7h4
	c-1.8-5.9-3.4-12-4.3-17.3c-0.3-2,1.4-3.7,3.4-3.3c9.4,1.7,18.9,2.6,28.5,2.6c25.5,0,52.4-6.6,81.5-21c23.3-11.7,43-29.2,59.4-47.4
	c1.4-1.6,4-1.2,4.8,0.8c13.2,30,32.2,61.5,51.7,85.6h5c-0.3-0.4-4.4-5.7-6.1-8c-2.4-3.2-3.2-7.3-1.9-11.1c2.6-7.7,5.6-15.4,9.2-23.1
	c1.7-3.7,5.7-5.7,9.7-4.8c4.9,1.1,9.8,3.2,14.7,6.6c9.7,6.7,16.9,13.5,23.9,20.2c1.5,1.4,3,2.9,4.6,4.4c2.4,2.3,3.4,5.7,2.6,8.9
	c-0.6,2.2-0.9,4.8-1.6,7h6c0.4-1.3,0.7-3,1.1-4.2c0.4-1.7,2.4-2.3,3.8-1.2c2.3,1.8,4.5,3.6,7.1,5.5h7c-0.8-0.6-1.4-1.1-2.2-1.7
	c-3.6-2.4-6.8-4.8-9.8-7.2c-2.5-2-3.6-5.1-3.2-8.2c1.5-9.5,1.8-19,1.2-28.5c-0.1-1.8,2-3,3.4-1.9c18.5,13.4,37.2,26,54.1,36.2
	c1.3,0.8,2.1,2.3,2.1,3.8l0.4,7.5h4l-0.4-35.7c0-2.3,2.6-3.8,4.5-2.5c10.9,6.7,21.3,13.1,30.9,18.9c2.4,1.4,2.7,4.8,0.7,6.7
	c-4.2,4-8.6,7.7-13.3,10.9c-0.8,0.6-1.7,1.2-2.5,1.8h7c11-8.1,21.2-18.8,29.6-30.9c2.1-3,6.5-3.4,9-0.7c8.5,9,15.8,19,23.4,31.6h5
	c-0.2-0.3-6.8-11.1-10-15.5c-2-2.8-1.5-6.6,1.2-8.7c13.6-11.2,24.1-26.3,26.4-38.4c3-15.6,8.2-24,13.1-31c1.5-2.2,4.1-3.5,6.7-3.5
	c6,0,12-0.2,17.8-0.3l3.4-0.1c8.7-0.2,20.1-0.5,32.9-1.2c1.4-0.1,2.7,0.6,3.3,1.8c0.9,1.7,2.2,3.1,3.7,4.3c1.1,0.9,1.7,2.3,1.3,3.6
	c-0.7,3.1-1.9,8.4-2.4,11.1c-2.5,12.1-5,24.6-11.3,34.2c-10.8,16.7-33,26.5-52.6,35.1c-4.3,1.9-15.8,7.8-17.6,8.7h14
	c2-0.9,3.9-2.3,6-3.2c19-8.4,40.5-17.9,52.9-34c1.4-1.8,4-1.9,5.5-0.3c7.2,7.9,7.6,21.9,7.6,37.5h4c-0.1-15.8-0.6-31.1-8.7-40.1
	c-2.2-2.5-2.9-6-1.6-9.1c1.2-2.9,2.3-5.9,3.2-8.9c0.6-2.1,3-3,4.9-1.8c13.2,8.3,26.3,15.7,39.3,21.8c3.3,1.6,5.8,4.5,6.7,8.1
	c2.6,9.7,7.3,30,7.3,30h6c0-0.2-4.4-19.2-6.5-27.8c-0.5-2,1.5-3.7,3.4-3c7.1,2.8,14.3,5.2,21.5,7.1c3.3,0.9,5.8,3.6,6.4,7
	c0.9,5.3,2.4,10.8,4.3,16.7h4c-1.8-5.9-3.4-12-4.3-17.3c-0.3-2,1.4-3.7,3.4-3.3c9.4,1.7,18.9,2.6,28.5,2.6c25.5,0,52.4-6.6,81.5-21
	c23.3-11.7,43-29.2,59.4-47.4c1.4-1.6,4-1.2,4.8,0.8c13.2,30,32.2,61.5,51.7,85.6h5c-0.3-0.4-4.4-5.7-6.1-8
	c-2.4-3.2-3.2-7.3-1.9-11.1c2.6-7.7,5.6-15.4,9.2-23.1c1.7-3.7,5.7-5.7,9.7-4.8c4.9,1.1,9.8,3.2,14.7,6.6
	c9.7,6.7,16.9,13.5,23.9,20.2c1.5,1.4,3,2.9,4.6,4.4c2.4,2.3,3.4,5.7,2.6,8.9c-0.6,2.2-0.9,4.8-1.6,7h6c0.4-1.3,0.7-3,1.1-4.2
	c0.4-1.7,2.4-2.3,3.8-1.2c2.3,1.8,4.5,3.6,7.1,5.5h7c-0.8-0.6-1.4-1.1-2.2-1.7c-3.6-2.4-6.8-4.8-9.8-7.2c-2.5-2-3.6-5.1-3.2-8.2
	c1.5-9.5,1.8-19,1.2-28.5c-0.1-1.8,2-3,3.4-1.9c18.5,13.4,37.2,26,54.1,36.2c1.3,0.8,2.1,2.3,2.1,3.8l0.4,7.5h4l-0.4-35.7
	c0-2.3,2.6-3.8,4.5-2.5c10.9,6.7,21.3,13.1,30.9,18.9c2.4,1.4,2.7,4.8,0.7,6.7c-4.2,4-8.6,7.7-13.3,10.9c-0.8,0.6-1.7,1.2-2.5,1.8h7
	c11-8.1,21.2-18.8,29.6-30.9c2.1-3,6.5-3.4,9-0.7c8.5,9,15.8,19,23.4,31.6h5c-0.2-0.3-6.8-11.1-10-15.5c-2-2.8-1.5-6.6,1.2-8.7
	c13.6-11.2,24.1-26.3,26.4-38.4c3-15.6,8.2-24,13.1-31c1.5-2.2,4.1-3.5,6.7-3.5c6,0,12-0.2,17.8-0.3l3.4-0.1
	c8.7-0.2,20.1-0.5,32.9-1.2c1.4-0.1,2.7,0.6,3.3,1.8c0.9,1.7,2.2,3.1,3.7,4.3c1.1,0.9,1.7,2.3,1.3,3.6c-0.7,3.1-1.9,8.4-2.4,11.1
	c-2.5,12.1-5,24.6-11.3,34.2c-10.8,16.7-33,26.5-52.6,35.1c-4.3,1.9-15.8,7.8-17.6,8.7h14c2-0.9,3.9-2.3,6-3.2
	c19-8.4,40.5-17.9,52.9-34c1.4-1.8,4-1.9,5.5-0.3c7.2,7.9,7.6,21.9,7.6,37.5h4c-0.1-15.8-0.6-31.1-8.7-40.1c-2.2-2.5-2.9-6-1.6-9.1
	c1.2-2.9,2.3-5.9,3.2-8.9c0.6-2.1,3-3,4.9-1.8c13.2,8.3,26.3,15.7,39.3,21.8c3.3,1.6,5.8,4.5,6.7,8.1c2.6,9.7,7.3,30,7.3,30h6
	c0-0.2-4.4-19.2-6.5-27.8c-0.5-2,1.5-3.7,3.4-3c7.1,2.8,14.3,5.2,21.5,7.1c3.3,0.9,5.8,3.6,6.4,7c0.9,5.3,2.4,10.8,4.3,16.7h4
	c-1.8-5.9-3.4-12-4.3-17.3c-0.3-2,1.4-3.7,3.4-3.3c9.4,1.7,18.9,2.6,28.5,2.6c25.5,0,52.4-6.6,81.5-21v-4
	c-38.1,19.1-73.2,24.2-105.7,19c-1.5-0.2-1.8-2.2-0.5-2.9c11.1-6.2,28.1-16.4,44.2-29.8c22.2-18.2,36.1-36.2,41.2-53.6
	c1.5-5.1,2.3-10,2.2-14.9c0-1.5,1.7-2.4,3-1.6c4.4,2.9,10.9,7.2,15.5,9.7v-7c-5.8-3.2-12-7.4-17.5-11.2c-1.6-1.1-2.8-2.7-3.4-4.6
	c-0.6-1.7-1.2-3.4-2-5.1c-1.2-2.6,0.2-5.6,2.9-6.4c5.4-1.6,12.2-2.6,19.9-2.7v-4c-8.5,0.1-16,1.3-21.8,3.2c-3.3,1-6.8,0-9.1-2.6
	c-5.5-6.2-12.7-11.6-19.8-16.9l0,0c-1.5-1.1-2.1-2.9-1.6-4.7c0-0.2,0.1-0.3,0.1-0.4c2.7-9.6,4.6-19.6,5.9-29.7
	c3.4,0.5,6.8,0.8,10.4,0.8c10.2,0,21.6-2.3,36-7.6v-4c-19,7.1-33.2,8.7-45.9,6.9c2.4-22,2.3-44.8,2.1-67.2v-1.4
	c0-6.3,5.7-10.9,11.8-9.6c10.4,2.3,21.7,6.2,32,10.3v-7c-11.6-4.4-24.3-7.9-35.9-10.2c-4.6-0.9-8-5-7.9-9.7c0-2.7,0.1-5.3,0.1-6.3
	c0.2-9.5,0.5-19,0.8-28.3c0.4-12.8,0.9-25.8,1-38.9c0-3.5,2.8-6.3,6.3-6.3h0.1c12.3,0,24.9-1.9,35.5-5.3v-4
	c-10.5,3.4-23.4,5.4-35.6,5.4c-3.4,0-6.2-2.8-6.3-6.2c-0.1-11.9-0.6-23.9-1.7-35.8c-0.8-8.6-1.8-16.8-3-24.8
	c-0.5-3.1,2.4-5.6,5.4-4.6c14.2,4.7,28.5,11.1,41.2,18v-7c-12.3-6.5-26-12.3-39.6-16.8c-5.8-1.9-10.1-6.7-11.6-12.6
	c-5.3-21.3-12.9-40-23.1-56.9c-1.7-2.9,0-6.6,3.3-7c23.5-3.3,47.8-5.3,71-6.7v-6c-23.4,1.5-47.8,3.5-71.5,6.8
	c-5.9,0.8-11.8-1.6-15.4-6.4c-1.2-1.7-2.4-3.3-3.3-4.3c-2.8-3.7-5.6-7.3-8.4-10.8c-3.3-4.2-6.6-8.5-9.9-12.7c-1.2-1.6-1.2-3.7,0-5.3
	C1844.3,55.8,1847.3,52.4,1850.7,49.4z M1788.5,66.6c11.1-5.8,20.6-13.2,26-24.5c0.8-1.7,3.2-1.9,4.2-0.2
	c4.1,6.9,8.6,13.5,13.3,19.9c1,1.4,1.1,3.2,0.4,4.7c-6.1,11.4-9.5,24.8-10.2,40.2c-0.1,2.2-1.6,4.1-3.8,4.8
	c-0.7,0.2-1.5,0.4-2.2,0.6c-1.9,0.6-3.9-0.3-4.8-2c-5.6-10.8-12-21.6-19.5-33.5c-1.4-2.2-2.8-4.2-4.2-6.2
	C1786.8,69.1,1787.2,67.3,1788.5,66.6z M1741,159.1c-2.9,0-4-3.8-1.6-5.4c22.1-14.6,45.3-25.1,68.9-32.9c2-0.6,4.1,0.3,4.9,2.2
	c5.2,11.4,9.6,23.2,13.5,36.9c0.5,1.9-1,3.7-3,3.5C1795.6,160.3,1767.3,159.3,1741,159.1z M1810.4,170.5c7.6,11.9,12,26.6,16.2,40.9
	c2.5,8.5,5.1,17.1,8.3,25.2c1,2.6-0.4,5.4-3,6.2l-0.1,0c-2.1,0.6-4.3-0.4-5.3-2.3c-11.9-22.6-27.9-28.7-46.2-35.9
	c-4-1.5-8.1-3.1-12.4-5c-12.8-5.4-22.4-16.2-29.7-28.3c-1.7-2.8,0.4-6.3,3.6-6.3c20.3,0.1,41.8,0.8,63.5,2.5
	C1807.4,167.7,1809.3,168.8,1810.4,170.5z M1720.1,41.4c4.9-9,14.2-14.3,27.8-15.9c1.5-0.2,2.9,0.7,3.4,2.1
	c4.4,12.1,11.7,20.2,19.8,29.2c2.1,2.3,4.2,4.6,6.3,7.1c1.1,1.3,0.7,3.4-0.9,4c-4.5,1.9-9.1,3.7-13.7,5.5
	c-12.1,4.7-24.4,9.4-33.5,16.7c-1.6,1.2-3.9,0.8-4.8-1C1714.4,69.4,1714.9,51.4,1720.1,41.4z M1723.5,139.2
	c-14.6-40.8,11-50.7,40.7-62.2c4.8-1.8,9.6-3.7,14.2-5.7c2.2-1,4.9-0.2,6.3,1.7c1.3,1.8,2.5,3.6,3.8,5.6
	c7.1,11.3,13.1,21.4,18.4,31.4c1.2,2.2,0.1,4.9-2.3,5.7c-23.8,8-47.1,18.8-69.5,33.6c-3.1,2.1-7.4,0.8-8.8-2.7
	C1725.3,144.1,1724.4,141.6,1723.5,139.2z M1668.5,196.9c2.1-2.9,5-5.2,8.4-6.6c12.2-5,24.4-11.4,37.1-19.4c3.2-2,6.7-3.6,10.4-4.5
	c3.3-0.9,6.8,0.5,8.5,3.6c7.9,14,18.6,26.9,33.5,33.3c4.4,1.9,8.5,3.5,12.6,5c17.7,6.9,32,12.3,42.9,31.7c1.4,2.5,0.1,5.7-2.6,6.5
	c-13.3,4.3-26.8,9.6-40.7,16c-9.3,4.3-18.6,9-27.9,14c-2,1.1-4.6,0.7-6-1.1c-5.5-6.6-15.3-11.8-25.8-17.3c-17.9-9.4-39.9-21-51.6-44
	C1664.4,208.4,1664.8,201.8,1668.5,196.9z M1794.1,384.4c0.7,1.3,0.6,2.8-0.2,3.9c-9.7,14.1-15.4,30.9-19.6,48c-1,4-4.7,6.9-8.8,6.8
	c-1.7,0-3.3,0-5-0.1h-0.1c-2.7,0-4.7-2.4-4.4-5c3.9-31.4,13.3-55.8,27.9-72.5c1.5-1.7,4.2-1.9,6-0.5c0.9,0.8,1.9,1.6,2.8,2.4
	c1.2,1.1,1.6,2.8,1,4.2c-0.8,1.8-1.3,3.8-1.3,5.9C1792.3,379.9,1793,382.3,1794.1,384.4z M1802.3,391.1c2.2,0.7,4.7,0.8,7.2,0.2
	c2.8-0.6,5.2-2.1,7.1-4.1c9.5,8.5,17.4,18.3,24.7,28.5c1.5,2.1,1.3,5-0.5,6.9c-5.8,6-11.3,13.4-16.7,21.8c-1.4,2.1-3.9,3.2-6.4,2.8
	c-2.6-0.5-5.3-0.9-8-1.3c-6.6-0.9-13.4-1.5-20.1-1.9c-5.7-0.3-9.7-5.8-8.2-11.3c3.8-14.5,8.9-28.4,16.8-40.1
	C1799.1,391.2,1800.8,390.6,1802.3,391.1z M1798.2,377.6c0-4.5,3.6-8.1,8.1-8.1s8.1,3.6,8.1,8.1c0,4.5-3.6,8.1-8.1,8.1
	C1801.9,385.7,1798.2,382,1798.2,377.6z M1842.4,426.8c2-2.2,5.5-1.9,7.2,0.5c0.4,0.6,0.9,1.2,1.3,1.9c6.3,9.3,13,19,20.6,28.1
	c4.6,5.5,10.4,10.4,16.6,15c1.4,1.1,1.1,3.4-0.6,4c-2.1,0.7-4.5,0.5-6.5-1c-7.2-5.1-14.6-9.9-22.3-14c-8.8-4.7-18.2-8.4-28.2-11.2
	c-2.2-0.6-3.2-3.2-1.9-5.1C1833.1,438.1,1837.6,431.9,1842.4,426.8z M1807.1,472.9c-12.9,22.7-26.2,46.2-43.1,61.7
	c-1,0.9-2.5,1-3.5,0.2l0,0c-1.3-0.9-1.9-2.4-1.5-3.9c0.5-1.8,1-4,1.3-5.1c3.4-13.8,6.9-27.9,10.1-41.8c1.6-6.7,2.9-13.5,4.3-20.7
	c0.4-2.2,0.9-4.4,1.3-6.6c0.9-4.3,4.8-7.4,9.2-7.2c9.6,0.4,19.1,1.3,28.5,2.9c2.3,0.4,3.6,3,2.4,5
	C1813,462.5,1810.1,467.6,1807.1,472.9z M1812.4,482.4c6.2,9.5,11.8,21.7,15.4,40.8c0.7,3.5-1.4,7-4.8,8.1c-3.1,1-6.3,2-9.6,2.9
	c-14.4,3.9-29.7,6.6-44.5,8.4c-1.6,0.2-3-0.7-3.7-2.1c-0.1-0.2-0.2-0.5-0.2-0.8c0-0.5,0.2-1,0.6-1.4c15.8-14.2,28.4-34.9,40.4-55.8
	C1807.5,480.2,1810.9,480.1,1812.4,482.4L1812.4,482.4z M1780.2,363.5c-14.9,17.6-24.5,42.9-28.3,75.3c-0.3,2.3-2.2,4-4.5,3.9
	c-12.9-0.3-26.1-0.9-39.3-2.9c-4.2-0.7-8.4-1.5-12.7-2.3c-1-0.2-1.7-1.2-1.6-2.2c0.9-7.8,1.7-16,2.4-24.6c1.6-17.9,3.3-36.5,7-52.7
	c1.8-7.8,5.4-15,9.8-21.6c8.6,0.7,17.1,2,25.3,4c15.3,3.6,29.1,9.3,40.9,16.8C1781.4,358.6,1781.8,361.6,1780.2,363.5z
	 M1659.9,373.6c-1.5-0.6-2.5-2.4-2.2-4c0.9-5,1.8-10.1,2.6-15.3c0.2-1.4,1.3-2.6,2.7-2.9c5.3-1.3,9.4-5.6,10.5-10.9
	c0.3-1.5,1.5-2.7,3-2.9c10.5-1.5,21.2-2,31.9-1.4c-4.1,6.5-7.4,13.5-9.1,21.1c-3.7,16.4-5.4,35.1-7,53.2c-0.7,8.3-1.5,16.2-2.4,23.7
	c-0.1,1.2-1.2,1.9-2.4,1.7c-0.2-0.1-0.5-0.1-0.8-0.2c-1.7-0.4-3.5-0.7-5.2-1.1c-1.8-0.4-3-2-2.9-3.9
	C1680.5,409.8,1680.3,381.7,1659.9,373.6z M1586.9,479.1c-2.9,2.5-5.9,5.1-9,7.7c-1,0.8-2,1.6-3,2.2c-2.8,1.9-6.6,1.6-9.2-0.6
	c-11.7-10.3-24-20.4-37.4-29.4c-1.8-1.2-1.4-4.1,0.8-4.6c4.4-1.2,9.2-1.9,14.6-2.3c5.9-0.4,12-0.2,17.8,0c7.4,0.2,15.1,0.5,22.8-0.5
	c9.5-1.2,18.1-4.4,26.4-7.5c4.9-1.8,10-3.7,15.2-5.2c3.1-0.9,6.1-1.5,9.2-1.9c2.6-0.4,4.6,2.3,3.6,4.8c-0.9,2.1-1.9,4-3,5.9
	c-0.1,0.2-0.2,0.4-0.4,0.6c-1.5,2.4-3.8,4.1-6.5,4.8C1611.5,458,1600.3,467.6,1586.9,479.1z M1626.7,460.6
	c-10.7,13.6-24.8,26.5-38.8,37.6c-3.5,2.7-8.4,2.5-11.6-0.4c-0.4-0.3-0.8-0.7-1.2-1c-1.2-1.1-1.1-3.1,0.3-4c1.5-1,3.1-2.1,4.5-3.3
	c3.2-2.7,6.2-5.2,9.1-7.7c12.1-10.3,21.9-18.8,35.8-23.7C1626.4,457.6,1627.7,459.3,1626.7,460.6z M1535.4,533.8
	c-16.1,9.3-33.6,16.3-52,20.8c-3.2,0.8-6.4-1-7.5-4.1c-1-2.9-2-5.8-3.1-8.6c-1.9-5.1-1.5-10.9,1.2-15.6
	c5.9-10.3,11.4-21.2,17.1-33.1c1.4-2.9,4.6-4.3,7.6-3.5c1.5,0.4,3,0.8,4.6,1.3c20.6,5.7,41.6,11.5,59.5,7.2c2.4-0.6,4.9,0.1,6.8,1.8
	c0.9,0.8,1.9,1.7,2.8,2.5c2.3,2.1,2.2,5.9-0.4,7.7C1556.3,521.3,1542.5,529.7,1535.4,533.8z M1567.7,523.3
	c-1.3,15.5-6.1,29.3-13.4,38.2c-1.6,1.9-4.3,2.3-6.4,1c-6.9-4.3-13.5-8.8-19.6-14.1c-1.5-1.3-1.2-3.8,0.6-4.7c3.1-1.6,6.2-3.2,9.2-5
	c7.4-4.3,16.8-10.1,27.1-17C1566.2,521,1567.8,521.9,1567.7,523.3z M1319.8,492.4c-6.4-0.3-13.7-0.5-19.8-0.4
	c-8.5,0.1-16,1.3-21.8,3.2c-3.3,1-6.8,0-9.1-2.6c-5.5-6.2-12.7-11.6-19.8-16.9l0,0c-1.5-1.1-2.1-2.9-1.6-4.7c0-0.2,0.1-0.3,0.1-0.4
	c2.7-9.6,4.6-19.6,5.9-29.7c3.4,0.5,6.8,0.8,10.4,0.8c10.2,0,21.6-2.3,36-7.6c4.7-1.7,10.7-3.4,15.5-4.8c1.4-0.4,2.8,0.4,3.1,1.8
	c4.5,16.8,5.5,36.7,5.5,57.1C1324.2,490.6,1322.2,492.5,1319.8,492.4z M1324.2,500.7c0,3.9-0.1,7.9-0.2,11.8
	c-0.1,7.1-0.2,14.2-0.2,21c0,1.7-1.8,2.9-3.4,2.2c-6.4-2.9-14.1-6.2-20.4-9.6c-5.8-3.2-12-7.4-17.5-11.2c-1.6-1.1-2.8-2.7-3.4-4.6
	c-0.6-1.7-1.2-3.4-2-5.1c-1.2-2.6,0.2-5.6,2.9-6.4c5.4-1.6,12.2-2.6,19.9-2.7c6.2-0.1,13.5,0.1,20,0.4h0
	C1322.4,496.5,1324.2,498.4,1324.2,500.7z M1157.1,472.9c-12.9,22.7-26.2,46.2-43.1,61.7c-1,0.9-2.5,1-3.5,0.2l0,0
	c-1.3-0.9-1.9-2.4-1.5-3.9c0.5-1.8,1-4,1.3-5.1c3.4-13.8,6.9-27.9,10.1-41.8c1.6-6.7,2.9-13.5,4.3-20.7c0.4-2.2,0.9-4.4,1.3-6.6
	c0.9-4.3,4.8-7.4,9.2-7.2c9.6,0.4,19.1,1.3,28.5,2.9c2.3,0.4,3.6,3,2.4,5C1163,462.5,1160.1,467.6,1157.1,472.9z M1162.4,482.4
	c6.2,9.5,11.8,21.7,15.4,40.8c0.7,3.5-1.4,7-4.8,8.1c-3.1,1-6.3,2-9.6,2.9c-14.4,3.9-29.7,6.6-44.5,8.4c-1.6,0.2-3-0.7-3.7-2.1
	c-0.1-0.2-0.2-0.5-0.2-0.8c0-0.5,0.2-1,0.6-1.4c15.8-14.2,28.4-34.9,40.4-55.8C1157.5,480.2,1160.9,480.1,1162.4,482.4L1162.4,482.4
	z M1009.9,373.6c-1.5-0.6-2.5-2.4-2.2-4c0.9-5,1.8-10.1,2.6-15.3c0.2-1.4,1.3-2.6,2.7-2.9c5.3-1.3,9.4-5.6,10.5-10.9
	c0.3-1.5,1.5-2.7,3-2.9c10.5-1.5,21.2-2,31.9-1.4c-4.1,6.5-7.4,13.5-9.1,21.1c-3.7,16.4-5.4,35.1-7,53.2c-0.7,8.3-1.5,16.2-2.4,23.7
	c-0.1,1.2-1.2,1.9-2.4,1.7c-0.2-0.1-0.5-0.1-0.8-0.2c-1.7-0.4-3.5-0.7-5.2-1.1c-1.8-0.4-3-2-2.9-3.9
	C1030.5,409.8,1030.3,381.7,1009.9,373.6z M936.9,479.1c-2.9,2.5-5.9,5.1-9,7.7c-1,0.8-2,1.6-3,2.2c-2.8,1.9-6.6,1.6-9.2-0.6
	c-11.7-10.3-24-20.4-37.4-29.4c-1.8-1.2-1.4-4.1,0.8-4.6c4.4-1.2,9.2-1.9,14.6-2.3c5.9-0.4,12-0.2,17.8,0c7.4,0.2,15.1,0.5,22.8-0.5
	c9.5-1.2,18.1-4.4,26.4-7.5c4.9-1.8,10-3.7,15.2-5.2c3.1-0.9,6.1-1.5,9.2-1.9c2.6-0.4,4.6,2.3,3.6,4.8c-0.9,2.1-1.9,4-3,5.9
	c-0.1,0.2-0.2,0.4-0.4,0.6c-1.5,2.4-3.8,4.1-6.5,4.8C961.5,458,950.3,467.6,936.9,479.1z M976.7,460.6
	c-10.7,13.6-24.8,26.5-38.8,37.6c-3.5,2.7-8.4,2.5-11.6-0.4c-0.4-0.3-0.8-0.7-1.2-1c-1.2-1.1-1.1-3.1,0.3-4c1.5-1,3.1-2.1,4.5-3.3
	c3.2-2.7,6.2-5.2,9.1-7.7c12.1-10.3,21.9-18.8,35.8-23.7C976.4,457.6,977.7,459.3,976.7,460.6z M885.4,533.8
	c-16.1,9.3-33.6,16.3-52,20.8c-3.2,0.8-6.4-1-7.5-4.1c-1-2.9-2-5.8-3.1-8.6c-1.9-5.1-1.5-10.9,1.2-15.6
	c5.9-10.3,11.4-21.2,17.1-33.1c1.4-2.9,4.6-4.3,7.6-3.5c1.5,0.4,3,0.8,4.6,1.3c20.6,5.7,41.6,11.5,59.5,7.2c2.4-0.6,4.9,0.1,6.8,1.8
	c0.9,0.8,1.9,1.7,2.8,2.5c2.3,2.1,2.2,5.9-0.4,7.7C906.3,521.3,892.5,529.7,885.4,533.8z M917.7,523.3c-1.3,15.5-6.1,29.3-13.4,38.2
	c-1.6,1.9-4.3,2.3-6.4,1c-6.9-4.3-13.5-8.8-19.6-14.1c-1.5-1.3-1.2-3.8,0.6-4.7c3.1-1.6,6.2-3.2,9.2-5c7.4-4.3,16.8-10.1,27.1-17
	C916.2,521,917.8,521.9,917.7,523.3z M669.8,492.4c-6.4-0.3-13.7-0.5-19.8-0.4c-8.5,0.1-16,1.3-21.8,3.2c-3.3,1-6.8,0-9.1-2.6
	c-5.5-6.2-12.7-11.6-19.8-16.9l0,0c-1.5-1.1-2.1-2.9-1.6-4.7c0-0.2,0.1-0.3,0.1-0.4c2.7-9.6,4.6-19.6,5.9-29.7
	c3.4,0.5,6.8,0.8,10.4,0.8c10.2,0,21.6-2.3,36-7.6c4.7-1.7,10.7-3.4,15.5-4.8c1.4-0.4,2.8,0.4,3.1,1.8c4.5,16.8,5.5,36.7,5.5,57.1
	C674.2,490.6,672.2,492.5,669.8,492.4z M674.2,500.7c0,3.9-0.1,7.9-0.2,11.8c-0.1,7.1-0.2,14.2-0.2,21c0,1.7-1.8,2.9-3.4,2.2
	c-6.4-2.9-14.1-6.2-20.4-9.6c-5.8-3.2-12-7.4-17.5-11.2c-1.6-1.1-2.8-2.7-3.4-4.6c-0.6-1.7-1.2-3.4-2-5.1c-1.2-2.6,0.2-5.6,2.9-6.4
	c5.4-1.6,12.2-2.6,19.9-2.7c6.2-0.1,13.5,0.1,20,0.4h0C672.4,496.5,674.2,498.4,674.2,500.7z M507.1,472.9
	c-12.9,22.7-26.2,46.2-43.1,61.7c-1,0.9-2.5,1-3.5,0.2l0,0c-1.3-0.9-1.9-2.4-1.5-3.9c0.5-1.8,1-4,1.3-5.1
	c3.4-13.8,6.9-27.9,10.1-41.8c1.6-6.7,2.9-13.5,4.3-20.7c0.4-2.2,0.9-4.4,1.3-6.6c0.9-4.3,4.8-7.4,9.2-7.2
	c9.6,0.4,19.1,1.3,28.5,2.9c2.3,0.4,3.6,3,2.4,5C513,462.5,510.1,467.6,507.1,472.9z M512.4,482.4c6.2,9.5,11.8,21.7,15.4,40.8
	c0.7,3.5-1.4,7-4.8,8.1c-3.1,1-6.3,2-9.6,2.9c-14.4,3.9-29.7,6.6-44.5,8.4c-1.6,0.2-3-0.7-3.7-2.1c-0.1-0.2-0.2-0.5-0.2-0.8
	c0-0.5,0.2-1,0.6-1.4c15.8-14.2,28.4-34.9,40.4-55.8C507.5,480.2,510.9,480.1,512.4,482.4L512.4,482.4z M359.9,373.6
	c-1.5-0.6-2.5-2.4-2.2-4c0.9-5,1.8-10.1,2.6-15.3c0.2-1.4,1.3-2.6,2.7-2.9c5.3-1.3,9.4-5.6,10.5-10.9c0.3-1.5,1.5-2.7,3-2.9
	c10.5-1.5,21.2-2,31.9-1.4c-4.1,6.5-7.4,13.5-9.1,21.1c-3.7,16.4-5.4,35.1-7,53.2c-0.7,8.3-1.5,16.2-2.4,23.7
	c-0.1,1.2-1.2,1.9-2.4,1.7c-0.2-0.1-0.5-0.1-0.8-0.2c-1.7-0.4-3.5-0.7-5.2-1.1c-1.8-0.4-3-2-2.9-3.9
	C380.5,409.8,380.3,381.7,359.9,373.6z M286.9,479.1c-2.9,2.5-5.9,5.1-9,7.7c-1,0.8-2,1.6-3,2.2c-2.8,1.9-6.6,1.6-9.2-0.6
	c-11.7-10.3-24-20.4-37.4-29.4c-1.8-1.2-1.4-4.1,0.8-4.6c4.4-1.2,9.2-1.9,14.6-2.3c5.9-0.4,12-0.2,17.8,0c7.4,0.2,15.1,0.5,22.8-0.5
	c9.5-1.2,18.1-4.4,26.4-7.5c4.9-1.8,10-3.7,15.2-5.2c3.1-0.9,6.1-1.5,9.2-1.9c2.6-0.4,4.6,2.3,3.6,4.8c-0.9,2.1-1.9,4-3,5.9
	c-0.1,0.2-0.2,0.4-0.4,0.6c-1.5,2.4-3.8,4.1-6.5,4.8C311.5,458,300.3,467.6,286.9,479.1z M326.7,460.6
	c-10.7,13.6-24.8,26.5-38.8,37.6c-3.5,2.7-8.4,2.5-11.6-0.4c-0.4-0.3-0.8-0.7-1.2-1c-1.2-1.1-1.1-3.1,0.3-4c1.5-1,3.1-2.1,4.5-3.3
	c3.2-2.7,6.2-5.2,9.1-7.7c12.1-10.3,21.9-18.8,35.8-23.7C326.4,457.6,327.7,459.3,326.7,460.6z M235.4,533.8
	c-16.1,9.3-33.6,16.3-52,20.8c-3.2,0.8-6.4-1-7.5-4.1c-1-2.9-2-5.8-3.1-8.6c-1.9-5.1-1.5-10.9,1.2-15.6
	c5.9-10.3,11.4-21.2,17.1-33.1c1.4-2.9,4.6-4.3,7.6-3.5c1.5,0.4,3,0.8,4.6,1.3c20.6,5.7,41.6,11.5,59.5,7.2c2.4-0.6,4.9,0.1,6.8,1.8
	c0.9,0.8,1.9,1.7,2.8,2.5c2.3,2.1,2.2,5.9-0.4,7.7C256.3,521.3,242.5,529.7,235.4,533.8z M267.7,523.3c-1.3,15.5-6.1,29.3-13.4,38.2
	c-1.6,1.9-4.3,2.3-6.4,1c-6.9-4.3-13.5-8.8-19.6-14.1c-1.5-1.3-1.2-3.8,0.6-4.7c3.1-1.6,6.2-3.2,9.2-5c7.4-4.3,16.8-10.1,27.1-17
	C266.2,521,267.8,521.9,267.7,523.3z M90.6,236.6c12.4-2.9,23.6-6.2,32.9-10.5c2.3-1.1,4.8-1.7,7.4-1.7c12.4-0.2,23.9-0.2,34,0.7
	c3.9,0.3,5.2,5.4,1.9,7.5c-18.4,12.1-31.7,28.2-40.1,48.4c-3.9,9.4-7,19.2-9.5,29.4c-0.5,2.2-3.5,2.7-4.7,0.8
	c-11-17.7-17.9-42.1-24.7-70C87.4,239.1,88.6,237.1,90.6,236.6z M85.2,230c-0.2-0.9-0.4-1.8-0.6-2.7c-0.4-1.6,0.9-3.1,2.5-3.1
	c7.9,0.3,15.6,0.4,23,0.3c1.4,0,1.7,1.9,0.4,2.3c-6.4,2.1-13.4,4-20.9,5.8C87.6,233.2,85.7,232,85.2,230z M132.7,283.3
	c6.7-16,16.6-29.3,29.9-39.9c2-1.6,4.9-1,6.1,1.1c8.5,14,16.1,26.6,23,37.8c10.7,17.7,19.4,32.3,27,43.9c1.2,1.9,0.7,4.4-1.2,5.7
	c-28.4,18.4-57.1,40.1-89,67.2c-3.5,2.9-8.5,1-9.1-3.3C114.3,356.2,118.9,316.5,132.7,283.3z M449.2,285.6c-0.2-2.5,1.2-4.8,3.3-6
	c9.2-5,18.5-9.6,27.7-13.9c39.5-18,75.7-27.2,115.7-29.3c3.5-0.2,6.5,2.6,6.6,6.1c0.6,21.8-0.1,43.6-0.7,64.9
	c-0.3,9.6-0.6,19.5-0.8,29.3v2.5c-0.1,5.5-4.7,9.9-10.3,9.6c-3.1-0.2-6.1-0.3-9.1-0.3h-0.1c-24.6,0-46.2,5.8-64.1,17
	c-1.2,0.7-2.6,0.8-3.8,0.1c-2.2-1.4-4.7-2.2-7.5-2.2c-1.8,0-3.5,0.4-5.1,1c-1.3,0.5-2.7,0.2-3.7-0.7c-15.1-13.7-34.7-23.6-57.8-29
	c-7.4-1.7-15.1-3-22.9-3.7c5.7-7.5,12.2-14.1,17.7-19.8c6.8-7,12.2-12.5,13.6-17C449.1,291.1,449.5,288.2,449.2,285.6z M725.6,223.6
	c2.4,0.2,4.3,1.9,4.9,4.2c0.3,1.1,0.5,2.2,0.7,3c0.5,2-0.8,4-2.8,4.4c-6.6,1.4-13.5,2.7-20.4,4c-19.5,3.8-40.2,8.1-58,13.8
	c-10.5,3.4-23.4,5.4-35.6,5.4c-3.4,0-6.2-2.8-6.3-6.2c-0.1-11.9-0.6-23.9-1.7-35.8c-0.8-8.6-1.8-16.8-3-24.8
	c-0.5-3.1,2.4-5.6,5.4-4.6c14.2,4.7,28.5,11.1,41.2,18C674.1,217.6,700.4,221.8,725.6,223.6z M712.6,207.6c2.5-0.5,5.1-1,7.6-1.5
	c2.7-0.5,5.3,1.2,6,3.8c0.4,1.6,0.8,3.2,1.1,4.8c0.4,1.6-0.9,3.2-2.6,3c-3.6-0.3-7.2-0.6-10.8-1c-2.3-0.3-4.1-1.9-4.6-4.2
	c0,0,0-0.1,0-0.1C708.9,210.2,710.4,208,712.6,207.6z M768.2,163.8c-0.1-2.5,1.5-4.8,3.8-5.7c17-6.5,35.5-10.6,53.5-14.6
	c1.8-0.4,3.7-0.8,5.6-1.2c4.8-1.1,9.5,2.2,10.2,7.1c0.5,3.4,0.9,6.8,1.3,10.2c0.3,2.6,0.7,5.1,1,7.7c0.6,4.2-2,8.1-6.1,9.2
	c-21.6,6.1-43.8,11.1-65.7,15.6c-2.2,0.5-4.3-1.4-4.1-3.7C768.3,181.3,768.4,172.9,768.2,163.8z M836.4,94.7
	c-1.9-7.7,2.9-15.4,10.6-17.1c4.1-0.9,8.2-1.9,12.3-3c12.5-3.2,24.8-7.2,36.7-11.9c3-1.2,6.4,0,8.1,2.7c5.7,8.8,11.1,18,16.4,27.4
	c1.7,3.1,1,6.9-1.7,9.2c-19,15.7-41.5,24.1-64.6,30.3c-4.8,1.3-9.6-1.7-10.5-6.6c-1-5.3-2.2-10.6-3.6-15.8c-0.3-1.4-0.7-2.9-1-4.3
	C838.2,102.1,837.2,98.5,836.4,94.7z M836.1,180.8c4.8-1.3,9.7,1.8,10.5,6.7c0.9,5.3,2,10.6,3.2,15.9c1.6,6.9-2.1,14-8.7,16.7
	l-0.2,0.1c-3.7,1.5-7.7,1.8-11.6,1c-14.9-3.1-33.3-2.9-54.2-2.6c-12,0.2-24.6,0.4-37.3-0.1c-3.3-0.1-6.1-2.4-6.8-5.6
	c-0.3-1.1-0.5-2.2-0.8-3.3c-0.7-2.8,1.1-5.6,3.9-6.1c1.9-0.4,3.7-0.7,5.6-1.1C771.1,196.1,804.3,189.6,836.1,180.8z M1099.2,285.6
	c-0.2-2.5,1.2-4.8,3.3-6c9.2-5,18.5-9.6,27.7-13.9c39.5-18,75.7-27.2,115.7-29.3c3.5-0.2,6.5,2.6,6.6,6.1
	c0.6,21.8-0.1,43.6-0.7,64.9c-0.3,9.6-0.6,19.5-0.8,29.3v2.5c-0.1,5.5-4.7,9.9-10.3,9.6c-3.1-0.2-6.1-0.3-9.1-0.3h-0.1
	c-24.6,0-46.2,5.8-64.1,17c-1.2,0.7-2.6,0.8-3.8,0.1c-2.2-1.4-4.7-2.2-7.5-2.2c-1.8,0-3.5,0.4-5.1,1c-1.3,0.5-2.7,0.2-3.7-0.7
	c-15.1-13.7-34.7-23.6-57.8-29c-7.4-1.7-15.1-3-22.9-3.7c5.7-7.5,12.2-14.1,17.7-19.8c6.8-7,12.2-12.5,13.6-17
	C1099.1,291.1,1099.5,288.2,1099.2,285.6z M1375.6,223.6c2.4,0.2,4.3,1.9,4.9,4.2c0.3,1.1,0.5,2.2,0.7,3c0.5,2-0.8,4-2.8,4.4
	c-6.6,1.4-13.5,2.7-20.4,4c-19.5,3.8-40.2,8.1-58,13.8c-10.5,3.4-23.4,5.4-35.6,5.4c-3.4,0-6.2-2.8-6.3-6.2
	c-0.1-11.9-0.6-23.9-1.7-35.8c-0.8-8.6-1.8-16.8-3-24.8c-0.5-3.1,2.4-5.6,5.4-4.6c14.2,4.7,28.5,11.1,41.2,18
	C1324.1,217.6,1350.4,221.8,1375.6,223.6z M1362.6,207.6c2.5-0.5,5.1-1,7.6-1.5c2.7-0.5,5.3,1.2,6,3.8c0.4,1.6,0.8,3.2,1.1,4.8
	c0.4,1.6-0.9,3.2-2.6,3c-3.6-0.3-7.2-0.6-10.8-1c-2.3-0.3-4.1-1.9-4.6-4.2c0,0,0-0.1,0-0.1C1358.9,210.2,1360.4,208,1362.6,207.6z
	 M1418.2,163.8c-0.1-2.5,1.5-4.8,3.8-5.7c17-6.5,35.5-10.6,53.5-14.6c1.8-0.4,3.7-0.8,5.6-1.2c4.8-1.1,9.5,2.2,10.2,7.1
	c0.5,3.4,0.9,6.8,1.3,10.2c0.3,2.6,0.7,5.1,1,7.7c0.6,4.2-2,8.1-6.1,9.2c-21.6,6.1-43.8,11.1-65.7,15.6c-2.2,0.5-4.3-1.4-4.1-3.7
	C1418.3,181.3,1418.4,172.9,1418.2,163.8z M1486.4,94.7c-1.9-7.7,2.9-15.4,10.6-17.1c4.1-0.9,8.2-1.9,12.3-3
	c12.5-3.2,24.8-7.2,36.7-11.9c3-1.2,6.4,0,8.1,2.7c5.7,8.8,11.1,18,16.4,27.4c1.7,3.1,1,6.9-1.7,9.2c-19,15.7-41.5,24.1-64.6,30.3
	c-4.8,1.3-9.6-1.7-10.5-6.6c-1-5.3-2.2-10.6-3.6-15.8c-0.3-1.4-0.7-2.9-1-4.3C1488.2,102.1,1487.2,98.5,1486.4,94.7z M1486.1,180.8
	c4.8-1.3,9.7,1.8,10.5,6.7c0.9,5.3,2,10.6,3.2,15.9c1.6,6.9-2.1,14-8.7,16.7l-0.2,0.1c-3.7,1.5-7.7,1.8-11.6,1
	c-14.9-3.1-33.3-2.9-54.2-2.6c-12,0.2-24.6,0.4-37.3-0.1c-3.3-0.1-6.1-2.4-6.8-5.6c-0.3-1.1-0.5-2.2-0.8-3.3
	c-0.7-2.8,1.1-5.6,3.9-6.1c1.9-0.4,3.7-0.7,5.6-1.1C1421.1,196.1,1454.3,189.6,1486.1,180.8z M1662.6,279.2c-0.4-2.1,1.3-4,3.5-3.7
	c14.1,1.9,22.1,9.9,31.8,19.5c1.5,1.5,3.1,3,4.7,4.6c1.4,1.4,1.2,3.7-0.5,4.8c-3.3,2-6.6,4-9.8,5.9c-6.4,3.9-12.9,7.7-19.4,11.5
	c-2.1,1.2-4.8-0.2-4.9-2.7C1667.2,305.4,1665.2,292,1662.6,279.2z M1667.7,338c0,4.4-3.6,8.1-8.1,8.1s-8.1-3.6-8.1-8.1
	s3.6-8.1,8.1-8.1S1667.7,333.5,1667.7,338z M1664.1,319.4c0.1,2.5-1.9,4.5-4.4,4.4h0c-2.2,0-4.3,0.5-6.2,1.4
	c-1.3,0.6-2.8,0.5-3.9-0.4c-6.9-5.5-14.4-10.2-22.1-14.6c-2.6-1.5-4.4-4.1-4.7-7.1c-0.4-3.8-1-7.5-1.7-11.3
	c-0.7-3.8,0.9-7.6,4.2-9.6c9.7-5.9,19.2-7.1,27.9-7.3c2.7-0.1,5,1.7,5.5,4.4C1661.5,292.1,1663.5,305.6,1664.1,319.4z M1469.2,522.9
	c-0.9,1.6-3.2,1.4-3.9-0.2c-4.3-10.2-8.7-20.1-13.1-30c-0.4-0.9-0.8-1.7-1.1-2.6c-1.4-3,0.6-6.5,3.9-6.9c8-1,16.9,0.1,26.5,2.1
	c3.2,0.7,4.9,4.2,3.5,7.1C1479.7,503.4,1474.6,513.4,1469.2,522.9z M1464.4,558.5c-2.2,0.3-4.5,0.6-6.7,0.9c-2.5,0.2-4-2.5-2.5-4.3
	c2.9-3.8,5.6-7.6,8.2-11.5c1-1.5,3.2-1.2,3.9,0.5c0.7,2,1.5,4,2.2,6.1C1470.8,554,1468.4,558,1464.4,558.5z M1484.3,482.1
	c-12-2.7-23.3-4.1-33.2-1.9c-2.3,0.5-4.7-0.7-5.6-2.8c-4.8-10.9-9.2-21.5-13.1-32.1c-1.4-3.7,0.2-7.8,3.7-9.7
	c4.4-2.3,9-4.4,13.8-6.3c4.2-1.7,9-1.5,13.1,0.4c14.5,6.7,28.8,14,42.6,22.1c2.8,1.7,3.1,5.6,0.7,7.7c-5.6,4.9-10.4,11.2-14.7,19.3
	C1490.1,481.4,1487.2,482.7,1484.3,482.1z M1427.1,430.2c-0.8-2.4-1.5-4.9-2.1-7.3c-1.2-4.3,3.1-8.2,7.2-6.5
	c4.1,1.7,8.2,3.4,12.3,5.1c2.4,1,2.4,4.4,0,5.5c-4,1.7-7.8,3.6-11.4,5.6C1430.8,433.9,1427.9,432.7,1427.1,430.2z M1474.5,422.3
	c9.4-1.7,18.9-2.1,27.8-0.9l0,0c1.8,0.2,2.6,2.5,1.2,3.8c-2.8,2.6-5.5,5.3-8.2,8c-2.2,2.2-5.5,2.7-8.3,1.3
	c-4.4-2.3-8.8-4.5-13.3-6.6C1471.1,426.7,1471.6,422.8,1474.5,422.3z M1498.2,478.9c4-6.9,8.4-12.2,13.6-16.3
	c3.1-2.4,7.3-2.5,10.6-0.3h0.1c13.2,8.6,25.4,18.5,37,28.6c1.6,1.4,0.8,4.1-1.3,4.4c-16.1,2.4-35-2.8-53.4-7.9
	c-1.2-0.3-2.4-0.7-3.6-1C1498,485.5,1496.5,481.8,1498.2,478.9z M1521.8,450.3c-2.7,1-5.6,0.7-8-0.8c-4.4-2.6-8.8-5.2-13.2-7.7
	c-2.6-1.5-3.1-5.1-1-7.2c2.5-2.5,5.1-5,7.7-7.4c2.7-2.5,6.6-3.3,10.1-1.9c8.6,3.4,15.7,8.6,21.4,15.7c1.8,2.2,0.5,5.4-2.3,5.8
	C1531.1,447.5,1526.2,448.7,1521.8,450.3z M1506.2,417.9c-1.1-0.2-2.1-0.4-3.2-0.5c-12.3-1.7-25.3-0.4-37.8,2.7
	c-3.6,0.9-7.4,0.5-10.9-1c-6.1-2.7-12.3-5.3-18.5-7.8c-3.8-1.5-4.6-6.6-1.5-9.2c31.1-26.2,59.1-47.3,86.8-65.3
	c1.8-1.2,4.3-0.7,5.6,1.1c12.8,17.8,22.5,25.8,34,25.8c5.3,0,10.9-1.7,17.4-4.8c18.4-8.9,40.6-19.8,44.7-39.9c0.4-2,2.6-3,4.3-2
	c6.4,3.7,12.5,7.7,18.2,12.1c1.2,1,1.6,2.6,1.1,4.1c-0.5,1.5-0.8,3.1-0.8,4.7c0,0.3,0,0.6,0,0.8c0,2.2-1.3,4.2-3.3,5.2
	c-9,4.5-18.1,8.8-27.7,13.3c-34,16-68.9,32.4-100.5,58.7C1512,417.7,1509,418.4,1506.2,417.9z M1531.2,330.4
	c13.6-8.5,27.3-16.3,41.3-23.6c2.6-1.3,5-2.8,7.4-4.4c4.9-3.3,11.1-3.7,16.4-1.2c5.7,2.7,11.5,5.5,17.2,8.4c3.9,2,6,6.5,4.8,10.7
	c-4.9,16.9-25.3,26.9-42.1,35.1c-14.5,7.1-23.5,5.8-34.3-4.8c-3.7-3.6-7.6-8.4-11.8-14.3C1528.7,334.3,1529.2,331.6,1531.2,330.4z
	 M1653,271c-9.3,0.3-19.6,1.5-30.1,8c-2,1.2-4.7,0.3-5.3-2c-0.2-0.5-0.3-1-0.5-1.6c-1-3.3,0.1-6.9,2.8-9.1c2.6-2.2,5.4-4.2,8.3-6.1
	c6.7-4.3,12.7-8.7,17.7-13.2c1.6-1.5,4.2-0.7,4.9,1.4c1.8,6,3.5,12.3,5.1,18.7C1656.4,269.1,1655,270.9,1653,271z M1617.1,293.1
	c0.5,2.9,1,5.9,1.4,8.9c0.2,1.5-1.4,2.6-2.8,1.9c-1.7-0.9-3.4-1.7-5.1-2.5c-1.7-0.8-2.2-3-1.1-4.5c1.4-1.7,2.7-3.3,4.1-4.8
	C1614.8,290.9,1616.8,291.5,1617.1,293.1z M1611.8,288.2c-2.2,2.3-4.5,4.9-6.7,7.9c-0.9,1.1-2.4,1.5-3.7,0.9
	c-0.9-0.4-1.8-0.9-2.7-1.3c-3.1-1.5-3.8-5.6-1.3-8c2.1-2.1,4.2-4.1,6.3-6.2c1.7-1.7,3.4-3.4,5.1-5c1.5-1.5,4.1-0.9,4.8,1.2
	c0.2,0.6,0.3,1.1,0.5,1.7C1614.9,282.5,1614,285.9,1611.8,288.2z M1605.8,270.8c-2.2,2.2-4.4,4.4-6.6,6.5c-1.5,1.5-3,3-4.5,4.4
	c-5.1,5-12.9,6.2-19.3,3c-22.9-11.6-43.5-24.6-56.4-46.6c-0.8-1.3-0.2-3,1.2-3.6c15.5-6.3,40.8-9.9,62.1-11.2c2.6-0.2,5,1.1,6.5,3.2
	c7.8,11.3,14.1,22.9,19,34.8C1609.1,264.6,1608.3,268.3,1605.8,270.8z M1579.1,219.5c-15.6,1.1-43.3,4-60.9,11.5
	c-1.4,0.6-3.1-0.2-3.4-1.7c0,0,0-0.1,0-0.1c-1.1-5.5,2.4-11.1,8.1-12.4c0.4,0,0.6-0.1,0.7-0.1c15.7-3.4,31.9-5.3,47.9-6.9
	c2.8-0.3,5.5,0.9,7.2,3c0.7,0.9,1.5,1.8,2.2,2.7C1582.1,217,1581.1,219.3,1579.1,219.5z M1573.7,290.3c3.5,1.7,3.7,6.6,0.4,8.6
	c-1.4,0.9-2.8,1.7-4.3,2.5c-14.4,7.5-28.3,15.5-42.3,24.2c-1.9,1.2-4.4,0.6-5.6-1.2c-7.4-11.4-16.2-25.9-27-43.9
	c-2.8-4.7-5.8-9.6-8.9-14.7c-1.4-2.4-0.6-5.5,1.8-6.8c5.2-2.9,9.3-6.9,13.2-10.7c2.8-2.8,5.9-5.7,9.3-8.2c1.2-0.8,2.9-0.5,3.6,0.8
	C1527.8,264.4,1550.1,278.5,1573.7,290.3z M1508.8,236.1c-3.9,2.8-7.2,6-10.3,9c-4,4-7.9,7.7-12.9,10.4c-2.2,1.2-5,0.5-6.3-1.7
	c-2.4-3.9-4.9-8-7.4-12.2c-1.2-1.9-0.6-4.5,1.3-5.7c4.1-2.5,8.4-4.9,13-7c0,0,1.6-0.7,4-1.7c7-2.9,14.8-0.5,19.3,5.3
	C1510.2,233.7,1509.9,235.3,1508.8,236.1z M1410.5,226.9c-6.4,2.1-13.4,4-20.9,5.8c-2,0.5-3.9-0.7-4.4-2.7c-0.2-0.9-0.4-1.8-0.6-2.7
	c-0.4-1.6,0.9-3.1,2.5-3.1c7.9,0.3,15.6,0.4,23,0.3C1411.4,224.6,1411.8,226.5,1410.5,226.9z M1351.3,214.9
	c-17.4-3-34.8-7.8-51.3-16.9c-12.3-6.5-26-12.3-39.6-16.8c-5.8-1.9-10.1-6.7-11.6-12.6c-5.3-21.3-12.9-40-23.1-56.9
	c-1.7-2.9,0-6.6,3.3-7c23.5-3.3,47.8-5.3,71-6.7c3.1-0.2,6.5-0.3,9.7-0.5c3.8-0.2,7.3,1.9,8.9,5.4c13.3,29.3,29.2,71.5,36.5,108.2
	C1355.5,213.2,1353.6,215.2,1351.3,214.9z M1246,232.4c-17.7,0.9-34.6,3.2-51.4,7c-2.2,0.5-4.4-0.6-5.3-2.7
	c-3.5-8.4-6.3-17.6-8.9-26.6c-3.9-13.3-8-26.9-14.7-38.6c-0.8-1.4,0.3-3.1,1.9-3c22.9,2.3,45.8,5.8,67.8,11.4
	c7,1.7,12.2,7.5,13.3,14.6c0.9,7.2,1.8,14.7,2.5,22.4c0.2,2.9,0.5,5.9,0.6,8.8C1252.1,229.2,1249.4,232.2,1246,232.4z M1243.5,169.6
	c0.8,3.1-2,5.9-5,5.1c-16.8-4.3-34-7.4-51.4-9.7c-0.1,0-0.3,0-0.5-0.1c-2.6-0.4-4.8-2.2-5.6-4.8c-0.2-0.9-0.5-1.7-0.6-2.2
	c-3.7-12.9-7.9-24.2-12.9-35.1c-1-2.2,0.2-4.9,2.5-5.6c11.6-3.3,23.3-6.1,35-8.3c6.8-1.3,13.7,1.9,17.2,7.8
	C1231.6,132.4,1238.6,149.9,1243.5,169.6z M1176.9,159.9c0.5,1.9-1,3.7-3,3.5c-28.3-3.1-56.6-4.1-82.9-4.3c-2.9,0-4-3.8-1.6-5.4
	c22.1-14.6,45.3-25.1,68.9-32.9c2-0.6,4.1,0.3,4.9,2.2C1168.6,134.4,1173,146.1,1176.9,159.9z M1091.8,165
	c20.3,0.1,41.8,0.8,63.5,2.5c2.1,0.2,3.9,1.3,5,3c7.6,11.9,12,26.6,16.2,40.9c2.5,8.5,5.1,17.1,8.3,25.2c1,2.6-0.4,5.4-3,6.2l-0.1,0
	c-2.1,0.6-4.3-0.4-5.3-2.3c-11.9-22.6-27.9-28.7-46.2-35.9c-4-1.5-8.1-3.1-12.4-5c-12.8-5.4-22.4-16.2-29.7-28.3
	C1086.6,168.5,1088.6,165,1091.8,165z M1245.1,393.9c-14.8,2.7-32.1,11.1-44.3,20c-2.1,1.5-5,1.1-6.5-1c-7.5-10.3-15.6-20.3-25.4-29
	c0.6-1.1,1-2.4,1.2-3.6c0.4-2.2,0.3-4.2-0.2-6.2c-0.4-1.5,0.3-3.1,1.7-4c16.8-10.3,36.9-15.6,60-15.6h0.1c3.3,0,6.7,0.1,10.2,0.3
	c5.1,0.3,9,4.6,9.1,9.7v5.2c0,5.7,0.1,11.5,0.1,17.2C1251,390.3,1248.5,393.3,1245.1,393.9z M1250.9,401.3
	c-0.2,11.7-0.8,23.3-2,34.7c-9-1.9-17.9-5.3-28.4-9.4c-3.6-1.4-7.5-2.9-11.7-4.4c-3.5-1.3-4.1-6.1-0.9-8.2
	c11.6-7.6,26.4-14.2,38.9-16.2C1249,397.3,1251,399,1250.9,401.3z M1164.4,377.6c0,4.5-3.6,8.1-8.1,8.1c-4.4,0-8.1-3.7-8.1-8.1
	c0-4.5,3.6-8.1,8.1-8.1S1164.4,373.1,1164.4,377.6z M1094.3,293.1c-1.2,3.6-6.5,9.1-12.7,15.4c-6,6.2-13.3,13.6-19.5,22.1
	c-12.4-0.9-25-0.4-37.2,1.3c-1.4,0.2-2.8-0.4-3.5-1.6c0,0,0,0,0,0c-0.8-1.2-0.5-2.9,0.8-3.6c7.4-4.3,14.8-8.8,22.1-13.2
	c15.8-9.5,31.9-19.1,48.1-28.1c1.3-0.7,2.8,0.2,2.9,1.7C1095.4,288.9,1095,290.9,1094.3,293.1z M1052,304.3c-3.3,2-6.6,4-9.8,5.9
	c-6.4,3.9-12.9,7.7-19.4,11.5c-2.1,1.2-4.8-0.2-4.9-2.7c-0.7-13.7-2.6-27.1-5.3-39.9c-0.4-2.1,1.3-4,3.5-3.7
	c14.1,1.9,22.1,9.9,31.8,19.5c1.5,1.5,3.1,3,4.7,4.6C1054,300.9,1053.7,303.2,1052,304.3z M1017.7,338c0,4.4-3.6,8.1-8.1,8.1
	s-8.1-3.6-8.1-8.1s3.6-8.1,8.1-8.1S1017.7,333.5,1017.7,338z M1014.1,319.4c0.1,2.5-1.9,4.5-4.4,4.4h0c-2.2,0-4.3,0.5-6.2,1.4
	c-1.3,0.6-2.8,0.5-3.9-0.4c-6.9-5.5-14.4-10.2-22.1-14.6c-2.6-1.5-4.4-4.1-4.7-7.1c-0.4-3.8-1-7.5-1.7-11.3
	c-0.7-3.8,0.9-7.6,4.2-9.6c9.7-5.9,19.2-7.1,27.9-7.3c2.7-0.1,5,1.7,5.5,4.4C1011.5,292.1,1013.5,305.6,1014.1,319.4z M819.2,522.9
	c-0.9,1.6-3.2,1.4-3.9-0.2c-4.3-10.2-8.7-20.1-13.1-30c-0.4-0.9-0.8-1.7-1.1-2.6c-1.4-3,0.6-6.5,3.9-6.9c8-1,16.9,0.1,26.5,2.1
	c3.2,0.7,4.9,4.2,3.5,7.1C829.7,503.4,824.6,513.4,819.2,522.9z M814.4,558.5c-2.2,0.3-4.5,0.6-6.7,0.9c-2.5,0.2-4-2.5-2.5-4.3
	c2.9-3.8,5.6-7.6,8.2-11.5c1-1.5,3.2-1.2,3.9,0.5c0.7,2,1.5,4,2.2,6.1C820.8,554,818.4,558,814.4,558.5z M834.3,482.1
	c-12-2.7-23.3-4.1-33.2-1.9c-2.3,0.5-4.7-0.7-5.6-2.8c-4.8-10.9-9.2-21.5-13.1-32.1c-1.4-3.7,0.2-7.8,3.7-9.7
	c4.4-2.3,9-4.4,13.8-6.3c4.2-1.7,9-1.5,13.1,0.4c14.5,6.7,28.8,14,42.6,22.1c2.8,1.7,3.1,5.6,0.7,7.7c-5.6,4.9-10.4,11.2-14.7,19.3
	C840.1,481.4,837.2,482.7,834.3,482.1z M777.1,430.2c-0.8-2.4-1.5-4.9-2.1-7.3c-1.2-4.3,3.1-8.2,7.2-6.5c4.1,1.7,8.2,3.4,12.3,5.1
	c2.4,1,2.4,4.4,0,5.5c-4,1.7-7.8,3.6-11.4,5.6C780.8,433.9,777.9,432.7,777.1,430.2z M824.5,422.3c9.4-1.7,18.9-2.1,27.8-0.9l0,0
	c1.8,0.2,2.6,2.5,1.2,3.8c-2.8,2.6-5.5,5.3-8.2,8c-2.2,2.2-5.5,2.7-8.3,1.3c-4.4-2.3-8.8-4.5-13.3-6.6
	C821.1,426.7,821.6,422.8,824.5,422.3z M848.2,478.9c4-6.9,8.4-12.2,13.6-16.3c3.1-2.4,7.3-2.5,10.6-0.3h0.1
	c13.2,8.6,25.4,18.5,37,28.6c1.6,1.4,0.8,4.1-1.3,4.4c-16.1,2.4-35-2.8-53.4-7.9c-1.2-0.3-2.4-0.7-3.6-1
	C848,485.5,846.5,481.8,848.2,478.9z M871.8,450.3c-2.7,1-5.6,0.7-8-0.8c-4.4-2.6-8.8-5.2-13.2-7.7c-2.6-1.5-3.1-5.1-1-7.2
	c2.5-2.5,5.1-5,7.7-7.4c2.7-2.5,6.6-3.3,10.1-1.9c8.6,3.4,15.7,8.6,21.4,15.7c1.8,2.2,0.5,5.4-2.3,5.8
	C881.1,447.5,876.2,448.7,871.8,450.3z M856.2,417.9c-1.1-0.2-2.1-0.4-3.2-0.5c-12.3-1.7-25.3-0.4-37.8,2.7c-3.6,0.9-7.4,0.5-10.9-1
	c-6.1-2.7-12.3-5.3-18.5-7.8c-3.8-1.5-4.6-6.6-1.5-9.2c31.1-26.2,59.1-47.3,86.8-65.3c1.8-1.2,4.3-0.7,5.6,1.1
	c12.8,17.8,22.5,25.8,34,25.8c5.3,0,10.9-1.7,17.4-4.8c18.4-8.9,40.6-19.8,44.7-39.9c0.4-2,2.6-3,4.3-2c6.4,3.7,12.5,7.7,18.2,12.1
	c1.2,1,1.6,2.6,1.1,4.1c-0.5,1.5-0.8,3.1-0.8,4.7c0,0.3,0,0.6,0,0.8c0,2.2-1.3,4.2-3.3,5.2c-9,4.5-18.1,8.8-27.7,13.3
	c-34,16-68.9,32.4-100.5,58.7C862,417.7,859,418.4,856.2,417.9z M881.2,330.4c13.6-8.5,27.3-16.3,41.3-23.6c2.6-1.3,5-2.8,7.4-4.4
	c4.9-3.3,11.1-3.7,16.4-1.2c5.7,2.7,11.5,5.5,17.2,8.4c3.9,2,6,6.5,4.8,10.7c-4.9,16.9-25.3,26.9-42.1,35.1
	c-14.5,7.1-23.5,5.8-34.3-4.8c-3.7-3.6-7.6-8.4-11.8-14.3C878.7,334.3,879.2,331.6,881.2,330.4z M1003,271c-9.3,0.3-19.6,1.5-30.1,8
	c-2,1.2-4.7,0.3-5.3-2c-0.2-0.5-0.3-1-0.5-1.6c-1-3.3,0.1-6.9,2.8-9.1c2.6-2.2,5.4-4.2,8.3-6.1c6.7-4.3,12.7-8.7,17.7-13.2
	c1.6-1.5,4.2-0.7,4.9,1.4c1.8,6,3.5,12.3,5.1,18.7C1006.4,269.1,1005,270.9,1003,271z M967.1,293.1c0.5,2.9,1,5.9,1.4,8.9
	c0.2,1.5-1.4,2.6-2.8,1.9c-1.7-0.9-3.4-1.7-5.1-2.5c-1.7-0.8-2.2-3-1.1-4.5c1.4-1.7,2.7-3.3,4.1-4.8
	C964.8,290.9,966.8,291.5,967.1,293.1z M961.8,288.2c-2.2,2.3-4.5,4.9-6.7,7.9c-0.9,1.1-2.4,1.5-3.7,0.9c-0.9-0.4-1.8-0.9-2.7-1.3
	c-3.1-1.5-3.8-5.6-1.3-8c2.1-2.1,4.2-4.1,6.3-6.2c1.7-1.7,3.4-3.4,5.1-5c1.5-1.5,4.1-0.9,4.8,1.2c0.2,0.6,0.3,1.1,0.5,1.7
	C964.9,282.5,964,285.9,961.8,288.2z M955.8,270.8c-2.2,2.2-4.4,4.4-6.6,6.5c-1.5,1.5-3,3-4.5,4.4c-5.1,5-12.9,6.2-19.3,3
	c-22.9-11.6-43.5-24.6-56.4-46.6c-0.8-1.3-0.2-3,1.2-3.6c15.5-6.3,40.8-9.9,62.1-11.2c2.6-0.2,5,1.1,6.5,3.2
	c7.8,11.3,14.1,22.9,19,34.8C959.1,264.6,958.3,268.3,955.8,270.8z M929.1,219.5c-15.6,1.1-43.3,4-60.9,11.5
	c-1.4,0.6-3.1-0.2-3.4-1.7c0,0,0-0.1,0-0.1c-1.1-5.5,2.4-11.1,8.1-12.4c0.4,0,0.6-0.1,0.7-0.1c15.7-3.4,31.9-5.3,47.9-6.9
	c2.8-0.3,5.5,0.9,7.2,3c0.7,0.9,1.5,1.8,2.2,2.7C932.1,217,931.1,219.3,929.1,219.5z M923.7,290.3c3.5,1.7,3.7,6.6,0.4,8.6
	c-1.4,0.9-2.8,1.7-4.3,2.5c-14.4,7.5-28.3,15.5-42.3,24.2c-1.9,1.2-4.4,0.6-5.6-1.2c-7.4-11.4-16.2-25.9-27-43.9
	c-2.8-4.7-5.8-9.6-8.9-14.7c-1.4-2.4-0.6-5.5,1.8-6.8c5.2-2.9,9.3-6.9,13.2-10.7c2.8-2.8,5.9-5.7,9.3-8.2c1.2-0.8,2.9-0.5,3.6,0.8
	C877.8,264.4,900.1,278.5,923.7,290.3z M858.8,236.1c-3.9,2.8-7.2,6-10.3,9c-4,4-7.9,7.7-12.9,10.4c-2.2,1.2-5,0.5-6.3-1.7
	c-2.4-3.9-4.9-8-7.4-12.2c-1.2-1.9-0.6-4.5,1.3-5.7c4.1-2.5,8.4-4.9,13-7c0,0,1.6-0.7,4-1.7c7-2.9,14.8-0.5,19.3,5.3
	C860.2,233.7,859.9,235.3,858.8,236.1z M760.5,226.9c-6.4,2.1-13.4,4-20.9,5.8c-2,0.5-3.9-0.7-4.4-2.7c-0.2-0.9-0.4-1.8-0.6-2.7
	c-0.4-1.6,0.9-3.1,2.5-3.1c7.9,0.3,15.6,0.4,23,0.3C761.4,224.6,761.8,226.5,760.5,226.9z M701.3,214.9c-17.4-3-34.8-7.8-51.3-16.9
	c-12.3-6.5-26-12.3-39.6-16.8c-5.8-1.9-10.1-6.7-11.6-12.6c-5.3-21.3-12.9-40-23.1-56.9c-1.7-2.9,0-6.6,3.3-7
	c23.5-3.3,47.8-5.3,71-6.7c3.1-0.2,6.5-0.3,9.7-0.5c3.8-0.2,7.3,1.9,8.9,5.4c13.3,29.3,29.2,71.5,36.5,108.2
	C705.5,213.2,703.6,215.2,701.3,214.9z M596,232.4c-17.7,0.9-34.6,3.2-51.4,7c-2.2,0.5-4.4-0.6-5.3-2.7c-3.5-8.4-6.3-17.6-8.9-26.6
	c-3.9-13.3-8-26.9-14.7-38.6c-0.8-1.4,0.3-3.1,1.9-3c22.9,2.3,45.8,5.8,67.8,11.4c7,1.7,12.2,7.5,13.3,14.6
	c0.9,7.2,1.8,14.7,2.5,22.4c0.2,2.9,0.5,5.9,0.6,8.8C602.1,229.2,599.4,232.2,596,232.4z M593.5,169.6c0.8,3.1-2,5.9-5,5.1
	c-16.8-4.3-34-7.4-51.4-9.7c-0.1,0-0.3,0-0.5-0.1c-2.6-0.4-4.8-2.2-5.6-4.8c-0.2-0.9-0.5-1.7-0.6-2.2c-3.7-12.9-7.9-24.2-12.9-35.1
	c-1-2.2,0.2-4.9,2.5-5.6c11.6-3.3,23.3-6.1,35-8.3c6.8-1.3,13.7,1.9,17.2,7.8C581.6,132.4,588.6,149.9,593.5,169.6z M526.9,159.9
	c0.5,1.9-1,3.7-3,3.5c-28.3-3.1-56.6-4.1-82.9-4.3c-2.9,0-4-3.8-1.6-5.4c22.1-14.6,45.3-25.1,68.9-32.9c2-0.6,4.1,0.3,4.9,2.2
	C518.6,134.4,523,146.1,526.9,159.9z M441.8,165c20.3,0.1,41.8,0.8,63.5,2.5c2.1,0.2,3.9,1.3,5,3c7.6,11.9,12,26.6,16.2,40.9
	c2.5,8.5,5.1,17.1,8.3,25.2c1,2.6-0.4,5.4-3,6.2l-0.1,0c-2.1,0.6-4.3-0.4-5.3-2.3c-11.9-22.6-27.9-28.7-46.2-35.9
	c-4-1.5-8.1-3.1-12.4-5c-12.8-5.4-22.4-16.2-29.7-28.3C436.6,168.5,438.6,165,441.8,165z M595.1,393.9c-14.8,2.7-32.1,11.1-44.3,20
	c-2.1,1.5-5,1.1-6.5-1c-7.5-10.3-15.6-20.3-25.4-29c0.6-1.1,1-2.4,1.2-3.6c0.4-2.2,0.3-4.2-0.2-6.2c-0.4-1.5,0.3-3.1,1.7-4
	c16.8-10.3,36.9-15.6,60-15.6h0.1c3.3,0,6.7,0.1,10.2,0.3c5.1,0.3,9,4.6,9.1,9.7v5.2c0,5.7,0.1,11.5,0.1,17.2
	C601,390.3,598.5,393.3,595.1,393.9z M600.9,401.3c-0.2,11.7-0.8,23.3-2,34.7c-9-1.9-17.9-5.3-28.4-9.4c-3.6-1.4-7.5-2.9-11.7-4.4
	c-3.5-1.3-4.1-6.1-0.9-8.2c11.6-7.6,26.4-14.2,38.9-16.2C599,397.3,601,399,600.9,401.3z M514.4,377.6c0,4.5-3.6,8.1-8.1,8.1
	c-4.4,0-8.1-3.7-8.1-8.1c0-4.5,3.6-8.1,8.1-8.1S514.4,373.1,514.4,377.6z M444.3,293.1c-1.2,3.6-6.5,9.1-12.7,15.4
	c-6,6.2-13.3,13.6-19.5,22.1c-12.4-0.9-25-0.4-37.2,1.3c-1.4,0.2-2.8-0.4-3.5-1.6c0,0,0,0,0,0c-0.8-1.2-0.5-2.9,0.8-3.6
	c7.4-4.3,14.8-8.8,22.1-13.2c15.8-9.5,31.9-19.1,48.1-28.1c1.3-0.7,2.8,0.2,2.9,1.7C445.4,288.9,445,290.9,444.3,293.1z M402,304.3
	c-3.3,2-6.6,4-9.8,5.9c-6.4,3.9-12.9,7.7-19.4,11.5c-2.1,1.2-4.8-0.2-4.9-2.7c-0.7-13.7-2.6-27.1-5.3-39.9c-0.4-2.1,1.3-4,3.5-3.7
	c14.1,1.9,22.1,9.9,31.8,19.5c1.5,1.5,3.1,3,4.7,4.6C404,300.9,403.7,303.2,402,304.3z M367.7,338c0,4.4-3.6,8.1-8.1,8.1
	s-8.1-3.6-8.1-8.1s3.6-8.1,8.1-8.1S367.7,333.5,367.7,338z M364.1,319.4c0.1,2.5-1.9,4.5-4.4,4.4h0c-2.2,0-4.3,0.5-6.2,1.4
	c-1.3,0.6-2.8,0.5-3.9-0.4c-6.9-5.5-14.4-10.2-22.1-14.6c-2.6-1.5-4.4-4.1-4.7-7.1c-0.4-3.8-1-7.5-1.7-11.3
	c-0.7-3.8,0.9-7.6,4.2-9.6c9.7-5.9,19.2-7.1,27.9-7.3c2.7-0.1,5,1.7,5.5,4.4C361.5,292.1,363.5,305.6,364.1,319.4z M169.2,522.9
	c-0.9,1.6-3.2,1.4-3.9-0.2c-4.3-10.2-8.7-20.1-13.1-30c-0.4-0.9-0.8-1.7-1.1-2.6c-1.4-3,0.6-6.5,3.9-6.9c8-1,16.9,0.1,26.5,2.1
	c3.2,0.7,4.9,4.2,3.5,7.1C179.7,503.4,174.6,513.4,169.2,522.9z M164.4,558.5c-2.2,0.3-4.5,0.6-6.7,0.9c-2.5,0.2-4-2.5-2.5-4.3
	c2.9-3.8,5.6-7.6,8.2-11.5c1-1.5,3.2-1.2,3.9,0.5c0.7,2,1.5,4,2.2,6.1C170.8,554,168.4,558,164.4,558.5z M184.3,482.1
	c-12-2.7-23.3-4.1-33.2-1.9c-2.3,0.5-4.7-0.7-5.6-2.8c-4.8-10.9-9.2-21.5-13.1-32.1c-1.4-3.7,0.2-7.8,3.7-9.7
	c4.4-2.3,9-4.4,13.8-6.3c4.2-1.7,9-1.5,13.1,0.4c14.5,6.7,28.8,14,42.6,22.1c2.8,1.7,3.1,5.6,0.7,7.7c-5.6,4.9-10.4,11.2-14.7,19.3
	C190.1,481.4,187.2,482.7,184.3,482.1z M127.1,430.2c-0.8-2.4-1.5-4.9-2.1-7.3c-1.2-4.3,3.1-8.2,7.2-6.5c4.1,1.7,8.2,3.4,12.3,5.1
	c2.4,1,2.4,4.4,0,5.5c-4,1.7-7.8,3.6-11.4,5.6C130.8,433.9,127.9,432.7,127.1,430.2z M174.5,422.3c9.4-1.7,18.9-2.1,27.8-0.9l0,0
	c1.8,0.2,2.6,2.5,1.2,3.8c-2.8,2.6-5.5,5.3-8.2,8c-2.2,2.2-5.5,2.7-8.3,1.3c-4.4-2.3-8.8-4.5-13.3-6.6
	C171.1,426.7,171.6,422.8,174.5,422.3z M198.2,478.9c4-6.9,8.4-12.2,13.6-16.3c3.1-2.4,7.3-2.5,10.6-0.3h0.1
	c13.2,8.6,25.4,18.5,37,28.6c1.6,1.4,0.8,4.1-1.3,4.4c-16.1,2.4-35-2.8-53.4-7.9c-1.2-0.3-2.4-0.7-3.6-1
	C198,485.5,196.5,481.8,198.2,478.9z M221.8,450.3c-2.7,1-5.6,0.7-8-0.8c-4.4-2.6-8.8-5.2-13.2-7.7c-2.6-1.5-3.1-5.1-1-7.2
	c2.5-2.5,5.1-5,7.7-7.4c2.7-2.5,6.6-3.3,10.1-1.9c8.6,3.4,15.7,8.6,21.4,15.7c1.8,2.2,0.5,5.4-2.3,5.8
	C231.1,447.5,226.2,448.7,221.8,450.3z M206.2,417.9c-1.1-0.2-2.1-0.4-3.2-0.5c-12.3-1.7-25.3-0.4-37.8,2.7c-3.6,0.9-7.4,0.5-10.9-1
	c-6.1-2.7-12.3-5.3-18.5-7.8c-3.8-1.5-4.6-6.6-1.5-9.2c31.1-26.2,59.1-47.3,86.8-65.3c1.8-1.2,4.3-0.7,5.6,1.1
	c12.8,17.8,22.5,25.8,34,25.8c5.3,0,10.9-1.7,17.4-4.8c18.4-8.9,40.6-19.8,44.7-39.9c0.4-2,2.6-3,4.3-2c6.4,3.7,12.5,7.7,18.2,12.1
	c1.2,1,1.6,2.6,1.1,4.1c-0.5,1.5-0.8,3.1-0.8,4.7c0,0.3,0,0.6,0,0.8c0,2.2-1.3,4.2-3.3,5.2c-9,4.5-18.1,8.8-27.7,13.3
	c-34,16-68.9,32.4-100.5,58.7C212,417.7,209,418.4,206.2,417.9z M231.2,330.4c13.6-8.5,27.3-16.3,41.3-23.6c2.6-1.3,5-2.8,7.4-4.4
	c4.9-3.3,11.1-3.7,16.4-1.2c5.7,2.7,11.5,5.5,17.2,8.4c3.9,2,6,6.5,4.8,10.7c-4.9,16.9-25.3,26.9-42.1,35.1
	c-14.5,7.1-23.5,5.8-34.3-4.8c-3.7-3.6-7.6-8.4-11.8-14.3C228.7,334.3,229.2,331.6,231.2,330.4z M353,271c-9.3,0.3-19.6,1.5-30.1,8
	c-2,1.2-4.7,0.3-5.3-2c-0.2-0.5-0.3-1-0.5-1.6c-1-3.3,0.1-6.9,2.8-9.1c2.6-2.2,5.4-4.2,8.3-6.1c6.7-4.3,12.7-8.7,17.7-13.2
	c1.6-1.5,4.2-0.7,4.9,1.4c1.8,6,3.5,12.3,5.1,18.7C356.4,269.1,355,270.9,353,271z M317.1,293.1c0.5,2.9,1,5.9,1.4,8.9
	c0.2,1.5-1.4,2.6-2.8,1.9c-1.7-0.9-3.4-1.7-5.1-2.5c-1.7-0.8-2.2-3-1.1-4.5c1.4-1.7,2.7-3.3,4.1-4.8
	C314.8,290.9,316.8,291.5,317.1,293.1z M311.8,288.2c-2.2,2.3-4.5,4.9-6.7,7.9c-0.9,1.1-2.4,1.5-3.7,0.9c-0.9-0.4-1.8-0.9-2.7-1.3
	c-3.1-1.5-3.8-5.6-1.3-8c2.1-2.1,4.2-4.1,6.3-6.2c1.7-1.7,3.4-3.4,5.1-5c1.5-1.5,4.1-0.9,4.8,1.2c0.2,0.6,0.3,1.1,0.5,1.7
	C314.9,282.5,314,285.9,311.8,288.2z M305.8,270.8c-2.2,2.2-4.4,4.4-6.6,6.5c-1.5,1.5-3,3-4.5,4.4c-5.1,5-12.9,6.2-19.3,3
	c-22.9-11.6-43.5-24.6-56.4-46.6c-0.8-1.3-0.2-3,1.2-3.6c15.5-6.3,40.8-9.9,62.1-11.2c2.6-0.2,5,1.1,6.5,3.2
	c7.8,11.3,14.1,22.9,19,34.8C309.1,264.6,308.3,268.3,305.8,270.8z M279.1,219.5c-15.6,1.1-43.3,4-60.9,11.5
	c-1.4,0.6-3.1-0.2-3.4-1.7c0,0,0-0.1,0-0.1c-1.1-5.5,2.4-11.1,8.1-12.4c0.4,0,0.6-0.1,0.7-0.1c15.7-3.4,31.9-5.3,47.9-6.9
	c2.8-0.3,5.5,0.9,7.2,3c0.7,0.9,1.5,1.8,2.2,2.7C282.1,217,281.1,219.3,279.1,219.5z M273.7,290.3c3.5,1.7,3.7,6.6,0.4,8.6
	c-1.4,0.9-2.8,1.7-4.3,2.5c-14.4,7.5-28.3,15.5-42.3,24.2c-1.9,1.2-4.4,0.6-5.6-1.2c-7.4-11.4-16.2-25.9-27-43.9
	c-2.8-4.7-5.8-9.6-8.9-14.7c-1.4-2.4-0.6-5.5,1.8-6.8c5.2-2.9,9.3-6.9,13.2-10.7c2.8-2.8,5.9-5.7,9.3-8.2c1.2-0.8,2.9-0.5,3.6,0.8
	C227.8,264.4,250.1,278.5,273.7,290.3z M208.8,236.1c-3.9,2.8-7.2,6-10.3,9c-4,4-7.9,7.7-12.9,10.4c-2.2,1.2-5,0.5-6.3-1.7
	c-2.4-3.9-4.9-8-7.4-12.2c-1.2-1.9-0.6-4.5,1.3-5.7c4.1-2.5,8.4-4.9,13-7c0,0,1.6-0.7,4-1.7c7-2.9,14.8-0.5,19.3,5.3
	C210.2,233.7,209.9,235.3,208.8,236.1z M126.3,447.6c3.9,10.6,8.4,21.2,13,31.7c1.1,2.4,0,5.2-2.4,6.4
	c-13.5,6.8-25.1,15.8-35.9,26.1c-1.7,1.6-4.3,1.6-5.9,0c-6.4-6.3-13.6-12.2-21.9-17.2c-1.7-1.1-1.8-3.6-0.1-4.7
	c10.1-6.5,18.7-15.9,27-25.1c3.9-4.3,7.5-8.3,11.2-11.9c2.6-2.5,5.5-4.9,8.6-7.3C122.2,444,125.4,445,126.3,447.6z M101.1,523.7
	c1.9,2.1,3.7,4.2,5.5,6.2c7.3,8.4,16.3,17.4,26.7,26.8c1.5,1.4,0.6,3.8-1.4,3.9c-0.2,0-0.4,0-0.7,0c-4.3,0-8.7-0.1-13.1-0.3
	c-15.4-0.8-31-3.2-46.5-6.9c-1.3-0.3-1.8-1.9-0.9-2.9c1-1.2,2-2.3,3.1-3.5c7-8.1,13.9-16,21-23.4C96.6,521.9,99.5,521.9,101.1,523.7
	z M109.1,527.2c-1.7-2-3.4-3.9-5.2-5.9c-2-2.2-1.9-5.7,0.3-7.7c10.2-9.6,21.1-18,33.7-24.4c2.5-1.3,5.6-0.1,6.8,2.5
	c0.5,1.1,1,2.2,1.5,3.4c4.3,9.6,8.5,19.2,12.6,28.8c2.4,5.8,1.8,12.3-1.7,17.5c-2.3,3.4-4.7,6.8-7.3,10.1c-1.3,1.8-2.9,3.3-4.6,4.6
	c-2.2,1.7-5.4,1.6-7.5-0.3C126.6,545.7,116.8,536.1,109.1,527.2z M155.5,565.3c4-0.4,8-1,12-1.6c3.2-0.5,6.3,1.5,7.2,4.6
	c1.5,5.3,2.7,10.6,3.7,15.9c0.4,1.9-1.9,3.3-3.4,2.1c-7.1-5.5-14.1-11-20.8-16.6C152.4,568.3,153.3,565.5,155.5,565.3z M334.5,430.9
	c-3.4,0.5-6.7,1.1-10.1,2.1c-5.4,1.5-10.7,3.5-15.7,5.3c-8.4,3.1-16.3,6.1-25.1,7.2c-7.2,0.9-14.6,0.6-21.9,0.4
	c-2.7-0.1-5.4-0.2-8.2-0.2c-4,0-7.7-2-10.1-5.2c-6.4-8.6-14.7-14.9-24.7-18.9c-1.6-0.6-1.9-2.7-0.6-3.8c30.9-25.3,65-41.3,98.2-56.9
	c10-4.7,19.5-9.2,28.9-13.9c1.4-0.7,3.1-0.4,4.2,0.8c0.9,0.9,1.9,1.7,3,2.3c1.3,0.8,2,2.2,1.8,3.7c-0.9,5.4-1.8,10.8-2.8,16
	c-1.2,6.7-2.5,13.7-3.5,20.5c-0.8,4.8-1.3,10-1.8,15c-0.6,5.4-1.2,10.9-2,16.2C343.4,426.4,339.4,430.2,334.5,430.9z M342,448.3
	c1-1.9,2.2-4.3,2.9-5.9c1.5-3.7,5.3-6.1,9.3-5.8c5.4,0.4,10.8,1.2,16.2,2.2c1.9,0.3,3.2,2.1,3,4c-0.1,0.9-0.2,1.7-0.2,2.2
	c0,0,0,0,0,0.1c-0.3,3.2-3.1,5.7-6.4,5.4c-8.8-0.6-16.5-0.5-23.3,0.2C342.3,450.6,341.5,449.4,342,448.3z M371.5,432.7
	c-5.4-1-10.9-1.8-16.4-2.2c-3.4-0.3-5.8-3.4-5.2-6.7c1-5.9,1.7-12,2.3-18c0.6-5.1,1.1-10,1.8-14.7c0.6-4,1.3-8,2-12
	c0.2-1.3,1.7-2.1,2.9-1.5c17.3,7.5,17.5,33.1,15.8,52.7C374.5,431.8,373.1,433,371.5,432.7z M393.8,435.4c0.9-7.8,1.7-16,2.4-24.6
	c1.6-17.9,3.3-36.5,7-52.7c1.8-7.8,5.4-15,9.8-21.6c8.6,0.7,17.1,2,25.3,4c15.3,3.6,29.1,9.3,40.9,16.8c2.2,1.4,2.6,4.4,1,6.3
	c-14.9,17.6-24.5,42.9-28.3,75.3c-0.3,2.3-2.2,4-4.5,3.9c-12.9-0.3-26.1-0.9-39.3-2.9c-4.2-0.7-8.4-1.5-12.7-2.3
	C394.4,437.3,393.7,436.4,393.8,435.4z M456,437.9c3.9-31.4,13.3-55.8,27.9-72.5c1.5-1.7,4.2-1.9,6-0.5c0.9,0.8,1.9,1.6,2.8,2.4
	c1.2,1.1,1.6,2.8,1,4.2c-0.8,1.8-1.3,3.8-1.3,5.9c0,2.5,0.7,4.9,1.8,7c0.7,1.3,0.6,2.8-0.2,3.9c-9.7,14.1-15.4,30.9-19.6,48
	c-1,4-4.7,6.9-8.8,6.8c-1.7,0-3.3,0-5-0.1h-0.1C457.7,442.9,455.7,440.6,456,437.9z M509.7,445.7c-6.6-0.9-13.4-1.5-20.1-1.9
	c-5.7-0.3-9.7-5.8-8.2-11.3c3.8-14.5,8.9-28.4,16.8-40.1c0.9-1.3,2.6-1.9,4.1-1.4c2.2,0.7,4.7,0.8,7.2,0.2c2.8-0.6,5.2-2.1,7.1-4.1
	c9.5,8.5,17.4,18.3,24.7,28.5c1.5,2.1,1.3,5-0.5,6.9c-5.8,6-11.3,13.4-16.7,21.8c-1.4,2.1-3.9,3.2-6.4,2.8
	C515,446.6,512.4,446.1,509.7,445.7z M528.6,444.9c4.5-6.8,9.1-13,13.8-18.1c2-2.2,5.5-1.9,7.2,0.5c0.4,0.6,0.9,1.2,1.3,1.9
	c6.3,9.3,13,19,20.6,28.1c4.6,5.5,10.4,10.4,16.6,15c1.4,1.1,1.1,3.4-0.6,4c-2.1,0.7-4.5,0.5-6.5-1c-7.2-5.1-14.6-9.9-22.3-14
	c-8.8-4.7-18.2-8.4-28.2-11.2C528.3,449.4,527.3,446.8,528.6,444.9z M574.5,454.8c-6.8-8.1-12.9-16.7-18.7-25.3l0,0
	c-1.2-1.7,0.6-4,2.6-3.2c3.8,1.4,7.3,2.8,10.6,4.1c11,4.1,20.2,7.6,29.6,9.6c-1.2,9.4-2.9,18.5-5.2,27.4c-0.4,1.6-2.3,2.2-3.6,1.2
	C584,464.2,578.6,459.8,574.5,454.8z M594.8,479.6L594.8,479.6c0.4-1,1.5-1.3,2.3-0.7c9.9,7.2,19.1,14.3,24.1,23.1c0,0,0,0.1,0,0.1
	c1.1,1.8-1.2,3.8-2.9,2.5c-4.5-3.4-8.9-6.9-13.2-10.4c-2.7-2.1-5.4-4.3-8.1-6.4C594.6,485.9,593.7,482.5,594.8,479.6z M650,430
	c-19,7.1-33.2,8.7-45.9,6.9c2.4-22,2.3-44.8,2.1-67.2v-1.4c0-6.3,5.7-10.9,11.8-9.6c10.4,2.3,21.7,6.2,32,10.3
	c18.8,7.2,38.2,13,56.9,19.6c14.8,5.2,29.8,10.5,44.7,16c1.2,0.5,2.4,1,3.5,1.6c1.8,1,1.4,3.7-0.6,4.1c-12.1,2.4-24.2,4-36.1,5.4
	C695.9,418.6,672.1,421.8,650,430z M755.6,399.6c-15.6-5.8-31.3-11.3-46.8-16.8c-19.4-6.8-39.4-13.5-58.9-20.9
	c-11.6-4.4-24.3-7.9-35.9-10.2c-4.6-0.9-8-5-7.9-9.7c0-2.7,0.1-5.3,0.1-6.3c0.2-9.5,0.5-19,0.8-28.3c0.4-12.8,0.9-25.8,1-38.9
	c0-3.5,2.8-6.3,6.3-6.3h0.1c12.3,0,24.9-1.9,35.5-5.3c11-3.6,24.2-6.8,36.3-9.4c2-0.4,3.9,0.9,4.3,2.9
	c8.4,49.7,32.8,94.3,66.5,121.9c2.7,2.2,4.3,5.3,4.6,8.8c0.3,4.3,0.7,8.5,1.2,12.8C763.3,397.9,759.3,401.1,755.6,399.6z M761,364.7
	c0,2.3-2.7,3.6-4.4,2.1c-31.5-27.2-54.2-69.9-62.1-117.4c-0.3-1.9,0.9-3.7,2.8-4.1c3.8-0.8,7.6-1.5,11.4-2.2
	c7.1-1.4,14.1-2.7,20.8-4.1c1.9-0.4,3.9,0.8,4.3,2.7c7.3,30.1,14.8,56.2,27.4,74.6c2.3,3.3,3.2,7.4,2.6,11.4
	C761.9,339.8,761,352.2,761,364.7z M762.6,311.1c-11-17.7-17.9-42.1-24.7-70c-0.5-2,0.8-4.1,2.8-4.6c12.4-2.9,23.6-6.2,32.9-10.5
	c2.3-1.1,4.8-1.7,7.4-1.7c12.4-0.2,23.9-0.2,34,0.7c3.9,0.3,5.2,5.4,1.9,7.5c-18.4,12.1-31.7,28.2-40.1,48.4
	c-3.9,9.4-7,19.2-9.5,29.4C766.7,312.6,763.8,313.1,762.6,311.1z M782.7,283.3c6.7-16,16.6-29.3,29.9-39.9c2-1.6,4.9-1,6.1,1.1
	c8.5,14,16.1,26.6,23,37.8c10.7,17.7,19.4,32.3,27,43.9c1.2,1.9,0.7,4.4-1.2,5.7c-28.4,18.4-57.1,40.1-89,67.2
	c-3.5,2.9-8.5,1-9.1-3.3C764.3,356.2,768.9,316.5,782.7,283.3z M776.3,447.6c3.9,10.6,8.4,21.2,13,31.7c1.1,2.4,0,5.2-2.4,6.4
	c-13.5,6.8-25.1,15.8-35.9,26.1c-1.7,1.6-4.3,1.6-5.9,0c-6.4-6.3-13.6-12.2-21.9-17.2c-1.7-1.1-1.8-3.6-0.1-4.7
	c10.1-6.5,18.7-15.9,27-25.1c3.9-4.3,7.5-8.3,11.2-11.9c2.6-2.5,5.5-4.9,8.6-7.3C772.2,444,775.4,445,776.3,447.6z M751.1,523.7
	c1.9,2.1,3.7,4.2,5.5,6.2c7.3,8.4,16.3,17.4,26.7,26.8c1.5,1.4,0.6,3.8-1.4,3.9c-0.2,0-0.4,0-0.7,0c-4.3,0-8.7-0.1-13.1-0.3
	c-15.4-0.8-31-3.2-46.5-6.9c-1.3-0.3-1.8-1.9-0.9-2.9c1-1.2,2-2.3,3.1-3.5c7-8.1,13.9-16,21-23.4
	C746.6,521.9,749.5,521.9,751.1,523.7z M759.1,527.2c-1.7-2-3.4-3.9-5.2-5.9c-2-2.2-1.9-5.7,0.3-7.7c10.2-9.6,21.1-18,33.7-24.4
	c2.5-1.3,5.6-0.1,6.8,2.5c0.5,1.1,1,2.2,1.5,3.4c4.3,9.6,8.5,19.2,12.6,28.8c2.4,5.8,1.8,12.3-1.7,17.5c-2.3,3.4-4.7,6.8-7.3,10.1
	c-1.3,1.8-2.9,3.3-4.6,4.6c-2.2,1.7-5.4,1.6-7.5-0.3C776.6,545.7,766.8,536.1,759.1,527.2z M805.5,565.3c4-0.4,8-1,12-1.6
	c3.2-0.5,6.3,1.5,7.2,4.6c1.5,5.3,2.7,10.6,3.7,15.9c0.4,1.9-1.9,3.3-3.4,2.1c-7.1-5.5-14.1-11-20.8-16.6
	C802.4,568.3,803.3,565.5,805.5,565.3z M984.5,430.9c-3.4,0.5-6.7,1.1-10.1,2.1c-5.4,1.5-10.7,3.5-15.7,5.3
	c-8.4,3.1-16.3,6.1-25.1,7.2c-7.2,0.9-14.6,0.6-21.9,0.4c-2.7-0.1-5.4-0.2-8.2-0.2c-4,0-7.7-2-10.1-5.2
	c-6.4-8.6-14.7-14.9-24.7-18.9c-1.6-0.6-1.9-2.7-0.6-3.8c30.9-25.3,65-41.3,98.2-56.9c10-4.7,19.5-9.2,28.9-13.9
	c1.4-0.7,3.1-0.4,4.2,0.8c0.9,0.9,1.9,1.7,3,2.3c1.3,0.8,2,2.2,1.8,3.7c-0.9,5.4-1.8,10.8-2.8,16c-1.2,6.7-2.5,13.7-3.5,20.5
	c-0.8,4.8-1.3,10-1.8,15c-0.6,5.4-1.2,10.9-2,16.2C993.4,426.4,989.4,430.2,984.5,430.9z M992,448.3c1-1.9,2.2-4.3,2.9-5.9
	c1.5-3.7,5.3-6.1,9.3-5.8c5.4,0.4,10.8,1.2,16.2,2.2c1.9,0.3,3.2,2.1,3,4c-0.1,0.9-0.2,1.7-0.2,2.2c0,0,0,0,0,0.1
	c-0.3,3.2-3.1,5.7-6.4,5.4c-8.8-0.6-16.5-0.5-23.3,0.2C992.3,450.6,991.5,449.4,992,448.3z M1021.5,432.7c-5.4-1-10.9-1.8-16.4-2.2
	c-3.4-0.3-5.8-3.4-5.2-6.7c1-5.9,1.7-12,2.3-18c0.6-5.1,1.1-10,1.8-14.7c0.6-4,1.3-8,2-12c0.2-1.3,1.7-2.1,2.9-1.5
	c17.3,7.5,17.5,33.1,15.8,52.7C1024.5,431.8,1023.1,433,1021.5,432.7z M1043.8,435.4c0.9-7.8,1.7-16,2.4-24.6
	c1.6-17.9,3.3-36.5,7-52.7c1.8-7.8,5.4-15,9.8-21.6c8.6,0.7,17.1,2,25.3,4c15.3,3.6,29.1,9.3,40.9,16.8c2.2,1.4,2.6,4.4,1,6.3
	c-14.9,17.6-24.5,42.9-28.3,75.3c-0.3,2.3-2.2,4-4.5,3.9c-12.9-0.3-26.1-0.9-39.3-2.9c-4.2-0.7-8.4-1.5-12.7-2.3
	C1044.4,437.3,1043.7,436.4,1043.8,435.4z M1106,437.9c3.9-31.4,13.3-55.8,27.9-72.5c1.5-1.7,4.2-1.9,6-0.5c0.9,0.8,1.9,1.6,2.8,2.4
	c1.2,1.1,1.6,2.8,1,4.2c-0.8,1.8-1.3,3.8-1.3,5.9c0,2.5,0.7,4.9,1.8,7c0.7,1.3,0.6,2.8-0.2,3.9c-9.7,14.1-15.4,30.9-19.6,48
	c-1,4-4.7,6.9-8.8,6.8c-1.7,0-3.3,0-5-0.1h-0.1C1107.7,442.9,1105.7,440.6,1106,437.9z M1159.7,445.7c-6.6-0.9-13.4-1.5-20.1-1.9
	c-5.7-0.3-9.7-5.8-8.2-11.3c3.8-14.5,8.9-28.4,16.8-40.1c0.9-1.3,2.6-1.9,4.1-1.4c2.2,0.7,4.7,0.8,7.2,0.2c2.8-0.6,5.2-2.1,7.1-4.1
	c9.5,8.5,17.4,18.3,24.7,28.5c1.5,2.1,1.3,5-0.5,6.9c-5.8,6-11.3,13.4-16.7,21.8c-1.4,2.1-3.9,3.2-6.4,2.8
	C1165,446.6,1162.4,446.1,1159.7,445.7z M1178.6,444.9c4.5-6.8,9.1-13,13.8-18.1c2-2.2,5.5-1.9,7.2,0.5c0.4,0.6,0.9,1.2,1.3,1.9
	c6.3,9.3,13,19,20.6,28.1c4.6,5.5,10.4,10.4,16.6,15c1.4,1.1,1.1,3.4-0.6,4c-2.1,0.7-4.5,0.5-6.5-1c-7.2-5.1-14.6-9.9-22.3-14
	c-8.8-4.7-18.2-8.4-28.2-11.2C1178.3,449.4,1177.3,446.8,1178.6,444.9z M1224.5,454.8c-6.8-8.1-12.9-16.7-18.7-25.3l0,0
	c-1.2-1.7,0.6-4,2.6-3.2c3.8,1.4,7.3,2.8,10.6,4.1c11,4.1,20.2,7.6,29.6,9.6c-1.2,9.4-2.9,18.5-5.2,27.4c-0.4,1.6-2.3,2.2-3.6,1.2
	C1234,464.2,1228.6,459.8,1224.5,454.8z M1244.8,479.6L1244.8,479.6c0.4-1,1.5-1.3,2.3-0.7c9.9,7.2,19.1,14.3,24.1,23.1
	c0,0,0,0.1,0,0.1c1.1,1.8-1.2,3.8-2.9,2.5c-4.5-3.4-8.9-6.9-13.2-10.4c-2.7-2.1-5.4-4.3-8.1-6.4
	C1244.6,485.9,1243.7,482.5,1244.8,479.6z M1300,430c-19,7.1-33.2,8.7-45.9,6.9c2.4-22,2.3-44.8,2.1-67.2v-1.4
	c0-6.3,5.7-10.9,11.8-9.6c10.4,2.3,21.7,6.2,32,10.3c18.8,7.2,38.2,13,56.9,19.6c14.8,5.2,29.8,10.5,44.7,16c1.2,0.5,2.4,1,3.5,1.6
	c1.8,1,1.4,3.7-0.6,4.1c-12.1,2.4-24.2,4-36.1,5.4C1345.9,418.6,1322.1,421.8,1300,430z M1405.6,399.6
	c-15.6-5.8-31.3-11.3-46.8-16.8c-19.4-6.8-39.4-13.5-58.9-20.9c-11.6-4.4-24.3-7.9-35.9-10.2c-4.6-0.9-8-5-7.9-9.7
	c0-2.7,0.1-5.3,0.1-6.3c0.2-9.5,0.5-19,0.8-28.3c0.4-12.8,0.9-25.8,1-38.9c0-3.5,2.8-6.3,6.3-6.3h0.1c12.3,0,24.9-1.9,35.5-5.3
	c11-3.6,24.2-6.8,36.3-9.4c2-0.4,3.9,0.9,4.3,2.9c8.4,49.7,32.8,94.3,66.5,121.9c2.7,2.2,4.3,5.3,4.6,8.8c0.3,4.3,0.7,8.5,1.2,12.8
	C1413.3,397.9,1409.3,401.1,1405.6,399.6z M1411,364.7c0,2.3-2.7,3.6-4.4,2.1c-31.5-27.2-54.2-69.9-62.1-117.4
	c-0.3-1.9,0.9-3.7,2.8-4.1c3.8-0.8,7.6-1.5,11.4-2.2c7.1-1.4,14.1-2.7,20.8-4.1c1.9-0.4,3.9,0.8,4.3,2.7
	c7.3,30.1,14.8,56.2,27.4,74.6c2.3,3.3,3.2,7.4,2.6,11.4C1411.9,339.8,1411,352.2,1411,364.7z M1412.6,311.1
	c-11-17.7-17.9-42.1-24.7-70c-0.5-2,0.8-4.1,2.8-4.6c12.4-2.9,23.6-6.2,32.9-10.5c2.3-1.1,4.8-1.7,7.4-1.7c12.4-0.2,23.9-0.2,34,0.7
	c3.9,0.3,5.2,5.4,1.9,7.5c-18.4,12.1-31.7,28.2-40.1,48.4c-3.9,9.4-7,19.2-9.5,29.4C1416.7,312.6,1413.8,313.1,1412.6,311.1z
	 M1432.7,283.3c6.7-16,16.6-29.3,29.9-39.9c2-1.6,4.9-1,6.1,1.1c8.5,14,16.1,26.6,23,37.8c10.7,17.7,19.4,32.3,27,43.9
	c1.2,1.9,0.7,4.4-1.2,5.7c-28.4,18.4-57.1,40.1-89,67.2c-3.5,2.9-8.5,1-9.1-3.3C1414.3,356.2,1418.9,316.5,1432.7,283.3z
	 M1426.3,447.6c3.9,10.6,8.4,21.2,13,31.7c1.1,2.4,0,5.2-2.4,6.4c-13.5,6.8-25.1,15.8-35.9,26.1c-1.7,1.6-4.3,1.6-5.9,0
	c-6.4-6.3-13.6-12.2-21.9-17.2c-1.7-1.1-1.8-3.6-0.1-4.7c10.1-6.5,18.7-15.9,27-25.1c3.9-4.3,7.5-8.3,11.2-11.9
	c2.6-2.5,5.5-4.9,8.6-7.3C1422.2,444,1425.4,445,1426.3,447.6z M1401.1,523.7c1.9,2.1,3.7,4.2,5.5,6.2c7.3,8.4,16.3,17.4,26.7,26.8
	c1.5,1.4,0.6,3.8-1.4,3.9c-0.2,0-0.4,0-0.7,0c-4.3,0-8.7-0.1-13.1-0.3c-15.4-0.8-31-3.2-46.5-6.9c-1.3-0.3-1.8-1.9-0.9-2.9
	c1-1.2,2-2.3,3.1-3.5c7-8.1,13.9-16,21-23.4C1396.6,521.9,1399.5,521.9,1401.1,523.7z M1409.1,527.2c-1.7-2-3.4-3.9-5.2-5.9
	c-2-2.2-1.9-5.7,0.3-7.7c10.2-9.6,21.1-18,33.7-24.4c2.5-1.3,5.6-0.1,6.8,2.5c0.5,1.1,1,2.2,1.5,3.4c4.3,9.6,8.5,19.2,12.6,28.8
	c2.4,5.8,1.8,12.3-1.7,17.5c-2.3,3.4-4.7,6.8-7.3,10.1c-1.3,1.8-2.9,3.3-4.6,4.6c-2.2,1.7-5.4,1.6-7.5-0.3
	C1426.6,545.7,1416.8,536.1,1409.1,527.2z M1455.5,565.3c4-0.4,8-1,12-1.6c3.2-0.5,6.3,1.5,7.2,4.6c1.5,5.3,2.7,10.6,3.7,15.9
	c0.4,1.9-1.9,3.3-3.4,2.1c-7.1-5.5-14.1-11-20.8-16.6C1452.4,568.3,1453.3,565.5,1455.5,565.3z M1634.5,430.9
	c-3.4,0.5-6.7,1.1-10.1,2.1c-5.4,1.5-10.7,3.5-15.7,5.3c-8.4,3.1-16.3,6.1-25.1,7.2c-7.2,0.9-14.6,0.6-21.9,0.4
	c-2.7-0.1-5.4-0.2-8.2-0.2c-4,0-7.7-2-10.1-5.2c-6.4-8.6-14.7-14.9-24.7-18.9c-1.6-0.6-1.9-2.7-0.6-3.8c30.9-25.3,65-41.3,98.2-56.9
	c10-4.7,19.5-9.2,28.9-13.9c1.4-0.7,3.1-0.4,4.2,0.8c0.9,0.9,1.9,1.7,3,2.3c1.3,0.8,2,2.2,1.8,3.7c-0.9,5.4-1.8,10.8-2.8,16
	c-1.2,6.7-2.5,13.7-3.5,20.5c-0.8,4.8-1.3,10-1.8,15c-0.6,5.4-1.2,10.9-2,16.2C1643.4,426.4,1639.4,430.2,1634.5,430.9z M1642,448.3
	c1-1.9,2.2-4.3,2.9-5.9c1.5-3.7,5.3-6.1,9.3-5.8c5.4,0.4,10.8,1.2,16.2,2.2c1.9,0.3,3.2,2.1,3,4c-0.1,0.9-0.2,1.7-0.2,2.2
	c0,0,0,0,0,0.1c-0.3,3.2-3.1,5.7-6.4,5.4c-8.8-0.6-16.5-0.5-23.3,0.2C1642.3,450.6,1641.5,449.4,1642,448.3z M1671.5,432.7
	c-5.4-1-10.9-1.8-16.4-2.2c-3.4-0.3-5.8-3.4-5.2-6.7c1-5.9,1.7-12,2.3-18c0.6-5.1,1.1-10,1.8-14.7c0.6-4,1.3-8,2-12
	c0.2-1.3,1.7-2.1,2.9-1.5c17.3,7.5,17.5,33.1,15.8,52.7C1674.5,431.8,1673.1,433,1671.5,432.7z M1712.2,330.6
	c-12.4-0.9-25-0.4-37.2,1.3c-1.4,0.2-2.8-0.4-3.5-1.6c0,0,0,0,0,0c-0.8-1.2-0.5-2.9,0.8-3.6c7.4-4.3,14.8-8.8,22.1-13.2
	c15.8-9.5,31.9-19.1,48.1-28.1c1.3-0.7,2.8,0.2,2.9,1.7c0,1.9-0.3,3.9-1,6.1c-1.2,3.6-6.5,9.1-12.7,15.4
	C1725.6,314.7,1718.4,322.1,1712.2,330.6z M1655.3,237c3.7-5,6.4-10.4,7.9-16.3c0.4-1.4,2.3-1.7,3-0.5
	c12.7,21.1,33.5,32.2,50.8,41.2c11.3,5.9,19.8,10.7,24.4,16.1c1.2,1.4,0.8,3.5-0.8,4.4c-8.9,4.9-17.8,10.1-26.6,15.3
	c-2.9,1.7-6.5,1.3-8.9-1c-1.5-1.4-2.9-2.8-4.2-4.1c-10.3-10.2-19.4-19.3-36.1-20.9c-2.3-0.2-4.2-1.9-4.8-4.2
	c-1.9-7.7-4-15.1-6.2-22.3C1653.2,242.1,1653.6,239.2,1655.3,237z M1641.6,205c7.9,3.7,12.6,12.4,11.3,21.1
	c-0.4,2.5-3.9,2.9-4.8,0.5l0-0.1c-2.5-6.8-5.5-13.1-8.7-19.1C1638.6,205.9,1640.1,204.3,1641.6,205z M1628.9,203.5
	c2.2,0,4.3,1.1,5.4,3.1c4.3,8,8.2,16.3,11.3,25.4l0,0c1.1,3.2,0.3,6.8-2.2,9.1c-5.1,4.9-11.4,9.5-18.8,14.2c-3,1.9-5.8,4-8.4,6.1
	c-1.5,1.2-3.7,0.7-4.4-1.1c-6.6-16.4-16-32.2-28-47.4c-1.4-1.7-0.3-4.3,1.9-4.5h0C1599.9,207.1,1614.6,205.7,1628.9,203.5
	C1628.9,203.5,1628.9,203.5,1628.9,203.5z M1595.2,138.5c3,5.7,6,11.6,9,17.3c5.1,9.5,10.6,18.3,15.9,26.9c2.3,3.7,4.6,7.3,6.8,11
	c1.2,2.1,0.3,4.1-2.1,4.4c-13.5,2-27.3,3.2-40.8,4.5c-21.9,2-44.6,4.1-66.6,9.4h-0.1c-4.8,1.1-9.7-1.8-10.9-6.6
	c-1.8-7.1-3.2-14.4-4.4-21.8c-0.7-4.1,1.8-8.1,5.7-9.3c29.5-9.5,57.2-21.4,80.6-37.4C1590.7,135.3,1593.9,136.1,1595.2,138.5z
	 M1588.8,126.8c1.1,2.1,0.5,4.7-1.5,6c-22.3,15.6-48.9,27.3-77.3,36.6c-5,1.7-10.3-1.7-10.9-6.9c-0.2-1.2-0.3-2.5-0.5-3.7
	c-0.6-4.2-1.1-8.4-1.7-12.6c-0.6-4.2,2.1-8.2,6.2-9.3c24.3-6.3,47.9-14.9,67.9-31.5c2.3-1.9,5.8-1.2,7.2,1.4
	C1581.8,113.5,1585.4,120.1,1588.8,126.8z M1583.4,46.4c13.8-6.6,27.2-13.7,40.5-20.6c6.1-3.2,12.2-6.4,18.4-9.6
	c2.4-1.2,5.4,0,6.2,2.7c4.3,15,3.7,29.9,1.1,40.7c-2.7,11.2-17.9,21.2-33.9,30.4c-2.7,1.6-6.2,0.7-7.9-1.9
	c-7.9-12.1-16.9-24.1-25.8-36l0,0C1580.6,50.1,1581.2,47.4,1583.4,46.4z M1578.4,54.4c0.3,0.4,0.6,0.8,0.7,1
	c8.5,11.4,17.2,23.1,24.8,34.7c1.7,2.5,0.8,6-1.8,7.5l0,0c-4.5,2.5-8.9,5-12.8,7.4c-3.1,1.9-7.2,0.8-8.9-2.4
	c-7.6-13.9-15.4-27.7-23.8-40.6c-0.9-1.4-0.3-3.3,1.2-3.9c4.3-1.8,8.5-3.7,12.8-5.6C1573.3,51.2,1576.6,52,1578.4,54.4z M1534.5,28
	c4.7-2.8,9.5-5.7,14.3-8.7c1.3-0.8,3-0.4,3.8,0.9c3.5,5.8,8.1,11.7,13.1,17.8c0.9,1.2,1.9,2.4,2.9,3.6c1.5,1.9,0.8,4.7-1.4,5.7
	c-3.6,1.6-7.2,3.2-10.8,4.8c-2.9,1.2-6.3,0.2-8.1-2.3c-4.6-6.4-9.3-12.6-14.3-18.5C1533.1,30.2,1533.4,28.7,1534.5,28z M1483,53.4
	c13.3-5.3,26.5-11.6,40.2-19c3.3-1.8,7.4-1,9.8,1.8c4.4,5.3,8.6,10.9,12.7,16.7c1,1.4,0.4,3.4-1.2,4c-11.9,4.6-24,8.7-36.4,11.8
	c-3.8,1-7.7,1.9-11.6,2.8c-8,1.8-15.9-3.5-17.1-11.6l0-0.1C1478.9,57.1,1480.4,54.4,1483,53.4z M1417,79.9c0.1-1,0.3-2.1,0.4-3.1
	c0.4-2.5,2.2-4.5,4.7-5c16.5-3.5,31.6-7.8,45.8-12.7c0.1,0,0.2-0.1,0.3-0.1c2.4-0.8,4.9,0.7,5.3,3.2v0.1c1.2,7.7-4,14.9-11.7,16.1
	c-13.7,2.2-27.4,4-41.2,5.4C1418.5,83.9,1416.7,82.1,1417,79.9z M1415.7,96.1c0.1-3.4,2.7-6.2,6.1-6.5c14.2-1.5,28.4-3.3,42.5-5.7
	c7.3-1.2,14.3,3.5,16,10.6c0.9,3.5,1.7,7.1,2.6,10.6c0.8,3.3,1.6,6.6,2.4,9.8c1.1,4.3,2,8.8,2.8,13.2c0.8,4.5-2,8.8-6.4,9.8
	c-2.4,0.5-4.7,1.1-7.1,1.6c-17.1,3.9-34.7,7.8-51.1,13.7c-2.8,1-5.8-0.9-5.9-3.9c-0.2-3.8-0.4-7.6-0.6-11.4
	C1416.1,123.3,1415.4,108.4,1415.7,96.1z M1413.6,189c-0.3,2.8-2.3,5-5,5.5c-6.6,1.3-13.2,2.6-19.7,3.9c-2.1,0.4-4.2,0.8-6.3,1.2
	c-2.6,0.5-5.2-1.1-5.9-3.7c-7.8-31.4-17.7-64.7-33.7-96.4c-0.9-1.8,0.3-4,2.4-4.1c20.8-1.2,41.8-2.6,62.8-4.5c2-0.2,3.7,1.4,3.6,3.4
	c-0.4,12.8,0.4,28.5,1.2,43.7C1413.9,156.7,1415,176,1413.6,189z M1339.5,83.6c26.2-2.3,49.1-5.3,69.8-9.1c2.2-0.4,4.2,1.5,3.9,3.8
	c-0.2,1.2-0.3,2.4-0.5,3.6c-0.2,1.6-1.4,2.8-3,3c-23.3,2.2-46.7,3.6-69.8,5c-1.2,0.1-2.4-0.6-2.9-1.7l-0.1-0.1
	C1336.1,86,1337.4,83.8,1339.5,83.6z M1335.1,96.1c1.1-0.1,2.2,0.5,2.7,1.5c16.8,32.3,27.1,66.4,35.1,98.6c0.7,2.8-1.1,5.5-3.9,6.1
	c-2.4,0.5-4.8,1-7.2,1.5c-2.2,0.4-4.4-0.9-4.9-3.1c-8.1-34.8-22.6-72.9-35-100c-0.8-1.8,0.4-3.9,2.4-4c1.9-0.1,3.9-0.2,5.8-0.3
	C1331.8,96.2,1333.5,96.2,1335.1,96.1z M1191.6,59.4c2.7-3.6,5.7-6.9,9.1-10c28.5-25.7,74.5-25.1,99.3-22.4c16.1,1.8,20,15,24.3,33
	c1.7,7.3,3.6,15.3,6.7,23.2c1.3,3.4-1.1,7.1-4.8,7.3c-7.9,0.4-20,1.1-26.2,1.5c-23.4,1.5-47.8,3.5-71.5,6.8
	c-5.9,0.8-11.8-1.6-15.4-6.4c-1.2-1.7-2.4-3.3-3.3-4.3c-2.8-3.7-5.6-7.3-8.4-10.8c-3.3-4.2-6.6-8.5-9.9-12.7
	C1190.4,63.1,1190.4,60.9,1191.6,59.4z M1188.6,70.7c2.7,3.5,5.4,6.9,8,10.3c3.7,4.7,7.4,9.5,11.1,14.4c2.1,2.7,0.5,6.7-2.9,7.4
	c-8.4,1.6-16.7,3.4-25,5.5c-1.9,0.5-3.8-1-3.7-3c0.8-12.9,3.5-24.3,8.3-34.2C1185.3,69.5,1187.5,69.3,1188.6,70.7z M1138.5,66.6
	c11.1-5.8,20.6-13.2,26-24.5c0.8-1.7,3.2-1.9,4.2-0.2c4.1,6.9,8.6,13.5,13.3,19.9c1,1.4,1.1,3.2,0.4,4.7
	c-6.1,11.4-9.5,24.8-10.2,40.2c-0.1,2.2-1.6,4.1-3.8,4.8c-0.7,0.2-1.5,0.4-2.2,0.6c-1.9,0.6-3.9-0.3-4.8-2
	c-5.6-10.8-12-21.6-19.5-33.5c-1.4-2.2-2.8-4.2-4.2-6.2C1136.8,69.1,1137.2,67.3,1138.5,66.6z M1070.1,41.4
	c4.9-9,14.2-14.3,27.8-15.9c1.5-0.2,2.9,0.7,3.4,2.1c4.4,12.1,11.7,20.2,19.8,29.2c2.1,2.3,4.2,4.6,6.3,7.1c1.1,1.3,0.7,3.4-0.9,4
	c-4.5,1.9-9.1,3.7-13.7,5.5c-12.1,4.7-24.4,9.4-33.5,16.7c-1.6,1.2-3.9,0.8-4.8-1C1064.4,69.4,1064.9,51.4,1070.1,41.4z
	 M1073.5,139.2c-14.6-40.8,11-50.7,40.7-62.2c4.8-1.8,9.6-3.7,14.2-5.7c2.2-1,4.9-0.2,6.3,1.7c1.3,1.8,2.5,3.6,3.8,5.6
	c7.1,11.3,13.1,21.4,18.4,31.4c1.2,2.2,0.1,4.9-2.3,5.7c-23.8,8-47.1,18.8-69.5,33.6c-3.1,2.1-7.4,0.8-8.8-2.7
	C1075.3,144.1,1074.4,141.6,1073.5,139.2z M1018.5,196.9c2.1-2.9,5-5.2,8.4-6.6c12.2-5,24.4-11.4,37.1-19.4c3.2-2,6.7-3.6,10.4-4.5
	c3.3-0.9,6.8,0.5,8.5,3.6c7.9,14,18.6,26.9,33.5,33.3c4.4,1.9,8.5,3.5,12.6,5c17.7,6.9,32,12.3,42.9,31.7c1.4,2.5,0.1,5.7-2.6,6.5
	c-13.3,4.3-26.8,9.6-40.7,16c-9.3,4.3-18.6,9-27.9,14c-2,1.1-4.6,0.7-6-1.1c-5.5-6.6-15.3-11.8-25.8-17.3c-17.9-9.4-39.9-21-51.6-44
	C1014.4,208.4,1014.8,201.8,1018.5,196.9z M1005.3,237c3.7-5,6.4-10.4,7.9-16.3c0.4-1.4,2.3-1.7,3-0.5
	c12.7,21.1,33.5,32.2,50.8,41.2c11.3,5.9,19.8,10.7,24.4,16.1c1.2,1.4,0.8,3.5-0.8,4.4c-8.9,4.9-17.8,10.1-26.6,15.3
	c-2.9,1.7-6.5,1.3-8.9-1c-1.5-1.4-2.9-2.8-4.2-4.1c-10.3-10.2-19.4-19.3-36.1-20.9c-2.3-0.2-4.2-1.9-4.8-4.2
	c-1.9-7.7-4-15.1-6.2-22.3C1003.2,242.1,1003.6,239.2,1005.3,237z M991.6,205c7.9,3.7,12.6,12.4,11.3,21.1c-0.4,2.5-3.9,2.9-4.8,0.5
	l0-0.1c-2.5-6.8-5.5-13.1-8.7-19.1C988.6,205.9,990.1,204.3,991.6,205z M978.9,203.5c2.2,0,4.3,1.1,5.4,3.1
	c4.3,8,8.2,16.3,11.3,25.4l0,0c1.1,3.2,0.3,6.8-2.2,9.1c-5.1,4.9-11.4,9.5-18.8,14.2c-3,1.9-5.8,4-8.4,6.1c-1.5,1.2-3.7,0.7-4.4-1.1
	c-6.6-16.4-16-32.2-28-47.4c-1.4-1.7-0.3-4.3,1.9-4.5h0C949.9,207.1,964.6,205.7,978.9,203.5C978.9,203.5,978.9,203.5,978.9,203.5z
	 M945.2,138.5c3,5.7,6,11.6,9,17.3c5.1,9.5,10.6,18.3,15.9,26.9c2.3,3.7,4.6,7.3,6.8,11c1.2,2.1,0.3,4.1-2.1,4.4
	c-13.5,2-27.3,3.2-40.8,4.5c-21.9,2-44.6,4.1-66.6,9.4h-0.1c-4.8,1.1-9.7-1.8-10.9-6.6c-1.8-7.1-3.2-14.4-4.4-21.8
	c-0.7-4.1,1.8-8.1,5.7-9.3c29.5-9.5,57.2-21.4,80.6-37.4C940.7,135.3,943.9,136.1,945.2,138.5z M938.8,126.8c1.1,2.1,0.5,4.7-1.5,6
	c-22.3,15.6-48.9,27.3-77.3,36.6c-5,1.7-10.3-1.7-10.9-6.9c-0.2-1.2-0.3-2.5-0.5-3.7c-0.6-4.2-1.1-8.4-1.7-12.6
	c-0.6-4.2,2.1-8.2,6.2-9.3c24.3-6.3,47.9-14.9,67.9-31.5c2.3-1.9,5.8-1.2,7.2,1.4C931.8,113.5,935.4,120.1,938.8,126.8z M933.4,46.4
	c13.8-6.6,27.2-13.7,40.5-20.6c6.1-3.2,12.2-6.4,18.4-9.6c2.4-1.2,5.4,0,6.2,2.7c4.3,15,3.7,29.9,1.1,40.7
	c-2.7,11.2-17.9,21.2-33.9,30.4c-2.7,1.6-6.2,0.7-7.9-1.9C949.9,76,940.9,63.9,932,52l0,0C930.6,50.1,931.2,47.4,933.4,46.4z
	 M928.4,54.4c0.3,0.4,0.6,0.8,0.7,1c8.5,11.4,17.2,23.1,24.8,34.7c1.7,2.5,0.8,6-1.8,7.5l0,0c-4.5,2.5-8.9,5-12.8,7.4
	c-3.1,1.9-7.2,0.8-8.9-2.4c-7.6-13.9-15.4-27.7-23.8-40.6c-0.9-1.4-0.3-3.3,1.2-3.9c4.3-1.8,8.5-3.7,12.8-5.6
	C923.3,51.2,926.6,52,928.4,54.4z M884.5,28c4.7-2.8,9.5-5.7,14.3-8.7c1.3-0.8,3-0.4,3.8,0.9c3.5,5.8,8.1,11.7,13.1,17.8
	c0.9,1.2,1.9,2.4,2.9,3.6c1.5,1.9,0.8,4.7-1.4,5.7c-3.6,1.6-7.2,3.2-10.8,4.8c-2.9,1.2-6.3,0.2-8.1-2.3c-4.6-6.4-9.3-12.6-14.3-18.5
	C883.1,30.2,883.4,28.7,884.5,28z M833,53.4c13.3-5.3,26.5-11.6,40.2-19c3.3-1.8,7.4-1,9.8,1.8c4.4,5.3,8.6,10.9,12.7,16.7
	c1,1.4,0.4,3.4-1.2,4c-11.9,4.6-24,8.7-36.4,11.8c-3.8,1-7.7,1.9-11.6,2.8c-8,1.8-15.9-3.5-17.1-11.6l0-0.1
	C828.9,57.1,830.4,54.4,833,53.4z M767,79.9c0.1-1,0.3-2.1,0.4-3.1c0.4-2.5,2.2-4.5,4.7-5c16.5-3.5,31.6-7.8,45.8-12.7
	c0.1,0,0.2-0.1,0.3-0.1c2.4-0.8,4.9,0.7,5.3,3.2v0.1c1.2,7.7-4,14.9-11.7,16.1c-13.7,2.2-27.4,4-41.2,5.4
	C768.5,83.9,766.7,82.1,767,79.9z M765.7,96.1c0.1-3.4,2.7-6.2,6.1-6.5c14.2-1.5,28.4-3.3,42.5-5.7c7.3-1.2,14.3,3.5,16,10.6
	c0.9,3.5,1.7,7.1,2.6,10.6c0.8,3.3,1.6,6.6,2.4,9.8c1.1,4.3,2,8.8,2.8,13.2c0.8,4.5-2,8.8-6.4,9.8c-2.4,0.5-4.7,1.1-7.1,1.6
	c-17.1,3.9-34.7,7.8-51.1,13.7c-2.8,1-5.8-0.9-5.9-3.9c-0.2-3.8-0.4-7.6-0.6-11.4C766.1,123.3,765.4,108.4,765.7,96.1z M763.6,189
	c-0.3,2.8-2.3,5-5,5.5c-6.6,1.3-13.2,2.6-19.7,3.9c-2.1,0.4-4.2,0.8-6.3,1.2c-2.6,0.5-5.2-1.1-5.9-3.7
	c-7.8-31.4-17.7-64.7-33.7-96.4c-0.9-1.8,0.3-4,2.4-4.1c20.8-1.2,41.8-2.6,62.8-4.5c2-0.2,3.7,1.4,3.6,3.4
	c-0.4,12.8,0.4,28.5,1.2,43.7C763.9,156.7,765,176,763.6,189z M689.5,83.6c26.2-2.3,49.1-5.3,69.8-9.1c2.2-0.4,4.2,1.5,3.9,3.8
	c-0.2,1.2-0.3,2.4-0.5,3.6c-0.2,1.6-1.4,2.8-3,3c-23.3,2.2-46.7,3.6-69.8,5c-1.2,0.1-2.4-0.6-2.9-1.7l-0.1-0.1
	C686.1,86,687.4,83.8,689.5,83.6z M685.1,96.1c1.1-0.1,2.2,0.5,2.7,1.5c16.8,32.3,27.1,66.4,35.1,98.6c0.7,2.8-1.1,5.5-3.9,6.1
	c-2.4,0.5-4.8,1-7.2,1.5c-2.2,0.4-4.4-0.9-4.9-3.1c-8.1-34.8-22.6-72.9-35-100c-0.8-1.8,0.4-3.9,2.4-4c1.9-0.1,3.9-0.2,5.8-0.3
	C681.8,96.2,683.5,96.2,685.1,96.1z M541.6,59.4c2.7-3.6,5.7-6.9,9.1-10C579.1,23.7,625.2,24.3,650,27c16.1,1.8,20,15,24.3,33
	c1.7,7.3,3.6,15.3,6.7,23.2c1.3,3.4-1.1,7.1-4.8,7.3c-7.9,0.4-20,1.1-26.2,1.5c-23.4,1.5-47.8,3.5-71.5,6.8
	c-5.9,0.8-11.8-1.6-15.4-6.4c-1.2-1.7-2.4-3.3-3.3-4.3c-2.8-3.7-5.6-7.3-8.4-10.8c-3.3-4.2-6.6-8.5-9.9-12.7
	C540.4,63.1,540.4,60.9,541.6,59.4z M538.6,70.7c2.7,3.5,5.4,6.9,8,10.3c3.7,4.7,7.4,9.5,11.1,14.4c2.1,2.7,0.5,6.7-2.9,7.4
	c-8.4,1.6-16.7,3.4-25,5.5c-1.9,0.5-3.8-1-3.7-3c0.8-12.9,3.5-24.3,8.3-34.2C535.3,69.5,537.5,69.3,538.6,70.7z M488.5,66.6
	c11.1-5.8,20.6-13.2,26-24.5c0.8-1.7,3.2-1.9,4.2-0.2c4.1,6.9,8.6,13.5,13.3,19.9c1,1.4,1.1,3.2,0.4,4.7
	c-6.1,11.4-9.5,24.8-10.2,40.2c-0.1,2.2-1.6,4.1-3.8,4.8c-0.7,0.2-1.5,0.4-2.2,0.6c-1.9,0.6-3.9-0.3-4.8-2
	c-5.6-10.8-12-21.6-19.5-33.5c-1.4-2.2-2.8-4.2-4.2-6.2C486.8,69.1,487.2,67.3,488.5,66.6z M420.1,41.4c4.9-9,14.2-14.3,27.8-15.9
	c1.5-0.2,2.9,0.7,3.4,2.1c4.4,12.1,11.7,20.2,19.8,29.2c2.1,2.3,4.2,4.6,6.3,7.1c1.1,1.3,0.7,3.4-0.9,4c-4.5,1.9-9.1,3.7-13.7,5.5
	c-12.1,4.7-24.4,9.4-33.5,16.7c-1.6,1.2-3.9,0.8-4.8-1C414.4,69.4,414.9,51.4,420.1,41.4z M423.5,139.2
	c-14.6-40.8,11-50.7,40.7-62.2c4.8-1.8,9.6-3.7,14.2-5.7c2.2-1,4.9-0.2,6.3,1.7c1.3,1.8,2.5,3.6,3.8,5.6
	c7.1,11.3,13.1,21.4,18.4,31.4c1.2,2.2,0.1,4.9-2.3,5.7c-23.8,8-47.1,18.8-69.5,33.6c-3.1,2.1-7.4,0.8-8.8-2.7
	C425.3,144.1,424.4,141.6,423.5,139.2z M368.5,196.9c2.1-2.9,5-5.2,8.4-6.6c12.2-5,24.4-11.4,37.1-19.4c3.2-2,6.7-3.6,10.4-4.5
	c3.3-0.9,6.8,0.5,8.5,3.6c7.9,14,18.6,26.9,33.5,33.3c4.4,1.9,8.5,3.5,12.6,5c17.7,6.9,32,12.3,42.9,31.7c1.4,2.5,0.1,5.7-2.6,6.5
	c-13.3,4.3-26.8,9.6-40.7,16c-9.3,4.3-18.6,9-27.9,14c-2,1.1-4.6,0.7-6-1.1c-5.5-6.6-15.3-11.8-25.8-17.3c-17.9-9.4-39.9-21-51.6-44
	C364.4,208.4,364.8,201.8,368.5,196.9z M355.3,237c3.7-5,6.4-10.4,7.9-16.3c0.4-1.4,2.3-1.7,3-0.5c12.7,21.1,33.5,32.2,50.8,41.2
	c11.3,5.9,19.8,10.7,24.4,16.1c1.2,1.4,0.8,3.5-0.8,4.4c-8.9,4.9-17.8,10.1-26.6,15.3c-2.9,1.7-6.5,1.3-8.9-1
	c-1.5-1.4-2.9-2.8-4.2-4.1c-10.3-10.2-19.4-19.3-36.1-20.9c-2.3-0.2-4.2-1.9-4.8-4.2c-1.9-7.7-4-15.1-6.2-22.3
	C353.2,242.1,353.6,239.2,355.3,237z M341.6,205c7.9,3.7,12.6,12.4,11.3,21.1c-0.4,2.5-3.9,2.9-4.8,0.5l0-0.1
	c-2.5-6.8-5.5-13.1-8.7-19.1C338.6,205.9,340.1,204.3,341.6,205z M328.9,203.5c2.2,0,4.3,1.1,5.4,3.1c4.3,8,8.2,16.3,11.3,25.4l0,0
	c1.1,3.2,0.3,6.8-2.2,9.1c-5.1,4.9-11.4,9.5-18.8,14.2c-3,1.9-5.8,4-8.4,6.1c-1.5,1.2-3.7,0.7-4.4-1.1c-6.6-16.4-16-32.2-28-47.4
	c-1.4-1.7-0.3-4.3,1.9-4.5h0C299.9,207.1,314.6,205.7,328.9,203.5C328.9,203.5,328.9,203.5,328.9,203.5z M295.2,138.5
	c3,5.7,6,11.6,9,17.3c5.1,9.5,10.6,18.3,15.9,26.9c2.3,3.7,4.6,7.3,6.8,11c1.2,2.1,0.3,4.1-2.1,4.4c-13.5,2-27.3,3.2-40.8,4.5
	c-21.9,2-44.6,4.1-66.6,9.4h-0.1c-4.8,1.1-9.7-1.8-10.9-6.6c-1.8-7.1-3.2-14.4-4.4-21.8c-0.7-4.1,1.8-8.1,5.7-9.3
	c29.5-9.5,57.2-21.4,80.6-37.4C290.7,135.3,293.9,136.1,295.2,138.5z M288.8,126.8c1.1,2.1,0.5,4.7-1.5,6
	c-22.3,15.6-48.9,27.3-77.3,36.6c-5,1.7-10.3-1.7-10.9-6.9c-0.2-1.2-0.3-2.5-0.5-3.7c-0.6-4.2-1.1-8.4-1.7-12.6
	c-0.6-4.2,2.1-8.2,6.2-9.3c24.3-6.3,47.9-14.9,67.9-31.5c2.3-1.9,5.8-1.2,7.2,1.4C281.8,113.5,285.4,120.1,288.8,126.8z
	 M118.2,163.8c-0.1-2.5,1.5-4.8,3.8-5.7c17-6.5,35.5-10.6,53.5-14.6c1.8-0.4,3.7-0.8,5.6-1.2c4.8-1.1,9.5,2.2,10.2,7.1
	c0.5,3.4,0.9,6.8,1.3,10.2c0.3,2.6,0.7,5.1,1,7.7c0.6,4.2-2,8.1-6.1,9.2c-21.6,6.1-43.8,11.1-65.7,15.6c-2.2,0.5-4.3-1.4-4.1-3.7
	C118.3,181.3,118.4,172.9,118.2,163.8z M193.6,125.9c-1-5.3-2.2-10.6-3.6-15.8c-0.3-1.4-0.7-2.9-1-4.3c-0.8-3.6-1.8-7.2-2.6-11
	c-1.9-7.7,2.9-15.4,10.6-17.1c4.1-0.9,8.2-1.9,12.3-3c12.5-3.2,24.8-7.2,36.7-11.9c3-1.2,6.4,0,8.1,2.7c5.7,8.8,11.1,18,16.4,27.4
	c1.7,3.1,1,6.9-1.7,9.2c-19,15.7-41.5,24.1-64.6,30.3C199.3,133.7,194.5,130.7,193.6,125.9z M283.4,46.4
	c13.8-6.6,27.2-13.7,40.5-20.6c6.1-3.2,12.2-6.4,18.4-9.6c2.4-1.2,5.4,0,6.2,2.7c4.3,15,3.7,29.9,1.1,40.7
	c-2.7,11.2-17.9,21.2-33.9,30.4c-2.7,1.6-6.2,0.7-7.9-1.9C299.9,76,290.9,63.9,282,52l0,0C280.6,50.1,281.2,47.4,283.4,46.4z
	 M278.4,54.4c0.3,0.4,0.6,0.8,0.7,1c8.5,11.4,17.2,23.1,24.8,34.7c1.7,2.5,0.8,6-1.8,7.5l0,0c-4.5,2.5-8.9,5-12.8,7.4
	c-3.1,1.9-7.2,0.8-8.9-2.4c-7.6-13.9-15.4-27.7-23.8-40.6c-0.9-1.4-0.3-3.3,1.2-3.9c4.3-1.8,8.5-3.7,12.8-5.6
	C273.3,51.2,276.6,52,278.4,54.4z M234.5,28c4.7-2.8,9.5-5.7,14.3-8.7c1.3-0.8,3-0.4,3.8,0.9c3.5,5.8,8.1,11.7,13.1,17.8
	c0.9,1.2,1.9,2.4,2.9,3.6c1.5,1.9,0.8,4.7-1.4,5.7c-3.6,1.6-7.2,3.2-10.8,4.8c-2.9,1.2-6.3,0.2-8.1-2.3c-4.6-6.4-9.3-12.6-14.3-18.5
	C233.1,30.2,233.4,28.7,234.5,28z M183,53.4c13.3-5.3,26.5-11.6,40.2-19c3.3-1.8,7.4-1,9.8,1.8c4.4,5.3,8.6,10.9,12.7,16.7
	c1,1.4,0.4,3.4-1.2,4c-11.9,4.6-24,8.7-36.4,11.8c-3.8,1-7.7,1.9-11.6,2.8c-8,1.8-15.9-3.5-17.1-11.6l0-0.1
	C178.9,57.1,180.4,54.4,183,53.4z M117,79.9c0.1-1,0.3-2.1,0.4-3.1c0.4-2.5,2.2-4.5,4.7-5c16.5-3.5,31.6-7.8,45.8-12.7
	c0.1,0,0.2-0.1,0.3-0.1c2.4-0.8,4.9,0.7,5.3,3.2v0.1c1.2,7.7-4,14.9-11.7,16.1c-13.7,2.2-27.4,4-41.2,5.4
	C118.5,83.9,116.7,82.1,117,79.9z M115.7,96.1c0.1-3.4,2.7-6.2,6.1-6.5c14.2-1.5,28.4-3.3,42.5-5.7c7.3-1.2,14.3,3.5,16,10.6
	c0.9,3.5,1.7,7.1,2.6,10.6c0.8,3.3,1.6,6.6,2.4,9.8c1.1,4.3,2,8.8,2.8,13.2c0.8,4.5-2,8.8-6.4,9.8c-2.4,0.5-4.7,1.1-7.1,1.6
	c-17.1,3.9-34.7,7.8-51.1,13.7c-2.8,1-5.8-0.9-5.9-3.9c-0.2-3.8-0.4-7.6-0.6-11.4C116.1,123.3,115.4,108.4,115.7,96.1z M39.5,83.6
	c26.2-2.3,49.1-5.3,69.8-9.1c2.2-0.4,4.2,1.5,3.9,3.8c-0.2,1.2-0.3,2.4-0.5,3.6c-0.2,1.6-1.4,2.8-3,3c-23.3,2.2-46.7,3.6-69.8,5
	c-1.2,0.1-2.4-0.6-2.9-1.7L37,87.9C36.1,86,37.4,83.8,39.5,83.6z M57,200.6c-8.1-34.8-22.6-72.9-35-100c-0.8-1.8,0.4-3.9,2.4-4
	c1.9-0.1,3.9-0.2,5.8-0.3c1.6-0.1,3.3-0.2,4.9-0.3c1.1-0.1,2.2,0.5,2.7,1.5c16.8,32.3,27.1,66.4,35.1,98.6c0.7,2.8-1.1,5.5-3.9,6.1
	c-2.4,0.5-4.8,1-7.2,1.5C59.6,204.2,57.5,202.8,57,200.6z M74.7,217.7c-3.6-0.3-7.2-0.6-10.8-1c-2.3-0.3-4.1-1.9-4.6-4.2
	c0,0,0-0.1,0-0.1c-0.4-2.2,1-4.4,3.2-4.8c2.5-0.5,5.1-1,7.6-1.5c2.7-0.5,5.3,1.2,6,3.8c0.4,1.6,0.8,3.2,1.1,4.8
	C77.7,216.2,76.4,217.8,74.7,217.7z M76.7,196C68.9,164.6,59,131.3,43,99.6c-0.9-1.8,0.3-4,2.4-4.1c20.8-1.2,41.8-2.6,62.8-4.5
	c2-0.2,3.7,1.4,3.6,3.4c-0.4,12.8,0.4,28.5,1.2,43.7c0.9,18.6,1.9,37.9,0.5,50.9c-0.3,2.8-2.3,5-5,5.5c-6.6,1.3-13.2,2.6-19.7,3.9
	c-2.1,0.4-4.2,0.8-6.3,1.2C79.9,200.3,77.4,198.6,76.7,196z M81.1,212.8c-0.3-1.1-0.5-2.2-0.8-3.3c-0.7-2.8,1.1-5.6,3.9-6.1
	c1.9-0.4,3.7-0.7,5.6-1.1c31.3-6.2,64.4-12.7,96.3-21.5c4.8-1.3,9.7,1.8,10.5,6.7c0.9,5.3,2,10.6,3.2,15.9c1.6,6.9-2.1,14-8.7,16.7
	l-0.2,0.1c-3.7,1.5-7.7,1.8-11.6,1c-14.9-3.1-33.3-2.9-54.2-2.6c-12,0.2-24.6,0.4-37.3-0.1C84.6,218.3,81.9,216,81.1,212.8z
	 M111,364.7c0,2.3-2.7,3.6-4.4,2.1c-31.5-27.2-54.2-69.9-62.1-117.4c-0.3-1.9,0.9-3.7,2.8-4.1c3.8-0.8,7.6-1.5,11.4-2.2
	c7.1-1.4,14.1-2.7,20.8-4.1c1.9-0.4,3.9,0.8,4.3,2.7c7.3,30.1,14.8,56.2,27.4,74.6c2.3,3.3,3.2,7.4,2.6,11.4
	C111.9,339.8,111,352.2,111,364.7z M58.2,558.6L58.2,558.6c-6.9,7.8-14.1,15.3-21.8,22.3c-1.3,1.1-3.3,0.6-3.9-1
	c-2.9-8-4.2-18.8-4.7-30.9c-0.1-1.8,1.7-3,3.3-2.3c8.7,3.5,17.5,6.5,26.3,9.1C58.6,556.2,59.1,557.7,58.2,558.6z M61.9,546.5
	L61.9,546.5c-0.1,2.2-2.2,3.8-4.3,3.2c-8.9-2.7-17.8-5.8-26.5-9.4c-2.2-0.9-3.6-3-3.6-5.4c0-7.2,0.1-14.8,0.2-22.4
	c0.1-3.7,0.1-7.5,0.2-11.3c0-2.4,2.1-4.4,4.5-4.3c9.7,0.4,18.6,0.5,25.7-0.8c1.8-0.3,3.5,1,3.5,2.8v0
	C62.1,510.5,62.6,526.6,61.9,546.5z M63.4,490.7c-6.9,3-18.4,2.9-31,2.4c-2.3-0.1-4.1-2-4.1-4.3c0-20.8-1-41.2-5.6-58.6
	c-0.4-1.4,0.5-2.8,1.9-3.1c14.8-3.4,29.7-5.4,44.5-7.3c12.9-1.7,26.1-3.4,39.2-6.1c3.2-0.7,6.5,0.9,8,3.8c0.9,1.8,1.7,3.7,2.2,5.7
	v0.1c0.9,3.3,1.9,6.6,2.9,9.9c1,3.2-0.1,6.7-2.9,8.7c-3.6,2.7-6.9,5.4-9.8,8.2c-3.8,3.7-7.5,7.8-11.4,12.1
	C87,473.4,76.5,485.1,63.4,490.7z M66.1,542.8c0.5-17.9,0-32.6-0.4-43.4v0c-0.1-2,2.1-3.3,3.8-2.3c8.1,4.8,15.2,10.4,21.6,16.5
	c2.2,2.1,2.3,5.6,0.2,7.8c-7,7.4-13.7,15.1-20.6,23.1l0,0.1C69.1,546.4,66.1,545.2,66.1,542.8z M118.1,606.1
	c-3.2,7.2-6.1,14.4-8.6,21.5c-0.8,2.2-3.6,2.6-5,0.7c-4-5.7-7.9-11.7-11.6-17.8c-1.1-1.7-0.1-3.9,1.8-4.4c0,0,0,0,0,0
	c7.1-1.7,13.9-3.3,20.4-4C117.4,601.9,119,604.1,118.1,606.1z M117.5,598c-7.6,0.5-15.4,2.4-23.6,4.4c-0.3,0.1-0.6,0.1-0.9,0.2
	c-2.6,0.6-5.3-0.6-6.7-2.9c-7.2-12.6-13.8-25.6-19.3-38.2c-0.6-1.3,0.6-2.7,2-2.4c16.2,4,32.6,6.5,48.8,7.4
	c6.8,0.4,13.5,0.5,20.1,0.2c1,0,1.9,0.5,1.2,1.6c-5.6,8.5-10.5,17-14.9,25.4C123,596.1,120.4,597.8,117.5,598z M180.3,628.4
	c-0.2,1.9-2.6,2.8-4,1.4c-1-1-2.1-2-3.1-3c-7.1-6.7-14.4-13.7-24.4-20.6c-6-4.1-11.8-6.4-17.6-7.6c-2.2-0.4-3.3-2.8-2.3-4.7
	c4-7.5,8.4-15.1,13.4-22.8c1.5-2.3,4.6-2.8,6.7-1.1c8.4,7.1,17.4,14.1,26.5,21.1c3,2.3,4.9,5.7,5.2,9.4
	C181.5,610,181.5,619.2,180.3,628.4z M245.9,627.1c0,3.5-3.9,5.7-6.9,3.8c-15.3-9.6-31.9-20.9-48.2-32.8c-2.9-2.1-4.8-5.3-5.4-8.9
	c-1.1-7.2-2.7-14.3-4.6-21.5c-0.3-1.1,0.5-1.7,1.8-0.9c11.1,6.9,22.3,13.9,33.2,20.7c8.4,5.2,16.7,10.4,24.8,15.4
	c3.3,2.1,5.3,5.7,5.3,9.6V627.1z M303.5,616.9c-1.8,2.6-3.8,5.2-5.8,7.7c-2.7,3.4-7.5,4.2-11.2,1.9c-20.2-12.2-43.8-26.9-68.6-42.4
	c-10.9-6.8-22-13.8-33.1-20.6c-1.5-0.9-1.2-3.2,0.5-3.6h0c10.9-2.8,21.5-6.4,31.6-10.7c2.5-1.1,5.3-0.6,7.3,1.2
	c10.5,9.2,22.4,16.2,33.9,23c10.6,6.2,21.5,12.7,31.5,20.9c4.4,3.6,8.5,7.1,12.4,10.5C305.5,607.9,306.1,613.1,303.5,616.9z
	 M304.8,601.9c-3.9-3.4-8-6.9-12.4-10.6c-10.2-8.4-21.3-15-32-21.3c-1-0.6-2.1-1.2-3.1-1.8c-1.2-0.7-1.4-2.3-0.5-3.3
	c8.5-9.9,14-25.9,15.1-43.6c0.2-3.1,2.4-5.7,5.4-6.3c4.6-0.9,9.5,0.3,13.2,3.5c6,5.2,12,10.4,18.3,15.4c5.3,4.2,11,7.5,17,10.1
	c2,0.9,3.2,2.9,3.1,5c-1.2,17.1-6.6,34.8-15.1,51.2C312,603.6,307.6,604.4,304.8,601.9z M369.4,557.7c-4.3,6.6-8.6,15.1-11.2,28.8
	c-2.3,11.4-12.7,26.1-25.9,36.7c-2.2,1.7-5.3,1.4-7.1-0.7c-2.4-2.8-4.8-5.5-7.4-8.2c-2.8-2.9-3.3-7.2-1.5-10.7
	c9.3-17.3,15.2-36.4,16.4-54.6c0.1-1.2,1.2-2,2.4-1.6c10.1,3,20.8,4.4,31.6,5C369.4,552.7,370.8,555.6,369.4,557.7z M379.6,542.7
	c-1.5,2.8-4.4,4.4-7.6,4.3c-21.5-0.7-42.8-4.4-59.2-17.4c-7.5-6-14.8-12.3-21.9-18.6c-2.3-2-2.2-5.7,0.2-7.6
	c1.1-0.9,2.2-1.8,3.3-2.7c17.7-14.4,31.5-28.5,41.1-42c1.8-2.6,4.6-4.2,7.7-4.6c6.8-0.7,14.6-0.8,23.7-0.1c3,0.2,5.4,2.6,5.6,5.6
	c0.8,13.1,4.2,24.5,7.3,35c2.7,9.2,5.1,17.1,5,24.1C384.9,530,382.8,536.9,379.6,542.7z M438.9,542.8c-0.4,1.5-1.7,2.7-3.3,2.8
	c-12.4,0.7-23.3,1-31.8,1.2l-3.4,0.1c-4.1,0.1-8.3,0.2-12.5,0.3c-2.5,0-4.2-2.6-3.1-4.8c2.8-5.7,4.7-12.8,4.8-23.4
	c-0.3-7.7-2.8-15.9-5.6-25.4c-4.1-13.9-8.8-29.7-6.8-48.5c0-0.4,0.1-1.2,0.2-2.1c0.2-1.6,1.7-2.7,3.2-2.4c1.6,0.3,3.2,0.7,4.8,1
	c7.1,1.5,14.4,3,21.6,4.1c18.1,2.7,36,3,53.3,3.2h0.1c5.6,0.1,9.8,5.2,8.7,10.7c-0.2,0.8-0.3,1.7-0.5,2.5
	c-1.4,7.1-2.8,13.9-4.3,20.5c-3.3,14.1-6.8,28.4-10.2,42.3c-0.2,0.9-0.8,3.2-1.2,5c-0.3,1.4-1.5,2.4-2.9,2.7
	C444.7,533.6,440.3,537.6,438.9,542.8z M444.4,546.5c0-4.5,3.6-8.1,8.1-8.1s8.1,3.6,8.1,8.1c0,4.4-3.6,8.1-8.1,8.1
	S444.4,551,444.4,546.5z M486.2,606.6c-12.1-6-24.4-13-36.7-20.8c-2.1-1.3-3.1-3.8-2.6-6.2c0.5-2.1,0.9-4.2,1.3-6.3
	c0.5-2.5,1.6-7.3,2.3-10.4c0.3-1.5,1.6-2.6,3.1-2.8h0.3c1.6-0.2,3-0.7,4.4-1.3c1.3-0.6,2.8-0.5,3.9,0.4c1.4,1.1,3,2.5,3.5,3
	c11.1,10.6,18.5,25.5,24,41.2C490.5,605.6,488.2,607.6,486.2,606.6z M531.4,589.7c-0.4,9.4-1,18.9-0.2,29.5c0.1,2-1.7,3.6-3.7,3.1
	c-7.7-2-15.4-4.6-23.1-7.7c-3.5-1.4-6.1-4.3-7.2-7.9c-6.3-20-15.6-39.4-30.8-52c-1.2-1-1.6-2.6-1.1-4c0.4-1.3,1.6-2.2,2.9-2.3
	c15.4-1.8,31.3-4.5,46.3-8.6c3.7-1,7.3-2.1,10.8-3.3c2.4-0.8,4.9,0.8,5.2,3.3c0.9,8.8,1.5,18.7,1.7,30
	C532.1,576.6,531.8,583.2,531.4,589.7z M532.2,523.1c-3.1-15.9-8.4-31.2-17.7-45.1l0,0c-1.8-2.7-1.9-6.3-0.3-9.1
	c2.1-3.6,4.1-7.2,6.1-10.6c1.4-2.4,4.3-3.6,7-2.9c9.6,2.5,19.1,6.1,28.6,11.2c8.6,4.6,16.7,10,24.6,15.7c3.1,2.3,3.9,6.6,1.7,9.8
	c-9.6,14-24.5,25.4-44.6,34C535.3,526.9,532.6,525.5,532.2,523.1z M539.6,620.8c-1.9,1-4.2-0.2-4.4-2.4c-0.7-10.1-0.2-19.3,0.3-28.5
	c0.3-6.5,0.7-13.2,0.6-20c-0.1-10.3-0.5-20.8-1.7-31.1c-0.3-3.2,1.4-6.2,4.4-7.4c20.9-8.9,36.6-20.7,47-35.4c2.4-3.4,7.1-4,10.4-1.4
	c1.8,1.4,3.5,2.8,5.3,4.2c7.2,5.8,14.6,11.6,22.3,17.2c2.2,1.6,3.6,4.1,3.7,6.8c0.3,5.2-0.4,10.5-2,15.9
	C616.2,570.4,574.8,601.8,539.6,620.8z M677.7,588.8c-8.3,6.7-17.8,13.2-27.7,18.2c-38.1,19.1-73.2,24.2-105.7,19
	c-1.5-0.2-1.8-2.2-0.5-2.9c11.1-6.2,28.1-16.4,44.2-29.8c22.2-18.2,36.1-36.2,41.2-53.6c1.5-5.1,2.3-10,2.2-14.9
	c0-1.5,1.7-2.4,3-1.6c4.4,2.9,10.9,7.2,15.5,9.7c6.7,3.6,13.5,6.1,20.4,9.2c2.1,0.9,3.4,2.9,3.5,5.2c0.5,13.7,1.9,25.9,5.4,34.9
	C680.2,584.6,679.6,587.2,677.7,588.8z M708.2,558.6L708.2,558.6c-6.9,7.8-14.1,15.3-21.8,22.3c-1.3,1.1-3.3,0.6-3.9-1
	c-2.9-8-4.2-18.8-4.7-30.9c-0.1-1.8,1.7-3,3.3-2.3c8.7,3.5,17.5,6.5,26.3,9.1C708.6,556.2,709.1,557.7,708.2,558.6z M711.9,546.5
	L711.9,546.5c-0.1,2.2-2.2,3.8-4.3,3.2c-8.9-2.7-17.8-5.8-26.5-9.4c-2.2-0.9-3.6-3-3.6-5.4c0-7.2,0.1-14.8,0.2-22.4
	c0.1-3.7,0.1-7.5,0.2-11.3c0-2.4,2.1-4.4,4.5-4.3c9.7,0.4,18.6,0.5,25.7-0.8c1.8-0.3,3.5,1,3.5,2.8v0
	C712.1,510.5,712.6,526.6,711.9,546.5z M713.4,490.7c-6.9,3-18.4,2.9-31,2.4c-2.3-0.1-4.1-2-4.1-4.3c0-20.8-1-41.2-5.6-58.6
	c-0.4-1.4,0.5-2.8,1.9-3.1c14.8-3.4,29.7-5.4,44.5-7.3c12.9-1.7,26.1-3.4,39.2-6.1c3.2-0.7,6.5,0.9,8,3.8c0.9,1.8,1.7,3.7,2.2,5.7
	v0.1c0.9,3.3,1.9,6.6,2.9,9.9c1,3.2-0.1,6.7-2.9,8.7c-3.6,2.7-6.9,5.4-9.8,8.2c-3.8,3.7-7.5,7.8-11.4,12.1
	C737,473.4,726.5,485.1,713.4,490.7z M716.1,542.8c0.5-17.9,0-32.6-0.4-43.4v0c-0.1-2,2.1-3.3,3.8-2.3c8.1,4.8,15.2,10.4,21.6,16.5
	c2.2,2.1,2.3,5.6,0.2,7.8c-7,7.4-13.7,15.1-20.6,23.1l0,0.1C719.1,546.4,716.1,545.2,716.1,542.8z M768.1,606.1
	c-3.2,7.2-6.1,14.4-8.6,21.5c-0.8,2.2-3.6,2.6-5,0.7c-4-5.7-7.9-11.7-11.6-17.8c-1.1-1.7-0.1-3.9,1.8-4.4c0,0,0,0,0,0
	c7.1-1.7,13.9-3.3,20.4-4C767.4,601.9,769,604.1,768.1,606.1z M767.5,598c-7.6,0.5-15.4,2.4-23.6,4.4c-0.3,0.1-0.6,0.1-0.9,0.2
	c-2.6,0.6-5.3-0.6-6.7-2.9c-7.2-12.6-13.8-25.6-19.3-38.2c-0.6-1.3,0.6-2.7,2-2.4c16.2,4,32.6,6.5,48.8,7.4
	c6.8,0.4,13.5,0.5,20.1,0.2c1,0,1.9,0.5,1.2,1.6c-5.6,8.5-10.5,17-14.9,25.4C773,596.1,770.4,597.8,767.5,598z M830.3,628.4
	c-0.2,1.9-2.6,2.8-4,1.4c-1-1-2.1-2-3.1-3c-7.1-6.7-14.4-13.7-24.4-20.6c-6-4.1-11.8-6.4-17.6-7.6c-2.2-0.4-3.3-2.8-2.3-4.7
	c4-7.5,8.4-15.1,13.4-22.8c1.5-2.3,4.6-2.8,6.7-1.1c8.4,7.1,17.4,14.1,26.5,21.1c3,2.3,4.9,5.7,5.2,9.4
	C831.5,610,831.5,619.2,830.3,628.4z M895.9,627.1c0,3.5-3.9,5.7-6.9,3.8c-15.3-9.6-31.9-20.9-48.2-32.8c-2.9-2.1-4.8-5.3-5.4-8.9
	c-1.1-7.2-2.7-14.3-4.6-21.5c-0.3-1.1,0.5-1.7,1.8-0.9c11.1,6.9,22.3,13.9,33.2,20.7c8.4,5.2,16.7,10.4,24.8,15.4
	c3.3,2.1,5.3,5.7,5.3,9.6V627.1z M953.5,616.9c-1.8,2.6-3.8,5.2-5.8,7.7c-2.7,3.4-7.5,4.2-11.2,1.9c-20.2-12.2-43.8-26.9-68.6-42.4
	c-10.9-6.8-22-13.8-33.1-20.6c-1.5-0.9-1.2-3.2,0.5-3.6h0c10.9-2.8,21.5-6.4,31.6-10.7c2.5-1.1,5.3-0.6,7.3,1.2
	c10.5,9.2,22.4,16.2,33.9,23c10.6,6.2,21.5,12.7,31.5,20.9c4.4,3.6,8.5,7.1,12.4,10.5C955.5,607.9,956.1,613.1,953.5,616.9z
	 M954.8,601.9c-3.9-3.4-8-6.9-12.4-10.6c-10.2-8.4-21.3-15-32-21.3c-1-0.6-2.1-1.2-3.1-1.8c-1.2-0.7-1.4-2.3-0.5-3.3
	c8.5-9.9,14-25.9,15.1-43.6c0.2-3.1,2.4-5.7,5.4-6.3c4.6-0.9,9.5,0.3,13.2,3.5c6,5.2,12,10.4,18.3,15.4c5.3,4.2,11,7.5,17,10.1
	c2,0.9,3.2,2.9,3.1,5c-1.2,17.1-6.6,34.8-15.1,51.2C962,603.6,957.6,604.4,954.8,601.9z M1019.4,557.7c-4.3,6.6-8.6,15.1-11.2,28.8
	c-2.3,11.4-12.7,26.1-25.9,36.7c-2.2,1.7-5.3,1.4-7.1-0.7c-2.4-2.8-4.8-5.5-7.4-8.2c-2.8-2.9-3.3-7.2-1.5-10.7
	c9.3-17.3,15.2-36.4,16.4-54.6c0.1-1.2,1.2-2,2.4-1.6c10.1,3,20.8,4.4,31.6,5C1019.4,552.7,1020.8,555.6,1019.4,557.7z
	 M1029.6,542.7c-1.5,2.8-4.4,4.4-7.6,4.3c-21.5-0.7-42.8-4.4-59.2-17.4c-7.5-6-14.8-12.3-21.9-18.6c-2.3-2-2.2-5.7,0.2-7.6
	c1.1-0.9,2.2-1.8,3.3-2.7c17.7-14.4,31.5-28.5,41.1-42c1.8-2.6,4.6-4.2,7.7-4.6c6.8-0.7,14.6-0.8,23.7-0.1c3,0.2,5.4,2.6,5.6,5.6
	c0.8,13.1,4.2,24.5,7.3,35c2.7,9.2,5.1,17.1,5,24.1C1034.9,530,1032.8,536.9,1029.6,542.7z M1088.9,542.8c-0.4,1.5-1.7,2.7-3.3,2.8
	c-12.4,0.7-23.3,1-31.8,1.2l-3.4,0.1c-4.1,0.1-8.3,0.2-12.5,0.3c-2.5,0-4.2-2.6-3.1-4.8c2.8-5.7,4.7-12.8,4.8-23.4
	c-0.3-7.7-2.8-15.9-5.6-25.4c-4.1-13.9-8.8-29.7-6.8-48.5c0-0.4,0.1-1.2,0.2-2.1c0.2-1.6,1.7-2.7,3.2-2.4c1.6,0.3,3.2,0.7,4.8,1
	c7.1,1.5,14.4,3,21.6,4.1c18.1,2.7,36,3,53.3,3.2h0.1c5.6,0.1,9.8,5.2,8.7,10.7c-0.2,0.8-0.3,1.7-0.5,2.5
	c-1.4,7.1-2.8,13.9-4.3,20.5c-3.3,14.1-6.8,28.4-10.2,42.3c-0.2,0.9-0.8,3.2-1.2,5c-0.3,1.4-1.5,2.4-2.9,2.7
	C1094.7,533.6,1090.3,537.6,1088.9,542.8z M1094.4,546.5c0-4.5,3.6-8.1,8.1-8.1s8.1,3.6,8.1,8.1c0,4.4-3.6,8.1-8.1,8.1
	S1094.4,551,1094.4,546.5z M1136.2,606.6c-12.1-6-24.4-13-36.7-20.8c-2.1-1.3-3.1-3.8-2.6-6.2c0.5-2.1,0.9-4.2,1.3-6.3
	c0.5-2.5,1.6-7.3,2.3-10.4c0.3-1.5,1.6-2.6,3.1-2.8h0.3c1.6-0.2,3-0.7,4.4-1.3c1.3-0.6,2.8-0.5,3.9,0.4c1.4,1.1,3,2.5,3.5,3
	c11.1,10.6,18.5,25.5,24,41.2C1140.5,605.6,1138.2,607.6,1136.2,606.6z M1181.4,589.7c-0.4,9.4-1,18.9-0.2,29.5
	c0.1,2-1.7,3.6-3.7,3.1c-7.7-2-15.4-4.6-23.1-7.7c-3.5-1.4-6.1-4.3-7.2-7.9c-6.3-20-15.6-39.4-30.8-52c-1.2-1-1.6-2.6-1.1-4
	c0.4-1.3,1.6-2.2,2.9-2.3c15.4-1.8,31.3-4.5,46.3-8.6c3.7-1,7.3-2.1,10.8-3.3c2.4-0.8,4.9,0.8,5.2,3.3c0.9,8.8,1.5,18.7,1.7,30
	C1182.1,576.6,1181.8,583.2,1181.4,589.7z M1182.2,523.1c-3.1-15.9-8.4-31.2-17.7-45.1l0,0c-1.8-2.7-1.9-6.3-0.3-9.1
	c2.1-3.6,4.1-7.2,6.1-10.6c1.4-2.4,4.3-3.6,7-2.9c9.6,2.5,19.1,6.1,28.6,11.2c8.6,4.6,16.7,10,24.6,15.7c3.1,2.3,3.9,6.6,1.7,9.8
	c-9.6,14-24.5,25.4-44.6,34C1185.3,526.9,1182.6,525.5,1182.2,523.1z M1189.6,620.8c-1.9,1-4.2-0.2-4.4-2.4
	c-0.7-10.1-0.2-19.3,0.3-28.5c0.3-6.5,0.7-13.2,0.6-20c-0.1-10.3-0.5-20.8-1.7-31.1c-0.3-3.2,1.4-6.2,4.4-7.4
	c20.9-8.9,36.6-20.7,47-35.4c2.4-3.4,7.1-4,10.4-1.4c1.8,1.4,3.5,2.8,5.3,4.2c7.2,5.8,14.6,11.6,22.3,17.2c2.2,1.6,3.6,4.1,3.7,6.8
	c0.3,5.2-0.4,10.5-2,15.9C1266.2,570.4,1224.8,601.8,1189.6,620.8z M1327.7,588.8c-8.3,6.7-17.8,13.2-27.7,18.2
	c-38.1,19.1-73.2,24.2-105.7,19c-1.5-0.2-1.8-2.2-0.5-2.9c11.1-6.2,28.1-16.4,44.2-29.8c22.2-18.2,36.1-36.2,41.2-53.6
	c1.5-5.1,2.3-10,2.2-14.9c0-1.5,1.7-2.4,3-1.6c4.4,2.9,10.9,7.2,15.5,9.7c6.7,3.6,13.5,6.1,20.4,9.2c2.1,0.9,3.4,2.9,3.5,5.2
	c0.5,13.7,1.9,25.9,5.4,34.9C1330.2,584.6,1329.6,587.2,1327.7,588.8z M1358.2,558.6L1358.2,558.6c-6.9,7.8-14.1,15.3-21.8,22.3
	c-1.3,1.1-3.3,0.6-3.9-1c-2.9-8-4.2-18.8-4.7-30.9c-0.1-1.8,1.7-3,3.3-2.3c8.7,3.5,17.5,6.5,26.3,9.1
	C1358.6,556.2,1359.1,557.7,1358.2,558.6z M1361.9,546.5L1361.9,546.5c-0.1,2.2-2.2,3.8-4.3,3.2c-8.9-2.7-17.8-5.8-26.5-9.4
	c-2.2-0.9-3.6-3-3.6-5.4c0-7.2,0.1-14.8,0.2-22.4c0.1-3.7,0.1-7.5,0.2-11.3c0-2.4,2.1-4.4,4.5-4.3c9.7,0.4,18.6,0.5,25.7-0.8
	c1.8-0.3,3.5,1,3.5,2.8v0C1362.1,510.5,1362.6,526.6,1361.9,546.5z M1363.4,490.7c-6.9,3-18.4,2.9-31,2.4c-2.3-0.1-4.1-2-4.1-4.3
	c0-20.8-1-41.2-5.6-58.6c-0.4-1.4,0.5-2.8,1.9-3.1c14.8-3.4,29.7-5.4,44.5-7.3c12.9-1.7,26.1-3.4,39.2-6.1c3.2-0.7,6.5,0.9,8,3.8
	c0.9,1.8,1.7,3.7,2.2,5.7v0.1c0.9,3.3,1.9,6.6,2.9,9.9c1,3.2-0.1,6.7-2.9,8.7c-3.6,2.7-6.9,5.4-9.8,8.2c-3.8,3.7-7.5,7.8-11.4,12.1
	C1387,473.4,1376.5,485.1,1363.4,490.7z M1366.1,542.8c0.5-17.9,0-32.6-0.4-43.4v0c-0.1-2,2.1-3.3,3.8-2.3
	c8.1,4.8,15.2,10.4,21.6,16.5c2.2,2.1,2.3,5.6,0.2,7.8c-7,7.4-13.7,15.1-20.6,23.1l0,0.1C1369.1,546.4,1366.1,545.2,1366.1,542.8z
	 M1418.1,606.1c-3.2,7.2-6.1,14.4-8.6,21.5c-0.8,2.2-3.6,2.6-5,0.7c-4-5.7-7.9-11.7-11.6-17.8c-1.1-1.7-0.1-3.9,1.8-4.4c0,0,0,0,0,0
	c7.1-1.7,13.9-3.3,20.4-4C1417.4,601.9,1419,604.1,1418.1,606.1z M1417.5,598c-7.6,0.5-15.4,2.4-23.6,4.4c-0.3,0.1-0.6,0.1-0.9,0.2
	c-2.6,0.6-5.3-0.6-6.7-2.9c-7.2-12.6-13.8-25.6-19.3-38.2c-0.6-1.3,0.6-2.7,2-2.4c16.2,4,32.6,6.5,48.8,7.4
	c6.8,0.4,13.5,0.5,20.1,0.2c1,0,1.9,0.5,1.2,1.6c-5.6,8.5-10.5,17-14.9,25.4C1423,596.1,1420.4,597.8,1417.5,598z M1480.3,628.4
	c-0.2,1.9-2.6,2.8-4,1.4c-1-1-2.1-2-3.1-3c-7.1-6.7-14.4-13.7-24.4-20.6c-6-4.1-11.8-6.4-17.6-7.6c-2.2-0.4-3.3-2.8-2.3-4.7
	c4-7.5,8.4-15.1,13.4-22.8c1.5-2.3,4.6-2.8,6.7-1.1c8.4,7.1,17.4,14.1,26.5,21.1c3,2.3,4.9,5.7,5.2,9.4
	C1481.5,610,1481.5,619.2,1480.3,628.4z M1545.9,627.1c0,3.5-3.9,5.7-6.9,3.8c-15.3-9.6-31.9-20.9-48.2-32.8
	c-2.9-2.1-4.8-5.3-5.4-8.9c-1.1-7.2-2.7-14.3-4.6-21.5c-0.3-1.1,0.5-1.7,1.8-0.9c11.1,6.9,22.3,13.9,33.2,20.7
	c8.4,5.2,16.7,10.4,24.8,15.4c3.3,2.1,5.3,5.7,5.3,9.6V627.1z M1603.5,616.9c-1.8,2.6-3.8,5.2-5.8,7.7c-2.7,3.4-7.5,4.2-11.2,1.9
	c-20.2-12.2-43.8-26.9-68.6-42.4c-10.9-6.8-22-13.8-33.1-20.6c-1.5-0.9-1.2-3.2,0.5-3.6h0c10.9-2.8,21.5-6.4,31.6-10.7
	c2.5-1.1,5.3-0.6,7.3,1.2c10.5,9.2,22.4,16.2,33.9,23c10.6,6.2,21.5,12.7,31.5,20.9c4.4,3.6,8.5,7.1,12.4,10.5
	C1605.5,607.9,1606.1,613.1,1603.5,616.9z M1604.8,601.9c-3.9-3.4-8-6.9-12.4-10.6c-10.2-8.4-21.3-15-32-21.3
	c-1-0.6-2.1-1.2-3.1-1.8c-1.2-0.7-1.4-2.3-0.5-3.3c8.5-9.9,14-25.9,15.1-43.6c0.2-3.1,2.4-5.7,5.4-6.3c4.6-0.9,9.5,0.3,13.2,3.5
	c6,5.2,12,10.4,18.3,15.4c5.3,4.2,11,7.5,17,10.1c2,0.9,3.2,2.9,3.1,5c-1.2,17.1-6.6,34.8-15.1,51.2
	C1612,603.6,1607.6,604.4,1604.8,601.9z M1669.4,557.7c-4.3,6.6-8.6,15.1-11.2,28.8c-2.3,11.4-12.7,26.1-25.9,36.7
	c-2.2,1.7-5.3,1.4-7.1-0.7c-2.4-2.8-4.8-5.5-7.4-8.2c-2.8-2.9-3.3-7.2-1.5-10.7c9.3-17.3,15.2-36.4,16.4-54.6c0.1-1.2,1.2-2,2.4-1.6
	c10.1,3,20.8,4.4,31.6,5C1669.4,552.7,1670.8,555.6,1669.4,557.7z M1679.6,542.7c-1.5,2.8-4.4,4.4-7.6,4.3
	c-21.5-0.7-42.8-4.4-59.2-17.4c-7.5-6-14.8-12.3-21.9-18.6c-2.3-2-2.2-5.7,0.2-7.6c1.1-0.9,2.2-1.8,3.3-2.7
	c17.7-14.4,31.5-28.5,41.1-42c1.8-2.6,4.6-4.2,7.7-4.6c6.8-0.7,14.6-0.8,23.7-0.1c3,0.2,5.4,2.6,5.6,5.6c0.8,13.1,4.2,24.5,7.3,35
	c2.7,9.2,5.1,17.1,5,24.1C1684.9,530,1682.8,536.9,1679.6,542.7z M1738.9,542.8c-0.4,1.5-1.7,2.7-3.3,2.8c-12.4,0.7-23.3,1-31.8,1.2
	l-3.4,0.1c-4.1,0.1-8.3,0.2-12.5,0.3c-2.5,0-4.2-2.6-3.1-4.8c2.8-5.7,4.7-12.8,4.8-23.4c-0.3-7.7-2.8-15.9-5.6-25.4
	c-4.1-13.9-8.8-29.7-6.8-48.5c0-0.4,0.1-1.2,0.2-2.1c0.2-1.6,1.7-2.7,3.2-2.4c1.6,0.3,3.2,0.7,4.8,1c7.1,1.5,14.4,3,21.6,4.1
	c18.1,2.7,36,3,53.3,3.2h0.1c5.6,0.1,9.8,5.2,8.7,10.7c-0.2,0.8-0.3,1.7-0.5,2.5c-1.4,7.1-2.8,13.9-4.3,20.5
	c-3.3,14.1-6.8,28.4-10.2,42.3c-0.2,0.9-0.8,3.2-1.2,5c-0.3,1.4-1.5,2.4-2.9,2.7C1744.7,533.6,1740.3,537.6,1738.9,542.8z
	 M1744.4,546.5c0-4.5,3.6-8.1,8.1-8.1s8.1,3.6,8.1,8.1c0,4.4-3.6,8.1-8.1,8.1S1744.4,551,1744.4,546.5z M1786.2,606.6
	c-12.1-6-24.4-13-36.7-20.8c-2.1-1.3-3.1-3.8-2.6-6.2c0.5-2.1,0.9-4.2,1.3-6.3c0.5-2.5,1.6-7.3,2.3-10.4c0.3-1.5,1.6-2.6,3.1-2.8
	h0.3c1.6-0.2,3-0.7,4.4-1.3c1.3-0.6,2.8-0.5,3.9,0.4c1.4,1.1,3,2.5,3.5,3c11.1,10.6,18.5,25.5,24,41.2
	C1790.5,605.6,1788.2,607.6,1786.2,606.6z M1831.4,589.7c-0.4,9.4-1,18.9-0.2,29.5c0.1,2-1.7,3.6-3.7,3.1c-7.7-2-15.4-4.6-23.1-7.7
	c-3.5-1.4-6.1-4.3-7.2-7.9c-6.3-20-15.6-39.4-30.8-52c-1.2-1-1.6-2.6-1.1-4c0.4-1.3,1.6-2.2,2.9-2.3c15.4-1.8,31.3-4.5,46.3-8.6
	c3.7-1,7.3-2.1,10.8-3.3c2.4-0.8,4.9,0.8,5.2,3.3c0.9,8.8,1.5,18.7,1.7,30C1832.1,576.6,1831.8,583.2,1831.4,589.7z M1832.2,523.1
	c-3.1-15.9-8.4-31.2-17.7-45.1l0,0c-1.8-2.7-1.9-6.3-0.3-9.1c2.1-3.6,4.1-7.2,6.1-10.6c1.4-2.4,4.3-3.6,7-2.9
	c9.6,2.5,19.1,6.1,28.6,11.2c8.6,4.6,16.7,10,24.6,15.7c3.1,2.3,3.9,6.6,1.7,9.8c-9.6,14-24.5,25.4-44.6,34
	C1835.3,526.9,1832.6,525.5,1832.2,523.1z M1927.6,522.7c0.3,5.2-0.4,10.5-2,15.9c-9.4,31.8-50.8,63.3-86,82.2
	c-1.9,1-4.2-0.2-4.4-2.4c-0.7-10.1-0.2-19.3,0.3-28.5c0.3-6.5,0.7-13.2,0.6-20c-0.1-10.3-0.5-20.8-1.7-31.1
	c-0.3-3.2,1.4-6.2,4.4-7.4c20.9-8.9,36.6-20.7,47-35.4c2.4-3.4,7.1-4,10.4-1.4c1.8,1.4,3.5,2.8,5.3,4.2c7.2,5.8,14.6,11.6,22.3,17.2
	C1926,517.5,1927.5,520,1927.6,522.7z M1921.3,502C1921.3,502,1921.4,502,1921.3,502c1.1,1.9-1.2,3.8-2.9,2.6
	c-4.5-3.4-8.9-6.9-13.2-10.4c-2.7-2.1-5.4-4.3-8.1-6.4c-2.5-1.9-3.4-5.3-2.3-8.2l0,0c0.4-0.9,1.5-1.3,2.3-0.7
	C1907.1,486.1,1916.3,493.2,1921.3,502z M1893.2,467.3c-0.4,1.6-2.3,2.2-3.6,1.2c-5.6-4.3-10.9-8.8-15.1-13.7
	c-6.8-8.1-12.9-16.7-18.7-25.3l0,0c-1.2-1.7,0.6-4,2.6-3.2c3.8,1.4,7.3,2.8,10.6,4.1c11,4.1,20.2,7.6,29.6,9.6
	C1897.2,449.3,1895.6,458.5,1893.2,467.3z M1898.9,435.9c-9-1.9-17.9-5.3-28.4-9.4c-3.6-1.4-7.5-2.9-11.7-4.4
	c-3.5-1.3-4.1-6.1-0.9-8.2c11.6-7.6,26.4-14.2,38.9-16.2c2.2-0.4,4.2,1.4,4.1,3.6C1900.7,412.9,1900.1,424.6,1898.9,435.9z
	 M1895.1,393.9c-14.8,2.7-32.1,11.1-44.3,20c-2.1,1.5-5,1.1-6.5-1c-7.5-10.3-15.6-20.3-25.4-29c0.6-1.1,1-2.4,1.2-3.6
	c0.4-2.2,0.3-4.2-0.2-6.2c-0.4-1.5,0.3-3.1,1.7-4c16.8-10.3,36.9-15.6,60-15.6h0.1c3.3,0,6.7,0.1,10.2,0.3c5.1,0.3,9,4.6,9.1,9.7
	v5.2c0,5.7,0.1,11.5,0.1,17.2C1901,390.3,1898.5,393.3,1895.1,393.9z M1901.9,307.4c-0.3,9.6-0.6,19.5-0.8,29.3v2.5
	c-0.1,5.5-4.7,9.9-10.3,9.6c-3.1-0.2-6.1-0.3-9.1-0.3h-0.1c-24.6,0-46.2,5.8-64.1,17c-1.2,0.7-2.6,0.8-3.8,0.1
	c-2.2-1.4-4.7-2.2-7.5-2.2c-1.8,0-3.5,0.4-5.1,1c-1.3,0.5-2.7,0.2-3.7-0.7c-15.1-13.7-34.7-23.6-57.8-29c-7.4-1.7-15.1-3-22.9-3.7
	c5.7-7.5,12.2-14.1,17.7-19.8c6.8-7,12.2-12.5,13.6-17c1-3.1,1.3-6,1.1-8.6c-0.2-2.5,1.2-4.8,3.3-6c9.2-5,18.5-9.6,27.7-13.9
	c39.5-18,75.7-27.2,115.7-29.3c3.5-0.2,6.5,2.6,6.6,6.1C1903.3,264.3,1902.6,286.1,1901.9,307.4z M1901.2,217
	c0.2,2.9,0.5,5.9,0.6,8.8c0.2,3.5-2.4,6.5-5.9,6.7c-17.7,0.9-34.6,3.2-51.4,7c-2.2,0.5-4.4-0.6-5.3-2.7c-3.5-8.4-6.3-17.6-8.9-26.6
	c-3.9-13.3-8-26.9-14.7-38.6c-0.8-1.4,0.3-3.1,1.9-3c22.9,2.3,45.8,5.8,67.8,11.4c7,1.7,12.2,7.5,13.3,14.6
	C1899.6,201.8,1900.5,209.3,1901.2,217z M1872.4,116.6c9.3,15.8,16.3,33.3,21.2,53c0.8,3.1-2,5.9-5,5.1c-16.8-4.3-34-7.4-51.4-9.7
	c-0.1,0-0.3,0-0.5-0.1c-2.6-0.4-4.8-2.2-5.6-4.8c-0.2-0.9-0.5-1.7-0.6-2.2c-3.7-12.9-7.9-24.2-12.9-35.1c-1-2.2,0.2-4.9,2.5-5.6
	c11.6-3.3,23.3-6.1,35-8.3C1862,107.5,1868.9,110.7,1872.4,116.6z M1846.7,81.1c3.7,4.7,7.4,9.5,11.1,14.4c2.1,2.7,0.5,6.7-2.9,7.4
	c-8.4,1.6-16.7,3.4-25,5.5c-1.9,0.5-3.8-1-3.7-3c0.8-12.9,3.5-24.3,8.3-34.2c0.8-1.6,3-1.9,4.1-0.4
	C1841.3,74.2,1844,77.6,1846.7,81.1z"/>
</svg>
