<?xml version="1.0" encoding="utf-8"?>
<!-- Generator: Adobe Illustrator 21.1.0, SVG Export Plug-In . SVG Version: 6.00 Build 0)  -->
<svg version="1.1" id="Layer_1" xmlns="http://www.w3.org/2000/svg" xmlns:xlink="http://www.w3.org/1999/xlink" x="0px" y="0px"
	 viewBox="0 0 128 128" style="enable-background:new 0 0 128 128;" xml:space="preserve">
<style type="text/css">
	.st0{opacity:0.6;fill:#143D8A;enable-background:new    ;}
	.st1{fill:#143D8A;}
	.st2{fill:#308DD1;}
	.st3{fill:#3AA3E3;}
	.st4{fill:#2978BE;}
	.st5{opacity:0.5;}
	.st6{fill:#67BCEF;}
	.st7{opacity:0.3;}
</style>
<g>
	<path class="st0" d="M128,114.8c-0.7-2.8-13.9,3.2-8.1,2.5c-0.2,0.6-0.8,1-1.7,1.5c-1.4-0.3-1.8-0.7-1-1.2
		c-0.3-0.4-0.2-0.7,0.2-0.9c-1.1-0.7-1.6-1-3.5-0.6c-1.7,0.4-2.6,3.9-3.5,0.9c-0.5-1.5,4.5-3.7,6.2-5.2c2.9-2.6,5.2-5.5,6.8-8.4
		c3.8-6.4,4.5-15-7.8-19.5c-13.7-5-33.2-0.1-43.3,5.2c-7.2,3.8-13,8.8-14.7,14c-0.9,2.7-0.9,5.4,0.3,8.1c0.5,1,1,2.1,2,3
		c1.4,1.5,4.3,2.1,1.1,3.3c-2.7-2.9-5.2-6.9-9.9-9.3c-5.2-2.6-10-0.3-11.2,2.6c-1.1,2.8,0.2,6.4,4.8,8.2c5.7,2.3,11.2,0.2,16.1-1.6
		c3.5,3.6,11.2,13.3,22.2,9.3c3.9-1.5,3.7-6,9.6-5.4c1.6,0.2,5.5,1.9,6.5,2.5c1.8,1.1,2.1,2.5,4.9,3.5c4.2,1.3,10,0.7,13.2-1
		c1.3-0.7,2.2-1.7,2.6-2.6c0.6-1.3-1.1-2.7-0.7-3.8c0.4-0.9,3.6-2.5,4.7-3C125.6,116,128.3,116.5,128,114.8z M109.8,118.4
		c-1.1,0.3-2.3,0.7-3.3,1c-2.8-1.3-0.1-1.8,2-2.7C108.9,117.3,109.3,117.8,109.8,118.4z M103.8,118.6c3.2,1.7-2.5,2.9-3.3,4.8
		c-2.1-0.8-4.3-1.6-6.3-2.4C97.6,120.4,100.8,119.6,103.8,118.6z"/>
	<g>
		<path class="st1" d="M77.3,102.6L63.3,92c-0.9-0.7-2.1,0.6-1.2,1.2L76,103.8C76.9,104.4,78.1,103.3,77.3,102.6z"/>
		<path class="st1" d="M85.5,87.4l-2.3-6c-0.4-1-2-0.6-1.6,0.5l2.3,6C84.3,88.8,85.9,88.4,85.5,87.4z"/>
		<path class="st2" d="M92.4,105.3L92.4,105.3c1.3-4.7,0.5-9.8-2.4-13.9c-2.1-3.1-8.4-0.3-13.9,3.7c5.5-5.6,14.8-11.3,17.1-7.7
			C96.8,92.9,96.7,100.4,92.4,105.3z"/>
		<path class="st3" d="M92.3,105.4c-3.6,4.1-9.5,4.9-13.5,3.5c-5.5-1.9-6.9-6.1-6.5-8.9c1-1.8,2.3-3.5,3.8-4.9
			c5.5-4,11.8-6.7,13.9-3.7C92.9,95.5,93.7,100.6,92.3,105.4z"/>
		<path class="st2" d="M93.8,90.6c-0.3,1.3-0.9,2.6-1.6,3.8c-1.3,2.1-2.9,3.8-4.9,5.3c-3.1,2.4-6.8,4.2-9.9,4.4
			c-5,0.3-6.4-3.6-3.3-8.7c3.2-5,9.8-9.4,14.8-9.7C92.6,85.6,94.3,87.6,93.8,90.6z"/>
		<path class="st4" d="M92.6,68.6C81,92.5,56.4,98.8,41.5,93.5c-1.8-0.7-3.5-1.4-5-2.4c-1.2-0.8-2.5-1.7-3.7-2.7
			C23.3,80.5,18,67.8,22.5,49.5c6.1-24.1,32.6-50,54.4-49.4C93.3,0.5,115.5,21.1,92.6,68.6z"/>
		<path class="st3" d="M77.9,45.4c-11,22.3-31.3,38.7-45.7,36.4C19,79.6,17.5,54,25.6,36.9c10.7-22.2,29.3-37,50.9-36.7
			c0.1,0,0.3,0,0.4,0c2.5,0.1,4.7,0.4,6.6,1C91.9,4.3,92.9,15.1,77.9,45.4z"/>
		<g class="st5">
			<path class="st6" d="M83.5,1.1c-0.4,0.1-0.8,0.2-1.1,0.3c-1.2,0.4-2.5,0.8-3.7,1.4c-2.5,1.1-4.8,2.4-7,4
				C67.1,10,63,13.6,59.3,17.7c-3.8,4.1-7.2,8.5-10.1,13.1c-3,4.7-5.5,9.6-7.5,14.9c1.7-5.3,3.9-10.5,6.6-15.3
				c2.7-4.9,5.9-9.5,9.5-13.9s7.7-8.4,12.1-12c2.1-1.7,4.3-3.1,6.6-4.4c0.1,0,0.3,0,0.4,0C79.4,0.2,81.6,0.5,83.5,1.1z"/>
		</g>
		<g class="st7">
			<path class="st3" d="M74,73.9c-2.6,3-5.4,5.8-8.4,8.4c-3.1,2.6-6.4,4.9-10,6.7c-3.7,1.9-7.6,3.3-11.7,4.1
				c-0.8,0.2-1.6,0.3-2.4,0.4c-1.8-0.7-3.5-1.4-5-2.4c-1.2-0.8-2.5-1.7-3.7-2.7c3.4,0.7,6.9,0.8,10.4,0.6c3.8-0.4,7.6-1.2,11.1-2.5
				c3.6-1.4,7.1-3.2,10.3-5.3C68.1,79.1,71.1,76.6,74,73.9z"/>
		</g>
		<path class="st1" d="M103.7,82c-2.5,0.9-10,2.7-10,2.7c-0.6,0.2-1-0.7-0.6-1.1c0,0,7.4-5.8,10-7.4c0.8-0.5,1.9,0.6,2.1,2.1
			C105.4,80,104.5,81.7,103.7,82z"/>
		<path class="st6" d="M92.2,84.9c-0.5,2.2-1.5,3.6-3.5,3.6c-1.6,0-2.6-1.7-2.4-3.7c0.3-2.1,1.8-3.7,3.5-3.7
			C91.6,81,92.7,82.9,92.2,84.9z"/>
		<path class="st4" d="M25.3,84.7c-0.8,0.6-1.5,1.1-2.2,1.7C14.9,93,8.8,92.2,3.9,86c-5.7-7.4-4-17.3-2.5-21c1.9-4.6,6.3-7.4,11-3.5
			C16.3,64.7,20.4,74.4,25.3,84.7z"/>
		<path class="st2" d="M57.6,96.5c-0.8,3.8-3,7.9-5.9,10.1c-4.2,3.2-10.4,3.5-14.8-2.1c-4.4-5.5-8.1-12.8-11.6-19.9
			c4.8-3.6,10.6-6.9,16.1-8.2C55.9,72.9,58.9,89.3,57.6,96.5z"/>
		<path class="st1" d="M88.2,103.8L75.5,82.6c-0.3-0.4-0.8-0.5-1.1-0.3c-0.4,0.3-0.5,0.7-0.3,1.1l12.8,21.2c0.3,0.4,0.8,0.5,1.1,0.3
			C88.3,104.7,88.4,104.2,88.2,103.8L88.2,103.8z"/>
		<path class="st6" d="M86.9,87.6c0.5,0.6,0.6,2.3-0.1,3.9c-0.4,0.7,6.1-1.7,4.5-2.3c-0.9-0.3-1.4-0.5-1.1-1.7
			C89.2,87.6,86.3,86.7,86.9,87.6z"/>
		<path class="st1" d="M93.6,90.6c-0.3,1.3-0.9,2.6-1.6,3.8c-1.3,2.1-2.9,3.8-4.9,5.3c-0.9-2-1.1-4.2-0.9-6.4c0.4-3.1,1.6-3.7,4-4.7
			C91.6,88.2,93.1,89.1,93.6,90.6z"/>
		<path class="st1" d="M91.1,84.4c-1.5,2.8-1.6,2.9-3.9,3.5h-0.1c-0.7-1-0.9-2.2-0.8-3.5c0.3-2,1.9-3.5,3.6-3.5
			c1.1,0,2.2,0.7,2.5,1.9C92.6,83.3,92,82.5,91.1,84.4z"/>
		<path class="st6" d="M92.7,91.2c4-1.8,6.3-5.7,5.1-10c-0.4-1.6-2.8-0.9-2.5,0.7c0.9,3.3-1,5.8-3.9,7.1
			C89.9,89.7,91.2,91.9,92.7,91.2L92.7,91.2z"/>
	</g>
</g>
</svg>
