<?xml version="1.0" encoding="utf-8"?>
<!-- Generator: Adobe Illustrator 16.0.0, SVG Export Plug-In . SVG Version: 6.00 Build 0)  -->
<!DOCTYPE svg PUBLIC "-//W3C//DTD SVG 1.1//EN" "http://www.w3.org/Graphics/SVG/1.1/DTD/svg11.dtd">
<svg version="1.1" id="Слой_1" xmlns="http://www.w3.org/2000/svg" xmlns:xlink="http://www.w3.org/1999/xlink" x="0px" y="0px"
	 width="235px" height="63px" viewBox="0 0 235 63" enable-background="new 0 0 235 63" xml:space="preserve">
<g>
	<g>
		<path fill="#FFFFFF" d="M122.496,25.981c0-6.116,4.973-11.091,11.088-11.091c6.117,0,11.089,4.975,11.089,11.091
			c0,6.115-4.972,11.089-11.089,11.089C127.469,37.07,122.496,32.097,122.496,25.981 M118.034,25.981
			c0,8.574,6.976,15.55,15.55,15.55c4.34,0,8.266-1.786,11.089-4.66v3.881h4.462V25.981c0-8.579-6.977-15.553-15.551-15.553
			S118.034,17.402,118.034,25.981"/>
		<path fill="#FFFFFF" d="M69.017,11.14V23.5c0,6.751-5.497,12.247-12.253,12.247c-6.756,0-12.251-5.496-12.251-12.247V11.14h-4.932
			V23.5c0,9.473,7.708,17.183,17.183,17.183c9.475,0,17.187-7.71,17.187-17.183V11.14H69.017z"/>
		<polygon fill="#FFFFFF" points="106.938,11.14 96.071,22.171 85.199,11.14 79.398,11.14 79.398,40.683 83.947,40.683 
			83.947,16.779 93.798,26.565 93.798,40.683 98.345,40.683 98.345,26.565 108.197,16.779 108.197,40.683 112.741,40.683 
			112.741,11.14 		"/>
		<path fill="#FFFFFF" d="M207.087,26.015c0-6.408,5.212-11.62,11.619-11.62s11.619,5.212,11.619,11.62s-5.212,11.615-11.619,11.615
			S207.087,32.423,207.087,26.015 M202.412,26.015v0.032c0,8.986,7.308,16.297,16.294,16.297c4.544,0,8.662-1.874,11.619-4.886
			v13.093H235V26.359h-0.005c0.002-0.104,0.005-0.206,0.005-0.312v-0.032c0-8.988-7.309-16.299-16.294-16.299
			C209.72,9.716,202.412,17.026,202.412,26.015"/>
		<path fill="#FFFFFF" d="M0,0v11.207v29.438h4.929v-9.442v-1.168V24.45c0-5.898,5.899-10.779,12.155-10.779
			c6.756,0,12.251,5.496,12.251,12.252v14.722h4.936V25.722h-0.007c0-10.727-7.771-16.979-17.18-16.979
			c-4.743,0-9.043,1.927-12.155,5.045V0H0z"/>
		<polygon fill="#FFFFFF" points="183.134,11.14 183.134,34.42 158.882,11.14 154.297,11.14 154.297,13.041 154.334,13.078 
			154.334,40.542 158.882,40.542 158.882,17.442 183.057,40.648 187.678,40.648 187.678,38.782 187.678,11.14 		"/>
		<rect x="193.168" y="11.376" fill="#FFFFFF" width="4.584" height="29.399"/>
	</g>
</g>
<g>
	<g>
		<path fill="#FFFFFF" d="M0,61.061v-7.927h5.61v1.485H1.688v1.664h3.84v1.485h-3.84v1.809H5.61v1.483H0z"/>
		<path fill="#FFFFFF" d="M15.011,61.061v-5.717l-2.236,5.717h-0.737l-2.234-5.717v5.717H8.116v-7.927h2.365l1.927,4.956
			l1.925-4.956h2.377v7.927H15.011z"/>
		<path fill="#FFFFFF" d="M19.464,61.061v-7.927h3.708c1.724,0,2.663,1.164,2.663,2.555c0,1.38-0.951,2.544-2.663,2.544h-2.02v2.828
			H19.464z M24.111,55.688c0-0.666-0.51-1.069-1.176-1.069h-1.782v2.128h1.782C23.601,56.747,24.111,56.342,24.111,55.688z"/>
		<path fill="#FFFFFF" d="M27.697,57.104c0-2.39,1.748-4.101,4.149-4.101c2.389,0,4.137,1.711,4.137,4.101s-1.749,4.102-4.137,4.102
			C29.445,61.205,27.697,59.493,27.697,57.104z M34.247,57.104c0-1.486-0.939-2.604-2.401-2.604c-1.474,0-2.413,1.117-2.413,2.604
			c0,1.474,0.939,2.604,2.413,2.604C33.307,59.707,34.247,58.577,34.247,57.104z"/>
		<path fill="#FFFFFF" d="M44.42,61.061l-1.391-5.443l-1.379,5.443h-1.794l-2.271-7.927h1.891l1.39,5.729l1.509-5.729h1.321
			l1.498,5.729l1.391-5.729h1.889l-2.258,7.927H44.42z"/>
		<path fill="#FFFFFF" d="M50.455,61.061v-7.927h5.61v1.485h-3.922v1.664h3.84v1.485h-3.84v1.809h3.922v1.483H50.455z"/>
		<path fill="#FFFFFF" d="M63.051,61.061l-1.556-2.816h-1.236v2.816H58.57v-7.927h3.708c1.654,0,2.675,1.082,2.675,2.555
			c0,1.392-0.891,2.15-1.748,2.354l1.796,3.019H63.051z M63.218,55.677c0-0.654-0.51-1.058-1.177-1.058h-1.782v2.14h1.782
			C62.708,56.759,63.218,56.355,63.218,55.677z"/>
		<path fill="#FFFFFF" d="M67.399,61.061v-7.927h1.688v7.927H67.399z"/>
		<path fill="#FFFFFF" d="M77.31,61.061l-3.779-5.169v5.169h-1.688v-7.927h1.734l3.673,4.979v-4.979h1.688v7.927H77.31z"/>
		<path fill="#FFFFFF" d="M81.311,57.104c0-2.509,1.903-4.101,4.233-4.101c1.64,0,2.674,0.831,3.268,1.771l-1.391,0.761
			c-0.368-0.56-1.046-1.034-1.877-1.034c-1.451,0-2.497,1.106-2.497,2.604c0,1.498,1.046,2.604,2.497,2.604
			c0.701,0,1.355-0.309,1.676-0.607v-0.951h-2.093v-1.474h3.78v3.043c-0.807,0.903-1.937,1.487-3.362,1.487
			C83.214,61.205,81.311,59.6,81.311,57.104z"/>
		<path fill="#FFFFFF" d="M97.509,61.061v-6.441H95.19v-1.485h6.323v1.485h-2.305v6.441H97.509z"/>
		<path fill="#FFFFFF" d="M109.214,61.061v-3.338h-3.744v3.338h-1.688v-7.927h1.688v3.113h3.744v-3.113h1.7v7.927H109.214z"/>
		<path fill="#FFFFFF" d="M113.657,61.061v-7.927h5.611v1.485h-3.923v1.664h3.84v1.485h-3.84v1.809h3.923v1.483H113.657z"/>
		<path fill="#FFFFFF" d="M126.015,57.887v-4.753h1.712v4.705c0,1.106,0.641,1.868,1.865,1.868s1.854-0.762,1.854-1.868v-4.705
			h1.724v4.753c0,1.962-1.166,3.318-3.578,3.318C127.179,61.205,126.015,59.849,126.015,57.887z"/>
		<path fill="#FFFFFF" d="M141.393,61.061l-3.779-5.169v5.169h-1.688v-7.927h1.735l3.673,4.979v-4.979h1.688v7.927H141.393z"/>
		<path fill="#FFFFFF" d="M145.775,61.061v-7.927h4.172c1.511,0,2.281,0.962,2.281,2.02c0,0.987-0.617,1.665-1.366,1.82
			c0.856,0.13,1.521,0.949,1.521,1.937c0,1.201-0.783,2.15-2.305,2.15H145.775z M150.507,55.452c0-0.488-0.357-0.833-0.928-0.833
			h-2.115v1.664h2.115C150.149,56.283,150.507,55.962,150.507,55.452z M150.661,58.672c0-0.5-0.356-0.903-1.011-0.903h-2.187v1.809
			h2.187C150.28,59.577,150.661,59.244,150.661,58.672z"/>
		<path fill="#FFFFFF" d="M160.321,61.061l-0.5-1.343h-3.4l-0.498,1.343h-1.915l3.056-7.927h2.116l3.055,7.927H160.321z
			 M158.121,54.82l-1.236,3.412h2.473L158.121,54.82z"/>
		<path fill="#FFFFFF" d="M169.626,61.061l-3.78-5.169v5.169h-1.688v-7.927h1.734l3.673,4.979v-4.979h1.688v7.927H169.626z"/>
		<path fill="#FFFFFF" d="M178.715,61.061l-2.4-3.184l-0.618,0.748v2.436h-1.688v-7.927h1.688v3.53l2.805-3.53h2.081l-3.151,3.72
			l3.364,4.207H178.715z"/>
		<path fill="#FFFFFF" d="M182.754,61.061v-7.927h5.61v1.485h-3.922v1.664h3.84v1.485h-3.84v1.809h3.922v1.483H182.754z"/>
		<path fill="#FFFFFF" d="M190.87,61.061v-7.927h3.126c2.484,0,4.209,1.58,4.209,3.956c0,2.403-1.725,3.971-4.197,3.971H190.87z
			 M196.48,57.09c0-1.391-0.854-2.471-2.473-2.471h-1.449v4.958h1.438C195.565,59.577,196.48,58.447,196.48,57.09z"/>
	</g>
</g>
</svg>
