<?xml version="1.0" encoding="utf-8"?>
<!-- Generator: Adobe Illustrator 21.0.1, SVG Export Plug-In . SVG Version: 6.00 Build 0)  -->
<svg version="1.1" id="Layer_1" xmlns="http://www.w3.org/2000/svg" xmlns:xlink="http://www.w3.org/1999/xlink" x="0px" y="0px"
	 viewBox="0 0 135.168 169.851" style="enable-background:new 0 0 135.168 169.851;" xml:space="preserve">
<style type="text/css">
	.st0{fill:#C5E2FF;}
	.st1{fill:#BEDDFC;}
	.st2{fill:#B8D7F8;}
	.st3{fill:#B1D2F5;}
	.st4{fill:#AACDF1;}
	.st5{fill:#A4C8EE;}
	.st6{fill:#9DC2EB;}
	.st7{fill:#96BDE7;}
	.st8{fill:#90B8E4;}
	.st9{fill:#89B2E1;}
	.st10{fill:#82ADDD;}
	.st11{fill:#7CA8DA;}
	.st12{fill:#75A3D6;}
	.st13{fill:#6E9DD3;}
	.st14{fill:#6898D0;}
	.st15{fill:#6193CC;}
	.st16{fill:#5A8DC9;}
	.st17{fill:#5488C6;}
	.st18{fill:#4D83C2;}
	.st19{fill:#467EBF;}
	.st20{fill:#4078BB;}
	.st21{fill:#3973B8;}
	.st22{fill:#FFFFFF;}
</style>
<g>
	<g>
		<path class="st0" d="M76.125,0.423c8.881,0,17.989,2.408,22.628,3.843c13.236,4.095,23.469,12.574,29.593,24.521
			c7.704,15.03,8.53,34.367,2.267,53.054c-1.916,5.716-4.691,11.518-7.63,17.661c-6.972,14.574-14.181,29.645-10.223,44.82
			c0.693,2.656,2.134,8.183-3.901,10.858c-4.819,2.136-23.241,8.46-33.139,11.858c-2.979,1.023-5.132,1.762-6.088,2.102
			c-0.537,0.191-1.1,0.288-1.674,0.288c-3.646,0-7.107-3.74-8.512-7.259c-3.362-8.42-6.936-17.289-7.948-19.224
			c-1.188-2.271-2.696-4.456-5.656-5.059c-1.151-0.234-2.324-0.348-3.585-0.348c-3.067,0-6.109,0.697-9.05,1.37
			c-0.607,0.139-1.213,0.278-1.819,0.411c-2.379,0.522-5.139,1.078-7.784,1.078c-1.743,0-3.205-0.237-4.469-0.724
			c-4.098-1.58-7.446-7.706-5.793-13.539c0.079-0.278,0.179-0.548,0.285-0.833c0.099-0.267,0.198-0.534,0.28-0.806
			c0.413-1.381-0.838-3.414-3.264-5.308c-1.043-0.814-1.173-2.492-0.852-3.706c0.23-0.871,0.629-1.471,1.377-2.068
			c0.426-0.34,0.633-0.697,0.615-1.061c-0.016-0.333-0.212-0.626-0.584-0.868c-0.258-0.168-0.526-0.304-0.785-0.435
			c-0.274-0.139-0.534-0.27-0.77-0.432c-0.983-0.676-1.098-1.9-0.879-2.821c0.102-0.429,0.226-0.824,0.367-1.174l0.114-0.281
			c0.845-2.082,1.513-3.727,0.049-5.575c-1.503-1.896-4.361-3.139-6.381-3.492c-0.793-0.138-1.85-0.867-2.296-2.138
			c-0.507-1.446-0.013-3.117,1.391-4.706c3.422-3.873,13.234-17.24,13.332-17.374c0.103-0.14,2.507-3.496,0.179-8.762
			c-1.909-4.32-4.475-15.375-0.52-26.3C19.3,26.119,27.243,16.753,38.61,10.155c4.648-2.698,9.825-4.882,15.386-6.491
			c3.23-0.935,6.617-1.681,10.066-2.219c3.371-0.525,6.851-0.858,10.363-0.991C74.986,0.433,75.552,0.423,76.125,0.423 M76.125,0
			c-0.578,0-1.149,0.01-1.715,0.032c-0.007,0-0.013,0-0.019,0.001c-3.483,0.132-6.961,0.461-10.393,0.995
			c-3.432,0.535-6.818,1.275-10.119,2.23C48.423,4.836,43.203,7,38.398,9.789c-10.618,6.163-19.203,15.377-23.795,28.06
			c-3.758,10.38-1.724,21.514,0.531,26.615c2.255,5.101-0.133,8.34-0.133,8.34S5.141,86.245,1.692,90.149
			c-3.449,3.904-0.884,7.186,1.15,7.541c2.034,0.355,4.751,1.608,6.122,3.338c1.371,1.73,0.655,3.259-0.224,5.434
			c-0.16,0.395-0.288,0.82-0.386,1.234c-0.284,1.194-0.013,2.536,1.051,3.268c0.495,0.34,1.062,0.545,1.563,0.873
			c0.611,0.399,0.447,0.836-0.064,1.245c-0.794,0.635-1.26,1.301-1.522,2.291c-0.363,1.374-0.194,3.216,1.001,4.148
			c2.438,1.903,3.444,3.766,3.119,4.853c-0.166,0.555-0.408,1.086-0.567,1.645c-1.423,5.021,0.923,12.073,6.047,14.049
			c1.418,0.547,2.999,0.753,4.621,0.753c2.693,0,5.501-0.567,7.875-1.088c3.569-0.782,7.139-1.771,10.778-1.771
			c1.159,0,2.325,0.1,3.501,0.34c2.725,0.555,4.141,2.499,5.366,4.84c1.03,1.968,4.872,11.526,7.93,19.185
			c1.56,3.906,5.229,7.525,8.905,7.525c0.608,0,1.216-0.099,1.816-0.312c4.22-1.502,33.009-11.202,39.257-13.972
			c6.248-2.77,4.888-8.476,4.138-11.352c-5.564-21.333,11.337-42.826,17.844-62.24c10.462-31.211,1.671-67.653-32.135-78.113
			C91.943,1.716,83.571,0,76.125,0L76.125,0z"/>
	</g>
	<g>
		<g>
			<path class="st1" d="M75.837,3.574c8.698,0,17.763,2.492,22.393,3.977c12.742,4.088,22.581,12.356,28.454,23.911
				c7.314,14.389,8.124,32.865,2.21,50.723c-1.795,5.355-4.387,10.866-7.132,16.702c-6.719,14.286-13.668,29.059-9.871,43.615
				c0.618,2.371,2.066,7.924-3.704,10.483c-0.823,0.365-2.235,0.87-3.869,1.455c-0.825,0.295-1.712,0.613-2.623,0.948
				c-2.747,1.01-6.004,1.919-9.453,2.882c-3.194,0.892-6.497,1.814-9.534,2.861c-6.005,1.849-10.977,3.256-12.386,3.642
				c-0.456,0.125-0.932,0.188-1.415,0.188c-3.704,0-7.333-3.64-8.867-7.064c-3.332-7.44-7.289-16.189-8.316-17.823l-0.042-0.067
				c-0.782-1.244-1.52-2.419-2.613-3.233c-0.689-0.562-1.52-0.911-2.779-1.167c-0.653-0.133-1.36-0.197-2.161-0.197
				c-0.728,0-1.457,0.052-2.161,0.103l-0.52,0.037c-1.963,0.132-3.913,0.696-5.8,1.242c-1.03,0.298-2.096,0.606-3.136,0.834
				c-0.542,0.119-1.095,0.265-1.681,0.419c-1.173,0.31-2.386,0.63-3.605,0.751c-0.749,0.074-1.488,0.112-2.199,0.112
				c-1.768,0-3.32-0.238-4.489-0.689c-4.684-1.806-6.806-8.541-5.505-13.131c0.077-0.272,0.176-0.543,0.274-0.814
				c0.094-0.258,0.187-0.516,0.264-0.773c0.403-1.348-0.819-3.377-3.115-5.168c-0.953-0.744-1.126-2.364-0.805-3.58
				c0.226-0.853,0.616-1.451,1.305-2.003c0.411-0.329,0.61-0.679,0.593-1.04c-0.011-0.227-0.118-0.558-0.565-0.851
				c-0.24-0.157-0.492-0.291-0.734-0.42c-0.266-0.141-0.516-0.274-0.746-0.432c-0.937-0.645-1.033-1.87-0.829-2.723
				c0.104-0.436,0.221-0.817,0.349-1.133l0.07-0.172c0.807-1.994,1.504-3.716,0.083-5.51c-1.435-1.811-4.149-3.101-6.089-3.44
				c-0.761-0.133-1.748-0.884-2.161-2.064c-0.499-1.423-0.034-3.044,1.31-4.565c3.261-3.692,12.608-16.801,12.704-16.935
				c0.098-0.14,2.385-3.487,0.167-8.506c-1.818-4.113-3.688-13.508-1.39-22.535c0.285-1.119,0.586-2.12,0.895-2.974
				C20.784,27.927,28.767,18.282,39.09,12.29c1.229-0.713,2.672-1.377,4.068-2.02c0.348-0.16,0.69-0.317,1.02-0.472
				c2.274-1.063,4.603-1.673,7.068-2.319c0.915-0.24,1.862-0.488,2.807-0.761c0.847-0.245,1.691-0.384,2.583-0.53
				c0.613-0.101,1.247-0.205,1.892-0.349c1.75-0.446,3.552-0.833,5.355-1.15c3.402-0.596,6.897-0.962,10.406-1.087
				C74.801,3.583,75.317,3.574,75.837,3.574 M75.837,3.153c-0.526,0-1.046,0.009-1.562,0.028c-0.007,0-0.013,0-0.02,0.001
				c-3.516,0.126-7.014,0.491-10.444,1.092c-1.818,0.319-3.616,0.705-5.387,1.156c-1.512,0.338-3.009,0.455-4.488,0.883
				C50.511,7.304,47.182,7.93,44,9.417c-1.644,0.768-3.563,1.604-5.122,2.509c-10.112,5.87-18.288,15.301-22.662,27.38
				c-0.355,0.981-0.656,2.025-0.907,3.013c-2.285,8.976-0.522,18.433,1.413,22.809c2.147,4.858-0.126,8.093-0.126,8.093
				s-9.39,13.18-12.675,16.898c-3.285,3.718-0.842,6.986,1.095,7.324c1.937,0.338,4.525,1.638,5.83,3.286
				c1.305,1.648,0.624,3.19-0.213,5.262c-0.152,0.376-0.274,0.798-0.368,1.193c-0.271,1.137-0.013,2.471,1.001,3.168
				c0.471,0.324,1.012,0.546,1.489,0.858c0.582,0.38,0.426,0.819-0.061,1.209c-0.756,0.605-1.2,1.282-1.449,2.224
				c-0.346,1.308-0.185,3.132,0.953,4.02c2.322,1.812,3.28,3.68,2.971,4.715c-0.158,0.529-0.389,1.059-0.54,1.592
				c-1.355,4.782,0.879,11.757,5.759,13.639c1.35,0.521,3.003,0.717,4.641,0.717c0.76,0,1.517-0.042,2.24-0.114
				c1.862-0.185,3.706-0.821,5.334-1.178c2.943-0.645,5.887-1.866,8.873-2.067c0.879-0.059,1.764-0.138,2.653-0.138
				c0.689,0,1.382,0.048,2.077,0.189c1.043,0.212,1.887,0.503,2.597,1.081c1.064,0.793,1.787,1.96,2.565,3.198
				c1.024,1.629,5.025,10.484,8.288,17.771c1.71,3.819,5.504,7.314,9.252,7.314c0.512,0,1.022-0.065,1.526-0.203
				c1.644-0.45,6.611-1.863,12.398-3.646c6.289-2.168,13.663-3.785,19.008-5.75c2.741-1.007,5.263-1.857,6.517-2.413
				c5.95-2.638,4.656-8.236,3.941-10.975c-5.299-20.318,10.797-41.587,16.995-60.076c0.004-0.011,0.007-0.023,0.011-0.034
				c9.942-30.021,1.372-64.767-30.946-75.135C91.511,4.953,83.241,3.153,75.837,3.153L75.837,3.153z"/>
		</g>
	</g>
	<g>
		<g>
			<path class="st2" d="M75.562,6.725c6.315,0,14.179,1.46,22.145,4.111c31.341,10.43,38.553,43.946,29.469,71.692
				c-1.673,4.991-4.081,10.206-6.631,15.726c-6.469,14.005-13.157,28.488-9.522,42.426c0.931,3.569,1.373,7.943-3.508,10.107
				c-0.639,0.283-1.759,0.658-3.056,1.092c-1.062,0.355-2.266,0.758-3.44,1.19c-2.498,0.918-5.457,1.509-8.591,2.135
				c-3.163,0.632-6.433,1.285-9.431,2.319c-5.468,1.461-10.252,2.542-11.984,2.881c-0.358,0.07-0.73,0.105-1.105,0.105
				c-3.821,0-7.558-3.466-9.275-6.89c-5.003-9.975-7.846-15.348-8.69-16.428c-0.196-0.25-0.38-0.502-0.562-0.749
				c-0.61-0.831-1.187-1.615-1.992-2.152c-0.71-0.579-1.521-0.743-2.46-0.932l-0.191-0.039c-0.408-0.083-0.837-0.123-1.31-0.123
				c-0.682,0-1.357,0.085-2.011,0.167c-0.445,0.056-0.865,0.108-1.289,0.137c-1.734,0.117-3.446,0.742-5.103,1.347
				c-1.116,0.408-2.269,0.829-3.388,1.074c-0.638,0.14-1.288,0.36-1.977,0.593c-0.996,0.337-2.025,0.686-3.043,0.787
				c-0.71,0.07-1.439,0.106-2.165,0.106c-1.284,0-3.109-0.113-4.509-0.653c-4.406-1.699-6.458-8.349-5.218-12.722
				c0.074-0.261,0.169-0.529,0.264-0.796c0.088-0.248,0.175-0.496,0.248-0.737c0.388-1.296-0.832-3.364-2.966-5.029
				c-0.9-0.702-1.062-2.303-0.758-3.453c0.221-0.834,0.601-1.431,1.233-1.937c0.493-0.394,0.582-0.772,0.571-1.02
				c-0.011-0.224-0.114-0.551-0.545-0.833c-0.217-0.142-0.448-0.272-0.679-0.401c-0.258-0.145-0.502-0.281-0.727-0.436
				c-0.829-0.57-0.986-1.76-0.78-2.624c0.106-0.443,0.217-0.81,0.33-1.092l0.023-0.056c0.805-1.991,1.5-3.711,0.119-5.453
				c-1.245-1.572-3.737-3.028-5.796-3.387c-0.704-0.123-1.626-0.845-2.027-1.987c-0.491-1.401-0.055-2.973,1.229-4.427
				c3.101-3.51,11.707-15.963,12.076-16.497c0.093-0.14,2.264-3.477,0.155-8.249c-1.687-3.817-3.538-13.121-1.319-21.834
				c0.214-0.839,0.503-1.924,0.85-2.882C22.33,29.568,30.11,19.916,39.57,14.425c0.943-0.548,2.171-1.07,3.359-1.575
				c0.645-0.274,1.254-0.534,1.804-0.791c1.775-0.829,3.591-1.141,5.514-1.47c1.255-0.215,2.553-0.437,3.864-0.817
				c0.717-0.207,1.441-0.256,2.207-0.308c0.659-0.045,1.341-0.091,2.056-0.252c1.741-0.498,3.535-0.929,5.332-1.281
				c3.424-0.667,6.933-1.064,10.45-1.183C74.62,6.733,75.089,6.725,75.562,6.725 M75.562,6.305c-0.478,0-0.951,0.008-1.421,0.024
				c-0.007,0-0.013,0-0.02,0.001c-3.548,0.12-7.068,0.522-10.496,1.19c-1.819,0.356-3.611,0.786-5.367,1.289
				c-1.436,0.321-2.858,0.154-4.264,0.56c-3.254,0.942-6.417,0.897-9.439,2.31c-1.562,0.73-3.715,1.524-5.196,2.383
				c-9.607,5.576-17.374,15.225-21.529,26.699c-0.337,0.932-0.623,1.983-0.862,2.922c-2.171,8.527-0.496,17.95,1.342,22.108
				c2.04,4.615-0.12,7.846-0.12,7.846S9.269,86.557,6.149,90.089c-3.12,3.532-0.8,6.785,1.04,7.106
				c1.84,0.321,4.299,1.669,5.539,3.234c1.24,1.565,0.593,3.122-0.202,5.09c-0.144,0.357-0.26,0.777-0.35,1.152
				c-0.257,1.08-0.012,2.406,0.951,3.068c0.448,0.308,0.961,0.547,1.414,0.843c0.553,0.361,0.405,0.802-0.058,1.172
				c-0.718,0.575-1.14,1.262-1.377,2.158c-0.329,1.243-0.175,3.049,0.905,3.892c2.206,1.721,3.116,3.594,2.822,4.577
				c-0.15,0.502-0.369,1.033-0.513,1.539c-1.287,4.543,0.835,11.442,5.471,13.229c1.283,0.495,3.006,0.681,4.66,0.681
				c0.768,0,1.52-0.04,2.207-0.108c1.769-0.176,3.52-1.049,5.068-1.388c2.796-0.613,5.592-2.222,8.43-2.413
				c1.082-0.073,2.173-0.303,3.271-0.303c0.408,0,0.817,0.032,1.226,0.115c0.991,0.202,1.795,0.335,2.469,0.884
				c1.019,0.682,1.658,1.773,2.489,2.834c1.028,1.313,5.178,9.444,8.646,16.357c1.876,3.74,5.829,7.121,9.651,7.121
				c0.398,0,0.793-0.037,1.186-0.113c1.703-0.332,6.514-1.417,12.012-2.887c5.974-2.06,12.98-2.599,18.058-4.466
				c2.604-0.957,5.33-1.764,6.522-2.292c5.653-2.506,4.423-7.996,3.744-10.597c-5.034-19.302,10.257-40.348,16.145-57.913
				c0.004-0.011,0.007-0.022,0.01-0.032c9.441-28.838,1.099-61.928-29.745-72.192C91.083,8.189,82.92,6.305,75.562,6.305
				L75.562,6.305z"/>
		</g>
	</g>
	<g>
		<g>
			<path class="st3" d="M75.298,9.875c7.93,0,16.279,2.309,21.886,4.245c13.664,4.719,23.478,14.334,28.382,27.806
				c4.484,12.318,4.448,26.85-0.108,40.946c-1.551,4.626-3.774,9.535-6.128,14.732c-5.93,13.093-12.651,27.933-9.176,41.256
				c0.829,3.18,1.388,7.648-3.312,9.732c-0.551,0.244-1.58,0.564-2.772,0.934c-1.174,0.364-2.504,0.778-3.729,1.227
				c-2.316,0.851-5.068,1.157-7.983,1.482c-3.045,0.339-6.194,0.689-9.071,1.684c-5.222,1.16-9.877,1.917-11.585,2.121
				c-0.242,0.029-0.491,0.044-0.741,0.044c-3.911,0-7.859-3.39-9.739-6.739c-0.534-0.951-1.077-1.925-1.619-2.896
				c-3.883-6.962-6.348-11.298-7.447-12.139c-0.619-0.892-1.397-1.876-2.477-2.517c-0.56-0.445-1.184-0.54-1.844-0.641
				c-0.208-0.032-0.425-0.065-0.653-0.111c-0.282-0.057-0.572-0.085-0.886-0.085c-0.684,0-1.355,0.136-2.003,0.268
				c-0.516,0.105-1.004,0.204-1.487,0.236c-1.592,0.107-3.154,0.813-4.664,1.496c-1.117,0.505-2.272,1.028-3.384,1.271
				c-0.663,0.145-1.332,0.43-2.04,0.73c-0.892,0.379-1.814,0.771-2.712,0.86c-0.663,0.066-1.4,0.101-2.132,0.101
				c-1.888,0-3.497-0.219-4.529-0.617c-4.088-1.576-6.129-8.089-4.931-12.314c0.071-0.251,0.163-0.516,0.254-0.78
				c0.082-0.238,0.163-0.475,0.231-0.7c0.324-1.084-0.539-3.112-2.817-4.89c-0.825-0.644-1.009-2.197-0.71-3.327
				c0.216-0.816,0.585-1.41,1.161-1.871c0.475-0.38,0.56-0.753,0.548-0.999c-0.011-0.222-0.11-0.543-0.526-0.815
				c-0.196-0.128-0.404-0.252-0.613-0.375c-0.245-0.145-0.491-0.29-0.718-0.447c-0.751-0.517-0.936-1.661-0.73-2.525
				c0.069-0.291,0.177-0.717,0.312-1.051c0.757-1.874,1.472-3.644,0.132-5.336c-1.224-1.545-3.642-3.01-5.504-3.335
				c-0.647-0.113-1.504-0.805-1.891-1.908c-0.28-0.8-0.504-2.421,1.148-4.29c2.941-3.329,11.096-15.533,11.447-16.059
				c0.088-0.139,2.143-3.467,0.143-7.993c-1.696-3.838-3.267-13.208-1.249-21.134c0.217-0.854,0.488-1.916,0.805-2.791
				c4.038-11.152,11.594-20.797,20.212-25.8c0.819-0.475,2-0.935,3.142-1.379c0.769-0.299,1.496-0.582,2.095-0.862
				c1.54-0.719,3.124-0.818,4.801-0.923c1.322-0.082,2.688-0.167,4.081-0.57c0.355-0.103,0.739-0.149,1.246-0.149
				c0.243,0,0.486,0.01,0.73,0.02c0.256,0.01,0.513,0.021,0.77,0.021c0.491,0,0.894-0.039,1.304-0.133
				c1.729-0.551,3.516-1.026,5.308-1.412c3.439-0.737,6.963-1.166,10.493-1.278C74.443,9.882,74.869,9.875,75.298,9.875
				L75.298,9.875 M75.298,9.457c-0.434,0-0.864,0.007-1.292,0.021c-0.007,0-0.013,0-0.02,0.001
				c-3.581,0.113-7.121,0.553-10.547,1.287c-1.819,0.392-3.606,0.867-5.348,1.422c-0.393,0.088-0.786,0.113-1.177,0.113
				c-0.502,0-1.002-0.041-1.5-0.041c-0.456,0-0.91,0.034-1.363,0.165c-3.083,0.892-6.079,0.178-8.942,1.516
				c-1.48,0.691-3.867,1.444-5.27,2.258c-9.101,5.283-16.46,15.148-20.396,26.019c-0.32,0.883-0.59,1.941-0.817,2.83
				c-2.057,8.079-0.47,17.468,1.272,21.406c1.933,4.373-0.114,7.599-0.114,7.599s-8.451,12.66-11.407,16.006
				c-2.956,3.346-0.758,6.585,0.985,6.889c1.743,0.304,4.072,1.699,5.247,3.182c1.175,1.483,0.562,3.054-0.192,4.918
				c-0.137,0.339-0.247,0.755-0.331,1.111c-0.244,1.023-0.011,2.34,0.9,2.967c0.424,0.292,0.911,0.547,1.34,0.828
				c0.524,0.342,0.384,0.785-0.055,1.136c-0.681,0.544-1.08,1.243-1.304,2.091c-0.311,1.177-0.166,2.965,0.858,3.764
				c2.09,1.631,2.952,3.508,2.674,4.439c-0.142,0.476-0.35,1.006-0.486,1.486c-1.22,4.304,0.791,11.126,5.183,12.819
				c1.215,0.469,3.01,0.645,4.68,0.645c0.775,0,1.522-0.038,2.173-0.103c1.676-0.166,3.335-1.277,4.801-1.598
				c2.649-0.581,5.298-2.578,7.986-2.759c1.143-0.077,2.3-0.503,3.463-0.503c0.267,0,0.535,0.023,0.802,0.077
				c0.939,0.191,1.704,0.167,2.342,0.688c0.975,0.571,1.711,1.454,2.412,2.47c1.23,0.808,5.334,8.404,9.003,14.943
				c2.059,3.668,6.213,6.953,10.104,6.953c0.265,0,0.529-0.015,0.79-0.047c1.769-0.212,6.417-0.972,11.626-2.128
				c5.66-1.951,12.297-1.413,17.107-3.181c2.467-0.907,5.397-1.671,6.526-2.171c5.355-2.374,4.19-7.755,3.547-10.22
				c-4.769-18.286,9.717-39.109,15.295-55.749c0.003-0.01,0.006-0.02,0.009-0.031c8.94-27.655,0.828-59.106-28.544-69.25
				C90.657,11.423,82.609,9.457,75.298,9.457L75.298,9.457z"/>
		</g>
	</g>
	<g>
		<g>
			<path class="st4" d="M75.043,12.608v0.418c7.773,0,16.045,2.382,21.616,4.379c12.996,4.66,22.349,13.904,27.049,26.73
				c4.307,11.755,4.32,25.626,0.031,39.081c-1.428,4.259-3.464,8.853-5.621,13.716c-5.694,12.842-12.148,27.397-8.833,40.108
				c1.254,4.81,0.235,7.87-3.115,9.356c-0.491,0.218-1.482,0.502-2.629,0.831c-1.247,0.358-2.661,0.763-3.875,1.21
				c-2.15,0.79-4.718,0.822-7.437,0.855c-2.895,0.036-5.889,0.073-8.68,1.028l-1.149,0.198c-3.65,0.63-7.098,1.225-9.036,1.225
				c-0.353,0-0.649-0.02-0.882-0.059c-3.624-0.607-8.328-2.887-10.668-6.614c-0.469-0.747-0.943-1.506-1.416-2.263
				c-4.119-6.594-6.757-10.744-8.035-11.385c-0.604-0.768-1.356-1.603-2.373-2.119c-0.491-0.38-1.035-0.418-1.562-0.454
				c-0.256-0.018-0.52-0.036-0.795-0.092c-0.205-0.042-0.422-0.063-0.644-0.063c-0.683,0-1.344,0.195-1.983,0.383
				c-0.53,0.156-1.031,0.304-1.517,0.337c-1.486,0.1-2.93,0.895-4.326,1.664c-1.135,0.625-2.208,1.216-3.278,1.45
				c-0.666,0.146-1.329,0.492-2.031,0.858c-0.812,0.424-1.652,0.862-2.455,0.942c-0.625,0.062-1.351,0.095-2.098,0.095
				c-1.933,0-3.591-0.212-4.549-0.581c-3.825-1.475-5.783-7.886-4.644-11.906c0.069-0.242,0.157-0.507,0.245-0.769
				c0.076-0.226,0.15-0.451,0.212-0.658c0.314-1.049-0.515-3.07-2.668-4.75c-0.749-0.584-0.947-2.126-0.663-3.2
				c0.211-0.798,0.567-1.388,1.089-1.805c0.356-0.285,0.543-0.632,0.526-0.979c-0.01-0.219-0.107-0.535-0.506-0.797
				c-0.163-0.107-0.335-0.214-0.508-0.323c-0.255-0.16-0.513-0.322-0.749-0.484c-0.703-0.483-0.875-1.611-0.681-2.426
				c0.085-0.358,0.18-0.728,0.294-1.01c0.667-1.65,1.422-3.52,0.121-5.162c-1.224-1.544-3.513-2.986-5.211-3.282
				c-0.59-0.103-1.383-0.763-1.756-1.827c-0.277-0.789-0.506-2.377,1.066-4.157c2.781-3.148,10.485-15.103,10.819-15.621
				c0.083-0.139,2.022-3.457,0.131-7.736c-1.697-3.84-3.051-13.077-1.178-20.433l0.083-0.327c0.197-0.78,0.42-1.663,0.676-2.372
				c4.031-11.135,11.164-20.525,19.079-25.12c0.734-0.426,1.91-0.843,3.048-1.245c0.852-0.302,1.657-0.587,2.263-0.87
				c0.775-0.362,1.62-0.524,2.74-0.524c0.511,0,1.02,0.031,1.558,0.065c0.538,0.033,1.095,0.068,1.653,0.068
				c0.935,0,1.708-0.098,2.434-0.308c0.202-0.058,0.419-0.087,0.664-0.087c0.359,0,0.726,0.06,1.115,0.123
				c0.408,0.066,0.83,0.135,1.264,0.135c0.267,0,0.512-0.026,0.794-0.092c1.718-0.603,3.496-1.122,5.285-1.542
				c3.45-0.806,6.989-1.268,10.537-1.374c0.384-0.012,0.77-0.018,1.159-0.018V12.608 M75.043,12.608
				c-0.393,0-0.783,0.006-1.172,0.018c-0.007,0-0.014,0-0.02,0.001c-3.614,0.107-7.175,0.584-10.599,1.384
				c-1.82,0.428-3.601,0.949-5.328,1.555c-0.219,0.049-0.438,0.068-0.656,0.068c-0.798,0-1.592-0.257-2.379-0.257
				c-0.261,0-0.521,0.028-0.78,0.103c-0.779,0.225-1.552,0.291-2.318,0.291c-1.085,0-2.156-0.132-3.212-0.132
				c-0.987,0-1.959,0.116-2.916,0.563c-1.397,0.653-4.019,1.363-5.344,2.133c-8.595,4.989-15.545,15.072-19.263,25.339
				c-0.302,0.834-0.557,1.899-0.771,2.739c-1.943,7.63-0.443,16.985,1.201,20.705c1.825,4.13-0.107,7.352-0.107,7.352
				s-7.982,12.4-10.774,15.56c-2.792,3.16-0.716,6.384,0.931,6.671c1.646,0.287,3.846,1.73,4.956,3.13
				c1.11,1.401,0.531,2.985-0.181,4.746c-0.129,0.32-0.233,0.734-0.313,1.069c-0.23,0.966-0.011,2.275,0.85,2.867
				c0.401,0.275,0.86,0.548,1.266,0.813c0.495,0.323,0.362,0.768-0.052,1.1c-0.643,0.514-1.02,1.224-1.232,2.025
				c-0.294,1.112-0.157,2.882,0.81,3.636c1.974,1.54,2.788,3.422,2.525,4.302c-0.134,0.449-0.331,0.98-0.459,1.433
				c-1.152,4.064,0.747,10.81,4.896,12.41c1.148,0.443,3.014,0.609,4.699,0.609c0.782,0,1.525-0.036,2.14-0.097
				c1.583-0.157,3.15-1.504,4.534-1.808c2.502-0.548,5.004-2.934,7.542-3.105c1.144-0.077,2.307-0.719,3.472-0.719
				c0.187,0,0.374,0.017,0.561,0.055c0.887,0.18,1.612-0.001,2.215,0.491c0.93,0.46,1.645,1.218,2.336,2.106
				c1.297,0.422,5.491,7.365,9.361,13.529c2.328,3.708,6.968,6.137,10.952,6.804c0.263,0.044,0.583,0.064,0.951,0.064
				c2.179,0,6.08-0.712,10.288-1.434c5.345-1.843,11.613-0.227,16.157-1.897c2.33-0.856,5.464-1.578,6.53-2.051
				c5.058-2.242,3.957-7.515,3.35-9.843c-4.504-17.27,9.178-37.87,14.445-53.586c0.003-0.01,0.005-0.019,0.008-0.029
				c8.44-26.472,0.559-56.302-27.343-66.308C90.235,14.657,82.307,12.608,75.043,12.608L75.043,12.608z"/>
		</g>
	</g>
	<g>
		<g>
			<path class="st5" d="M74.798,16.175c6.034,0,13.413,1.561,21.338,4.514c12.329,4.594,21.222,13.462,25.716,25.647
				c4.129,11.194,4.191,24.407,0.169,37.224c-1.303,3.888-3.152,8.155-5.109,12.671c-5.461,12.603-11.651,26.887-8.495,38.988
				c1.192,4.572,0.21,7.593-2.919,8.981c-0.442,0.196-1.464,0.466-2.545,0.751c-1.305,0.345-2.785,0.735-3.963,1.169
				c-0.909,0.334-1.947,0.489-3.267,0.489c-1.162,0-2.369-0.119-3.646-0.246c-1.314-0.13-2.674-0.264-4.02-0.264
				c-1.62,0-3.001,0.201-4.221,0.616l-1.339,0.155c-2.836,0.331-5.515,0.643-7.409,0.643c-0.826,0-1.465-0.061-1.901-0.181
				c-2.305-0.634-7.97-2.542-10.78-6.54l-1.021-1.455c-4.894-6.983-7.456-10.456-8.827-10.807c-0.586-0.643-1.309-1.328-2.261-1.719
				c-0.364-0.272-0.752-0.31-1.085-0.31c-0.101,0-0.206,0.004-0.313,0.008c-0.102,0.004-0.207,0.008-0.316,0.008
				c-0.193,0-0.352-0.014-0.5-0.044c-0.158-0.032-0.323-0.048-0.491-0.048c-0.678,0-1.322,0.258-1.945,0.508
				c-0.52,0.208-1.011,0.405-1.475,0.436c-1.397,0.094-2.739,0.982-4.038,1.841c-1.038,0.687-2.111,1.397-3.122,1.619
				c-0.66,0.145-1.305,0.552-1.988,0.984c-0.743,0.469-1.512,0.955-2.231,1.026c-0.579,0.057-1.313,0.089-2.065,0.089
				c-1.975,0-3.683-0.204-4.569-0.546c-3.79-1.461-5.347-8.003-4.357-11.498c0.067-0.236,0.154-0.504,0.239-0.768
				c0.068-0.211,0.135-0.419,0.191-0.606c0.308-1.031-0.567-3.088-2.519-4.611c-0.698-0.545-0.885-2.057-0.616-3.074
				c0.206-0.78,0.548-1.365,1.017-1.74c0.336-0.269,0.52-0.618,0.504-0.959c-0.015-0.306-0.188-0.583-0.487-0.778
				c-0.379-0.248-0.808-0.535-1.183-0.792c-0.629-0.433-0.818-1.545-0.63-2.335c0.07-0.292,0.165-0.692,0.274-0.962
				c0.579-1.433,1.372-3.396,0.111-4.989c-1.072-1.353-3.205-2.931-4.919-3.23c-0.534-0.093-1.261-0.721-1.619-1.742
				c-0.273-0.779-0.508-2.337,0.984-4.026c2.621-2.967,9.874-14.673,10.19-15.184c0.078-0.139,1.901-3.447,0.119-7.478
				c-1.396-3.159-2.961-12.454-1.108-19.732l0.132-0.529c0.171-0.693,0.365-1.479,0.582-2.079
				c3.108-8.583,9.454-19.511,17.947-24.441c0.665-0.386,1.854-0.768,3.003-1.137c0.918-0.295,1.786-0.574,2.382-0.853
				c0.491-0.229,1.028-0.341,1.64-0.341c0.722,0,1.458,0.149,2.236,0.306c0.81,0.164,1.647,0.333,2.504,0.333
				c0.541,0,1.034-0.067,1.508-0.204c0.127-0.037,0.259-0.055,0.405-0.055c0.373,0,0.77,0.119,1.189,0.244
				c0.464,0.139,0.943,0.282,1.449,0.282c0.181,0,0.357-0.019,0.523-0.056c0.02-0.004,0.039-0.01,0.058-0.018
				c1.704-0.654,3.475-1.217,5.262-1.673c3.459-0.876,7.012-1.37,10.581-1.469C74.098,16.181,74.447,16.175,74.798,16.175
				 M74.798,15.759c-0.356,0-0.709,0.005-1.062,0.016c-0.007,0-0.014,0-0.02,0.001c-3.646,0.101-7.229,0.615-10.65,1.481
				c-1.821,0.464-3.596,1.03-5.309,1.688c-0.144,0.032-0.288,0.046-0.432,0.046c-0.886,0-1.766-0.526-2.638-0.526
				c-0.174,0-0.347,0.021-0.52,0.071c-0.467,0.135-0.931,0.187-1.393,0.187c-1.613,0-3.195-0.64-4.74-0.64
				c-0.612,0-1.217,0.1-1.816,0.38c-1.315,0.615-4.17,1.283-5.417,2.007c-8.09,4.696-14.631,14.996-18.129,24.659
				c-0.284,0.784-0.525,1.857-0.726,2.647c-1.828,7.181-0.417,16.502,1.13,20.003c1.718,3.887-0.101,7.105-0.101,7.105
				s-7.512,12.139-10.14,15.114c-2.628,2.974-0.674,6.184,0.876,6.454c1.55,0.27,3.62,1.761,4.664,3.079
				c1.044,1.318,0.499,2.917-0.17,4.574c-0.122,0.301-0.219,0.712-0.294,1.028c-0.217,0.909-0.01,2.21,0.8,2.767
				c0.377,0.259,0.809,0.549,1.191,0.798c0.465,0.304,0.341,0.752-0.049,1.063c-0.605,0.484-0.96,1.204-1.159,1.958
				c-0.277,1.047-0.148,2.798,0.762,3.508c1.858,1.45,2.624,3.335,2.376,4.164c-0.127,0.423-0.311,0.954-0.432,1.38
				c-1.084,3.825,0.703,10.494,4.608,12c1.08,0.416,3.018,0.573,4.719,0.573c0.789,0,1.528-0.034,2.106-0.091
				c1.49-0.148,2.965-1.732,4.268-2.018c2.355-0.516,4.709-3.29,7.099-3.451c1.116-0.075,2.255-0.943,3.392-0.943
				c0.136,0,0.272,0.012,0.408,0.04c0.203,0.041,0.397,0.053,0.583,0.053c0.221,0,0.43-0.016,0.628-0.016
				c0.32,0,0.611,0.041,0.876,0.258c0.885,0.35,1.579,0.982,2.259,1.742c1.363,0.035,5.651,6.327,9.719,12.114
				c2.458,3.498,7.197,5.653,11.01,6.702c0.502,0.138,1.187,0.196,2.012,0.196c2.225,0,5.463-0.419,8.841-0.807
				c1.331-0.459,2.723-0.608,4.129-0.608c2.603,0,5.256,0.51,7.667,0.51c1.211,0,2.36-0.129,3.411-0.515
				c2.193-0.806,5.531-1.485,6.534-1.93c4.76-2.111,3.725-7.275,3.153-9.466c-4.239-16.254,8.638-36.631,13.596-51.422
				c0.003-0.009,0.004-0.018,0.007-0.027c7.939-25.289,0.294-53.516-26.142-63.366C89.814,17.89,82.013,15.759,74.798,15.759
				L74.798,15.759z"/>
		</g>
	</g>
	<g>
		<g>
			<path class="st6" d="M74.561,19.325c6.006,0,13.089,1.564,21.051,4.649c11.663,4.518,20.095,13.009,24.386,24.557
				c3.952,10.638,4.062,23.194,0.305,35.373c-1.178,3.513-2.836,7.437-4.592,11.592c-5.231,12.377-11.161,26.406-8.162,37.904
				c0.789,3.025,0.957,6.974-2.723,8.605c-0.4,0.177-1.416,0.423-2.492,0.684c-1.355,0.328-2.892,0.7-4.021,1.115
				c-0.592,0.218-1.252,0.324-2.018,0.324c-1.358,0-2.827-0.331-4.383-0.681c-1.651-0.372-3.359-0.756-5.041-0.756
				c-1.011,0-1.911,0.137-2.751,0.419c-0.516,0.026-1.031,0.054-1.54,0.081c-1.836,0.099-3.569,0.193-5.071,0.193
				c-1.729,0-2.916-0.13-3.631-0.399c-2.875-1.079-8.226-3.089-10.888-6.468l-0.415-0.527c-5.057-6.423-8.247-10.329-9.841-10.347
				c-0.564-0.518-1.254-1.054-2.14-1.324c-0.211-0.149-0.454-0.221-0.739-0.221c-0.187,0-0.372,0.031-0.55,0.06
				c-0.18,0.03-0.349,0.058-0.522,0.058c-0.091,0-0.175-0.008-0.256-0.024c-0.125-0.025-0.255-0.038-0.387-0.038
				c-0.67,0-1.294,0.325-1.897,0.639c-0.497,0.259-0.967,0.504-1.395,0.533c-1.318,0.089-2.568,1.073-3.777,2.026
				c-0.982,0.774-1.998,1.574-2.939,1.78c-0.648,0.142-1.27,0.612-1.928,1.109c-0.681,0.515-1.385,1.047-2.025,1.111
				c-0.542,0.054-1.264,0.083-2.031,0.083c-2.015,0-3.773-0.195-4.589-0.51c-3.526-1.36-5.008-7.779-4.07-11.09
				c0.067-0.237,0.156-0.52,0.241-0.794c0.058-0.186,0.115-0.367,0.162-0.527c0.307-1.027-0.572-3.069-2.37-4.472
				c-0.682-0.532-0.793-2.101-0.569-2.947c0.14-0.531,0.418-1.253,0.945-1.674c0.322-0.258,0.498-0.6,0.481-0.938
				c-0.014-0.303-0.181-0.573-0.468-0.76c-0.208-0.136-0.433-0.297-0.654-0.456c-0.156-0.112-0.31-0.222-0.455-0.322
				c-0.572-0.393-0.763-1.47-0.582-2.229l0.021-0.09c0.064-0.273,0.145-0.612,0.236-0.838c0.64-1.584,1.228-3.392,0.1-4.816
				c-1.071-1.352-3.095-2.911-4.627-3.178c-0.478-0.083-1.14-0.678-1.483-1.654c-0.459-1.31-0.131-2.731,0.901-3.899
				c2.461-2.786,9.264-14.244,9.562-14.748c0.074-0.139,1.781-3.436,0.108-7.221c-1.303-2.947-2.807-12.08-1.037-19.032
				c0.05-0.197,0.103-0.418,0.158-0.649c0.151-0.632,0.322-1.348,0.51-1.868c3.103-8.569,9.149-19.312,16.815-23.761
				c0.605-0.351,1.814-0.703,2.983-1.043c0.976-0.284,1.898-0.552,2.476-0.822c0.335-0.157,0.689-0.233,1.08-0.233
				c0.768,0,1.569,0.29,2.417,0.597c0.911,0.33,1.853,0.671,2.834,0.671c0.367,0,0.724-0.049,1.061-0.147
				c0.081-0.023,0.164-0.035,0.253-0.035c0.353,0,0.747,0.179,1.163,0.368c0.485,0.22,0.986,0.448,1.53,0.448
				c0.135,0,0.267-0.014,0.395-0.043c0.024-0.005,0.047-0.013,0.069-0.022c1.691-0.706,3.453-1.313,5.239-1.803
				c3.465-0.945,7.033-1.471,10.625-1.564C73.929,19.329,74.244,19.325,74.561,19.325 M74.561,18.91
				c-0.321,0-0.64,0.004-0.959,0.013c-0.007,0-0.014,0-0.021,0.001c-3.679,0.095-7.282,0.645-10.702,1.578
				c-1.822,0.5-3.591,1.111-5.289,1.821c-0.101,0.023-0.203,0.033-0.304,0.033c-0.905,0-1.804-0.816-2.694-0.816
				c-0.123,0-0.246,0.016-0.368,0.051c-0.316,0.092-0.632,0.131-0.946,0.131c-1.793,0-3.547-1.268-5.25-1.268
				c-0.422,0-0.84,0.078-1.256,0.272c-1.233,0.576-4.322,1.203-5.491,1.882c-7.584,4.402-13.716,14.919-16.996,23.979
				c-0.266,0.735-0.492,1.815-0.681,2.556c-1.714,6.732-0.391,16.02,1.06,19.302c1.611,3.644-0.095,6.858-0.095,6.858
				s-7.043,11.879-9.506,14.667c-2.463,2.788-0.632,5.983,0.821,6.236c1.453,0.253,3.394,1.791,4.373,3.027
				c0.979,1.236,0.468,2.849-0.16,4.402c-0.114,0.282-0.205,0.691-0.276,0.987c-0.203,0.853-0.009,2.144,0.75,2.667
				c0.354,0.243,0.759,0.549,1.117,0.783c0.436,0.285,0.32,0.735-0.046,1.027c-0.567,0.454-0.9,1.185-1.087,1.892
				c-0.259,0.981-0.138,2.715,0.715,3.381c1.742,1.359,2.46,3.249,2.228,4.026c-0.119,0.397-0.292,0.927-0.405,1.327
				c-1.016,3.586,0.659,10.179,4.32,11.59c1.013,0.39,3.022,0.538,4.738,0.538c0.797,0,1.53-0.032,2.072-0.085
				c1.397-0.139,2.779-1.96,4.001-2.228c2.208-0.484,4.415-3.647,6.655-3.797c1.072-0.072,2.171-1.171,3.264-1.171
				c0.101,0,0.203,0.009,0.304,0.03c0.116,0.024,0.229,0.033,0.339,0.033c0.394,0,0.75-0.118,1.072-0.118
				c0.195,0,0.378,0.043,0.549,0.183c0.841,0.239,1.514,0.746,2.183,1.378c0.043-0.01,0.088-0.016,0.135-0.016
				c1.555,0,5.805,5.465,9.941,10.716c2.59,3.288,7.434,5.235,11.068,6.6c0.85,0.319,2.178,0.425,3.777,0.425
				c1.95,0,4.304-0.158,6.69-0.278c0.868-0.299,1.764-0.416,2.672-0.416c3.191,0,6.542,1.436,9.423,1.436
				c0.757,0,1.48-0.099,2.161-0.349c2.056-0.756,5.597-1.393,6.538-1.81c4.463-1.979,3.492-7.035,2.956-9.089
				c-3.974-15.238,8.098-35.392,12.746-49.259c0.003-0.009,0.004-0.017,0.007-0.026c7.438-24.106,0.032-50.75-24.941-60.423
				C89.396,21.121,81.726,18.91,74.561,18.91L74.561,18.91z"/>
		</g>
	</g>
	<g>
		<g>
			<path class="st7" d="M74.331,22.061v0.414c5.898,0,12.882,1.609,20.757,4.784c10.998,4.433,18.971,12.545,23.057,23.46
				c3.775,10.084,3.932,21.988,0.44,33.53c-1.05,3.133-2.515,6.695-4.067,10.467c-4.758,11.568-10.68,25.965-7.837,36.864
				c0.621,2.38,1.118,6.614-2.526,8.23c-0.361,0.16-1.378,0.385-2.455,0.623c-1.401,0.31-2.989,0.661-4.062,1.055
				c-0.409,0.15-0.848,0.223-1.344,0.223c-1.378,0-2.918-0.569-4.549-1.171c-1.773-0.655-3.607-1.331-5.41-1.331
				c-0.68,0-1.327,0.1-1.924,0.296c-4.541-0.111-8.763-0.716-9.954-0.9c-3.522-0.543-8.098-3.219-10.879-6.363
				c-4.921-5.562-8.547-9.499-10.406-9.499c-0.091,0-0.178,0.009-0.262,0.027c-0.541-0.397-1.196-0.791-2.018-0.945
				c-0.162-0.104-0.346-0.157-0.546-0.157c-0.232,0-0.45,0.069-0.661,0.135c-0.197,0.062-0.382,0.121-0.562,0.121
				c-0.047,0-0.096-0.004-0.145-0.014c-0.104-0.021-0.208-0.031-0.312-0.031c-0.66,0-1.259,0.395-1.838,0.777
				c-0.448,0.295-0.911,0.601-1.295,0.627c-1.246,0.084-2.408,1.167-3.532,2.215c-0.921,0.859-1.874,1.747-2.74,1.937
				c-0.634,0.139-1.227,0.672-1.854,1.235c-0.623,0.56-1.267,1.138-1.832,1.194c-0.498,0.049-1.226,0.078-1.998,0.078
				c-2.053,0-3.862-0.186-4.609-0.474c-3.165-1.22-4.669-7.554-3.782-10.681c0.081-0.285,0.194-0.662,0.292-0.988l0.084-0.28
				c0.298-0.995-0.589-3.059-2.221-4.333c-0.632-0.493-0.732-2.024-0.522-2.821c0.139-0.527,0.404-1.233,0.873-1.608
				c0.303-0.243,0.475-0.586,0.459-0.918c-0.014-0.299-0.174-0.562-0.448-0.742c-0.174-0.114-0.36-0.257-0.545-0.399
				c-0.167-0.129-0.334-0.256-0.489-0.363c-0.511-0.352-0.703-1.415-0.532-2.13l0.034-0.147c0.057-0.245,0.127-0.549,0.204-0.74
				c0.629-1.557,1.132-3.327,0.09-4.642c-0.842-1.063-2.764-2.852-4.334-3.126c-0.412-0.072-1.023-0.643-1.345-1.561
				c-0.215-0.614-0.566-2.21,0.817-3.776c2.301-2.605,8.653-13.815,8.933-14.311c0.069-0.138,1.66-3.425,0.096-6.962
				c-1.26-2.851-2.584-11.976-0.966-18.331c0.054-0.212,0.111-0.46,0.172-0.723c0.134-0.585,0.287-1.247,0.452-1.702
				c3.098-8.556,8.844-19.112,15.682-23.082c0.55-0.319,1.84-0.657,2.978-0.956c1.029-0.27,2.001-0.525,2.555-0.783
				c0.232-0.108,0.471-0.161,0.731-0.161c0.752,0,1.559,0.44,2.414,0.906c0.945,0.515,1.923,1.048,2.961,1.048
				c0.27,0,0.536-0.037,0.79-0.111c0.05-0.014,0.1-0.021,0.154-0.021c0.316,0,0.711,0.25,1.093,0.491
				c0.487,0.308,0.991,0.626,1.559,0.626c0.106,0,0.21-0.011,0.311-0.034c0.027-0.006,0.054-0.015,0.08-0.027
				c1.676-0.757,3.431-1.408,5.216-1.933c3.47-1.014,7.052-1.572,10.669-1.659c0.284-0.008,0.568-0.011,0.853-0.011V22.061
				 M74.331,22.061c-0.289,0-0.577,0.004-0.864,0.011c-0.007,0-0.014,0-0.021,0c-3.712,0.089-7.336,0.676-10.753,1.675
				c-1.823,0.537-3.586,1.192-5.27,1.953c-0.074,0.017-0.147,0.024-0.221,0.024c-0.891,0-1.776-1.117-2.651-1.117
				c-0.09,0-0.18,0.012-0.269,0.038c-0.226,0.065-0.451,0.094-0.675,0.094c-1.839,0-3.636-1.954-5.374-1.954
				c-0.304,0-0.606,0.06-0.906,0.2c-1.151,0.538-4.474,1.123-5.565,1.756c-7.079,4.109-12.802,14.843-15.863,23.298
				c-0.249,0.686-0.459,1.773-0.635,2.464c-1.6,6.283-0.365,15.537,0.989,18.6c1.503,3.401-0.088,6.611-0.088,6.611
				S19.59,87.336,17.29,89.938c-2.299,2.602-0.59,5.782,0.766,6.019c1.356,0.237,3.167,1.822,4.081,2.975
				c0.914,1.153,0.437,2.78-0.149,4.23c-0.106,0.263-0.192,0.669-0.258,0.946c-0.19,0.796-0.009,2.079,0.7,2.567
				c0.33,0.227,0.708,0.55,1.042,0.768c0.407,0.266,0.298,0.718-0.043,0.991c-0.529,0.423-0.84,1.166-1.015,1.826
				c-0.242,0.916-0.129,2.631,0.667,3.253c1.625,1.268,2.296,3.163,2.079,3.888c-0.111,0.37-0.272,0.901-0.378,1.274
				c-0.949,3.347,0.615,9.863,4.032,11.18c0.945,0.364,3.025,0.502,4.758,0.502c0.804,0,1.533-0.03,2.039-0.08
				c1.304-0.129,2.594-2.188,3.734-2.437c2.06-0.452,4.121-4.003,6.211-4.144c1.018-0.068,2.067-1.402,3.106-1.402
				c0.077,0,0.153,0.007,0.23,0.023c0.077,0.016,0.153,0.022,0.227,0.022c0.458,0,0.864-0.256,1.223-0.256
				c0.134,0,0.262,0.036,0.383,0.135c0.796,0.128,1.448,0.51,2.106,1.013c0.1-0.049,0.213-0.073,0.338-0.073
				c1.756,0,5.937,4.658,10.096,9.359c2.724,3.079,7.35,5.916,11.126,6.498c2.095,0.323,6.029,0.812,10.08,0.906
				c0.607-0.209,1.23-0.298,1.861-0.298c3.36,0,6.969,2.502,9.959,2.502c0.516,0,1.012-0.074,1.486-0.249
				c1.919-0.705,5.664-1.3,6.542-1.689c4.165-1.847,3.259-6.795,2.759-8.712c-3.709-14.222,7.558-34.153,11.896-47.096
				c0.003-0.008,0.003-0.016,0.006-0.024c6.937-22.923-0.226-48.004-23.74-57.481C88.979,24.35,81.445,22.061,74.331,22.061
				L74.331,22.061z"/>
		</g>
	</g>
	<g>
		<g>
			<path class="st8" d="M48.549,25.511c0.704,0,1.526,0.622,2.32,1.223c0.942,0.713,1.916,1.45,2.976,1.45
				c0.207,0,0.412-0.029,0.608-0.086c0.028-0.008,0.056-0.012,0.085-0.012c0.27,0,0.658,0.325,1,0.611
				c0.478,0.4,0.972,0.813,1.553,0.813c0.086,0,0.171-0.009,0.254-0.028c0.031-0.007,0.062-0.018,0.09-0.032
				c1.662-0.809,3.409-1.503,5.193-2.063c3.473-1.083,7.071-1.673,10.714-1.754c0.255-0.006,0.509-0.01,0.765-0.01
				c5.88,0,12.572,1.609,20.456,4.918c10.335,4.338,17.849,12.068,21.729,22.354c3.597,9.535,3.801,20.788,0.578,31.674
				c-0.004,0.012-0.008,0.027-0.012,0.042c-0.919,2.739-2.185,5.908-3.524,9.263c-4.55,11.393-10.212,25.573-7.523,35.883
				c0.479,1.838,1.212,6.284-2.33,7.854c-0.325,0.144-1.348,0.35-2.43,0.567c-1.444,0.29-3.08,0.619-4.091,0.991
				c-0.286,0.105-0.587,0.156-0.92,0.156c-1.325,0-2.853-0.818-4.471-1.685c-1.795-0.961-3.651-1.955-5.482-1.955
				c-0.482,0-0.947,0.071-1.385,0.211c-3.606-0.396-7.18-1.129-9.562-1.648c-3.491-0.761-8.109-3.403-10.98-6.284
				c-5.029-5.046-8.535-8.173-10.472-8.173c-0.224,0-0.428,0.04-0.61,0.12c-0.516-0.281-1.136-0.543-1.899-0.584
				c-0.125-0.07-0.262-0.105-0.408-0.105c-0.266,0-0.501,0.115-0.729,0.227c-0.186,0.091-0.378,0.185-0.539,0.185
				c-0.026,0-0.052-0.002-0.078-0.008c-0.086-0.017-0.171-0.026-0.257-0.026c-0.649,0-1.22,0.467-1.772,0.919
				c-0.418,0.342-0.849,0.695-1.184,0.718c-1.178,0.079-2.255,1.263-3.297,2.408c-0.858,0.943-1.745,1.918-2.532,2.091
				c-0.619,0.136-1.179,0.732-1.772,1.362c-0.542,0.576-1.156,1.229-1.647,1.277c-0.462,0.046-1.178,0.072-1.964,0.072
				c-2.121,0-3.938-0.172-4.629-0.438c-2.922-1.126-4.333-7.318-3.495-10.273l0.02-0.069c0.097-0.343,0.234-0.826,0.33-1.146
				c0.255-0.852-0.426-2.909-2.072-4.193c-0.562-0.438-0.675-1.937-0.475-2.694c0.195-0.738,0.48-1.285,0.801-1.543
				c0.289-0.231,0.453-0.567,0.437-0.898c-0.014-0.295-0.166-0.552-0.429-0.724c-0.144-0.094-0.313-0.234-0.476-0.369
				c-0.165-0.137-0.33-0.273-0.484-0.379c-0.46-0.317-0.641-1.37-0.483-2.032l0.042-0.185c0.05-0.222,0.113-0.499,0.178-0.66
				c0.525-1.299,1.104-3.176,0.079-4.469c-0.753-0.95-2.567-2.816-4.042-3.073c-0.358-0.062-0.902-0.597-1.206-1.464
				c-0.214-0.609-0.57-2.185,0.733-3.659c2.142-2.424,8.043-13.387,8.304-13.875c0.064-0.138,1.539-3.413,0.085-6.704
				c-1.2-2.715-2.377-11.812-0.896-17.631c0.055-0.217,0.114-0.484,0.177-0.768c0.12-0.546,0.256-1.166,0.401-1.566
				c1.501-4.145,6.986-18.011,14.55-22.402c0.497-0.289,1.817-0.599,2.982-0.874c1.079-0.254,2.098-0.494,2.625-0.74
				C48.214,25.547,48.376,25.511,48.549,25.511 M48.549,25.098c-0.224,0-0.447,0.046-0.668,0.149
				c-1.069,0.499-4.626,1.043-5.639,1.631c-6.573,3.815-11.888,14.767-14.73,22.618c-0.231,0.637-0.426,1.731-0.59,2.373
				c-1.486,5.835-0.339,15.054,0.918,17.899c1.396,3.158-0.082,6.365-0.082,6.365s-6.104,11.358-8.239,13.775
				c-2.135,2.417-0.547,5.582,0.712,5.802c1.259,0.22,2.941,1.852,3.79,2.923c0.849,1.071,0.406,2.712-0.138,4.058
				c-0.099,0.245-0.178,0.648-0.239,0.904c-0.176,0.739-0.008,2.014,0.65,2.467c0.306,0.211,0.658,0.551,0.968,0.753
				c0.378,0.247,0.277,0.701-0.04,0.955c-0.492,0.393-0.78,1.146-0.942,1.759c-0.225,0.85-0.12,2.548,0.619,3.125
				c1.509,1.178,2.132,3.077,1.931,3.75c-0.103,0.344-0.253,0.874-0.351,1.221c-0.881,3.108,0.571,9.547,3.744,10.77
				c0.878,0.338,3.029,0.466,4.778,0.466c0.811,0,1.535-0.027,2.005-0.074c1.21-0.12,2.409-2.415,3.467-2.647
				c1.913-0.419,3.826-4.359,5.768-4.49c0.958-0.064,1.95-1.635,2.928-1.635c0.058,0,0.117,0.006,0.175,0.017
				c0.054,0.011,0.108,0.016,0.161,0.016c0.481,0,0.903-0.412,1.268-0.412c0.096,0,0.188,0.029,0.277,0.101
				c0.752,0.017,1.382,0.274,2.03,0.649c0.17-0.122,0.375-0.18,0.612-0.18c1.947,0,6.038,3.896,10.18,8.052
				c2.859,2.869,7.498,5.593,11.184,6.396c2.181,0.475,5.932,1.258,9.694,1.665c0.439-0.151,0.887-0.218,1.34-0.218
				c3.348,0,7.003,3.64,9.953,3.64c0.366,0,0.72-0.056,1.062-0.182c1.782-0.655,5.731-1.207,6.546-1.568
				c3.868-1.715,3.026-6.555,2.562-8.335c-3.444-13.206,7.018-32.914,11.047-44.932c0.002-0.007,0.002-0.015,0.005-0.022
				c6.436-21.74-0.479-45.28-22.539-54.539c-6.159-2.585-13.553-4.95-20.616-4.95c-0.259,0-0.517,0.003-0.775,0.01
				c-0.007,0-0.014,0-0.021,0c-3.745,0.083-7.389,0.707-10.805,1.772c-1.824,0.573-3.581,1.274-5.25,2.086
				c-0.055,0.012-0.109,0.018-0.164,0.018c-0.859,0-1.711-1.425-2.553-1.425c-0.067,0-0.133,0.009-0.2,0.028
				c-0.165,0.048-0.33,0.07-0.494,0.07C52.03,27.771,50.259,25.098,48.549,25.098L48.549,25.098z"/>
		</g>
	</g>
	<g>
		<g>
			<path class="st9" d="M48.933,27.808c0.638,0,1.421,0.785,2.178,1.545c0.915,0.918,1.861,1.867,2.92,1.867
				c0.162,0,0.324-0.023,0.516-0.073c0.218,0,0.611,0.422,0.898,0.731c0.46,0.494,0.935,1.006,1.523,1.006
				c0.071,0,0.143-0.008,0.212-0.023c0.035-0.008,0.069-0.02,0.1-0.037c1.647-0.86,3.387-1.598,5.17-2.193
				c3.476-1.152,7.088-1.774,10.758-1.849c0.227-0.005,0.453-0.008,0.683-0.008c5.788,0,12.378,1.653,20.149,5.053
				c9.673,4.233,16.729,11.578,20.405,21.241c3.419,8.989,3.669,19.595,0.708,29.85c-0.004,0.013-0.008,0.028-0.012,0.044
				c-0.785,2.338-1.847,5.086-2.972,7.995c-4.35,11.249-9.763,25.248-7.224,34.983c0.255,0.978,1.35,5.934-2.134,7.479
				c-0.29,0.129-1.369,0.325-2.413,0.514c-1.484,0.27-3.167,0.576-4.113,0.923c-0.2,0.073-0.406,0.109-0.632,0.109
				c-1.235,0-2.706-1.074-4.265-2.211c-1.759-1.283-3.578-2.61-5.385-2.61c-0.346,0-0.683,0.05-1.005,0.148
				c-2.87-0.601-5.825-1.443-7.991-2.059l-1.183-0.335c-3.519-0.987-8.075-3.539-11.081-6.205c-3.85-3.415-8.101-6.907-10.445-6.907
				c-0.406,0-0.758,0.098-1.05,0.292c-0.513-0.178-0.972-0.262-1.428-0.262c-0.12,0-0.242,0.006-0.363,0.018
				c-0.092-0.041-0.191-0.063-0.293-0.063c-0.294,0-0.537,0.168-0.771,0.331c-0.165,0.115-0.353,0.245-0.515,0.245
				c-0.002,0-0.004,0-0.006,0c-0.072-0.015-0.144-0.022-0.215-0.022c-0.637,0-1.176,0.541-1.698,1.064
				c-0.368,0.369-0.785,0.787-1.067,0.806c-1.113,0.075-2.062,1.303-3.067,2.603c-0.793,1.026-1.613,2.087-2.318,2.242
				c-0.601,0.132-1.127,0.791-1.683,1.49c-0.468,0.587-1.05,1.318-1.47,1.36c-0.425,0.042-1.129,0.066-1.931,0.066
				c-1.794,0-3.928-0.125-4.649-0.403c-1.188-0.458-2.239-2.01-2.884-4.258c-0.576-2.007-0.706-4.261-0.324-5.607
				c0.036-0.128,0.08-0.29,0.126-0.458c0.068-0.25,0.14-0.515,0.196-0.704c0.249-0.834-0.448-2.903-1.923-4.054
				c-0.497-0.388-0.616-1.853-0.427-2.568c0.248-0.937,0.533-1.32,0.729-1.477c0.271-0.217,0.43-0.553,0.415-0.878
				c-0.014-0.291-0.159-0.542-0.41-0.705c-0.122-0.08-0.272-0.214-0.416-0.344c-0.153-0.138-0.311-0.28-0.469-0.388
				c-0.396-0.272-0.58-1.32-0.433-1.933l0.048-0.212c0.044-0.203,0.099-0.455,0.154-0.592c0.535-1.324,0.981-3.144,0.069-4.296
				c-0.51-0.644-2.29-2.766-3.75-3.021c-0.305-0.053-0.782-0.548-1.067-1.359c-0.166-0.473-0.609-2.126,0.647-3.548
				c1.983-2.244,7.432-12.96,7.675-13.44c0.059-0.137,1.419-3.402,0.074-6.445c-1.087-2.459-2.207-11.504-0.825-16.93
				c0.055-0.215,0.113-0.494,0.176-0.793c0.107-0.514,0.229-1.098,0.357-1.45c2.386-6.589,7.301-18.172,13.417-21.723
				c0.447-0.259,1.799-0.544,2.993-0.795c1.126-0.237,2.19-0.461,2.688-0.693C48.715,27.832,48.821,27.808,48.933,27.808
				 M48.933,27.397c-0.167,0-0.332,0.035-0.498,0.112c-0.986,0.461-4.778,0.962-5.713,1.505
				c-6.067,3.522-10.973,14.691-13.597,21.938c-0.213,0.588-0.393,1.689-0.544,2.282c-1.371,5.386-0.313,14.572,0.848,17.197
				c1.289,2.915-0.076,6.118-0.076,6.118s-5.634,11.098-7.605,13.329c-1.971,2.231-0.505,5.381,0.657,5.584
				c1.162,0.203,2.715,1.883,3.498,2.871c0.783,0.989,0.375,2.643-0.128,3.886c-0.091,0.226-0.164,0.626-0.221,0.863
				c-0.163,0.682-0.008,1.948,0.6,2.366c0.283,0.194,0.607,0.551,0.893,0.738c0.349,0.228,0.256,0.684-0.037,0.918
				c-0.454,0.363-0.72,1.127-0.87,1.693c-0.208,0.785-0.111,2.464,0.572,2.997c1.393,1.087,1.968,2.991,1.782,3.612
				c-0.095,0.317-0.233,0.848-0.324,1.167c-0.813,2.869,0.527,9.231,3.456,10.36c0.81,0.312,3.033,0.43,4.797,0.43
				c0.818,0,1.538-0.025,1.972-0.068c1.117-0.111,2.223-2.643,3.201-2.857c1.766-0.387,3.532-4.715,5.324-4.836
				c0.893-0.06,1.825-1.87,2.738-1.87c0.045,0,0.089,0.004,0.133,0.013c0.039,0.008,0.078,0.012,0.116,0.012
				c0.481,0,0.9-0.58,1.258-0.58c0.07,0,0.138,0.022,0.203,0.076c0.155-0.021,0.306-0.03,0.453-0.03c0.523,0,1.003,0.123,1.5,0.315
				c0.255-0.236,0.584-0.345,0.977-0.345c2.122,0,6.095,3.186,10.172,6.803c2.996,2.658,7.644,5.284,11.242,6.294
				c2.266,0.636,5.835,1.704,9.308,2.424c0.323-0.111,0.651-0.162,0.982-0.162c3.237,0,6.818,4.821,9.649,4.821
				c0.265,0,0.523-0.042,0.774-0.134c1.645-0.605,5.798-1.114,6.55-1.448c3.57-1.583,2.793-6.315,2.365-7.958
				c-3.179-12.191,6.478-31.675,10.197-42.769c0.002-0.007,0.002-0.014,0.004-0.02c5.935-20.557-0.727-42.578-21.338-51.597
				c-6.053-2.648-13.303-5.087-20.313-5.088c-0.232,0-0.462,0.003-0.693,0.008c-0.007,0-0.014,0-0.021,0
				c-3.777,0.077-7.443,0.738-10.857,1.87c-1.825,0.609-3.576,1.355-5.231,2.219c-0.041,0.009-0.082,0.013-0.122,0.013
				c-0.814,0-1.622-1.736-2.421-1.736c-0.05,0-0.1,0.007-0.15,0.021c-0.122,0.035-0.244,0.052-0.366,0.052
				C52.281,30.809,50.576,27.397,48.933,27.397L48.933,27.397z"/>
		</g>
	</g>
	<g>
		<g>
			<path class="st10" d="M49.361,30.096c0.562,0,1.331,0.995,2.009,1.873c0.87,1.127,1.77,2.292,2.812,2.292
				c0.13,0,0.26-0.018,0.384-0.055c0.166,0.001,0.588,0.575,0.791,0.851c0.454,0.617,0.883,1.2,1.473,1.2
				c0.061,0,0.122-0.007,0.181-0.02c0.039-0.009,0.076-0.023,0.11-0.042c1.632-0.911,3.364-1.693,5.148-2.323
				c3.478-1.221,7.105-1.875,10.803-1.944c0.202-0.004,0.405-0.007,0.607-0.007c5.704,0,12.192,1.697,19.836,5.188
				c17.722,8.094,25.725,27.452,19.918,48.153c-0.005,0.014-0.009,0.03-0.012,0.046c-0.644,1.918-1.496,4.199-2.397,6.614
				c-3.943,10.558-9.342,25.017-6.948,34.196c0.149,0.573,1.364,5.639-1.938,7.103c-0.257,0.114-1.347,0.292-2.401,0.464
				c-1.524,0.249-3.251,0.531-4.129,0.853c-0.137,0.05-0.276,0.075-0.427,0.075c-1.123,0-2.578-1.395-3.984-2.743
				c-1.685-1.615-3.427-3.286-5.178-3.286c-0.246,0-0.488,0.034-0.722,0.1c-1.871-0.611-3.828-1.333-5.56-1.972
				c-1.178-0.435-2.291-0.846-3.231-1.167c-3.495-1.197-8.093-3.717-11.181-6.127c-4.993-3.897-8.266-5.712-10.299-5.712
				c-0.653,0-1.19,0.185-1.599,0.552c-0.239-0.036-0.463-0.054-0.681-0.054c-0.345,0-0.679,0.044-1.018,0.135
				c-0.061-0.019-0.125-0.029-0.189-0.029c-0.319,0-0.561,0.226-0.794,0.444c-0.116,0.108-0.332,0.31-0.424,0.31h0
				c-0.061-0.012-0.122-0.018-0.183-0.018c-0.624,0-1.129,0.616-1.617,1.212c-0.304,0.371-0.72,0.879-0.948,0.894
				c-1.05,0.071-1.919,1.396-2.84,2.799c-0.694,1.057-1.48,2.255-2.101,2.392c-0.583,0.128-1.048,0.818-1.588,1.617
				c-0.401,0.594-0.95,1.408-1.299,1.442c-0.383,0.038-1.092,0.061-1.898,0.061c-2.189,0-4.109-0.151-4.669-0.367
				c-2.374-0.915-3.661-6.846-2.921-9.457c0.037-0.132,0.084-0.312,0.131-0.496c0.057-0.223,0.117-0.454,0.164-0.612
				c0.216-0.721-0.371-2.82-1.774-3.915c-0.43-0.336-0.553-1.789-0.38-2.442c0.246-0.928,0.493-1.28,0.657-1.411
				c0.257-0.206,0.408-0.535,0.392-0.858c-0.014-0.283-0.156-0.533-0.39-0.687c-0.101-0.066-0.233-0.196-0.36-0.321
				c-0.145-0.143-0.295-0.29-0.451-0.397c-0.35-0.241-0.518-1.27-0.384-1.834c0.015-0.065,0.032-0.145,0.05-0.231
				c0.037-0.176,0.087-0.418,0.133-0.532c0.338-0.836,1.019-2.91,0.058-4.122c-0.934-1.178-2.308-2.768-3.457-2.969
				c-0.216-0.038-0.646-0.449-0.926-1.246c-0.166-0.472-0.614-2.116,0.56-3.446c1.824-2.064,6.822-12.533,7.046-13.005
				c0.054-0.137,1.298-3.39,0.063-6.186c-0.995-2.25-1.991-11.374-0.755-16.229c0.053-0.208,0.11-0.496,0.171-0.805
				c0.096-0.486,0.205-1.038,0.316-1.347c1.577-4.357,6.377-17.614,12.285-21.043c0.398-0.231,1.845-0.502,3.008-0.719
				c1.223-0.229,2.28-0.426,2.747-0.644C49.229,30.111,49.293,30.096,49.361,30.096 M49.361,29.687
				c-0.124,0-0.248,0.027-0.372,0.084c-0.904,0.423-4.93,0.882-5.787,1.38c-5.562,3.228-10.059,14.614-12.464,21.258
				c-0.195,0.539-0.361,1.646-0.499,2.19c-1.257,4.937-0.287,14.089,0.777,16.496c1.181,2.672-0.07,5.871-0.07,5.871
				s-5.165,10.838-6.971,12.883c-1.806,2.045-0.463,5.181,0.602,5.367c1.065,0.186,2.489,1.913,3.207,2.819
				c0.718,0.906,0.343,2.575-0.117,3.714c-0.084,0.207-0.151,0.605-0.202,0.822c-0.149,0.625-0.007,1.883,0.55,2.266
				c0.259,0.178,0.556,0.552,0.819,0.723c0.32,0.209,0.234,0.668-0.034,0.882c-0.416,0.333-0.66,1.108-0.797,1.626
				c-0.19,0.72-0.102,2.381,0.524,2.869c1.277,0.997,1.804,2.905,1.634,3.474c-0.087,0.291-0.214,0.821-0.297,1.114
				c-0.745,2.63,0.483,8.916,3.168,9.951c0.743,0.286,3.037,0.394,4.817,0.394c0.826,0,1.54-0.023,1.938-0.063
				c1.024-0.102,2.038-2.871,2.934-3.067c1.619-0.355,3.238-5.071,4.88-5.182c0.826-0.056,1.694-2.105,2.537-2.105
				c0.034,0,0.068,0.003,0.102,0.01c0.029,0.006,0.057,0.009,0.085,0.009c0.467,0,0.873-0.755,1.215-0.755
				c0.052,0,0.102,0.017,0.151,0.057c0.369-0.114,0.714-0.162,1.057-0.162c0.272,0,0.543,0.031,0.82,0.083
				c0.358-0.4,0.854-0.581,1.46-0.581c2.269,0,6.088,2.535,10.047,5.625c3.134,2.446,7.785,4.987,11.3,6.191
				c2.348,0.805,5.738,2.149,8.921,3.182c0.239-0.082,0.48-0.12,0.724-0.12c3.067,0,6.494,6.029,9.162,6.029
				c0.194,0,0.383-0.032,0.568-0.1c1.508-0.554,5.865-1.021,6.554-1.327c3.273-1.451,2.561-6.074,2.168-7.581
				c-2.915-11.175,5.938-30.436,9.347-40.605c0.002-0.006,0.001-0.012,0.003-0.019c5.435-19.375-0.968-39.9-20.137-48.654
				c-5.945-2.715-13.047-5.225-20.006-5.225c-0.206,0-0.411,0.002-0.616,0.007c-0.007,0-0.014,0-0.021,0
				c-3.81,0.071-7.497,0.769-10.908,1.967c-1.826,0.645-3.571,1.436-5.212,2.352c-0.03,0.007-0.061,0.01-0.092,0.01
				c-0.762,0-1.517-2.051-2.265-2.051c-0.037,0-0.075,0.005-0.112,0.016c-0.091,0.026-0.182,0.039-0.272,0.039
				C52.526,33.851,50.913,29.687,49.361,29.687L49.361,29.687z"/>
		</g>
	</g>
	<g>
		<g>
			<path class="st11" d="M49.82,32.378c0.481,0,1.256,1.275,1.822,2.206c0.851,1.399,1.654,2.721,2.668,2.721
				c0.094,0,0.189-0.012,0.281-0.035c0.172,0.092,0.494,0.638,0.689,0.969c0.422,0.717,0.821,1.394,1.408,1.394
				c0.053,0,0.106-0.006,0.157-0.017c0.042-0.009,0.082-0.025,0.12-0.047c1.617-0.962,3.341-1.787,5.125-2.453
				c3.479-1.29,7.121-1.976,10.848-2.039c0.178-0.004,0.356-0.005,0.536-0.005c5.631,0,12.015,1.741,19.517,5.323
				c8.357,3.989,14.499,10.555,17.764,18.988c3.061,7.908,3.4,17.23,0.961,26.227c-0.005,0.015-0.009,0.031-0.013,0.048
				c-0.492,1.465-1.12,3.212-1.786,5.061c-3.571,9.924-8.967,24.922-6.709,33.581c0.014,0.053,1.356,5.354-1.741,6.728
				c-0.224,0.099-1.376,0.267-2.393,0.415c-1.562,0.227-3.333,0.484-4.141,0.782c-0.089,0.033-0.18,0.049-0.276,0.049
				c-0.999,0-2.351-1.668-3.658-3.282c-1.583-1.954-3.221-3.975-4.895-3.975c-0.17,0-0.338,0.021-0.501,0.062
				c-0.852-0.397-1.731-0.817-2.607-1.235c-2.026-0.967-4.121-1.967-5.807-2.649c-3.488-1.41-8.127-3.897-11.281-6.048
				c-4.54-3.096-7.812-4.602-10.002-4.602c-0.98,0-1.749,0.305-2.289,0.907c-0.581,0.03-1.106,0.16-1.625,0.401
				c-0.03-0.005-0.06-0.007-0.09-0.007c-0.341,0-0.574,0.285-0.799,0.561c-0.1,0.122-0.285,0.349-0.332,0.376
				c-0.053-0.011-0.105-0.016-0.158-0.016c-0.609,0-1.056,0.661-1.529,1.36c-0.226,0.334-0.645,0.955-0.828,0.981
				c-0.988,0.066-1.778,1.489-2.615,2.996c-0.6,1.08-1.346,2.423-1.882,2.541c-0.563,0.123-0.991,0.875-1.487,1.744
				c-0.298,0.523-0.853,1.498-1.133,1.525c-0.347,0.034-1.044,0.055-1.864,0.055c-2.255,0-4.184-0.136-4.689-0.331
				c-2.109-0.813-3.312-6.655-2.634-9.049c0.036-0.127,0.081-0.311,0.126-0.5c0.05-0.206,0.101-0.418,0.142-0.555
				c0.208-0.696-0.335-2.769-1.625-3.775c-0.368-0.288-0.49-1.723-0.333-2.315c0.073-0.275,0.294-1.113,0.585-1.345
				c0.24-0.192,0.385-0.521,0.37-0.838c-0.013-0.279-0.149-0.522-0.371-0.668c-0.08-0.052-0.2-0.182-0.306-0.297
				c-0.137-0.148-0.278-0.301-0.431-0.406c-0.298-0.205-0.456-1.225-0.335-1.735c0.016-0.065,0.033-0.151,0.051-0.244
				c0.032-0.162,0.076-0.384,0.114-0.478c0.495-1.225,0.804-2.994,0.048-3.949l-0.208-0.265c-0.976-1.251-2.008-2.486-2.957-2.651
				c-0.167-0.029-0.532-0.407-0.784-1.124c-0.342-0.975-0.398-2.369,0.472-3.353c1.665-1.884,6.212-12.107,6.416-12.57
				c0.049-0.137,1.179-3.377,0.052-5.926c-0.925-2.093-1.809-11.111-0.684-15.529c0.05-0.198,0.105-0.492,0.163-0.807
				c0.085-0.461,0.181-0.985,0.279-1.253l0.176-0.486c2.16-5.974,6.181-17.094,10.976-19.878c0.351-0.204,1.834-0.448,3.026-0.644
				c1.473-0.243,2.397-0.404,2.802-0.593C49.752,32.385,49.785,32.378,49.82,32.378 M49.82,31.969c-0.093,0-0.185,0.02-0.277,0.063
				c-0.822,0.384-5.081,0.802-5.861,1.254c-5.056,2.935-9.144,14.538-11.331,20.578c-0.178,0.49-0.328,1.604-0.454,2.099
				c-1.143,4.488-0.261,13.606,0.706,15.794c1.074,2.429-0.063,5.624-0.063,5.624s-4.695,10.578-6.337,12.436
				c-1.642,1.859-0.421,4.98,0.547,5.149c0.969,0.169,2.263,1.944,2.915,2.768c0.653,0.824,0.312,2.507-0.106,3.542
				c-0.076,0.188-0.137,0.583-0.184,0.78c-0.135,0.568-0.006,1.818,0.5,2.166c0.236,0.162,0.506,0.553,0.744,0.708
				c0.291,0.19,0.213,0.651-0.031,0.846c-0.378,0.302-0.6,1.088-0.725,1.56c-0.173,0.654-0.092,2.297,0.477,2.741
				c1.161,0.906,1.64,2.819,1.485,3.337c-0.079,0.264-0.194,0.795-0.27,1.061c-0.678,2.391,0.439,8.6,2.88,9.541
				c0.675,0.26,3.041,0.358,4.836,0.358c0.833,0,1.543-0.021,1.904-0.057c0.931-0.092,1.853-3.099,2.667-3.277
				c1.472-0.323,2.943-5.428,4.437-5.528c0.756-0.051,1.557-2.341,2.33-2.341c0.026,0,0.051,0.003,0.077,0.008
				c0.021,0.004,0.042,0.006,0.062,0.006c0.443,0,0.83-0.935,1.15-0.935c0.038,0,0.075,0.013,0.111,0.043
				c0.618-0.316,1.184-0.434,1.8-0.443c0.482-0.624,1.199-0.901,2.092-0.901c2.374,0,5.995,1.954,9.772,4.531
				c3.274,2.233,7.92,4.699,11.358,6.089c2.426,0.981,5.641,2.595,8.535,3.941c0.176-0.061,0.354-0.089,0.533-0.089
				c2.857,0,6.078,7.256,8.554,7.256c0.142,0,0.28-0.024,0.417-0.074c1.371-0.504,5.932-0.928,6.559-1.206
				c2.975-1.319,2.328-5.834,1.971-7.204c-2.65-10.159,5.399-29.197,8.497-38.442c0.002-0.006,0-0.011,0.002-0.017
				c4.934-18.192-1.202-37.246-18.936-45.712c-5.835-2.786-12.787-5.362-19.693-5.363c-0.182,0-0.362,0.002-0.544,0.005
				c-0.007,0-0.014,0-0.022,0c-3.843,0.065-7.55,0.799-10.96,2.064c-1.826,0.682-3.566,1.517-5.192,2.485
				c-0.023,0.005-0.046,0.008-0.068,0.008c-0.704,0-1.402-2.367-2.092-2.368c-0.028,0-0.056,0.004-0.084,0.012
				c-0.067,0.019-0.135,0.029-0.202,0.029C52.767,36.897,51.264,31.969,49.82,31.969L49.82,31.969z"/>
		</g>
	</g>
	<g>
		<g>
			<path class="st12" d="M50.301,34.654c0.395,0,1.164,1.594,1.624,2.546c0.816,1.691,1.52,3.151,2.496,3.151
				c0.06,0,0.12-0.006,0.179-0.017c0.165,0.152,0.439,0.731,0.608,1.087c0.403,0.851,0.751,1.586,1.331,1.586
				c0.047,0,0.093-0.005,0.139-0.015c0.046-0.01,0.089-0.028,0.128-0.053c1.602-1.013,3.319-1.881,5.103-2.582
				c3.479-1.359,7.136-2.077,10.892-2.134c0.156-0.003,0.311-0.004,0.469-0.004c5.57,0,11.848,1.785,19.194,5.457
				c7.702,3.85,13.39,10.022,16.448,17.848c2.923,7.481,3.295,15.937,1.082,24.43c-0.005,0.016-0.01,0.033-0.013,0.051
				c-0.319,0.95-0.695,2.035-1.107,3.225c-3.245,9.365-8.677,25.04-6.536,33.248c0.344,1.318,0.798,5.314-1.545,6.352
				c-0.204,0.087-1.415,0.242-2.388,0.367c-1.6,0.205-3.413,0.438-4.15,0.709c-0.054,0.02-0.107,0.029-0.164,0.029
				c-0.867,0-2.161-2.033-3.303-3.826c-1.53-2.402-2.975-4.671-4.557-4.671c-0.109,0-0.217,0.011-0.323,0.033
				c-2.448-1.556-5.536-3.461-8.044-4.629c-3.619-1.686-8.192-4.085-11.381-5.969c-4.034-2.383-7.237-3.592-9.521-3.592
				c-1.406,0-2.465,0.46-3.15,1.367c-0.563,0.146-1.069,0.381-1.569,0.729c-0.355,0.004-0.564,0.331-0.784,0.678
				c-0.081,0.128-0.226,0.356-0.314,0.433c-0.022-0.002-0.045-0.003-0.067-0.003c-0.594,0-0.984,0.699-1.435,1.509
				c-0.209,0.375-0.559,1.003-0.709,1.069c-0.927,0.062-1.605,1.513-2.39,3.192c-0.483,1.032-1.212,2.592-1.663,2.69
				c-0.516,0.113-0.861,0.785-1.381,1.871c-0.257,0.536-0.734,1.533-0.972,1.609c-0.307,0.03-1.008,0.049-1.831,0.049
				c-2.285,0-4.265-0.124-4.709-0.295c-1.856-0.716-2.967-6.452-2.347-8.641c0.033-0.118,0.076-0.303,0.118-0.493
				c0.043-0.193,0.087-0.39,0.123-0.51c0.204-0.681-0.339-2.748-1.476-3.636c-0.295-0.23-0.438-1.613-0.286-2.189l0.013-0.049
				c0.076-0.288,0.277-1.052,0.5-1.231c0.226-0.181,0.363-0.502,0.348-0.819c-0.013-0.275-0.141-0.511-0.352-0.649
				c-0.058-0.038-0.17-0.173-0.252-0.272c-0.128-0.154-0.26-0.313-0.41-0.417c-0.228-0.157-0.401-1.151-0.285-1.637
				c0.015-0.064,0.032-0.154,0.051-0.252c0.025-0.132,0.066-0.354,0.096-0.429c0.411-1.018,0.76-2.863,0.037-3.775
				c-0.109-0.137-0.238-0.313-0.381-0.507c-0.889-1.206-1.689-2.217-2.491-2.357c-0.083-0.015-0.39-0.276-0.64-0.99
				c-0.329-0.938-0.426-2.357,0.382-3.272c1.506-1.705,5.602-11.682,5.786-12.135c0.044-0.136,1.059-3.365,0.042-5.666
				c-0.808-1.828-1.626-10.852-0.614-14.828c0.047-0.185,0.099-0.482,0.153-0.802c0.071-0.417,0.16-0.936,0.243-1.167
				c0.226-0.624,0.474-1.331,0.743-2.099c2.011-5.731,5.377-15.322,9.276-17.585c0.304-0.177,1.89-0.405,3.048-0.571
				c1.521-0.219,2.473-0.362,2.855-0.541C50.286,34.655,50.295,34.654,50.301,34.654 M54.682,40.314h0.005H54.682 M50.301,34.247
				c-0.068,0-0.136,0.015-0.204,0.047c-0.74,0.346-5.233,0.722-5.935,1.129c-4.551,2.641-8.23,14.462-10.198,19.897
				c-0.16,0.441-0.295,1.562-0.408,2.007c-1.028,4.039-0.235,13.124,0.636,15.093c0.966,2.186-0.057,5.377-0.057,5.377
				s-4.226,10.317-5.704,11.99s-0.379,4.78,0.493,4.932s2.036,1.974,2.624,2.716c0.587,0.741,0.281,2.438-0.096,3.37
				c-0.068,0.169-0.123,0.561-0.166,0.739c-0.122,0.512-0.006,1.752,0.45,2.066c0.212,0.146,0.455,0.553,0.67,0.693
				c0.262,0.171,0.192,0.634-0.027,0.809c-0.34,0.272-0.54,1.069-0.652,1.493c-0.156,0.589-0.083,2.214,0.429,2.613
				c1.045,0.815,1.476,2.733,1.337,3.199c-0.071,0.238-0.175,0.768-0.243,1.008c-0.61,2.152,0.395,8.284,2.592,9.131
				c0.608,0.234,3.045,0.323,4.855,0.323c0.84,0,1.546-0.019,1.871-0.051c0.838-0.083,1.668-3.326,2.401-3.487
				c1.325-0.29,2.649-5.784,3.993-5.874c0.684-0.046,1.418-2.577,2.117-2.577c0.019,0,0.038,0.002,0.057,0.006
				c0.015,0.003,0.03,0.005,0.045,0.005c0.412,0,0.774-1.119,1.069-1.119c0.028,0,0.055,0.01,0.082,0.032
				c0.573-0.427,1.118-0.67,1.724-0.807c0.63-0.919,1.639-1.32,2.908-1.32c2.418,0,5.787,1.451,9.314,3.535
				c3.415,2.018,8.049,4.418,11.416,5.987c2.499,1.164,5.544,3.041,8.149,4.7c0.129-0.044,0.259-0.066,0.39-0.066
				c2.621,0,5.597,8.497,7.86,8.497c0.103,0,0.204-0.018,0.304-0.054c1.234-0.453,5.998-0.836,6.563-1.086
				c2.678-1.187,2.095-5.594,1.774-6.827c-2.385-9.143,4.859-27.958,7.648-36.278c0.002-0.005-0.001-0.01,0.001-0.015
				c4.433-17.009-1.427-34.618-17.735-42.77c-5.723-2.861-12.522-5.5-19.376-5.5c-0.159,0-0.317,0.001-0.477,0.004
				c-0.007,0-0.015,0-0.022,0c-3.875,0.059-7.604,0.83-11.011,2.161c-1.827,0.718-3.561,1.598-5.173,2.618
				c-0.017,0.004-0.034,0.006-0.05,0.006c-0.642,0-1.278-2.685-1.908-2.686c-0.021,0-0.041,0.003-0.062,0.009
				c-0.049,0.014-0.099,0.021-0.148,0.021C53.004,39.944,51.625,34.247,50.301,34.247L50.301,34.247z"/>
		</g>
	</g>
	<g>
		<g>
			<path class="st13" d="M50.824,36.923h0.005H50.824 M50.803,36.932c0.368,0.161,1.021,1.863,1.414,2.887
				c0.851,2.22,1.418,3.58,2.302,3.58c0.028,0,0.055-0.001,0.083-0.004c0.154,0.203,0.391,0.825,0.538,1.212
				c0.392,1.031,0.675,1.775,1.245,1.775c0.03,0,0.096-0.007,0.125-0.014c0.049-0.011,0.096-0.031,0.137-0.059
				c1.586-1.063,3.296-1.976,5.081-2.712c3.48-1.428,7.152-2.177,10.938-2.228c0.135-0.002,0.269-0.003,0.407-0.003
				c5.599,0,11.594,1.777,18.866,5.592c14.033,7.361,20.442,22.815,16.338,39.34c-0.006,0.017-0.01,0.035-0.014,0.054l-0.28,0.835
				c-2.786,8.287-8.583,25.531-6.512,33.471c0.336,1.287,0.64,5.095-1.345,5.975c-0.201,0.077-1.414,0.213-2.389,0.322
				c-1.637,0.183-3.491,0.39-4.157,0.635c-0.026,0.01-0.051,0.014-0.078,0.014c-0.73,0-2.001-2.53-2.929-4.377
				c-1.388-2.762-2.698-5.371-4.176-5.371c-0.058,0-0.116,0.004-0.173,0.012c-2.649-2.24-5.439-4.194-7.68-5.376
				c-3.1-1.636-7.35-3.797-11.48-5.888c-3.487-1.766-6.539-2.699-8.825-2.699c-1.947,0-3.364,0.653-4.215,1.941
				c-0.551,0.261-1.04,0.605-1.522,1.07c-0.312,0.056-0.482,0.397-0.676,0.786c-0.072,0.145-0.199,0.398-0.283,0.504
				c-0.576,0.001-0.911,0.731-1.335,1.656c-0.178,0.389-0.473,1.03-0.637,1.164c-0.798,0.099-1.329,1.358-2.12,3.384
				c-0.375,0.961-1.074,2.75-1.443,2.84c-0.496,0.109-0.792,0.794-1.272,1.996c-0.236,0.591-0.631,1.58-0.815,1.694
				c-0.271,0.027-0.96,0.044-1.797,0.044c-2.312,0-4.345-0.112-4.729-0.26c-1.574-0.607-2.611-6.288-2.06-8.232
				c0.031-0.108,0.07-0.293,0.109-0.482c0.037-0.181,0.075-0.365,0.106-0.468c0.168-0.562-0.256-2.661-1.327-3.497
				c-0.225-0.175-0.381-1.525-0.239-2.062l0.035-0.137c0.06-0.234,0.241-0.945,0.406-1.076c0.213-0.17,0.34-0.484,0.325-0.8
				c-0.013-0.27-0.134-0.5-0.33-0.628c-0.043-0.032-0.141-0.166-0.2-0.246c-0.118-0.16-0.24-0.326-0.389-0.428
				c-0.186-0.141-0.336-1.119-0.236-1.538c0.015-0.061,0.031-0.155,0.049-0.257c0.02-0.113,0.056-0.324,0.08-0.383
				c0.339-0.84,0.695-2.758,0.027-3.602c-0.126-0.159-0.283-0.392-0.46-0.653c-0.777-1.149-1.426-2.037-2.112-2.156
				c-0.117-0.044-0.428-0.464-0.619-1.233c-0.22-0.889-0.229-2.095,0.407-2.815c1.348-1.526,4.991-11.257,5.156-11.701
				c0.039-0.136,0.939-3.352,0.032-5.405c-0.703-1.591-1.446-10.583-0.543-14.128c0.046-0.18,0.09-0.463,0.141-0.791
				c0.062-0.397,0.139-0.892,0.21-1.087c0.313-0.864,0.667-1.936,1.077-3.177c1.839-5.565,4.618-13.975,7.81-15.828
				c0.27-0.151,1.956-0.361,3.071-0.5C49.462,37.218,50.437,37.091,50.803,36.932 M50.8,36.522c-0.049,0-0.098,0.011-0.148,0.034
				c-0.658,0.307-5.385,0.642-6.009,1.004c-4.045,2.348-7.315,14.386-9.065,19.217c-0.142,0.392-0.262,1.52-0.363,1.916
				c-0.914,3.59-0.209,12.641,0.565,14.391c0.859,1.943-0.051,5.13-0.051,5.13s-3.756,10.057-5.07,11.544
				c-1.314,1.487-0.337,4.579,0.438,4.714c0.775,0.135,1.81,2.005,2.332,2.664c0.522,0.659,0.25,2.37-0.085,3.199
				c-0.061,0.151-0.11,0.54-0.147,0.698c-0.108,0.455-0.005,1.687,0.4,1.966c0.189,0.13,0.405,0.554,0.596,0.678
				c0.233,0.152,0.17,0.617-0.024,0.773c-0.302,0.242-0.48,1.05-0.58,1.427c-0.138,0.523-0.074,2.13,0.381,2.486
				c0.929,0.725,1.312,2.647,1.188,3.061c-0.063,0.211-0.156,0.742-0.216,0.955c-0.542,1.913,0.352,7.968,2.304,8.721
				c0.54,0.208,3.049,0.287,4.875,0.287c0.848,0,1.548-0.017,1.837-0.046c0.745-0.074,1.482-3.554,2.134-3.697
				c1.177-0.258,2.355-6.14,3.549-6.22c0.611-0.041,1.275-2.814,1.9-2.814c0.014,0,0.028,0.001,0.042,0.004
				c0.011,0.002,0.022,0.003,0.032,0.003c0.376,0,0.71-1.306,0.977-1.306c0.02,0,0.04,0.007,0.059,0.023
				c0.529-0.537,1.052-0.906,1.648-1.171c0.804-1.295,2.188-1.854,3.938-1.854c2.38,0,5.439,1.034,8.642,2.655
				c3.557,1.801,8.171,4.142,11.474,5.885c2.566,1.354,5.447,3.487,7.762,5.458c0.093-0.032,0.187-0.047,0.281-0.047
				c2.366,0,5.068,9.748,7.104,9.748c0.074,0,0.146-0.013,0.218-0.039c1.097-0.403,6.065-0.743,6.567-0.965
				c2.38-1.055,1.862-5.354,1.577-6.449c-2.12-8.127,4.319-26.719,6.798-34.115c0.002-0.005-0.001-0.009,0-0.014
				c3.932-15.826-1.642-32.015-16.534-39.827c-5.608-2.942-12.254-5.638-19.054-5.638c-0.138,0-0.275,0.001-0.413,0.003
				c-0.007,0-0.015,0-0.022,0c-3.908,0.053-7.657,0.861-11.063,2.258c-1.828,0.754-3.556,1.68-5.153,2.75
				c-0.012,0.003-0.024,0.004-0.036,0.004c-0.577,0-1.149-3.005-1.714-3.005c-0.015,0-0.03,0.002-0.045,0.006
				c-0.036,0.01-0.071,0.015-0.107,0.015C53.24,42.994,51.994,36.522,50.8,36.522L50.8,36.522z"/>
		</g>
	</g>
	<g>
		<g>
			<path class="st14" d="M51.292,39.217c0.341,0.317,0.869,2.057,1.223,3.224c0.775,2.553,1.254,4.001,2.087,4.007
				c0.14,0.241,0.339,0.897,0.475,1.347c0.371,1.224,0.595,1.962,1.151,1.962c0.03,0,0.085-0.006,0.114-0.013
				c0.052-0.012,0.102-0.034,0.146-0.065c1.571-1.114,3.274-2.07,5.06-2.842c3.48-1.496,7.167-2.278,10.983-2.323l0.348-0.002
				c5.568,0,11.457,1.82,18.534,5.726c12.734,7.029,18.675,21.333,15.145,36.402c-0.006,0.018-0.011,0.038-0.015,0.057
				c-1.38,4.123-7.946,24.451-5.941,32.137c0.252,0.966,0.604,4.822-1.142,5.597c-0.197,0.067-1.416,0.184-2.395,0.278
				c-2.09,0.201-3.612,0.358-4.175,0.563c-0.591,0-1.811-3.089-2.54-4.934c-1.493-3.779-2.491-6.073-3.762-6.073
				c-0.015,0-0.03,0-0.045,0.001c-2.177-2.419-4.9-4.7-7.323-6.129c-3.205-1.89-7.75-4.169-11.578-5.806
				c-2.965-1.268-5.698-1.938-7.905-1.938c-2.57,0-4.467,0.913-5.495,2.641c-0.543,0.378-1.017,0.835-1.477,1.426
				c-0.266,0.097-0.399,0.436-0.572,0.879c-0.065,0.166-0.178,0.454-0.258,0.586c-0.513,0.06-0.789,0.795-1.164,1.797
				c-0.154,0.412-0.407,1.086-0.558,1.262c-0.717,0.137-1.158,1.402-1.858,3.573c-0.34,1.055-0.909,2.821-1.224,2.992
				c-0.477,0.104-0.712,0.762-1.159,2.119c-0.195,0.594-0.517,1.572-0.72,1.785c-0.276,0.02-0.928,0.033-1.706,0.033
				c-2.338,0-4.424-0.098-4.749-0.224c-1.367-0.527-2.264-6.089-1.772-7.824c0.028-0.097,0.063-0.281,0.098-0.468
				c0.032-0.169,0.063-0.341,0.089-0.429c0.145-0.484-0.205-2.598-1.173-3.353c-0.202-0.207-0.309-1.516-0.196-1.94l0.05-0.203
				c0.049-0.204,0.199-0.827,0.319-0.945c0.242-0.193,0.314-0.542,0.303-0.781c-0.013-0.269-0.124-0.486-0.299-0.599
				c-0.034-0.031-0.112-0.153-0.159-0.226c-0.113-0.175-0.219-0.341-0.358-0.435c-0.166-0.168-0.274-1.117-0.195-1.447
				c0.014-0.058,0.03-0.153,0.046-0.259c0.016-0.101,0.046-0.29,0.064-0.34c0.263-0.65,0.653-2.625,0.017-3.429
				c-0.12-0.151-0.294-0.439-0.478-0.743c-0.674-1.113-1.199-1.91-1.778-2.007c-0.132-0.075-0.437-0.629-0.576-1.466
				c-0.169-1.016-0.021-1.903,0.395-2.375c1.17-1.324,4.177-10.226,4.525-11.267c0.034-0.135,0.82-3.338,0.022-5.145
				c-0.591-1.336-1.281-10.253-0.473-13.427c0.042-0.166,0.082-0.449,0.128-0.776c0.051-0.359,0.12-0.85,0.178-1.01
				c0.35-0.966,0.763-2.331,1.242-3.911c1.558-5.139,3.911-12.905,6.508-14.412c0.269-0.132,1.973-0.312,3.101-0.431
				C50.096,39.439,50.933,39.341,51.292,39.217 M51.311,38.793c-0.035,0-0.07,0.008-0.104,0.024
				c-0.575,0.269-5.537,0.561-6.083,0.878c-3.539,2.054-6.401,14.309-7.932,18.537c-0.124,0.343-0.23,1.478-0.318,1.824
				c-0.8,3.142-0.183,12.158,0.495,13.69c0.752,1.7-0.044,4.883-0.044,4.883s-3.287,9.797-4.436,11.098
				c-1.15,1.301-0.295,4.379,0.383,4.497c0.678,0.118,1.584,2.035,2.041,2.612s0.218,2.301-0.074,3.027
				c-0.053,0.132-0.096,0.518-0.129,0.657c-0.095,0.398-0.004,1.622,0.35,1.866c0.165,0.113,0.354,0.555,0.521,0.664
				c0.204,0.133,0.149,0.6-0.021,0.737c-0.265,0.212-0.42,1.03-0.507,1.36c-0.121,0.458-0.065,2.047,0.334,2.358
				c0.813,0.634,1.148,2.561,1.04,2.923c-0.055,0.185-0.136,0.716-0.189,0.902c-0.474,1.674,0.308,7.653,2.016,8.311
				c0.473,0.182,3.053,0.251,4.895,0.251c0.855,0,1.551-0.015,1.804-0.04c0.652-0.065,1.297-3.782,1.867-3.907
				c1.03-0.226,2.06-6.496,3.106-6.567c0.537-0.036,1.131-3.051,1.679-3.051c0.01,0,0.02,0.001,0.03,0.003
				c0.008,0.002,0.015,0.002,0.023,0.002c0.336,0,0.64-1.495,0.877-1.495c0.014,0,0.028,0.005,0.041,0.016
				c0.484-0.648,0.987-1.142,1.571-1.536c1.002-1.756,2.855-2.519,5.192-2.519c2.245,0,4.935,0.704,7.746,1.906
				c3.7,1.582,8.285,3.869,11.532,5.783c2.626,1.549,5.35,3.933,7.376,6.217c0.065-0.023,0.131-0.034,0.197-0.034
				c2.096,0,4.502,11.007,6.302,11.007c0.052,0,0.103-0.009,0.153-0.028c0.959-0.353,6.132-0.65,6.571-0.844
				c2.083-0.923,1.629-5.114,1.38-6.072c-1.855-7.111,3.779-25.48,5.948-31.951c0.001-0.004-0.002-0.008-0.001-0.012
				c3.431-14.643-1.846-29.44-15.333-36.885c-5.489-3.03-11.982-5.776-18.729-5.776c-0.118,0-0.236,0.001-0.354,0.003
				c-0.007,0-0.015,0-0.022,0c-3.941,0.047-7.711,0.892-11.114,2.355c-1.829,0.79-3.551,1.761-5.134,2.883
				c-0.009,0.002-0.017,0.003-0.026,0.003c-0.509,0-1.014-3.325-1.513-3.325c-0.011,0-0.021,0.001-0.032,0.005
				c-0.025,0.007-0.05,0.011-0.076,0.011C53.473,46.045,52.369,38.793,51.311,38.793L51.311,38.793z"/>
		</g>
	</g>
	<g>
		<g>
			<path class="st15" d="M51.931,41.444h0.005H51.931 M51.771,41.498c0.305,0.44,0.748,2.307,1.048,3.568
				c0.733,3.089,1.093,4.333,1.783,4.427c0.125,0.278,0.297,0.998,0.416,1.495c0.365,1.527,0.534,2.146,1.052,2.146
				c0.03,0,0.077-0.005,0.105-0.012c0.056-0.012,0.108-0.036,0.153-0.071c1.556-1.164,3.251-2.164,5.038-2.971
				c3.479-1.565,7.182-2.378,11.028-2.417l0.293-0.002c5.481,0,11.434,1.917,18.198,5.859c11.448,6.673,16.92,19.826,13.952,33.468
				c-0.006,0.019-0.011,0.038-0.014,0.057c-1.876,5.619-6.72,23.72-5.09,29.969c0.23,0.883,0.478,4.59-0.936,5.218
				c-0.193,0.058-1.369,0.153-2.406,0.237c-2.083,0.168-3.608,0.301-4.128,0.472c-0.542-0.284-1.503-3.411-2.143-5.49
				c-1.268-4.122-2.111-6.678-3.258-6.773c-1.818-2.657-4.409-5.22-6.97-6.89c-3.237-2.111-7.82-4.357-11.676-5.723
				c-2.257-0.8-4.365-1.205-6.264-1.205c-3.186,0-5.774,1.164-7.483,3.365c-0.158,0.203-0.328,0.397-0.5,0.593
				c-0.317,0.362-0.644,0.736-0.932,1.196c-0.222,0.128-0.326,0.469-0.477,0.96c-0.063,0.205-0.161,0.526-0.235,0.682
				c-0.444,0.114-0.658,0.821-0.993,1.929c-0.141,0.466-0.349,1.154-0.484,1.365c-0.597,0.162-0.93,1.223-1.591,3.757
				c-0.301,1.152-0.753,2.883-1.046,3.155c-0.407,0.121-0.585,0.668-1.001,2.23c-0.162,0.61-0.428,1.605-0.605,1.875
				c-0.273,0.016-0.887,0.025-1.635,0.025c-2.332,0-4.472-0.085-4.77-0.188c-1.096-0.422-1.898-5.959-1.485-7.416
				c0.024-0.086,0.056-0.268,0.087-0.453c0.026-0.158,0.051-0.318,0.073-0.391c0.135-0.452-0.178-2.554-1.011-3.201
				c-0.166-0.212-0.255-1.475-0.162-1.826c0.017-0.063,0.036-0.15,0.058-0.252c0.044-0.199,0.16-0.729,0.239-0.83
				c0.225-0.18,0.292-0.524,0.281-0.764c-0.013-0.264-0.117-0.473-0.261-0.562c-0.028-0.031-0.089-0.143-0.126-0.21
				c-0.101-0.184-0.196-0.357-0.319-0.437c-0.136-0.171-0.228-1.087-0.162-1.363c0.013-0.053,0.027-0.15,0.043-0.259
				c0.016-0.113,0.031-0.242,0.049-0.299c0.267-0.66,0.546-2.575,0.006-3.255c-0.107-0.135-0.284-0.47-0.456-0.795
				c-0.56-1.06-0.972-1.773-1.49-1.902c-0.14-0.139-0.418-0.801-0.504-1.696c-0.083-0.861,0.051-1.583,0.358-1.93
				c1.015-1.149,3.596-9.819,3.894-10.834c0.029-0.135,0.702-3.325,0.013-4.884c-0.546-1.235-1.049-10.186-0.402-12.726
				c0.038-0.151,0.073-0.433,0.114-0.759c0.04-0.323,0.101-0.81,0.147-0.936c0.353-0.975,0.784-2.566,1.282-4.409
				c1.295-4.789,3.253-12.025,5.326-13.229c0.266-0.113,1.994-0.265,3.137-0.366C50.562,41.678,51.392,41.597,51.771,41.498
				 M51.832,41.062c-0.024,0-0.047,0.005-0.071,0.016c-0.493,0.23-5.689,0.481-6.156,0.753c-3.034,1.761-5.487,14.233-6.799,17.857
				c-0.107,0.294-0.197,1.436-0.272,1.733c-0.686,2.693-0.156,11.676,0.424,12.988c0.644,1.458-0.038,4.637-0.038,4.637
				s-2.817,9.536-3.802,10.652c-0.985,1.115-0.253,4.178,0.328,4.28s1.358,2.066,1.749,2.56c0.392,0.494,0.187,2.233-0.064,2.855
				c-0.046,0.113-0.082,0.497-0.11,0.615c-0.081,0.341-0.004,1.556,0.3,1.766c0.141,0.097,0.304,0.555,0.447,0.649
				c0.175,0.114,0.128,0.583-0.018,0.7c-0.227,0.181-0.36,1.011-0.435,1.294c-0.104,0.392-0.055,1.964,0.286,2.23
				c0.697,0.544,0.984,2.475,0.891,2.785c-0.047,0.159-0.117,0.689-0.162,0.849c-0.407,1.435,0.264,7.337,1.728,7.901
				c0.405,0.156,3.057,0.215,4.914,0.215c0.862,0,1.553-0.013,1.77-0.034c0.559-0.055,1.112-4.01,1.6-4.117
				c0.883-0.194,1.766-6.852,2.662-6.913c0.462-0.031,0.984-3.289,1.456-3.289c0.007,0,0.014,0.001,0.02,0.002
				c0.005,0.001,0.01,0.002,0.015,0.002c0.293,0,0.564-1.685,0.77-1.685c0.01,0,0.019,0.004,0.028,0.011
				c0.44-0.759,1.019-1.287,1.495-1.9c1.657-2.134,4.116-3.21,7.165-3.21c1.843,0,3.902,0.393,6.13,1.182
				c3.842,1.361,8.393,3.597,11.59,5.681c2.681,1.748,5.253,4.379,6.99,6.976c0.044-0.015,0.089-0.023,0.134-0.023
				c1.816,0,3.909,12.272,5.465,12.272c0.035,0,0.07-0.006,0.104-0.019c0.822-0.302,6.199-0.557,6.575-0.724
				c1.785-0.791,1.397-4.874,1.182-5.695c-1.59-6.095,3.239-24.241,5.098-29.788c0.001-0.003-0.003-0.007-0.002-0.01
				c2.931-13.46-2.037-26.893-14.132-33.943c-5.365-3.127-11.706-5.914-18.4-5.914c-0.1,0-0.198,0.001-0.298,0.002
				c-0.007,0-0.015,0-0.022,0c-3.973,0.041-7.765,0.923-11.166,2.452c-1.83,0.826-3.546,1.842-5.114,3.016
				c-0.006,0.001-0.012,0.002-0.018,0.002c-0.44,0-0.876-3.645-1.307-3.646c-0.007,0-0.014,0.001-0.022,0.003
				c-0.017,0.005-0.034,0.007-0.051,0.007C53.706,49.097,52.749,41.062,51.832,41.062L51.832,41.062z"/>
		</g>
	</g>
	<g>
		<g>
			<path class="st16" d="M52.248,43.772c0.262,0.536,0.615,2.475,0.878,3.922c0.646,3.551,0.924,4.671,1.478,4.835
				c0.109,0.311,0.256,1.106,0.357,1.655c0.333,1.807,0.451,2.328,0.949,2.328c0.03,0,0.071-0.005,0.1-0.011
				c0.058-0.013,0.113-0.039,0.16-0.076c1.54-1.215,3.229-2.258,5.017-3.101c3.479-1.633,7.196-2.478,11.074-2.512l0.24-0.001
				c5.496,0,11.337,1.96,17.858,5.992c10.332,6.389,15.217,18.107,12.748,30.581l0,0c-0.001,0.004-0.001,0.008-0.002,0.012
				c-1.406,4.24-5.647,22.403-4.239,27.8c0.211,0.81,0.352,4.357-0.727,4.838c-0.187,0.049-1.374,0.127-2.421,0.196
				c-2.079,0.137-3.522,0.241-4.055,0.376c-0.474-0.508-1.222-3.696-1.773-6.044c-1.179-5.022-1.787-7.23-2.703-7.457
				c-1.497-2.91-3.956-5.761-6.619-7.664c-3.271-2.338-7.782-4.498-11.771-5.638c-1.813-0.518-3.552-0.781-5.169-0.781
				c-3.928,0-7.016,1.516-8.928,4.385c-0.118,0.177-0.24,0.351-0.363,0.527c-0.353,0.504-0.716,1.023-1.015,1.641
				c-0.177,0.149-0.257,0.485-0.386,1.032c-0.056,0.238-0.144,0.61-0.212,0.79c-0.37,0.156-0.527,0.812-0.823,2.05
				c-0.12,0.501-0.296,1.236-0.414,1.479c-0.51,0.207-0.768,1.25-1.321,3.932c-0.247,1.195-0.616,2.984-0.867,3.322
				c-0.366,0.147-0.506,0.731-0.843,2.336c-0.141,0.668-0.346,1.647-0.497,1.966c-0.248,0.01-0.774,0.019-1.563,0.019
				c-2.358,0-4.51-0.07-4.789-0.152c-0.799-0.308-1.574-5.681-1.198-7.008c0.021-0.074,0.049-0.254,0.076-0.438
				c0.021-0.144,0.04-0.291,0.057-0.353c0.102-0.342-0.125-2.44-0.852-3.056c-0.139-0.259-0.192-1.451-0.125-1.706
				c0.017-0.063,0.037-0.167,0.061-0.289c0.035-0.179,0.126-0.653,0.164-0.728c0.269-0.215,0.262-0.66,0.258-0.747
				c-0.014-0.288-0.123-0.446-0.228-0.532c-0.03-0.047-0.058-0.116-0.089-0.184c-0.084-0.183-0.157-0.344-0.283-0.449
				c-0.111-0.211-0.172-1.068-0.126-1.271c0.011-0.047,0.025-0.147,0.039-0.257c0.013-0.102,0.025-0.219,0.035-0.259
				c0.199-0.492,0.48-2.471-0.004-3.082c-0.086-0.109-0.255-0.487-0.404-0.82c-0.455-1.019-0.767-1.671-1.216-1.814
				c-0.308-0.399-0.726-2.742-0.126-3.422c0.843-0.954,2.861-8.808,3.263-10.401c0.06-0.337,0.574-3.333,0.004-4.623
				c-0.422-0.954-0.884-9.856-0.331-12.026c0.033-0.128,0.059-0.364,0.099-0.738c0.03-0.284,0.081-0.761,0.116-0.866
				c0.332-0.917,0.745-2.687,1.224-4.735c1.05-4.494,2.637-11.285,4.237-12.217c0.26-0.094,1.948-0.215,3.18-0.303
				C51.101,43.907,51.876,43.844,52.248,43.772 M52.361,43.33c-0.015,0-0.031,0.004-0.046,0.011
				c-0.411,0.192-5.841,0.401-6.23,0.627c-2.528,1.467-4.572,14.157-5.665,17.177c-0.089,0.245-0.164,1.394-0.227,1.641
				c-0.571,2.244-0.13,11.193,0.353,12.287c0.537,1.215-0.032,4.39-0.032,4.39s-2.348,9.276-3.169,10.206
				c-0.821,0.929-0.211,3.978,0.274,4.062c0.484,0.084,1.131,2.097,1.458,2.508c0.326,0.412,0.156,2.165-0.053,2.683
				c-0.038,0.094-0.068,0.475-0.092,0.574c-0.068,0.284-0.003,1.491,0.25,1.665c0.118,0.081,0.253,0.556,0.372,0.634
				c0.145,0.095,0.107,0.567-0.015,0.664c-0.189,0.151-0.3,0.992-0.362,1.227c-0.086,0.327-0.046,1.88,0.238,2.102
				c0.581,0.453,0.82,2.389,0.743,2.647c-0.04,0.132-0.097,0.663-0.135,0.796c-0.339,1.195,0.22,7.021,1.44,7.492
				c0.338,0.13,3.06,0.179,4.934,0.179c0.869,0,1.556-0.011,1.737-0.029c0.466-0.046,0.926-4.237,1.334-4.327
				c0.736-0.161,1.472-7.209,2.218-7.259c0.386-0.026,0.836-3.526,1.231-3.526c0.004,0,0.009,0,0.013,0.001
				c0.003,0.001,0.007,0.001,0.01,0.001c0.248,0,0.485-1.878,0.659-1.878c0.006,0,0.012,0.002,0.018,0.007
				c0.395-0.87,0.941-1.548,1.418-2.264c1.842-2.764,4.846-4.207,8.594-4.207c1.567,0,3.263,0.252,5.059,0.765
				c3.984,1.138,8.494,3.325,11.648,5.579c2.729,1.951,5.156,4.825,6.603,7.734c0.029-0.01,0.058-0.015,0.087-0.015
				c1.527,0,3.293,13.542,4.599,13.542c0.023,0,0.045-0.004,0.067-0.012c0.685-0.252,6.266-0.464,6.579-0.603
				c1.488-0.66,1.164-4.633,0.985-5.318c-1.325-5.079,2.699-23.002,4.249-27.624c0.001-0.003-0.003-0.006-0.002-0.009
				c2.43-12.277-2.212-24.373-12.931-31.001c-5.233-3.236-11.427-6.052-18.069-6.052c-0.082,0-0.163,0-0.245,0.001
				c-0.008,0-0.015,0-0.023,0c-4.006,0.034-7.818,0.953-11.217,2.55c-1.831,0.863-3.541,1.923-5.095,3.149
				c-0.004,0.001-0.008,0.001-0.011,0.001c-0.369,0-0.735-3.967-1.097-3.967c-0.005,0-0.009,0.001-0.014,0.002
				c-0.011,0.003-0.022,0.005-0.033,0.005C53.938,52.15,53.132,43.33,52.361,43.33L52.361,43.33z"/>
		</g>
	</g>
	<g>
		<g>
			<path class="st17" d="M52.726,46.038c0.217,0.629,0.499,2.719,0.71,4.285c0.539,4.005,0.74,5.03,1.175,5.236
				c0.092,0.342,0.212,1.217,0.295,1.822c0.278,2.026,0.344,2.507,0.842,2.507c0.03,0,0.066-0.004,0.095-0.01
				c0.062-0.014,0.119-0.042,0.168-0.082c1.525-1.265,3.206-2.352,4.996-3.23c3.478-1.702,7.211-2.579,11.119-2.606l0.19-0.001
				c5.542,0,11.271,2.003,17.515,6.125c9.055,5.976,13.483,16.574,11.556,27.656l0,0c0,0.002-0.001,0.004-0.001,0.005
				c-1.217,3.712-4.501,21.361-3.388,25.632c0.18,0.69,0.251,4.04-0.538,4.462c-0.239,0.039-1.394,0.099-2.418,0.152
				c-2.284,0.118-3.471,0.192-3.969,0.283c-0.394-0.691-0.982-4.09-1.418-6.606c-1.003-5.791-1.446-7.782-2.148-8.122
				c-1.206-3.216-3.48-6.287-6.268-8.455c-3.242-2.522-7.789-4.649-11.865-5.551c-1.387-0.307-2.747-0.463-4.041-0.463
				c-4.633,0-8.327,1.956-10.401,5.507l-0.15,0.256c-0.418,0.711-0.849,1.445-1.171,2.298c-0.137,0.165-0.197,0.504-0.303,1.096
				c-0.049,0.276-0.126,0.709-0.186,0.911c-0.294,0.191-0.409,0.816-0.656,2.159c-0.099,0.539-0.244,1.328-0.344,1.601
				c-0.405,0.232-0.593,1.181-1.051,4.099c-0.207,1.317-0.487,3.102-0.692,3.497c-0.289,0.151-0.392,0.647-0.678,2.435
				c-0.11,0.688-0.27,1.687-0.393,2.057c-0.253,0.007-0.752,0.013-1.486,0.013c-2.39,0-4.557-0.055-4.802-0.113
				c-0.612-0.373-1.224-5.526-0.919-6.603c0.017-0.061,0.042-0.24,0.064-0.422c0.016-0.132,0.03-0.265,0.042-0.315
				c0.095-0.317-0.085-2.336-0.683-2.898c-0.106-0.266-0.148-1.366-0.098-1.598c0.016-0.059,0.036-0.176,0.059-0.316
				c0.028-0.169,0.09-0.554,0.143-0.68c0.193-0.207,0.192-0.573,0.187-0.687c-0.01-0.215-0.072-0.378-0.183-0.485
				c-0.022-0.046-0.042-0.109-0.065-0.171c-0.069-0.188-0.125-0.343-0.235-0.449c-0.085-0.215-0.133-1.009-0.099-1.193
				c0.01-0.04,0.022-0.142,0.034-0.255c0.01-0.094,0.019-0.199,0.021-0.221c0.173-0.429,0.392-2.396-0.013-2.907
				c-0.067-0.093-0.22-0.517-0.332-0.826c-0.391-1.081-0.608-1.594-0.955-1.741c-0.277-0.478-0.544-2.735-0.113-3.223
				c0.675-0.764,2.181-7.803,2.631-9.967c0.048-0.336,0.458-3.315-0.005-4.361c-0.322-0.729-0.716-9.537-0.261-11.325
				c0.029-0.113,0.049-0.334,0.083-0.716c0.023-0.265,0.063-0.708,0.087-0.797c0.293-0.81,0.644-2.629,1.089-4.933
				c0.763-3.954,2.037-10.551,3.241-11.337c0.314-0.075,1.981-0.168,3.207-0.236C51.608,46.138,52.358,46.089,52.726,46.038
				 M52.897,45.596c-0.009,0-0.018,0.002-0.028,0.006c-0.329,0.154-5.993,0.321-6.304,0.502c-2.022,1.174-3.658,14.081-4.532,16.496
				c-0.071,0.196-0.131,1.352-0.181,1.55c-0.457,1.795-0.104,10.71,0.283,11.585c0.43,0.972-0.025,4.143-0.025,4.143
				s-1.878,9.016-2.535,9.759c-0.657,0.744-0.168,3.777,0.219,3.845c0.387,0.068,0.905,2.127,1.166,2.457s0.125,2.096-0.043,2.511
				c-0.03,0.075-0.055,0.454-0.074,0.533c-0.054,0.227-0.003,1.426,0.2,1.565c0.094,0.065,0.202,0.556,0.298,0.619
				c0.116,0.076,0.085,0.55-0.012,0.628c-0.151,0.121-0.24,0.972-0.29,1.161c-0.069,0.262-0.037,1.797,0.191,1.974
				c0.464,0.362,0.656,2.302,0.594,2.509c-0.032,0.106-0.078,0.636-0.108,0.743c-0.271,0.956,0.176,6.705,1.152,7.082
				c0.27,0.104,3.064,0.143,4.954,0.143c0.876,0,1.558-0.008,1.703-0.023c0.372-0.037,0.741-4.465,1.067-4.537
				c0.589-0.129,1.177-7.565,1.775-7.605c0.31-0.021,0.687-3.764,1.004-3.764c0.003,0,0.005,0,0.008,0.001
				c0.002,0,0.004,0.001,0.006,0.001c0.201,0,0.402-2.071,0.542-2.071c0.004,0,0.007,0.001,0.011,0.004
				c0.351-0.981,0.86-1.804,1.342-2.628c2.002-3.428,5.593-5.309,10.055-5.309c1.255,0,2.578,0.149,3.955,0.453
				c4.126,0.913,8.589,3.052,11.706,5.477c2.772,2.156,5.059,5.27,6.217,8.493c0.017-0.006,0.034-0.009,0.052-0.009
				c1.231,0,2.659,14.815,3.71,14.815c0.013,0,0.027-0.002,0.04-0.007c0.548-0.202,6.333-0.371,6.583-0.483
				c1.19-0.528,0.931-4.393,0.788-4.941c-1.06-4.064,2.159-21.763,3.399-25.461c0.001-0.002-0.004-0.005-0.003-0.007
				c1.929-11.094-2.37-21.88-11.73-28.058c-5.09-3.36-11.146-6.191-17.735-6.191c-0.065,0-0.129,0-0.194,0.001
				c-0.008,0-0.015,0-0.023,0c-4.039,0.028-7.872,0.984-11.269,2.647c-1.832,0.899-3.536,2.005-5.075,3.282
				c-0.002,0.001-0.005,0.001-0.007,0.001c-0.297,0-0.591-4.289-0.882-4.289c-0.003,0-0.006,0-0.008,0.001
				c-0.007,0.002-0.013,0.003-0.02,0.003C54.168,55.203,53.519,45.596,52.897,45.596L52.897,45.596z"/>
		</g>
	</g>
	<g>
		<g>
			<path class="st18" d="M53.208,48.297c0.169,0.717,0.38,2.966,0.539,4.658c0.405,4.311,0.55,5.374,0.874,5.626
				c0.072,0.363,0.161,1.295,0.229,2c0.229,2.379,0.258,2.684,0.733,2.684c0.029,0,0.062-0.004,0.091-0.01
				c0.065-0.015,0.124-0.045,0.174-0.088c1.51-1.315,3.184-2.446,4.975-3.36c3.428-1.745,7.281-2.679,11.165-2.701l0.142,0
				c5.552,0,11.328,2.105,17.168,6.255c7.911,5.622,11.786,14.868,10.365,24.732c-1.002,3.129-3.344,20.364-2.536,23.461
				c0.159,0.633,0.134,3.752-0.338,4.083c-0.264,0.03-1.409,0.074-2.425,0.112c-2.236,0.086-3.371,0.138-3.879,0.201
				c-0.303-0.833-0.725-4.331-1.068-7.18c-0.811-6.73-1.124-8.41-1.6-8.781c-0.908-3.486-3.052-6.846-5.907-9.249
				c-3.257-2.74-7.727-4.782-11.957-5.463c-0.99-0.159-1.976-0.24-2.929-0.24c-5.313,0-9.634,2.449-11.856,6.719
				c-0.442,0.849-0.937,1.843-1.263,2.955c-0.1,0.182-0.144,0.529-0.224,1.146c-0.041,0.315-0.104,0.808-0.154,1.036
				c-0.216,0.204-0.295,0.787-0.495,2.267c-0.078,0.58-0.193,1.425-0.273,1.728c-0.299,0.244-0.432,1.127-0.784,4.262
				c-0.155,1.375-0.363,3.232-0.522,3.679c-0.23,0.165-0.296,0.665-0.508,2.526c-0.081,0.71-0.198,1.731-0.292,2.15
				c-0.257,0.005-0.728,0.008-1.41,0.008c-2.346,0-4.461-0.039-4.8-0.077c-0.485-0.633-0.846-5.513-0.653-6.195
				c0.019-0.068,0.029-0.161,0.053-0.408c0.012-0.122,0.022-0.245,0.027-0.276c0.06-0.199-0.025-2.179-0.51-2.731
				c-0.076-0.263-0.109-1.299-0.075-1.499c0.013-0.051,0.032-0.179,0.053-0.337c0.02-0.154,0.064-0.501,0.102-0.625
				c0.13-0.171,0.149-0.438,0.139-0.646c-0.006-0.127-0.028-0.297-0.134-0.425c-0.015-0.045-0.03-0.105-0.047-0.165
				c-0.054-0.196-0.093-0.34-0.181-0.444c-0.063-0.218-0.1-0.959-0.076-1.124c0.008-0.032,0.02-0.136,0.029-0.252
				c0.007-0.082,0.013-0.173,0.021-0.223c0.121-0.402,0.303-2.264-0.025-2.676c-0.053-0.095-0.17-0.522-0.255-0.833
				c-0.288-1.051-0.435-1.511-0.704-1.674c-0.233-0.543-0.369-2.712-0.108-3.034c0.514-0.581,1.567-6.847,1.999-9.534
				c0.059-0.547,0.335-3.313-0.01-4.094c-0.273-0.759-0.511-9.382-0.193-10.631c0.024-0.093,0.036-0.254,0.066-0.691
				c0.017-0.248,0.045-0.664,0.059-0.73c0.24-0.663,0.528-2.591,0.892-5.032c0.519-3.479,1.478-9.912,2.298-10.551
				c0.344-0.056,2.013-0.124,3.245-0.174C52.089,48.367,52.838,48.331,53.208,48.297 M43.449,101.343h0.005H43.449 M53.438,47.86
				c-0.005,0-0.01,0.001-0.015,0.003c-0.247,0.115-6.144,0.241-6.378,0.376c-1.517,0.88-2.743,14.004-3.399,15.816
				c-0.053,0.147-0.098,1.31-0.136,1.459c-0.343,1.346-0.078,10.227,0.212,10.884c0.322,0.729-0.019,3.896-0.019,3.896
				s-1.409,8.756-1.901,9.313c-0.493,0.558-0.126,3.577,0.164,3.627s0.679,2.158,0.875,2.405c0.196,0.247,0.094,2.028-0.032,2.339
				c-0.023,0.056-0.041,0.432-0.055,0.491c-0.041,0.171-0.002,1.361,0.15,1.465c0.071,0.049,0.152,0.557,0.223,0.604
				c0.087,0.057,0.064,0.533-0.009,0.591c-0.113,0.091-0.18,0.953-0.217,1.094c-0.052,0.196-0.028,1.713,0.143,1.846
				c0.348,0.272,0.492,2.216,0.446,2.372c-0.024,0.079-0.058,0.61-0.081,0.69c-0.203,0.717,0.132,6.39,0.864,6.672
				c0.203,0.078,3.068,0.108,4.973,0.108c0.884,0,1.561-0.006,1.669-0.017c0.279-0.028,0.556-4.693,0.8-4.746
				c0.442-0.097,0.883-7.921,1.331-7.951c0.233-0.016,0.537-4.002,0.775-4.002c0.001,0,0.003,0,0.004,0c0.001,0,0.002,0,0.003,0
				c0.153,0,0.317-2.265,0.423-2.265c0.002,0,0.004,0.001,0.006,0.002c0.306-1.092,0.778-2.055,1.265-2.992
				c2.139-4.111,6.341-6.505,11.503-6.505c0.926,0,1.883,0.077,2.865,0.235c4.266,0.687,8.678,2.779,11.764,5.375
				c2.809,2.363,4.962,5.716,5.831,9.252c0.009-0.003,0.018-0.005,0.027-0.005c0.929,0,2.011,16.092,2.803,16.092
				c0.007,0,0.014-0.001,0.021-0.004c0.411-0.151,6.399-0.279,6.587-0.362c0.893-0.396,0.698-4.153,0.591-4.564
				c-0.795-3.048,1.62-20.524,2.549-23.297c0.001-0.002-0.005-0.003-0.004-0.005c1.428-9.912-2.505-19.414-10.529-25.116
				c-4.931-3.504-10.863-6.329-17.399-6.329c-0.049,0-0.096,0-0.145,0c-0.008,0-0.015,0-0.023,0
				c-4.071,0.022-7.925,1.015-11.321,2.744c-1.832,0.935-3.531,2.086-5.056,3.415c-0.001,0-0.002,0-0.004,0
				c-0.224,0-0.446-4.611-0.665-4.611c-0.001,0-0.003,0-0.004,0.001c-0.004,0.001-0.007,0.002-0.011,0.002
				C54.399,58.258,53.908,47.86,53.438,47.86L53.438,47.86z"/>
		</g>
	</g>
	<g>
		<g>
			<path class="st19" d="M53.697,50.55c0.115,0.787,0.252,3.118,0.364,5.038c0.261,4.456,0.349,5.668,0.576,5.998
				c0.051,0.381,0.113,1.414,0.16,2.196c0.172,2.86,0.172,2.86,0.622,2.86c0.028,0,0.058-0.003,0.085-0.009
				c0.069-0.015,0.132-0.048,0.184-0.095c1.495-1.366,3.162-2.54,4.954-3.49c3.427-1.813,7.296-2.779,11.211-2.795l0.096,0
				c5.694,0,11.352,2.148,16.819,6.384c6.648,5.152,10.078,13.305,9.177,21.811c-0.588,2.067-2.266,19.056-1.687,21.276
				c0.089,0.465,0.103,3.17-0.185,3.715c-0.353,0.02-1.426,0.047-2.386,0.071c-2.315,0.058-3.325,0.091-3.79,0.125
				c-0.209-0.975-0.489-4.712-0.718-7.765c-0.546-7.278-0.745-9.024-1.061-9.443c-0.617-3.755-2.627-7.403-5.538-10.038
				c-3.22-2.914-7.723-4.923-12.047-5.373c-0.626-0.065-1.256-0.098-1.871-0.098c-5.943,0-10.898,2.994-13.255,8.008
				c-0.59,1.255-0.975,2.34-1.21,3.408c-0.06,0.207-0.09,0.557-0.141,1.142c-0.033,0.384-0.081,0.933-0.118,1.177
				c-0.143,0.229-0.198,0.825-0.338,2.36c-0.06,0.656-0.14,1.522-0.197,1.854c-0.203,0.259-0.287,1.158-0.521,4.427
				c-0.103,1.436-0.241,3.365-0.35,3.867c-0.16,0.175-0.198,0.697-0.338,2.611c-0.056,0.775-0.13,1.785-0.193,2.242
				c-0.26,0.003-0.704,0.005-1.332,0.005c-2.219,0-4.217-0.022-4.774-0.051c-0.309-0.842-0.524-5.252-0.412-5.777
				c0.017-0.061,0.023-0.124,0.04-0.394c0.008-0.115,0.014-0.23,0.012-0.237c0.026-0.087,0.028-1.963-0.332-2.542
				c-0.056-0.25-0.074-1.275-0.057-1.423c0.01-0.038,0.027-0.177,0.043-0.352c0.014-0.154,0.041-0.46,0.066-0.581
				c0.056-0.098,0.107-0.273,0.091-0.606c-0.004-0.08-0.011-0.221-0.085-0.343c-0.011-0.046-0.021-0.108-0.032-0.17
				c-0.035-0.194-0.06-0.328-0.123-0.428c-0.045-0.221-0.066-0.954-0.056-1.066c0.006-0.023,0.017-0.13,0.024-0.249
				c0.005-0.082,0.009-0.173,0.015-0.215l-0.002,0c0.079-0.388,0.202-1.987-0.018-2.433l0,0c-0.038-0.095-0.118-0.53-0.177-0.848
				c-0.179-0.977-0.268-1.413-0.457-1.598c-0.151-0.523-0.251-2.564-0.109-2.866c0.273-0.309,0.732-3.366,1.366-9.102
				c0.07-0.981,0.21-3.318-0.01-3.81c-0.156-0.587-0.353-9.077-0.13-9.952c0.018-0.073,0.025-0.16,0.049-0.667
				c0.011-0.235,0.03-0.629,0.031-0.663c0.168-0.464,0.345-2.137,0.643-5.053c0.351-3.43,0.934-9.134,1.425-9.844
				c0.413-0.037,2.047-0.081,3.264-0.113C52.548,50.595,53.311,50.572,53.697,50.55 M45.263,100.632h0.005H45.263 M53.984,50.124
				c-0.002,0-0.004,0-0.006,0.001c-0.164,0.077-6.296,0.16-6.452,0.251c-1.011,0.587-1.829,13.928-2.266,15.136
				c-0.035,0.098-0.066,1.268-0.091,1.367c-0.229,0.898-0.052,9.745,0.141,10.182c0.215,0.486-0.013,3.649-0.013,3.649
				s-0.939,8.495-1.267,8.867c-0.328,0.372-0.084,3.376,0.109,3.41c0.194,0.034,0.453,2.188,0.583,2.353
				c0.131,0.165,0.062,1.959-0.021,2.167c-0.015,0.038-0.027,0.411-0.037,0.45c-0.027,0.114-0.001,1.295,0.1,1.365
				c0.047,0.032,0.101,0.558,0.149,0.589c0.058,0.038,0.043,0.516-0.006,0.555c-0.076,0.06-0.12,0.934-0.145,1.028
				c-0.035,0.131-0.018,1.63,0.095,1.718c0.232,0.181,0.328,2.13,0.297,2.234c-0.016,0.053-0.039,0.583-0.054,0.637
				c-0.136,0.478,0.088,6.074,0.576,6.262c0.135,0.052,3.072,0.072,4.992,0.072c0.891,0,1.563-0.004,1.636-0.011
				c0.186-0.018,0.371-4.921,0.533-4.956c0.294-0.065,0.589-8.277,0.887-8.297c0.156-0.01,0.387-4.24,0.546-4.24
				c0.001,0,0.001,0,0.002,0c0,0,0.001,0,0.001,0c0.103,0,0.23-2.461,0.301-2.461c0.001,0,0.002,0,0.002,0.001
				c0.261-1.203,0.694-2.304,1.189-3.356c2.255-4.797,7.07-7.78,12.896-7.78c0.6,0,1.21,0.032,1.83,0.096
				c4.406,0.459,8.762,2.503,11.822,5.273c2.84,2.571,4.866,6.162,5.444,10.01c0.004-0.001,0.008-0.002,0.011-0.002
				c0.623,0,1.35,17.371,1.881,17.371c0.003,0,0.006-0.001,0.009-0.002c0.274-0.101,6.466-0.186,6.592-0.241
				c0.595-0.264,0.466-3.913,0.394-4.187c-0.53-2.032,1.08-19.285,1.699-21.134c0-0.001-0.006-0.002-0.005-0.003
				c0.927-8.729-2.613-16.97-9.328-22.174c-4.745-3.677-10.577-6.467-17.062-6.468c-0.033,0-0.065,0-0.097,0
				c-0.008,0-0.015,0-0.023,0c-4.104,0.016-7.979,1.046-11.372,2.841c-1.833,0.971-3.526,2.167-5.036,3.547l-0.002,0
				c-0.15,0-0.299-4.933-0.445-4.934l-0.002,0c-0.001,0-0.003,0.001-0.004,0.001C54.628,61.312,54.299,50.124,53.984,50.124
				L53.984,50.124z"/>
		</g>
	</g>
	<g>
		<g>
			<path class="st20" d="M48.32,52.742h0.005H48.32 M54.191,52.799c0.06,0.873,0.128,3.364,0.185,5.424
				c0.115,4.186,0.157,5.692,0.295,6.235l-0.023,0.004c0.029,0.176,0.066,1.475,0.096,2.519c0.086,3.013,0.086,3.039,0.499,3.039
				c0.004,0,0.007,0,0.011,0c0.102,0,0.2-0.039,0.273-0.11c1.48-1.416,3.14-2.634,4.934-3.619c3.426-1.881,7.311-2.88,11.246-2.889
				l-0.001-0.396l0.061,0.396c7.365,0,13.02,3.541,16.467,6.51c5.489,4.729,8.401,11.621,7.99,18.907
				c-0.378,1.771-1.099,18.07-0.839,19.061c0.041,0.339,0.049,2.666-0.073,3.36c-0.426,0.01-1.376,0.021-2.302,0.033
				c-2.235,0.028-3.238,0.043-3.707,0.059c-0.107-1.09-0.242-4.93-0.362-8.362c-0.243-6.913-0.322-9.174-0.514-9.913
				c-0.291-4.151-2.129-8.063-5.177-11.016c-3.229-3.13-7.652-5.055-12.136-5.281c-0.3-0.015-0.597-0.023-0.893-0.023
				c-6.512,0-12.097,3.586-14.575,9.36c-0.557,1.299-0.93,2.545-1.14,3.812l0.007,0.001c-0.037,0.219-0.055,0.581-0.085,1.181
				c-0.026,0.522-0.065,1.311-0.088,1.438l0.005,0.001c-0.074,0.318-0.109,0.975-0.181,2.337c-0.044,0.83-0.104,1.967-0.136,2.13
				l0.01,0.003c-0.116,0.433-0.154,1.544-0.253,4.439c-0.06,1.746-0.134,3.919-0.194,4.186l0.005,0.002
				c-0.076,0.295-0.1,0.965-0.155,2.563c-0.028,0.8-0.064,1.832-0.096,2.335c-0.284,0.001-0.728,0.002-1.251,0.002
				c-1.929,0-4.006-0.008-4.718-0.023c-0.146-0.997-0.253-4.953-0.203-5.361c0.017-0.058,0.018-0.082,0.028-0.381
				c0.004-0.112,0.007-0.224,0.011-0.262l-0.01-0.001c0.013-0.318,0.044-1.696-0.163-2.253l0.007-0.001
				c-0.031-0.163-0.045-1.217-0.032-1.42c0.007-0.046,0.011-0.118,0.021-0.321c0.007-0.151,0.021-0.45,0.034-0.564
				c0.035-0.102,0.055-0.27,0.041-0.567c-0.003-0.055-0.006-0.136-0.036-0.217c-0.006-0.048-0.012-0.121-0.019-0.195
				c-0.016-0.177-0.027-0.298-0.06-0.389c-0.025-0.2-0.037-0.958-0.036-1.034c0.011-0.048,0.012-0.074,0.017-0.245
				c0.003-0.08,0.005-0.17,0.008-0.205l-0.015-0.002c0.033-0.375,0.129-1.702-0.001-2.165l0.008-0.002
				c-0.021-0.09-0.063-0.545-0.094-0.878c-0.084-0.908-0.122-1.315-0.22-1.508c-0.075-0.494-0.132-2.526-0.049-2.822
				c0,0.001-0.007,0.024-0.026,0.055c0.11-0.191,0.267-1.053,0.699-8.623c0.1-2.781,0.038-3.356-0.007-3.52
				c-0.098-0.699-0.157-8.769-0.069-9.28c0.015-0.06,0.017-0.082,0.031-0.64c0.007-0.269,0.013-0.559,0.02-0.658
				c0.087-0.364,0.162-1.665,0.334-4.953c0.162-3.091,0.427-8.142,0.676-9.199c0.544-0.018,1.998-0.036,3.204-0.052
				C53.007,52.82,53.783,52.81,54.191,52.799 M54.534,52.387c0,0-0.001,0-0.001,0c-0.082,0.038-6.448,0.08-6.526,0.125
				c-0.506,0.293-0.914,13.852-1.133,14.456c-0.018,0.049-0.033,1.226-0.045,1.276c-0.114,0.449-0.026,9.262,0.071,9.481
				c0.107,0.243-0.006,3.402-0.006,3.402s-0.47,8.235-0.634,8.421c-0.164,0.186-0.042,3.175,0.055,3.192
				c0.097,0.017,0.226,2.219,0.292,2.301c0.065,0.082,0.031,1.891-0.011,1.995c-0.008,0.019-0.014,0.389-0.018,0.409
				c-0.014,0.057-0.001,1.23,0.05,1.265c0.024,0.016,0.051,0.558,0.074,0.574c0.029,0.019,0.021,0.499-0.003,0.519
				c-0.038,0.03-0.06,0.914-0.072,0.962c-0.017,0.065-0.009,1.546,0.048,1.591c0.116,0.091,0.164,2.044,0.149,2.096
				c-0.008,0.026-0.019,0.557-0.027,0.584c-0.068,0.239,0.044,5.758,0.288,5.852c0.068,0.026,3.077,0.036,5.014,0.036
				c0.898,0,1.564-0.002,1.6-0.006c0.093-0.009,0.185-5.148,0.267-5.166c0.147-0.032,0.294-8.633,0.444-8.643
				c0.078-0.005,0.235-4.479,0.315-4.479l0,0l0,0c0.052,0,0.141-2.656,0.176-2.656l0.001,0c0.217-1.314,0.61-2.55,1.112-3.72
				c2.351-5.478,7.77-9.12,14.211-9.12c0.289,0,0.58,0.007,0.873,0.022c4.544,0.23,8.841,2.225,11.88,5.17
				c2.868,2.779,4.769,6.608,5.058,10.769c0.001,0,0.002,0,0.003,0c0.313,0,0.679,18.653,0.946,18.653c0.001,0,0.001,0,0.002,0
				c0.137-0.05,6.533-0.093,6.596-0.121c0.298-0.132,0.233-3.673,0.197-3.81c-0.265-1.016,0.54-18.046,0.85-18.97
				c0-0.001-0.006-0.001-0.006-0.002c0.426-7.546-2.686-14.544-8.127-19.232c-4.517-3.892-10.291-6.606-16.725-6.606
				c-0.017,0-0.033,0-0.05,0c-0.008,0-0.016,0-0.023,0c-4.137,0.01-8.033,1.077-11.424,2.938c-1.834,1.008-3.521,2.248-5.017,3.68
				l0,0c-0.075,0-0.15-5.256-0.224-5.256c0,0,0,0,0,0c0,0-0.001,0-0.001,0C54.858,64.367,54.692,52.387,54.534,52.387L54.534,52.387
				z"/>
		</g>
	</g>
	<g>
		<g>
			<path class="st21" d="M54.692,55.043v17.959c0,0.16,0.096,0.303,0.244,0.365c0.049,0.02,0.1,0.03,0.151,0.03
				c0.103,0,0.204-0.04,0.279-0.116c4.337-4.342,10.096-6.733,16.217-6.733c6.067,0,11.789,2.355,16.113,6.631
				c4.32,4.272,6.738,9.959,6.809,16.013c0,0.023,0.003,0.046,0.007,0.068v19.772H88.7V89.491c0-9.369-7.628-16.99-17.004-16.99
				c-8.586,0-15.838,6.424-16.871,14.984l-0.133,7.577v13.971h-5.811V89.518v-19.91V55.043H54.692 M55.087,54.649h-6.6v14.96v19.91
				v19.91h6.6V95.062l0.133-7.57c0.993-8.21,7.997-14.597,16.477-14.597c9.159,0,16.61,7.445,16.61,16.596v19.936h6.6v-20.24h-0.007
				c-0.074-6.363-2.711-12.121-6.926-16.289c-4.214-4.168-10.006-6.745-16.39-6.745c-6.437,0-12.272,2.62-16.496,6.848V54.649
				L55.087,54.649z"/>
		</g>
	</g>
</g>
<g>
	<path class="st22" d="M88.509,109.225V89.491c0-9.263-7.542-16.799-16.813-16.799c-8.489,0-15.66,6.352-16.679,14.775l-0.135,7.591
		v14.167H48.69V54.851h6.193v18.151c0,0.082,0.05,0.156,0.126,0.188c0.024,0.01,0.051,0.015,0.077,0.015
		c0.053,0,0.104-0.021,0.144-0.06c4.374-4.377,10.182-6.789,16.354-6.789c12.598,0,22.966,10.243,23.112,22.834
		c0.001,0.017,0.003,0.034,0.007,0.05v19.984H88.509z"/>
	<g>
		<path class="st13" d="M54.681,55.054v17.948c0,0.164,0.099,0.312,0.25,0.375c0.05,0.021,0.103,0.031,0.155,0.031
			c0.106,0,0.209-0.041,0.287-0.119c4.335-4.34,10.092-6.729,16.21-6.729c12.487,0,22.765,10.153,22.91,22.634
			c0,0.024,0.003,0.047,0.007,0.069v19.76h-5.789V89.491c0-9.375-7.633-17.001-17.015-17.001c-8.592,0-15.848,6.429-16.882,14.995
			l-0.133,7.577v13.96h-5.789V69.608V55.054H54.681 M55.087,54.649h-6.6v14.96v39.819h6.6V95.062l0.133-7.57
			c0.993-8.21,7.997-14.597,16.477-14.597c9.159,0,16.61,7.445,16.61,16.596v19.936h6.6v-20.24h-0.007
			C94.75,76.462,84.351,66.154,71.583,66.154c-6.437,0-12.272,2.62-16.496,6.848V54.649L55.087,54.649z"/>
	</g>
</g>
</svg>
