<svg xmlns="http://www.w3.org/2000/svg" width="160" height="160" viewBox="0 0 160 160">
    <g fill="none" fill-rule="nonzero">
        <path fill="#67BCEF" d="M86.5 125.5c0-3.1-2-5.6-5-6.3v-4.9c0-.9-.8-1.7-1.7-1.7-.5 0-.9.2-1.2.5-.3.3-.5.7-.5 1.2v4.8c-2.9.7-5 3.3-5 6.3 0 3.7 3 6.5 6.5 6.5 4 .1 6.9-2.9 6.9-6.4zm-3.1 0c0 1.7-1.6 3.4-3.4 3.4-1.7 0-3.4-1.6-3.4-3.4 0-1.7 1.6-3.4 3.4-3.4 1.7 0 3.4 1.3 3.4 3.4zM68.8 111.2v-5.3c0-.9-.6-1.7-1.5-1.7-.5 0-1 .2-1.3.5-.3.3-.5.7-.5 1.2v5.3l-4.3 3.6c-.7.6-1.1 1.4-1.1 2.1v2c-3.3.9-5.4 4.1-4.9 7.7.5 2.6 2.6 4.8 5.1 5.1 4.3.8 8-2.4 8-6.4 0-3.1-2-5.6-5-6.3v-1.9l4.3-3.6c.7-.6 1.2-1.3 1.2-2.3zm-6.9 11c1.7 0 3.3 1.5 3.3 3.3 0 1.7-1.5 3.3-3.3 3.3-1.8 0-3.3-1.5-3.3-3.3 0-2 1.5-3.3 3.3-3.3zM78.3 107.9v-2c0-.9.8-1.7 1.7-1.7.9 0 1.7.8 1.7 1.7v2c0 .9-.8 1.7-1.7 1.7-.9-.2-1.7-.8-1.7-1.7zM56.1 106.4v-.7c0-.9-.6-1.7-1.5-1.7-.5 0-1 .2-1.3.5-.3.3-.5.7-.5 1.2v.7l-9.5 8.1c-.7.6-1.1 1.4-1.1 2.1v2.4c-3.3.9-5.4 4.1-4.9 7.7.5 2.6 2.6 4.8 5.1 5.1 4.3.8 8-2.4 8-6.4 0-3.1-2-5.6-5-6.3V117l9.5-8.1c.8-.7 1.2-1.5 1.2-2.5zm-12.3 15.8c1.7 0 3.3 1.5 3.3 3.3 0 1.7-1.5 3.3-3.3 3.3-1.8 0-3.3-1.5-3.3-3.3 0-2 1.6-3.3 3.3-3.3zM104.5 126.5c.7-3.6-1.7-7.1-4.9-7.9v-1.9c0-.9-.4-1.7-1.1-2.1l-4.3-3.6v-5.3c0-.5-.2-.9-.5-1.2-.3-.3-.8-.5-1.3-.5-.9.1-1.5.9-1.5 1.7v5.3c0 .9.4 1.7 1.1 2.1l4.3 3.6v1.8c-2.9.7-5 3.3-5 6.3 0 4.1 3.7 7.4 8 6.4 2.6-.4 4.8-2.4 5.2-4.7zm-3.1-1.4c0 1.7-1.5 3.3-3.3 3.3-1.8 0-3.3-1.5-3.3-3.3 0-1.8 1.5-3.3 3.3-3.3 1.8 0 3.3 1.4 3.3 3.3zM122.5 126.6c.7-3.6-1.7-7.1-4.9-7.9v-2.2c0-.9-.4-1.7-1.1-2.1l-9.5-8.1v-.7c0-.5-.2-.9-.5-1.2-.3-.3-.8-.5-1.3-.5-.9.1-1.5.9-1.5 1.7v.7c0 .9.4 1.7 1.1 2.1l9.5 8.1v2.1c-2.9.7-5 3.3-5 6.3 0 4.1 3.6 7.2 8 6.4 2.7-.4 4.8-2.1 5.2-4.7zm-3.1-1.4c0 1.7-1.5 3.3-3.3 3.3-1.7 0-3.3-1.5-3.3-3.3 0-1.8 1.5-3.3 3.3-3.3 1.7 0 3.3 1.3 3.3 3.3z"/>
        <path fill="#2266AF" d="M117.6 37.1v45.4c0 8.2-6.6 14.8-14.8 14.8H80C66.9 78 52.9 38.8 80 22.6h22.8c8.1-.4 14.8 6.4 14.8 14.5z"/>
        <path fill="#67BCEF" d="M91 79c0 3.5-1.7 5.4-3.8 5.6-2.1.2-3-1.7-5.1-1.7-1.6 0-2.1.6-2.2 1.1-.9 3.3 0 13.3 0 13.3H57.3c-8.2 0-14.8-6.6-14.8-14.7V37.4c0-8.2 6.6-14.7 14.8-14.7H80s.9 10.2 0 13.3c-.2.6-.7 1.1-2.2 1.1-2.1 0-2.9-1.9-5.1-1.7-2.1.2-3.8 2.1-3.8 5.6 0 3.5 1.7 5.4 3.8 5.6 2.1.2 3-1.7 5.1-1.7 1.6 0 2.1.6 2.2 1.1 1.8 6.6-1.6 20.8 0 27.6.2.7.7 1.1 2.2 1.1 2.1 0 2.9-1.9 5.1-1.7 2 .5 3.7 2.5 3.7 6zM96.7 31.1c-4.2.3-7.1 1.8-8.3 4.1-.9 1.7-.8 3.7.2 5.3 1 1.7 2.3 2.1 5.3 1.7.8-.1 1.4.4 1.6 1.2.1.8-.4 1.4-1.2 1.6-.6.2-1.3.2-2.1.2h-.6c-.1.1-.2.2-.3.2-1.1.4-1.9 1.6-2.2 3-.3 1.2-.2 2.5.2 3.3.4.7.3 1.6-.3 2-.8.3-1.6.2-2-.4-1-1.4-1.2-3.5-.7-5.6.3-1.4 1.1-2.5 2-3.4-.8-.4-1.4-1.2-2-2.2-1.4-2.4-1.6-5.5-.3-8.1 1.2-2.2 4-5.1 10.5-5.6.8-.1 1.4.6 1.6 1.3.1.6-.6 1.3-1.4 1.4zM112.2 52.1c-.2.7-.7 1-1.3 1-1.1 0-1.7-.8-1.3-1.9 1.2-3.5.6-7.5-1.6-10.2-2.1-2.4-5.3-3.4-9.3-2.7-.8.1-1.4-.3-1.7-1.1-.1-.8.3-1.4 1.1-1.7 2.8-.6 5.4-.3 7.6.6.7-1.1.7-2.2.2-3.3-.3-.9-1.1-1.6-2.1-1.8-.8-.1-1.3-.9-1.1-1.7.1-.8.9-1.3 1.7-1.1 1.9.3 3.4 1.7 4.2 3.4.8 1.9.6 3.9-.4 5.8.7.6 1.3 1.1 1.9 1.8 2.9 3.4 3.7 8.5 2.1 12.9zM107.8 61.7s-.1 0 0 0c-7.3-.3-9.1-4.9-9.4-6.9-.8-3.7.8-7.8 3.2-9 .7-.3 1.6 0 1.9.7.3.7 0 1.6-.7 1.9-.9.4-2.2 3.1-1.7 5.9.6 2.9 2.9 4.4 6.8 4.5.8 0 1.3.7 1.3 1.4-.1.9-.6 1.5-1.4 1.5z"/>
        <path fill="#67BCEF" d="M110.1 78.5c-.8.1-1.4-.6-1.6-1.3-.3-4.2-1.8-7.1-4.1-8.3-1.7-.9-3.7-.8-5.3.2-2 1.2-1.8 2.2-1.1 5.1.7 2.4 1.6 5.9-.6 9.9-.2.4-.7.7-1.2.7-.2 0-.4 0-.7-.1-.7-.3-1-1.2-.6-1.9 1.6-3 1-5.4.3-7.8-.3-1.3-.7-2.8-.6-4.1 0-.1-.1-.1-.1-.2-.2-.8-1.1-1.6-2.3-2.1-2-1-4.4-1.3-5.9-.8-.8.2-1.6-.1-1.8-.9-.2-.8.1-1.6.9-1.8 1.2-.4 2.7-.6 4-.3 1-.6 1.4-1.3 1.7-2.1.3-1.2.2-2.9-.4-3.9-.4-.7-.2-1.6.4-1.9.7-.4 1.6-.2 1.9.4 1 1.7 1.3 4.1.8 6.1-.2.8-.7 1.6-1.1 2.2l.9.3c1.1.6 2 1.2 2.5 1.9.3-.3.9-.8 1.4-1.1 2.4-1.4 5.5-1.6 8.1-.3 2.2 1.2 5.1 4 5.6 10.5.4.8-.3 1.5-1.1 1.6z"/>
        <path fill="#67BCEF" d="M112.2 85.7c-.3 1.8-1.6 3.3-3.3 4-.8.3-1.6.4-2.2.4-.9 0-1.9-.2-2.8-.7-.2.2-.3.4-.6.7-2.7 2.9-6.6 4.4-11.2 4.4-.7 0-1.3 0-1.9-.1-.8-.1-1.3-.8-1.3-1.6.1-.8.8-1.3 1.6-1.3 4.5.4 8.5-.8 10.7-3.2 1.8-1.9 2.4-4.5 1.9-7.8-.1-.8.3-1.4 1.1-1.7.8-.1 1.4.3 1.7 1.1.4 2.5.2 4.9-.6 6.9.8.3 1.7.4 2.4.1.9-.3 1.4-1 1.7-1.9.1-.8.9-1.2 1.7-1.1.8.3 1.2 1 1.1 1.8z"/>
        <path fill="#3AA3E3" d="M74.6 86.2c-1.2 2.2-4 5.1-10.5 5.6h-.2c-.8 0-1.3-.6-1.4-1.3-.1-.8.6-1.4 1.3-1.6 4.2-.3 7.1-1.8 8.3-4.1.9-1.7.8-3.7-.2-5.3-1-1.6-2.3-2.1-5.3-1.7-.8.1-1.4-.4-1.6-1.2-.1-.8.4-1.4 1.2-1.6 1.1-.1 2.2-.2 3.3-.1 1-.6 1.7-1.6 2-2.9.3-1.2.2-2.5-.2-3.3-.4-.7-.3-1.6.3-2 .7-.4 1.6-.3 2 .3 1 1.4 1.2 3.5.7 5.6-.3 1.3-1 2.4-1.8 3.3.7.4 1.3 1.1 1.8 2 1.4 2.6 1.5 5.7.3 8.3zM63.4 82.4c.1.8-.3 1.4-1.1 1.7-1 .1-2 .2-2.9.2-1.7 0-3.1-.2-4.5-.8-.6 1.1-.7 2.2-.2 3.3.3.9 1.1 1.6 2.1 1.8.8.1 1.3.9 1.1 1.7-.2.4-.8 1-1.4 1h-.2c-1.9-.3-3.4-1.7-4.2-3.4-.8-1.8-.7-3.8.3-5.6-.8-.6-1.4-1.1-2-1.8-2.9-3.3-3.7-8.4-2.1-12.9.2-.8 1.1-1.1 1.8-.9.8.2 1.1 1.1.9 1.8-1.2 3.5-.6 7.5 1.6 10.2 2.1 2.4 5.3 3.4 9.3 2.7.6-.2 1.3.2 1.5 1zM75 54.7c.1.8-.4 1.4-1.2 1.7-.2.1-.7.1-1 .1-.9 0-2-.1-3.1-.4-.6.3-.9 1-1.1 1.7-.3 1.2 0 2.8.7 3.8.4.7.4 1.6-.3 2-.7.3-1.6.2-2-.4-1.2-1.8-1.7-4.1-1.1-6.1.2-.8.6-1.4 1-2-1.3-.7-2.5-1.4-3.4-2.4-.3.3-.8.6-1.2.9-1.2.8-2.7 1.2-4.2 1.2-1.3 0-2.5-.3-3.8-.9-2.2-1.2-5.1-4-5.6-10.5-.1-.8.6-1.4 1.3-1.6.8-.1 1.4.6 1.6 1.3.3 4.2 1.8 7.1 4.1 8.3 1.7.9 3.7.8 5.3-.2 2-1.2 1.8-2.2 1-5-.7-2.4-1.6-5.9.6-9.9.3-.7 1.2-1 1.9-.6.7.3 1 1.2.6 1.9-1.6 3-.9 5.4-.3 7.8.4 1.4.9 3.1.4 4.7 1.1 2 6 3.9 8.4 3.4.5-.1 1.2.4 1.4 1.2zM57.2 74c-.3-.7 0-1.6.7-1.9.9-.4 2.2-3.1 1.7-5.9-.6-2.9-2.9-4.4-6.8-4.5-.8 0-1.3-.7-1.3-1.4 0-.8.7-1.3 1.4-1.3 7.3.3 9 4.9 9.4 6.9.8 3.7-.8 7.8-3.2 9-.7.1-1.6-.3-1.9-.9z"/>
        <path fill="#3AA3E3" d="M71.5 26.6c0 .8-.7 1.3-1.4 1.3-4.9-.2-9.1 1.2-11.3 3.7-1.7 1.9-2.3 4.7-1.7 8 .1.8-.3 1.4-1.1 1.7-.1-.1-.2 0-.3 0-.7 0-1.2-.4-1.3-1.2-.4-2.5-.2-4.8.3-6.8-.8-.3-1.6-.3-2.3 0-.9.3-1.4 1-1.7 1.9-.1.6-.7 1.1-1.3 1.1h-.2c-.8-.1-1.2-.9-1.1-1.7.3-1.8 1.6-3.3 3.3-4 1.4-.6 3.1-.6 4.5.1.2-.3.4-.7.8-1 3.9-4.4 10.7-4.7 13.5-4.5.7-.1 1.3.6 1.3 1.4z"/>
    </g>
</svg>
