<svg xmlns="http://www.w3.org/2000/svg" width="160" height="160" viewBox="0 0 160 160">
    <defs>
        <linearGradient id="a" x1="1.377%" x2="76.459%" y1="-12.673%" y2="75.281%">
            <stop offset="0%" stop-color="#1877D0"/>
            <stop offset="100%" stop-color="#1877D0" stop-opacity="0"/>
        </linearGradient>
        <linearGradient id="b" x1="14.071%" x2="82.07%" y1="-20.517%" y2="50.574%">
            <stop offset="0%" stop-color="#1877D0"/>
            <stop offset="100%" stop-color="#1877D0" stop-opacity="0"/>
        </linearGradient>
    </defs>
    <g fill="none" fill-rule="nonzero">
        <circle cx="14.9" cy="62.2" r="14.9" fill="#1E54A0"/>
        <path fill="#67BCEF" d="M3 62.2c0-6.6 5.3-12 12-12 6.6 0 12 5.3 12 12 0 6.6-5.4 12-12 12-6.7-.1-12-5.5-12-12z"/>
        <path fill="#143D8A" d="M5.4 76.2l8.8 3.6c.7.3 1.6.4 2.4.3l16.2-2.9 1.5-5.6-9-4.6c-.4-.2-.9-.2-1.3 0l-6.5 3.3.2.4c.6 1.1 1.9 1.6 3 1l2.4-1.2c.4-.2.8 0 1 .3l.3.6c.2.4 0 .8-.3 1l-8.4 4.3c-.3.1-.6.1-.8 0l-6.4-2.6c-1-.4-2.2.1-2.7 1.1l-.4 1zM52.5 32.6l-9.6 2.3-1.2-2.7c-.4.1-.9-.1-1.2-.4l-8.2-8.1c-.6-.6-.6-1.5 0-2.1.3-.3.7-.4 1-.4.3 0 .8.1 1.1.4l1.7 1.7v-1.2L30.9 17c-.6-.6-.6-1.5 0-2.1.3-.3.7-.5 1-.5.3 0 .8.1 1 .5L36 18v-1.2L30.3 11c-.6-.6-.6-1.5 0-2.1.3-.3.7-.5 1-.5.3 0 .8.1 1.1.5l3.7 3.6v-1.3l-2.7-2.7c-.6-.6-.6-1.5 0-2.1.3-.3.7-.5 1-.5.3 0 .8.2 1 .5l12.9 14.1 4.2 12.1z"/>
        <path fill="#2266AF" d="M136.9 118.5v14.6L124 129v-5.4zM122.4 125.6l-12 7.5v-6.3l-1.5-8.3 3.7-.7z"/>
        <path fill="#2978BE" d="M136.9 133.1c0 .9-.8 1.7-1.7 1.7h-23.1c-1 0-1.7-.8-1.7-1.7l13.3-9.5 13.2 9.5z"/>
        <path fill="#3AA3E3" d="M136.9 118.5l-13.2 9.4-13.2-9.4c.2-.7.9-1.3 1.7-1.3h23.1c.8 0 1.4.6 1.6 1.3z"/>
        <path fill="#1E54A0" d="M55.3 127.1v2.1h-1.4v-1.9c0-.6-.5-1.2-1.2-1.2h-11c-.6 0-1.2.5-1.2 1.2v1.9h-1.4v-2.1c0-1.3 1.1-2.4 2.4-2.4h11.4c1.4.1 2.4 1.1 2.4 2.4z"/>
        <path fill="#143D8A" d="M56 121.2v2.9c0 .2-.2.4-.4.4-1.2 0-2.2-1-2.2-2.2v-.8l-.6-.6v6c0 .6-.5 1.1-1.1 1.1-.3 0-.6-.1-.8-.3-.2-.2-.3-.5-.3-.8v-.7h-.8v1.1c0 .6-.5 1.1-1.1 1.1-.3 0-.6-.1-.8-.3-.2-.2-.3-.5-.3-.8v-1.1h-.8v.7c0 .6-.5 1.1-1.1 1.1-.3 0-.6-.1-.8-.3-.2-.2-.3-.5-.3-.8v-.7h-.8v.4c0 .6-.5 1.1-1.1 1.1-.3 0-.6-.1-.8-.3-.2-.2-.3-.5-.3-.8v-7.4c0-.6 1.4-4.8 1.8-5.9.1-.2.2-.3.4-.3h6.9c.2 0 .4.2.4.5l-.6 2.4c.7 0 1.4.3 1.8.9l3.1 3c.4.4.6.9.6 1.4z"/>
        <path fill="#308DD1" d="M120.6 83.8h35.7V61.4c0-.5-.4-1-1-1h-33.8c-.5 0-1 .4-1 1l.1 22.4z"/>
        <path fill="#3AA3E3" d="M121.4 61.3L155.5 83V61.3z"/>
        <path fill="#1E54A0" d="M116.9 83.8H160v.2c0 .8-.6 1.4-1.4 1.4h-40.3c-.8 0-1.4-.6-1.4-1.4v-.2z"/>
        <path fill="#67BCEF" d="M121.4 61.3V83h34.1z"/>
        <path fill="#3AA3E3" d="M139.7 71.6l3.3 4.1c1 1.2 2.7 1.4 3.9.4l-4.2-5.2-3 .7z"/>
        <path fill="#308DD1" d="M143.9 73.2l3.3 4.1c1 1.2 2.7 1.4 3.9.4l-4.2-5.2-3 .7z"/>
        <path fill="#143D8A" d="M128.1 67.3l1.5 2.5 5.1 7.3c.4.5 1 .9 1.6.9h6v-.2c0-1.2-1-2.2-2.2-2.2h-2c-.5 0-.9-.4-.9-.9s.4-.9.9-.9h8l3.3 4.1c1 1.2 2.7 1.4 3.9.4l-5.4-6.7c-.2-.3-.5-.5-.9-.6l-11.2-3.3c-.8-.2-1.6-.4-2.5-.4h-5.2z"/>
        <path fill="#67BCEF" d="M139.9 29.9l-21.1 5L112 5.8 128 2c2.4 1.5 3.8 2.3 6.2 3.9l5.7 24z"/>
        <path fill="#90D8F0" d="M134.2 5.9l-5 1.1-1.2-5z"/>
        <path fill="#308DD1" d="M129.2 7l5-1.1 1.2 5z"/>
        <path fill="#1E54A0" d="M119.02 8.492l7.3-1.717.572 2.433-7.3 1.717z"/>
        <path fill="#67BCEF" d="M45.1 26.4h-8.7c-1 0-1.8-.8-1.8-1.8V3.8c0-1 .8-1.8 1.8-1.8h8.7c1 0 1.8.8 1.8 1.8v20.7c0 1-.8 1.9-1.8 1.9z"/>
        <circle cx="40.8" cy="23.7" r="1" fill="#1E54A0"/>
        <path fill="#308DD1" d="M42.2 4.2h-3c-.2 0-.3-.2-.3-.3 0-.2.2-.3.3-.3h3c.2 0 .3.2.3.3.1.1-.1.3-.3.3z"/>
        <path fill="#143D8A" d="M114.4 38.6l-6.9-4.3 3.7-5.9 1.4-10.4 2.5-4.1c.2-.4.6-.6 1-.7l2.3-.5c.6 1-.4 2.3-1.5 4.1l-1.2 2s1.3 1.3 1.7 3.7c.4 2.4-.2 5.2-.2 5.2l1.1 4.8-3.9 6.1zM123.1 118.8L122 123c-1.8-.3-2.9-1.7-2.3-3.9l-2-1.7s-.9 1-3.3 1.3c-2.4.3-4 .3-4 .3v7.8c-1.2-1-4.5-5.8-4.6-10.7l-1.4-6.4 7.7-2.8 2.4 6.5c2 .1 6.2 1.8 8.2 4.1.4.4.5.8.4 1.3zM50.3 20.4v5.8l-2.9 4.2c-1.9-.7-3.2-2.5-3.2-4.5 0-1.8 1-3.4 2.5-4.2L45.5 19c-1.5 0-2.7-1.2-2.7-2.7v-.6H48l2.3 4.7zM18.8 65.2l-2-2c.1-.3.2-.6.2-1 0-.9-.6-1.7-1.5-2v-6.1c0-.3-.2-.5-.5-.5s-.5.2-.5.5v6c-1 .2-1.7 1-1.7 2.1s.9 2.1 2.1 2.1c.4 0 .8-.1 1.1-.3l2 2c.2.2.6.2.8 0 .2-.2.2-.6 0-.8zm-5.2-3c0-.7.6-1.3 1.3-1.3.7 0 1.3.6 1.3 1.3 0 .7-.6 1.3-1.3 1.3-.7 0-1.3-.6-1.3-1.3z"/>
        <path fill="#3AA3E3" d="M66.1 131.7v25.2c0 .1-.9 1.1-2.1 1.1H30.4c-1.1 0-2.1-.9-2.1-1.1v-25.2c0-2.1.9-3.1 2.1-3.1H64c1.2 0 2.1 1 2.1 3.1z"/>
        <path fill="#308DD1" d="M66.1 130.7v10.4c0 .8-.5 1.5-1.3 1.7-5.1 1.7-11.1 2.7-17.5 2.7-6.5 0-12.5-1-17.7-2.7-.7-.2-1.3-.9-1.3-1.7v-10.3c0-1.1.9-2.1 2.1-2.1H64c1.2-.1 2.1.9 2.1 2z"/>
        <path fill="#67BCEF" d="M48.3 147.6h-1.9c-.7 0-1.3-.6-1.3-1.3v-1.7c0-.7.6-1.3 1.3-1.3h1.9c.7 0 1.3.6 1.3 1.3v1.7c-.1.7-.6 1.3-1.3 1.3z"/>
        <path fill="#2978BE" d="M120.702 15.969l8.956-2.106.252 1.07-8.956 2.106zM121.802 20.269l8.956-2.106.252 1.07-8.956 2.106zM122.802 24.669l8.956-2.106.252 1.07-8.956 2.106z"/>
        <path fill="#2266AF" d="M102.3 88.5v-6.3c10.2 1 20.5-1.5 30.7-7.4l-5.4-9.4c-9.6 5.5-18 6.9-25.3 6V55.6c5.9-5 10.8-11.5 14.5-19.5l-9.8-4.6c-4.7 9.9-10.7 16-17.2 19.7H62.7c-4.3-4.8-7.7-11.1-9.8-19.8l-10.4 2.5c2.7 11.4 7.8 20.6 15.2 27.5v7.8c-6.8 1.9-15 1.9-24.9-1.6l-3.6 10.2c10 3.5 19.6 4.4 28.5 2.5v6.1c-11.4 9.8-14.5 21.1-15.3 26.8l10.7 1.5c.6-3.8 2.2-9.6 7-15.4 1-1.3 2.2-2.5 3.4-3.6h30.8c5.4 5.8 8.3 12.8 10.3 19.2l10.4-3.2c-1.9-6.2-5.3-15.2-12.4-23-.1 0-.2-.1-.3-.2z"/>
        <path fill="#3AA3E3" d="M108.5 56.2v34.4c0 3.1-1.3 5.9-3.3 8H54.8c-2-2-3.3-4.8-3.3-8V56.3c0-3.2 1.3-6 3.3-8l50.4-.1c2 2 3.3 4.8 3.3 8z"/>
        <path fill="#67BCEF" d="M105.2 48.2L80 73.5 54.8 48.3c2-2 4.8-3.3 8-3.3h34.4c3.2 0 6 1.2 8 3.2z"/>
        <path fill="url(#a)" d="M76.7 66.1l-8.6 7.5-11.9-11.9 10.6-5.6z"/>
        <path fill="#67BCEF" d="M105.2 98.7c-2 2-4.8 3.3-8 3.3H62.8c-3.1 0-5.9-1.3-8-3.3L80 73.5l25.2 25.2z"/>
        <circle cx="100.3" cy="49.3" r="1.1" fill="#3AA3E3"/>
        <circle cx="104.2" cy="53.3" r="1.1" fill="#67BCEF"/>
        <circle cx="55.8" cy="53.3" r="1.1" fill="#67BCEF"/>
        <circle cx="59.8" cy="49.3" r="1.1" fill="#3AA3E3"/>
        <circle cx="59.8" cy="97.7" r="1.1" fill="#3AA3E3"/>
        <circle cx="55.8" cy="93.7" r="1.1" fill="#67BCEF"/>
        <circle cx="104.2" cy="93.7" r="1.1" fill="#67BCEF"/>
        <circle cx="100.3" cy="97.7" r="1.1" fill="#3AA3E3"/>
        <path fill="url(#b)" d="M108.3 62.7l-2 10.1L94.5 61l10.6-1.4z"/>
        <path fill="#143C8A" d="M96.8 62.4l2.2.6c2.6.8 5.4-.8 6.1-3.4l-11.7-3.4c-.9 2.6.7 5.4 3.4 6.2z"/>
        <circle cx="99.1" cy="71.2" r="5.8" fill="#FFF"/>
        <circle cx="61.4" cy="71.2" r="5.8" fill="#FFF"/>
        <path fill="#143C8A" d="M63.3 62.4l-2.2.6c-2.6.8-5.4-.8-6.1-3.4l11.7-3.4c.9 2.6-.6 5.4-3.4 6.2z"/>
        <circle cx="99.1" cy="71.2" r="3.2" fill="#1E54A0"/>
        <path fill="#FFF" d="M101.2 71.2h-.8c0-.7-.6-1.3-1.3-1.3v-.8c1.1 0 2.1 1 2.1 2.1z"/>
        <circle cx="61.4" cy="71.2" r="3.2" fill="#1E54A0"/>
        <path fill="#FFF" d="M63.5 71.2h-.8c0-.7-.6-1.3-1.3-1.3v-.8c1.1 0 2.1 1 2.1 2.1z"/>
        <path fill="#1E54A0" d="M69.4 78.6h21.3v2.8L80 84l-10.6-2.6z"/>
        <path fill="#143C8A" d="M80 92.1c-5.9 0-10.6-4.8-10.6-10.6h21.4c-.1 5.7-4.9 10.6-10.8 10.6z"/>
    </g>
</svg>
