<svg xmlns="http://www.w3.org/2000/svg" width="201" height="190" viewBox="0 0 201 190">
    <g fill="none" fill-rule="evenodd">
        <path fill="#60D5F2" fill-rule="nonzero" d="M67 181.93h68a32 32 0 0 0 27.71-16l34-58.93a32 32 0 0 0 0-32l-34-58.93A32 32 0 0 0 135 .07H67a32 32 0 0 0-27.71 16L5.24 75a32 32 0 0 0 0 32l34 58.93a32 32 0 0 0 27.76 16z" opacity=".2"/>
        <path fill="#D8DFE3" fill-rule="nonzero" d="M173 118.26c-.22 1.11-.44 2.22-.65 3.34l-1.35 6.55-1.38 7-1 4.86.29-1.49c-.54.42-1.08.87-1.62 1.36-6.39 5.83-6.73 11.29-6.73 11.29s-32.88 9.38-38.21 10.58c-.807.18-1.587.377-2.34.59a106.41 106.41 0 0 0-8.52-12.81 88.11 88.11 0 0 0-9.92-10.85c-7.83-10.52-14.35-17.41-19.56-15.93 0 0 4.26-2.57 25.79-11.24 4.43-1.78 19.17-5.58 35.85-1.7l29.35 8.45z"/>
        <path fill="#60D5F2" fill-rule="nonzero" d="M157.84 73.88c0 2.22-1.43 9.37-1.43 9.37s-2.53 18.29-12.7 25.62v3.34c4.24 3.28 6.83 7.33 6.69 11.27-.26 7.48-10.24 11.73-22.3 9.5-12.06-2.23-21.61-10.11-21.36-17.59a8 8 0 0 1 1.11-3.83h.06a10.3 10.3 0 0 0 6.46-9.57v-5.07c-.46-.91-.87-1.81-1.24-2.68a1.87 1.87 0 0 1-1 0c-1.93-.42-4.79-2.82-6.34-7.11a11.25 11.25 0 0 1-.41-6.65c.89-3.31 3.48-4.84 5.67-1.86 1.59-14.86 11.13-26.27 22.67-26.27a32.65 32.65 0 0 1 15.62 3.56c5.16 3.46 8.66 9.18 8.5 17.97z" opacity=".9"/>
        <path fill="#00B8F3" fill-rule="nonzero" d="M82.16 144.46c-1.64 21-15.48 38.36-32.1 41.65l16.74-78.93c10.31 7.1 16.62 21.13 15.36 37.28z" opacity=".8"/>
        <path fill="#526A73" fill-rule="nonzero" d="M66.79 107.18l-16.74 78.93a29.15 29.15 0 0 1-5.68.56c-19 0-33-18.9-31.18-42.22 1.82-23.32 18.74-42.21 37.81-42.21a27.62 27.62 0 0 1 15.79 4.94z"/>
        <path fill="#00B8F3" fill-rule="nonzero" d="M133.57 111.82c-.442.046-.886.07-1.33.07-8.22 0-14.05-5.23-17.86-11v-3.45a4.15 4.15 0 0 1 0-.52c3.48 6.84 9.62 14.42 19.19 14.9z" opacity=".6"/>
        <path fill="#314448" fill-rule="nonzero" d="M156.41 83.25s.83-7-.14-11.15a5.56 5.56 0 0 0-2.22-3.54s-3.7 3-15.19 2.78c-11.49-.22-20.21-.82-20.21-.82l-5.57 13c-2.25-8.7-6.52-7.47-7.73-3-2.13-6.88-3.38-16.36.86-25.76 9.35-20.72 35.37-18.91 47.47-2.37 10.18 13.86 2.73 30.86 2.73 30.86z"/>
        <path fill="#314448" fill-rule="nonzero" d="M113.08 83.49l-3.14 7.31a45.57 45.57 0 0 1-4.59-10.31c1.21-4.49 5.48-5.7 7.73 3z"/>
        <path fill="#00B8F3" fill-rule="nonzero" d="M86.35 58h80.87v3.78H86.35z" opacity=".6"/>
        <path fill="#00B8F3" fill-rule="nonzero" d="M86.35 54.22h80.87V58H86.35z" opacity=".4"/>
        <path fill="#00B8F3" fill-rule="nonzero" d="M86.35 50.44h80.87v3.78H86.35z" opacity=".2"/>
        <path stroke="#0078C5" stroke-dasharray="3.39" stroke-width=".57" d="M183.52 125.4L94 109.83M157.84 38.48l25.68 86.92-20.6-20.52"/>
        <path fill="#00B8F3" fill-rule="nonzero" d="M81.34 61.78h92.43v1H81.34z"/>
        <path fill="#7A8D92" fill-rule="nonzero" d="M120.07 162.38c-.967.267-1.89.553-2.77.86a117.79 117.79 0 0 0-9.18-15.5c-2.26-3.2-4.42-6.24-6.49-9a88.11 88.11 0 0 1 9.92 10.85 106.41 106.41 0 0 1 8.52 12.79z"/>
        <path fill="#D8DFE3" fill-rule="nonzero" d="M102 179.75a10.33 10.33 0 0 0 8.57 10c-10.17-1.7-18.49-12.29-25.3-24.77-14.21-26-8.45-40.67-3.23-42.16 5.22-1.49 11.73 5.41 19.56 15.93 2.07 2.78 4.23 5.82 6.49 9a117.79 117.79 0 0 1 9.18 15.5 35 35 0 0 0-5.15 2.24c-7.32 3.94-10.24 9.51-10.12 14.26z"/>
        <path fill="#314448" fill-rule="nonzero" d="M177.36 114.5h.18-.1zM188.46 114.86h.11-.19zM188.68 114.91h-.11zM189 112.56h-.24l-.25.05-.76.14-2.77.52-6.15 1.16-.52.09h-1.03a4 4 0 0 0-1.41 1.34 5.81 5.81 0 0 0-.5.95c-.07.16-.13.33-.19.49a7 7 0 0 0-.21.76l-.07.34c-.17.85-.33 1.7-.5 2.55l-1.17 6-1.26 6.46-.86 4.41-.43 2.18-1 4.92-.21 1.06-.13.68-.12.59-.22.75v.23l-.07.31a7 7 0 0 0-.2 1.69v.14a.4.4 0 0 0 0 .06.72.72 0 0 0 0 .11v.55c.03.08.068.156.11.23a1.32 1.32 0 0 0 .97.7l-1.31-.11a1.82 1.82 0 0 1-1.32-.46c-.79-.88-.45-2.3-.21-3.53l.58-2.95.46-2.36.52-2.64 1-4.86 1.38-7 1.27-6.51c.22-1.11.43-2.22.65-3.34a5.39 5.39 0 0 1 2.11-3.41 4.72 4.72 0 0 1 1.81-.54l6.67-1.26 2.72-.51.57-.11a3.77 3.77 0 0 1 1 0l1.29.13z"/>
        <path fill="#7A8D92" fill-rule="nonzero" d="M189.13 112.57a6.06 6.06 0 0 0-1.42.21l-2.77.52-6.15 1.16a7.08 7.08 0 0 0-1.49.34 5.1 5.1 0 0 0-2.49 3.63c-.2 1-.38 1.93-.57 2.9l-1.17 6-1.26 6.46-.86 4.41-.43 2.18-1.19 6.07-.23 1.18a8.38 8.38 0 0 0-.33 3.16 1.44 1.44 0 0 0 1.61 1.31c.12 0 10.45-2.85 11.07-3a3.85 3.85 0 0 0 2.43-2 7.86 7.86 0 0 0 .79-2.48c5.55-28.35 5.15-26.31 5.67-29.07.22-1.18.11-2.87-1.21-2.98zm-8.65 8.93a2.47 2.47 0 0 1 1.28-1.66 1 1 0 0 1 1.39.55 2.32 2.32 0 0 1-.37 2 1.68 1.68 0 0 1-1.61.85c-.71-.14-.86-1.03-.69-1.74zM177.49 114.73l-.19.07.19-.07z"/>
        <path fill="#7A8D92" fill-rule="nonzero" d="M183.19 121.54a2.48 2.48 0 0 1-1.28 1.65 1 1 0 0 1-1.39-.54 2.32 2.32 0 0 1 .37-2 1.68 1.68 0 0 1 1.61-.85c.71.14.86 1.02.69 1.74z"/>
        <path fill="#314448" fill-rule="nonzero" d="M183.19 121.54a2.16 2.16 0 0 1-1.79 1.77c-.75 0-1.15-.82-.91-1.8a2.16 2.16 0 0 1 1.79-1.77c.72 0 1.15.81.91 1.8z"/>
        <path fill="#FFF" fill-rule="nonzero" d="M58.2 152.13a20.71 20.71 0 0 1-7.9 16.26 87.87 87.87 0 0 1-8.11 5.61c-1.05.7-1.88.49-2.33-.36-.55-1.06.12-1.6.94-2.05a39.41 39.41 0 0 0 9.45-6.9 17.47 17.47 0 0 0 4.85-15.56c-.55-3.47-2.47-6.22-6.16-6.86-3-.51-6.1.11-7.85 2.8a20.68 20.68 0 0 0-2.51 5.85 13.5 13.5 0 0 1-8.31 9.48 12.87 12.87 0 0 1-1.66.5 1.43 1.43 0 0 1-1.94-1c-.29-1 .43-1.39 1.26-1.6a10.09 10.09 0 0 0 7-5.44 29.74 29.74 0 0 0 1.9-5.73c2-8.19 11.94-9.83 17.12-5.49a11.69 11.69 0 0 1 4 8.16c.13.77.18 1.55.25 2.33z"/>
        <path fill="#FFF" fill-rule="nonzero" d="M63 151.2c-.08 8.52-3 15.14-8.76 20.55a10.27 10.27 0 0 1-.93.81 1.36 1.36 0 0 1-2-.08c-.64-.73-.25-1.36.37-1.91a24.81 24.81 0 0 0 8-12.92 22.21 22.21 0 0 0-.68-13.72c-1.66-4.13-5.11-6.13-9.31-6.9a13 13 0 0 0-10.55 2.38 15.83 15.83 0 0 0-4.23 4.59c-1.78 3-3.22 6.31-5.92 8.7-.65.58-1.37 1.69-2.36.59-.99-1.1 0-1.68.7-2.36a16.33 16.33 0 0 0 3.18-4.64c2.31-4.35 5-8.47 9.83-10.51a16.93 16.93 0 0 1 13-.44 13.82 13.82 0 0 1 7.86 7.13 20.22 20.22 0 0 1 1.8 8.73z" opacity=".4"/>
        <path fill="#FFF" fill-rule="nonzero" d="M52.59 150.91a17.4 17.4 0 0 1-3.37 9.66 27.79 27.79 0 0 1-13.88 10.09 3.16 3.16 0 0 1-.94.22 1.32 1.32 0 0 1-1.35-.78 1.59 1.59 0 0 1 .65-1.72 14.53 14.53 0 0 1 2.4-1c4.71-2 8.82-4.85 11.45-9.41a13.55 13.55 0 0 0 2-8.51c-.11-.93-.15-2-1.35-2.23a3 3 0 0 0-3 1.44 22.66 22.66 0 0 0-1.2 5c-.9 7.56-7.66 11.76-12.62 13.1a1.28 1.28 0 0 1-1.74-.93 1.26 1.26 0 0 1 .92-1.63c1.11-.44 2.26-.8 3.33-1.33a13 13 0 0 0 7.49-10.36 13 13 0 0 1 2.54-6.71c1.46-1.78 6-2.16 7.43.45a8.47 8.47 0 0 1 1.24 4.65z" opacity=".6"/>
        <path fill="#FFF" fill-rule="nonzero" d="M68.89 151.22v2.23a1.33 1.33 0 0 1-1.54 1.39c-.94 0-1.18-.68-1.25-1.52-.25-2.69-.18-5.48-.9-8.05-2.11-7.55-6.88-12.53-14.94-13.51-5.89-.76-11.26 1.16-15.86 4.71a43.86 43.86 0 0 0-5.19 5.25c-.66.71-1.25 1.5-2.23.71s-.53-1.56 0-2.3c5.87-7.61 13.47-12 23.22-11.22 7.45.61 12.75 5 16.18 11.57a23 23 0 0 1 2.51 10.74z" opacity=".8"/>
        <path fill="#FFF" fill-rule="nonzero" d="M68.85 140a2.48 2.48 0 0 1-1.09-1c-7.13-12.52-19.76-16.29-32.6-9.67-1.39.71-2.69 1.6-4 2.45-.66.43-1.3.64-1.85-.08a1.36 1.36 0 0 1 .27-2.08c15.85-11.89 33.49-5.76 40.22 7.23.23.436.43.887.6 1.35.36 1.04-.26 2.29-1.55 1.8z"/>
        <path fill="#FFF" fill-rule="nonzero" d="M48.25 121.23a28.71 28.71 0 0 0-11.08 2.24c-.38.16-.75.34-1.14.48a1.37 1.37 0 0 1-1.94-.78 1.14 1.14 0 0 1 .84-1.64c3-1 6-2.24 9.08-2.7a28.13 28.13 0 0 1 23.49 6.67c.44.38 1 .73 1.2 1.22a2.27 2.27 0 0 1 0 1.75 1.16 1.16 0 0 1-1.84.2c-.74-.59-1.4-1.28-2.15-1.86a26.21 26.21 0 0 0-16.46-5.58z" opacity=".6"/>
        <path fill="#FFF" fill-rule="nonzero" d="M49.59 113.26c3.922-.09 7.8.854 11.24 2.74 1.13.58 1.4 1.36.8 2.17a1.35 1.35 0 0 1-1.86.43 23.69 23.69 0 0 0-15.42-1.94c-.94.17-1.69 0-1.92-1-.23-1 .51-1.49 1.41-1.61 1.91-.31 3.81-.7 5.75-.79z" opacity=".4"/>
        <path stroke="#FF6161" stroke-width=".85" d="M7.24 118.97v-11.36H18.6M76.75 107.33h11.36v11.36M88.11 169v11.37H76.75M18.6 180.65H7.24v-11.36"/>
        <path fill="#60D5F2" fill-rule="nonzero" d="M187.1 149.58a7.11 7.11 0 0 1-2.76 4.66c-10.13 7.64-50.87 37.21-71.88 35.69h-1.34l-.5-.08a10.33 10.33 0 0 1-8.57-10c-.15-4.79 2.76-10.32 10.12-14.27a35 35 0 0 1 5.15-2.24c.88-.307 1.803-.593 2.77-.86a59.848 59.848 0 0 1 2.34-.59c5.33-1.2 38.21-10.58 38.21-10.58s.34-5.47 6.73-11.29c.54-.49 1.08-.94 1.62-1.36l-1.28 6.52a2.67 2.67 0 0 0 1.73.71 32 32 0 0 0 10-2.74c4.59-1.92 6.05-3.73 6.47-4.73l.64-3.26a4.17 4.17 0 0 1 1.64 1c.65.7-.44 8.93-1.09 13.42z" opacity=".8"/>
        <path fill="#00B8F3" fill-rule="nonzero" d="M167.35 139.92c-6.39 5.83-6.73 11.29-6.73 11.29s-.66 11.49-6 12.69c0 0 8.53-.33 8.65-10.13.09-7.13 4.08-13.85 4.08-13.85z" opacity=".6"/>
        <path fill="#314448" fill-rule="nonzero" d="M185.58 139.89c-.65 1.64-7.59 5.83-16.38 7.2-.53-.13-1.49-.55-1.65-1.23l.16-.79a2.67 2.67 0 0 0 1.73.71 32 32 0 0 0 10-2.74c4.59-1.92 6.05-3.73 6.47-4.73l-.33 1.58z" opacity=".2"/>
    </g>
</svg>
