<?xml version="1.0" encoding="utf-8"?>
<!-- Generator: Adobe Illustrator 21.1.0, SVG Export Plug-In . SVG Version: 6.00 Build 0)  -->
<svg version="1.1" id="Layer_1" xmlns="http://www.w3.org/2000/svg" xmlns:xlink="http://www.w3.org/1999/xlink" x="0px" y="0px"
	 viewBox="0 0 260 260" style="enable-background:new 0 0 260 260;" xml:space="preserve">
<style type="text/css">
	.st0{opacity:0.2;fill:#60D5F2;enable-background:new    ;}
	.st1{fill:#3AA3E3;}
	.st2{fill:#90D8F0;}
	.st3{fill:#FFFFFF;}
	.st4{fill:#143D8A;}
	.st5{fill:#2266AF;}
	.st6{fill:#67BCEF;}
	.st7{fill:none;stroke:#90D8F0;stroke-width:0.5139;stroke-miterlimit:10;stroke-dasharray:3.4869;}
	.st8{fill:#1E54A0;}
	.st9{fill:#314448;}
	.st10{fill:#2978BE;}
	.st11{fill:#7A8D92;}
	.st12{fill:none;stroke:#B17957;stroke-width:1.4529;stroke-miterlimit:10;}
	.st13{fill:none;stroke:#90D8F0;stroke-width:0.5;stroke-miterlimit:10;}
</style>
<path class="st0" d="M96,220.9h68c11.4,0,22-6.1,27.7-16l34-58.9c5.7-9.9,5.7-22.1,0-32l-34-58.9c-5.7-9.9-16.3-16-27.7-16H96
	c-11.4,0-22,6.1-27.7,16l-34,58.9c-5.7,9.9-5.7,22.1,0,32l34,58.9C74,214.8,84.5,220.9,96,220.9z"/>
<g>
	<path class="st1" d="M96,220.9h68c11.4,0,22-6.1,27.7-16l34-58.9c5.7-9.9,5.7-22.1,0-32l-34-58.9c-5.7-9.9-16.3-16-27.7-16H96
		c-11.4,0-22,6.1-27.7,16l-34,58.9c-5.7,9.9-5.7,22.1,0,32l34,58.9C74,214.8,84.5,220.9,96,220.9z"/>
	<g>
		<g>
			<path class="st2" d="M109.8,159.9c0,7.6-2.2,14.8-6,20.8c-5.2,8.2-13.4,14.4-23,16.9c-3.2,0.9-6.6,1.3-10.1,1.3
				c-21.6,0-39.1-17.5-39.1-39.1s17.5-39.1,39.1-39.1C92.3,120.8,109.8,138.3,109.8,159.9z"/>
			<g>
				<g>
					<path class="st3" d="M62.6,180.8c0,0.9,0.7,1.6,1.6,1.6c0.9,0,1.6-0.7,1.6-1.6v-14.3h-3.3v14.3H62.6z"/>
					<path class="st3" d="M69.1,169.5c0,0.9,0.7,1.6,1.6,1.6s1.6-0.7,1.6-1.6v-2.9H69v2.9H69.1z"/>
					<path class="st3" d="M70.7,174.3c-0.9,0-1.6,0.7-1.6,1.6v8.1c0,0.9,0.7,1.6,1.6,1.6s1.6-0.7,1.6-1.6v-8
						C72.4,175.1,71.6,174.3,70.7,174.3z"/>
					<path class="st3" d="M75.6,180.8c0,0.9,0.7,1.6,1.6,1.6s1.6-0.7,1.6-1.6v-14.3h-3.3v14.3H75.6z"/>
					<path class="st3" d="M56.1,176c0,0.9,0.7,1.6,1.6,1.6s1.6-0.7,1.6-1.6v-9.4H56v9.4H56.1z"/>
					<path class="st3" d="M88.6,169.5c0,0.9,0.7,1.6,1.6,1.6s1.6-0.7,1.6-1.6v-2.9h-3.3v2.9H88.6z"/>
					<path class="st3" d="M82.1,176c0,0.9,0.7,1.6,1.6,1.6s1.6-0.7,1.6-1.6v-9.4H82v9.4H82.1z"/>
					<path class="st3" d="M49.6,169.5c0,0.9,0.7,1.6,1.6,1.6c0.9,0,1.6-0.7,1.6-1.6v-2.9h-3.3v2.9H49.6z"/>
				</g>
			</g>
			<g>
				<g>
					<path class="st4" d="M57.7,163c-0.9,0-1.6,0.7-1.6,1.6v1.9h3.3v-1.9C59.4,163.7,58.6,163,57.7,163z"/>
					<g>
						<path class="st4" d="M90.2,159.7c-0.9,0-1.6,0.7-1.6,1.6v5.2h3.3v-5.2C91.9,160.4,91.1,159.7,90.2,159.7z"/>
						<g>
							<path class="st4" d="M70.7,150c2.7,0,4.9,2.2,4.9,4.9c0,0.9,0.7,1.6,1.6,1.6s1.6-0.7,1.6-1.6c0-4.5-3.6-8.1-8.1-8.1
								s-8.1,3.6-8.1,8.1v11.7h3.3v-11.7C65.9,152.2,68.1,150,70.7,150z"/>
							<path class="st4" d="M70.7,153.2c-0.9,0-1.6,0.7-1.6,1.6v11.7h3.3v-11.7C72.4,153.9,71.6,153.2,70.7,153.2z"/>
							<path class="st4" d="M77.2,159.7c-0.9,0-1.6,0.7-1.6,1.6v5.2h3.3v-5.2C78.9,160.4,78.1,159.7,77.2,159.7z"/>
							<path class="st4" d="M84.3,149.4c-0.3-0.8-1.3-1.2-2.1-0.9c-0.8,0.3-1.2,1.3-0.9,2.1c0.5,1.4,0.8,2.8,0.8,4.3v11.7h3.3v-11.7
								C85.4,152.9,85,151.1,84.3,149.4z"/>
							<path class="st4" d="M79.9,143.4c-2.6-2.1-5.8-3.2-9.2-3.2c-8.1,0-14.6,6.6-14.6,14.6v3.3c0,0.9,0.7,1.6,1.6,1.6
								s1.6-0.7,1.6-1.6v-3.3c0-6.3,5.1-11.4,11.4-11.4c2.6,0,5.1,0.9,7.1,2.5c0.7,0.6,1.7,0.5,2.3-0.2
								C80.7,145,80.6,144,79.9,143.4z"/>
							<path class="st4" d="M70.7,133.7c-2.9,0-5.8,0.6-8.5,1.8c-0.8,0.4-1.2,1.3-0.8,2.1s1.3,1.2,2.1,0.8c2.3-1,4.7-1.5,7.2-1.5
								c9.9,0,17.9,8,17.9,17.9c0,0.9,0.7,1.6,1.6,1.6s1.6-0.7,1.6-1.6C91.9,143.2,82.4,133.7,70.7,133.7z"/>
							<path class="st4" d="M57.4,142.9c0.6-0.7,0.5-1.7-0.1-2.3c-0.7-0.6-1.7-0.5-2.3,0.1c-3.5,3.9-5.4,8.9-5.4,14.1v11.7h3.3
								v-11.7C52.9,150.4,54.5,146.2,57.4,142.9z"/>
						</g>
					</g>
				</g>
			</g>
			<rect x="41.8" y="166.5" class="st4" width="58" height="0.8"/>
		</g>
		<path class="st5" d="M201.5,139.3L201.5,139.3c-0.2,1.2-0.5,2.3-0.7,3.5c-0.4,2.2-0.9,4.5-1.3,6.7c-0.5,2.4-0.9,4.8-1.4,7.2
			c-0.3,1.7-0.7,3.3-1,5l0.3-1.5c-0.6,0.4-1.1,0.9-1.7,1.4c-6.6,6-6.9,11.6-6.9,11.6s-33.8,9.6-39.3,10.9c-0.8,0.2-1.6,0.4-2.4,0.6
			c-2.5-4.5-5.6-9.1-8.8-13.2c-3.3-4.3-6.8-8.1-10.2-11.2c-8-10.8-14.8-17.9-20.1-16.4c0,0,4.4-2.6,26.5-11.6
			c4.6-1.8,19.7-5.7,36.8-1.7L201.5,139.3z"/>
		<path class="st6" d="M185.9,93.7c0,2.3-1.5,9.6-1.5,9.6s-2.6,18.8-13.1,26.3v3.4c4.4,3.4,7,7.5,6.9,11.6
			c-0.3,7.7-10.5,12.1-22.9,9.8s-22.2-10.4-21.9-18.1c0-1.4,0.4-2.8,1.1-3.9c0,0,0,0,0.1,0c4-1.6,6.6-5.5,6.6-9.8v-5.2
			c-0.5-0.9-0.9-1.9-1.3-2.8c-0.3,0.1-0.7,0.1-1.1,0c-2-0.4-4.9-2.9-6.5-7.3c-0.9-2.5-0.9-5-0.4-6.8c0.9-3.4,3.6-5,5.8-1.9
			c1.6-15.3,11.4-27,23.3-27c5.6,0,11.4,1.1,16.1,3.7C182.5,78.8,186.1,84.6,185.9,93.7z"/>
		<path class="st5" d="M161,132.7c-0.5,0-0.9,0.1-1.4,0.1c-8.4,0-14.4-5.4-18.4-11.3V118c0-0.2,0-0.4,0-0.5
			C144.8,124.4,151.2,132.2,161,132.7z"/>
		<path class="st4" d="M184.5,103.3c0.1-0.5,0.8-7.3-0.1-11.5c-0.6-2.7-2.3-3.6-2.3-3.6s-3.8,3-15.6,2.9
			c-11.9-0.2-20.8-0.8-20.8-0.8l-5.7,13.3l-3.2,7.5c0,0-2.7-4.2-4.7-10.6c-2.2-7.1-3.5-16.8,0.9-26.5c9.6-21.3,36.3-19.4,48.8-2.4
			C191.9,85.5,184.8,102.5,184.5,103.3z"/>
		<line class="st7" x1="201.1" y1="164.3" x2="120.3" y2="130.6"/>
		<line class="st7" x1="212.1" y1="159.2" x2="187.2" y2="128.9"/>
		<line class="st7" x1="185.9" y1="57.3" x2="216.3" y2="139.7"/>
		<path class="st4" d="M147.1,184.6c-1,0.3-1.9,0.6-2.8,0.9c-2.7-5.4-6-11-9.4-15.9c-2.3-3.3-4.5-6.4-6.7-9.3
			c3.4,3.1,6.8,6.9,10.2,11.2C141.5,175.5,144.6,180.1,147.1,184.6z"/>
		<path class="st8" d="M128.6,202.5c0.2,5,3.6,9.3,8.8,10.2c-10.4-1.7-19-12.6-26-25.5c-14.6-26.8-8.7-41.8-3.3-43.3
			c5.4-1.5,12.1,5.6,20.1,16.4c2.1,2.9,4.4,6,6.7,9.3c3.5,4.9,6.8,10.5,9.4,15.9c-2,0.7-3.7,1.5-5.3,2.3
			C131.4,191.9,128.4,197.5,128.6,202.5z"/>
		<path class="st9" d="M198.8,172.1L198.8,172.1L198.8,172.1L198.8,172.1z"/>
		<path class="st9" d="M206,135.4c0.1,0,0.1,0,0.2,0C206.1,135.4,206.1,135.4,206,135.4C206.1,135.4,206,135.4,206,135.4z"/>
		<path class="st9" d="M217.4,135.8h0.1H217.4L217.4,135.8z"/>
		<path class="st9" d="M217.6,135.8h-0.1H217.6L217.6,135.8z"/>
		<g>
			<path class="st10" d="M217.9,133.4c-0.1,0-0.2,0-0.2,0l0,0c-0.1,0-0.2,0-0.3,0.1c-0.3,0-0.5,0.1-0.8,0.1
				c-0.9,0.2-1.9,0.4-2.8,0.5c-2.1,0.4-4.2,0.8-6.3,1.2l0,0c-0.2,0-0.4,0.1-0.5,0.1s-0.1,0-0.2,0c-0.1,0-0.1,0-0.2,0
				c-0.1,0-0.1,0-0.2,0l0,0c-0.1,0-0.1,0-0.2,0l0,0l0,0h-0.1H206c0,0,0,0-0.1,0l0,0h-0.1c-0.6,0.3-1.1,0.8-1.4,1.4
				c-0.2,0.3-0.4,0.6-0.5,1c-0.1,0.2-0.1,0.3-0.2,0.5c-0.1,0.3-0.2,0.5-0.2,0.8c0,0.1,0,0.2-0.1,0.4c-0.2,0.9-0.3,1.8-0.5,2.6
				c-0.4,2.1-0.8,4.1-1.2,6.2c-0.4,2.2-0.9,4.4-1.3,6.6c-0.3,1.5-0.6,3-0.9,4.5c-0.1,0.7-0.3,1.5-0.4,2.2c-0.3,1.7-0.7,3.4-1,5.1
				l0,0c-0.1,0.4-0.1,0.7-0.2,1.1c0,0.2-0.1,0.5-0.1,0.7s-0.1,0.4-0.1,0.6c0,0.1-0.1,0.3-0.1,0.4c0,0.1,0,0.1,0,0.2c0,0,0,0,0,0.1
				s0,0.2-0.1,0.3c-0.1,0.6-0.2,1.2-0.2,1.7l0,0v0.1c0,0,0,0,0,0.1v0.1l0,0v0.1v0.1v0.1v0.1c0,0,0,0,0,0.1s0.1,0.2,0.1,0.2
				c0.1,0.3,0.4,0.5,0.6,0.6c0.1,0.1,0.2,0.1,0.4,0.1c-0.4,0-0.9-0.1-1.3-0.1c-0.5,0-1-0.1-1.4-0.5c-0.8-0.9-0.5-2.4-0.2-3.6
				c0.2-1,0.4-2,0.6-3c0.2-0.8,0.3-1.6,0.5-2.4c0.2-0.9,0.4-1.8,0.5-2.7c0.3-1.7,0.7-3.3,1-5c0.5-2.4,0.9-4.8,1.4-7.2
				c0.4-2.2,0.9-4.5,1.3-6.7c0.2-1.1,0.4-2.3,0.7-3.4l0,0c0.3-1.2,1-2.7,2.2-3.5c0.6-0.4,1.2-0.4,1.9-0.6c2.3-0.4,4.6-0.9,6.9-1.3
				c0.9-0.2,1.9-0.4,2.8-0.5c0.2,0,0.4-0.1,0.6-0.1c0.4-0.1,0.7,0,1,0C217.1,133.3,217.5,133.4,217.9,133.4z"/>
			<g>
				<path class="st3" d="M218.1,133.4c-0.5,0-1,0.1-1.5,0.2c-0.9,0.2-1.9,0.4-2.8,0.5c-2.1,0.4-4.2,0.8-6.3,1.2
					c-0.5,0.1-1,0.1-1.5,0.3c-1.4,0.6-2.3,2.4-2.6,3.7c-0.2,1-0.4,2-0.6,3c-0.4,2.1-0.8,4.1-1.2,6.2c-0.4,2.2-0.9,4.4-1.3,6.6
					c-0.3,1.5-0.6,3-0.9,4.5c-0.1,0.7-0.3,1.5-0.4,2.2c-0.4,2.1-0.8,4.2-1.2,6.2c-0.1,0.4-0.2,0.8-0.2,1.2c-0.2,1.1-0.6,2.2-0.3,3.2
					c0.2,0.8,0.7,1.5,1.7,1.3c0.1,0,10.7-2.9,11.4-3.1c1.2-0.3,1.9-1.1,2.5-2.1c0.5-0.8,0.6-1.7,0.8-2.5c5.7-29.1,5.3-27,5.8-29.9
					C219.6,135.3,219.5,133.5,218.1,133.4z M209.2,142.6c0.2-0.7,0.6-1.4,1.3-1.7s1.2,0,1.4,0.6s0.1,1.4-0.4,2.1
					c-0.4,0.6-1,1-1.7,0.9C209.2,144.2,209,143.3,209.2,142.6z"/>
				<path class="st11" d="M206.1,135.6c-0.1,0-0.1,0-0.2,0.1C206,135.7,206.1,135.7,206.1,135.6z"/>
				<path class="st11" d="M212,142.6c-0.2,0.7-0.6,1.4-1.3,1.7s-1.2,0-1.4-0.6s-0.1-1.4,0.4-2.1c0.4-0.6,1-1,1.7-0.9
					C212,141,212.2,141.9,212,142.6z"/>
				<path class="st11" d="M218,133.4c-0.1,0-0.1,0-0.2,0C217.8,133.4,217.9,133.4,218,133.4z"/>
				<path class="st11" d="M218.1,133.4H218H218.1z"/>
			</g>
			<path class="st10" d="M212,142.6c-0.2,1-1.1,1.8-1.8,1.8c-0.8,0-1.2-0.8-0.9-1.9c0.2-1,1.1-1.8,1.8-1.8
				C211.8,140.8,212.2,141.6,212,142.6z"/>
		</g>
		<path class="st12" d="M171.4,114.5"/>
		<path class="st10" d="M169.3,107.6"/>
		<g>
			<g>
				<polyline class="st13" points="24.5,128.3 24.5,113.9 38.8,113.9 				"/>
				<polyline class="st13" points="102.6,113.6 117,113.6 117,127.9 				"/>
				<polyline class="st13" points="117,191.4 117,205.8 102.6,205.8 				"/>
				<polyline class="st13" points="38.8,206.1 24.5,206.1 24.5,191.8 				"/>
			</g>
		</g>
		<path class="st6" d="M216,171.5c-0.3,1.9-1.3,3.6-2.8,4.8c-10.4,7.8-52.3,38.2-73.9,36.7c-0.1,0-0.3,0-0.4,0c-0.1,0-0.2,0-0.3,0
			s-0.2,0-0.3,0l0,0c-0.1,0-0.2,0-0.3,0c-0.2,0-0.3-0.1-0.5-0.1c-5.2-1-8.6-5.2-8.8-10.2c-0.2-4.9,2.8-10.6,10.4-14.7
			c1.6-0.8,3.3-1.6,5.3-2.3c0.9-0.3,1.9-0.6,2.8-0.9c0.8-0.2,1.6-0.4,2.4-0.6c5.5-1.2,39.3-10.9,39.3-10.9s0.4-5.6,6.9-11.6
			c0.6-0.5,1.1-1,1.7-1.4l-1.3,6.7l0,0c0.4,0.5,1.4,0.7,1.8,0.7l0,0c4.1-0.3,7.9-1.9,10.2-2.8c4.7-2,6.2-3.8,6.7-4.9l0.7-3.3
			c0.9,0.3,1.4,0.7,1.7,1C217.8,158.4,216.7,166.8,216,171.5z"/>
		<path class="st1" d="M195.7,161.5c-6.6,6-6.9,11.6-6.9,11.6s-0.7,11.8-6.2,13c0,0,8.8-0.3,8.9-10.4
			C191.6,168.4,195.7,161.5,195.7,161.5z"/>
		<path class="st10" d="M214.4,161.5c-0.7,1.7-7.8,6-16.8,7.4l0,0c-0.5-0.1-1.5-0.6-1.7-1.3l0.2-0.8l0,0c0.4,0.5,1.4,0.7,1.8,0.7
			l0,0l0,0l0,0c4.1-0.3,7.9-1.9,10.2-2.8c4.7-2,6.2-3.8,6.7-4.9L214.4,161.5z"/>
	</g>
</g>
</svg>
