<?xml version="1.0" encoding="utf-8"?>
<!-- Generator: Adobe Illustrator 21.1.0, SVG Export Plug-In . SVG Version: 6.00 Build 0)  -->
<svg version="1.1" id="Layer_1" xmlns="http://www.w3.org/2000/svg" xmlns:xlink="http://www.w3.org/1999/xlink" x="0px" y="0px"
	 viewBox="0 0 280 98" style="enable-background:new 0 0 280 98;" xml:space="preserve">
<style type="text/css">
	.st0{fill:#67BCEF;}
	.st1{fill:#90D8F0;}
	.st2{fill:#3AA3E3;}
	.st3{fill:#FFFFFF;}
	.st4{fill:none;stroke:#3AA3E3;stroke-width:0.75;stroke-linecap:round;stroke-linejoin:round;stroke-miterlimit:10;}
</style>
<title>Block 0</title>
<g>
	<g>
		<g>
			<path class="st0" d="M237.1,48.6c0,0-3.4-23.8,0.7-30.9c1-1.8,2.4-3.3,3.9-4.4c0.9-0.7,1.9-1.3,2.9-1.7c4.2-1.8,9.1-1.7,13.4,0.7
				L237.1,48.6z"/>
			<path class="st1" d="M228.1,23.4c-0.6,0-1.1-0.5-1-1.1c0.5-4.2,1.4-7.5,2.7-9.9c1.5-2.7,3.5-4.9,6-6.8c0.4-0.3,0.7-0.5,1.1-0.8
				c0.5-0.3,1.1-0.1,1.4,0.4l0,0c0.3,0.5,0.1,1.1-0.3,1.3c-0.4,0.2-0.7,0.5-1,0.7c-2.2,1.7-4,3.7-5.4,6.2c-1.2,2.1-2.1,5.1-2.5,9
				C229.1,23,228.7,23.4,228.1,23.4L228.1,23.4z"/>
			<path class="st1" d="M222.6,23.4c-0.6,0-1.1-0.5-1-1.1c0.5-5.3,1.7-9.4,3.5-12.6c1.9-3.3,4.4-6.1,7.4-8.4
				c0.5-0.4,1.1-0.8,1.7-1.2c0.5-0.3,1.2-0.2,1.4,0.3l0,0c0.3,0.5,0.1,1.1-0.3,1.4c-0.5,0.3-1.1,0.7-1.6,1.1
				c-2.8,2.1-5.1,4.7-6.9,7.8c-1.7,2.9-2.7,6.8-3.2,11.8C223.6,23,223.2,23.4,222.6,23.4L222.6,23.4z"/>
			<path class="st1" d="M265.6,49.5c-0.3-0.5-0.1-1,0.3-1.3c4.1-2.9,6.9-5.8,8.6-8.7c1.8-3.1,2.9-6.4,3.3-9.9
				c0.1-0.6,0.1-1.3,0.2-1.9c0-0.5,0.5-1,1-1l0,0c0.6,0,1,0.5,1,1c0,0.7-0.1,1.4-0.2,2.1c-0.5,3.8-1.7,7.3-3.6,10.6
				c-1.8,3.2-4.8,6.2-9.2,9.3C266.6,50.2,265.9,50,265.6,49.5L265.6,49.5z"/>
			<path class="st1" d="M262.9,44.8c-0.3-0.5-0.1-1,0.3-1.3c3.2-2.3,5.4-4.5,6.6-6.7c1.4-2.4,2.3-5,2.6-7.8c0.1-0.4,0.1-0.8,0.1-1.2
				c0-0.5,0.5-1,1-1l0,0c0.6,0,1.1,0.5,1,1.1c0,0.5-0.1,0.9-0.1,1.4c-0.4,3-1.3,5.9-2.9,8.6c-1.4,2.4-3.7,4.8-7.2,7.3
				C263.9,45.4,263.2,45.3,262.9,44.8L262.9,44.8z"/>
			<path class="st1" d="M250.7,10.3L250.7,10.3c2.5,0,5.1,0.6,7.4,2l1.4-2.4c-1.8-1-3.8-1.7-5.8-2.1C252.1,7.6,250.7,8.8,250.7,10.3
				z"/>
			<path class="st1" d="M233.7,23.4c-0.6,0-1.1-0.5-1-1.1c0.4-3.1,1-5.5,2-7.1c1.2-2,2.7-3.7,4.5-5.1c0.2-0.1,0.4-0.3,0.5-0.4
				c0.5-0.3,1.2-0.2,1.5,0.3l0,0c0.3,0.5,0.1,1-0.3,1.3c-0.2,0.1-0.3,0.2-0.5,0.4c-1.6,1.2-3,2.7-4,4.5c-0.8,1.4-1.4,3.5-1.7,6.3
				C234.6,23,234.2,23.4,233.7,23.4L233.7,23.4z"/>
			<path class="st0" d="M259.5,9.9c1.8,1,3.4,2.4,4.7,4c1,1.2,0.7,3-0.7,3.8v0c-1.3-2.2-3.1-4.1-5.4-5.4L259.5,9.9z"/>
			<path class="st1" d="M260.1,40c-0.3-0.4-0.1-1,0.3-1.3c2.3-1.7,3.8-3.3,4.6-4.6c1-1.8,1.7-3.7,1.9-5.7c0-0.2,0-0.4,0.1-0.6
				c0-0.5,0.5-0.9,1-0.9l0,0c0.6,0,1.1,0.5,1,1.1c0,0.2,0,0.4-0.1,0.7c-0.3,2.3-1,4.5-2.2,6.5c-0.9,1.6-2.7,3.4-5.2,5.3
				C261.1,40.7,260.4,40.5,260.1,40L260.1,40z"/>
			<path class="st2" d="M265.4,26.9c-0.2,1.9-0.9,3.8-1.9,5.6c-4.1,7.1-26.4,16.1-26.4,16.1l6-10.4l2.2-3.9l12.7-22
				c4.3,2.5,6.8,6.7,7.3,11.3C265.5,24.7,265.5,25.8,265.4,26.9z"/>
			<path class="st3" d="M244.7,11.6c-1,0.5-2,1-2.9,1.7c-0.2,2.9-0.2,6.3,0,10.2c0.3,6.8,1.2,12.8,1.2,12.9l0.2,1.7l2.2-3.9
				C244.7,28.7,243.9,18.5,244.7,11.6z"/>
			<path class="st3" d="M265.4,26.9c-2.4,1.6-5.3,3.4-8.8,5.2c-6.1,3.1-11.7,5.4-11.8,5.4l-1.6,0.7l2.2-3.9
				c5.2-2.2,14.5-6.6,20-10.8C265.5,24.7,265.5,25.8,265.4,26.9z"/>
		</g>
	</g>
	<path class="st4" d="M1.6,96.3c14.6-24.8,34.3-35.7,62.7-37.1c27.2-1.3,56.7,6.1,70.7-7.6c9.1-8.9,10.8-27.8-0.6-35.7
		c-25.8-17.8-59,6.4-56.5,34.1c0.6,6.6,4.1,14.9,9.2,21.1C101.5,88.6,141.3,96,175,91.4c27.6-3.8,46.6-15.8,57.6-33.2"/>
</g>
</svg>
