<svg xmlns="http://www.w3.org/2000/svg" width="280" height="97" viewBox="0 0 280 97">
    <g fill="none" fill-rule="nonzero">
        <path fill="#FFCF32" d="M237.183 48.09s-3.338-23.55.727-30.56a14.735 14.735 0 0 1 8.956-6.828 14.833 14.833 0 0 1 11.192 1.464l-20.875 35.923z"/>
        <path fill="#00B8F3" d="M228.205 23.193a1 1 0 0 1-.75-.33.986.986 0 0 1-.246-.779 24.712 24.712 0 0 1 2.73-9.76 22.291 22.291 0 0 1 5.978-6.692c.366-.277.741-.54 1.126-.792a1.002 1.002 0 0 1 1.425.347.986.986 0 0 1-.319 1.336c-.352.231-.684.465-.996.703a20.297 20.297 0 0 0-5.42 6.088 22.84 22.84 0 0 0-2.462 8.909.994.994 0 0 1-.996.91l-.07.06z" opacity=".6"/>
        <path fill="#00B8F3" d="M222.744 23.193a1 1 0 0 1-.746-.327.986.986 0 0 1-.25-.772c.508-5.246 1.654-9.344 3.478-12.482a27.776 27.776 0 0 1 7.393-8.315 27.124 27.124 0 0 1 1.654-1.139 1.002 1.002 0 0 1 1.445.337.986.986 0 0 1-.319 1.346c-.528.337-1.056.703-1.554 1.079a25.693 25.693 0 0 0-6.856 7.711c-1.684 2.89-2.74 6.712-3.218 11.651a.994.994 0 0 1-.997.921l-.03-.01zM265.552 49a.986.986 0 0 1 .299-1.327c4.065-2.88 6.865-5.701 8.549-8.602a25.524 25.524 0 0 0 3.288-9.75c.07-.624.13-1.248.16-1.881 0-.547.446-.99.996-.99s.997.443.997.99c0 .683-.09 1.366-.17 2.039a27.593 27.593 0 0 1-3.547 10.523c-1.824 3.138-4.823 6.177-9.147 9.235a1.002 1.002 0 0 1-1.465-.316l.04.079z" opacity=".4"/>
        <path fill="#00B8F3" d="M262.811 44.288a.986.986 0 0 1 .29-1.317 23.08 23.08 0 0 0 6.576-6.602 20.153 20.153 0 0 0 2.6-7.672c.05-.406.09-.802.11-1.198 0-.547.446-.99.997-.99a1 1 0 0 1 .726.31.986.986 0 0 1 .27.74c0 .455-.07.91-.13 1.366a22.134 22.134 0 0 1-2.85 8.473 24.974 24.974 0 0 1-7.144 7.236 1.002 1.002 0 0 1-1.475-.316l.03-.03z" opacity=".6"/>
        <path fill="#00B8F3" d="M250.685 10.206c2.59.002 5.134.685 7.373 1.98l1.365-2.347a17.452 17.452 0 0 0-5.779-2.068 2.523 2.523 0 0 0-2.05.533 2.488 2.488 0 0 0-.91 1.902z"/>
        <path fill="#00B8F3" d="M233.705 23.193a1 1 0 0 1-.754-.334.986.986 0 0 1-.242-.784 19.039 19.039 0 0 1 1.993-7.049 16.864 16.864 0 0 1 4.514-5.078l.528-.376a1.002 1.002 0 0 1 1.465.317.986.986 0 0 1-.29 1.316l-.488.347a14.88 14.88 0 0 0-3.985 4.474 16.743 16.743 0 0 0-1.714 6.247.994.994 0 0 1-.997.9l-.03.02z" opacity=".8"/>
        <path fill="#00B8F3" d="M259.423 9.82a17.389 17.389 0 0 1 4.694 3.96 2.493 2.493 0 0 1-.658 3.77 14.64 14.64 0 0 0-5.4-5.365l1.364-2.365z"/>
        <path fill="#00B8F3" d="M260.081 39.586a.986.986 0 0 1 .28-1.317 17.05 17.05 0 0 0 4.583-4.623 14.782 14.782 0 0 0 1.913-5.652c0-.198.02-.396.06-.594a.994.994 0 0 1 .996-.91 1 1 0 0 1 .747.327c.19.21.28.49.25.771 0 .218-.024.433-.07.644a16.752 16.752 0 0 1-2.113 6.404 19.206 19.206 0 0 1-5.171 5.207 1.002 1.002 0 0 1-1.475-.307v.05z" opacity=".8"/>
        <path fill="#FFBA00" d="M265.332 26.658a14.497 14.497 0 0 1-1.873 5.523c-4.065 7.009-26.266 15.908-26.266 15.908l5.979-10.295 2.222-3.83 12.674-21.779c5.116 2.958 7.972 8.654 7.264 14.493v-.02z"/>
        <path fill="#FFF" d="M244.706 11.463a14.8 14.8 0 0 0-2.91 1.693 80.807 80.807 0 0 0 0 10.146 157.404 157.404 0 0 0 1.176 12.78l.24 1.712 2.221-3.83c-.727-5.584-1.564-15.68-.727-22.501z"/>
        <path fill="#FFF" d="M265.322 26.648a82.008 82.008 0 0 1-8.818 5.108 158.325 158.325 0 0 1-11.718 5.385l-1.614.643 2.222-3.83c5.201-2.198 14.428-6.524 19.928-10.662.13 1.115.13 2.241 0 3.356z"/>
        <path fill="#60D5F2" d="M2.491 96.832c-.096.01-.193.01-.289 0a.89.89 0 0 1-.319-.11 1.258 1.258 0 0 1-.259-.138 1.393 1.393 0 0 1-.229-.188 1.369 1.369 0 0 1-.19-.218 1.59 1.59 0 0 1-.129-.257c-.08-.18-.12-.377-.12-.574a1.49 1.49 0 0 1 .439-1.05 1.552 1.552 0 0 1 2.112 0c.28.28.437.656.439 1.05.01.099.01.198 0 .297 0 .089 0 .188-.08.277-.08.09-.09.168-.14.257-.057.078-.12.15-.189.218a1.5 1.5 0 0 1-1.046.436zM2.88 90.942a1.486 1.486 0 1 1 .847-2.85v-.001a1.483 1.483 0 0 1 .996 1.831 1.493 1.493 0 0 1-1.435 1.08 1.895 1.895 0 0 1-.408-.06zm141.255-2.584a1.47 1.47 0 0 1 .432-1.05 1.49 1.49 0 0 1 1.053-.435 1.5 1.5 0 0 1 1.06.428c.282.277.442.653.445 1.047a1.5 1.5 0 0 1-1.495 1.495 1.49 1.49 0 0 1-1.465-1.485h-.03zm-4.514 1.406a1.499 1.499 0 0 1-1.042-.47 1.48 1.48 0 0 1 .07-2.1 1.499 1.499 0 0 1 2.517 1.135 1.5 1.5 0 0 1-1.495 1.435h-.05zm10.473-1.485a1.47 1.47 0 0 1 .392-1.07c.27-.29.645-.461 1.043-.474a1.49 1.49 0 0 1 1.544 1.425 1.489 1.489 0 0 1-1.425 1.544h-.07a1.48 1.48 0 0 1-1.454-1.425h-.03zm-16.481 1.168a1.488 1.488 0 0 1-1.385-1.584c.028-.394.213-.76.514-1.02a1.501 1.501 0 0 1 1.09-.356c.82.064 1.437.769 1.385 1.584a1.5 1.5 0 0 1-1.495 1.386h-.11v-.01zm22.43-1.465a1.488 1.488 0 0 1 1.375-1.584c.395-.033.788.093 1.09.35a1.488 1.488 0 0 1-.86 2.61h-.12a1.48 1.48 0 0 1-1.455-1.376h-.03zm-28.429.9a1.497 1.497 0 0 1-.997-.557 1.478 1.478 0 0 1-.308-1.095c.045-.39.245-.747.555-.99.31-.244.706-.354 1.099-.307a1.497 1.497 0 0 1 1.315 1.653 1.491 1.491 0 0 1-1.484 1.307h-.18v-.01zm34.367-1.385c-.044-.392.07-.785.32-1.092a1.487 1.487 0 0 1 1.006-.541c.394-.045.79.07 1.099.317a1.487 1.487 0 0 1-.78 2.633h-.16a1.49 1.49 0 0 1-1.455-1.317h-.03zm5.92-.683c-.063-.396.04-.801.284-1.12.245-.32.61-.526 1.01-.573.393-.056.792.044 1.11.28.318.236.528.587.585.977a1.496 1.496 0 0 1-1.276 1.683h-.209a1.492 1.492 0 0 1-1.475-1.247h-.03zm-46.255 1.218a1.486 1.486 0 0 1-1.186-1.713c.147-.797.91-1.33 1.714-1.198.396.054.754.263.994.582.24.318.34.718.281 1.11a1.502 1.502 0 0 1-1.524 1.278 1.052 1.052 0 0 1-.25-.06h-.03zm52.153-2.09c-.072-.388.016-.79.245-1.114.228-.323.578-.542.97-.608.391-.068.793.02 1.116.247.324.227.543.573.609.961a1.496 1.496 0 0 1-1.186 1.673h-.26a1.493 1.493 0 0 1-1.464-1.158h-.03zm-58.082.912a1.484 1.484 0 0 1-.933-.66 1.467 1.467 0 0 1-.183-1.122 1.495 1.495 0 0 1 1.793-1.109 1.485 1.485 0 0 1 1.116 1.782 1.493 1.493 0 0 1-1.454 1.148 1.384 1.384 0 0 1-.31-.04h-.03zm63.941-1.98a1.485 1.485 0 0 1 1.186-1.733 1.495 1.495 0 0 1 1.764 1.149c.082.386.007.788-.21 1.119-.217.33-.557.562-.946.643-.1.01-.2.01-.299 0a1.502 1.502 0 0 1-1.465-1.178h-.03zm-174.785.485a1.47 1.47 0 0 1-.568-1.98 1.49 1.49 0 0 1 1.993-.564 1.48 1.48 0 0 1 .577 1.98h-.01c-.27.468-.772.755-1.315.752a1.532 1.532 0 0 1-.677-.188zm105.025 0a1.483 1.483 0 0 1-.997-1.851 1.496 1.496 0 0 1 1.863-.99 1.483 1.483 0 0 1 .997 1.85 1.504 1.504 0 0 1-1.435 1.05 1.603 1.603 0 0 1-.428-.109v.05zm75.61-1.713a1.467 1.467 0 0 1 .168-1.12c.203-.336.534-.578.918-.671a1.503 1.503 0 0 1 1.131.166c.34.202.586.53.682.913a1.494 1.494 0 0 1-1.086 1.801 1.575 1.575 0 0 1-.369 0c-.689 0-1.287-.472-1.445-1.138v.05zm-81.35-.287a1.49 1.49 0 0 1-.839-.814 1.476 1.476 0 0 1 .012-1.166 1.49 1.49 0 0 1 .82-.833c.376-.155.8-.15 1.173.012.369.145.664.43.82.793.154.363.157.772.007 1.137a1.485 1.485 0 0 1-1.385.93 1.544 1.544 0 0 1-.608-.108v.05zm87.119-1.207a1.483 1.483 0 0 1 .996-1.842 1.496 1.496 0 0 1 1.854.99 1.483 1.483 0 0 1-.997 1.832c-.136.039-.277.059-.418.059a1.484 1.484 0 0 1-1.435-1.04zm5.71-1.703a1.466 1.466 0 0 1 .072-1.135c.176-.353.487-.622.864-.746a1.497 1.497 0 0 1 1.893.93 1.483 1.483 0 0 1-.936 1.881c-.155.05-.316.077-.479.08a1.494 1.494 0 0 1-1.415-1.04v.03zm-98.39.356a1.48 1.48 0 0 1-.617-1.98 1.49 1.49 0 0 1 1.993-.613c.72.377 1 1.26.628 1.98-.26.488-.77.793-1.326.791a1.512 1.512 0 0 1-.677-.207v.03zM8.042 80.36a1.482 1.482 0 0 1-.18-2.099 1.501 1.501 0 0 1 2.103-.188c.625.535.705 1.467.18 2.099a1.519 1.519 0 0 1-1.146.534 1.52 1.52 0 0 1-.957-.346zm194.565-1.89a1.492 1.492 0 0 1 .857-1.931c.37-.142.782-.132 1.144.028a1.482 1.482 0 0 1-.058 2.744c-.175.066-.36.1-.548.098a1.495 1.495 0 0 1-1.395-.94zm-109.25-.882a1.467 1.467 0 0 1-.349-2.069 1.501 1.501 0 0 1 2.083-.346c.646.473.8 1.37.35 2.029a1.488 1.488 0 0 1-1.217.624c-.306.012-.61-.071-.866-.238zm114.79-1.376a1.486 1.486 0 0 1-.039-1.144c.14-.37.424-.672.787-.836a1.514 1.514 0 0 1 1.151-.039c.374.14.677.42.842.782.17.36.188.774.047 1.146a1.48 1.48 0 0 1-.794.834 1.523 1.523 0 0 1-.618.138 1.515 1.515 0 0 1-1.375-.88zm-196.099-.267a1.479 1.479 0 0 1 .13-2.099 1.5 1.5 0 0 1 2.112.12 1.479 1.479 0 0 1-.13 2.098 1.45 1.45 0 0 1-.996.376 1.52 1.52 0 0 1-1.136-.465l.02-.03zm201.49-2.267a1.48 1.48 0 0 1 .608-1.98 1.5 1.5 0 0 1 1.993.604 1.49 1.49 0 0 1-.608 1.98c-.218.115-.46.176-.707.178a1.496 1.496 0 0 1-1.306-.752l.02-.03zm-124.963-.05a1.47 1.47 0 0 1 0-2.098 1.49 1.49 0 0 1 2.112 0 1.47 1.47 0 0 1 0 2.098 1.51 1.51 0 0 1-1.056.436 1.51 1.51 0 0 1-1.056-.436zM16.6 72.183a1.489 1.489 0 0 1 .378-2.069 1.493 1.493 0 0 1 2.073.377 1.458 1.458 0 0 1-.369 2.058c-.246.177-.543.27-.847.268a1.498 1.498 0 0 1-1.235-.634zm202.098-1.386a1.489 1.489 0 0 1 .438-2.059 1.51 1.51 0 0 1 2.073.436c.447.69.252 1.608-.438 2.059a1.532 1.532 0 0 1-.818.238c-.505-.001-.977-.254-1.255-.674zm-197.126-1.87a1.49 1.49 0 0 1 .578-1.98 1.51 1.51 0 0 1 1.993.574 1.47 1.47 0 0 1-.568 1.98 1.532 1.532 0 0 1-.728.188 1.516 1.516 0 0 1-1.275-.763zm63.075-.05a1.467 1.467 0 0 1 .378-2.059 1.492 1.492 0 0 1 2.073.356 1.468 1.468 0 0 1-.369 2.109c-.246.176-.543.27-.847.267a1.507 1.507 0 0 1-1.235-.673zm138.963-1.435a1.478 1.478 0 0 1 .21-2.09 1.511 1.511 0 0 1 2.102.209c.523.634.429 1.569-.21 2.088-.28.229-.633.349-.996.337a1.478 1.478 0 0 1-1.106-.544zM26.794 66.155a1.466 1.466 0 0 1-.05-1.144c.138-.373.422-.674.788-.836a1.504 1.504 0 0 1 1.15-.047c.374.138.678.418.843.78.168.36.183.773.043 1.145s-.425.672-.79.834c-.195.086-.406.13-.619.129a1.475 1.475 0 0 1-1.365-.861zm5.47-2.336c-.137-.37-.122-.78.045-1.139a1.49 1.49 0 0 1 .843-.772 1.507 1.507 0 0 1 1.913.881c.138.37.122.78-.044 1.138a1.49 1.49 0 0 1-.843.773c-.166.059-.342.089-.518.089a1.474 1.474 0 0 1-1.345-.97h-.05zm82.058-.842a1.48 1.48 0 0 1 .43-1.053 1.5 1.5 0 0 1 2.114-.014 1.48 1.48 0 0 1 .014 2.1 1.5 1.5 0 0 1-1.054.442 1.49 1.49 0 0 1-1.454-1.475h-.05zm-32.883.614a1.49 1.49 0 0 1 .688-1.98 1.5 1.5 0 0 1 1.993.683c.174.353.2.76.07 1.132-.128.372-.401.677-.758.848a1.433 1.433 0 0 1-.658.158 1.495 1.495 0 0 1-1.255-.841h-.08zm146.636-.05a1.488 1.488 0 0 1-.11-2.098 1.502 1.502 0 0 1 2.103-.08 1.471 1.471 0 0 1 .11 2.1c-.281.313-.683.493-1.106.494a1.51 1.51 0 0 1-.997-.416zm-118.466.198a1.494 1.494 0 0 1-.927-.668 1.477 1.477 0 0 1-.18-1.123 1.495 1.495 0 0 1 1.794-1.1c.387.088.723.325.933.66.21.335.275.74.183 1.123a1.493 1.493 0 0 1-1.455 1.148 2.086 2.086 0 0 1-.338-.04h-.01zm10.681-1.197a1.483 1.483 0 0 1 .997-1.822c.375-.11.78-.068 1.123.118.344.185.6.5.71.872a1.483 1.483 0 0 1-.996 1.831c-.13.032-.264.048-.399.05a1.494 1.494 0 0 1-1.425-1.05h-.01zm-82.365-.664a1.493 1.493 0 0 1 .996-1.85 1.506 1.506 0 0 1 1.853.99c.115.375.074.78-.113 1.125a1.483 1.483 0 0 1-.883.715 1.494 1.494 0 0 1-1.843-.98h-.01zm65.914.436a1.485 1.485 0 0 1-1.126-1.772c.079-.394.315-.74.655-.959.34-.218.754-.29 1.149-.2.387.088.724.325.935.66.211.334.28.738.19 1.123a1.492 1.492 0 0 1-1.454 1.188 1.324 1.324 0 0 1-.339 0l-.01-.04zm-60.175-1.98c-.18-.8.322-1.595 1.126-1.782a1.505 1.505 0 0 1 1.794 1.119 1.495 1.495 0 0 1-1.116 1.693c-.113.01-.226.01-.34 0a1.494 1.494 0 0 1-1.454-1.07l-.01.04zm82.246.297a1.48 1.48 0 0 1 .538-1.98 1.5 1.5 0 0 1 1.993.535 1.48 1.48 0 0 1-.538 1.98c-.227.13-.485.199-.747.198a1.486 1.486 0 0 1-1.236-.772l-.01.04zm-27.84.525a1.495 1.495 0 0 1-.97-.638 1.477 1.477 0 0 1-.216-1.134 1.504 1.504 0 0 1 1.754-1.188c.39.074.734.3.957.627.222.326.304.728.228 1.115a1.502 1.502 0 0 1-1.464 1.208c-.094 0-.188-.01-.28-.03l-.01.04zm-48.567-2.099a1.486 1.486 0 0 1 1.206-1.722c.391-.066.793.025 1.116.254a1.486 1.486 0 0 1-.608 2.676h-.259a1.472 1.472 0 0 1-1.455-1.208zm42.767 1.08a1.496 1.496 0 0 1-.983-.582 1.478 1.478 0 0 1-.282-1.102c.059-.39.272-.74.591-.975.32-.234.72-.332 1.113-.272.392.056.745.266.98.582.236.316.335.712.275 1.1a1.482 1.482 0 0 1-1.474 1.268l-.22-.02zm-36.868-1.98c-.056-.392.048-.79.29-1.105.241-.315.6-.52.996-.569a1.503 1.503 0 0 1 1.664 1.297 1.477 1.477 0 0 1-1.306 1.604h-.18a1.492 1.492 0 0 1-1.484-1.257l.02.03zm31.02 1.227a1.487 1.487 0 0 1-1.326-1.633c.038-.395.233-.758.542-1.01a1.501 1.501 0 0 1 1.102-.327c.82.088 1.413.82 1.325 1.633a1.491 1.491 0 0 1-1.484 1.337h-.16zm-7.195-1.505a1.968 1.968 0 0 1-.07-.416 1.471 1.471 0 0 1 .501-1.19 1.49 1.49 0 0 1 1.084-.364 1.489 1.489 0 0 1 1.405 1.495 1.475 1.475 0 0 1-.997 1.495c-.144.047-.296.07-.448.07a1.494 1.494 0 0 1-1.475-1.08v-.01zm-17.926-.386a1.498 1.498 0 0 1 1.365-1.574 1.501 1.501 0 0 1 1.594 1.386 1.498 1.498 0 0 1-1.395 1.584h-.1a1.5 1.5 0 0 1-1.464-1.386v-.01zm13.322 1.129a1.5 1.5 0 0 1-1.048-.456 1.47 1.47 0 0 1 .043-2.097 1.49 1.49 0 0 1 1.065-.407 1.49 1.49 0 0 1 1.052.453c.275.284.424.667.413 1.061a1.49 1.49 0 0 1-1.495 1.446h-.03zm-5.888 0a1.5 1.5 0 0 1-1.535-1.456 1.48 1.48 0 0 1 .417-1.058 1.5 1.5 0 0 1 1.048-.456 1.5 1.5 0 0 1 1.098.396c.297.274.469.656.476 1.06a1.49 1.49 0 0 1-1.455 1.514h-.05zm62.088-1.297a1.47 1.47 0 0 1 .07-2.099 1.502 1.502 0 0 1 2.112.06 1.47 1.47 0 0 1-.07 2.098 1.43 1.43 0 0 1-.996.406 1.53 1.53 0 0 1-1.066-.465h-.05zm4.115-4.277a1.488 1.488 0 0 1-.359-2.068 1.501 1.501 0 0 1 2.083-.357 1.467 1.467 0 0 1 .359 2.069c-.275.399-.73.636-1.216.634a1.501 1.501 0 0 1-.817-.278h-.05zM77.822 51.93a1.486 1.486 0 0 1 1.236-1.703c.392-.062.794.033 1.115.265a1.486 1.486 0 0 1-.637 2.675h-.24a1.482 1.482 0 0 1-1.474-1.237zm60.364-3.87a1.489 1.489 0 0 1-.784-.838 1.476 1.476 0 0 1 .047-1.142 1.49 1.49 0 0 1 .84-.786c.375-.14.79-.124 1.153.043a1.49 1.49 0 0 1 .737 1.98c-.245.53-.778.87-1.365.871a1.553 1.553 0 0 1-.628-.129zm-60.922-2.218a1.5 1.5 0 0 1 1.465-1.524 1.5 1.5 0 0 1 1.066.413c.285.273.45.648.458 1.042a1.49 1.49 0 0 1-1.454 1.514 1.5 1.5 0 0 1-1.07-.406 1.48 1.48 0 0 1-.465-1.039zm63.125-3.286a1.494 1.494 0 0 1-.92-.678 1.476 1.476 0 0 1-.167-1.124c.097-.382.342-.71.682-.913a1.494 1.494 0 0 1 2.218 1.635 1.493 1.493 0 0 1-1.445 1.13 1.504 1.504 0 0 1-.368-.05zm-61.54-1.188a1.487 1.487 0 0 1-1.003-.539 1.482 1.482 0 0 1 .222-2.088 1.502 1.502 0 0 1 1.1-.323c.819.088 1.412.819 1.325 1.633a1.491 1.491 0 0 1-1.485 1.327h-.16v-.01zm62.775-4.593a1.489 1.489 0 0 1-1.03-.491 1.469 1.469 0 0 1-.375-1.073 1.491 1.491 0 0 1 1.575-1.396c.396.023.767.202 1.031.497.264.295.398.683.374 1.077a1.49 1.49 0 0 1-1.485 1.395h-.09v-.01zm-61.959-1.258a1.494 1.494 0 0 1-1.116-1.791 1.505 1.505 0 0 1 1.804-1.07c.385.09.719.328.926.663a1.493 1.493 0 0 1-1.275 2.268 2.105 2.105 0 0 1-.339-.07zm60.305-5.939c-.057-.39.045-.786.282-1.102a1.502 1.502 0 0 1 2.093-.301c.317.236.528.587.585.977a1.486 1.486 0 0 1-1.256 1.683h-.23a1.482 1.482 0 0 1-1.474-1.227v-.03zm-58.79.188a1.482 1.482 0 0 1-.887-1.9c.137-.371.417-.672.778-.838.36-.165.773-.18 1.145-.044a1.482 1.482 0 0 1 .887 1.901c-.21.592-.773.988-1.405.99a1.373 1.373 0 0 1-.498-.08l-.02-.029zm57.335-5.563a1.482 1.482 0 0 1 .847-1.92c.368-.146.778-.14 1.141.016.363.156.648.45.792.815.147.366.142.775-.015 1.138a1.49 1.49 0 0 1-.822.792 1.505 1.505 0 0 1-1.923-.812l-.02-.03zm-55.103.079a1.48 1.48 0 0 1-.638-1.98 1.5 1.5 0 0 1 1.993-.633 1.476 1.476 0 1 1-.698 2.782 1.443 1.443 0 0 1-.637-.14l-.02-.029zm52.443-4.95a1.488 1.488 0 0 1 .339-2.078 1.511 1.511 0 0 1 2.092.346 1.467 1.467 0 0 1-.349 2.07c-.252.18-.555.277-.867.276a1.478 1.478 0 0 1-1.195-.574l-.02-.04zm-49.523-.217a1.488 1.488 0 0 1-.369-2.07c.48-.67 1.415-.83 2.093-.356a1.477 1.477 0 0 1 .379 2.108v.001c-.28.397-.738.634-1.226.634a1.511 1.511 0 0 1-.857-.278l-.02-.04zm45.726-3.96a1.478 1.478 0 0 1-.06-2.098 1.502 1.502 0 0 1 2.113 0c.6.563.626 1.502.06 2.098a1.51 1.51 0 0 1-1.086.465 1.51 1.51 0 0 1-1.007-.415l-.02-.05zm-42.11-.713a1.478 1.478 0 0 1 0-2.098 1.502 1.502 0 0 1 2.113 0c.583.58.583 1.519 0 2.098a1.5 1.5 0 0 1-1.086.456 1.51 1.51 0 0 1-1.026-.456zm37.716-2.97a1.477 1.477 0 0 1-.329-2.079 1.502 1.502 0 0 1 2.093-.317v.001a1.477 1.477 0 0 1 .319 2.079c-.282.382-.73.606-1.206.604-.31.013-.617-.07-.877-.238v-.05zm-33.43-1.187a1.478 1.478 0 0 1 .318-2.03 1.502 1.502 0 0 1 2.093.317 1.468 1.468 0 0 1-.319 2.07 1.491 1.491 0 0 1-.887.296c-.476.001-.923-.223-1.206-.604v-.05zm28.577-1.812a1.47 1.47 0 0 1-.647-1.98 1.51 1.51 0 0 1 1.993-.653 1.49 1.49 0 0 1 .647 1.98c-.257.497-.772.81-1.335.812-.225.016-.45-.021-.658-.11v-.049zM99.186 7.058a1.49 1.49 0 0 1 .727-1.98c.36-.168.774-.187 1.148-.05a1.49 1.49 0 0 1 .118 2.753c-.204.089-.425.133-.648.128a1.505 1.505 0 0 1-1.345-.851zm18.374-.594a1.483 1.483 0 0 1-.996-1.831 1.496 1.496 0 0 1 1.843-.99 1.483 1.483 0 0 1 .997 1.83 1.503 1.503 0 0 1-1.445 1.09 1.382 1.382 0 0 1-.399-.1zM104.716 4.87a1.467 1.467 0 0 1 .21-1.115c.218-.33.558-.559.946-.637a1.493 1.493 0 0 1 1.123.209c.33.216.562.554.64.94a1.475 1.475 0 0 1-1.125 1.751c-.1.01-.2.01-.3 0a1.493 1.493 0 0 1-1.494-1.148zm7.314.703a1.489 1.489 0 0 1-1.036-.477 1.47 1.47 0 0 1-.389-1.067 1.47 1.47 0 0 1 .48-1.03 1.49 1.49 0 0 1 1.074-.386c.397.013.772.184 1.04.474.268.291.407.677.385 1.07a1.48 1.48 0 0 1-1.484 1.416h-.07zM232.689 59.047a1.52 1.52 0 0 1-1.056-.435 1.478 1.478 0 0 1 0-2.099 1.552 1.552 0 0 1 2.112 0c.069.072.132.148.19.228.11.16.185.343.219.534.01.096.01.192 0 .287 0 .82-.67 1.485-1.495 1.485h.03z"/>
    </g>
</svg>
