<?xml version="1.0" encoding="utf-8"?>
<!-- Generator: Adobe Illustrator 21.0.2, SVG Export Plug-In . SVG Version: 6.00 Build 0)  -->
<svg version="1.1" id="Layer_1" xmlns="http://www.w3.org/2000/svg" xmlns:xlink="http://www.w3.org/1999/xlink" x="0px" y="0px"
	 viewBox="0 0 260 260" style="enable-background:new 0 0 260 260;" xml:space="preserve">
<style type="text/css">
	.st0{opacity:0.2;fill:#60D5F2;}
	.st1{opacity:0.2;fill:url(#SVGID_1_);}
	.st2{fill:#D8DFE3;}
	.st3{fill:#526A73;}
	.st4{opacity:0.2;fill:url(#SVGID_2_);}
	.st5{opacity:0.2;fill:url(#SVGID_3_);}
	.st6{fill:#314448;}
	.st7{opacity:0.7;fill:#60D5F2;}
	.st8{fill:none;stroke:#526A73;stroke-width:3.3313;stroke-linecap:round;stroke-linejoin:round;stroke-miterlimit:10;}
	.st9{fill:#9EB1B4;}
	.st10{fill:#FFFFFF;}
	.st11{opacity:0.8;fill:#60D5F2;}
	.st12{opacity:0.9;fill:#60D5F2;}
	.st13{fill:#00B8F3;}
	.st14{fill:#0078C5;}
	.st15{fill:#89E7F5;}
	.st16{fill:#C5CDD1;}
	.st17{opacity:0.2;}
	.st18{fill:#3AA3E3;}
	.st19{fill:#90D8F0;}
	.st20{fill:#2266AF;}
	.st21{opacity:0.2;fill:url(#SVGID_4_);}
	.st22{fill:#143D8A;}
	.st23{fill:none;stroke:#143D8A;stroke-linecap:round;stroke-linejoin:round;stroke-miterlimit:10;}
	.st24{fill:#308DD1;}
	.st25{fill:#2978BE;}
	.st26{fill:none;stroke:#143D8A;stroke-width:0.5;stroke-miterlimit:10;}
</style>
<g>
	<path class="st0" d="M96,220.9h68c11.4,0,22-6.1,27.7-16l34-58.9c5.7-9.9,5.7-22.1,0-32l-34-58.9c-5.7-9.9-16.3-16-27.7-16H96
		c-11.4,0-22,6.1-27.7,16l-34,58.9c-5.7,9.9-5.7,22.1,0,32l34,58.9C74,214.8,84.5,220.9,96,220.9z"/>
	<g>
		<linearGradient id="SVGID_1_" gradientUnits="userSpaceOnUse" x1="157.1887" y1="184.6255" x2="170.912" y2="161.8929">
			<stop  offset="0" style="stop-color:#FFFFFF;stop-opacity:0"/>
			<stop  offset="1.715779e-03" style="stop-color:#FEFEFE;stop-opacity:1.715779e-03"/>
			<stop  offset="8.399421e-02" style="stop-color:#C9C9C9;stop-opacity:8.399421e-02"/>
			<stop  offset="0.1692" style="stop-color:#9A9A9A;stop-opacity:0.1692"/>
			<stop  offset="0.2598" style="stop-color:#717171;stop-opacity:0.2598"/>
			<stop  offset="0.3543" style="stop-color:#4E4E4E;stop-opacity:0.3543"/>
			<stop  offset="0.4538" style="stop-color:#323232;stop-opacity:0.4538"/>
			<stop  offset="0.5602" style="stop-color:#1C1C1C;stop-opacity:0.5602"/>
			<stop  offset="0.6763" style="stop-color:#0C0C0C;stop-opacity:0.6763"/>
			<stop  offset="0.8098" style="stop-color:#030303;stop-opacity:0.8098"/>
			<stop  offset="1" style="stop-color:#000000"/>
		</linearGradient>
		<polygon class="st1" points="179,172 152.8,183.4 147.8,176.6 165.5,171.2 		"/>
		<path class="st2" d="M197.2,111.5l-1.3,41.9c-0.2,7-5.5,12.9-12.5,13.8l-12.7,1.8l-14.1,2l-44.2,6.1c-1.5,0.2-2.9,0.2-4.2-0.1
			c-0.4-0.1-0.8-0.1-1.2-0.2c-5.9-1.5-10.3-6.9-10.1-13.6l1.3-41.9c0.2-7,5.5-12.9,12.5-13.8l71.1-9.9c1.8-0.3,3.6-0.1,5.3,0.3
			c0.6,0.2,1.2,0.4,1.8,0.6C193.8,100.6,197.4,105.6,197.2,111.5z"/>
		<path class="st3" d="M180,167.8l-0.1,2.8c0,0.9-0.7,1.6-1.5,1.7l-8.5,1.2c-1.2,0.2-1.4,0.3-3.4-1.2c-1-0.8-1.2-1.2-1.3-2.5
			l0.7-0.1L180,167.8z"/>
		<linearGradient id="SVGID_2_" gradientUnits="userSpaceOnUse" x1="105.8446" y1="191.7615" x2="119.5678" y2="169.0289">
			<stop  offset="0" style="stop-color:#FFFFFF;stop-opacity:0"/>
			<stop  offset="1.715779e-03" style="stop-color:#FEFEFE;stop-opacity:1.715779e-03"/>
			<stop  offset="8.399421e-02" style="stop-color:#C9C9C9;stop-opacity:8.399421e-02"/>
			<stop  offset="0.1692" style="stop-color:#9A9A9A;stop-opacity:0.1692"/>
			<stop  offset="0.2598" style="stop-color:#717171;stop-opacity:0.2598"/>
			<stop  offset="0.3543" style="stop-color:#4E4E4E;stop-opacity:0.3543"/>
			<stop  offset="0.4538" style="stop-color:#323232;stop-opacity:0.4538"/>
			<stop  offset="0.5602" style="stop-color:#1C1C1C;stop-opacity:0.5602"/>
			<stop  offset="0.6763" style="stop-color:#0C0C0C;stop-opacity:0.6763"/>
			<stop  offset="0.8098" style="stop-color:#030303;stop-opacity:0.8098"/>
			<stop  offset="1" style="stop-color:#000000"/>
		</linearGradient>
		<polygon class="st4" points="127.7,179.2 101.5,190.5 96.4,183.8 114.2,178.3 		"/>
		
			<linearGradient id="SVGID_3_" gradientUnits="userSpaceOnUse" x1="59.1672" y1="187.1626" x2="72.0822" y2="165.7688" gradientTransform="matrix(1 3.376974e-03 -3.376974e-03 1 4.702 -5.7727)">
			<stop  offset="0" style="stop-color:#FFFFFF;stop-opacity:0"/>
			<stop  offset="1.715779e-03" style="stop-color:#FEFEFE;stop-opacity:1.715779e-03"/>
			<stop  offset="8.399421e-02" style="stop-color:#C9C9C9;stop-opacity:8.399421e-02"/>
			<stop  offset="0.1692" style="stop-color:#9A9A9A;stop-opacity:0.1692"/>
			<stop  offset="0.2598" style="stop-color:#717171;stop-opacity:0.2598"/>
			<stop  offset="0.3543" style="stop-color:#4E4E4E;stop-opacity:0.3543"/>
			<stop  offset="0.4538" style="stop-color:#323232;stop-opacity:0.4538"/>
			<stop  offset="0.5602" style="stop-color:#1C1C1C;stop-opacity:0.5602"/>
			<stop  offset="0.6763" style="stop-color:#0C0C0C;stop-opacity:0.6763"/>
			<stop  offset="0.8098" style="stop-color:#030303;stop-opacity:0.8098"/>
			<stop  offset="1" style="stop-color:#000000"/>
		</linearGradient>
		<polygon class="st5" points="83.7,169.7 59,180.3 55,173.4 70.1,168.8 		"/>
		<path class="st3" d="M128.7,174.9l-0.1,2.8c0,0.9-0.7,1.6-1.5,1.7l-8.5,1.2c-1.2,0.2-1.4,0.3-3.4-1.2c-1-0.8-1.2-1.2-1.3-2.5
			l0.7-0.1L128.7,174.9z"/>
		<path class="st3" d="M187,98c-1.7-0.4-3.4-0.5-5.3-0.3l-71.1,9.9c-6.9,1-12.3,6.9-12.5,13.8l-1.3,41.9c-0.2,6.6,4.2,12,10.1,13.6
			c-16.6-3.5-22.7-4.8-30.9-6.6c-15-3.3-16.6-11.6-16.4-18.6L61,109c0.3-5.8,6.4-12.6,14.4-13.8l58.5-9
			C143.8,84.6,148.7,85.5,187,98z"/>
		<g>
			<g>
				<path class="st6" d="M143.9,96.6l-3,0.4c0,0,0,0,0,0l-28.8,4c-0.1,0-0.1,0-0.2,0c-1.5,0.1-2.9,0-6.6-1.8c-3.5-1.7-1.5-2.8,0-3
					l31.9-4.4c1.5-0.2,3.5,0.5,6.3,1.6C146.9,94.7,146.3,96.3,143.9,96.6z"/>
			</g>
		</g>
		<g>
			<path class="st7" d="M152.9,82l-16,12.2h0l-15.1,2.3l-8.5,1.3l-5.9-10.1c-1.3-2.2-0.6-5.3,1.5-7L138.8,58
				c2.1-1.6,4.9-1.1,6.2,1.1l9.4,16C155.6,77.3,155,80.4,152.9,82z"/>
			<path class="st3" d="M125.8,81.6c1.4,2.5,0.7,5.9-1.6,7.7c-2.3,1.8-5.4,1.2-6.9-1.2c-1.4-2.5-0.7-5.9,1.6-7.7
				C121.3,78.6,124.4,79.2,125.8,81.6z"/>
			<path class="st3" d="M136.9,94.3l-15.1,2.3c0.7-1.8,1.8-3.4,3.3-4.6c4-3,9.2-2.1,11.7,2.1C136.8,94.1,136.9,94.2,136.9,94.3z"/>
			<line class="st8" x1="130.7" y1="76.8" x2="142.5" y2="67.8"/>
			<line class="st8" x1="137.5" y1="83.4" x2="146.6" y2="76.5"/>
		</g>
		<path class="st2" d="M172.9,134.9c-0.5,12.4-11.2,23.9-24,25.8c-3.5,0.5-6.7,0.2-9.6-0.7c-7.7-2.4-12.8-9.4-12.5-18.4
			c0.5-12.4,11.2-24,24-25.8c2.5-0.4,4.8-0.3,7,0.1C167,117.4,173.3,124.9,172.9,134.9z"/>
		<path class="st9" d="M157.8,115.9c-2.2-0.4-4.5-0.4-7-0.1c-12.7,1.8-23.4,13.4-24,25.8c-0.4,9,4.8,16,12.5,18.4
			c-9.2-1.6-16.1-9.1-15.7-19.1c0.5-12.4,10.5-24,23.2-25.9C150.3,114.6,154.9,115,157.8,115.9z"/>
		<g>
			<path class="st10" d="M164.8,137.2c-0.5,0-1-0.4-1.1-0.9c-0.1-0.6,0.3-1.1,0.9-1.2l3.8-0.6c0.6-0.1,1.1,0.3,1.2,0.9
				c0.1,0.6-0.3,1.1-0.9,1.2l-3.8,0.6C164.9,137.2,164.8,137.2,164.8,137.2z"/>
		</g>
		<g>
			<path class="st10" d="M160.8,127.6c-0.3,0-0.5-0.1-0.7-0.3c-0.4-0.4-0.5-1.1-0.1-1.5l2.8-3c0.4-0.4,1.1-0.5,1.5-0.1
				c0.4,0.4,0.5,1.1,0.1,1.5l-2.8,3C161.4,127.5,161.1,127.6,160.8,127.6z"/>
		</g>
		<g>
			<path class="st10" d="M131.2,142.1c-0.5,0-1-0.4-1.1-0.9c-0.1-0.6,0.3-1.1,0.9-1.2l3.8-0.6c0.6-0.1,1.1,0.3,1.2,0.9
				c0.1,0.6-0.3,1.1-0.9,1.2l-3.8,0.6C131.3,142.1,131.2,142.1,131.2,142.1z"/>
		</g>
		<g>
			<path class="st10" d="M136.1,154.2c-0.3,0-0.5-0.1-0.7-0.3c-0.4-0.4-0.5-1.1-0.1-1.5l2.8-3c0.4-0.4,1.1-0.5,1.5-0.1
				c0.4,0.4,0.5,1.1,0.1,1.5l-2.8,3C136.7,154.1,136.4,154.2,136.1,154.2z"/>
		</g>
		<g>
			<path class="st10" d="M149.1,157.6C149.1,157.6,149.1,157.6,149.1,157.6c-0.6,0-1.1-0.5-1.1-1.1l0.2-3.7c0-0.6,0.5-1.1,1.1-1
				c0.6,0,1.1,0.5,1,1.1l-0.2,3.7C150.2,157.1,149.7,157.6,149.1,157.6z"/>
		</g>
		<g>
			<path class="st10" d="M162.6,150.3c-0.3,0-0.5-0.1-0.7-0.3l-2.6-2.3c-0.5-0.4-0.5-1.1-0.1-1.5c0.4-0.5,1.1-0.5,1.5-0.1l2.6,2.3
				c0.5,0.4,0.5,1.1,0.1,1.5C163.2,150.2,162.9,150.3,162.6,150.3z"/>
		</g>
		<g>
			<path class="st10" d="M150.9,124.9C150.9,124.9,150.9,124.9,150.9,124.9c-0.6,0-1.1-0.5-1.1-1.1l0.2-3.7c0-0.6,0.5-1.1,1.1-1
				c0.6,0,1,0.5,1,1.1l-0.2,3.7C152,124.4,151.5,124.9,150.9,124.9z"/>
		</g>
		<g>
			<path class="st10" d="M140.6,130.6c-0.3,0-0.5-0.1-0.7-0.3l-2.5-2.3c-0.4-0.4-0.5-1.1-0.1-1.5c0.4-0.4,1.1-0.5,1.5-0.1l2.5,2.3
				c0.4,0.4,0.5,1.1,0.1,1.5C141.1,130.5,140.8,130.6,140.6,130.6z"/>
		</g>
		<g>
			<path class="st11" d="M118.6,145.9c-0.4,0.6-0.6,1-0.7,1.2c-0.3,0.4-1.9,2.2-3.5,2.7c-2,0.6-4.2,1.4-6.3,2.3
				c-4.7,1.9-9.4,4-11.9,5.4c3-5.5,6.9-11.9,10-15C110.5,137.9,116.1,142.4,118.6,145.9z"/>
			<path class="st11" d="M124.1,136.6c-2.6,4.3-5.9,10-6.2,10.4c-0.3,0.4-1.9,2.2-3.5,2.7c-2,0.6-4.2,1.4-6.3,2.3
				c2.3-6.8,6.9-17.8,12.1-17.1C121.6,135.1,123,135.8,124.1,136.6z"/>
			<path class="st12" d="M161.8,149.2c-2,8.9-4.5,15.7-6,24.1c-0.9,5.1-2.4,6.6-18.7,19.8c-3.5,2.7-12.4,7.7-15.5,10.4
				c-0.3,0.2-0.5,0.4-0.7,0.6c-1,1.1-2,2.3-2.8,3.3c-1.2,1.6-2.1,2.8-2.1,2.8l-9.4,11.6l-3-1l-7.5-2.5l-17.3-5.7l-2.6-0.9l-0.1,0
				c0,0,0,0,0,0c0-0.2,0.2-0.8,0.5-1.9c0.4-1.4,1-3.5,1.7-6c0.1-0.2,0.1-0.4,0.2-0.6c0.1-0.3,0.2-0.6,0.2-0.9
				c0.2-0.8,0.5-1.6,0.7-2.5c0.1-0.5,0.3-1.1,0.4-1.6c3.5-12.7,10.3-36.8,15.1-40c0.3-0.2,0.8-0.5,1.3-0.8c2.5-1.3,7.1-3.5,11.9-5.4
				c2.2-0.9,4.4-1.6,6.3-2.3c1.7-0.5,3.2-2.3,3.5-2.7c0,0,0,0,0,0c0,0,0,0,0,0c0,0,0,0,0-0.1c0.1-0.1,0.2-0.3,0.3-0.5
				c0,0,0-0.1,0.1-0.1c0.1-0.1,0.2-0.3,0.2-0.4c0,0,0,0,0-0.1c0-0.1,0.1-0.2,0.2-0.3c0.1-0.1,0.2-0.3,0.3-0.4c0,0,0.1-0.1,0.1-0.2
				c0.5-0.9,1.2-2.1,2-3.3c0.1-0.2,0.2-0.4,0.3-0.6c0.5-0.8,1-1.7,1.5-2.6c0.2-0.4,0.4-0.7,0.6-1.1c0.2-0.3,0.3-0.6,0.5-0.8
				c1.5-2.5,2.7-4.6,3-4.9c4.4-5.8,6.8-5.1,14.2-9.3c0.6-0.3,1.2-0.7,1.9-1.1c2-1.1,4.3-2.2,5.8-2.8c0.4-0.2,0.8-0.3,1-0.4
				c1.3-0.3,2.7,0.9,2.7,2.5c0,1.9,0.4,3.8-3.3,8.7c-0.2,0.2-0.3,0.4-0.5,0.7c-1.5,1.9-4.1,3.5-6.8,5.3c-2.2,1.4-4.6,3-6.6,5
				c-1.2,3.3-3.6,11.4-3.7,19.2c0,2.8,0.2,5.6,0.9,8.1c1.8,1.2,10,0.7,12.1-1.8c0.2-0.2,0.3-0.4,0.4-0.6c1-2.5,1.7-5.2,3-8.2
				c1.4-3.3,3.7-6.2,5.8-8.1c1.3-1.2,2.5-2,3.4-2.3c0.7-0.3,1.5-0.3,2.1-0.2c0,0,0.1,0,0.1,0C161.5,146.9,162.1,147.8,161.8,149.2z"
				/>
			<path class="st13" d="M126,207.6c0,0-5.7-6.6-13-9.6c-19.7-8-41.7,3.5-41.7,3.5s10,17.8,19.1,20.4c3.4,1,15.5,6.1,15.5,6.1
				L126,207.6z"/>
			<path class="st14" d="M124.3,213c0,0-6-7-13.8-10.1c-20.8-8.5-40.7,4.3-40.7,4.3s6.1,10.5,23.3,18.3c6.1,2.8,13.3,5.6,13.3,5.6
				L124.3,213z"/>
			<path class="st15" d="M147.2,122.9c-1.4,0.5-3.1-0.4-3.9-1.6c2-1.1,4.3-2.2,5.8-2.8c0,0.1,0.1,0.2,0.1,0.3
				C149.7,120.5,148.8,122.3,147.2,122.9z"/>
			<path class="st13" d="M144.8,165.8c-2.1,2.5-10.3,2.9-12.1,1.8c-0.7-2.5-0.9-5.3-0.9-8.1c0,0.1,0.1,0.1,0.1,0.2
				c3,3.9,7.8,6.2,12.7,6.1C144.7,165.8,144.7,165.8,144.8,165.8z"/>
		</g>
		<path class="st16" d="M164.2,137.8c-0.1,3.3-2,6.5-4.6,8.6c0,0-0.1,0-0.1,0c-0.6-0.1-1.4,0-2.1,0.2c-0.9,0.3-2.1,1.1-3.4,2.3
			c0,0,0,0-0.1,0c-1.7,0.2-7-0.6-8-0.9c-2.4-0.8-4.3-2.6-5-5.1c-0.3-0.9-0.4-1.8-0.3-2.8c0.1-1.7,0.6-3.3,1.4-4.8
			c1.7-1.1,3.3-2.1,4.7-3.2c0,0,0.1-0.1,0.1-0.1c0.1-0.1,0.3-0.2,0.4-0.3c0.6-0.5,1.2-1.1,1.6-1.6c0.2-0.2,0.4-0.4,0.5-0.7
			c0.5-0.2,1-0.3,1.5-0.3c1.7-0.2,7.2,0.6,8.3,1C162.3,131.2,164.3,134.1,164.2,137.8z"/>
		<path class="st16" d="M159.5,146.4c-1.6,1.3-3.5,2.2-5.6,2.5c1.3-1.2,2.5-2,3.4-2.3C158.1,146.3,158.9,146.3,159.5,146.4
			C159.5,146.4,159.5,146.4,159.5,146.4z"/>
		<g class="st17">
			<path class="st10" d="M150.4,148.1c-1.9-0.6-3.6-2.1-4.3-4.1c-0.8-2-0.7-4.2-0.1-6.2c0.6-2,1.8-3.8,3.3-5.1
				c1.5-1.4,3.4-2.3,5.4-2.6c-1.8,0.9-3.4,2-4.6,3.4c-1.3,1.4-2.2,3-2.8,4.8c-0.5,1.8-0.7,3.6-0.2,5.4
				C147.6,145.4,148.8,147,150.4,148.1z"/>
		</g>
		<path class="st9" d="M146.7,132.1c-1.9,1.6-3.4,3.4-4.2,4.8c-1.3,2.5-1.7,4.4-1.6,6c-0.3-0.9-0.4-1.8-0.3-2.8
			c0.1-1.7,0.6-3.3,1.4-4.8C143.7,134.2,145.4,133.2,146.7,132.1z"/>
	</g>
</g>
<path class="st0" d="M96,220.9h68c11.4,0,22-6.1,27.7-16l34-58.9c5.7-9.9,5.7-22.1,0-32l-34-58.9c-5.7-9.9-16.3-16-27.7-16H96
	c-11.4,0-22,6.1-27.7,16l-34,58.9c-5.7,9.9-5.7,22.1,0,32l34,58.9C74,214.8,84.5,220.9,96,220.9z"/>
<g>
	<path class="st18" d="M96,220.9h68c11.4,0,22-6.1,27.7-16l34-58.9c5.7-9.9,5.7-22.1,0-32l-34-58.9c-5.7-9.9-16.3-16-27.7-16H96
		c-11.4,0-22,6.1-27.7,16l-34,58.9c-5.7,9.9-5.7,22.1,0,32l34,58.9C74,214.8,84.5,220.9,96,220.9z"/>
	<g>
		<path class="st19" d="M197.2,111.5l-1.3,41.9c-0.2,7-5.5,12.9-12.5,13.8l-12.7,1.8l-14.1,2l-44.2,6.1c-1.5,0.2-2.9,0.2-4.2-0.1
			c-0.4-0.1-0.8-0.1-1.2-0.2c-5.9-1.5-10.3-6.9-10.1-13.6l1.3-41.9c0.2-7,5.5-12.9,12.5-13.8l71.1-9.9c1.8-0.3,3.6-0.1,5.3,0.3
			c0.6,0.2,1.2,0.4,1.8,0.6C193.8,100.6,197.4,105.6,197.2,111.5z"/>
		<path class="st20" d="M180,167.8l-0.1,2.8c0,0.9-0.7,1.6-1.5,1.7l-8.5,1.2c-1.2,0.2-1.4,0.3-3.4-1.2c-1-0.8-1.2-1.2-1.3-2.5
			l0.7-0.1L180,167.8z"/>
		<linearGradient id="SVGID_4_" gradientUnits="userSpaceOnUse" x1="105.8446" y1="191.7615" x2="119.5678" y2="169.0289">
			<stop  offset="0" style="stop-color:#FFFFFF;stop-opacity:0"/>
			<stop  offset="1.715779e-03" style="stop-color:#FEFEFE;stop-opacity:1.715779e-03"/>
			<stop  offset="8.399421e-02" style="stop-color:#C9C9C9;stop-opacity:8.399421e-02"/>
			<stop  offset="0.1692" style="stop-color:#9A9A9A;stop-opacity:0.1692"/>
			<stop  offset="0.2598" style="stop-color:#717171;stop-opacity:0.2598"/>
			<stop  offset="0.3543" style="stop-color:#4E4E4E;stop-opacity:0.3543"/>
			<stop  offset="0.4538" style="stop-color:#323232;stop-opacity:0.4538"/>
			<stop  offset="0.5602" style="stop-color:#1C1C1C;stop-opacity:0.5602"/>
			<stop  offset="0.6763" style="stop-color:#0C0C0C;stop-opacity:0.6763"/>
			<stop  offset="0.8098" style="stop-color:#030303;stop-opacity:0.8098"/>
			<stop  offset="1" style="stop-color:#000000"/>
		</linearGradient>
		<polygon class="st21" points="127.7,179.2 101.5,190.5 96.4,183.8 114.2,178.3 		"/>
		<path class="st3" d="M128.7,174.9l-0.1,2.8c0,0.9-0.7,1.6-1.5,1.7l-8.5,1.2c-1.2,0.2-1.4,0.3-3.4-1.2c-1-0.8-1.2-1.2-1.3-2.5
			l0.7-0.1L128.7,174.9z"/>
		<path class="st20" d="M187,98c-1.7-0.4-3.4-0.5-5.3-0.3l-71.1,9.9c-6.9,1-12.3,6.9-12.5,13.8l-1.3,41.9c-0.2,6.6,4.2,12,10.1,13.6
			c-16.6-3.5-22.7-4.8-30.9-6.6c-15-3.3-16.6-11.6-16.4-18.6L61,109c0.3-5.8,6.4-12.6,14.4-13.8l58.5-9
			C143.8,84.6,148.7,85.5,187,98z"/>
		<g>
			<g>
				<path class="st22" d="M143.9,96.6l-3,0.4c0,0,0,0,0,0l-28.8,4c-0.1,0-0.1,0-0.2,0c-1.5,0.1-2.9,0-6.6-1.8c-3.5-1.7-1.5-2.8,0-3
					l31.9-4.4c1.5-0.2,3.5,0.5,6.3,1.6C146.9,94.7,146.3,96.3,143.9,96.6z"/>
			</g>
		</g>
		<g>
			<path class="st10" d="M152.9,82l-16,12.2h0l-15.1,2.3l-8.5,1.3l-5.9-10.1c-1.3-2.2-0.6-5.3,1.5-7L138.8,58
				c2.1-1.6,4.9-1.1,6.2,1.1l9.4,16C155.6,77.3,155,80.4,152.9,82z"/>
			<path class="st22" d="M125.8,81.6c1.4,2.5,0.7,5.9-1.6,7.7c-2.3,1.8-5.4,1.2-6.9-1.2c-1.4-2.5-0.7-5.9,1.6-7.7
				C121.3,78.6,124.4,79.2,125.8,81.6z"/>
			<path class="st22" d="M136.9,94.3l-15.1,2.3c0.7-1.8,1.8-3.4,3.3-4.6c4-3,9.2-2.1,11.7,2.1C136.8,94.1,136.9,94.2,136.9,94.3z"/>
			<line class="st23" x1="130.7" y1="76.8" x2="142.5" y2="67.8"/>
			<line class="st23" x1="137.5" y1="83.4" x2="146.6" y2="76.5"/>
		</g>
		<path class="st19" d="M172.9,134.9c-0.5,12.4-11.2,23.9-24,25.8c-3.5,0.5-6.7,0.2-9.6-0.7c-7.7-2.4-12.8-9.4-12.5-18.4
			c0.5-12.4,11.2-24,24-25.8c2.5-0.4,4.8-0.3,7,0.1C167,117.4,173.3,124.9,172.9,134.9z"/>
		<path class="st22" d="M157.8,115.9c-2.2-0.4-4.5-0.4-7-0.1c-12.7,1.8-23.4,13.4-24,25.8c-0.4,9,4.8,16,12.5,18.4
			c-9.2-1.6-16.1-9.1-15.7-19.1c0.5-12.4,10.5-24,23.2-25.9C150.3,114.6,154.9,115,157.8,115.9z"/>
		<g>
			<path class="st22" d="M164.8,137.2c-0.5,0-1-0.4-1.1-0.9c-0.1-0.6,0.3-1.1,0.9-1.2l3.8-0.6c0.6-0.1,1.1,0.3,1.2,0.9
				c0.1,0.6-0.3,1.1-0.9,1.2l-3.8,0.6C164.9,137.2,164.8,137.2,164.8,137.2z"/>
		</g>
		<g>
			<path class="st22" d="M160.8,127.6c-0.3,0-0.5-0.1-0.7-0.3c-0.4-0.4-0.5-1.1-0.1-1.5l2.8-3c0.4-0.4,1.1-0.5,1.5-0.1
				c0.4,0.4,0.5,1.1,0.1,1.5l-2.8,3C161.4,127.5,161.1,127.6,160.8,127.6z"/>
		</g>
		<g>
			<path class="st10" d="M131.2,142.1c-0.5,0-1-0.4-1.1-0.9c-0.1-0.6,0.3-1.1,0.9-1.2l3.8-0.6c0.6-0.1,1.1,0.3,1.2,0.9
				c0.1,0.6-0.3,1.1-0.9,1.2l-3.8,0.6C131.3,142.1,131.2,142.1,131.2,142.1z"/>
		</g>
		<g>
			<path class="st22" d="M136.1,154.2c-0.3,0-0.5-0.1-0.7-0.3c-0.4-0.4-0.5-1.1-0.1-1.5l2.8-3c0.4-0.4,1.1-0.5,1.5-0.1
				c0.4,0.4,0.5,1.1,0.1,1.5l-2.8,3C136.7,154.1,136.4,154.2,136.1,154.2z"/>
		</g>
		<g>
			<path class="st22" d="M149.1,157.6C149.1,157.6,149.1,157.6,149.1,157.6c-0.6,0-1.1-0.5-1.1-1.1l0.2-3.7c0-0.6,0.5-1.1,1.1-1
				c0.6,0,1.1,0.5,1,1.1l-0.2,3.7C150.2,157.1,149.7,157.6,149.1,157.6z"/>
		</g>
		<g>
			<path class="st22" d="M162.6,150.3c-0.3,0-0.5-0.1-0.7-0.3l-2.6-2.3c-0.5-0.4-0.5-1.1-0.1-1.5c0.4-0.5,1.1-0.5,1.5-0.1l2.6,2.3
				c0.5,0.4,0.5,1.1,0.1,1.5C163.2,150.2,162.9,150.3,162.6,150.3z"/>
		</g>
		<g>
			<path class="st10" d="M150.9,124.9C150.9,124.9,150.9,124.9,150.9,124.9c-0.6,0-1.1-0.5-1.1-1.1l0.2-3.7c0-0.6,0.5-1.1,1.1-1
				c0.6,0,1,0.5,1,1.1l-0.2,3.7C152,124.4,151.5,124.9,150.9,124.9z"/>
		</g>
		<g>
			<path class="st10" d="M140.6,130.6c-0.3,0-0.5-0.1-0.7-0.3l-2.5-2.3c-0.4-0.4-0.5-1.1-0.1-1.5c0.4-0.4,1.1-0.5,1.5-0.1l2.5,2.3
				c0.4,0.4,0.5,1.1,0.1,1.5C141.1,130.5,140.8,130.6,140.6,130.6z"/>
		</g>
		<g>
			<path class="st24" d="M118.6,145.9c-0.4,0.6-0.6,1-0.7,1.2c-0.3,0.4-1.9,2.2-3.5,2.7c-2,0.6-4.2,1.4-6.3,2.3
				c-4.7,1.9-9.4,4-11.9,5.4c3-5.5,6.9-11.9,10-15C110.5,137.9,116.1,142.4,118.6,145.9z"/>
			<path class="st24" d="M124.1,136.6c-2.6,4.3-5.9,10-6.2,10.4c-0.3,0.4-1.9,2.2-3.5,2.7c-2,0.6-4.2,1.4-6.3,2.3
				c2.3-6.8,6.9-17.8,12.1-17.1C121.6,135.1,123,135.8,124.1,136.6z"/>
			<path class="st25" d="M161.8,149.2c-2,8.9-4.5,15.7-6,24.1c-0.9,5.1-2.4,6.6-18.7,19.8c-3.5,2.7-12.4,7.7-15.5,10.4
				c-0.3,0.2-0.5,0.4-0.7,0.6c-1,1.1-2,2.3-2.8,3.3c-1.2,1.6-2.1,2.8-2.1,2.8l-9.4,11.6l-3-1l-7.5-2.5l-17.3-5.7l-2.6-0.9l-0.1,0
				c0,0,0,0,0,0c0-0.2,0.2-0.8,0.5-1.9c0.4-1.4,1-3.5,1.7-6c0.1-0.2,0.1-0.4,0.2-0.6c0.1-0.3,0.2-0.6,0.2-0.9
				c0.2-0.8,0.5-1.6,0.7-2.5c0.1-0.5,0.3-1.1,0.4-1.6c3.5-12.7,10.3-36.8,15.1-40c0.3-0.2,0.8-0.5,1.3-0.8c2.5-1.3,7.1-3.5,11.9-5.4
				c2.2-0.9,4.4-1.6,6.3-2.3c1.7-0.5,3.2-2.3,3.5-2.7c0,0,0,0,0,0c0,0,0,0,0,0c0,0,0,0,0-0.1c0.1-0.1,0.2-0.3,0.3-0.5
				c0,0,0-0.1,0.1-0.1c0.1-0.1,0.2-0.3,0.2-0.4c0,0,0,0,0-0.1c0-0.1,0.1-0.2,0.2-0.3c0.1-0.1,0.2-0.3,0.3-0.4c0,0,0.1-0.1,0.1-0.2
				c0.5-0.9,1.2-2.1,2-3.3c0.1-0.2,0.2-0.4,0.3-0.6c0.5-0.8,1-1.7,1.5-2.6c0.2-0.4,0.4-0.7,0.6-1.1c0.2-0.3,0.3-0.6,0.5-0.8
				c1.5-2.5,2.7-4.6,3-4.9c4.4-5.8,6.8-5.1,14.2-9.3c0.6-0.3,1.2-0.7,1.9-1.1c2-1.1,4.3-2.2,5.8-2.8c0.4-0.2,0.8-0.3,1-0.4
				c1.3-0.3,2.7,0.9,2.7,2.5c0,1.9,0.4,3.8-3.3,8.7c-0.2,0.2-0.3,0.4-0.5,0.7c-1.5,1.9-4.1,3.5-6.8,5.3c-2.2,1.4-4.6,3-6.6,5
				c-1.2,3.3-3.6,11.4-3.7,19.2c0,2.8,0.2,5.6,0.9,8.1c1.8,1.2,10,0.7,12.1-1.8c0.2-0.2,0.3-0.4,0.4-0.6c1-2.5,1.7-5.2,3-8.2
				c1.4-3.3,3.7-6.2,5.8-8.1c1.3-1.2,2.5-2,3.4-2.3c0.7-0.3,1.5-0.3,2.1-0.2c0,0,0.1,0,0.1,0C161.5,146.9,162.1,147.8,161.8,149.2z"
				/>
			<path class="st24" d="M126,207.6c0,0-5.7-6.6-13-9.6c-19.7-8-41.7,3.5-41.7,3.5s10,17.8,19.1,20.4c3.4,1,15.5,6.1,15.5,6.1
				L126,207.6z"/>
			<path class="st22" d="M124.3,213c0,0-6-7-13.8-10.1c-20.8-8.5-40.7,4.3-40.7,4.3s6.1,10.5,23.3,18.3c6.1,2.8,13.3,5.6,13.3,5.6
				L124.3,213z"/>
			<path class="st26" d="M149,118.6c0,0.1,0.1,0.2,0.1,0.3c0.6,1.7-0.3,3.5-1.9,4.1c-1.4,0.5-3.1-0.4-3.9-1.6"/>
			<path class="st13" d="M144.8,165.8c-2.1,2.5-10.3,2.9-12.1,1.8c-0.7-2.5-0.9-5.3-0.9-8.1c0,0.1,0.1,0.1,0.1,0.2
				c3,3.9,7.8,6.2,12.7,6.1C144.7,165.8,144.7,165.8,144.8,165.8z"/>
		</g>
		<path class="st20" d="M164.2,137.8c-0.1,3.3-2,6.5-4.6,8.6c0,0-0.1,0-0.1,0c-0.6-0.1-1.4,0-2.1,0.2c-0.9,0.3-2.1,1.1-3.4,2.3
			c0,0,0,0-0.1,0c-1.7,0.2-7-0.6-8-0.9c-2.4-0.8-4.3-2.6-5-5.1c-0.3-0.9-0.4-1.8-0.3-2.8c0.1-1.7,0.6-3.3,1.4-4.8
			c1.7-1.1,3.3-2.1,4.7-3.2c0,0,0.1-0.1,0.1-0.1c0.1-0.1,0.3-0.2,0.4-0.3c0.6-0.5,1.2-1.1,1.6-1.6c0.2-0.2,0.4-0.4,0.5-0.7
			c0.5-0.2,1-0.3,1.5-0.3c1.7-0.2,7.2,0.6,8.3,1C162.3,131.2,164.3,134.1,164.2,137.8z"/>
		<path class="st20" d="M159.5,146.4c-1.6,1.3-3.5,2.2-5.6,2.5c1.3-1.2,2.5-2,3.4-2.3C158.1,146.3,158.9,146.3,159.5,146.4
			C159.5,146.4,159.5,146.4,159.5,146.4z"/>
		<g>
			<path class="st24" d="M150.4,148.1c-1.9-0.6-3.6-2.1-4.3-4.1c-0.8-2-0.7-4.2-0.1-6.2c0.6-2,1.8-3.8,3.3-5.1
				c1.5-1.4,3.4-2.3,5.4-2.6c-1.8,0.9-3.4,2-4.6,3.4c-1.3,1.4-2.2,3-2.8,4.8c-0.5,1.8-0.7,3.6-0.2,5.4
				C147.6,145.4,148.8,147,150.4,148.1z"/>
		</g>
		<path class="st22" d="M146.7,132.1c-1.9,1.6-3.4,3.4-4.2,4.8c-1.3,2.5-1.7,4.4-1.6,6c-0.3-0.9-0.4-1.8-0.3-2.8
			c0.1-1.7,0.6-3.3,1.4-4.8C143.7,134.2,145.4,133.2,146.7,132.1z"/>
	</g>
</g>
</svg>
