<svg xmlns="http://www.w3.org/2000/svg" width="201" height="193" viewBox="0 0 201 193">
    <defs>
        <linearGradient id="a" x1="30.157%" x2="74.033%" y1="110.074%" y2="-76.167%">
            <stop offset="0%" stop-color="#FFF" stop-opacity="0"/>
            <stop offset="12%" stop-color="#B5B5B5" stop-opacity=".29"/>
            <stop offset="100%" stop-color="#FFF"/>
        </linearGradient>
        <linearGradient id="b" x1="1655.06%" x2="1864.263%" y1="19176%" y2="16903%">
            <stop offset="0%" stop-color="#FFF" stop-opacity="0"/>
            <stop offset="12%" stop-color="#B5B5B5" stop-opacity=".29"/>
            <stop offset="100%" stop-color="#FFF"/>
        </linearGradient>
        <linearGradient id="c" x1="989.967%" x2="1198.043%" y1="18594%" y2="16455%">
            <stop offset="0%" stop-color="#FFF" stop-opacity="0"/>
            <stop offset="12%" stop-color="#B5B5B5" stop-opacity=".29"/>
            <stop offset="100%" stop-color="#FFF"/>
        </linearGradient>
    </defs>
    <g fill="none" fill-rule="evenodd">
        <path fill="#60D5F2" fill-rule="nonzero" d="M67 181.93h68a32 32 0 0 0 27.71-16l34-58.93a32 32 0 0 0 0-32l-34-58.93A32 32 0 0 0 135 .07H67a32 32 0 0 0-27.71 16L5.24 75a32 32 0 0 0 0 32l34 58.93a32 32 0 0 0 27.76 16z" opacity=".2"/>
        <path fill="url(#a)" fill-rule="nonzero" d="M150.03 133.04l-26.18 11.36-5.09-6.75 17.75-5.46z" opacity=".2"/>
        <path fill="#D8DFE3" fill-rule="nonzero" d="M168.19 72.54l-1.31 41.91a14.54 14.54 0 0 1-12.48 13.85l-12.73 1.77-14.12 2-44.23 6.15a13.93 13.93 0 0 1-4.23-.05c-.39-.07-.78-.15-1.17-.25a13.46 13.46 0 0 1-10.09-13.55l1.31-41.91a14.54 14.54 0 0 1 12.48-13.85l71.07-9.88A13.83 13.83 0 0 1 158 59c.62.15 1.229.348 1.82.59a13.45 13.45 0 0 1 8.37 12.95z"/>
        <path fill="#526A73" fill-rule="nonzero" d="M151 128.76l-.09 2.79a1.78 1.78 0 0 1-1.53 1.7l-8.38 1.18c-1.19.17-1.43.33-3.41-1.15a2.57 2.57 0 0 1-1.31-2.45l.67-.09 14.05-1.98z"/>
        <path fill="url(#b)" fill-rule="nonzero" d="M98.69 140.18L72.5 151.53l-5.09-6.75 17.75-5.46z" opacity=".2"/>
        <path fill="url(#c)" fill-rule="nonzero" d="M54.67 130.72l-24.68 10.6-3.99-6.9 15.14-4.61z" opacity=".2"/>
        <path fill="#526A73" fill-rule="nonzero" d="M99.69 135.9l-.09 2.79a1.78 1.78 0 0 1-1.53 1.7l-8.46 1.17c-1.19.17-1.43.33-3.41-1.15a2.57 2.57 0 0 1-1.31-2.45l.67-.09 14.13-1.97zM158 59a13.83 13.83 0 0 0-5.26-.26l-71.07 9.88a14.54 14.54 0 0 0-12.48 13.85l-1.31 41.91a13.46 13.46 0 0 0 10.09 13.55c-16.64-3.51-22.73-4.79-30.86-6.58-15-3.29-16.55-11.56-16.38-18.6L32 70c.27-5.81 6.37-12.6 14.4-13.84l58.51-9C114.8 45.58 119.7 46.54 158 59z"/>
        <path fill="#314448" fill-rule="nonzero" d="M114.94 57.64l-3 .42L83 62h-.18c-1.49.14-2.88 0-6.6-1.85-3.54-1.74-1.48-2.76 0-3l31.9-4.39c1.51-.21 3.51.5 6.34 1.58 3.49 1.4 2.85 2.97.48 3.3z"/>
        <path fill="#60D5F2" fill-rule="nonzero" d="M123.86 43l-16 12.22-15.08 2.33-8.45 1.3-5.91-10.1a5.51 5.51 0 0 1 1.46-7L109.77 19a4.08 4.08 0 0 1 6.17 1.11l9.37 16a5.51 5.51 0 0 1-1.45 6.89z" opacity=".7"/>
        <path fill="#526A73" fill-rule="nonzero" d="M96.82 42.63a6.12 6.12 0 0 1-1.62 7.73 4.54 4.54 0 0 1-6.87-1.23A6.12 6.12 0 0 1 90 41.4a4.54 4.54 0 0 1 6.82 1.23zM107.9 55.25l-15.08 2.33A10.21 10.21 0 0 1 96.15 53a7.7 7.7 0 0 1 11.66 2.09l.09.16z"/>
        <path stroke="#526A73" stroke-linecap="round" stroke-linejoin="round" stroke-width="3.33" d="M101.74 37.81l11.73-8.98M108.52 44.4l9.06-6.94"/>
        <path fill="#D8DFE3" fill-rule="nonzero" d="M143.92 95.94c-.52 12.4-11.24 23.95-24 25.79a21.56 21.56 0 0 1-9.62-.68c-7.72-2.43-12.84-9.42-12.47-18.44.52-12.4 11.24-24 24-25.79a22.42 22.42 0 0 1 7 .05c9.17 1.55 15.5 9.06 15.09 19.07z"/>
        <path fill="#9EB1B4" fill-rule="nonzero" d="M128.82 76.87a22.42 22.42 0 0 0-7-.05c-12.72 1.84-23.44 13.38-24 25.79-.37 9 4.75 16 12.47 18.44-9.15-1.56-16.14-9.06-15.73-19.07.51-12.4 10.5-24 23.22-25.85a28.14 28.14 0 0 1 11.04.74z"/>
        <path fill="#FFF" fill-rule="nonzero" d="M135.77 98.2a1.09 1.09 0 0 1-.15-2.16l3.83-.56a1.09 1.09 0 1 1 .31 2.15l-3.83.56-.16.01zM131.84 88.58a1.09 1.09 0 0 1-.8-1.83l2.82-3a1.09 1.09 0 1 1 1.59 1.48l-2.82 3a1.08 1.08 0 0 1-.79.35zM102.19 103.06a1.09 1.09 0 0 1-.15-2.16l3.83-.55a1.09 1.09 0 1 1 .31 2.15l-3.83.55-.16.01zM107.14 115.17a1.09 1.09 0 0 1-.8-1.83l2.82-3a1.09 1.09 0 0 1 1.59 1.48l-2.82 3a1.08 1.08 0 0 1-.79.35zM120.14 118.61a1.09 1.09 0 0 1-1-1.13l.16-3.74a1.09 1.09 0 1 1 2.17.09l-.16 3.74a1.09 1.09 0 0 1-1.17 1.04zM133.59 111.35a1.08 1.08 0 0 1-.71-.27l-2.6-2.25a1.09 1.09 0 0 1 1.42-1.64l2.6 2.25a1.09 1.09 0 0 1-.71 1.91zM121.91 85.86a1.07 1.07 0 0 1-1-1.11L121 81a1.07 1.07 0 1 1 2.14.09l-.15 3.74a1.07 1.07 0 0 1-1.08 1.03zM111.56 91.63a1.06 1.06 0 0 1-.71-.27l-2.52-2.25a1.07 1.07 0 0 1 1.42-1.59l2.52 2.25a1.07 1.07 0 0 1-.71 1.87v-.01z"/>
        <path fill="#60D5F2" fill-rule="nonzero" d="M89.64 106.9c-.38.63-.64 1-.73 1.16a8.74 8.74 0 0 1-3.54 2.7c-2 .62-4.17 1.41-6.35 2.26a120.45 120.45 0 0 0-11.85 5.36c3-5.54 6.88-11.9 10-15 4.32-4.45 9.93.06 12.47 3.52z" opacity=".8"/>
        <path fill="#60D5F2" fill-rule="nonzero" d="M95.14 97.62c-2.56 4.32-5.87 10-6.23 10.44a8.74 8.74 0 0 1-3.54 2.7c-2 .62-4.17 1.41-6.35 2.26 2.34-6.84 6.94-17.85 12.07-17.1a9.3 9.3 0 0 1 4.05 1.7z" opacity=".8"/>
        <path fill="#60D5F2" fill-rule="nonzero" d="M132.77 110.17c-2 8.94-4.5 15.71-6 24.06-.94 5.13-2.41 6.58-18.67 19.77-3.5 2.65-12.38 7.69-15.49 10.41a8 8 0 0 0-.66.64c-1 1.13-2 2.31-2.75 3.33-1.25 1.61-2.08 2.83-2.08 2.83l-9.41 11.59-3-1-7.61-2.5-17.29-5.72-2.65-.88h-.1l.52-1.9 1.65-6 .16-.58.24-.87.69-2.52.45-1.61c3.5-12.68 10.31-36.8 15.05-40 .31-.21.76-.47 1.32-.78A120.45 120.45 0 0 1 79 113c2.18-.85 4.36-1.64 6.35-2.26a8.74 8.74 0 0 0 3.54-2.7v-.07l.34-.54.06-.1.24-.39v-.06l.15-.26.26-.43.09-.15 2-3.3.34-.58 1.53-2.59.64-1.08.49-.82c1.5-2.53 2.74-4.61 3-4.91 4.43-5.83 6.82-5.07 14.16-9.31.56-.33 1.23-.69 1.94-1.07 2-1.05 4.33-2.19 5.77-2.77a7.78 7.78 0 0 1 1-.36 2.36 2.36 0 0 1 2.67 2.51c0 1.85.4 3.83-3.34 8.69l-.51.65c-1.54 1.92-4.1 3.5-6.82 5.28a39.27 39.27 0 0 0-6.56 5 65.52 65.52 0 0 0-3.72 19.21 28.58 28.58 0 0 0 .89 8.06c1.78 1.15 10 .7 12.12-1.79a2.11 2.11 0 0 0 .39-.62c1-2.53 1.73-5.18 3-8.19a23.51 23.51 0 0 1 5.82-8.12 11.43 11.43 0 0 1 3.4-2.29 4.25 4.25 0 0 1 2.1-.22h.08c2.13.44 2.66 1.4 2.35 2.75z" opacity=".9"/>
        <path fill="#00B8F3" fill-rule="nonzero" d="M97 168.63S91.3 162 84 159c-19.66-8-41.74 3.48-41.74 3.48s10 17.82 19.11 20.41c3.35 1 15.48 6.08 15.48 6.08L97 168.63z"/>
        <path fill="#0078C5" fill-rule="nonzero" d="M95.28 174s-6-7-13.75-10.13c-20.78-8.46-40.72 4.33-40.72 4.33s6.13 10.53 23.26 18.29c6.13 2.78 13.34 5.6 13.34 5.6L95.28 174z"/>
        <path fill="#89E7F5" fill-rule="nonzero" d="M118.16 83.89a3.78 3.78 0 0 1-3.94-1.57c2-1.05 4.33-2.19 5.77-2.77.043.09.08.184.11.28a3.18 3.18 0 0 1-1.94 4.06z"/>
        <path fill="#00B8F3" fill-rule="nonzero" d="M115.76 126.81c-2.14 2.49-10.34 2.94-12.12 1.79a28.58 28.58 0 0 1-.89-8.06l.13.18a15.93 15.93 0 0 0 12.72 6.1l.16-.01z"/>
        <path fill="#C5CDD1" fill-rule="nonzero" d="M135.17 98.84a11.84 11.84 0 0 1-4.62 8.56h-.08a4.25 4.25 0 0 0-2.1.22 11.43 11.43 0 0 0-3.4 2.29h-.06a33.26 33.26 0 0 1-8-.89 7.47 7.47 0 0 1-5-5.11 8.62 8.62 0 0 1-.32-2.78 10.75 10.75 0 0 1 1.4-4.79c1.7-1.11 3.34-2.14 4.7-3.23l.1-.09.4-.33a12 12 0 0 0 1.61-1.63l.51-.65a10.74 10.74 0 0 1 1.54-.34 32.58 32.58 0 0 1 8.28 1 7.64 7.64 0 0 1 5.04 7.77z"/>
        <path fill="#C5CDD1" fill-rule="nonzero" d="M130.55 107.4a11.84 11.84 0 0 1-5.59 2.48 11.43 11.43 0 0 1 3.4-2.29 4.25 4.25 0 0 1 2.1-.22l.09.03z"/>
        <path fill="#FFF" fill-rule="nonzero" d="M121.42 109.08a6.88 6.88 0 0 1-4.31-4.1 9.41 9.41 0 0 1-.14-6.16 11.69 11.69 0 0 1 3.33-5.14 10.41 10.41 0 0 1 5.36-2.63 14.49 14.49 0 0 0-4.61 3.39 13 13 0 0 0-2.78 4.78 9.64 9.64 0 0 0-.16 5.41 7.91 7.91 0 0 0 3.31 4.45z" opacity=".2"/>
        <path fill="#9EB1B4" fill-rule="nonzero" d="M117.73 93.09a17.25 17.25 0 0 0-4.16 4.84 11.76 11.76 0 0 0-1.62 6 8.62 8.62 0 0 1-.32-2.78 10.75 10.75 0 0 1 1.4-4.79c1.7-1.14 3.33-2.18 4.7-3.27z"/>
    </g>
</svg>
