<svg xmlns="http://www.w3.org/2000/svg" width="113" height="101" viewBox="0 0 113 101">
    <g fill="#60D5F2" fill-rule="nonzero">
        <path d="M1.5 100.27c-.2 0-.397-.041-.58-.12a1.4 1.4 0 0 1-.48-.32 1.63 1.63 0 0 1-.33-.49 1.5 1.5 0 0 1 1.68-2.04l.28.08.26.14c.081.058.158.121.23.19.071.07.135.147.19.23.053.078.096.162.13.25.04.093.07.19.09.29.01.096.01.194 0 .29 0 .195-.038.389-.11.57a1.52 1.52 0 0 1-1.36.93zM2.66 94.42a1.49 1.49 0 0 1-.94-1.9 1.5 1.5 0 0 1 1.9-.95 1.5 1.5 0 0 1 .94 1.9 1.5 1.5 0 0 1-1.42 1 1.61 1.61 0 0 1-.48-.05zm2-5.63a1.5 1.5 0 0 1-.77-2 1.5 1.5 0 0 1 2-.77 1.51 1.51 0 0 1 .77 2 1.5 1.5 0 0 1-1.38.89 1.61 1.61 0 0 1-.59-.12h-.03zm2.53-5.43a1.51 1.51 0 0 1-.6-2 1.51 1.51 0 0 1 2-.59 1.5 1.5 0 0 1 .59 2 1.49 1.49 0 0 1-1.31.77 1.54 1.54 0 0 1-.65-.18h-.03zm3-5.19a1.51 1.51 0 0 1-.43-2.08 1.5 1.5 0 0 1 2.08-.42 1.5 1.5 0 0 1 .41 2.08 1.52 1.52 0 0 1-1.26.67 1.54 1.54 0 0 1-.77-.25h-.03zm3.41-4.93a1.49 1.49 0 0 1-.26-2.1 1.5 1.5 0 0 1 2.11-.26 1.49 1.49 0 0 1 .25 2.1 1.48 1.48 0 0 1-1.18.58 1.45 1.45 0 0 1-.89-.32h-.03zm3.77-4.65a1.49 1.49 0 0 1-.11-2.12 1.5 1.5 0 0 1 2.12-.12 1.51 1.51 0 0 1 .11 2.12 1.51 1.51 0 0 1-1.12.5 1.5 1.5 0 0 1-.97-.38h-.03zm4.08-4.38a1.5 1.5 0 0 1 0-2.12 1.49 1.49 0 0 1 2.12 0 1.49 1.49 0 0 1 0 2.11 1.51 1.51 0 0 1-1 .42 1.49 1.49 0 0 1-1.09-.41h-.03zm4.35-4.13A1.49 1.49 0 0 1 26 58a1.49 1.49 0 0 1 2.11.14 1.49 1.49 0 0 1-.14 2.12 1.47 1.47 0 0 1-1 .37 1.47 1.47 0 0 1-1.14-.55h-.03zm4.55-3.89a1.5 1.5 0 0 1 .24-2.11 1.5 1.5 0 0 1 2.11.24 1.51 1.51 0 0 1-.23 2.11c-.268.21-.6.322-.94.32a1.48 1.48 0 0 1-1.15-.56h-.03zm4.75-3.69a1.49 1.49 0 0 1 .33-2.09 1.48 1.48 0 0 1 2.09.32 1.5 1.5 0 0 1-.32 2.1 1.55 1.55 0 0 1-.89.29 1.52 1.52 0 0 1-1.21-.62zM40 49a1.49 1.49 0 0 1 .39-2.08 1.51 1.51 0 0 1 2.09.39A1.51 1.51 0 0 1 42 49.4a1.52 1.52 0 0 1-.84.25A1.48 1.48 0 0 1 40 49zm5-3.35a1.5 1.5 0 0 1 .45-2.07 1.52 1.52 0 0 1 2.08.45 1.51 1.51 0 0 1-.53 2.08 1.49 1.49 0 0 1-.81.23 1.49 1.49 0 0 1-1.19-.69zm5-3.21a1.48 1.48 0 0 1 .49-2.06 1.5 1.5 0 0 1 2.06.5 1.5 1.5 0 0 1-.49 2.06 1.51 1.51 0 0 1-.78.22 1.49 1.49 0 0 1-1.28-.72zm5.14-3.11a1.5 1.5 0 0 1 .53-2.05 1.5 1.5 0 0 1 2.06.53 1.49 1.49 0 0 1-.54 2 1.49 1.49 0 0 1-2.02-.48h-.03zm5.18-3a1.49 1.49 0 0 1 .56-2 1.51 1.51 0 0 1 2 .55 1.5 1.5 0 0 1-.56 2 1.41 1.41 0 0 1-.74.2 1.51 1.51 0 0 1-1.23-.78l-.03.03zm5.22-3a1.5 1.5 0 0 1 .57-2 1.49 1.49 0 0 1 2 .57 1.49 1.49 0 0 1-.57 2 1.49 1.49 0 0 1-.73.2 1.52 1.52 0 0 1-1.24-.77h-.03zm5.23-2.94a1.5 1.5 0 0 1 .57-2 1.5 1.5 0 0 1 2 .57 1.5 1.5 0 0 1-.56 2 1.53 1.53 0 0 1-.74.19 1.53 1.53 0 0 1-1.24-.76h-.03zm5.23-3a1.49 1.49 0 0 1 .56-2 1.49 1.49 0 0 1 2 .55 1.49 1.49 0 0 1-.48 2.06 1.56 1.56 0 0 1-.75.2 1.49 1.49 0 0 1-1.33-.77v-.04zm5.2-3a1.5 1.5 0 0 1 .53-2 1.5 1.5 0 0 1 2.06.53 1.5 1.5 0 0 1-.53 2 1.51 1.51 0 0 1-.76.21 1.49 1.49 0 0 1-1.27-.69l-.03-.05zm5.16-3.07a1.49 1.49 0 0 1 .49-2.06 1.5 1.5 0 0 1 2.06.49 1.49 1.49 0 0 1-.48 2.06 1.45 1.45 0 0 1-.79.23 1.51 1.51 0 0 1-1.25-.67l-.03-.05zm5.08-3.2a1.5 1.5 0 0 1 .42-2.08 1.5 1.5 0 0 1 2.08.42 1.5 1.5 0 0 1-.42 2.08 1.47 1.47 0 0 1-.83.25 1.49 1.49 0 0 1-1.22-.62l-.03-.05zm5-3.38a1.5 1.5 0 0 1 .32-2.1 1.5 1.5 0 0 1 2.1.32 1.5 1.5 0 0 1-.31 2.1 1.55 1.55 0 0 1-.89.29 1.49 1.49 0 0 1-1.23-.56l.01-.05zm4.77-3.64a1.49 1.49 0 0 1 .16-2.1 1.48 1.48 0 0 1 2.11.17 1.48 1.48 0 0 1-.17 2.11 1.49 1.49 0 0 1-1 .36 1.5 1.5 0 0 1-1.11-.49l.01-.05zm4.48-4a1.5 1.5 0 0 1 0-2.12 1.49 1.49 0 0 1 2.12 0 1.49 1.49 0 0 1 0 2.12 1.48 1.48 0 0 1-1.08.46 1.5 1.5 0 0 1-1.05-.39l.01-.07zM110.61 3c-.196 0-.39-.04-.57-.12a1.34 1.34 0 0 1-.49-.32 1.62 1.62 0 0 1-.33-.49 1.54 1.54 0 0 1-.08-.87c.02-.096.051-.19.09-.28a1.54 1.54 0 0 1 .13-.26 2 2 0 0 1 .19-.22 1.4 1.4 0 0 1 .23-.19c.068-.054.142-.1.22-.14a.92.92 0 0 1 .28-.08c.191-.04.389-.04.58 0a.92.92 0 0 1 .28.08c.092.036.18.083.26.14.085.052.163.116.23.19.068.069.132.142.19.22 0 .09.1.17.14.26.04.09.06.19.08.28.01.1.01.2 0 .3a1.47 1.47 0 0 1-.44 1.06 1.5 1.5 0 0 1-.99.44z"/>
    </g>
</svg>
