<?xml version="1.0" encoding="utf-8"?>
<!-- Generator: Adobe Illustrator 21.0.2, SVG Export Plug-In . SVG Version: 6.00 Build 0)  -->
<svg version="1.1" id="Layer_1" xmlns="http://www.w3.org/2000/svg" xmlns:xlink="http://www.w3.org/1999/xlink" x="0px" y="0px"
	 viewBox="0 0 260 260" style="enable-background:new 0 0 260 260;" xml:space="preserve">
<style type="text/css">
	.st0{opacity:0.2;fill:#60D5F2;}
	.st1{fill:#3AA3E3;}
	.st2{fill:#2978BE;}
	.st3{fill:#143D8A;}
	.st4{fill:#2266AF;}
	.st5{fill:#FFFFFF;}
	.st6{opacity:0.2;fill:#314448;}
	.st7{fill:#308DD1;}
	.st8{fill:none;stroke:#143D8A;stroke-width:0.5;stroke-miterlimit:10;}
	.st9{fill:#90D8F0;}
	.st10{fill:#67BCEF;}
	.st11{fill:none;stroke:#90D8F0;stroke-linecap:round;stroke-linejoin:round;stroke-miterlimit:10;}
</style>
<g>
	<title>HMQ Explorer</title>
	<desc>Created with Sketch.</desc>
	<path class="st0" d="M96,220.9h68c11.4,0,22-6.1,27.7-16l34-58.9c5.7-9.9,5.7-22.1,0-32l-34-58.9c-5.7-9.9-16.3-16-27.7-16H96
		c-11.4,0-22,6.1-27.7,16l-34,58.9c-5.7,9.9-5.7,22.1,0,32l34,58.9C74,214.8,84.5,220.9,96,220.9z"/>
	<g>
		<path class="st1" d="M96,220.9h66.9c11.8,0,22.7-6.3,28.6-16.5l33.4-57.9c5.9-10.2,5.9-22.8,0-33l-33.4-57.9
			c-5.9-10.2-16.8-16.5-28.6-16.5H96c-11.8,0-22.7,6.3-28.6,16.5l-33.4,57.9c-5.9,10.2-5.9,22.8,0,33l33.4,57.9
			C73.3,214.6,84.2,220.9,96,220.9z"/>
		<g>
			<path class="st2" d="M112.7,200.1c-2.1,10.5-15,23.1-15,23.1l-34.5-12.6l4.4-22.2l0.5-2.7c2.7,4.5,6,7.9,9.3,10.4
				c6.9,5,14,5.7,16.9,1.2c0.4-0.6,0.7-1.4,1-2.2c0.4-1.5,0.5-3.4,0.1-5.7c-0.6-3.7-2.3-8.4-5.5-14.1c-2.4-4.3-5.9-7.2-8.4-9.6
				c-1.2-1.1-2.2-2.1-2.8-3c-2.2-3.8-2.9-9.7-2.9-9.7s-0.4-1.8-0.3-4.8v0c0-0.1,0-0.3,0-0.5l5.2-2.3l14.1-5.8l17.7,9.7l4.3,14.8
				C116.9,164.1,117.8,175.1,112.7,200.1z"/>
			<path class="st3" d="M106,189.9c-3.8,4.1-7.4,6.2-11.5,7.5c0.4-0.6,0.7-1.4,1-2.2L106,189.9z"/>
			<ellipse transform="matrix(0.6191 -0.7853 0.7853 0.6191 -52.612 127.4238)" class="st1" cx="105" cy="117.9" rx="10.1" ry="5"/>
			
				<ellipse transform="matrix(0.6191 -0.7853 0.7853 0.6191 -60.9031 135.9406)" class="st1" cx="109.7" cy="130.8" rx="9" ry="4.4"/>
			
				<ellipse transform="matrix(0.6191 -0.7853 0.7853 0.6191 -68.1807 140.9426)" class="st1" cx="111.2" cy="140.8" rx="9" ry="4.4"/>
			<path class="st4" d="M127.7,174.6c0,0-35.3,21.5-35.5,22.2c-0.7,0.3-1,0-1,0l-5-13.6L81.2,170l-19.9-53.9c-2-5.1-0.3-7.8,2.6-8.7
				l30.9-10.9c3-1,6.3,0.5,7.3,3.3L127.7,174.6z"/>
			<path class="st5" d="M125.4,180.4l-7.1,3.5l-4.4,2.2l-7.9,3.9l-10.6,5.2l-3.3,1.6l-1.7-5l-8.9-26l-6-17.6v0l-5.6-16.4L63.8,114
				c-0.9-2.7-0.9-5.1,3.2-6.6l28.8-10c2.8-1,5.8,0.5,6.7,3.3l25.4,73.4C128.8,176.6,127.7,179.2,125.4,180.4z"/>
			<path class="st2" d="M87.7,106.1l-6.9,2.4c-0.2,0.1-0.4,0-0.5-0.2h0c-0.2-0.3-0.1-0.6,0.2-0.7l6.9-2.4c0.2-0.1,0.4,0,0.5,0.2l0,0
				C88.2,105.6,88.1,106,87.7,106.1z"/>
			<polygon class="st5" points="67.3,118.4 102.5,106.3 124.6,170 91,185.6 			"/>
			<polygon class="st3" points="80.9,144.2 108.1,133.5 110.9,141.2 83.9,152.7 			"/>
			<polygon class="st6" points="95.7,143.6 89.4,181.2 89.3,180.9 88.6,186.4 87.6,187.2 80.6,168.2 82,167.1 83.3,163.9 
				83.4,164.2 91.2,142.6 			"/>
			<path class="st3" d="M77.6,196.2c-3.6-1.5-7.1-4.1-9.9-7.7l0.5-2.7C71,190.2,74.3,193.7,77.6,196.2z"/>
			<path class="st6" d="M117.5,184.3l-11.5,5.7c0-7.7,0-20.7,0-21c0,0.1,0.1,0.3,0.2,0.3C111.1,174.3,115.5,180.9,117.5,184.3z"/>
			<path class="st7" d="M111.8,220.9c0,0-8.9,2.9-28.7,4.5c-8.3,0.7-30.2-2.6-30.2-2.6l9-22c0,0,0.6-0.1,1.5-0.1
				c3.1-0.1,10.2-0.2,15.9,2c8.1,3.1,18.4,9.2,25.2,13.5c1.6,1,3.1,2,4.3,2.7C110.7,220.1,111.8,220.9,111.8,220.9z"/>
			<path class="st3" d="M109,224.5c0,0-8.9,2.9-28.7,4.5c-8.3,0.7-30.2-2.6-30.2-2.6l9-22c0,0,0.6-0.1,1.5-0.1
				c3.1-0.1,10.2-0.2,15.9,2c8.1,3.1,18.4,9.2,25.2,13.5c1.6,1,3.1,2,4.3,2.7C107.8,223.8,109,224.5,109,224.5z"/>
			<path class="st2" d="M95.4,195.2c-0.2,0.9-0.5,1.6-1,2.2c-2.8,4.4-10,3.8-16.9-1.2c-3.3-2.4-6.6-5.9-9.3-10.4v0
				c-3.8-6.3-6.5-14.6-6.5-24.6c0-0.2,0-0.4,0-0.6c0.1-2.9,0.6-9.6,1.1-15.9c0.5-5.3,0.9-10.4,1.2-12.7c0.1-0.8,2.9-3.4,5.9-0.2
				c0.2,0.2,0.4,0.4,0.6,0.6c3.5,4.5,5,12.1,5,15.2c0,0.2,0,0.3,0,0.5v0c-0.1,3,0.3,4.8,0.3,4.8s0.7,6,2.9,9.7
				c0.5,0.9,1.5,1.9,2.8,3c2.5,2.3,6,5.2,8.4,9.6c3.2,5.7,4.9,10.4,5.5,14.1C95.9,191.7,95.8,193.6,95.4,195.2z"/>
			<path class="st8" d="M64.1,132.1c1.8,0.9,3.1,2.8,3.1,4.9c0,2.5-1.7,4.6-4,5.3"/>
			<path class="st2" d="M212.7,186L212.7,186l-14.2,16.8l-5.3,6.3l-2.2,2.6l-14.7-5.2l-5.1-1.8l-5.8-2l-46.7-16.4
				c-0.1-0.2-5.8-10.2-12.5-17.1c-0.5-0.5-0.2-2,1-3.2c0.1-0.1,0.1-0.1,0.2-0.2c0.3-0.2,0.6-0.5,1-0.7c0.1-0.1,0.3-0.1,0.5-0.2
				c2.2-0.9,5.6-0.6,10.5,2.9h0c7.3,5.3,12.2,7.1,16.7,7.8c0-1.9-0.2-3.6-6.8-8.1c-0.4-0.3-1.3-0.8-2.6-1.6c0,0,0,0,0,0l0,0
				c0,0,0,0,0,0c-7.6-4.5-28-15.9-29.8-17c-6.2-3.6-6.3-6.6-5-8.1c0.2-0.3,0.6-0.4,1.1-0.5c1.4-0.2,3.7,0.2,6.6,1
				c6.6,1.8,15.9,5.5,23.1,8.3c0.1,0,0.2,0.1,0.2,0.1c1.3,0.5,2.6,1,3.7,1.4c0.5,0.2,1.8,0.1,3.6-0.1h0c3.6-0.5,9.1-1.7,14.6-2.8
				c0,0,0,0,0,0c8.7-1.8,17.5-3.6,26.8,2.9c10.5,7.3,25.1,19.9,31.7,26c0.7,0.6,1.4,1.3,2,1.9c0.4,0.4,0.8,0.7,1.1,1.1
				C209.9,183.4,212.3,185.7,212.7,186C212.7,186,212.7,186,212.7,186z"/>
			<path class="st3" d="M136.1,175.7c0-1.9-2.8-5.2-9.5-9.7c0,0,7,2.7,10.6,5.3c3.6,2.6,4.2,5.2,4.2,5.2L136.1,175.7z"/>
			<path class="st7" d="M166.1,209.7c0,0,1.5-9,6.3-15.6c13.1-17.8,39-19.7,39-19.7s0.8,21.3-5.9,28.6c-2.5,2.7-10.4,13.9-10.4,13.9
				L166.1,209.7z"/>
			<path class="st3" d="M170.5,213.5c0,0,1.5-9.5,6.7-16.5c13.9-18.9,38.6-18.4,38.6-18.4s0.3,12.7-10.7,29
				c-3.9,5.8-8.8,12.3-8.8,12.3L170.5,213.5z"/>
			<path class="st8" d="M99.5,141.4c-0.3,1.5-1.6,2.7-3.3,2.7c-1.8,0-3.3-1.5-3.3-3.3c0-0.1,0-0.2,0-0.3"/>
			<g>
				<g>
					<path class="st9" d="M213.3,137.9c-1.9,3-5,7.1-5.9,12.5c0.8-0.2,1.5-0.3,2-0.3c0,0.1,0,0.2,0,0.3c0,0-0.9,0.4-2,0.7
						c-0.8,0.2-1.7,0.5-2.4,0.5c-2.4,0.2-3.5-0.5-3.5-0.5c0,0,0-0.1,0-0.1c0.4-5.9-3-9.6-4.9-12.3c-7-10.4-0.3-22.9,11.7-24.1
						c0.3,0,0.6-0.1,0.9-0.1C217.4,115.9,220.2,126.6,213.3,137.9z"/>
				</g>
				<g>
					<path class="st10" d="M216.2,136.7c-2.2,3.2-6.3,7.5-6.9,13.4c-0.4,0-1.1,0.1-2,0.3c0-5.2,3.5-9.3,5-12.5
						c5-10.6,2.7-19.6-3.3-23.4C218.6,114,223.8,125.9,216.2,136.7z"/>
				</g>
				<path class="st7" d="M207.7,155.9c-0.7,0.9-4.3,1.4-5.2,0.5c-0.5-0.5-0.9-1.8-1.2-2.9c-0.2-1.2-0.3-2.2-0.2-2.5
					c0.1,0,0.2,0,0.3,0.1c2,0.4,4.3-0.2,6-0.6c0.8-0.2,1.5-0.3,2-0.3c0.2,0,0.4,0.1,0.4,0.2C210.2,151.3,208.4,155,207.7,155.9z"/>
				<line class="st11" x1="216.2" y1="106.6" x2="218.1" y2="102"/>
				<line class="st11" x1="226.3" y1="112.1" x2="230.2" y2="108.6"/>
				<line class="st11" x1="231.3" y1="122.4" x2="236.6" y2="121"/>
				<line class="st11" x1="229" y1="134.9" x2="234.3" y2="136.4"/>
				<line class="st11" x1="184.3" y1="137.7" x2="180.9" y2="139.1"/>
				<line class="st11" x1="184.8" y1="125.5" x2="181.3" y2="124.4"/>
				<line class="st11" x1="192.2" y1="114.3" x2="189.4" y2="111.6"/>
				<line class="st11" x1="203.8" y1="107.5" x2="203.2" y2="103.3"/>
			</g>
			<g>
				<path class="st9" d="M120.1,72.2l2.5,8.6c0.6,2,0.1,4-1.4,5.5L110,98.5c-1.4,1.5-3.6,2.4-6,2.5l-10.5,0c-3.8,0-7.1-2.2-8-5.3
					L83,87.1c-0.6-2-0.1-4,1.4-5.5l11.3-12.2c1.4-1.5,3.6-2.4,6-2.5l10.5,0C115.9,66.9,119.3,69.1,120.1,72.2z"/>
			</g>
			<g>
				<path class="st9" d="M164.7,70.2l1.6,5.5c0.4,1.2,0,2.5-0.9,3.5l-7.2,7.7c-0.9,1-2.3,1.6-3.8,1.6l-6.7,0c-2.4,0-4.5-1.4-5.1-3.4
					l-1.6-5.5c-0.4-1.2,0-2.5,0.9-3.5l7.2-7.7c0.9-1,2.3-1.6,3.8-1.6l6.7,0C162,66.9,164.1,68.3,164.7,70.2z"/>
			</g>
			<g>
				<path class="st9" d="M188,90.7l0.9,3.1c0.2,0.7,0,1.4-0.5,2l-4,4.3c-0.5,0.5-1.3,0.9-2.1,0.9l-3.7,0c-1.3,0-2.5-0.8-2.8-1.9
					l-0.9-3.1c-0.2-0.7,0-1.4,0.5-2l4-4.3c0.5-0.5,1.3-0.9,2.1-0.9l3.7,0C186.5,88.9,187.6,89.7,188,90.7z"/>
			</g>
		</g>
	</g>
</g>
</svg>
