<svg xmlns="http://www.w3.org/2000/svg" width="209" height="191" viewBox="0 0 209 191">
    <g fill="none" fill-rule="evenodd">
        <path fill="#60D5F2" fill-rule="nonzero" d="M67 181.93h66.89a33 33 0 0 0 28.58-16.5l33.43-57.93a33 33 0 0 0 0-33l-33.45-57.93A33 33 0 0 0 133.87.07H67a33 33 0 0 0-28.6 16.5L4.95 74.5a33 33 0 0 0 0 33l33.45 57.93a33 33 0 0 0 28.6 16.5z" opacity=".2"/>
        <path fill="#89E7F5" fill-rule="nonzero" d="M127.64 107c-3.2.52-7.52 1.41-11.89 2.32-5.45 1.14-11 2.3-14.56 2.79 0 0 1.73-8 6.74-8.18 4.83-.24 13.07 1.44 19.71 3.07z" opacity=".6"/>
        <path fill="#60D5F2" fill-rule="nonzero" d="M83.75 161.12c-2.1 10.48-15 23.11-15 23.11l-34.43-12.64 4.44-22.15.53-2.66a36 36 0 0 0 9.34 10.38c6.88 5 14 5.67 16.85 1.25a7.42 7.42 0 0 0 1-2.25 14 14 0 0 0 .09-5.7c-.59-3.71-2.32-8.41-5.54-14.14-2.42-4.31-5.91-7.24-8.43-9.55a15.07 15.07 0 0 1-2.78-3C47.56 120 46.85 114 46.85 114a18.74 18.74 0 0 1-.32-4.8v-.5l5.22-2.25 14.13-5.79 17.71 9.7 4.33 14.78s.85 10.92-4.17 35.98z"/>
        <path fill="#0078C5" fill-rule="nonzero" d="M77 150.94a24.78 24.78 0 0 1-11.54 7.46 7.42 7.42 0 0 0 1-2.25L77 150.94z" opacity=".7"/>
        <ellipse cx="76.048" cy="78.952" fill="#89E7F5" fill-rule="nonzero" opacity=".8" rx="10.12" ry="5" transform="rotate(-51.75 76.048 78.952)"/>
        <ellipse cx="80.682" cy="91.753" fill="#89E7F5" fill-rule="nonzero" opacity=".8" rx="9.01" ry="4.45" transform="rotate(-51.75 80.682 91.753)"/>
        <ellipse cx="82.197" cy="101.75" fill="#89E7F5" fill-rule="nonzero" opacity=".8" rx="9.01" ry="4.45" transform="rotate(-51.75 82.197 101.75)"/>
        <path fill="#314448" fill-rule="nonzero" d="M98.69 135.56s-35.3 21.52-35.54 22.22c-.7.29-1 0-1 0l-5-13.63L52.22 131 32.33 77.15c-2-5.06-.26-7.77 2.65-8.7L65.84 57.6a5.85 5.85 0 0 1 7.29 3.28l25.56 74.68z"/>
        <path fill="#526A73" fill-rule="nonzero" d="M96.4 141.38l-7.07 3.49-4.4 2.13-7.91 3.9-10.58 5.22-3.28 1.62-1.73-5-8.88-26-6-17.59-5.59-16.36L34.85 75c-.93-2.69-.95-5.1 3.18-6.56l28.78-10a5.3 5.3 0 0 1 6.75 3.28L99 135.12a5.11 5.11 0 0 1-2.6 6.26z"/>
        <path fill="#FFF" fill-rule="nonzero" d="M58.75 67.14l-6.89 2.39a.48.48 0 1 1-.31-.91l6.89-2.39a.48.48 0 1 1 .31.91zM38.35 79.44l35.19-12.16 22.04 63.74-33.61 15.56z"/>
        <path fill="#00A756" fill-rule="nonzero" d="M51.94 105.22l27.19-10.71 2.75 7.71-26.96 11.45z"/>
        <path fill="#314448" fill-rule="nonzero" d="M66.74 104.63l-6.31 37.59-.12-.36-.75 5.53-1 .8-7-18.95 1.41-1.11 1.36-3.25.12.32 7.76-21.64z" opacity=".2"/>
        <path fill="#00B8F3" fill-rule="nonzero" d="M48.63 157.16a24.77 24.77 0 0 1-9.87-7.72l.53-2.67a36 36 0 0 0 9.34 10.39z"/>
        <path fill="#314448" fill-rule="nonzero" d="M88.52 145.27L77 150.94v-21a.73.73 0 0 0 .18.34 91.08 91.08 0 0 1 11.34 14.99z" opacity=".2"/>
        <path fill="#00B8F3" fill-rule="nonzero" d="M82.84 181.85s-8.85 2.87-28.71 4.48C45.87 187 24 183.75 24 183.75l9-22s.57-.06 1.55-.1c3.1-.15 10.24-.19 15.91 2 8.11 3.14 18.37 9.21 25.16 13.48 1.65 1 3.1 2 4.26 2.72l2.96 2z"/>
        <path fill="#0078C5" fill-rule="nonzero" d="M80 185.55s-8.85 2.87-28.71 4.48c-8.27.67-30.17-2.58-30.17-2.58l9-22s.57-.06 1.55-.1c3.1-.15 10.24-.19 15.91 2 8.11 3.14 18.37 9.21 25.16 13.48 1.65 1 3.1 2 4.26 2.72 1.84 1.22 3 2 3 2z"/>
        <path fill="#60D5F2" fill-rule="nonzero" d="M66.43 156.16a7.42 7.42 0 0 1-1 2.25c-2.84 4.42-10 3.78-16.85-1.25a36 36 0 0 1-9.34-10.38 46.91 46.91 0 0 1-6.53-24.6v-.55c.07-2.95.59-9.59 1.14-15.86.46-5.35.94-10.42 1.16-12.72.07-.77 2.85-3.42 5.88-.21.18.19.37.41.55.65 3.5 4.53 5 12.08 5 15.22v.5c-.1 1.607.008 3.22.32 4.8 0 0 .71 6 2.91 9.74a15.07 15.07 0 0 0 2.78 3c2.53 2.31 6 5.24 8.43 9.55 3.22 5.73 4.95 10.43 5.54 14.14a14 14 0 0 1 .01 5.72z" opacity=".9"/>
        <path fill="#89E7F5" fill-rule="nonzero" d="M38.1 98a5.49 5.49 0 0 1-4 5.28c.37-4.28.75-8.34.93-10.19A5.48 5.48 0 0 1 38.1 98z"/>
        <path fill="#89E7F5" fill-rule="nonzero" d="M115.75 109.29c-8.23 1.72-16.66 3.49-18.19 2.92-1.13-.42-2.37-.9-3.7-1.42a7 7 0 0 1 1.32-3.57c2.77-3.75 14.39-.22 20.57 2.07z" opacity=".8"/>
        <path fill="#60D5F2" fill-rule="nonzero" d="M183.69 147l-.07.08-14.13 16.75-5.33 6.31-2.16 2.59-14.7-5.17-5.1-1.79-5.77-2-46.68-16.4c-.14-.24-5.83-10.25-12.52-17.09-.5-.51-.19-2 1-3.22l.17-.15a4.85 4.85 0 0 1 1-.68l.47-.21c2.17-.88 5.61-.62 10.48 2.91 7.31 5.3 12.17 7.09 16.74 7.82 0-1.89-.18-3.56-6.84-8.08-.39-.27-1.32-.82-2.61-1.59-7.61-4.46-28-15.89-29.8-17-6.17-3.58-6.28-6.57-5-8.14a1.75 1.75 0 0 1 1.14-.52c1.37-.21 3.7.2 6.56 1 6.56 1.78 15.93 5.52 23.06 8.29l.25.09c1.33.52 2.57 1 3.7 1.42a10.45 10.45 0 0 0 3.63-.13c3.56-.49 9.11-1.65 14.56-2.79 4.37-.91 8.69-1.8 11.89-2.32a25.91 25.91 0 0 1 4.29-.44c6.22.25 32.75 22.75 42.34 31.7l2 1.86 1.14 1.07 6.25 5.84.04-.01z" opacity=".8"/>
        <path fill="#00B8F3" fill-rule="nonzero" d="M107.13 136.73c0-1.89-2.81-5.16-9.47-9.67 0 0 7 2.73 10.61 5.31 3.61 2.58 4.25 5.22 4.25 5.22l-5.39-.86zM137.1 170.69s1.45-9 6.34-15.62c13.11-17.85 39-19.69 39-19.69s.81 21.32-5.85 28.58c-2.46 2.68-10.45 13.86-10.45 13.86l-29.04-7.13z"/>
        <path fill="#0078C5" fill-rule="nonzero" d="M141.55 174.54s1.54-9.48 6.7-16.52c13.86-18.87 38.57-18.38 38.57-18.38s.29 12.71-10.7 29c-3.94 5.82-8.81 12.26-8.81 12.26l-25.76-6.36z"/>
        <path fill="#89E7F5" fill-rule="nonzero" d="M70.55 102.41a3.32 3.32 0 0 1-6.57-.66 2.86 2.86 0 0 1 0-.32c1.39-.2 3.71.2 6.57.98z"/>
        <path fill="#FFCF32" fill-rule="nonzero" d="M184.26 98.88c-1.86 3-5 7.14-5.88 12.55a9.22 9.22 0 0 1 2-.33v.26s-.92.36-2 .7a13.14 13.14 0 0 1-2.38.55 6 6 0 0 1-3.53-.46v-.14c.41-5.91-3-9.6-4.85-12.34-7-10.42-.3-22.88 11.7-24.07l.89-.07c8.21 1.36 10.97 12.11 4.05 23.35z"/>
        <path fill="#FFBA00" fill-rule="nonzero" d="M187.25 97.68c-2.25 3.2-6.33 7.55-6.91 13.41a9.22 9.22 0 0 0-2 .33c0-5.2 3.54-9.31 5-12.53 5-10.63 2.69-19.57-3.32-23.36 9.6-.53 14.79 11.38 7.23 22.15z"/>
        <path fill="#7A8D92" fill-rule="nonzero" d="M178.69 116.89c-.72.88-4.27 1.4-5.19.52a6.47 6.47 0 0 1-1.2-2.94 6.73 6.73 0 0 1-.19-2.51l.28.05a15.74 15.74 0 0 0 6-.59 9.22 9.22 0 0 1 2-.33c.24 0 .39.08.45.22.33.94-1.42 4.69-2.15 5.58z"/>
        <path stroke="#FFCF32" stroke-linecap="round" stroke-linejoin="round" stroke-width="2.29" d="M187.23 67.63l1.91-4.65M197.31 73.1l3.88-3.49M202.31 83.4l5.26-1.39M199.96 95.86l5.35 1.53M155.28 98.74l-3.42 1.39M155.78 86.47l-3.52-1.08M163.25 75.35l-2.89-2.8M174.76 68.45l-.56-4.1"/>
        <path fill="#89E7F5" fill-rule="nonzero" d="M91.14 34.2l2.49 8.8a5.49 5.49 0 0 1-1.38 5.45L81 59.92a7.79 7.79 0 0 1-6 2.1l-10.5-.59c-3.76-.21-7.1-2.62-8-5.76L54 46.91a5.49 5.49 0 0 1 1.38-5.45L66.63 30a7.79 7.79 0 0 1 6-2.1l10.5.59c3.78.16 7.12 2.57 8.01 5.71zM124.72 24.53l1.62 5.7a3.57 3.57 0 0 1-.9 3.55l-7.34 7.49a5.07 5.07 0 0 1-3.92 1.37l-6.83-.38a5.67 5.67 0 0 1-5.2-3.75l-1.62-5.7a3.57 3.57 0 0 1 .9-3.55l7.34-7.49a5.07 5.07 0 0 1 3.92-1.37l6.83.38a5.67 5.67 0 0 1 5.2 3.75zM146.63 36.08l1.14 4a2.53 2.53 0 0 1-.63 2.51l-5.2 5.3a3.59 3.59 0 0 1-2.77 1l-4.84-.27a4 4 0 0 1-3.68-2.62l-1.14-4a2.53 2.53 0 0 1 .63-2.51l5.2-5.3a3.59 3.59 0 0 1 2.77-1l4.84.27a4 4 0 0 1 3.68 2.62zM158.49 52.18l.87 3.07a1.92 1.92 0 0 1-.48 1.91l-4 4a2.73 2.73 0 0 1-2.11.74l-3.68-.21a3.06 3.06 0 0 1-2.8-2l-.87-3.07a1.92 1.92 0 0 1 .48-1.91l4-4A2.73 2.73 0 0 1 152 50l3.68.21a3.06 3.06 0 0 1 2.81 1.97z" opacity=".8"/>
    </g>
</svg>
