<svg xmlns="http://www.w3.org/2000/svg" width="400" height="275" viewBox="0 0 400 275">
    <g fill="none" fill-rule="evenodd">
        <circle cx="36.97" cy="204.71" r="2" fill="#60D5F2" fill-rule="nonzero"/>
        <circle cx="36.5" cy="214.71" r="1.94" fill="#60D5F2" fill-rule="nonzero"/>
        <circle cx="37.85" cy="224.62" r="1.87" fill="#60D5F2" fill-rule="nonzero"/>
        <circle cx="40.98" cy="234.12" r="1.81" fill="#60D5F2" fill-rule="nonzero"/>
        <circle cx="45.72" cy="242.93" r="1.74" fill="#60D5F2" fill-rule="nonzero"/>
        <circle cx="51.87" cy="250.82" r="1.68" fill="#60D5F2" fill-rule="nonzero"/>
        <circle cx="59.19" cy="257.65" r="1.62" fill="#60D5F2" fill-rule="nonzero"/>
        <circle cx="67.44" cy="263.31" r="1.55" fill="#60D5F2" fill-rule="nonzero"/>
        <circle cx="76.41" cy="267.75" r="1.49" fill="#60D5F2" fill-rule="nonzero"/>
        <circle cx="85.9" cy="270.94" r="1.43" fill="#60D5F2" fill-rule="nonzero"/>
        <circle cx="95.72" cy="272.88" r="1.36" fill="#60D5F2" fill-rule="nonzero"/>
        <circle cx="105.7" cy="273.61" r="1.31" fill="#60D5F2" fill-rule="nonzero"/>
        <circle cx="115.71" cy="273.21" r="1.27" fill="#60D5F2" fill-rule="nonzero"/>
        <circle cx="125.61" cy="271.72" r="1.23" fill="#60D5F2" fill-rule="nonzero"/>
        <circle cx="135.31" cy="269.23" r="1.18" fill="#60D5F2" fill-rule="nonzero"/>
        <circle cx="144.73" cy="265.84" r="1.14" fill="#60D5F2" fill-rule="nonzero"/>
        <circle cx="153.82" cy="261.64" r="1.1" fill="#60D5F2" fill-rule="nonzero"/>
        <circle cx="162.55" cy="256.73" r="1.05" fill="#60D5F2" fill-rule="nonzero"/>
        <circle cx="170.9" cy="251.21" r="1.01" fill="#60D5F2" fill-rule="nonzero"/>
        <circle cx="178.87" cy="245.14" r="1" fill="#60D5F2" fill-rule="nonzero"/>
        <path fill="#00D182" fill-rule="nonzero" d="M236.82 253.11h-2.26c-42.908.004-81.772-25.325-99.093-64.581-17.322-39.256-9.833-85.037 19.093-116.729a25.9 25.9 0 0 1-.25 16.2c-1.8 4.49.85 10.71 3.26 14.5 6.22 9.8 19.59 12.46 29.73 16.53a21.19 21.19 0 0 1 7 4c1.5 1.45 1.91 3.5 3.41 4.86 2.27 2 5.44 3.51 8 5.21 2.56 1.7 5.34 3.63 7.95 5.55 3.35 2.46 6.66 5.07 9.09 8.45 2.43 3.38 3.92 7.6 3.21 11.69-.6 3.4-2.65 6.53-2.56 10 .09 3.68 2.61 6.87 3.26 10.5 1.05 5.91-3 11.47-7.22 15.75-4.22 4.28-9.11 8.51-10.46 14.37-3.1 13.29 11.12 35.04 27.84 43.7z"/>
        <path fill="#60D5F2" fill-rule="nonzero" d="M342.86 144.83c-.008 58.912-47.102 107.014-106 108.27-16.72-8.66-30.94-30.41-27.9-43.64 1.34-5.86 6.24-10.1 10.45-14.37 4.21-4.27 8.26-9.83 7.21-15.74-.65-3.63-3.17-6.82-3.26-10.5-.09-3.46 2-6.58 2.57-10 .71-4.09-.77-8.33-3.2-11.69-2.43-3.36-5.74-6-9.09-8.45a194.837 194.837 0 0 0-7.94-5.55c-2.55-1.7-5.72-3.17-8-5.2-1.51-1.36-1.92-3.41-3.42-4.86a21.07 21.07 0 0 0-7-4c-10.14-4.06-23.5-6.73-29.72-16.53-2.41-3.79-5.06-10-3.26-14.5a25.87 25.87 0 0 0 .25-16.23c30.125-33.046 77.466-44.175 119.16-28.011 41.693 16.164 69.162 56.294 69.14 101.011l.01-.01z"/>
        <path fill="#00D182" fill-rule="nonzero" d="M296.47 183.2c-1.53 8-3.14 12.5-9.94 17-3.17 2.08-5.91 5.08-9 7.39a21.2 21.2 0 0 1-2.08 1.41 15.45 15.45 0 0 1-2.47 1.22h-.11a11.72 11.72 0 0 1-4.45.75c-3.64-.09-6.3-1.85-9.34-3.57-2.71-1.53-5.7-2.26-8.39-3.73-5-2.73-7.77-9.46-6.68-15 .76-3.91 3.71-7 4.55-11 .62-3-.53-7 1-9.62 3-5.28 14.82-6.05 20.09-6.68a28.37 28.37 0 0 1 10.56.33l.38.1c.812.219 1.61.486 2.39.8.62.24 1.25.52 1.89.84 1.37.66 2.81 1.46 4.39 2.41 6.68 4.02 8.66 9.71 7.21 17.35z"/>
        <path fill="#314448" fill-rule="nonzero" d="M123.17 209.58l-22.27-17.23c-1.36-1.05-3.28.85-1.91 1.91l22.27 17.23c1.36 1.05 3.28-.85 1.91-1.91zM136.3 185l-3.63-9.68c-.6-1.61-3.22-.91-2.61.72l3.63 9.68c.6 1.61 3.22.91 2.61-.72z"/>
        <path fill="#FFBA00" fill-rule="nonzero" d="M147.35 214.07l-.08.09a27.16 27.16 0 0 0-3.71-22.61c-3.3-4.93-13.43-.5-22.2 6 8.84-9 23.62-18.27 27.4-12.34 5.56 8.79 5.42 20.87-1.41 28.86z"/>
        <path fill="#FFCF32" fill-rule="nonzero" d="M147.27 214.16c-5.78 6.66-15.17 7.82-21.49 5.63-8.74-3-11.09-9.86-10.49-14.31a32.37 32.37 0 0 1 6.07-7.92c8.77-6.52 18.89-10.94 22.2-6a27.16 27.16 0 0 1 3.71 22.6z"/>
        <path fill="#F8AE2D" fill-rule="nonzero" d="M149.56 190.37a17.89 17.89 0 0 1-2.52 6.14 34.85 34.85 0 0 1-7.81 8.62c-5 4-10.9 6.8-15.81 7.08-8 .45-10.34-5.84-5.27-14.07s15.64-15.25 23.62-15.7c5.83-.32 8.66 2.94 7.79 7.93z"/>
        <path fill="#FFBA00" fill-rule="nonzero" d="M147.68 154.62c-20.7 43.47-67.55 50.91-89.46 36.46C39.5 178.74 27.7 157 35.92 123.92c9.69-38.95 52-80.85 86.7-80 26.04.56 61.59 33.97 25.06 110.7z"/>
        <path fill="#FFCF32" fill-rule="nonzero" d="M124.23 117.08c-17.57 36.09-49.86 62.54-72.89 58.72-21.21-3.52-23.63-44.95-10.52-72.55C58 67 87.87 43.07 122.62 43.87c22.04.51 30.71 13.43 1.61 73.21z"/>
        <path fill="#FFF" fill-rule="nonzero" d="M137.33 44.94a31.45 31.45 0 0 0-6 1.09 45.39 45.39 0 0 0-5.92 2.22 70.3 70.3 0 0 0-11.25 6.47 121.59 121.59 0 0 0-19.75 17.54 150.49 150.49 0 0 0-16.19 21.22 131.16 131.16 0 0 0-11.92 24 132 132 0 0 1 10.56-24.8A152.84 152.84 0 0 1 92 70.2a125.47 125.47 0 0 1 19.36-19.28A75.38 75.38 0 0 1 123 43.29a51.08 51.08 0 0 1 6.53-2.89 37.45 37.45 0 0 1 7.18-1.74l.62 6.28z" opacity=".7"/>
        <path fill="#FFF" fill-rule="nonzero" d="M51.24 186.49A58.91 58.91 0 0 0 69 187.66a65.89 65.89 0 0 0 17.72-4.09A83.93 83.93 0 0 0 103.2 175a115.17 115.17 0 0 0 14.8-11.71 116.34 116.34 0 0 1-13.47 13.54 87.31 87.31 0 0 1-16 10.85 71.54 71.54 0 0 1-18.57 6.66 66.81 66.81 0 0 1-20.11 1l1.39-8.85z" opacity=".3"/>
        <path fill="#FFBA00" fill-rule="nonzero" d="M165.4 176.3c-3.87 1.49-16 4.44-16 4.44-.88.25-1.65-1.2-.94-1.75 0 0 11.79-9.37 16-12 1.2-.74 3 .94 3.28 3.51.28 2.57-1.03 5.3-2.34 5.8z"/>
        <path fill="#89E7F5" fill-rule="nonzero" d="M147 180.95c-.82 3.63-2.38 5.85-5.57 5.85-2.55 0-4.15-2.76-3.74-6.08.41-3.32 2.91-6 5.57-6s4.49 3.06 3.74 6.23z"/>
        <path fill="#60D5F2" fill-rule="nonzero" d="M40.39 180.66c-1.2.89-2.37 1.82-3.49 2.75-13.08 10.73-22.9 9.59-30.62-.54-9-11.87-6.41-28-3.87-34C5.5 141.44 12.49 137 20 143.3c5.92 4.93 12.46 20.7 20.39 37.36z"/>
        <path fill="#00B8F3" fill-rule="nonzero" d="M91.75 199.78c-1.14 6.2-4.83 12.87-9.33 16.3-6.71 5.1-16.6 5.62-23.55-3.29-6.95-8.91-13.06-20.72-18.49-32.13 7.76-5.88 16.86-11.14 25.75-13.37 22.97-5.77 27.77 20.86 25.62 32.49z"/>
        <path fill="#314448" fill-rule="nonzero" d="M140.7 211.6l-20.36-34.32a1.35 1.35 0 0 0-2.33 1.36L138.37 213a1.35 1.35 0 0 0 2.33-1.36v-.04z"/>
        <path fill="#89E7F5" fill-rule="nonzero" d="M138.65 185.25c.76.85.93 3.82-.17 6.29-.57 1.28 9.74-2.79 7.08-3.73-1.45-.51-2.28-.8-1.84-2.75-1.44.18-6.21-1.06-5.07.19z"/>
        <path fill="#314448" fill-rule="nonzero" d="M149.37 190.13a17.89 17.89 0 0 1-2.52 6.14 34.85 34.85 0 0 1-7.81 8.62 19.58 19.58 0 0 1-1.45-10.21c.63-5.06 2.53-6 6.34-7.5 2.07-.77 4.55.56 5.44 2.95zM145.17 180.15c-2.35 4.58-2.57 4.62-6.19 5.6a.18.18 0 0 1-.19-.06 7.6 7.6 0 0 1-1.26-5.58c.43-3.13 3-5.66 5.79-5.66a4.19 4.19 0 0 1 4 3c.35.98-.65-.23-2.15 2.7z"/>
        <path fill="#526A73" fill-rule="nonzero" d="M147.8 191.23c6.34-2.84 9.91-9.26 8.13-16.11-.66-2.52-4.57-1.45-3.91 1.08 1.36 5.22-1.6 9.44-6.27 11.54-2.38 1.07-.32 4.56 2 3.5l.05-.01z"/>
        <path fill="#00B8F3" fill-rule="nonzero" d="M331 95.49c-17.093 30.025-54.487 41.73-85.649 26.81-31.162-14.919-45.491-51.388-32.821-83.53 47.748-9.855 96.207 13.346 118.47 56.72z" opacity=".2"/>
        <path fill="#89E7F5" fill-rule="nonzero" d="M336.72 62.94a62.64 62.64 0 0 1-12.75 38 62.92 62.92 0 0 1-37.79 23.73l-.41.09c-.17 0-.34.07-.51.09l-.74.14c-.74.14-1.5.24-2.25.35l-.54.08-.79.09a63 63 0 0 1-51.86-18.23 61.47 61.47 0 0 1-5.37-6.16c-16.636-21.83-17.209-51.921-1.416-74.367C238.087 4.306 266.604-5.32 292.77 2.966c26.165 8.284 43.945 32.569 43.941 60.014l.01-.04z" opacity=".6"/>
        <circle cx="208.11" cy="152.96" r="5.62" fill="#FFF" fill-rule="nonzero"/>
        <circle cx="258.76" cy="191.87" r="5.62" fill="#FFF" fill-rule="nonzero"/>
        <path stroke="#FFF" stroke-dasharray="0" stroke-linecap="round" stroke-linejoin="round" stroke-width="2.35" d="M221.48 144.49c16.81-7 45.73-8.93 48.89-36.63M270.93 196.77c11.84 6.54 12.21 17.13 29 18.45"/>
        <path fill="#FFCF32" fill-rule="nonzero" d="M314.05 92.53c-4.36-1.25-9.82 4.52-16.38 13.31a74.34 74.34 0 0 0-8.31 9.08l-.25.33c-.07.1-.14.18-.2.28a94.32 94.32 0 0 0-6.65 9.79l-.54.08-.79.09a63 63 0 0 1-51.86-18.23c8.3-20.47 9.47-20.51 33.36-25.53a55.63 55.63 0 0 1 16.74-1.25c.6 0 1.18.09 1.75.15a46.09 46.09 0 0 1 11.48 2.5c18.09 7.25 21.65 9.4 21.65 9.4z"/>
        <path fill="#00B8F3" fill-rule="nonzero" d="M250.59 51.62c0 1.86 1.19 7.84 1.19 7.84s2.12 15.29 10.64 21.43v2.79c-3.55 2.74-5.72 6.13-5.61 9.42.22 6.25 8.58 9.81 18.68 7.94s18.11-8.46 17.89-14.71a6.7 6.7 0 0 0-.93-3.21 8.61 8.61 0 0 1-5.41-8v-4.26c.39-.76.73-1.52 1-2.24.284.082.586.082.87 0 1.62-.35 4-2.36 5.31-6a9.4 9.4 0 0 0 .34-5.56c-.75-2.77-2.91-4-4.75-1.56-1.33-12.43-9.33-22-19-22a27.39 27.39 0 0 0-13.09 3c-4.34 2.99-7.29 7.77-7.13 15.12z"/>
        <path fill="#0078C5" fill-rule="nonzero" d="M270.92 83.36a11 11 0 0 0 1.12.06c6.89 0 11.77-4.37 15-9.18v-2.89a3.46 3.46 0 0 0 0-.43c-2.96 5.69-8.14 12.08-16.12 12.44z"/>
        <path fill="#314448" fill-rule="nonzero" d="M294 55.09a43.5 43.5 0 0 1-4 9l-1.92-4.46-4.66-10.85s-7.22.53-16.92.69c-9.7.16-12.73-2.32-12.73-2.32a4.62 4.62 0 0 0-1.86 3c-.82 3.43-.12 9.32-.12 9.32s-6.24-14.22 2.28-25.85c10.14-13.82 31.93-15.34 39.76 2 2.7 5.96 1.82 14.11.17 19.47z"/>
        <path fill="#F8AE2D" fill-rule="nonzero" d="M297.67 105.84c-1.74 2.34-3.55 4.87-5.44 7.56l-.26.39a88.25 88.25 0 0 0-5.8 10.87l-.41.09c-.17 0-.34.07-.51.09l-.74.14c-.74.14-1.5.24-2.25.35a94.32 94.32 0 0 1 6.65-9.79c.06-.1.14-.18.2-.28l.25-.33a74.34 74.34 0 0 1 8.31-9.09z"/>
        <path fill="#FFBA00" fill-rule="nonzero" d="M318.62 107.1a62.65 62.65 0 0 1-32.45 17.55l-.41.09c-.17 0-.34.07-.51.09a118.16 118.16 0 0 1 6.75-11.05l.26-.39c1.89-2.68 3.71-5.22 5.44-7.56 6.56-8.79 12-14.56 16.38-13.31 2.69.78 5.55 5.76 4.54 14.58z"/>
        <path fill="#00C474" fill-rule="nonzero" d="M296.47 183.2c-1.53 8-3.14 12.5-9.94 17-3.17 2.08-5.91 5.08-9 7.39a21.2 21.2 0 0 1-2.08 1.41 15.45 15.45 0 0 1-2.47 1.22 66.28 66.28 0 0 1-1.8-15.38 65.46 65.46 0 0 1 9-33.16l.38.1c.812.219 1.61.486 2.39.8.62.24 1.25.52 1.89.84 1.37.66 2.81 1.46 4.39 2.41 6.71 4.04 8.69 9.73 7.24 17.37z" opacity=".6"/>
        <path fill="#89E7F5" fill-rule="nonzero" d="M399.97 194.982a62.887 62.887 0 0 1-18.257 44.358 63.047 63.047 0 0 1-51.91 18.254l-.79-.09-.641-.09c-.72-.11-1.442-.21-2.152-.34l-.831-.14-.42-.08-.48-.1a62.723 62.723 0 0 1-32.392-17.524 62.556 62.556 0 0 1-5.345-6.188c-16.55-21.891-17.034-51.981-1.196-74.394 15.838-22.413 44.355-31.994 70.507-23.69 26.151 8.306 43.922 32.587 43.937 60.035l-.03-.01z" opacity=".6"/>
        <path fill="#FF7F7F" fill-rule="nonzero" d="M381.77 239.1a63 63 0 0 1-51.86 18.23l-.79-.09-.64-.09a96.66 96.66 0 0 0-6.54-9.71c-.07-.1-.14-.18-.21-.27l-.25-.34a74.64 74.64 0 0 0-8.31-9.16c-6.56-8.87-12-14.68-16.38-13.43 0 0 3.56-2.17 21.6-9.49a45.42 45.42 0 0 1 11.48-2.52c.57-.07 1.14-.12 1.74-.15a55 55 0 0 1 16.74 1.26c23.96 5.07 25.12 5.12 33.42 25.76z"/>
        <path fill="#00B8F3" fill-rule="nonzero" d="M360.25 183c0 1.87-1.19 7.91-1.19 7.91s-2.12 15.43-10.64 21.61v2.81c3.55 2.76 5.72 6.18 5.61 9.51-.22 6.31-8.58 9.9-18.68 8-10.1-1.9-18.11-8.53-17.89-14.84a6.8 6.8 0 0 1 .93-3.23 8.69 8.69 0 0 0 5.41-8.07v-4.28c-.39-.77-.73-1.53-1-2.26a1.56 1.56 0 0 1-.87 0c-1.62-.35-4-2.38-5.31-6a9.56 9.56 0 0 1-.34-5.61c.75-2.79 2.91-4.09 4.75-1.57 1.33-12.53 9.33-22.16 19-22.16a27.19 27.19 0 0 1 13.09 3c4.33 2.94 7.28 7.77 7.13 15.18z"/>
        <path fill="#0078C5" fill-rule="nonzero" d="M339.91 215c-.372.04-.746.06-1.12.06-6.89 0-11.77-4.41-15-9.26v-2.9a3.52 3.52 0 0 1 0-.43c2.96 5.74 8.15 12.14 16.12 12.53z"/>
        <path fill="#314448" fill-rule="nonzero" d="M316.85 186.5a44.06 44.06 0 0 0 4 9.11l1.92-4.5 4.66-10.94s7.22.54 16.92.69c9.7.15 12.73-2.34 12.73-2.34a4.66 4.66 0 0 1 1.86 3c.82 3.46.12 9.4.12 9.4s6.24-14.34-2.28-26.08c-10.14-13.95-31.93-15.47-39.76 2-2.72 6.03-1.84 14.25-.17 19.66z"/>
        <path fill="#FF4646" fill-rule="nonzero" d="M328.47 257.17c-.72-.11-1.44-.21-2.15-.34l-.83-.14-.42-.08-.48-.1a89.36 89.36 0 0 0-5.72-10.8c-.08-.14-.17-.26-.26-.4-1.89-2.7-3.71-5.26-5.44-7.62a74.64 74.64 0 0 1 8.31 9.16l.25.34c.07.09.14.17.21.27a96.66 96.66 0 0 1 6.53 9.71z"/>
        <path fill="#FF6161" fill-rule="nonzero" d="M325.07 256.61l-.48-.1A62.67 62.67 0 0 1 292.23 239c-1-8.9 1.86-13.92 4.57-14.7 4.36-1.25 9.82 4.56 16.38 13.43 1.74 2.36 3.55 4.91 5.44 7.62.09.14.18.26.26.4a117 117 0 0 1 6.63 11l-.44-.14z"/>
    </g>
</svg>
