<svg xmlns="http://www.w3.org/2000/svg" width="400" height="280" viewBox="0 0 400 280">
    <g fill="none" fill-rule="evenodd">
        <path fill="#FFF" fill-rule="nonzero" d="M0 0h399.002v280H0z"/>
        <g>
            <path fill="#00D182" fill-rule="nonzero" d="M236.23 253.11h-2.255c-42.8.004-81.568-25.325-98.846-64.581-17.278-39.256-9.809-85.037 19.046-116.729a25.961 25.961 0 0 1-.25 16.2c-1.795 4.49.848 10.71 3.252 14.5 6.205 9.8 19.541 12.46 29.656 16.53a21.124 21.124 0 0 1 6.982 4c1.497 1.45 1.906 3.5 3.402 4.86 2.264 2 5.426 3.51 7.98 5.21 2.554 1.7 5.327 3.63 7.93 5.55 3.342 2.46 6.644 5.07 9.068 8.45 2.423 3.38 3.91 7.6 3.202 11.69-.599 3.4-2.644 6.53-2.554 10 .09 3.68 2.603 6.87 3.252 10.5 1.047 5.91-2.993 11.47-7.202 15.75-4.21 4.28-9.088 8.51-10.434 14.37-3.092 13.29 11.092 35.04 27.77 43.7z"/>
            <path fill="#60D5F2" fill-rule="nonzero" d="M342.005 144.83c-.008 58.912-46.984 107.014-105.736 108.27-16.678-8.66-30.863-30.41-27.83-43.64 1.337-5.86 6.224-10.1 10.424-14.37 4.2-4.27 8.24-9.83 7.192-15.74-.649-3.63-3.162-6.82-3.252-10.5-.09-3.46 1.995-6.58 2.564-10 .708-4.09-.768-8.33-3.192-11.69-2.424-3.36-5.726-6-9.068-8.45-2.6-1.92-5.24-3.77-7.92-5.55-2.544-1.7-5.706-3.17-7.98-5.2-1.506-1.36-1.915-3.41-3.411-4.86a21.004 21.004 0 0 0-6.983-4c-10.115-4.06-23.441-6.73-29.646-16.53-2.404-3.79-5.047-10-3.252-14.5a25.931 25.931 0 0 0 .25-16.23c30.05-33.046 77.273-44.175 118.862-28.011 41.59 16.164 68.99 56.294 68.968 101.011l.01-.01z"/>
            <path fill="#00D182" fill-rule="nonzero" d="M295.73 183.2c-1.526 8-3.131 12.5-9.915 17-3.162 2.08-5.895 5.08-8.977 7.39-.663.51-1.356.982-2.075 1.41-.783.48-1.608.888-2.464 1.22h-.11c-1.417.536-2.924.79-4.438.75-3.631-.09-6.285-1.85-9.317-3.57-2.703-1.53-5.686-2.26-8.37-3.73-4.987-2.73-7.75-9.46-6.663-15 .759-3.91 3.701-7 4.54-11 .618-3-.53-7 .997-9.62 2.992-5.28 14.783-6.05 20.04-6.68a28.23 28.23 0 0 1 10.533.33l.38.1c.81.219 1.605.486 2.383.8.619.24 1.247.52 1.886.84 1.366.66 2.803 1.46 4.379 2.41 6.663 4.02 8.638 9.71 7.192 17.35z"/>
            <path fill="#314448" fill-rule="nonzero" d="M122.863 209.58l-22.215-17.23c-1.356-1.05-3.271.85-1.905 1.91l22.215 17.23c1.356 1.05 3.271-.85 1.905-1.91zM135.96 185l-3.62-9.68c-.6-1.61-3.213-.91-2.604.72l3.62 9.68c.6 1.61 3.213.91 2.604-.72z"/>
            <path fill="#FFBA00" fill-rule="nonzero" d="M146.983 214.07l-.08.09a27.217 27.217 0 0 0-3.701-22.61c-3.292-4.93-13.397-.5-22.145 6 8.818-9 23.561-18.27 27.332-12.34 5.546 8.79 5.407 20.87-1.406 28.86z"/>
            <path fill="#FFCF32" fill-rule="nonzero" d="M146.903 214.16c-5.766 6.66-15.132 7.82-21.437 5.63-8.718-3-11.062-9.86-10.464-14.31a32.361 32.361 0 0 1 6.055-7.92c8.748-6.52 18.843-10.94 22.145-6a27.217 27.217 0 0 1 3.7 22.6z"/>
            <path fill="#F8AE2D" fill-rule="nonzero" d="M149.187 190.37a17.915 17.915 0 0 1-2.514 6.14 34.82 34.82 0 0 1-7.79 8.62c-4.988 4-10.873 6.8-15.77 7.08-7.98.45-10.315-5.84-5.258-14.07 5.058-8.23 15.601-15.25 23.561-15.7 5.816-.32 8.639 2.94 7.771 7.93z"/>
            <path fill="#FFBA00" fill-rule="nonzero" d="M147.312 154.62c-20.649 43.47-67.382 50.91-89.237 36.46C39.4 178.74 27.63 157 35.83 123.92c9.666-38.95 51.87-80.85 86.484-80 25.975.56 61.437 33.97 24.998 110.7z"/>
            <path fill="#FFCF32" fill-rule="nonzero" d="M123.92 117.08c-17.526 36.09-49.735 62.54-72.708 58.72-21.157-3.52-23.571-44.95-10.494-72.55C57.855 67 87.651 43.07 122.314 43.87c21.985.51 30.634 13.43 1.606 73.21z"/>
            <path fill="#FFF" fill-rule="nonzero" d="M136.988 44.94c-2.026.168-4.03.533-5.986 1.09a45.206 45.206 0 0 0-5.905 2.22 70.08 70.08 0 0 0-11.222 6.47 121.385 121.385 0 0 0-19.7 17.54c-6 6.58-11.404 13.681-16.15 21.22a131.293 131.293 0 0 0-11.89 24 132.177 132.177 0 0 1 10.533-24.8A152.864 152.864 0 0 1 91.771 70.2a125.312 125.312 0 0 1 19.311-19.28 75.174 75.174 0 0 1 11.611-7.63 50.888 50.888 0 0 1 6.514-2.89 37.28 37.28 0 0 1 7.162-1.74l.619 6.28z" opacity=".7"/>
            <path fill="#FFF" fill-rule="nonzero" d="M51.112 186.49a58.62 58.62 0 0 0 17.716 1.17c6.052-.538 12-1.914 17.676-4.09a83.646 83.646 0 0 0 16.439-8.57 114.928 114.928 0 0 0 14.763-11.71 116.198 116.198 0 0 1-13.437 13.54 87.081 87.081 0 0 1-15.96 10.85 71.246 71.246 0 0 1-18.523 6.66 66.48 66.48 0 0 1-20.06 1l1.386-8.85z" opacity=".3"/>
            <path fill="#FFBA00" fill-rule="nonzero" d="M164.988 176.3c-3.86 1.49-15.96 4.44-15.96 4.44-.878.25-1.646-1.2-.938-1.75 0 0 11.76-9.37 15.96-12 1.197-.74 2.992.94 3.272 3.51.279 2.57-1.028 5.3-2.334 5.8z"/>
            <path fill="#89E7F5" fill-rule="nonzero" d="M146.633 180.95c-.818 3.63-2.374 5.85-5.556 5.85-2.543 0-4.14-2.76-3.73-6.08.409-3.32 2.902-6 5.556-6 2.653 0 4.479 3.06 3.73 6.23z"/>
            <path fill="#60D5F2" fill-rule="nonzero" d="M40.29 180.66a81.154 81.154 0 0 0-3.482 2.75c-13.047 10.73-22.843 9.59-30.544-.54-8.977-11.87-6.394-28-3.86-34 3.082-7.43 10.055-11.87 17.546-5.57 5.905 4.93 12.43 20.7 20.34 37.36z"/>
            <path fill="#00B8F3" fill-rule="nonzero" d="M91.521 199.78c-1.137 6.2-4.818 12.87-9.307 16.3-6.693 5.1-16.558 5.62-23.49-3.29-6.933-8.91-13.028-20.72-18.445-32.13 7.741-5.88 16.818-11.14 25.686-13.37 22.913-5.77 27.7 20.86 25.556 32.49z"/>
            <path fill="#314448" fill-rule="nonzero" d="M140.35 211.6l-20.31-34.32a1.345 1.345 0 0 0-1.814-.44 1.352 1.352 0 0 0-.51 1.8L138.025 213c.389.61 1.19.805 1.814.44.624-.366.85-1.16.51-1.8v-.04z"/>
            <path fill="#89E7F5" fill-rule="nonzero" d="M138.304 185.25c.758.85.928 3.82-.17 6.29-.568 1.28 9.716-2.79 7.063-3.73-1.446-.51-2.274-.8-1.835-2.75-1.437.18-6.195-1.06-5.058.19z"/>
            <path fill="#314448" fill-rule="nonzero" d="M148.998 190.13a17.915 17.915 0 0 1-2.514 6.14 34.82 34.82 0 0 1-7.79 8.62 19.624 19.624 0 0 1-1.447-10.21c.628-5.06 2.524-6 6.324-7.5 2.065-.77 4.539.56 5.427 2.95zM144.808 180.15c-2.344 4.58-2.564 4.62-6.175 5.6a.18.18 0 0 1-.19-.06 7.615 7.615 0 0 1-1.256-5.58c.429-3.13 2.993-5.66 5.776-5.66a4.181 4.181 0 0 1 3.99 3c.349.98-.649-.23-2.145 2.7z"/>
            <path fill="#526A73" fill-rule="nonzero" d="M147.431 191.23c6.325-2.84 9.886-9.26 8.11-16.11-.658-2.52-4.558-1.45-3.9 1.08 1.357 5.22-1.596 9.44-6.254 11.54-2.375 1.07-.32 4.56 1.995 3.5l.05-.01z"/>
            <path fill="#00B8F3" fill-rule="nonzero" d="M330.175 95.49c-17.051 30.025-54.352 41.73-85.436 26.81-31.084-14.919-45.378-51.388-32.739-83.53 47.629-9.855 95.967 13.346 118.175 56.72z" opacity=".2"/>
            <path fill="#89E7F5" fill-rule="nonzero" d="M335.88 62.94a62.743 62.743 0 0 1-12.718 38 62.744 62.744 0 0 1-37.696 23.73l-.409.09c-.17 0-.339.07-.508.09l-.739.14c-.738.14-1.496.24-2.244.35l-.539.08-.788.09a62.75 62.75 0 0 1-51.73-18.23 61.425 61.425 0 0 1-5.357-6.16c-16.594-21.83-17.166-51.921-1.412-74.367C237.493 4.306 265.939-5.32 292.039 2.966c26.1 8.284 43.836 32.569 43.831 60.014l.01-.04z" opacity=".6"/>
            <ellipse cx="207.591" cy="152.96" fill="#FFF" fill-rule="nonzero" rx="5.606" ry="5.62"/>
            <ellipse cx="258.115" cy="191.87" fill="#FFF" fill-rule="nonzero" rx="5.606" ry="5.62"/>
            <path stroke="#FFF" stroke-dasharray="0" stroke-linecap="round" stroke-linejoin="round" stroke-width="2.35" d="M220.928 144.49c16.768-7 45.616-8.93 48.768-36.63M270.254 196.77c11.81 6.54 12.18 17.13 28.928 18.45"/>
            <path fill="#FFCF32" fill-rule="nonzero" d="M313.267 92.53c-4.35-1.25-9.796 4.52-16.34 13.31a74.272 74.272 0 0 0-8.289 9.08l-.249.33c-.07.1-.14.18-.2.28a94.333 94.333 0 0 0-6.633 9.79l-.539.08-.788.09a62.75 62.75 0 0 1-51.73-18.23c8.28-20.47 9.446-20.51 33.277-25.53a55.357 55.357 0 0 1 16.698-1.25c.598 0 1.177.09 1.745.15 3.908.34 7.757 1.18 11.452 2.5 18.045 7.25 21.596 9.4 21.596 9.4z"/>
            <path fill="#00B8F3" fill-rule="nonzero" d="M249.965 51.62c0 1.86 1.187 7.84 1.187 7.84s2.115 15.29 10.614 21.43v2.79c-3.542 2.74-5.706 6.13-5.596 9.42.219 6.25 8.558 9.81 18.633 7.94s18.065-8.46 17.845-14.71a6.712 6.712 0 0 0-.927-3.21 8.61 8.61 0 0 1-5.397-8v-4.26c.39-.76.728-1.52.998-2.24.283.082.584.082.868 0 1.615-.35 3.99-2.36 5.296-6a9.422 9.422 0 0 0 .34-5.56c-.749-2.77-2.903-4-4.739-1.56-1.326-12.43-9.306-22-18.952-22-4.534-.102-9.021.93-13.058 3-4.329 2.99-7.272 7.77-7.112 15.12z"/>
            <path fill="#0078C5" fill-rule="nonzero" d="M270.244 83.36c.372.039.744.06 1.118.06 6.872 0 11.74-4.37 14.962-9.18v-2.89a3.469 3.469 0 0 0 0-.43c-2.952 5.69-8.12 12.08-16.08 12.44z"/>
            <path fill="#314448" fill-rule="nonzero" d="M293.267 55.09a43.555 43.555 0 0 1-3.99 9l-1.915-4.46-4.649-10.85s-7.202.53-16.878.69c-9.675.16-12.698-2.32-12.698-2.32a4.622 4.622 0 0 0-1.855 3c-.818 3.43-.12 9.32-.12 9.32s-6.224-14.22 2.274-25.85c10.115-13.82 31.85-15.34 39.661 2 2.694 5.96 1.816 14.11.17 19.47z"/>
            <path fill="#F8AE2D" fill-rule="nonzero" d="M296.928 105.84a349.444 349.444 0 0 0-5.427 7.56l-.26.39a88.324 88.324 0 0 0-5.785 10.87l-.409.09c-.17 0-.339.07-.508.09l-.739.14c-.738.14-1.496.24-2.244.35 2.005-3.4 4.22-6.67 6.634-9.79.06-.1.14-.18.199-.28l.25-.33a74.272 74.272 0 0 1 8.289-9.09z"/>
            <path fill="#FFBA00" fill-rule="nonzero" d="M317.825 107.1a62.448 62.448 0 0 1-32.369 17.55l-.409.09c-.17 0-.339.07-.508.09a118.215 118.215 0 0 1 6.733-11.05l.26-.39c1.884-2.68 3.7-5.22 5.426-7.56 6.543-8.79 11.97-14.56 16.339-13.31 2.683.78 5.536 5.76 4.528 14.58z"/>
            <path fill="#00C474" fill-rule="nonzero" d="M295.73 183.2c-1.526 8-3.131 12.5-9.915 17-3.162 2.08-5.895 5.08-8.977 7.39-.663.51-1.356.982-2.075 1.41-.783.48-1.608.888-2.464 1.22a66.438 66.438 0 0 1-1.795-15.38 65.585 65.585 0 0 1 8.977-33.16l.38.1c.81.219 1.605.486 2.383.8.619.24 1.247.52 1.886.84 1.366.66 2.803 1.46 4.379 2.41 6.693 4.04 8.668 9.73 7.222 17.37z" opacity=".6"/>
            <path fill="#89E7F5" fill-rule="nonzero" d="M399.002 194.81a62.892 62.892 0 0 1-12.837 38.14 61.415 61.415 0 0 1-5.357 6.16 62.75 62.75 0 0 1-51.73 18.23l-.789-.09-.638-.09c-.718-.11-1.437-.21-2.145-.34l-.828-.14-.419-.08-.478-.1A62.468 62.468 0 0 1 291.5 239a62.436 62.436 0 0 1-5.326-6.18c-16.494-21.863-16.976-51.913-1.193-74.297 15.784-22.384 44.203-31.953 70.264-23.658 26.062 8.294 43.772 32.543 43.786 59.955l-.03-.01z" opacity=".6"/>
            <path fill="#FF7F7F" fill-rule="nonzero" d="M380.818 239.1a62.75 62.75 0 0 1-51.73 18.23l-.789-.09-.638-.09a96.676 96.676 0 0 0-6.524-9.71c-.07-.1-.14-.18-.21-.27l-.249-.34a74.574 74.574 0 0 0-8.289-9.16c-6.544-8.87-11.97-14.68-16.34-13.43 0 0 3.552-2.17 21.547-9.49a45.21 45.21 0 0 1 11.451-2.52 23.85 23.85 0 0 1 1.736-.15 54.73 54.73 0 0 1 16.698 1.26c23.9 5.07 25.058 5.12 33.337 25.76z"/>
            <path fill="#00B8F3" fill-rule="nonzero" d="M359.352 183c0 1.87-1.187 7.91-1.187 7.91s-2.115 15.43-10.614 21.61v2.81c3.541 2.76 5.706 6.18 5.596 9.51-.22 6.31-8.558 9.9-18.633 8-10.075-1.9-18.065-8.53-17.846-14.84a6.813 6.813 0 0 1 .928-3.23 8.69 8.69 0 0 0 5.397-8.07v-4.28c-.39-.77-.729-1.53-.998-2.26a1.552 1.552 0 0 1-.868 0c-1.616-.35-3.99-2.38-5.297-6a9.583 9.583 0 0 1-.339-5.61c.748-2.79 2.903-4.09 4.738-1.57 1.327-12.53 9.307-22.16 18.953-22.16 4.534-.11 9.024.921 13.057 3 4.32 2.94 7.262 7.77 7.113 15.18z"/>
            <path fill="#0078C5" fill-rule="nonzero" d="M339.062 215c-.37.04-.744.06-1.117.06-6.873 0-11.74-4.41-14.962-9.26v-2.9a3.529 3.529 0 0 1 0-.43c2.952 5.74 8.13 12.14 16.08 12.53z"/>
            <path fill="#314448" fill-rule="nonzero" d="M316.06 186.5a44.116 44.116 0 0 0 3.99 9.11l1.915-4.5 4.648-10.94s7.202.54 16.878.69c9.676.15 12.699-2.34 12.699-2.34a4.662 4.662 0 0 1 1.855 3c.818 3.46.12 9.4.12 9.4s6.224-14.34-2.275-26.08c-10.114-13.95-31.85-15.47-39.66 2-2.714 6.03-1.836 14.25-.17 19.66z"/>
            <path fill="#FF4646" fill-rule="nonzero" d="M327.65 257.17c-.717-.11-1.436-.21-2.144-.34l-.828-.14-.419-.08-.478-.1a89.437 89.437 0 0 0-5.706-10.8c-.08-.14-.17-.26-.26-.4-1.885-2.7-3.7-5.26-5.426-7.62a74.574 74.574 0 0 1 8.29 9.16l.249.34c.07.09.14.17.21.27a96.676 96.676 0 0 1 6.513 9.71z"/>
            <path fill="#FF6161" fill-rule="nonzero" d="M324.26 256.61l-.48-.1A62.468 62.468 0 0 1 291.502 239c-.997-8.9 1.856-13.92 4.559-14.7 4.349-1.25 9.795 4.56 16.339 13.43 1.736 2.36 3.541 4.91 5.426 7.62.09.14.18.26.26.4a117.059 117.059 0 0 1 6.613 11l-.439-.14z"/>
        </g>
    </g>
</svg>
