<?xml version="1.0" encoding="utf-8"?>
<!-- Generator: Adobe Illustrator 21.1.0, SVG Export Plug-In . SVG Version: 6.00 Build 0)  -->
<svg version="1.1" id="Layer_1" xmlns="http://www.w3.org/2000/svg" xmlns:xlink="http://www.w3.org/1999/xlink" x="0px" y="0px"
	 viewBox="0 0 400 280" style="enable-background:new 0 0 400 280;" xml:space="preserve">
<style type="text/css">
	.st0{fill:#67BCEF;}
	.st1{fill:#60D5F2;}
	.st2{fill:#3AA3E3;}
	.st3{fill:#90D8F0;}
	.st4{fill:#143D8A;}
	.st5{fill:#2978BE;}
	.st6{fill:#308DD1;}
	.st7{opacity:0.5;}
	.st8{fill:#FFFFFF;}
	.st9{opacity:0.3;}
	.st10{fill:none;stroke:#FFFFFF;stroke-width:0.75;stroke-linecap:round;stroke-linejoin:round;}
	.st11{opacity:0.6;fill:#308DD1;}
	.st12{fill:none;stroke:#FFFFFF;stroke-width:2.35;stroke-linecap:round;stroke-linejoin:round;}
	.st13{fill:#1E54A0;}
	.st14{fill:#2266AF;}
	.st15{fill:#314448;}
	.st16{fill:none;stroke:#B17957;stroke-width:1.18;stroke-miterlimit:10;}
	.st17{opacity:0.6;fill:#3AA3E3;}
	.st18{fill:none;stroke:#B17957;stroke-width:1.19;stroke-miterlimit:10;}
</style>
<g>
	<circle class="st0" cx="37" cy="204.7" r="2"/>
	<circle class="st0" cx="36.5" cy="214.7" r="1.9"/>
	<circle class="st0" cx="37.9" cy="224.6" r="1.9"/>
	<circle class="st0" cx="41" cy="234.1" r="1.8"/>
	<circle class="st0" cx="45.7" cy="242.9" r="1.7"/>
	<circle class="st0" cx="51.9" cy="250.8" r="1.7"/>
	<circle class="st0" cx="59.2" cy="257.6" r="1.6"/>
	<circle class="st0" cx="67.4" cy="263.3" r="1.5"/>
	<circle class="st0" cx="76.4" cy="267.7" r="1.5"/>
	<circle class="st0" cx="85.9" cy="270.9" r="1.4"/>
	<circle class="st0" cx="95.7" cy="272.9" r="1.4"/>
	<circle class="st0" cx="105.7" cy="273.6" r="1.3"/>
	<circle class="st0" cx="115.7" cy="273.2" r="1.3"/>
	<circle class="st0" cx="125.6" cy="271.7" r="1.2"/>
	<circle class="st0" cx="135.3" cy="269.2" r="1.2"/>
	<circle class="st0" cx="144.7" cy="265.8" r="1.1"/>
	<circle class="st0" cx="153.8" cy="261.6" r="1.1"/>
	<circle class="st0" cx="162.6" cy="256.7" r="1"/>
	<circle class="st0" cx="170.9" cy="251.2" r="1"/>
	<circle class="st0" cx="178.9" cy="245.1" r="1"/>
	<circle class="st1" cx="186.5" cy="238.6" r="0.9"/>
	<circle class="st1" cx="193.7" cy="231.6" r="0.9"/>
	<circle class="st1" cx="200.5" cy="224.3" r="0.8"/>
	<circle class="st1" cx="206.9" cy="216.6" r="0.8"/>
	<circle class="st1" cx="213" cy="208.7" r="0.7"/>
	<circle class="st1" cx="218.7" cy="200.4" r="0.7"/>
	<circle class="st1" cx="224.1" cy="192" r="0.7"/>
	<circle class="st1" cx="229" cy="183.3" r="0.6"/>
	<circle class="st1" cx="233.7" cy="174.4" r="0.6"/>
	<circle class="st1" cx="237.9" cy="165.3" r="0.5"/>
	<circle class="st1" cx="241.8" cy="156.1" r="0.5"/>
	<circle class="st1" cx="245.3" cy="146.7" r="0.4"/>
	<circle class="st1" cx="248.5" cy="137.2" r="0.4"/>
	<circle class="st1" cx="251.2" cy="127.6" r="0.4"/>
	<circle class="st1" cx="253.6" cy="117.9" r="0.3"/>
	<circle class="st1" cx="255.5" cy="108" r="0.3"/>
	<circle class="st1" cx="257" cy="98.1" r="0.2"/>
	<circle class="st1" cx="258.1" cy="88.2" r="0.2"/>
	<circle class="st1" cx="258.8" cy="78.2" r="0.1"/>
	<circle class="st1" cx="259" cy="68.2" r="0.1"/>
	<circle class="st1" cx="258.7" cy="58.2" r="0"/>
	<path class="st1" d="M257.9,48.2"/>
	<path class="st2" d="M236.8,253.1h-2.3c-59.8,0-108.3-48.5-108.3-108.3c0-27,10.1-53.1,28.3-73c1.7,5.3,1.6,11-0.3,16.2
		c-1.8,4.5,0.9,10.7,3.3,14.5c6.2,9.8,19.6,12.5,29.7,16.5c2.6,0.9,4.9,2.2,7,4c1.5,1.4,1.9,3.5,3.4,4.9c2.3,2,5.4,3.5,8,5.2
		s5.3,3.6,7.9,5.6c3.4,2.5,6.7,5.1,9.1,8.4s3.9,7.6,3.2,11.7c-0.6,3.4-2.6,6.5-2.6,10c0.1,3.7,2.6,6.9,3.3,10.5
		c1.1,5.9-3,11.5-7.2,15.8s-9.1,8.5-10.5,14.4C205.9,222.7,220.1,244.4,236.8,253.1z"/>
	<path class="st3" d="M342.9,144.8c0,39.2-20.8,73.6-52.1,92.6c-15.8,9.6-34.1,15.3-53.9,15.7c-16.7-8.7-30.9-30.4-27.9-43.6
		c1.3-5.9,6.2-10.1,10.4-14.4c4.2-4.3,8.3-9.8,7.2-15.7c-0.7-3.6-3.2-6.8-3.3-10.5c-0.1-3.5,2-6.6,2.6-10c0.7-4.1-0.8-8.3-3.2-11.7
		s-5.7-6-9.1-8.5c-2.6-1.9-5.2-3.8-7.9-5.5c-2.5-1.7-5.7-3.2-8-5.2c-1.5-1.4-1.9-3.4-3.4-4.9c-2.1-1.8-4.4-3.1-7-4
		c-10.1-4.1-23.5-6.7-29.7-16.5c-2.4-3.8-5.1-10-3.3-14.5c1.8-5.2,1.9-10.9,0.2-16.2c16.8-18.5,38.6-29.8,61.4-33.7
		c6.2-1.1,12.4-1.6,18.7-1.6c26,0,52.2,9.3,72.9,28.3c8.8,8.1,16.2,17.4,21.9,27.7c6.7,12.2,11.1,25.6,12.7,39.6
		C342.6,136.3,342.8,140.6,342.9,144.8L342.9,144.8z"/>
	<path class="st2" d="M296.5,183.2c-1.5,8-3.1,12.5-9.9,17c-3.2,2.1-5.9,5.1-9,7.4c-0.7,0.5-1.4,1-2.1,1.4c-0.8,0.5-1.6,0.9-2.5,1.2
		l0,0h-0.1c-1.4,0.5-2.9,0.8-4.5,0.8c-3.6-0.1-6.3-1.9-9.3-3.6c-2.7-1.5-5.7-2.3-8.4-3.7c-5-2.7-7.8-9.5-6.7-15
		c0.8-3.9,3.7-7,4.6-11c0.6-3-0.5-7,1-9.6c3-5.3,14.8-6.1,20.1-6.7c3.5-0.6,7.1-0.4,10.6,0.3l0,0l0.4,0.1c0.8,0.2,1.6,0.5,2.4,0.8
		c0.6,0.2,1.2,0.5,1.9,0.8c1.4,0.7,2.8,1.5,4.4,2.4C295.9,169.9,297.9,175.6,296.5,183.2z"/>
	<path class="st4" d="M123.2,209.6l-22.3-17.2c-1.4-1.1-3.3,0.9-1.9,1.9l22.3,17.2C122.6,212.5,124.5,210.6,123.2,209.6z"/>
	<path class="st4" d="M136.3,185l-3.6-9.7c-0.6-1.6-3.2-0.9-2.6,0.7l3.6,9.7C134.3,187.3,136.9,186.6,136.3,185z"/>
	<path class="st5" d="M147.4,214.1L147.4,214.1c2.1-7.6,0.7-15.9-3.8-22.5c-3.3-4.9-13.4-0.5-22.2,6c8.8-9,23.6-18.3,27.4-12.3
		C154.3,194,154.2,206.1,147.4,214.1z"/>
	<path class="st2" d="M147.3,214.2c-5.8,6.7-15.2,7.8-21.5,5.6c-8.7-3-11.1-9.9-10.5-14.3c1.6-2.9,3.6-5.6,6.1-7.9
		c8.8-6.5,18.9-10.9,22.2-6C148.1,198.2,149.4,206.4,147.3,214.2z"/>
	<path class="st6" d="M149.6,190.4c-0.4,2.2-1.3,4.3-2.5,6.1c-2.1,3.3-4.7,6.2-7.8,8.6c-5,4-10.9,6.8-15.8,7.1
		c-8,0.4-10.3-5.8-5.3-14.1s15.6-15.2,23.6-15.7C147.6,182.1,150.4,185.4,149.6,190.4z"/>
	<path class="st6" d="M147.7,154.6C129.2,193.4,90,203.5,66.2,195c-2.9-1-5.6-2.3-8-3.9c-2-1.3-4-2.8-5.8-4.4
		c-15.2-12.8-23.8-33.3-16.5-62.8c9.7-39,52-80.8,86.7-80C148.7,44.5,184.2,77.9,147.7,154.6z"/>
	<path class="st0" d="M124.2,117.1c-17.6,36.1-49.9,62.5-72.9,58.7c-21.2-3.5-23.6-45-10.5-72.5c17.1-36,46.7-59.9,81.1-59.4
		c0.2,0,0.5,0,0.7,0c4,0.1,7.5,0.6,10.5,1.7C146.6,50.6,148.1,68.1,124.2,117.1z"/>
	<g class="st7">
		<path class="st8" d="M133.1,45.6c-0.6,0.1-1.2,0.3-1.8,0.5c-2,0.6-4,1.3-5.9,2.2c-3.9,1.8-7.7,4-11.2,6.5
			c-7.2,5.1-13.8,11-19.8,17.5c-6,6.6-11.4,13.7-16.2,21.2c-4.8,7.6-8.8,15.6-11.9,24c2.7-8.6,6.2-16.9,10.6-24.8
			c4.4-7.9,9.4-15.5,15.1-22.5c5.7-7.1,12.2-13.6,19.4-19.3c3.3-2.7,6.9-5,10.6-7.1c0.2,0,0.5,0,0.7,0
			C126.6,44,130.2,44.5,133.1,45.6z"/>
	</g>
	<g class="st9">
		<path class="st3" d="M118,163.3c-4.1,4.9-8.6,9.4-13.5,13.5c-4.9,4.2-10.3,7.8-16,10.9c-5.9,3.1-12.1,5.3-18.6,6.7
			c-1.2,0.2-2.5,0.5-3.8,0.7c-2.9-1-5.6-2.3-8-3.9c-2-1.3-4-2.8-5.8-4.4c5.5,1.1,11,1.4,16.6,0.9c6.1-0.5,12-1.9,17.7-4.1
			c5.8-2.2,11.3-5.1,16.5-8.6C108.4,171.5,113.4,167.6,118,163.3z"/>
	</g>
	<path class="st4" d="M165.4,176.3c-3.9,1.5-16,4.4-16,4.4c-0.9,0.2-1.6-1.2-0.9-1.8c0,0,11.8-9.4,16-12c1.2-0.7,3,0.9,3.3,3.5
		S166.7,175.8,165.4,176.3z"/>
	<path class="st0" d="M147,180.9c-0.8,3.6-2.4,5.9-5.6,5.9c-2.6,0-4.1-2.8-3.7-6.1s2.9-6,5.6-6S147.8,177.8,147,180.9z"/>
	<path class="st0" d="M40.4,180.7c-1.2,0.9-2.4,1.8-3.5,2.8C23.8,194.1,14,193,6.3,182.9c-9-11.9-6.4-28-3.9-34
		c3.1-7.4,10.1-11.9,17.6-5.6C25.9,148.2,32.5,164,40.4,180.7z"/>
	<path class="st2" d="M91.8,199.8c-1.1,6.2-4.8,12.9-9.3,16.3c-6.7,5.1-16.6,5.6-23.5-3.3s-13.1-20.7-18.5-32.1
		c7.8-5.9,16.9-11.1,25.8-13.4C89.1,161.5,93.9,188.1,91.8,199.8z"/>
	<path class="st4" d="M140.7,211.6l-20.4-34.3c-0.4-0.6-1.2-0.8-1.9-0.4c-0.6,0.4-0.8,1.2-0.5,1.8l20.4,34.4
		c0.4,0.6,1.2,0.8,1.9,0.4C140.8,213,141,212.3,140.7,211.6L140.7,211.6z"/>
	<path class="st0" d="M138.7,185.2c0.8,0.9,0.9,3.8-0.2,6.3c-0.6,1.3,9.7-2.8,7.1-3.7c-1.4-0.5-2.3-0.8-1.8-2.8
		C142.3,185.2,137.5,184,138.7,185.2z"/>
	<path class="st4" d="M149.4,190.1c-0.4,2.2-1.3,4.3-2.5,6.1c-2.1,3.3-4.7,6.2-7.8,8.6c-1.4-3.2-1.9-6.7-1.4-10.2
		c0.6-5.1,2.5-6,6.3-7.5C146,186.4,148.5,187.7,149.4,190.1z"/>
	<path class="st4" d="M145.2,180.1c-2.4,4.6-2.6,4.6-6.2,5.6c-0.1,0-0.1,0-0.2-0.1c-1.1-1.6-1.6-3.6-1.3-5.6c0.4-3.1,3-5.7,5.8-5.7
		c1.8,0,3.5,1.2,4,3C147.7,178.4,146.7,177.2,145.2,180.1z"/>
	<path class="st0" d="M147.8,191.2c6.3-2.8,9.9-9.3,8.1-16.1c-0.7-2.5-4.6-1.4-3.9,1.1c1.4,5.2-1.6,9.4-6.3,11.5
		C143.4,188.8,145.4,192.3,147.8,191.2L147.8,191.2z"/>
	<path class="st3" d="M336.7,62.9c0,10.3-2.5,20.5-7.3,29.5c-5.7-10.3-13-19.7-21.9-27.7c-20.8-18.9-46.9-28.3-72.9-28.3
		c-6.2,0-12.5,0.5-18.7,1.6c4.1-9.6,10.7-18.4,19.7-25.2c27.7-21.1,67.1-15.7,88.2,11.9C332.2,35.8,336.7,49.2,336.7,62.9
		L336.7,62.9z"/>
	<path class="st10" d="M211.9,148.8c12.5-9.5,50.1-13.3,53.2-41"/>
	<path class="st11" d="M331,95.5c-18,31.6-58.2,42.6-89.8,24.6c-28.5-16.2-40.7-50.9-28.7-81.4C260.3,28.9,308.7,52.1,331,95.5z"/>
	<path class="st0" d="M329.4,92.5c-1.6,2.9-3.4,5.8-5.4,8.5c-4.6,6.1-10.3,11.3-16.7,15.3c-6.4,4-13.5,6.9-21.1,8.4l-0.4,0.1
		c-0.2,0-0.3,0.1-0.5,0.1l-0.7,0.1c-0.7,0.1-1.5,0.2-2.2,0.3l-0.5,0.1l-0.8,0.1c-19.2,2.2-38.3-4.5-51.9-18.2
		c-1.9-1.9-3.7-4-5.4-6.2c-14.3-18.7-16.4-42.8-7.8-63c6.2-1.1,12.4-1.6,18.7-1.6c26,0,52.2,9.3,72.9,28.3
		C316.4,72.8,323.7,82.2,329.4,92.5z"/>
	<circle class="st10" cx="208.1" cy="153" r="5.6"/>
	<circle class="st10" cx="258.8" cy="191.9" r="5.6"/>
	<path class="st12" d="M217.1,146.6"/>
	<line class="st12" x1="270.6" y1="105.4" x2="270.6" y2="105.4"/>
	<path class="st10" d="M263.9,194.1c17.4,17.4,36.3,1.5,46.4,28.6"/>
	<path class="st8" d="M314,92.5c-4.4-1.2-9.8,4.5-16.4,13.3c-3,2.8-5.8,5.8-8.3,9.1l-0.2,0.3c-0.1,0.1-0.1,0.2-0.2,0.3
		c-2.4,3.1-4.6,6.4-6.6,9.8l-0.5,0.1l-0.8,0.1c-19.2,2.2-38.3-4.5-51.9-18.2l0,0c8.3-20.5,9.5-20.5,33.4-25.5
		c5.5-1.3,11.1-1.7,16.7-1.2l0,0c0.6,0,1.2,0.1,1.8,0.2c3.9,0.3,7.8,1.2,11.5,2.5l0,0C310.5,90.4,314,92.5,314,92.5z"/>
	<path class="st6" d="M250.6,51.6c0,1.9,1.2,7.8,1.2,7.8s2.1,15.3,10.6,21.4v2.8c-3.5,2.7-5.7,6.1-5.6,9.4c0.2,6.2,8.6,9.8,18.7,7.9
		c10.1-1.9,18.1-8.5,17.9-14.7c0-1.1-0.4-2.2-0.9-3.2l0,0c-3.3-1.3-5.4-4.5-5.4-8v-4.3c0.4-0.8,0.7-1.5,1-2.2c0.3,0.1,0.6,0.1,0.9,0
		c1.6-0.3,4-2.4,5.3-6c0.7-1.8,0.8-3.7,0.3-5.6c-0.8-2.8-2.9-4-4.8-1.6c-1.3-12.4-9.3-22-19-22c-4.5-0.1-9,0.9-13.1,3
		C253.4,39.5,250.4,44.3,250.6,51.6z"/>
	<path class="st5" d="M270.9,83.4c0.4,0,0.7,0.1,1.1,0.1c6.9,0,11.8-4.4,15-9.2v-2.9c0-0.1,0-0.3,0-0.4
		C284.1,76.6,278.9,83,270.9,83.4z"/>
	<path class="st13" d="M294,55.1c-1,3.1-2.3,6.2-4,9l-1.9-4.5l-4.7-10.8c0,0-7.2,0.5-16.9,0.7s-12.7-2.3-12.7-2.3
		c-1,0.7-1.7,1.8-1.9,3c-0.8,3.4-0.1,9.3-0.1,9.3s-6.2-14.2,2.3-25.9c10.1-13.8,31.9-15.3,39.8,2C296.5,41.6,295.7,49.7,294,55.1z"
		/>
	<path class="st13" d="M297.7,105.8c-1.7,2.3-3.5,4.9-5.4,7.6l-0.3,0.4c-2.2,3.5-4.1,7.1-5.8,10.9l-0.4,0.1l0,0
		c-0.2,0-0.3,0.1-0.5,0.1l-0.7,0.1c-0.7,0.1-1.5,0.2-2.2,0.3c2-3.4,4.2-6.7,6.7-9.8c0.1-0.1,0.1-0.2,0.2-0.3l0.2-0.3
		C291.9,111.7,294.7,108.6,297.7,105.8z"/>
	<path class="st14" d="M318.6,107.1c-8.8,9-20.1,15.1-32.5,17.5l-0.4,0.1l0,0c-0.2,0-0.3,0.1-0.5,0.1c2-3.8,4.3-7.5,6.8-11l0.3-0.4
		c1.9-2.7,3.7-5.2,5.4-7.6c6.6-8.8,12-14.6,16.4-13.3C316.8,93.3,319.6,98.3,318.6,107.1z"/>
	<path class="st15" d="M240.1,115.4L240.1,115.4z"/>
	<path class="st16" d="M262.4,68.6"/>
	<path class="st2" d="M264.1,63"/>
	<path class="st11" d="M296.5,183.2c-1.5,8-3.1,12.5-9.9,17c-3.2,2.1-5.9,5.1-9,7.4c-0.7,0.5-1.4,1-2.1,1.4
		c-0.8,0.5-1.6,0.9-2.5,1.2c-1.2-5-1.8-10.2-1.8-15.4c0-11.7,3.1-23.1,9-33.2l0.4,0.1c0.8,0.2,1.6,0.5,2.4,0.8
		c0.6,0.2,1.2,0.5,1.9,0.8c1.4,0.7,2.8,1.5,4.4,2.4C295.9,169.9,297.9,175.6,296.5,183.2z"/>
	<path class="st0" d="M400,194.8L400,194.8c0,13.8-4.5,27.2-12.9,38.1c-1.7,2.2-3.5,4.2-5.4,6.2c-11.9,12-28,18.6-44.7,18.6
		c-2.4,0-4.8-0.1-7.1-0.4l-0.8-0.1l-0.6-0.1c-0.7-0.1-1.4-0.2-2.1-0.3l-0.8-0.1l-0.4-0.1l-0.5-0.1c-12.3-2.5-23.6-8.6-32.4-17.5
		c-0.5-0.5-1-1-1.5-1.6c31.3-19,52.1-53.4,52.1-92.6l0,0c0-4.3-0.2-8.5-0.8-12.7c17.3,1.4,33.9,9.8,45.2,24.8
		C395.6,167.8,400,181.1,400,194.8z"/>
	<path class="st17" d="M342.9,144.8c0,39.2-20.8,73.6-52.1,92.6c-1.3-1.5-2.6-3-3.8-4.6c-8.6-11.4-12.7-24.7-12.7-37.9
		c0-19,8.6-37.9,25-50.2c12.8-9.7,28.1-13.7,43-12.5C342.6,136.3,342.8,140.6,342.9,144.8L342.9,144.8z"/>
	<path class="st13" d="M381.8,239.1L381.8,239.1c-13.6,13.7-32.7,20.4-51.9,18.2l-0.8-0.1l-0.6-0.1c-2-3.4-4.2-6.6-6.5-9.7
		c-0.1-0.1-0.1-0.2-0.2-0.3l-0.2-0.3c-2.5-3.3-5.3-6.3-8.3-9.2c-6.6-8.9-12-14.7-16.4-13.4c0,0,3.6-2.2,21.6-9.5l0,0
		c3.7-1.3,7.6-2.2,11.5-2.5l0,0c0.6-0.1,1.1-0.1,1.7-0.1l0,0c5.6-0.4,11.3,0,16.7,1.3C372.3,218.4,373.5,218.5,381.8,239.1z"/>
	<path class="st5" d="M360.2,183c0,1.9-1.2,7.9-1.2,7.9s-2.1,15.4-10.6,21.6v2.8c3.5,2.8,5.7,6.2,5.6,9.5c-0.2,6.3-8.6,9.9-18.7,8
		c-10.1-1.9-18.1-8.5-17.9-14.8c0-1.1,0.4-2.2,0.9-3.2l0,0c3.3-1.3,5.4-4.5,5.4-8.1v-4.3c-0.4-0.8-0.7-1.5-1-2.3
		c-0.3,0.1-0.6,0.1-0.9,0c-1.6-0.4-4-2.4-5.3-6c-0.7-1.8-0.8-3.7-0.3-5.6c0.8-2.8,2.9-4.1,4.8-1.6c1.3-12.5,9.3-22.2,19-22.2
		c4.5-0.1,9,0.9,13.1,3C357.5,170.8,360.4,175.6,360.2,183z"/>
	<path class="st13" d="M339.9,215c-0.4,0-0.7,0.1-1.1,0.1c-6.9,0-11.8-4.4-15-9.3v-2.9c0-0.1,0-0.3,0-0.4
		C326.8,208.2,331.9,214.6,339.9,215z"/>
	<path class="st3" d="M316.9,186.5c1,3.2,2.3,6.2,4,9.1l1.9-4.5l4.7-10.9c0,0,7.2,0.5,16.9,0.7s12.7-2.3,12.7-2.3
		c1,0.7,1.7,1.8,1.9,3c0.8,3.5,0.1,9.4,0.1,9.4s6.2-14.3-2.3-26.1c-10.1-13.9-31.9-15.5-39.8,2C314.3,172.9,315.2,181.1,316.9,186.5
		z"/>
	<path class="st4" d="M328.5,257.2c-0.7-0.1-1.4-0.2-2.2-0.3l-0.8-0.1l-0.4-0.1l0,0l-0.5-0.1c-1.7-3.7-3.6-7.3-5.7-10.8
		c-0.1-0.1-0.2-0.3-0.3-0.4c-1.9-2.7-3.7-5.3-5.4-7.6c3,2.8,5.8,5.9,8.3,9.2l0.2,0.3c0.1,0.1,0.1,0.2,0.2,0.3
		C324.3,250.6,326.5,253.8,328.5,257.2z"/>
	<path class="st14" d="M325.1,256.6L325.1,256.6l-0.5-0.1c-12.3-2.5-23.6-8.6-32.4-17.5l0,0c-1-8.9,1.9-13.9,4.6-14.7
		c4.4-1.2,9.8,4.6,16.4,13.4c1.7,2.4,3.5,4.9,5.4,7.6c0.1,0.1,0.2,0.3,0.3,0.4c2.4,3.5,4.6,7.2,6.6,11L325.1,256.6z"/>
	<path class="st15" d="M370.8,247.4L370.8,247.4z"/>
	<path class="st18" d="M348.4,200.1"/>
	<path class="st18" d="M346.7,194.4"/>
</g>
<title>Global Access</title>
</svg>
