<svg xmlns="http://www.w3.org/2000/svg" width="116" height="116" viewBox="0 0 116 116">
    <g fill="none" fill-rule="nonzero">
        <path fill="#1E54A0" d="M58.7 108l-5.9.5-5.5-26.3 9.8-.7c.8-.1 1.6.6 1.6 1.4l.4 6.2 1 16.7v.6c0 .8-.6 1.5-1.4 1.6z"/>
        <path fill="#67BCEF" d="M53.8 109.3c.2.9-7 1.6-9 1.8-7.2.6-23.4.7-30.3-1.4-3.9-1.2-7.7-6.7-9.5-10.5C2.7 94.3-3 78.8 3.6 79c6.6.2 13.4.4 20 1.1 4.4.5 20.5.7 25 .2.2 0 .4 0 .6.1.1.1.3.3.3.4 2.2 4.5 2.7 9.6 2.9 14.5.2 4.8.2 9.5 1.4 14z"/>
        <path fill="#90D8F0" d="M66.4 39.8c-.4 0-.8 0-1.2.1-3 .4-6 1-9 1.8l-.2-2c-.7-6-1.5-12-2.6-18-.3-1.7-.6-3.5-.8-5.2-.1-.6-.1-1.2-.2-1.8 2-.2 4-.6 6-1.1l1.2-.3 6.8 26.5z"/>
        <path fill="#143D8A" d="M58.3 11.8c3.3-1 35.9-5.6 38.3-5.1 2.3.5 6.2 5.4 7.7 8.2 2.9 5.7 9.9 17.7 11.2 22.8-2.2.1-17.4 1.1-24 1.1C87 38.7 71 40 66.6 41c-.2.1-.4.1-.6 0-.2-.1-.3-.2-.4-.4-2.6-4.3-7-23.1-7.3-28.8z"/>
        <path fill="#2978BE" d="M79.5 31.4c-1.8-2.3-7.9-11.5-8.2-12-.3-.6-.6-1.2-.8-1.8-1.6-4.9-1.7-10.2-3.4-15.1-.1-.1-.1-.3 0-.4.1-.1.3-.1.5-.1 2.3.4 4 2.2 5.4 4 .8 1 1.5 2.1 2.2 3.2.1 5 1.2 9.9 3.2 14.4l1.1 7.8z"/>
        <path fill="#143D8A" d="M69.8 8.9c.3-2.2-.4-4.3-1.8-6-.2-.2-.6.1-.3.4 1.3 1.6 1.9 3.6 1.6 5.6 0 .2.4.2.5 0z"/>
        <path fill="#1E54A0" d="M78.4 23.5c-2-4.5-3.1-9.4-3.2-14.4.9 1.3 1.6 2.7 2.3 4.2l.9 10.2zM106.2 54.4l-20.5 2.4c.1-1.6.1-3.2 0-4.7 2.3-1.6 5.1-3.6 6.4-4.5 2.7-2.1 5.5-4.3 7.2-7.3.8-1.6 1.4-3.4 1.9-5.1 2.1-7.2 5.5-18.2 5.4-26.6.4.9.7 1.8.8 2.8.1 1.8-.1 3.5-.4 5.2-.8 4.8-1.5 9.7-2 14.6-.4 4-1 8.3-.4 12.3.2 1.9 1.1 7.7 1.6 10.9z"/>
        <path fill="#2978BE" d="M99.3 40.2c-1.7 3-4.4 5.2-7.2 7.3-1.3 1-4.1 2.9-6.4 4.5-.3-7-1.8-13.5-5.1-18.9-.8-1.1-1.5-2.3-2-3.6-.4-1.3-.7-2.6-.7-4-.4-4.5-.7-9.1-.8-13.6-.1-2.3-.1-4.5-.2-6.8 0-1.6-.5-4.2 1.7-4.7.8-.1 1.6-.1 2.4.2l20 4.5c1.5.2 2.9.8 4.1 1.6.6.5 1.1 1.1 1.4 1.8.1 8.3-3.3 19.4-5.4 26.6-.4 1.8-1 3.5-1.8 5.1z"/>
        <path fill="#90D8F0" d="M108.3 64.6c-3.8.6-7.6.8-11.5.7-2 0-3.9-.3-5.8-.9-1.9-.6-3.5-1.9-4.5-3.7-.8-1.5-.8-4.2-.8-6.2 4.6-.6 20.3-1.5 21.1-1 .3.6.4 1.3.5 2-1.6.1-3.9.4-4.3 1.3-.2.5-.3 1-.2 1.5.1 1.2.2 2.8 1.4 3.2 1.3.1 2.6 0 3.8-.1.1 1.3.2 2.4.3 3.2z"/>
        <path fill="#143D8A" d="M97.4 115.1c-9.8 1.9-15.1.9-14.6-22.7.1-5.8.8-36.8 1.7-37.5.4-.1.8-.2 1.2-.2 0 1.9.1 4.7.8 6.2 1 1.7 2.6 3 4.5 3.7 1.9.6 3.8.9 5.8.9 3.8.1 7.7-.2 11.5-.7v.2c.5 3.4.9 36.7.7 38.8-.4 5.4-5.7 10.1-11.6 11.3zM108 61.6c-1.3.1-2.6.2-3.8.1-1.2-.4-1.3-2-1.4-3.2-.1-.5 0-1 .2-1.5.4-.9 2.7-1.2 4.3-1.3.2 1.6.4 3.8.7 5.9z"/>
        <path fill="#1E54A0" d="M43.3 108.4c-1.2-1.4-2.3-2.9-3.2-4.5l-2.8-18.4c1.4 1.7 2.6 3.1 3.6 4.3.8 4.9 1.9 12.8 2.4 18.6z"/>
        <path fill="#2978BE" d="M51.1 114.1c-.1.1-.3.1-.5.1-2.3-.3-4.1-2-5.6-3.7-.6-.6-1.2-1.3-1.7-2-.5-5.8-1.6-13.8-2.4-18.6 3.9 4.8 5.2 6.6 6 8.8 1.9 4.8 2.2 10.2 4.1 14.9.1.2.2.3.1.5z"/>
        <path fill="#143D8A" d="M47.3 107.4c.2 2.2 1.3 4.2 3.1 5.5.3.2.5-.2.2-.4-1.6-1.2-2.6-3-2.8-5 0-.4-.6-.4-.5-.1z"/>
        <path fill="#1E54A0" d="M39.8 111c-2 3.7-6.6 4.6-12.6 4.5-9.4-.2-15.1-2.1-17-8.1-1.4-4.7-1.6-9.7-2.1-19.3-.8-15 4-9.8 3.5-26.3h3.1C15.8 72.5 27.1 102 39.8 111z"/>
        <path fill="#2978BE" d="M39.8 111c-21.5 3.8-27.5-6.2-28.8-23.4-.7-9.5 4.8-15.1 3.7-25.8 5.1.1 12.6.4 15.7.6-.5 7.5 1.6 15 5.8 21.2.8 1.1 1.6 2.3 2.2 3.5.5 1.3.8 2.6.9 4 .6 4.5 1.1 9 1.5 13.6.2 2.1-.1 4.3-1 6.3z"/>
        <path fill="#308DD1" d="M30.4 62.4c-3.1-.2-10.5-.5-15.7-.6h-4c-2 0-1.8-1.3-1.9-11.3 3.7-.2 7.4 0 11.1.4 2 .1 3.9.6 5.7 1.3 1.9.8 3.4 2.2 4.2 4 .8 1.5.6 4.3.6 6.2z"/>
        <path fill="#90D8F0" d="M30.4 62.4c.2-4.7-6.8-11.2-10.4-11.6-3.7-.4-7.4-.5-11.1-.4-.1-3.4-.5-6.7-1.2-10C6 33 10.2 12 15.4 10.2c4.2-1.5 23.6 2.7 22.4 7.2-.2 1.9-1.4 5.5-1.5 7.3-.5 5.7-1 11.5-2 17.1-.4 2.6-2.9 9.8-2.9 12.4.1 2.3.1 4.7-.1 7 0 1-.6 1.2-.9 1.2z"/>
        <path fill="#3AA3E3" d="M103.4 76.7c-2.1-.2-4.2-.1-6.1-.3-1.5-.1-3.1-.3-4.6-.4-3.8-1-7.1-2.4-8.5-3.5.7-.3 1.3-.6 2-.9 5.2-2.7 11.4-2.4 17.2-2.7 3.6-.2 7.1-1.1 7.1.2.6 4.4-3.4 6.6-7.1 7.6z"/>
        <path fill="#143D8A" d="M102.1 70.2c1.2 2.8 5.4 1.4 6.6-.7.1-.1 0-.3-.1-.3s-.2 0-.3.1c-1 1.8-4.6 3.1-5.7.7-.2-.3-.6-.1-.5.2z" opacity=".6"/>
        <path fill="#3AA3E3" d="M92.7 76c-2.7-.3-5.5-.3-8.3-.2-3.5.3-7 1.3-10.2 2.9 3-2.5 6.4-4.6 10-6.2 1.4 1.1 4.7 2.5 8.5 3.5z"/>
        <path fill="#67BCEF" d="M101.6 110c-10-.1-22.1-2.5-30-6-4.5-1.9-10.3-8.1-12.5-14.9l-.4-6.2c4.6-.4 9-1.5 13.3-3.3l2.2-.9c3.2-1.6 6.7-2.5 10.2-2.9 2.8-.1 5.5-.1 8.3.2 1.6.1 3.1.3 4.6.4 1.9.2 4 .1 6.1.3 2.3.1 4.5.7 6.5 1.9 2.9 2.1 2.2 6.8 1.8 11.1-.4 4 .1 8.9-1.3 12.7-1.3 3.5-4.9 6.3-8.8 7.6z"/>
        <path fill="#2978BE" d="M101.6 110h-.1c-4 1.2-9.1 1-13.2.7-9.4-.7-18.8-4.8-28.3-4.9l-1-16.7c2.2 6.8 8 13 12.5 14.9 8 3.5 20.1 5.9 30.1 6z"/>
        <path fill="#1E54A0" d="M41.5 44.8c-3 3-6.4 5.6-10.1 7.7-2.9-2.2-11-3.3-17.3-3.1l27.4-4.6z"/>
        <path fill="#1E54A0" d="M31.5 52.5c-.5.3-1 .6-1.5.8-5 3.2-11.3 3.4-17.1 4.1-2.1.2-3.6 1.5-5.7 1.7-.6 0-1-.4-1.1-.9-1.1-4.7 3.4-7.3 7.3-8.6l.9-.2c6.1-.1 14.2 1 17.2 3.1z"/>
        <path fill="#308DD1" d="M14.2 56.3c-1.5-2.7-5.5-1-6.5 1.2-.1.3.3.6.4.2.8-1.9 4.3-3.6 5.6-1.2.1.1.2.1.3.1.3-.1.3-.2.2-.3zM56 39.7c-1.1.2-2.2.5-3.3.8-1.2-9.6-6.9-18.2-14-21.5-5.5-2.4-11.5-3.9-17.5-4.3 1 0 2-.1 2.9-.1 9.4-.2 19.1 2.8 28.5 2 .2 1.7.5 3.5.8 5.2 1.1 5.9 1.9 11.9 2.6 17.9z"/>
        <path fill="#2978BE" d="M52.7 40.5c-3.3.8-6.4 2-9.4 3.5l-2.1 1.1c-3 1.9-6.4 3.2-9.9 3.9-4.3.5-8.6.7-12.9.6-1.9 0-4 .3-6.1.3-2.3.2-4.6-.3-6.7-1.3-3.1-1.8-3.1-7.8-2.8-10.9.5-4 1.3-7.9 2.5-11.7.9-3.6 1.8-7.8 5.7-9.5 3.3-1.2 6.7-1.8 10.1-1.9 6 .4 12 1.9 17.5 4.3 7.2 3.4 12.8 11.9 14.1 21.6z"/>
        <path fill="#90D8F0" d="M65.5 16.5c.7-.2 1.3-.8 1.4-1.5 0-.7-.3-1.5-1-1.8-.7-.3-1.4-.5-2.1-.4-.5 0-.9.1-1.3.3-.4.2-.7.6-.8 1 0 .5.2 1 .6 1.4.8.9 2 1.2 3.2 1z"/>
    </g>
</svg>
