<svg xmlns="http://www.w3.org/2000/svg" width="237" height="235" viewBox="0 0 237 235">
    <g fill="none" fill-rule="nonzero">
        <path fill="#60D5F2" d="M83.09 234.66h75.81a40 40 0 0 0 34.64-20L231.45 149a40 40 0 0 0 0-40l-37.9-65.66a40 40 0 0 0-34.64-20H83.09a40 40 0 0 0-34.64 20L10.55 109a40 40 0 0 0 0 40l37.91 65.66a40 40 0 0 0 34.63 20z" opacity=".2"/>
        <path fill="#89E7F5" d="M222.91 98.87a4.87 4.87 0 0 1-4.86 4.86h-28.7a7.08 7.08 0 1 1 1.68-14 6.48 6.48 0 1 1 12.71-2.29 8.64 8.64 0 0 1 12.7 6.79 4.86 4.86 0 0 1 6.49 4.59l-.02.05z" opacity=".4"/>
        <path fill="#60D5F2" d="M40.2 160.05a5.11 5.11 0 0 0 5.11 5.11h25.31a5.55 5.55 0 0 0 0-11.09h-7.84a8.72 8.72 0 0 0-17 .9h-.49a5.11 5.11 0 0 0-5.09 5.08z"/>
        <path fill="#DFF7FC" d="M27.64 222.23H1.18v-12.84l26.46-55.91z"/>
        <path fill="#00B8F3" d="M145.35 222.23H98.11v-68.75l47.24-78.06z"/>
        <path fill="#60D5F2" d="M218.58 222.23h-32.84V160.1l30.07-119.34z"/>
        <path fill="#00B8F3" d="M218.58 222.23h12.32v-9.05L215.81 40.76z"/>
        <path fill="#89E7F5" d="M160.65 222.23h-15.32V75.42l15.32 65.98z"/>
        <path fill="#DFF7FC" d="M56.3 222.23H43.75v-25.85l12.55-24zM74.73 222.23H62.18v-13.92l12.55-94.32z"/>
        <path fill="#60D5F2" d="M173.2 222.23h-12.55V141.4l12.55-27.41z"/>
        <path fill="#89E7F5" d="M27.64 222.23h16.11v-25.85l-16.11-42.9zM56.3 222.23h5.88v-13.61l-5.88-36.24z"/>
        <path fill="#00B8F3" d="M173.2 222.23h12.54v-62.1l-12.54-46.14z"/>
        <path fill="#89E7F5" d="M74.73 222.23h23.38v-68.75l-23.38-39.49z"/>
        <path fill="#FFF" d="M220.25 200.38a3.66 3.66 0 0 0-4.12-1.08l-13.11 5-6.67-6.79c-2.14-2-3.78-2-5.89-.12l-17.26 15.79s-14-18.61-18.8-23.29a6.13 6.13 0 0 0-9.05 1c-4.24 6.74-15.76 25.91-15.76 25.91l-17.88-37.7a3.23 3.23 0 0 0-5.31-.77l-37.33 41.45-14.89-8a3.3 3.3 0 0 0-3-.06l-10.33 5-21.08-27.12a3.62 3.62 0 0 0-6.09.59l-12.51 19.2v25.47h229.72v-21.68l-10.64-12.8z"/>
        <path fill="#FFF" d="M145.35 75.42l-22.02 36.39 5.41 5.44 6-4.77 4.73 2.31 5.86-2.65 3.49 1.96.93-1.39 4.84 2.6zM215.81 40.76l-5.99 23.75 4.14-1.99 2.21 1.85 1.63-.81zM173.2 113.99l-9.64 21.05 4.7-.71 2.77 6.12 2.17-4.4 4.06 7.75.7-5.31 4 7.72zM69.88 150.44l4.85-36.45 15.15 25.59-7.3-.89-3.81 10.39-4.04-2.27-3.12 7.02z" opacity=".6"/>
        <path fill="#60D5F2" d="M1.55 157.82h-.27l-.26-.08a1.8 1.8 0 0 1-.45-.3l-.17-.21a1.35 1.35 0 0 1-.12-.24 1.29 1.29 0 0 1-.08-.26 1.24 1.24 0 0 1 0-.27 1.38 1.38 0 0 1 1.92-1.28 1 1 0 0 1 .23.13c.078.051.151.108.22.17.064.064.121.134.17.21a.9.9 0 0 1 .12.24.78.78 0 0 1 .08.26c.04.178.04.362 0 .54a.86.86 0 0 1-.08.26 1.34 1.34 0 0 1-.12.24l-.17.21a1.4 1.4 0 0 1-1.02.38zM4.06 153.12a1.39 1.39 0 0 1-.27-1.94 1.39 1.39 0 0 1 1.94-.27 1.39 1.39 0 0 1 .27 1.94 1.37 1.37 0 0 1-1.1.55 1.39 1.39 0 0 1-.84-.28zm3.34-4.43a1.38 1.38 0 0 1-.26-1.94 1.39 1.39 0 0 1 1.94-.27 1.38 1.38 0 0 1 .26 1.94 1.37 1.37 0 0 1-1.1.55 1.39 1.39 0 0 1-.84-.28zm3.36-4.41a1.4 1.4 0 0 1-.25-1.95 1.39 1.39 0 0 1 2-.24 1.39 1.39 0 0 1 .25 1.94 1.42 1.42 0 0 1-1.1.54 1.41 1.41 0 0 1-.9-.29zm31.38-1.38a1.39 1.39 0 0 1-.78-1.8 1.38 1.38 0 0 1 1.8-.77 1.39 1.39 0 0 1 .78 1.8 1.4 1.4 0 0 1-1.29.87 1.33 1.33 0 0 1-.51-.1zm4.62-1a1.38 1.38 0 0 1 .82-1.78 1.39 1.39 0 0 1 .95 2.61 1.49 1.49 0 0 1-.47.08 1.38 1.38 0 0 1-1.3-.86v-.05zm5.19-1.9a1.39 1.39 0 1 1 2.62-.93 1.39 1.39 0 0 1-.85 1.77 1.39 1.39 0 0 1-1.77-.84zm-37.78-.13a1.39 1.39 0 0 1-.2-2 1.39 1.39 0 0 1 2-.2 1.39 1.39 0 0 1 .2 1.95 1.36 1.36 0 0 1-1.08.51 1.38 1.38 0 0 1-.92-.23v-.03zm23.11-.76a1.38 1.38 0 0 1 .14-1.95 1.39 1.39 0 0 1 2 .14 1.38 1.38 0 0 1-.14 1.95 1.35 1.35 0 0 1-.9.34 1.37 1.37 0 0 1-1.1-.45v-.03zm19.57-1.69a1.39 1.39 0 0 1-.57-1.87 1.38 1.38 0 0 1 1.87-.57 1.38 1.38 0 0 1 .58 1.87 1.38 1.38 0 0 1-1.23.73 1.39 1.39 0 0 1-.65-.13v-.03zm-39.15-1.8a1.37 1.37 0 0 1-.12-1.95 1.39 1.39 0 0 1 2-.11 1.39 1.39 0 0 1 .11 2 1.39 1.39 0 0 1-1 .46 1.39 1.39 0 0 1-.99-.4zm16.25-1.2a1.38 1.38 0 0 1 .47-1.9 1.38 1.38 0 0 1 1.9.48 1.39 1.39 0 0 1-.47 1.9 1.43 1.43 0 0 1-.71.19 1.39 1.39 0 0 1-1.19-.67zm24.84-2.14a1.37 1.37 0 0 1-1-1.7 1.38 1.38 0 0 1 1.7-1 1.39 1.39 0 0 1 1 1.7 1.39 1.39 0 0 1-1.34 1c-.12.02-.24.02-.36 0zm-37.33-.73a1.39 1.39 0 0 1 .11-2 1.39 1.39 0 0 1 2 .11 1.39 1.39 0 0 1-.11 2 1.36 1.36 0 0 1-.92.35 1.43 1.43 0 0 1-1.08-.46zm9.68-1.55a1.39 1.39 0 0 1 .05-2 1.4 1.4 0 0 1 2 0 1.39 1.39 0 0 1-.05 2 1.36 1.36 0 0 1-1 .38 1.36 1.36 0 0 1-1-.38zm-5.33-1.94a1.38 1.38 0 0 1 .9-1.74 1.39 1.39 0 0 1 1.74.9 1.38 1.38 0 0 1-.9 1.74 1.23 1.23 0 0 1-.42.07 1.38 1.38 0 0 1-1.32-.96v-.01zm34.42-1.14a1.39 1.39 0 0 1-1-1.7 1.37 1.37 0 0 1 1.69-1 1.39 1.39 0 0 1 1 1.69 1.4 1.4 0 0 1-1.34 1 1.46 1.46 0 0 1-.35.02v-.01zm1.41-5.37a1.38 1.38 0 0 1-1-1.68 1.39 1.39 0 0 1 1.69-1 1.39 1.39 0 0 1 1 1.69 1.4 1.4 0 0 1-1.34 1 1.42 1.42 0 0 1-.35 0v-.01zm1.36-5.36a1.38 1.38 0 0 1-1-1.68 1.39 1.39 0 0 1 1.68-1 1.4 1.4 0 0 1 1 1.68 1.4 1.4 0 0 1-1.35 1.05 1.25 1.25 0 0 1-.33-.05zm30.67-2.71a1.4 1.4 0 0 1-1.07-1.65 1.4 1.4 0 0 1 1.65-1.06 1.38 1.38 0 0 1 1.07 1.64 1.4 1.4 0 0 1-1.36 1.1l-.29-.03zm4.43-1.46a1.39 1.39 0 0 1 .64-1.86 1.39 1.39 0 0 1 1.85.64 1.38 1.38 0 0 1-.64 1.85 1.29 1.29 0 0 1-.6.14 1.38 1.38 0 0 1-1.23-.79l-.02.02zm-9.9-1.25a1.4 1.4 0 0 1-.25-2 1.38 1.38 0 0 1 1.94-.25 1.38 1.38 0 0 1 .26 1.94c-.263.34-.67.54-1.1.54a1.4 1.4 0 0 1-.83-.23h-.02zm-23.86 0a1.38 1.38 0 0 1-1-1.67 1.39 1.39 0 0 1 1.68-1 1.39 1.39 0 0 1 1 1.68 1.38 1.38 0 0 1-1.34 1 1.23 1.23 0 0 1-.32.02l-.02-.03zm38.4-1.78a1.38 1.38 0 0 1-.09-2 1.4 1.4 0 0 1 2-.09 1.4 1.4 0 0 1 .09 2 1.39 1.39 0 0 1-1 .45 1.38 1.38 0 0 1-.98-.35l-.02-.01zM84 106.77a1.39 1.39 0 0 1 .1-2 1.39 1.39 0 0 1 2 .1 1.4 1.4 0 0 1-.1 2 1.44 1.44 0 0 1-.93.35 1.35 1.35 0 0 1-1.07-.45zm-18.35-1.36a1.37 1.37 0 0 1-1-1.66 1.38 1.38 0 0 1 1.67-1 1.37 1.37 0 0 1 1 1.66 1.38 1.38 0 0 1-1.32 1.04 1.11 1.11 0 0 1-.33-.04h-.02zm40.59-.68a1.4 1.4 0 0 1-.37-1.93 1.39 1.39 0 0 1 1.93-.37 1.39 1.39 0 0 1 .36 1.93 1.37 1.37 0 0 1-1.14.6 1.4 1.4 0 0 1-.76-.23h-.02zm-25.84-2.31a1.4 1.4 0 0 1 .24-2 1.38 1.38 0 0 1 1.94.24 1.38 1.38 0 0 1-.23 1.95 1.46 1.46 0 0 1-.86.29 1.37 1.37 0 0 1-1.07-.48h-.02zm29-2.28a1.39 1.39 0 0 1-.36-1.93 1.38 1.38 0 0 1 1.93-.35 1.37 1.37 0 0 1 .35 1.92 1.37 1.37 0 0 1-1.14.6 1.4 1.4 0 0 1-.8-.24h.02zM66.91 100a1.38 1.38 0 0 1-.91-1.7 1.37 1.37 0 0 1 1.7-1 1.38 1.38 0 0 1 1 1.71 1.39 1.39 0 0 1-1.33 1 1.72 1.72 0 0 1-.46-.01zM77 98.06a1.38 1.38 0 0 1 .2-2 1.38 1.38 0 0 1 2 .21 1.39 1.39 0 0 1-.21 2 1.4 1.4 0 0 1-.87.31 1.37 1.37 0 0 1-1.12-.52zm35.5-2.49a1.38 1.38 0 0 1-.34-1.92 1.37 1.37 0 0 1 1.92-.35 1.38 1.38 0 0 1 .35 1.93 1.4 1.4 0 0 1-1.14.59 1.37 1.37 0 0 1-.77-.25h-.02zm-43.89-.86a1.39 1.39 0 0 1-.27-1.94 1.4 1.4 0 0 1 2-.27 1.39 1.39 0 0 1 .27 1.94 1.39 1.39 0 0 1-1.11.55 1.36 1.36 0 0 1-.87-.28h-.02zm4.79-.4a1.39 1.39 0 0 1-.28-1.94 1.39 1.39 0 0 1 1.94-.28c.609.445.743 1.3.3 1.91a1.37 1.37 0 0 1-1.11.56 1.42 1.42 0 0 1-.83-.25h-.02zM115.69 91a1.39 1.39 0 0 1-.33-1.93 1.39 1.39 0 0 1 1.93-.33 1.39 1.39 0 1 1-.8 2.52 1.41 1.41 0 0 1-.8-.26zm3.2-4.53a1.38 1.38 0 0 1-.32-1.93 1.38 1.38 0 0 1 1.93-.32 1.38 1.38 0 0 1 .32 1.93 1.37 1.37 0 0 1-1.13.58 1.34 1.34 0 0 1-.8-.24v-.02zm3.23-4.47a1.38 1.38 0 0 1-.31-1.93 1.38 1.38 0 0 1 1.93-.31 1.38 1.38 0 0 1 .31 1.93 1.36 1.36 0 0 1-1.12.57 1.35 1.35 0 0 1-.81-.26zm3.25-4.49a1.38 1.38 0 0 1-.3-1.93 1.38 1.38 0 0 1 1.94-.3 1.39 1.39 0 0 1 .3 1.93 1.38 1.38 0 0 1-1.12.57 1.39 1.39 0 0 1-.82-.29v.02zm3.28-4.51a1.39 1.39 0 0 1-.28-1.94 1.37 1.37 0 0 1 1.93-.28 1.38 1.38 0 0 1 .29 1.94 1.4 1.4 0 0 1-1.11.56c-.3 0-.592-.098-.83-.28zm3.35-4.43a1.39 1.39 0 0 1-.28-1.94 1.39 1.39 0 0 1 1.94-.28 1.39 1.39 0 0 1 .28 1.94 1.37 1.37 0 0 1-1.11.56c-.3 0-.592-.098-.83-.28zm3.32-4.44a1.39 1.39 0 0 1-.28-1.94 1.39 1.39 0 0 1 1.94-.28 1.39 1.39 0 0 1 .28 1.94 1.37 1.37 0 0 1-1.11.56 1.36 1.36 0 0 1-.87-.28h.04zm3.31-4.44a1.39 1.39 0 0 1 1.63-2.25 1.38 1.38 0 0 1 .31 1.93 1.4 1.4 0 0 1-1.13.58 1.44 1.44 0 0 1-.85-.26h.04zm3.37-4.41a1.38 1.38 0 0 1 0-2 1.38 1.38 0 0 1 2 0 1.39 1.39 0 0 1-.06 2 1.38 1.38 0 0 1-.95.38 1.39 1.39 0 0 1-.99-.38zM158.3 54a1.37 1.37 0 0 1-1.18-1.56 1.37 1.37 0 0 1 1.56-1.18 1.37 1.37 0 0 1 1.18 1.56 1.39 1.39 0 0 1-1.37 1.2l-.19-.02zm4.32-1.76a1.38 1.38 0 0 1 .34-1.93 1.39 1.39 0 0 1 1.93.33 1.39 1.39 0 0 1-.33 1.93 1.36 1.36 0 0 1-.8.26 1.4 1.4 0 0 1-1.14-.54v-.05zm-16.32-.46a1.4 1.4 0 0 1 .92-1.74 1.39 1.39 0 0 1 1.73.92 1.37 1.37 0 0 1-.92 1.73 1.13 1.13 0 0 1-.41.07 1.4 1.4 0 0 1-1.32-.93v-.05zm6.51.89a1.4 1.4 0 0 1-1.06-1.66A1.4 1.4 0 0 1 153.4 50a1.39 1.39 0 0 1 1.06 1.65 1.4 1.4 0 0 1-1.36 1.09l-.29-.07zM167.47 48.63a1.37 1.37 0 0 1-1-.41 1.23 1.23 0 0 1-.18-.21 1.32 1.32 0 0 1-.12-.24 1.13 1.13 0 0 1-.08-.26 1.22 1.22 0 0 1 0-.54 1.29 1.29 0 0 1 .08-.26 2.62 2.62 0 0 1 .12-.24c.06-.07.11-.14.18-.21a1.43 1.43 0 0 1 1.25-.38l.28.12c.164.078.315.179.45.3l.17.21c.05.08.09.16.13.24.031.085.058.172.08.26a1.83 1.83 0 0 1 0 .54 1.34 1.34 0 0 1-.21.5 1.19 1.19 0 0 1-.39.38 1.27 1.27 0 0 1-.49.21 1.24 1.24 0 0 1-.27-.01z"/>
        <path fill="#00B8F3" d="M189.31 8.17a14.24 14.24 0 0 1 3.83 3.24 2.06 2.06 0 0 1-.54 3.1 12 12 0 0 0-4.41-4.41l1.12-1.93z"/>
        <path fill="#FFCF32" d="M171.14 39.65s-2.73-19.37.6-25.14c3.328-5.763 10.697-7.737 16.46-4.41l-17.06 29.55z"/>
        <path fill="#00B8F3" d="M163.8 19.17a.83.83 0 0 1-.83-.91 20.43 20.43 0 0 1 2.23-8 18.3 18.3 0 0 1 5.79-6.16.82.82 0 0 1 1.16.29.82.82 0 0 1-.26 1.1c-.287.187-.56.38-.82.58a16.66 16.66 0 0 0-4.43 5 18.89 18.89 0 0 0-2 7.36.83.83 0 0 1-.82.75l-.02-.01z" opacity=".6"/>
        <path fill="#00B8F3" d="M159.34 19.17a.83.83 0 0 1-.83-.91A25.33 25.33 0 0 1 161.35 8a22.77 22.77 0 0 1 6-6.84c.44-.33.89-.64 1.35-.94a.83.83 0 0 1 1.18.28.82.82 0 0 1-.26 1.1c-.43.28-.86.58-1.27.88a21.09 21.09 0 0 0-5.6 6.34 23.72 23.72 0 0 0-2.63 9.58.83.83 0 0 1-.82.76l.04.01zM194.32 40.4a.83.83 0 0 1 .24-1.09 23.67 23.67 0 0 0 7-7.07 21.09 21.09 0 0 0 2.69-8c.06-.51.1-1 .13-1.54a.83.83 0 0 1 .83-.78.82.82 0 0 1 .83.85c0 .56-.07 1.13-.14 1.68a22.78 22.78 0 0 1-2.9 8.66 25.35 25.35 0 0 1-7.47 7.6.83.83 0 0 1-1.2-.26l-.01-.05z" opacity=".4"/>
        <path fill="#00B8F3" d="M192.08 36.53a.83.83 0 0 1 .24-1.08 18.92 18.92 0 0 0 5.37-5.45 16.65 16.65 0 0 0 2.12-6.34c0-.33.07-.66.09-1a.83.83 0 0 1 .82-.79.82.82 0 0 1 .83.86c0 .37-.06.75-.1 1.12a18.29 18.29 0 0 1-2.33 7 20.48 20.48 0 0 1-5.84 6 .83.83 0 0 1-1.2-.26v-.06z" opacity=".6"/>
        <path fill="#00B8F3" d="M182.17 8.49a12 12 0 0 1 6 1.61l1.11-1.93a14.2 14.2 0 0 0-4.73-1.7 2.06 2.06 0 0 0-2.38 2.02z"/>
        <path fill="#00B8F3" d="M168.3 19.17a.83.83 0 0 1-.82-.92 15.74 15.74 0 0 1 1.6-5.8 13.81 13.81 0 0 1 3.69-4.17l.43-.31a.83.83 0 0 1 1.2.26.82.82 0 0 1-.24 1.08l-.4.29a12.24 12.24 0 0 0-3.25 3.68 13.83 13.83 0 0 0-1.4 5.14.83.83 0 0 1-.82.74l.01.01zM189.85 32.65a.83.83 0 0 1 .23-1.08 14 14 0 0 0 3.76-3.79 12.24 12.24 0 0 0 1.56-4.65v-.49a.83.83 0 1 1 1.65.16c0 .18-.02.357-.06.53a13.82 13.82 0 0 1-1.77 5.28 15.75 15.75 0 0 1-4.23 4.29.83.83 0 0 1-1.21-.25h.07z" opacity=".8"/>
        <path fill="#FFBA00" d="M194.14 22a12 12 0 0 1-1.53 4.54c-3.32 5.77-21.46 13.09-21.46 13.09l4.85-8.45 1.84-3.18 10.36-17.9a12.12 12.12 0 0 1 5.94 11.9z"/>
        <path fill="#FFF" d="M177.29 9.52a12.08 12.08 0 0 0-2.37 1.39 66.91 66.91 0 0 0 0 8.34c.27 5.55.95 10.46 1 10.51l.2 1.41 1.73-3.17c-.56-4.56-1.25-12.87-.56-18.48z"/>
        <path fill="#FFF" d="M194.14 22a66.91 66.91 0 0 1-7.21 4.21c-4.94 2.55-9.54 4.41-9.58 4.43l-1.32.53 1.82-3.17c4.25-1.81 11.79-5.37 16.31-8.77.1.921.093 1.85-.02 2.77z"/>
        <path fill="#89E7F5" d="M133.5 131.89a4.63 4.63 0 0 1-4.63 4.63h-27.3a6.73 6.73 0 1 1 1.59-13.27 6.16 6.16 0 1 1 12.09-2.18 8.22 8.22 0 0 1 12.08 6.46 4.62 4.62 0 0 1 6.17 4.37v-.01z" opacity=".4"/>
        <path fill="#7A8D92" d="M40.67 70.56a17.7 17.7 0 0 1-.38 5.57c-.15.75-.79 1.95 0 1.72.79-.23 1.07-5.49 1.07-5.49l-.69-1.8z"/>
        <path fill="#FFCF32" d="M70.55 38.4a27.79 27.79 0 0 1-4.77 19.1 23.2 23.2 0 0 1-12.62 9.09c-1.14.32-1.68 8.34-9.42 7-5.41-1-2.93-6-8.6-9.51C30.24 61 24 53.27 23 43.61a28.59 28.59 0 0 1 .15-7.47 26 26 0 0 1 10.02-17.19 22 22 0 0 1 10.71-4.21 21.44 21.44 0 0 1 6.77.33 22.08 22.08 0 0 1 5.62 2 25.74 25.74 0 0 1 10.67 10.17 28.66 28.66 0 0 1 3.61 11.16z"/>
        <path fill="#FFBA00" d="M48.65 64.55a16.5 16.5 0 0 0 6.39-3 24.23 24.23 0 0 0 6.22-6.13A27.78 27.78 0 0 0 66 36.36a28.73 28.73 0 0 0-3.6-11.16 25.85 25.85 0 0 0-9.31-9.48A21.37 21.37 0 0 1 56.27 17a25.68 25.68 0 0 1 10.67 10.23 28.6 28.6 0 0 1 3.6 11.17 27.79 27.79 0 0 1-4.76 19.1 23.19 23.19 0 0 1-12.63 9.09 19.36 19.36 0 0 1-9.55 1c-7.83-.87-14.2-8.86-14.2-8.86a23.42 23.42 0 0 0 19.25 5.82z"/>
        <ellipse cx="47.591" cy="72.446" fill="#00B8F3" rx="1.71" ry="1.5" transform="rotate(-82.46 47.59 72.446)"/>
        <path fill="#00B8F3" d="M48.24 74.61a3.13 3.13 0 0 1 1.76-.35c2.13.23 2.14-2.56 3.18-2 .45.24-1.26 2.43-1.77 2.7a6.46 6.46 0 0 0-2.58 3.17L46 79.72l-1.4-.84a38 38 0 0 1 1.7-3.82c.76-.64.86.04 1.94-.45z"/>
        <path fill="#7A8D92" d="M39.11 76s1.89 1.87 6.36 1.6a14.86 14.86 0 0 0 4.28-.68s-1 6.11-4.67 7.79c-6.97 3.21-8.65-5.35-5.97-8.71z"/>
    </g>
</svg>
