<?xml version="1.0" encoding="utf-8"?>
<!-- Generator: Adobe Illustrator 21.1.0, SVG Export Plug-In . SVG Version: 6.00 Build 0)  -->
<svg version="1.1" id="Layer_1" xmlns="http://www.w3.org/2000/svg" xmlns:xlink="http://www.w3.org/1999/xlink" x="0px" y="0px"
	 viewBox="0 0 260 260" style="enable-background:new 0 0 260 260;" xml:space="preserve">
<style type="text/css">
	.st0{opacity:0.3;fill:#90D8F0;}
	.st1{fill:#67BCEF;}
	.st2{opacity:0.6;fill:#67BCEF;}
	.st3{fill:#143C8A;}
	.st4{fill:#3AA3E3;}
	.st5{fill:#2978BE;}
	.st6{fill:#1E54A0;}
	.st7{fill:#FFFFFF;}
	.st8{fill:#90D8F0;}
	.st9{fill:#00B8F3;}
	.st10{fill:#308DD1;}
	.st11{fill:none;stroke:#3AA3E3;stroke-miterlimit:10;}
</style>
<title>HMQ Explorer</title>
<g>
	<g>
		<path class="st0" d="M240.4,150l-5.4,9.3l-8.3,14.3l-17,29.4l-4.4-4.5c-2.1-2-3.8-2-5.9-0.1l-4.8,4.4l-12.5,11.4c0,0,0,0-0.1-0.1
			c-0.7-1-7.1-9.4-12.5-16.1c-2.5-3.1-4.8-5.7-6.2-7.1c-2.7-2.6-7.4-1.7-9.1,0.9c0,0,0,0,0,0.1c0,0,0,0,0,0
			c-4.3,6.8-15.7,25.8-15.7,25.8l-17.9-37.7c-1-2.1-3.8-2.5-5.3-0.8l-8.3,9.2l-23.4,26l-5.7,6.3l-6.8-3.7l-5.9-3.2l-2.2-1.2
			c-0.9-0.5-2.1-0.5-3-0.1l-3.4,1.7l-4-6.9l-16.1-27.9l-6.5-11.3L19.5,150c-7.1-12.4-7.1-27.6,0-40l25.5-44.3l0,0l0.8-1.4l11.5-20
			c3.7-6.5,9.1-11.7,15.5-15.1c0.9-0.5,1.8-1,2.8-1.4h0c5.1-2.3,10.6-3.5,16.4-3.5h75.8c3.8,0,7.6,0.6,11.2,1.6
			c1.8,0.5,3.6,1.2,5.4,2c0.8,0.4,1.6,0.8,2.3,1.2h0c0.8,0.4,1.6,0.9,2.3,1.4c1.7,1,3.2,2.2,4.7,3.5c3.4,2.9,6.4,6.4,8.7,10.4
			l15,26.1l7.9,13.6l3.6,6.2l11.4,19.8C247.6,122.4,247.6,137.6,240.4,150z"/>
		<g>
			<path class="st1" d="M224.1,97.4c0,2.7-2.2,4.9-4.9,4.9h-28.7c-3.9,0-7.1-3.2-7.1-7.1c0-3.9,3.2-7.1,7.1-7.1
				c0.6,0,1.1,0.1,1.7,0.2c-0.1-0.5-0.2-1.1-0.2-1.7c0-3.6,2.9-6.5,6.5-6.5c3.4,0,6.2,2.6,6.5,5.9c1.2-0.7,2.6-1,4.1-1
				c4.5,0,8.2,3.4,8.6,7.8c0.5-0.2,1.1-0.3,1.6-0.3C222,92.5,224.1,94.7,224.1,97.4z"/>
			<path class="st2" d="M51.8,172.6c0,2.8,2.3,5.1,5.1,5.1h25.3c3.1,0,5.5-2.5,5.5-5.6s-2.5-5.5-5.5-5.5h-7.8
				c-1-3.7-4.4-6.4-8.4-6.4c-4.3,0-7.9,3.1-8.6,7.3c-0.2,0-0.3,0-0.5,0C54.1,167.5,51.8,169.8,51.8,172.6z"/>
			<path class="st1" d="M36.6,154.5v46.4l-8-10.3c-1.6-2.1-4.9-1.8-6.1,0.6l-12,18.4l19.6-41.3L36.6,154.5z"/>
			<path class="st3" d="M154.3,113.1v78.7c0,0,0,0,0,0c-4.3,6.8-15.7,25.8-15.7,25.8l-17.9-37.7c-1-2.1-3.8-2.5-5.3-0.8l-8.3,9.2
				v-34l10.3-17l9.9-16.4l5-8.3l5.4,5.4l6-4.8l4.7,2.3L154.3,113.1L154.3,113.1z"/>
			<path class="st4" d="M227.2,200.1c-0.6-0.1-1.3-0.1-2,0.2l-13.1,5l-2.3-2.3l-4.4-4.5c-2.1-2-3.8-2-5.9-0.1l-4.8,4.4v-41.7
				l14.2-56.4l4.1-16.4l4.5-17.9l1.2-4.9h0l4.1-2l2.2,1.9l0.3,18.6l0.2,11.2l0.1,9.5l1,68.9L227.2,200.1z"/>
			<path class="st5" d="M239.9,214l-10.5-12.6c-0.6-0.7-1.3-1.1-2.2-1.2l-0.4-26.5l-1-68.9l-0.1-9.5L225.4,84l-0.3-18.6l1.6-0.8
				l2.2,25.7l0.5,5.4l0.7,7.9l4.9,55.8L239.9,214z"/>
			<path class="st1" d="M169.6,142.4V198c-2.5-3.1-4.8-5.7-6.2-7.1c-2.7-2.6-7.4-1.7-9.1,0.9c0,0,0,0,0,0.1c0,0,0,0,0,0v-78.8l0,0
				l3.5,2l0.9-1.4l4.8,2.6L169.6,142.4z"/>
			<path class="st1" d="M65.3,173.4V214l-2.2-1.2c-0.9-0.5-2.1-0.5-3-0.1l-3.4,1.7l-4,1.9v-18.9L65.3,173.4z"/>
			<polygon class="st1" points="83.7,147.8 83.7,214.5 78,220.8 71.2,217.1 71.2,209.3 76.9,166.2 78.4,155.1 78.9,151.4 
				80.6,154.8 			"/>
			<path class="st4" d="M182.2,137v77.1c-0.7-1-7.1-9.4-12.5-16.1v-55.6l2.9-6.4l4.7-0.7l2.8,6.1L182.2,137z"/>
			<polygon class="st5" points="52.7,197.4 52.7,216.3 49.8,217.8 36.6,200.9 36.6,154.5 			"/>
			<polygon class="st5" points="71.2,209.6 71.2,217.1 65.3,214 65.3,173.4 			"/>
			<path class="st5" d="M194.7,161.1v41.6l-12.5,11.4c0,0,0,0-0.1-0.1V137l4.1,7.8l0.7-5.3l4,7.7l0,0L194.7,161.1z"/>
			<polygon class="st6" points="107.1,154.5 107.1,188.5 83.7,214.5 83.7,147.8 87.8,150.1 91.6,139.7 98.9,140.6 			"/>
			<polygon class="st7" points="163.6,116.3 158.7,113.7 157.8,115.1 154.3,113.1 154.3,113.1 148.5,115.8 143.7,113.5 137.7,118.2 
				132.3,112.8 154.3,76.4 154.3,76.4 154.3,76.4 162.7,112.5 			"/>
			<polygon class="st8" points="226.8,64.6 225.2,65.4 223,63.5 218.8,65.5 218.8,65.5 224.8,41.8 			"/>
			<polygon class="st7" points="191,147.2 190.9,147.2 187,139.5 186.3,144.8 182.2,137 180,141.4 177.3,135.3 172.6,136 182.2,115 
							"/>
			<polygon class="st7" points="98.9,140.6 91.6,139.7 87.8,150.1 83.7,147.8 80.6,154.8 78.9,151.4 83.7,115 			"/>
			<g>
				<path class="st9" d="M197.8,10.1c1.2,0.7,2.2,1.6,3.1,2.6c0.7,0.8,0.5,2-0.4,2.5v0c-0.8-1.4-2-2.7-3.6-3.6L197.8,10.1z"/>
				<g>
					<path class="st1" d="M183,35.7c0,0-2.2-15.7,0.5-20.4c0.7-1.2,1.6-2.1,2.6-2.9c0.6-0.5,1.2-0.8,1.9-1.1c2.8-1.2,6-1.2,8.8,0.5
						L183,35.7z"/>
					<path class="st8" d="M177.1,19.1c-0.4,0-0.7-0.3-0.7-0.7c0.3-2.8,0.9-4.9,1.8-6.5c1-1.8,2.3-3.3,3.9-4.5
						c0.2-0.2,0.5-0.4,0.7-0.5c0.3-0.2,0.8-0.1,0.9,0.2l0,0c0.2,0.3,0.1,0.7-0.2,0.9c-0.2,0.2-0.5,0.3-0.7,0.5
						c-1.5,1.1-2.7,2.5-3.6,4.1c-0.8,1.4-1.4,3.4-1.6,6C177.7,18.8,177.4,19.1,177.1,19.1L177.1,19.1z"/>
					<path class="st8" d="M173.5,19.1c-0.4,0-0.7-0.3-0.7-0.7c0.3-3.5,1.1-6.2,2.3-8.3c1.3-2.2,2.9-4,4.9-5.5
						c0.4-0.3,0.7-0.5,1.1-0.8c0.3-0.2,0.8-0.1,1,0.2l0,0c0.2,0.3,0.1,0.7-0.2,0.9c-0.4,0.2-0.7,0.5-1,0.7c-1.8,1.4-3.4,3.1-4.5,5.1
						c-1.1,1.9-1.8,4.5-2.1,7.8C174.1,18.8,173.8,19.1,173.5,19.1L173.5,19.1z"/>
					<path class="st8" d="M201.8,36.3c-0.2-0.3-0.1-0.7,0.2-0.9c2.7-1.9,4.5-3.8,5.7-5.7c1.2-2,1.9-4.2,2.2-6.5
						c0-0.4,0.1-0.8,0.1-1.3c0-0.4,0.3-0.6,0.7-0.6l0,0c0.4,0,0.7,0.3,0.7,0.7c0,0.5-0.1,0.9-0.1,1.4c-0.3,2.5-1.1,4.8-2.4,7
						c-1.2,2.1-3.2,4.1-6.1,6.2C202.5,36.7,202,36.6,201.8,36.3L201.8,36.3z"/>
					<path class="st8" d="M200,33.1c-0.2-0.3-0.1-0.7,0.2-0.9c2.1-1.5,3.5-3,4.4-4.4c0.9-1.6,1.5-3.3,1.7-5.1c0-0.3,0.1-0.5,0.1-0.8
						c0-0.4,0.3-0.6,0.7-0.6l0,0c0.4,0,0.7,0.3,0.7,0.7c0,0.3,0,0.6-0.1,0.9c-0.2,2-0.9,3.9-1.9,5.6c-0.9,1.6-2.5,3.2-4.7,4.8
						C200.7,33.6,200.2,33.5,200,33.1L200,33.1z"/>
					<path class="st8" d="M192,10.4L192,10.4c1.7,0,3.3,0.4,4.9,1.3l0.9-1.6c-1.2-0.7-2.5-1.2-3.8-1.4C192.9,8.6,192,9.4,192,10.4z"
						/>
					<path class="st8" d="M180.7,19.1c-0.4,0-0.7-0.3-0.7-0.7c0.2-2.1,0.7-3.6,1.3-4.7c0.8-1.3,1.8-2.5,3-3.4
						c0.1-0.1,0.2-0.2,0.3-0.3c0.3-0.2,0.8-0.1,1,0.2l0,0c0.2,0.3,0.1,0.7-0.2,0.9c-0.1,0.1-0.2,0.2-0.3,0.2c-1.1,0.8-2,1.8-2.6,3
						c-0.5,0.9-0.9,2.3-1.1,4.2C181.3,18.8,181.1,19.1,180.7,19.1L180.7,19.1z"/>
					<path class="st8" d="M198.2,30c-0.2-0.3-0.1-0.7,0.2-0.9c1.5-1.1,2.5-2.1,3-3.1c0.7-1.2,1.1-2.4,1.3-3.8c0-0.1,0-0.3,0-0.4
						c0-0.3,0.3-0.6,0.7-0.6l0,0c0.4,0,0.7,0.3,0.7,0.7c0,0.1,0,0.3,0,0.4c-0.2,1.5-0.7,2.9-1.4,4.3c-0.6,1.1-1.8,2.2-3.4,3.5
						C198.9,30.4,198.4,30.3,198.2,30L198.2,30z"/>
					<path class="st4" d="M201.7,21.4c-0.2,1.3-0.6,2.5-1.2,3.7c-2.7,4.7-17.4,10.6-17.4,10.6l4-6.9l1.5-2.6l8.4-14.5
						c2.8,1.6,4.5,4.4,4.8,7.4C201.8,19.9,201.8,20.6,201.7,21.4z"/>
					<path class="st7" d="M188,11.2c-0.7,0.3-1.3,0.7-1.9,1.1c-0.1,1.9-0.2,4.2,0,6.8c0.1,2.4,0.3,4.6,0.5,6.2
						c0.1,1.4,0.3,2.3,0.3,2.3l0.2,1.1l1.4-2.5h0l0,0v0C188,22.5,187.5,15.8,188,11.2z"/>
					<path class="st7" d="M201.7,21.4c-1.6,1.1-3.5,2.2-5.8,3.4c-4,2.1-7.7,3.6-7.8,3.6l-1.1,0.4l1.5-2.6c3.4-1.5,9.6-4.4,13.2-7.1
						C201.8,19.9,201.8,20.6,201.7,21.4z"/>
				</g>
			</g>
			<path class="st7" d="M142.5,132.9c0,2.6-2.1,4.6-4.6,4.6h-27.3c-3.7,0-6.7-3-6.7-6.7c0-3.7,3-6.7,6.7-6.7c0.5,0,1.1,0.1,1.6,0.2
				c-0.1-0.5-0.2-1.1-0.2-1.6c0-3.4,2.8-6.2,6.2-6.2c3.2,0,5.9,2.5,6.1,5.6c1.2-0.6,2.5-1,3.9-1c4.3,0,7.8,3.3,8.2,7.4
				c0.5-0.2,1-0.3,1.5-0.3C140.4,128.3,142.5,130.3,142.5,132.9z"/>
			<path class="st4" d="M49.7,71.6c0,0,0.3,2.1-0.4,5.6c-0.1,0.7-0.8,1.9,0,1.7s1.1-5.5,1.1-5.5L49.7,71.6z"/>
			<path class="st4" d="M79.5,39.4c0.8,7.1-1.1,13.9-4.8,19.1c-3.1,4.4-7.5,7.6-12.6,9.1c-1.1,0.3-1.7,8.3-9.4,7
				c-5.4-1-2.9-6-8.6-9.5C39.2,62,33,54.3,32,44.6c-0.3-2.6-0.2-5.1,0.1-7.5c1.1-7.1,4.8-13.3,10.1-17.2c3.1-2.3,6.7-3.8,10.7-4.2
				c2.3-0.3,4.6-0.1,6.8,0.3c2,0.4,3.8,1.1,5.6,2c4.4,2.2,8.1,5.7,10.7,10.2C77.8,31.5,79.1,35.3,79.5,39.4z"/>
			<path class="st10" d="M57.7,65.5c2.4-0.4,4.4-1.7,6.4-3c2.4-1.6,4.5-3.7,6.2-6.1c3.7-5.2,5.6-11.9,4.8-19.1
				c-0.4-4.1-1.7-7.9-3.6-11.2c-2.3-4-5.5-7.3-9.3-9.5c1.1,0.4,2.1,0.8,3.1,1.3c4.4,2.2,8.1,5.7,10.7,10.2c1.9,3.3,3.2,7.1,3.6,11.2
				c0.8,7.1-1.1,13.9-4.8,19.1c-3.1,4.4-7.5,7.6-12.6,9.1c0,0-3.7,1.7-9.6,1c-7.8-0.9-14.2-8.9-14.2-8.9S46,67.4,57.7,65.5z"/>
			
				<ellipse transform="matrix(0.1312 -0.9914 0.9914 0.1312 -23.6357 119.9065)" class="st5" cx="56.6" cy="73.4" rx="1.7" ry="1.5"/>
			<path class="st5" d="M57.2,75.6c0.7-0.3,1.2-0.4,1.7-0.4c2.1,0.2,2.1-2.6,3.2-2c0.5,0.2-1.3,2.4-1.8,2.7c-1.8,1-2.6,3.2-2.6,3.2
				L55,80.7l-1.4-0.8c0,0,1.4-3.6,1.7-3.8C56.1,75.4,56.2,76.1,57.2,75.6z"/>
			<path class="st3" d="M48.1,77c0,0,1.9,1.9,6.4,1.6c3.1-0.2,4.3-0.7,4.3-0.7s-1,6.1-4.7,7.8C47.1,88.9,45.4,80.4,48.1,77z"/>
		</g>
	</g>
	<path class="st11" d="M12.5,167.9l17.9-37.7c3.3-7,13.4-6.6,16.2,0.6l8.7,22.7c1.2,3.3,5.7,3.5,7.4,0.4l0,0
		c0.2-0.4,0.4-0.9,0.4-1.3l8.7-56.3c1.6-9,12.1-11.4,16.8-3.4l13.1,22.1c1.6,2.6,5.4,2.6,6.9,0l42.6-66.6c2.4-4,8.4-3.1,9.5,1.5
		l1.5,5.7c1.2,4.8,7.3,5.7,9.8,0.9l5.8-11"/>
</g>
</svg>
