<svg xmlns="http://www.w3.org/2000/svg" width="232" height="212" viewBox="0 0 232 212">
    <defs>
        <linearGradient id="a" x1="11.934%" x2="76.63%" y1="107.709%" y2="-7.709%">
            <stop offset="0%" stop-color="#FFF" stop-opacity="0"/>
            <stop offset="100%" stop-color="#9EB1B4"/>
        </linearGradient>
        <linearGradient id="b" x1="756.055%" x2="866.298%" y1="22439%" y2="21444%">
            <stop offset="0%" stop-color="#FFF" stop-opacity="0"/>
            <stop offset="100%" stop-color="#9EB1B4"/>
        </linearGradient>
        <linearGradient id="c" x1="22600%" x2="24310%" y1="11198%" y2="11198%">
            <stop offset="0%" stop-color="#FFF" stop-opacity="0"/>
            <stop offset="100%" stop-color="#9EB1B4"/>
        </linearGradient>
    </defs>
    <g fill="none" fill-rule="evenodd">
        <path fill="#60D5F2" fill-rule="nonzero" d="M78.09 211.66h75.81a40 40 0 0 0 34.64-20L226.45 126a40 40 0 0 0 0-40l-37.9-65.66a40 40 0 0 0-34.64-20H78.09a40 40 0 0 0-34.64 20L5.55 86a40 40 0 0 0 0 40l37.91 65.66a40 40 0 0 0 34.63 20z" opacity=".2"/>
        <path stroke="#C5CDD1" stroke-width=".56" d="M167.13 43.88l12.02 46.08"/>
        <g fill-rule="nonzero">
            <path fill="#0078C5" d="M182.57 90.83l-1.07 1.43a4.58 4.58 0 0 0-.85-1.63 2.62 2.62 0 0 0-1.08-.76 2.86 2.86 0 0 0-1.26-.13l1.07-1.43a2.86 2.86 0 0 1 1.26.13c.419.157.79.419 1.08.76.39.48.68 1.035.85 1.63z"/>
            <path fill="#0078C5" d="M179.38 88.31l-1.07 1.43a11.37 11.37 0 0 0-1.39.26l1.07-1.43a11.37 11.37 0 0 1 1.39-.26zM177.84 88.61l-1.07 1.42-.86-2.6 1.07-1.43z"/>
            <path fill="#0078C5" d="M177.99 88.57L176.92 90l-.15.03 1.07-1.42zM185.68 100.23l-1.07 1.43-3.12-9.4 1.08-1.43z"/>
            <path fill="#45757C" d="M188.51 107.81l-1.07 1.43-.24.06 1.07-1.43z"/>
            <path fill="#0078C5" d="M190.74 111.02l-1.08 1.43-2.22-3.21 1.07-1.43z"/>
            <path fill="#0078C5" d="M200.5 108.61l-1.08 1.43-9.76 2.41 1.08-1.43zM185.78 107.48l-1.07 1.43c.34-.462.57-.996.67-1.56a7.82 7.82 0 0 0 0-2.54 19.1 19.1 0 0 0-.78-3.16l1.07-1.43a19.1 19.1 0 0 1 .78 3.16 7.82 7.82 0 0 1 0 2.54 3.74 3.74 0 0 1-.67 1.56zM167.05 95L166 96.45a7.49 7.49 0 0 0-.76-1.7 2.69 2.69 0 0 0-.95-.9 2.57 2.57 0 0 0-1.22-.27 7.46 7.46 0 0 0-1.57.24l1.07-1.43a7.46 7.46 0 0 1 1.57-.24 2.57 2.57 0 0 1 1.22.27c.386.217.712.526.95.9a7.49 7.49 0 0 1 .74 1.68z"/>
            <path fill="#45757C" d="M162.56 92.38l-1.08 1.43-.09.02 1.08-1.43z"/>
            <path fill="#0078C5" d="M162.47 92.4l-1.08 1.43-.86-2.61 1.07-1.42zM170.69 106l-1.07 1.43-3.64-10.98 1.07-1.43z"/>
            <path fill="#00B8F3" d="M188.11 83.25l6.82 20.57c.17.588.444 1.14.81 1.63.26.336.605.595 1 .75.37.14.768.188 1.16.14a10 10 0 0 0 1.34-.24l.41-.1.86 2.61-9.78 2.39-2.22-3.2-.24.06a8.17 8.17 0 0 1-.93 2.44 6 6 0 0 1-1.44 1.7 7.26 7.26 0 0 1-1.9 1 16.42 16.42 0 0 1-2.19.7 8.11 8.11 0 0 1-6.65-.91c-1.887-1.247-3.38-3.517-4.48-6.81l-3.64-11a7.49 7.49 0 0 0-.76-1.7 2.69 2.69 0 0 0-.95-.9 2.57 2.57 0 0 0-1.22-.27 7.46 7.46 0 0 0-1.57.24h-.09l-.86-2.61 10.88-2.69 5.2 15.69a23.24 23.24 0 0 0 1.12 2.8 8.67 8.67 0 0 0 1.33 2 4 4 0 0 0 1.61 1.1 3.37 3.37 0 0 0 2 0 3.73 3.73 0 0 0 1.86-1 3.62 3.62 0 0 0 .9-1.83 7.82 7.82 0 0 0 0-2.54 19.1 19.1 0 0 0-.78-3.16l-3.12-9.4a4.58 4.58 0 0 0-.85-1.63 2.62 2.62 0 0 0-1.08-.76 2.86 2.86 0 0 0-1.26-.13 11.37 11.37 0 0 0-1.39.26h-.15L177 86l11.11-2.75z"/>
            <path fill="#0078C5" d="M187 110.86l-1.07 1.43a5.8 5.8 0 0 1-1.07 1.1 7.26 7.26 0 0 1-1.89 1.07 16.42 16.42 0 0 1-2.19.7 8.11 8.11 0 0 1-6.65-.91c-1.887-1.247-3.38-3.517-4.48-6.81l1.07-1.43c1.093 3.3 2.587 5.57 4.48 6.81a8.11 8.11 0 0 0 6.65.91A16.42 16.42 0 0 0 184 113a7.26 7.26 0 0 0 1.9-1 5.8 5.8 0 0 0 1.07-1.1"/>
        </g>
        <path stroke="#C5CDD1" stroke-width=".56" d="M178.48 43.88l.67 46.08"/>
        <path fill="#FFCF32" fill-rule="nonzero" d="M132.15 54.66c-.006 15.489-12.564 28.042-28.053 28.04-15.49-.002-28.045-12.558-28.047-28.047-.002-15.489 12.551-28.047 28.04-28.053 15.436.146 27.914 12.624 28.06 28.06z"/>
        <path fill="#00B8F3" fill-rule="nonzero" d="M82.38 31.81a1.29 1.29 0 0 1-1-2.12 23.26 23.26 0 0 1 18.17-8.43 1.29 1.29 0 0 1 0 2.58h-.2a20.68 20.68 0 0 0-16 7.5 1.29 1.29 0 0 1-.97.47z" opacity=".8"/>
        <path fill="#00B8F3" fill-rule="nonzero" d="M76.53 28.38a1.29 1.29 0 0 1-1-2.12 32.23 32.23 0 0 1 25.17-11.67 1.29 1.29 0 0 1 0 2.58h-.29a29.62 29.62 0 0 0-22.89 10.74 1.29 1.29 0 0 1-.99.47z" opacity=".6"/>
        <path fill="#00B8F3" fill-rule="nonzero" d="M68.89 25.86a1.29 1.29 0 0 1-1-2.12 44.51 44.51 0 0 1 34.84-16.17 1.29 1.29 0 0 1 0 2.58h-.41a42 42 0 0 0-32.44 15.24 1.29 1.29 0 0 1-.99.47z" opacity=".4"/>
        <path fill="#FFBA00" fill-rule="nonzero" d="M131.77 59.24c-2.222 13.553-13.946 23.494-27.68 23.47a27.78 27.78 0 0 1-4.63-.38 28.06 28.06 0 0 1-23.05-23.09c2.24-13.544 13.952-23.478 27.68-23.48 13.728.002 25.44 9.936 27.68 23.48z"/>
        <path fill="#FFF" fill-rule="nonzero" d="M131.77 59.24c-2.222 13.553-13.946 23.494-27.68 23.47a27.78 27.78 0 0 1-4.63-.38c-13.665-4.391-22.083-18.096-19.82-32.27a28.06 28.06 0 0 1 52.13 9.19v-.01z"/>
        <path fill="#FFBA00" fill-rule="nonzero" d="M131.77 59.24a28.36 28.36 0 0 1-1.15 4.57 26.61 26.61 0 0 1-1.15 2.81 28 28 0 0 1-14.9 14.06 27 27 0 0 1-3 .16h-1.47A29.08 29.08 0 0 1 83.33 45a28.11 28.11 0 0 1 27-8.48c.873.2 1.727.44 2.56.72a28.08 28.08 0 0 1 18.88 22z"/>
        <path fill="#FFCF32" fill-rule="nonzero" d="M120.42 63.36a28 28 0 0 1-10.32 17.45A29.09 29.09 0 0 1 83.33 45a28.12 28.12 0 0 1 5.75-4.83 27.76 27.76 0 0 1 3.67-.24c13.708.003 25.408 9.91 27.67 23.43z"/>
        <path fill="#FFBA00" fill-rule="nonzero" d="M138.68 48.16L135.41 61a8.1 8.1 0 0 1-4.79 2.84 26.61 26.61 0 0 1-1.15 2.81 24 24 0 0 1-4.81 0c-.36 0-.73-.08-1.1-.13a33.1 33.1 0 0 1-3.58-.71c-6-1.52-11-6.43-12.43-10.29a4.88 4.88 0 0 1-.3-2.85l2.26-8.87c2.04-8.01 9.83-13.16 18-11.9.52.08 1 .18 1.57.32l.41.11a15.13 15.13 0 0 1 8.53 6.3 15.08 15.08 0 0 1 .66 9.53z"/>
        <path stroke="#89E7F5" stroke-width="1.68" d="M127.83 50.07s9.23-25 23.53-18.15"/>
        <ellipse cx="151.007" cy="31.106" fill="#89E7F5" fill-rule="nonzero" rx="2.22" ry="3.49" transform="rotate(-76.1 151.007 31.106)"/>
        <path stroke="#00B8F3" stroke-width="1.68" d="M123.93 43.85s-4.37-26.27 11.44-27.43"/>
        <ellipse cx="136.892" cy="16.745" fill="#00B8F3" fill-rule="nonzero" rx="2.22" ry="3.49" transform="rotate(-82.98 136.892 16.745)"/>
        <path fill="#89E7F5" fill-rule="nonzero" d="M139.87 49.41l-4.2 12.78c-2 2.45-6.67 3.41-12.43 2.42l-1.1-.21a33.69 33.69 0 0 1-3.58-1c-7.58-2.49-13.26-10.47-12-14.22l2.91-8.85c2.62-7.948 10.825-12.629 19-10.84.52.12 1 .26 1.57.43l.41.14c7.847 2.834 12.016 11.395 9.41 19.32l.01.03z"/>
        <path fill="#00B8F3" fill-rule="nonzero" d="M129 47.17l-5.74 17.44-1.1-.21a33.69 33.69 0 0 1-3.58-1c-7.58-2.49-13.26-10.47-12-14.22l2.91-8.85c2.62-7.948 10.825-12.629 19-10.84.52.12 1 .26 1.57.43l.41.14c.79 3.54.96 9.05-1.47 17.11z"/>
        <path fill="#FFF" fill-rule="nonzero" d="M125.39 46.46a4.61 4.61 0 0 1-2.2 2.65 3.83 3.83 0 0 1-5.25-1.57 4.59 4.59 0 0 1-.29-3.63 4.09 4.09 0 1 1 7.74 2.55z"/>
        <path fill="#60D5F2" fill-rule="nonzero" d="M123.19 49.12a3.83 3.83 0 0 1-5.25-1.57 4.1 4.1 0 0 1 5.25 1.57z"/>
        <path fill="#FFF" fill-rule="nonzero" d="M138.08 48.5a4.64 4.64 0 0 1-1.84 2.5 2.8 2.8 0 0 1-2.4.38 2.75 2.75 0 0 1-1.64-1.57 4.57 4.57 0 0 1-.08-3.24c.7-2.12 2.59-3.4 4.24-2.85 1.65.55 2.41 2.66 1.72 4.78z"/>
        <path fill="#60D5F2" fill-rule="nonzero" d="M136.24 51a2.8 2.8 0 0 1-2.4.38 2.75 2.75 0 0 1-1.64-1.57 2.9 2.9 0 0 1 2.38-.29 2.87 2.87 0 0 1 1.66 1.48z"/>
        <path fill="#00B8F3" fill-rule="nonzero" d="M119.81 140l-2.94-.06c2.827-2.473 4.083-6.14 3.77-11a16 16 0 0 0-.81-4.16 10.56 10.56 0 0 0-2.15-3.69 10.22 10.22 0 0 0-2.26-1.84c-2.46-1.5-5.81-2.28-10.08-2.38l2.94.06c4.27.1 7.62.89 10.08 2.38a10 10 0 0 1 1.84 1.42 9.85 9.85 0 0 1 2.07 2.91 14.42 14.42 0 0 1 1.31 5.37c.28 4.84-.977 8.503-3.77 10.99z"/>
        <path fill="#00B8F3" fill-rule="nonzero" d="M106.72 144.27l-2.94-.07c5.893-.387 10.257-1.817 13.09-4.29l2.94.07c-2.833 2.473-7.197 3.903-13.09 4.29z"/>
        <g fill="#00B8F3" fill-rule="nonzero">
            <path d="M106.72 144.27l-2.94-.07c.987-.067 1.933-.16 2.84-.28l2.94.07c-.9.127-1.847.22-2.84.28"/>
            <path d="M109.55 144l-2.94-.07a27.1 27.1 0 0 0 5.2-1.19l2.94.07a27.1 27.1 0 0 1-5.2 1.19M114.75 142.79l-2.94-.07a15.07 15.07 0 0 0 5.05-2.81l2.94.07a15.07 15.07 0 0 1-5.05 2.81"/>
        </g>
        <path fill="#00B8F3" fill-rule="nonzero" d="M101.94 85.76l2.94.07c4.04.093 7.18.737 9.42 1.93 3.047 1.62 4.713 4.48 5 8.58.293 4.473-.813 7.737-3.32 9.79-2.507 2.053-6.757 3.28-12.75 3.68l-2.94-.07c6-.393 10.25-1.62 12.75-3.68s3.607-5.323 3.32-9.79c-.267-4.1-1.933-6.96-5-8.58-2.24-1.193-5.38-1.837-9.42-1.93z"/>
        <g fill="#00B8F3" fill-rule="nonzero">
            <path d="M103.21 109.8l-2.94-.07c1.193-.08 2.317-.19 3.37-.33l2.94.07a44.097 44.097 0 0 1-3.37.33"/>
            <path d="M106.58 109.47l-2.94-.07a28.15 28.15 0 0 0 5.37-1.22l2.94.07a28.15 28.15 0 0 1-5.37 1.22"/>
            <path d="M111.95 108.25l-2.94-.07a13 13 0 0 0 4-2.13c2.513-2.053 3.62-5.317 3.32-9.79-.267-4.1-1.933-6.96-5-8.58-2.24-1.193-5.38-1.837-9.42-1.93l2.94.07c4.04.093 7.18.737 9.42 1.93 3.047 1.62 4.713 4.48 5 8.58.293 4.473-.813 7.737-3.32 9.79a13 13 0 0 1-4 2.13"/>
        </g>
        <path fill="#00B8F3" fill-rule="nonzero" d="M103.26 78.38l2.94.07c-2.133-.047-4.43.01-6.89.17l-2.94-.07a79.805 79.805 0 0 1 6.89-.17z"/>
        <path fill="#00B8F3" fill-rule="nonzero" d="M99.31 78.62l-2.94-.07a79.805 79.805 0 0 1 6.89-.17l2.94.07c-2.133-.047-4.43.01-6.89.17M106.72 144.26l-4.22.28-.94.07-10.08.66-2.94-.07 2.92-.2 10.14-.66.94-.06 1.24-.08zM89.22 110.72l-2.94-.06 13.99-.92 2.94.07zM83.47 153.09l-2.94-.07-4.79-73.11 2.94.07z"/>
        <path fill="#89E7F5" fill-rule="nonzero" d="M132.71 129a17.7 17.7 0 0 0-2.9-9.09l-.67-.89c-2.94-3.6-7.677-5.743-14.21-6.43v-.51c4.57-1.14 8-3.18 10.21-6.17a15.91 15.91 0 0 0 2.91-11c-.407-6.273-2.867-10.717-7.38-13.33-4.513-2.613-11.62-3.613-21.32-3L78.68 80l4.79 73.11 17.29-1.14.93-.06 7.24-.47a44.6 44.6 0 0 0 5.37-.67c.31-.06.63-.12.93-.19a24.36 24.36 0 0 0 11.85-5.85c4-3.79 5.86-8.71 5.66-14.82 0-.34-.01-.64-.03-.91zM89.2 110.46l-1.55-23.69 12.49-.82c6.4-.427 11.123.173 14.17 1.8 3.047 1.627 4.713 4.49 5 8.59.293 4.473-.813 7.737-3.32 9.79-2.507 2.053-6.757 3.28-12.75 3.68l-14 .92-.04-.27zM119.81 140a13.55 13.55 0 0 1-2.92 1.92c-.37.18-.75.36-1.15.52a28.68 28.68 0 0 1-9 1.86l-4.22.28-.94.06-10.08.66v-.27l-1.77-27.08 14.54-1c6.23-.41 10.94.34 14.12 2.28a10.11 10.11 0 0 1 2.54 2.16 12.75 12.75 0 0 1 2.69 7.54c.05.813.05 1.627 0 2.44 0 .4-.06.78-.1 1.15a11.22 11.22 0 0 1-3.71 7.48z"/>
        <path fill="#00B8F3" fill-rule="nonzero" d="M78.68 79.98l-2.94-.07 20.63-1.35 2.94.06z"/>
        <path fill="#00B8F3" fill-rule="nonzero" d="M175.75 51.67a.76.76 0 0 1-.49.84 16.41 16.41 0 0 1-6.07 1.36 10.73 10.73 0 0 1-4.78-1.2 11.794 11.794 0 0 1-.63-.36.56.56 0 0 1 0-.84.67.67 0 0 1 .82-.22l.56.32a9.77 9.77 0 0 0 4.34 1.09 15.2 15.2 0 0 0 5.56-1.26.48.48 0 0 1 .68.26l.01.01z" opacity=".6"/>
        <path fill="#00B8F3" fill-rule="nonzero" d="M176.57 54.52a.76.76 0 0 1-.49.84 20.37 20.37 0 0 1-7.76 1.74 13.36 13.36 0 0 1-5.93-1.49c-.31-.17-.62-.35-.91-.54a.56.56 0 0 1 0-.85.66.66 0 0 1 .83-.22c.28.18.56.35.86.5a12.37 12.37 0 0 0 5.5 1.38 19.09 19.09 0 0 0 7.24-1.64.48.48 0 0 1 .68.26l-.02.02z" opacity=".4"/>
        <path fill="#00B8F3" fill-rule="nonzero" d="M174.93 48.8a.76.76 0 0 1-.5.85 12.66 12.66 0 0 1-4.38 1 8.1 8.1 0 0 1-3.62-.91l-.3-.17a.56.56 0 0 1 0-.86.67.67 0 0 1 .81-.22l.28.15a7.18 7.18 0 0 0 3.19.8 11.13 11.13 0 0 0 3.88-.89.48.48 0 0 1 .67.27l-.03-.02z" opacity=".8"/>
        <path fill="#00B8F3" fill-rule="nonzero" d="M169.22 33.39a.66.66 0 0 1 .43-.74 14.31 14.31 0 0 1 5.3-1.18 9.36 9.36 0 0 1 4.17 1.05l.55.32a.49.49 0 0 1 0 .73.58.58 0 0 1-.72.19l-.49-.28a8.52 8.52 0 0 0-3.79-1 13.26 13.26 0 0 0-4.85 1.1.42.42 0 0 1-.59-.23l-.01.04z" opacity=".6"/>
        <path fill="#00B8F3" fill-rule="nonzero" d="M168.5 30.9a.66.66 0 0 1 .42-.73 17.77 17.77 0 0 1 6.77-1.52 11.65 11.65 0 0 1 5.18 1.3c.27.14.54.3.79.47a.49.49 0 0 1 0 .74.58.58 0 0 1-.72.19c-.24-.16-.49-.31-.75-.44a10.8 10.8 0 0 0-4.8-1.21 16.66 16.66 0 0 0-6.32 1.43.42.42 0 0 1-.6-.23h.03z" opacity=".4"/>
        <path fill="#00B8F3" fill-rule="nonzero" d="M169.94 35.89a.66.66 0 0 1 .43-.74 11 11 0 0 1 3.82-.86 7.07 7.07 0 0 1 3.16.79l.26.15a.49.49 0 0 1 0 .75.58.58 0 0 1-.7.2l-.24-.13a6.26 6.26 0 0 0-2.78-.7 9.71 9.71 0 0 0-3.39.77.42.42 0 0 1-.59-.23h.03z" opacity=".8"/>
        <path fill="#00B8F3" fill-rule="nonzero" d="M164.2 44.5a3.54 3.54 0 0 1-.28-.33 2.35 2.35 0 0 1-.52-1.33 2.16 2.16 0 0 1 .11-.73 1.81 1.81 0 0 0-1 2.88c.83.93 1.81.69 2.79.37a6.19 6.19 0 0 1-1.1-.86z"/>
        <path fill="#FFCF32" fill-rule="nonzero" d="M174 37.84a28.86 28.86 0 0 0-3 .16 14.59 14.59 0 0 0-3.49.88 11.69 11.69 0 0 0-1.57.71 4.83 4.83 0 0 0-2.45 2.51 2.16 2.16 0 0 0-.11.73c.248-.24.509-.467.78-.68 3.17-2.51 7.61-3 11.46-2.88-.54-.5-1.11-.99-1.62-1.43z"/>
        <path fill="#FFBA00" fill-rule="nonzero" d="M175.65 39.29c-3.85-.16-8.29.36-11.46 2.88-.271.213-.532.44-.78.68.031.487.213.951.52 1.33.087.116.18.226.28.33.323.329.682.62 1.07.87a7.37 7.37 0 0 0 1.77.85 10 10 0 0 0 2.42.44 51.58 51.58 0 0 0 6.16-7.33l.02-.05z"/>
        <path stroke="#FFBA00" stroke-width=".01" d="M183.69 40.54s.02 0 0 0z"/>
        <path fill="#FFCF32" fill-rule="nonzero" d="M175.68 37.87c.51.45 1 .92 1.52 1.43l.1.1a36.68 36.68 0 0 1 6.37 1.15c-.08-.11-2.39-2.34-7.99-2.68z"/>
        <path fill="#FFBA00" fill-rule="nonzero" d="M177.3 39.4l-.61.88-.11.16a52.58 52.58 0 0 1-5.14 6.18c.32 0 .65 0 1-.1.61-.1.69-.12 1.94-.4a16.09 16.09 0 0 0 6-3 29.16 29.16 0 0 1 3.36-2.63 36.68 36.68 0 0 0-6.44-1.09z"/>
        <path stroke="#FFBA00" stroke-width=".01" d="M175.65 39.29h.01z"/>
        <path fill="url(#a)" fill-rule="nonzero" d="M95.37 190.6l-9.41.33 7.32-4.67 10.78.21z" opacity=".5"/>
        <path fill="url(#b)" fill-rule="nonzero" d="M137.09 200.03l-11.16-2.76 21.89-4.25 12.97-.86z" opacity=".3"/>
        <path fill="#C5CDD1" fill-rule="nonzero" d="M102.85 191.9l-46.96 1.76 3.84-1.5 46.54-1.63z" opacity=".5"/>
        <g fill-rule="nonzero" opacity=".85">
            <path fill="#0078C5" d="M105.67 180.91l1.54-.84.6 9.62-1.54.84z"/>
            <path fill="#0078C5" d="M69.24 182.18l1.54-.83 36.43-1.28-1.54.84z"/>
            <path fill="#0078C5" d="M67.72 108.13l1.54-.83 1.52 74.05-1.54.83zM58.94 108.44l1.53-.84 8.79-.3-1.54.83z"/>
            <path fill="#00B8F3" d="M105.67 180.91l.6 9.62-46.54 1.63-.79-83.72 8.78-.31 1.52 74.05z"/>
        </g>
        <path stroke="#C5CDD1" stroke-width=".56" d="M35.93 91.94l5.62-26.84"/>
        <g fill-rule="nonzero" opacity=".9">
            <g fill="#00B8F3">
                <path d="M33.21 128.9l1.06-.27a4.75 4.75 0 0 1-4.03-.82l-1.06.27a4.75 4.75 0 0 0 4.03.82z"/>
                <path d="M30.24 127.81l-1.06.27a4.75 4.75 0 0 0 4.03.82l1.06-.27a4.75 4.75 0 0 1-4.03-.82"/>
            </g>
            <path fill="#00B8F3" d="M35.16 88.23l-1.06.28-14.52 6.12 1.06-.27z"/>
            <g fill="#00B8F3">
                <path d="M20.64 94.36l-1.06.27a4.75 4.75 0 0 0-2.85 3.78l1.06-.27a4.75 4.75 0 0 1 2.85-3.78z"/>
                <path d="M20.64 94.36l-1.06.27-.36.17 1.06-.27.36-.17"/>
                <path d="M20.28 94.53l-1.06.27a4.74 4.74 0 0 0-.51.31l1.06-.27a4.74 4.74 0 0 1 .51-.31"/>
                <path d="M19.76 94.84l-1.06.27a4.73 4.73 0 0 0-.54.44l1.06-.27c.169-.16.35-.307.54-.44M19.23 95.28l-1.06.27a4.74 4.74 0 0 0-.64.75l1.06-.27a4.74 4.74 0 0 1 .64-.75"/>
                <path d="M18.59 96l-1.06.27a4.76 4.76 0 0 0-.75 1.78l1.06-.27a4.76 4.76 0 0 1 .75-1.78M17.83 97.81l-1.06.27c0 .107-.017.213-.05.32l1.06-.27c0-.107.017-.213.05-.32"/>
            </g>
            <path fill="#00B8F3" d="M17.67 118.22l-1.06.27 12.57 9.59 1.06-.27zM17.78 98.13l-1.06.27-1.95 15.71 1.07-.27z"/>
            <g fill="#00B8F3">
                <path d="M15.83 113.84l-1.06.27a4.76 4.76 0 0 0 1.83 4.39l1.06-.27a4.76 4.76 0 0 1-1.83-4.39z"/>
                <path d="M15.83 113.84l-1.06.27a4.78 4.78 0 0 0 0 .67l1.06-.27a4.78 4.78 0 0 1 0-.67"/>
                <path d="M15.8 114.51l-1.06.27c.003.231.023.462.06.69l1.06-.27a4.76 4.76 0 0 1-.06-.69"/>
                <path d="M15.86 115.19l-1.06.27c.03.2.074.396.13.59l1.06-.27a4.76 4.76 0 0 1-.13-.59M16 115.78l-1.06.27c.052.184.116.364.19.54l1.06-.27a4.76 4.76 0 0 1-.19-.54"/>
                <path d="M16.18 116.32l-1.06.27c.076.178.163.352.26.52l1.06-.27a4.76 4.76 0 0 1-.26-.52"/>
                <path d="M16.44 116.83l-1.06.27c.105.177.222.348.35.51l1.06-.27a4.75 4.75 0 0 1-.35-.51M16.79 117.35l-1.06.27c.152.196.32.38.5.55l1.06-.27a4.74 4.74 0 0 1-.5-.55M17.29 117.9l-1.06.27c.121.113.248.22.38.32l1.06-.27a4.76 4.76 0 0 1-.38-.32"/>
            </g>
            <path fill="#89E7F5" d="M36.41 87.91a4.74 4.74 0 0 0-1.24.33l-14.53 6.12a4.75 4.75 0 0 0-2.85 3.78l-1.95 15.71a4.76 4.76 0 0 0 1.83 4.39l12.57 9.59a4.75 4.75 0 0 0 3.45.93 4.69 4.69 0 0 0 1.24-.33l14.54-6.12a4.73 4.73 0 0 0 2.84-3.78l2-15.72a4.77 4.77 0 0 0-1.83-4.38l-12.57-9.59a4.76 4.76 0 0 0-3.5-.93z"/>
        </g>
        <path fill="#00B8F3" fill-rule="nonzero" d="M34.29 93.14a2.57 2.57 0 1 0 5-1 2.57 2.57 0 0 0-3-2 2.57 2.57 0 0 0-2 3z"/>
        <path fill="#FFF" fill-rule="nonzero" d="M34.79 93.46c.12.575.434 1.09.89 1.46a2.56 2.56 0 0 0 3.64-2.83 2.53 2.53 0 0 0-.89-1.46 2.59 2.59 0 0 0-.59-.2 2 2 0 0 0-.6-.06 2.06 2.06 0 0 0-.46 0l-.22.06a2.16 2.16 0 0 0-.56.24 2.55 2.55 0 0 0-1.21 2.79z"/>
        <path fill="#C5CDD1" fill-rule="nonzero" d="M36.14 91.14c.118.19.31.32.53.36a.61.61 0 0 0 .24 0c.5-.1.83-.85.9-1v-.05l10.3-24.65-.51-.21-10.34 24.7a.62.62 0 0 1 0 .1c-.16.35-.38.6-.45.57-.25-.05-.24-.33-.22-.47a2.16 2.16 0 0 0-.56.24.85.85 0 0 0 .11.41z"/>
        <path fill="#00B8F3" fill-rule="nonzero" d="M55.41 52.61a9.65 9.65 0 0 0-2.87-1.82 1.4 1.4 0 0 0-1.9 1 8.14 8.14 0 0 1 3.75 2l1.02-1.18z"/>
        <path fill="#FFCF32" fill-rule="nonzero" d="M38.75 70.77s13.09-2.18 16.14-5.5a8.17 8.17 0 0 0-.5-11.55L38.75 70.77z"/>
        <path fill="#00B8F3" fill-rule="nonzero" d="M53.49 71.35a.56.56 0 0 0 .76.35A13.85 13.85 0 0 0 59 68.62a12.41 12.41 0 0 0 2.57-4.27c.087-.24.163-.483.23-.73a.56.56 0 0 0-.42-.69.56.56 0 0 0-.66.39c-.06.22-.13.44-.21.65a11.3 11.3 0 0 1-2.34 3.88 12.81 12.81 0 0 1-4.35 2.8.56.56 0 0 0-.32.68l-.01.02z" opacity=".6"/>
        <path fill="#00B8F3" fill-rule="nonzero" d="M54.4 74.24a.56.56 0 0 0 .75.35 17.18 17.18 0 0 0 6.06-3.93 15.44 15.44 0 0 0 3.19-5.3c.12-.35.23-.71.33-1.06a.56.56 0 0 0-.42-.71.56.56 0 0 0-.66.39c-.09.34-.2.67-.31 1a14.3 14.3 0 0 1-3 4.92 16.09 16.09 0 0 1-5.66 3.65.56.56 0 0 0-.32.68l.04.01zM33.54 55.94a.56.56 0 0 0 .66-.38 16.05 16.05 0 0 1 3.15-6A14.3 14.3 0 0 1 42 46.22c.32-.14.64-.28 1-.4a.56.56 0 0 0 .33-.7.56.56 0 0 0-.72-.36c-.36.13-.71.28-1.06.43a15.45 15.45 0 0 0-5 3.64 17.19 17.19 0 0 0-3.4 6.38.56.56 0 0 0 .41.72l-.02.01z" opacity=".4"/>
        <path fill="#00B8F3" fill-rule="nonzero" d="M36.51 56.59a.56.56 0 0 0 .65-.37 12.83 12.83 0 0 1 2.42-4.58A11.29 11.29 0 0 1 43.25 49l.62-.26a.56.56 0 0 0 .35-.7.56.56 0 0 0-.73-.36l-.7.29a12.4 12.4 0 0 0-4 2.93 13.89 13.89 0 0 0-2.66 5 .56.56 0 0 0 .41.73l-.03-.04z" opacity=".6"/>
        <path fill="#00B8F3" fill-rule="nonzero" d="M56.66 57.29a8.14 8.14 0 0 0-2.27-3.57l1-1.11a9.63 9.63 0 0 1 2.06 2.71 1.39 1.39 0 0 1-.79 1.97z"/>
        <path fill="#00B8F3" fill-rule="nonzero" d="M52.57 68.45a.56.56 0 0 0 .76.35 10.67 10.67 0 0 0 3.43-2.21 9.37 9.37 0 0 0 1.95-3.24l.11-.34a.57.57 0 0 0-.42-.72.55.55 0 0 0-.65.37l-.1.32a8.3 8.3 0 0 1-1.72 2.85 9.38 9.38 0 0 1-3 2 .56.56 0 0 0-.31.68l-.05-.06zM39.47 57.25a.56.56 0 0 0 .65-.37 9.48 9.48 0 0 1 1.68-3.2 8.3 8.3 0 0 1 2.69-2l.3-.13a.56.56 0 0 0 .32-.68.57.57 0 0 0-.76-.35l-.33.14A9.37 9.37 0 0 0 41 52.92a10.68 10.68 0 0 0-1.91 3.61.56.56 0 0 0 .41.73l-.03-.01z" opacity=".8"/>
        <path fill="#FFBA00" fill-rule="nonzero" d="M45.47 52.31a8.12 8.12 0 0 0-2.63 1.92c-3.05 3.32-4.09 16.55-4.09 16.55l4.48-4.88 1.67-1.82 9.49-10.35a8.22 8.22 0 0 0-8.92-1.41v-.01z"/>
        <path fill="#FFF" fill-rule="nonzero" d="M44.9 64.07l-1.67 1.82.95-.16s3.35-.56 7-1.52a45.37 45.37 0 0 0 5.39-1.72 8.19 8.19 0 0 0 .43-1.82 60.82 60.82 0 0 1-12.1 3.4z"/>
        <path fill="#FFF" fill-rule="nonzero" d="M45.47 52.31a45.37 45.37 0 0 0-1.25 5.52c-.64 3.71-.91 7.07-.92 7.1l-.07 1 1.67-1.82a60.76 60.76 0 0 1 2.35-12.33 8.19 8.19 0 0 0-1.78.53z"/>
        <path fill="#00B8F3" fill-rule="nonzero" d="M36.35 109a4.84 4.84 0 1 1 4.61 5c-.55 0-.16 3.66-.16 3.66s-4.61-5.26-4.45-8.66zM25 106.92a4.84 4.84 0 1 1 4.61 5c-.55 0-.16 3.66-.16 3.66s-4.64-5.29-4.45-8.66z"/>
        <path fill="url(#c)" fill-rule="nonzero" d="M198 188c-2.77 1.83-10.64 4.62-17.2 5.6-6.56.98-8.91-2.94-6.14-4.77 2.77-1.83 10.24-3.5 16.68-3.72 6.44-.22 9.46 1.09 6.66 2.89z" opacity=".3"/>
        <path fill="#00B8F3" fill-rule="nonzero" d="M202.2 123.84a6.32 6.32 0 0 1 1.7 1.44.91.91 0 0 1-.24 1.38 5.33 5.33 0 0 0-2-2l.54-.82z"/>
        <path fill="#FFCF32" fill-rule="nonzero" d="M194.14 137.81s-1.21-8.6.27-11.15a5.35 5.35 0 0 1 7.3-2l-7.57 13.15z"/>
        <path fill="#00B8F3" fill-rule="nonzero" d="M190.88 128.72a.37.37 0 0 1-.37-.41 9.07 9.07 0 0 1 1-3.56 8.12 8.12 0 0 1 2.16-2.44l.41-.29a.37.37 0 0 1 .52.13.37.37 0 0 1-.11.49l-.37.26a7.39 7.39 0 0 0-2 2.22 8.38 8.38 0 0 0-.89 3.27.37.37 0 0 1-.36.33h.01z" opacity=".6"/>
        <path fill="#00B8F3" fill-rule="nonzero" d="M188.9 128.72a.37.37 0 0 1-.37-.4 11.24 11.24 0 0 1 1.26-4.56 10.11 10.11 0 0 1 2.68-3c.19-.15.39-.29.6-.42a.37.37 0 0 1 .52.12.37.37 0 0 1-.11.49c-.19.12-.38.26-.56.39a9.36 9.36 0 0 0-2.49 2.81 10.53 10.53 0 0 0-1.17 4.25.37.37 0 0 1-.36.34v-.02zM204.42 138.14a.37.37 0 0 1 .11-.48 10.5 10.5 0 0 0 3.1-3.14 9.36 9.36 0 0 0 1.19-3.56c0-.23 0-.46.06-.69a.37.37 0 0 1 .37-.34.36.36 0 0 1 .37.38c0 .25 0 .5-.06.74a10.11 10.11 0 0 1-1.29 3.84 11.25 11.25 0 0 1-3.32 3.37.37.37 0 0 1-.53-.12z" opacity=".4"/>
        <path fill="#00B8F3" fill-rule="nonzero" d="M203.43 136.42a.37.37 0 0 1 .11-.48 8.4 8.4 0 0 0 2.38-2.41c.5-.864.82-1.82.94-2.81v-.44a.37.37 0 1 1 .74.03v.5a8.12 8.12 0 0 1-1 3.09 9.09 9.09 0 0 1-2.59 2.64.37.37 0 0 1-.53-.11l-.05-.01z" opacity=".6"/>
        <path fill="#00B8F3" fill-rule="nonzero" d="M199 124c.938 0 1.859.25 2.67.72l.49-.86a6.3 6.3 0 0 0-2.1-.75.91.91 0 0 0-1.06.89z"/>
        <path fill="#00B8F3" fill-rule="nonzero" d="M192.88 128.72a.37.37 0 0 1-.37-.41 7 7 0 0 1 .71-2.57 6.13 6.13 0 0 1 1.64-1.85l.19-.14a.37.37 0 0 1 .53.12.36.36 0 0 1-.1.48l-.18.13a5.43 5.43 0 0 0-1.44 1.63 6.14 6.14 0 0 0-.62 2.28.37.37 0 0 1-.36.33zM202.44 134.7a.37.37 0 0 1 .1-.48 6.21 6.21 0 0 0 1.67-1.68 5.43 5.43 0 0 0 .69-2.06v-.22a.36.36 0 0 1 .36-.33.37.37 0 0 1 .37.4v.24a6.13 6.13 0 0 1-.79 2.34 7 7 0 0 1-1.88 1.9.37.37 0 0 1-.53-.11h.01z" opacity=".8"/>
        <path fill="#FFBA00" fill-rule="nonzero" d="M204.34 130a5.32 5.32 0 0 1-.68 2c-1.47 2.56-9.53 5.81-9.53 5.81l2.17-3.76.81-1.4 4.6-8a5.38 5.38 0 0 1 2.63 5.29v.06z"/>
        <path fill="#FFF" fill-rule="nonzero" d="M196.87 124.44a5.36 5.36 0 0 0-1.05.62 29.69 29.69 0 0 0 0 3.7c.12 2.46.42 4.64.43 4.67l.09.62.81-1.4a39.8 39.8 0 0 1-.28-8.21z"/>
        <path fill="#FFF" fill-rule="nonzero" d="M204.34 130a29.69 29.69 0 0 1-3.2 1.87c-2.19 1.13-4.23 2-4.25 2l-.59.23.81-1.4a39.76 39.76 0 0 0 7.24-3.89c.04.396.037.795-.01 1.19z"/>
        <g fill-rule="nonzero" opacity=".85">
            <g fill="#0078C5">
                <path d="M184.36 156.09l1.85-.86a8.36 8.36 0 0 0-2.69 2 13.21 13.21 0 0 0-3.08 7.92l-1.85.86a13.21 13.21 0 0 1 3.08-7.92 8.36 8.36 0 0 1 2.69-2z"/>
                <path d="M184.36 156.09l1.85-.86a8.36 8.36 0 0 0-2.69 2c-.418.461-.793.96-1.12 1.49l-1.85.86a10.13 10.13 0 0 1 1.12-1.49 8.36 8.36 0 0 1 2.69-2"/>
                <path d="M180.54 159.57l1.85-.86a11.44 11.44 0 0 0-.81 1.58l-1.85.86c.229-.547.5-1.075.81-1.58"/>
                <path d="M179.73 161.14l1.85-.86a13.64 13.64 0 0 0-.57 1.65l-1.85.86a13.64 13.64 0 0 1 .57-1.65"/>
                <path d="M179.16 162.79l1.85-.86a16.91 16.91 0 0 0-.42 1.95l-1.85.86a16.91 16.91 0 0 1 .42-1.95M178.74 164.74l1.85-.86c-.06.407-.11.823-.15 1.25l-1.85.86c.04-.427.09-.843.15-1.25"/>
            </g>
            <g fill="#0078C5">
                <path d="M178.46 170.5l1.85-.86c.107 4.293 1.183 7.557 3.23 9.79 2 2.22 4.94 3.35 8.66 3.37a29.23 29.23 0 0 0 11.64-2.43l-1.85.86a29.23 29.23 0 0 1-11.64 2.43c-3.72 0-6.61-1.14-8.66-3.37-2.05-2.23-3.12-5.5-3.23-9.79z"/>
                <path d="M178.46 170.5l1.85-.86c0 .493.027.97.08 1.43l-1.85.86a24.65 24.65 0 0 1-.08-1.43"/>
                <path d="M178.53 171.93l1.85-.86c.07.894.201 1.783.39 2.66l-1.85.86a20.17 20.17 0 0 1-.39-2.66M178.92 174.6l1.85-.86c.18.833.43 1.65.75 2.44l-1.85.86a14.77 14.77 0 0 1-.75-2.44"/>
                <path d="M179.67 177l1.85-.86a10.79 10.79 0 0 0 2 3.25 9.73 9.73 0 0 0 1.47 1.3l-1.85.86a9.73 9.73 0 0 1-1.47-1.3 10.79 10.79 0 0 1-2-3.25M183.16 181.58l1.85-.86a9.83 9.83 0 0 0 1.47.87l-1.85.86a9.83 9.83 0 0 1-1.47-.87M184.62 182.46l1.85-.86c.43.21.875.39 1.33.54l-1.8.86c-.455-.15-.9-.33-1.33-.54M186 183l1.85-.86c.465.152.94.275 1.42.37l-1.85.86A12.18 12.18 0 0 1 186 183"/>
                <path d="M187.37 183.37l1.85-.86a14.41 14.41 0 0 0 1.66.23l-1.85.86a14.41 14.41 0 0 1-1.66-.23"/>
                <path d="M189 183.59l1.85-.86c.427.033.867.05 1.32.05h1.14l-1.85.86h-1.14c-.453 0-.893-.017-1.32-.05M191.49 183.63l1.85-.86a28 28 0 0 0 3.58-.37l-1.85.86a28 28 0 0 1-3.58.37"/>
                <path d="M195.07 183.26l1.85-.86a29.57 29.57 0 0 0 4.45-1.11l-1.85.86a29.57 29.57 0 0 1-4.45 1.11M199.53 182.15l1.85-.86c.82-.273 1.64-.583 2.46-.93l-1.85.86c-.82.347-1.64.657-2.46.93"/>
            </g>
            <path fill="#0078C5" d="M201.99 181.22l1.85-.86v4.93l-1.85.86zM178.59 165.99l1.85-.85 19.06.07-1.86.85zM203.56 167.09l1.85-.86v3.5l-1.85.86z"/>
            <g fill="#0078C5">
                <path d="M182 152l1.85-.86a15.84 15.84 0 0 1 6.77-1.37c4.573 0 8.187 1.52 10.84 4.56 2.653 3.04 3.987 7.017 4 11.93l-1.85.86c0-4.94-1.333-8.917-4-11.93s-6.28-4.533-10.84-4.56A15.84 15.84 0 0 0 182 152z"/>
                <path d="M182 152l1.85-.86c.469-.217.95-.407 1.44-.57l-1.85.86c-.49.163-.971.353-1.44.57"/>
                <path d="M183.4 151.39l1.85-.86a15.09 15.09 0 0 1 2.27-.56l-1.85.86a15.09 15.09 0 0 0-2.27.56M185.67 150.83l1.85-.86a17.59 17.59 0 0 1 2.25-.22l-1.85.86a17.59 17.59 0 0 0-2.25.22"/>
                <path d="M187.92 150.61l1.85-.86h.81c.513 0 1.013.02 1.5.06l-1.85.86c-.487-.04-.987-.06-1.5-.06h-.81"/>
                <path d="M190.23 150.65l1.85-.86a16.7 16.7 0 0 1 1.92.27l-1.85.86a16.7 16.7 0 0 0-1.92-.27"/>
                <path d="M192.15 150.92l1.85-.86c.575.112 1.143.26 1.7.44l-1.85.86a14.56 14.56 0 0 0-1.7-.44M193.85 151.36l1.85-.86c.564.186 1.116.41 1.65.67l-1.85.86a13.24 13.24 0 0 0-1.65-.67"/>
                <path d="M195.49 152l1.85-.86a12.64 12.64 0 0 1 1.88 1.12l-1.85.86a12.64 12.64 0 0 0-1.88-1.12M197.37 153.15l1.85-.86a13.27 13.27 0 0 1 2.2 2 14.88 14.88 0 0 1 2.62 4.24l-1.85.86a14.88 14.88 0 0 0-2.62-4.24 13.27 13.27 0 0 0-2.2-2M202.19 159.4l1.85-.86c.375.923.67 1.876.88 2.85l-1.85.86a17.25 17.25 0 0 0-.88-2.85M203.07 162.25l1.85-.86a21 21 0 0 1 .41 2.77l-1.85.86a21 21 0 0 0-.41-2.77"/>
                <path d="M203.48 165l1.85-.86c.053.667.08 1.357.08 2.07l-1.85.86c0-.707-.027-1.397-.08-2.07"/>
            </g>
            <path fill="#00B8F3" d="M203.56 167.09v3.5l-25.1-.09c.107 4.293 1.183 7.557 3.23 9.79 2 2.22 4.94 3.35 8.66 3.37a29.23 29.23 0 0 0 11.65-2.44v4.93a29.22 29.22 0 0 1-5.54 1.8 31.32 31.32 0 0 1-6.3.52c-5.387 0-9.637-1.667-12.75-5-3.113-3.333-4.67-7.907-4.67-13.72 0-5.893 1.45-10.56 4.35-14a14.36 14.36 0 0 1 11.66-5.16c4.573 0 8.187 1.52 10.84 4.56 2.653 3.04 3.977 7.02 3.97 11.94zm-25-1.09l19.05.07c0-3.487-.777-6.153-2.33-8a8.2 8.2 0 0 0-6.64-2.8 9 9 0 0 0-7 2.85 13.21 13.21 0 0 0-3.08 7.92V166z"/>
        </g>
        <g fill="#00B8F3" fill-rule="nonzero">
            <path d="M126.87 178.95l-2.56-.74c1.755.49 3.567.75 5.39.77l2.56.74a20.92 20.92 0 0 1-5.39-.77"/>
            <path d="M132.26 179.72l-2.56-.72h.55a22.26 22.26 0 0 0 5.2-.58l2.56.74a22.26 22.26 0 0 1-5.2.58h-.55M138 179.15l-2.56-.74a17 17 0 0 0 3.5-1.24l2.56.74a17 17 0 0 1-3.5 1.24"/>
            <path d="M141.5 177.91l-2.56-.74a15.49 15.49 0 0 0 3-1.93l2.56.74a15.49 15.49 0 0 1-3 1.93"/>
            <path d="M144.52 176l-2.56-.74a16.54 16.54 0 0 0 2.67-2.76l2.56.74a16.54 16.54 0 0 1-2.67 2.76"/>
        </g>
        <path fill="#00B8F3" fill-rule="nonzero" d="M152.39 154.21v.66a52 52 0 0 1-.41 5.45c-.09.64-.18 1.26-.3 1.86a34.13 34.13 0 0 1-.91 3.85c-.13.42-.26.82-.41 1.22a21 21 0 0 1-3.17 6l-2.56-.74a22 22 0 0 0 3.53-7 32.62 32.62 0 0 0 1-4.51 50.55 50.55 0 0 0 .62-6.71v-.75-1a39.81 39.81 0 0 0-1.39-11.18 22 22 0 0 0-.82-2.39 19.7 19.7 0 0 0-2.36-4.27l-.13-.17a15.33 15.33 0 0 0-8.05-5.47l2.56.74a15.43 15.43 0 0 1 5.4 2.75c.536.423 1.04.884 1.51 1.38.453.478.877.982 1.27 1.51a18.32 18.32 0 0 1 1.71 2.84l.36.76c.15.32.29.65.42 1a38 38 0 0 1 2.13 14.17z"/>
        <path fill="#89E7F5" fill-rule="nonzero" d="M159 146.91c-.57-7.53-7.35-7.26-8.73-7a38 38 0 0 1 2.08 14.26 10.85 10.85 0 0 0 4.48-.08c1.51-1.09 2.43-4.33 2.17-7.18zm-1.84-14.1c-.17-.28-.35-.55-.54-.82-.19-.27-.55-.8-.85-1.2-.3-.4-.6-.77-.91-1.14-5.1-6.047-12.077-9.073-20.93-9.08-9.16 0-16.36 3-21.62 8.87-5.26 5.87-8 14.18-8.16 24.78a41.58 41.58 0 0 0 3.29 17.92 26.05 26.05 0 0 0 9.95 11.75 27.65 27.65 0 0 0 15 4.08 36.71 36.71 0 0 0 4.35-.25c.34 0 .67-.07 1-.13a27.83 27.83 0 0 0 8.38-2.5c.41-.19.8-.4 1.19-.62a25.41 25.41 0 0 0 6.79-5.47 27.87 27.87 0 0 0 2.56-3.37c.4-.61.78-1.24 1.12-1.88a32.36 32.36 0 0 0 2.71-6.59c.08-.27.16-.54.22-.81a42.4 42.4 0 0 0 1.27-6.83c.08-.667.143-1.377.19-2.13.07-1 .12-2.11.14-3.21.147-8.593-1.557-15.72-5.11-21.38l-.04.01zm-20.73 46.63a5.54 5.54 0 0 1-.79.11 22.53 22.53 0 0 1-2.89.18c-6.27 0-11-2.19-14.16-6.52s-4.65-10.68-4.51-19c.14-8.32 1.84-14.69 5.1-18.92 3.26-4.23 8-6.35 14.3-6.35 4.713 0 8.553 1.183 11.52 3.55a14 14 0 0 1 1.51 1.38c.453.478.877.982 1.27 1.51a18.32 18.32 0 0 1 1.71 2.84l.36.76c.15.32.29.65.42 1a38 38 0 0 1 2.08 14.26v.66a52 52 0 0 1-.41 5.45c-.09.64-.18 1.26-.3 1.86a34.13 34.13 0 0 1-.91 3.85c-.13.42-.26.82-.41 1.22a21 21 0 0 1-3.17 6 16 16 0 0 1-10.67 6.16h-.05z"/>
        <path fill="#00B8F3" fill-rule="nonzero" d="M132.71 129a18.45 18.45 0 0 0-9.12 2.43c0 .4-.06.78-.1 1.15a17.19 17.19 0 0 1 9.25-2.67c0-.34-.01-.64-.03-.91zm-18.41 21.74c.31-.06.63-.12.93-.19.2-2.94.754-5.843 1.65-8.65-.37.18-.75.36-1.15.52a39.41 39.41 0 0 0-1.43 8.32z" opacity=".15"/>
        <path fill="#0078C5" fill-rule="nonzero" d="M102.54 144.28v.26a50.18 50.18 0 0 0-.8 7.34l-.93.06a52 52 0 0 1 .79-7.34 2.31 2.31 0 0 1 0-.27l.94-.05zM129.13 119a31.81 31.81 0 0 0-8.94 1.7c.24.23.47.48.69.74a31.51 31.51 0 0 1 8.92-1.55l-.67-.89z" opacity=".2"/>
        <path fill="#0078C5" fill-rule="nonzero" d="M120.88 121.42a23.41 23.41 0 0 0-2.24.86 9.74 9.74 0 0 0-1-1.25 18.07 18.07 0 0 1 2.51-.35c.258.232.502.479.73.74z" opacity=".2"/>
        <path fill="#00B8F3" fill-rule="nonzero" d="M112.35 129.43c-5.247 5.92-7.967 14.18-8.16 24.78a41.58 41.58 0 0 0 3.29 17.92 25.55 25.55 0 0 0 16.57 14.7l-2.56-.74a25.63 25.63 0 0 1-16.57-14.7 41.57 41.57 0 0 1-3.29-17.92c.187-10.6 2.907-18.86 8.16-24.78a25.09 25.09 0 0 1 8.84-6.42 23.41 23.41 0 0 1 2.24-.86 33.25 33.25 0 0 1 10.54-1.59c2.97-.03 5.93.365 8.79 1.17l2.56.74a31.3 31.3 0 0 0-8.79-1.17 32.07 32.07 0 0 0-12.15 2.18 25.29 25.29 0 0 0-9.47 6.69z"/>
        <g fill-rule="nonzero">
            <path fill="#00B8F3" d="M148.84 160.18l2.51-1.05c-2.42 1.5-3.55 3.3-3.39 5.39a2.75 2.75 0 0 0 1.51 2.39 9.42 9.42 0 0 0 4.6.58l-2.51 1.05A9.42 9.42 0 0 1 147 168a2.75 2.75 0 0 1-1.51-2.39c-.2-2.13.92-3.93 3.35-5.43zM146 174.95l2.51-1.05a6.94 6.94 0 0 0-2.27 1.51 7.07 7.07 0 0 0-1.81 5.83 5.74 5.74 0 0 0 3.06 4.86c1.873 1.053 4.48 1.497 7.82 1.33a26.16 26.16 0 0 0 8.7-1.64l-2.51 1.05a26.16 26.16 0 0 1-8.7 1.64c-3.333.16-5.94-.283-7.82-1.33a5.74 5.74 0 0 1-3.06-4.86 7.07 7.07 0 0 1 1.81-5.83 6.94 6.94 0 0 1 2.27-1.51z"/>
            <path fill="#00B8F3" d="M151.56 168.54l2.51-1.05 6.93-.33-2.51 1.05zM146.9 138.88l2.51-1.05a6.88 6.88 0 0 0-2.63 1.89c-1.387 1.627-1.963 3.96-1.73 7 .213 2.827 1.153 4.933 2.82 6.32a9.31 9.31 0 0 0 6.63 1.87L152 156a9.31 9.31 0 0 1-6.63-1.87c-1.667-1.387-2.607-3.493-2.82-6.32-.233-3.06.343-5.393 1.73-7a6.88 6.88 0 0 1 2.62-1.93z"/>
            <path fill="#00B8F3" d="M158.44 154.13l-2.51 1.05a11.61 11.61 0 0 1-3.93.8l2.51-1.05a11.61 11.61 0 0 0 3.93-.8zM167 189.92l-2.54 1.08a16.4 16.4 0 0 0 3.62-2.05c3.3-2.527 4.777-6.03 4.43-10.51-.267-3.52-1.6-6.153-4-7.9-2.4-1.747-5.733-2.513-10-2.3l2.51-1.05c4.24-.207 7.573.56 10 2.3 2.427 1.74 3.76 4.373 4 7.9.34 4.487-1.137 7.99-4.43 10.51a16.4 16.4 0 0 1-3.59 2.02zM143.87 135l2.51-1.05a21.48 21.48 0 0 1 12.16-.88l-2.54 1.05a21.48 21.48 0 0 0-12.16.88h.03zM161.1 157.92l-2.51 1.08a12.29 12.29 0 0 0 4.08-2.73 11.9 11.9 0 0 0 3.21-9.69 13.9 13.9 0 0 0-3.19-8l2.51-1.05a13.9 13.9 0 0 1 3.19 8 11.9 11.9 0 0 1-3.21 9.69 12.29 12.29 0 0 1-4.08 2.7z"/>
            <path fill="#00B8F3" d="M156.03 134.12l2.5-1.06 13.56-.65-2.51 1.05z"/>
            <path fill="#00B8F3" d="M169.58 133.46l2.51-1.05.29 3.88-2.51 1.05z"/>
            <path fill="#89E7F5" d="M169.58 133.46l.3 3.88-7.19 1.24a13.9 13.9 0 0 1 3.19 8 11.9 11.9 0 0 1-3.21 9.69c-2.447 2.487-5.953 3.833-10.52 4.04a17.45 17.45 0 0 1-3.31-.13c-2.42 1.5-3.55 3.3-3.39 5.39A2.75 2.75 0 0 0 147 168a9.42 9.42 0 0 0 4.6.58l6.93-.33c4.24-.207 7.573.56 10 2.3 2.427 1.74 3.76 4.373 4 7.9.34 4.487-1.137 7.99-4.43 10.51-3.293 2.52-8.293 3.94-15 4.26-5.127.247-9.153-.55-12.08-2.39a10 10 0 0 1-4.8-8.16 9.33 9.33 0 0 1 1.8-6.5 11.18 11.18 0 0 1 6.15-4 6.58 6.58 0 0 1-2.69-2.06 6.1 6.1 0 0 1-1.28-3.39 6.57 6.57 0 0 1 .84-3.94 11.73 11.73 0 0 1 3.37-3.38 11.19 11.19 0 0 1-5.29-4.17 13.59 13.59 0 0 1-2.46-7c-.34-4.44.687-7.923 3.08-10.45 2.393-2.527 5.95-3.903 10.67-4.13a19.36 19.36 0 0 1 5.59.48l13.58-.67zm-19.67 40.69a8.92 8.92 0 0 0-6.14 2.3 7.07 7.07 0 0 0-1.81 5.83 5.74 5.74 0 0 0 3.06 4.86c1.873 1.053 4.48 1.497 7.82 1.33 4.973-.24 8.603-1.187 10.89-2.84a6.9 6.9 0 0 0 3.11-6.43c-.167-2.193-.937-3.687-2.31-4.48-1.373-.793-3.873-1.097-7.5-.91l-7.11.34h-.01zM152 156c5.787-.28 8.453-3.33 8-9.15-.467-6.08-3.63-8.983-9.49-8.71a8.32 8.32 0 0 0-6.25 2.64c-1.387 1.627-1.963 3.96-1.73 7 .213 2.827 1.153 4.933 2.82 6.32A9.31 9.31 0 0 0 152 156z"/>
        </g>
        <path fill="#0078C5" fill-rule="nonzero" d="M160 146.83c-.46-6.08-3.623-8.983-9.49-8.71-.34 0-.67 0-1 .08a10.85 10.85 0 0 0-1.28.24 6 6 0 0 0-.63.45 22 22 0 0 1 .82 2.39l.06-.06a18.31 18.31 0 0 1 1.81-1.27c1.38-.3 8.16-.57 8.73 7 .22 2.85-.7 6.12-2.17 7.22a10.85 10.85 0 0 1-4.48.08c-.38-.3-1.51-1-2.55-1.75v1.75a9.13 9.13 0 0 0 2.56.65c.707.081 1.42.101 2.13.06a13.24 13.24 0 0 0 2.57-.36c2.24-1.467 3.213-4.057 2.92-7.77zm-3 27l-7.11.34a13 13 0 0 0-2.52.36c-.4.255-.771.55-1.11.88a7.1 7.1 0 0 0-1.81 5.85 5.77 5.77 0 0 0 1.69 3.84c.41-.19.8-.4 1.19-.62a4.67 4.67 0 0 1-1.87-3.26 5.71 5.71 0 0 1 1.23-4.58c.62-.62 1.78-.55 3.29-.63l6.67-.32c.4-.61.78-1.24 1.12-1.88l-.77.02zm4.08-15.89l-2.24.94a18.68 18.68 0 0 1-6.71 1.44H152c-.72.047-1.44.047-2.16 0-.22.2-.424.418-.61.65a32.62 32.62 0 0 1-1 4.51 2.62 2.62 0 0 0 1.32 1.48c.277.15.573.26.88.33a12.5 12.5 0 0 0 3.72.25l6.41-.3c.08-.27.16-.54.22-.81-3.11 0-9.13.09-9.95-.35-1.41-.78-2-2.95-1.24-3.85h2.71a20.52 20.52 0 0 0 7.33-1.58l2.24-.94.17-.07c.08-.667.143-1.377.19-2.13-.4.09-.76.26-1.13.42l-.02.01zM160 146.83c-.46-6.08-3.623-8.983-9.49-8.71-.34 0-.67 0-1 .08l.36.76c.15.32.29.65.42 1 1.38-.3 8.16-.57 8.73 7 .22 2.85-.7 6.12-2.17 7.22a10.85 10.85 0 0 1-4.48.08v.66c.707.081 1.42.101 2.13.06a13.24 13.24 0 0 0 2.57-.36c2.247-1.48 3.223-4.077 2.93-7.79zM156.67 132a37.18 37.18 0 0 0-11.62.51l-1.19.5c.458.465.886.96 1.28 1.48l1.24-.53.18-.07a19.42 19.42 0 0 1 6.38-1.27 20.51 20.51 0 0 1 4.26.21c-.2-.3-.35-.58-.53-.83zm3.33 14.83c-.46-6.08-3.623-8.983-9.49-8.71-.34 0-.67 0-1 .08a10.85 10.85 0 0 0-1.28.24 6 6 0 0 0-.63.45 22 22 0 0 1 .82 2.39l.06-.06a18.31 18.31 0 0 1 1.81-1.27c1.38-.3 8.16-.57 8.73 7 .22 2.85-.7 6.12-2.17 7.22a10.85 10.85 0 0 1-4.48.08c-.38-.3-1.51-1-2.55-1.75v1.75a9.13 9.13 0 0 0 2.56.65c.707.081 1.42.101 2.13.06a13.24 13.24 0 0 0 2.57-.36c2.24-1.467 3.213-4.057 2.92-7.77zm-3 27l-7.11.34a13 13 0 0 0-2.52.36c-.4.255-.771.55-1.11.88a7.1 7.1 0 0 0-1.81 5.85 5.77 5.77 0 0 0 1.69 3.84c.41-.19.8-.4 1.19-.62a4.67 4.67 0 0 1-1.87-3.26 5.71 5.71 0 0 1 1.23-4.58c.62-.62 1.78-.55 3.29-.63l6.67-.32c.4-.61.78-1.24 1.12-1.88l-.77.02zm0 0l-7.11.34a13 13 0 0 0-2.52.36c-.4.255-.771.55-1.11.88a7.1 7.1 0 0 0-1.81 5.85 5.77 5.77 0 0 0 1.69 3.84c.41-.19.8-.4 1.19-.62a4.67 4.67 0 0 1-1.87-3.26 5.71 5.71 0 0 1 1.23-4.58c.62-.62 1.78-.55 3.29-.63l6.67-.32c.4-.61.78-1.24 1.12-1.88l-.77.02zm3-27c-.46-6.08-3.623-8.983-9.49-8.71-.34 0-.67 0-1 .08a10.85 10.85 0 0 0-1.28.24 6 6 0 0 0-.63.45 22 22 0 0 1 .82 2.39l.06-.06a18.31 18.31 0 0 1 1.81-1.27c1.38-.3 8.16-.57 8.73 7 .22 2.85-.7 6.12-2.17 7.22a10.85 10.85 0 0 1-4.48.08c-.38-.3-1.51-1-2.55-1.75v1.75a9.13 9.13 0 0 0 2.56.65c.707.081 1.42.101 2.13.06a13.24 13.24 0 0 0 2.57-.36c2.24-1.467 3.213-4.057 2.92-7.77z" opacity=".2"/>
    </g>
</svg>
