<?xml version="1.0" encoding="utf-8"?>
<!-- Generator: Adobe Illustrator 21.1.0, SVG Export Plug-In . SVG Version: 6.00 Build 0)  -->
<svg version="1.1" id="Layer_1" xmlns="http://www.w3.org/2000/svg" xmlns:xlink="http://www.w3.org/1999/xlink" x="0px" y="0px"
	 viewBox="0 0 260 260" style="enable-background:new 0 0 260 260;" xml:space="preserve">
<style type="text/css">
	.st0{opacity:0.3;fill:#90D8F0;}
	.st1{opacity:0.1;fill:#143C8A;}
	.st2{fill:#FFFFFF;}
	.st3{fill:#143C8A;}
	.st4{fill:#308DD1;}
	.st5{opacity:0.5;fill:#67BCEF;}
	.st6{fill:none;stroke:#3AA3E3;stroke-width:0.5;stroke-miterlimit:10;}
	.st7{fill:#2266AF;}
	.st8{fill:#90D8F0;}
	.st9{fill:#143D8A;}
	.st10{fill:#2978BE;}
	.st11{fill:#00B8F3;}
	.st12{fill:none;}
	.st13{fill:#FFBA00;}
	.st14{fill:#3AA3E3;}
	.st15{fill:#67BCEF;}
	.st16{fill:#1E54A0;}
	.st17{opacity:5.000000e-02;fill:#143C8A;}
	.st18{enable-background:new    ;}
	.st19{fill:none;stroke:#3AA3E3;stroke-width:0.5;stroke-linecap:round;stroke-miterlimit:10;}
</style>
<g>
	<path class="st0" d="M92,235.6h75.8c14.3,0,27.5-7.6,34.6-20l37.9-65.7c7.1-12.4,7.1-27.6,0-40l-37.9-65.7
		c-7.1-12.4-20.4-20-34.6-20l-75.8,0c-14.3,0-27.5,7.6-34.6,20L19.5,110c-7.1,12.4-7.1,27.6,0,40l37.9,65.7
		C64.6,228,77.8,235.6,92,235.6z"/>
	<path class="st1" d="M104.4,204.2c0,0.4-0.3,0.7-0.6,0.7l-42.4,0.3l3.6-1.6l38.8-0.1C104.1,203.4,104.4,203.8,104.4,204.2
		L104.4,204.2z"/>
	<path class="st2" d="M106.5,75.2c0,2.6-2.1,4.6-4.6,4.6H74.6c-3.7,0-6.7-3-6.7-6.7c0-3.7,3-6.7,6.7-6.7c0.5,0,1.1,0.1,1.6,0.2
		C76,66.1,76,65.5,76,65c0-3.4,2.8-6.2,6.2-6.2c3.2,0,5.9,2.5,6.1,5.6c1.2-0.6,2.5-1,3.9-1c4.3,0,7.8,3.3,8.2,7.4
		c0.5-0.2,1-0.3,1.5-0.3C104.4,70.6,106.5,72.7,106.5,75.2z"/>
	<g>
		<path class="st3" d="M108.9,188.6c-5.5,5.4-15.6,5.1-22.9,6c-4.4,0.5-10.9,1.8-15.2,2.3c-1.9,0.2-1.3-2.2-3.3-2.2
			c6-0.7,12-1.4,18-2.1c6-0.7,12.6-1.8,17.4-5.9c5.2-4.5,6-12,4.2-18.3c-1.1-4.2-3.7-7.6-7.7-9.4c-3.8-1.7-8.1-2-12.1-1.9
			c6-2.6,16.1-3.9,21.2,1.7c3.2,3.5,6,12.2,5.9,16.7C114.2,179.5,111.8,185.8,108.9,188.6z"/>
		<path class="st3" d="M101,144.1c-4.7,4.3-12.7,4.7-18.8,5.4c-5,0.6-11.5,1.7-16.4,2.3c-1.6,0.2-1.8-1.4-3.5-1.4
			c6-0.7,11.9-1.4,17.9-2.1c5.5-0.7,11.9-1.7,16.2-5.6c4.6-4.2,4.8-12.1,2.5-17.5c-3-7.1-11.2-8.1-18-7.9c4.7-2.9,14.9-1.9,19.8,2.8
			c2.9,2.8,4.9,7.9,5.1,11.8C105.8,135.9,104,141.4,101,144.1z"/>
		<path class="st3" d="M61.4,205.2c-0.9,0-3.8,0.1-3.8,0.1l-11-93.7c0,0,25.7-3.1,35.6-3.7c0.7,0,1.5-0.1,2.2-0.1
			c-9.5,3.4-19.9,4.2-29.8,5.2C53.3,113.1,67.1,194.3,61.4,205.2z"/>
		<path class="st4" d="M123.2,170.9L123.2,170.9c-0.5-4.7-2-8.5-4.3-11.5l-0.9-1.1c-4-4.4-10.2-6.9-18.7-7.3l-0.1-0.7
			c5.8-1.8,10.1-4.6,12.7-8.6c2.7-4,3.7-8.7,3-14.3c-0.9-8-4.4-13.6-10.4-16.7c-6-3.1-15.2-3.9-27.6-2.4l-26.5,3.1l10.9,93.7
			l22.2-2.6l1.2-0.1l9.3-1.1c2.4-0.3,4.7-0.7,6.9-1.2c0.4-0.1,0.8-0.2,1.2-0.3c6.3-1.7,11.2-4.5,14.9-8.3c4.9-5.1,7-11.6,6.3-19.4
			C123.3,171.7,123.2,171.3,123.2,170.9z M66,150l-3.5-30.4l16-1.9c8.2-1,14.3-0.5,18.3,1.4c4,1.9,6.4,5.5,7,10.7
			c0.7,5.7-0.5,10-3.6,12.8c-3.1,2.8-8.5,4.7-16.2,5.6L66,150.3L66,150z M107.3,185.9c-1,1-2.2,1.9-3.6,2.7
			c-0.5,0.3-0.9,0.5-1.4,0.7c-3.1,1.5-6.9,2.4-11.5,3l-5.4,0.6l-1.2,0.1l-12.9,1.5l0-0.3l-4-34.7l18.6-2.2c8-0.9,14.1-0.3,18.3,2
			c0.9,0.5,1.7,1.1,2.5,1.7c0.3,0.3,0.6,0.6,0.9,0.9c2.2,2.3,3.5,5.5,3.9,9.5c0.1,1.1,0.2,2.1,0.2,3.1c0,0.5,0,1-0.1,1.5
			C111.3,180.2,109.9,183.4,107.3,185.9z"/>
	</g>
	<path class="st5" d="M213.1,181.5c0,2.7-2.2,4.9-4.9,4.9h-28.7c-3.9,0-7.1-3.2-7.1-7.1c0-3.9,3.2-7.1,7.1-7.1
		c0.6,0,1.1,0.1,1.7,0.2c-0.1-0.5-0.2-1.1-0.2-1.7c0-3.6,2.9-6.5,6.5-6.5c3.4,0,6.2,2.6,6.5,5.9c1.2-0.7,2.6-1,4.1-1
		c4.5,0,8.2,3.4,8.6,7.8c0.5-0.2,1.1-0.3,1.6-0.3C210.9,176.7,213.1,178.8,213.1,181.5z"/>
	<line class="st6" x1="193.6" y1="88.2" x2="203.1" y2="112.8"/>
	<g>
		<path class="st7" d="M160.1,78.6c0,1.6-0.1,3.1-0.4,4.6c-2.2,13.3-13.7,23.5-27.7,23.5c-13.9,0-25.5-10.2-27.7-23.5
			c-0.2-1.5-0.4-3-0.4-4.6c0-15.5,12.6-28.1,28.1-28.1C147.5,50.6,160.1,63.1,160.1,78.6z"/>
		<path class="st8" d="M110.3,55.8c-0.3,0-0.6-0.1-0.8-0.3c-0.5-0.5-0.6-1.3-0.2-1.8c4.5-5.4,11.1-8.5,18.2-8.4
			c0.7,0,1.3,0.6,1.3,1.3c0,0.7-0.6,1.3-1.3,1.3c-0.1,0-0.1,0-0.2,0c-6.2,0-12,2.7-16,7.5C111.1,55.6,110.7,55.8,110.3,55.8z"/>
		<path class="st8" d="M104.5,52.3c-0.3,0-0.6-0.1-0.8-0.3c-0.5-0.5-0.6-1.3-0.2-1.8c6.2-7.5,15.4-11.8,25.2-11.7
			c0.7,0,1.3,0.6,1.3,1.3c0,0.7-0.6,1.3-1.3,1.3c-0.1,0-0.2,0-0.3,0c-8.9,0-17.2,3.9-22.9,10.7C105.2,52.2,104.9,52.3,104.5,52.3z"
			/>
		<path class="st8" d="M96.8,49.8c-0.3,0-0.6-0.1-0.8-0.3c-0.5-0.5-0.6-1.3-0.2-1.8c8.6-10.4,21.3-16.3,34.8-16.2
			c0.7,0,1.3,0.6,1.3,1.3c0,0.7-0.6,1.3-1.3,1.3c0,0,0,0,0,0c-0.1,0-0.3,0-0.4,0c-12.6,0-24.4,5.5-32.4,15.2
			C97.6,49.7,97.2,49.8,96.8,49.8z"/>
		<path class="st9" d="M127.4,106.3c-11.8-2-21.1-11.3-23-23.1c0.5-3.3,1.6-6.4,3.2-9.2c-0.2,1.5-0.4,3-0.4,4.6
			c0,1.6,0.1,3.2,0.4,4.8C109.4,94.2,117.2,103,127.4,106.3z"/>
		<path class="st2" d="M142.5,104.6c-3.2,1.3-6.8,2-10.5,2c-1.6,0-3.1-0.1-4.6-0.4c-10.2-3.3-18-12.1-19.8-22.9
			c-0.3-1.6-0.4-3.1-0.4-4.8c0-1.6,0.1-3.1,0.4-4.6c1-1.8,2.3-3.6,3.7-5.1c-0.5,2.2-0.8,4.5-0.8,6.8c0,0.8,0,1.6,0.1,2.4
			c0.1,0.8,0.2,1.6,0.3,2.4c2.2,13.3,13.4,23.6,27.2,24.3C143.4,100.5,151.5,101,142.5,104.6z"/>
		<path class="st9" d="M159.7,83.2c-0.3,1.6-0.6,3.1-1.1,4.6c-0.3,1-0.7,1.9-1.2,2.8c-3,6.4-8.3,11.4-14.9,14.1c-1,0.1-2,0.2-3,0.2
			c-0.5,0-1,0-1.5,0c5.4-4.2,9.2-10.4,10.3-17.4c-2.2-13.3-13.8-23.5-27.7-23.5c-1.2,0-2.5,0.1-3.7,0.2c4.3-2.8,9.5-4.3,15-4.3
			c2.2,0,4.3,0.2,6.3,0.7c0.9,0.2,1.7,0.4,2.6,0.7C150.6,64.4,158,72.8,159.7,83.2z"/>
		<path class="st9" d="M166.6,72.1l-3.3,12.8c-0.9,1.3-2.6,2.3-4.8,2.8c-0.3,1-0.7,1.9-1.2,2.8c-1.5,0.1-3.1,0.1-4.8,0
			c-0.4,0-0.7-0.1-1.1-0.1c-1.2-0.2-2.4-0.4-3.6-0.7c-6-1.5-11-6.4-12.4-10.3c0,0,0,0,0,0c-0.4-1.1-0.5-2-0.3-2.8l2.3-8.9
			c0.6-2.5,1.8-4.7,3.4-6.5c1.5-1.7,3.3-3.1,5.3-4c2.8-1.3,6-1.8,9.2-1.3c0.5,0.1,1,0.2,1.6,0.3c0.1,0,0.3,0.1,0.4,0.1
			c3.6,1,6.6,3.3,8.5,6.3C167.2,65.4,167.5,68.8,166.6,72.1z"/>
		<path class="st8" d="M156.6,74.3l-1.6-0.6c0.2-0.6,5.7-15.2,15-19c3.2-1.3,6.4-1.2,9.7,0.4l-0.7,1.5c-2.8-1.3-5.6-1.5-8.3-0.3
			C162,59.8,156.6,74.2,156.6,74.3z"/>
		<ellipse transform="matrix(0.2403 -0.9707 0.9707 0.2403 82.5169 215.563)" class="st8" cx="179" cy="55.1" rx="2.2" ry="3.5"/>
		<path class="st9" d="M151.1,67.9c-0.1-0.7-2.6-16.1,3.6-23.9c2.1-2.7,5-4.2,8.6-4.5l0.1,1.7c-3.1,0.2-5.6,1.5-7.4,3.8
			c-5.8,7.3-3.3,22.5-3.3,22.6L151.1,67.9z"/>
		
			<ellipse transform="matrix(0.1222 -0.9925 0.9925 0.1222 104.3128 199.3346)" class="st9" cx="164.8" cy="40.7" rx="2.2" ry="3.5"/>
		<path class="st8" d="M167.8,73.4l-4.2,12.8c-2,2.5-6.7,3.4-12.4,2.4c-0.4-0.1,7.1-34.6,7.2-34.5c3.8,1.4,6.8,4.2,8.5,7.6
			C168.7,65.1,169.2,69.3,167.8,73.4z"/>
		<path class="st10" d="M156.9,71.1l-5.7,17.4c-0.4-0.1-0.7-0.1-1.1-0.2l0,0c-1.2-0.2-2.4-0.6-3.6-1c-7.6-2.5-13.3-10.5-12-14.2
			l2.9-8.9c1.6-4.8,5.2-8.4,9.6-10.1c2.9-1.1,6.2-1.5,9.5-0.7c0.5,0.1,1,0.3,1.6,0.4c0.1,0,0.3,0.1,0.4,0.1
			C159.2,57.6,159.4,63.1,156.9,71.1z"/>
		<path class="st2" d="M153.3,70.4c-0.4,1.2-1.2,2.1-2.2,2.7c-0.5-0.8-1.3-1.4-2.2-1.8c-1-0.3-2.1-0.2-3,0.2c-0.6-1-0.7-2.4-0.3-3.6
			c0.8-2.3,3.1-3.6,5.3-2.9C153,65.6,154.1,68.1,153.3,70.4z"/>
		<path class="st7" d="M151.1,73.1c-0.9,0.5-2,0.6-3,0.3c-1-0.3-1.7-1-2.2-1.9c0.9-0.4,2-0.5,3-0.2
			C149.9,71.6,150.7,72.3,151.1,73.1z"/>
		<path class="st2" d="M166,72.5c-0.4,1.1-1,2-1.8,2.5c-0.7,0.5-1.6,0.6-2.4,0.4c-0.7-0.2-1.3-0.8-1.6-1.6c-0.4-0.9-0.5-2.1-0.1-3.2
			c0.7-2.1,2.6-3.4,4.2-2.9S166.7,70.3,166,72.5z"/>
		<path class="st4" d="M164.2,74.9c-0.7,0.5-1.6,0.6-2.4,0.4c-0.7-0.2-1.3-0.8-1.6-1.6c0.7-0.4,1.6-0.6,2.4-0.3
			C163.3,73.7,163.8,74.2,164.2,74.9z"/>
	</g>
	<path class="st11" d="M200.4,93.1c0.1,0.3-0.1,0.7-0.4,0.9c-2.4,1.1-4.4,1.7-6,1.7c-1.8,0.1-3.4-0.2-4.8-0.9
		c-0.2-0.1-0.4-0.2-0.6-0.3c-0.3-0.1-0.3-0.5-0.1-0.8l0,0c0.2-0.3,0.6-0.4,0.8-0.3c0.2,0.1,0.4,0.2,0.6,0.3c1.3,0.6,2.8,0.9,4.4,0.8
		c1.4,0,3.2-0.6,5.5-1.6C200,92.7,200.3,92.8,200.4,93.1L200.4,93.1z"/>
	<path class="st11" d="M201.4,95.9c0.1,0.3-0.1,0.7-0.4,0.9c-3,1.4-5.5,2.1-7.6,2.2c-2.2,0.1-4.2-0.3-6-1.1
		c-0.3-0.1-0.6-0.3-0.9-0.5c-0.3-0.2-0.3-0.5-0.1-0.8l0,0c0.2-0.3,0.6-0.4,0.8-0.3c0.3,0.2,0.6,0.3,0.9,0.5c1.7,0.8,3.6,1.1,5.6,1
		c1.9-0.1,4.3-0.8,7.1-2.1C201,95.5,201.3,95.6,201.4,95.9L201.4,95.9z"/>
	<path class="st11" d="M199.4,90.3c0.1,0.3-0.1,0.7-0.4,0.9c-1.8,0.8-3.3,1.2-4.3,1.3c-1.3,0-2.6-0.2-3.7-0.7
		c-0.1,0-0.2-0.1-0.3-0.1c-0.3-0.1-0.3-0.5-0.1-0.9l0,0c0.2-0.3,0.5-0.4,0.8-0.3c0.1,0,0.2,0.1,0.3,0.1c1,0.4,2.1,0.6,3.2,0.6
		c0.9,0,2.2-0.4,3.8-1.1C199,89.9,199.3,90,199.4,90.3L199.4,90.3z"/>
	<path class="st11" d="M192.8,75.2c-0.1-0.3,0.1-0.6,0.4-0.8c2.1-1,3.8-1.5,5.2-1.5c1.5-0.1,2.9,0.2,4.2,0.8
		c0.2,0.1,0.4,0.2,0.6,0.3c0.2,0.1,0.3,0.5,0.1,0.7l0,0c-0.2,0.2-0.5,0.3-0.7,0.2c-0.2-0.1-0.3-0.2-0.5-0.3
		c-1.2-0.5-2.5-0.8-3.8-0.7c-1.2,0-2.8,0.5-4.8,1.4C193.1,75.6,192.9,75.5,192.8,75.2L192.8,75.2z"/>
	<path class="st11" d="M191.9,72.8c-0.1-0.3,0.1-0.6,0.4-0.8c2.7-1.2,4.8-1.9,6.7-1.9c1.9-0.1,3.7,0.3,5.2,1
		c0.3,0.1,0.6,0.3,0.8,0.4c0.2,0.1,0.3,0.5,0.1,0.7l0,0c-0.2,0.2-0.5,0.4-0.7,0.2c-0.3-0.1-0.5-0.3-0.8-0.4c-1.5-0.7-3.1-1-4.9-0.9
		c-1.7,0.1-3.7,0.7-6.2,1.8C192.2,73.1,192,73,191.9,72.8L191.9,72.8z"/>
	<path class="st11" d="M193.6,77.7c-0.1-0.3,0.1-0.6,0.4-0.8c1.6-0.7,2.8-1.1,3.8-1.1c1.2,0,2.2,0.2,3.2,0.6c0.1,0,0.2,0.1,0.3,0.1
		c0.2,0.1,0.3,0.5,0.1,0.7l0,0c-0.2,0.2-0.5,0.3-0.7,0.2c-0.1,0-0.2-0.1-0.2-0.1c-0.8-0.4-1.8-0.6-2.8-0.5c-0.8,0-1.9,0.4-3.3,1
		C194,78,193.7,77.9,193.6,77.7L193.6,77.7z"/>
	<path class="st12" d="M207.7,81.5C207.7,81.5,207.6,81.5,207.7,81.5C207.7,81.5,207.7,81.5,207.7,81.5
		C207.7,81.5,207.7,81.5,207.7,81.5z"/>
	<path class="st10" d="M197.8,79.4c-0.9,0.1-1.9,0.2-2.9,0.4c-1.3,0.2-2.4,0.6-3.4,1.1c-0.6,0.2-1.1,0.5-1.5,0.8
		c-1.3,0.8-2.1,1.7-2.3,2.7c-0.1,0.2-0.1,0.5-0.1,0.7c0.2-0.3,0.5-0.5,0.7-0.7c3-2.7,7.4-3.5,11.3-3.6
		C199,80.2,198.4,79.8,197.8,79.4z"/>
	<path class="st7" d="M199.6,80.7c-3.9,0.1-8.2,0.9-11.3,3.6c-0.3,0.2-0.5,0.5-0.7,0.7c0,0.4,0.2,0.9,0.6,1.3
		c0.1,0.1,0.2,0.2,0.3,0.3c0.3,0.3,0.7,0.6,1.1,0.8c0.6,0.3,1.2,0.6,1.8,0.7c0.8,0.2,1.6,0.3,2.4,0.3c0,0,0,0,0,0
		C196.4,85.7,198.4,82.7,199.6,80.7C199.6,80.7,199.6,80.7,199.6,80.7z"/>
	<path class="st13" d="M207.7,81.5L207.7,81.5L207.7,81.5C207.7,81.5,207.7,81.5,207.7,81.5C207.7,81.5,207.7,81.5,207.7,81.5
		L207.7,81.5z"/>
	<path class="st7" d="M201.2,80.7L201.2,80.7c-0.2,0.3-0.4,0.6-0.6,0.9c0,0.1-0.1,0.1-0.1,0.2c-1.1,1.7-2.7,4.2-4.7,6.5
		c0.3,0,0.6-0.1,1-0.2c0.6-0.1,0.7-0.2,1.9-0.5c2.2-0.7,4.3-1.9,5.8-3.3c2.5-2.4,3.1-2.8,3.2-2.8C207.4,81.4,204.7,80.8,201.2,80.7z
		"/>
	<polygon class="st13" points="199.6,80.7 199.5,80.7 199.5,80.7 199.6,80.7 199.6,80.7 199.6,80.7 199.6,80.7 	"/>
	<polygon class="st12" points="201.2,80.7 201.2,80.7 201.2,80.7 	"/>
	<g>
		<path class="st10" d="M221.2,147.7l-0.8,0.8c-0.1,0.1-0.3,0.3-0.4,0.4c-0.9,0.8-2.2,1.1-3.4,1l-15.7-1.5c-1.7-0.2-3.2-1.2-3.9-2.8
			l-6.6-14.4c-0.7-1.5-1.5-3.3-0.6-4.7l10.9-13.6c0,0-0.1,3.8-0.1,8.9C200.4,132,221,147.9,221.2,147.7z"/>
		<path class="st8" d="M231.1,129.6l-6.6-14.4c-0.7-1.5-2.2-2.6-3.9-2.8l-15.7-1.5c-1.2-0.1-2.5,0.3-3.4,1c-0.3,0.3-0.6,0.6-0.9,0.9
			l-9.1,12.9c-1,1.4-1.1,3.2-0.4,4.7l6.6,14.4c0.7,1.5,2.2,2.6,3.9,2.8l15.7,1.5c0.4,0,0.8,0,1.2,0c0.1,0,0.3,0,0.4-0.1
			c0.6-0.2,1.3-0.5,1.8-0.9c0.3-0.3,0.6-0.6,0.9-0.9l9.1-12.8C231.7,133,231.9,131.1,231.1,129.6z M206.2,114c1,1,0.9,2.6-0.1,3.6
			c-0.4,0.4-1,0.6-1.5,0.7c-0.6-0.1-1.1-0.3-1.5-0.8c-0.8-0.8-0.9-2-0.4-3c0.1-0.2,0.2-0.4,0.3-0.5c0.1-0.1,0.1-0.1,0.2-0.2
			c0.1-0.1,0.2-0.2,0.4-0.3c0.2-0.1,0.3-0.2,0.5-0.3c0.2-0.1,0.4-0.1,0.6-0.1C205.2,113.3,205.8,113.6,206.2,114z"/>
		<path class="st10" d="M204.7,113.2c-0.2,0-0.4,0.1-0.6,0.1c-0.2,0.1-0.4,0.2-0.5,0.3c-0.1,0.1-0.3,0.2-0.4,0.3
			c-0.1,0.1-0.1,0.1-0.2,0.2c-0.1,0.1-0.2,0.3-0.3,0.5c-0.5,0.9-0.4,2.1,0.4,3c0.4,0.4,1,0.7,1.5,0.8c-0.8,0.1-1.5-0.2-2.1-0.8
			c-1-1-0.9-2.7,0.1-3.6C203.1,113.4,203.9,113.1,204.7,113.2z"/>
		<path class="st7" d="M212.6,130c-1.3-2.3-0.5-5.3,1.9-6.6c2.3-1.3,5.3-0.5,6.6,1.9c1.3,2.3,0.5,5.3-1.9,6.6
			c-0.5,0.3,1.8,3.2,1.8,3.2S214.2,132.9,212.6,130z"/>
		<path class="st7" d="M201.8,134.2c-1.3-2.3-0.5-5.3,1.9-6.6c2.3-1.3,5.3-0.5,6.6,1.9c1.3,2.3,0.5,5.3-1.9,6.6
			c-0.5,0.3,1.8,3.2,1.8,3.2S203.4,137.1,201.8,134.2z"/>
	</g>
	<g>
		<path class="st14" d="M65.6,90c0,0-1.2-8.6,0.3-11.2c0.4-0.6,0.9-1.2,1.4-1.6c0.3-0.2,0.7-0.5,1.1-0.6c1.5-0.7,3.3-0.6,4.8,0.3
			L65.6,90z"/>
		<path class="st4" d="M75.8,82.2c-0.1,0.7-0.3,1.4-0.7,2c-1.5,2.6-9.5,5.8-9.5,5.8l2.2-3.8l0.8-1.4l4.6-8c1.5,0.9,2.5,2.4,2.6,4.1
			C75.8,81.4,75.8,81.8,75.8,82.2z"/>
		<g>
			<path class="st14" d="M73.6,76c0.7,0.4,1.2,0.9,1.7,1.4c0.4,0.4,0.3,1.1-0.2,1.4l0,0c-0.5-0.8-1.1-1.5-2-2L73.6,76z"/>
			<path class="st8" d="M62.3,80.9c-0.2,0-0.4-0.2-0.4-0.4c0.2-1.5,0.5-2.7,1-3.6c0.6-1,1.3-1.8,2.2-2.4c0.1-0.1,0.3-0.2,0.4-0.3
				c0.2-0.1,0.4-0.1,0.5,0.1l0,0c0.1,0.2,0,0.4-0.1,0.5c-0.1,0.1-0.2,0.2-0.4,0.3c-0.8,0.6-1.5,1.4-2,2.2c-0.4,0.8-0.7,1.8-0.9,3.3
				C62.7,80.8,62.5,80.9,62.3,80.9L62.3,80.9z"/>
			<path class="st8" d="M60.3,80.9c-0.2,0-0.4-0.2-0.4-0.4c0.2-1.9,0.6-3.4,1.3-4.6c0.7-1.2,1.6-2.2,2.7-3c0.2-0.1,0.4-0.3,0.6-0.4
				c0.2-0.1,0.4-0.1,0.5,0.1l0,0c0.1,0.2,0,0.4-0.1,0.5c-0.2,0.1-0.4,0.3-0.6,0.4c-1,0.8-1.8,1.7-2.5,2.8c-0.6,1.1-1,2.4-1.2,4.3
				C60.7,80.8,60.5,80.9,60.3,80.9L60.3,80.9z"/>
			<path class="st8" d="M75.9,90.3c-0.1-0.2,0-0.4,0.1-0.5c1.5-1.1,2.5-2.1,3.1-3.1c0.6-1.1,1-2.3,1.2-3.6c0-0.2,0-0.5,0.1-0.7
				c0-0.2,0.2-0.3,0.4-0.3l0,0c0.2,0,0.4,0.2,0.4,0.4c0,0.3,0,0.5-0.1,0.7c-0.2,1.4-0.6,2.7-1.3,3.8c-0.7,1.1-1.7,2.3-3.3,3.4
				C76.2,90.6,76,90.5,75.9,90.3L75.9,90.3z"/>
			<path class="st8" d="M74.9,88.6c-0.1-0.2,0-0.4,0.1-0.5c1.2-0.8,1.9-1.6,2.4-2.4c0.5-0.9,0.8-1.8,0.9-2.8c0-0.1,0-0.3,0-0.4
				c0-0.2,0.2-0.4,0.4-0.4h0c0.2,0,0.4,0.2,0.4,0.4c0,0.2,0,0.3,0,0.5c-0.1,1.1-0.5,2.1-1,3.1c-0.5,0.9-1.4,1.7-2.6,2.6
				C75.2,88.9,75,88.8,74.9,88.6L74.9,88.6z"/>
			<path class="st15" d="M70.5,76.2L70.5,76.2c0.9,0,1.8,0.2,2.7,0.7l0.5-0.9c-0.7-0.4-1.4-0.6-2.1-0.8C71,75.2,70.5,75.6,70.5,76.2
				z"/>
			<path class="st8" d="M64.3,80.9c-0.2,0-0.4-0.2-0.4-0.4c0.1-1.1,0.4-2,0.7-2.6c0.4-0.7,1-1.4,1.6-1.9c0.1,0,0.1-0.1,0.2-0.1
				c0.2-0.1,0.4-0.1,0.5,0.1l0,0c0.1,0.2,0.1,0.4-0.1,0.5c-0.1,0-0.1,0.1-0.2,0.1c-0.6,0.4-1.1,1-1.4,1.6c-0.3,0.5-0.5,1.3-0.6,2.3
				C64.7,80.8,64.5,80.9,64.3,80.9L64.3,80.9z"/>
			<path class="st8" d="M73.9,86.9c-0.1-0.2,0-0.4,0.1-0.5c0.8-0.6,1.4-1.2,1.7-1.7c0.4-0.6,0.6-1.3,0.7-2.1c0-0.1,0-0.1,0-0.2
				c0-0.2,0.2-0.3,0.4-0.3h0c0.2,0,0.4,0.2,0.4,0.4c0,0.1,0,0.2,0,0.2c-0.1,0.8-0.4,1.6-0.8,2.3c-0.3,0.6-1,1.2-1.9,1.9
				C74.2,87.2,74,87.1,73.9,86.9L73.9,86.9z"/>
			<path class="st2" d="M68.3,76.6c-0.4,0.2-0.7,0.4-1.1,0.6c-0.1,1-0.1,2.3,0,3.7c0.1,2.5,0.4,4.6,0.4,4.7l0.1,0.6l0.8-1.4
				C68.3,82.8,68,79.1,68.3,76.6z"/>
			<path class="st2" d="M75.8,82.2c-0.9,0.6-1.9,1.2-3.2,1.9c-2.2,1.1-4.2,2-4.3,2l-0.6,0.2l0.8-1.4c1.9-0.8,5.2-2.4,7.2-3.9
				C75.8,81.4,75.8,81.8,75.8,82.2z"/>
		</g>
	</g>
	<g>
		<path class="st16" d="M161.9,156.4c-3.3,6.1-12.4,12.7-19.7,12.7c-1.8,0-6.5-0.4-9.5-1.2l-0.4-1.5c2.1,0.6,4.4,0.9,7,0.9
			c7.3,0,13-2.5,16.9-7.6c0,0,0,0,0,0c1.8-2.3,3.1-5,4.1-8.3c0.5-1.6,0.9-3.4,1.2-5.3c0.4-2.4,0.6-5,0.7-7.9c0-0.3,0-0.6,0-0.9
			c0-0.4,0-0.8,0-1.2c0-5-0.5-9.4-1.6-13.1c-0.3-1-0.6-1.9-1-2.8c-0.8-1.9-1.7-3.5-2.8-5c-0.1-0.1-0.1-0.1-0.1-0.2
			c-0.5-0.6-1-1.2-1.5-1.7c-2.2-2.2-4.8-3.8-8-4.7l3.3-0.8c2.4,0.7,12,6.3,12.6,6.9C168.3,131.9,167.8,144.2,161.9,156.4z"/>
		<path class="st16" d="M119.1,110.4c-6.2,7-8.3,40.5-5.6,46.5c2.7,6,15.8,18.7,18.5,19.5l-3-0.9c-2.8-0.8-5.4-2-7.8-3.5
			c-5.1-3.2-9-7.8-11.7-13.8c-2.7-6-4-13-3.9-21.1c0.2-12.5,3.4-22.2,9.6-29.1c2.9-3.3,6.4-5.8,10.4-7.5c0.9-0.4,1.7-0.7,2.6-1
			c3.7-1.2,7.8-1.9,12.4-1.9c3.7,0,7.2,0.5,10.3,1.4l3,0.9C150.9,99,121.6,107.7,119.1,110.4z"/>
		<path class="st14" d="M171,112.9c-0.2-0.3-0.4-0.7-0.6-1c-0.3-0.5-0.7-0.9-1-1.4c-0.3-0.5-0.7-0.9-1.1-1.3
			c-6-7.1-14.2-10.7-24.6-10.7c-10.8,0-19.2,3.5-25.4,10.4c-6.2,7-9.4,16.7-9.6,29.1c-0.1,8,1.2,15.1,3.9,21.1
			c2.7,6,6.6,10.6,11.7,13.8c5.1,3.2,11,4.8,17.6,4.8c1.8,0,3.5-0.1,5.1-0.3c0.4,0,0.8-0.1,1.2-0.2c3.6-0.5,6.9-1.5,9.8-2.9
			c0.5-0.2,0.9-0.5,1.4-0.7c3-1.6,5.6-3.8,7.9-6.4c1.1-1.2,2.1-2.6,3-4c0.5-0.7,0.9-1.5,1.3-2.2c1.3-2.4,2.4-5,3.2-7.8
			c0.1-0.3,0.2-0.6,0.3-1c0.7-2.5,1.2-5.2,1.5-8c0.1-0.8,0.2-1.6,0.2-2.5c0.1-1.2,0.1-2.5,0.2-3.8C177.2,128,175.2,119.6,171,112.9z
			 M146.7,167.8c-0.3,0.1-0.6,0.1-0.9,0.1c-1.1,0.1-2.2,0.2-3.4,0.2c-7.4,0-12.9-2.6-16.6-7.7c-3.7-5.1-5.5-12.5-5.3-22.3
			c0.2-9.9,2.2-17.3,6-22.2c3.8-5,9.4-7.5,16.8-7.5c5.5,0,10.1,1.4,13.5,4.2c0.6,0.5,1.2,1,1.8,1.6h0c0.5,0.6,1,1.1,1.5,1.8
			c0.7,1,1.4,2.1,2,3.3c0.1,0.3,0.3,0.6,0.4,0.9c0.2,0.4,0.3,0.8,0.5,1.2c1.7,4.5,2.6,10.1,2.4,16.8c0,0.3,0,0.5,0,0.8
			c-0.1,2.3-0.2,4.4-0.5,6.4c-0.1,0.7-0.2,1.5-0.3,2.2c-0.3,1.6-0.7,3.1-1.1,4.5c-0.2,0.5-0.3,1-0.5,1.4c-0.9,2.7-2.2,5-3.7,7
			C156.1,164.5,151.9,166.9,146.7,167.8z"/>
	</g>
	<g>
		<path class="st17" d="M175.6,217.3c-5.7,2.5-21.5,5.7-34.5,6.3c-13,0.6-17.2-6-11.5-8.4c5.7-2.5,20.5-4,33.2-3.4
			C175.6,212.3,181.3,214.8,175.6,217.3z"/>
		<g class="st18">
			<defs>
				<path id="SVGID_1_" class="st18" d="M143.8,183.4l4.1-1.4c0.9-0.3,1.8-0.5,2.7-0.7l-4.1,1.4
					C145.5,182.9,144.6,183.1,143.8,183.4z"/>
			</defs>
			<clipPath id="SVGID_2_">
				<use xlink:href="#SVGID_1_"  style="overflow:visible;"/>
			</clipPath>
		</g>
		<path class="st3" d="M194.5,194.5c0,7.1-2.7,12.5-8.2,16.1c-1.7,1.1-3.7,2.1-6,2.8l-4.1,1.4c2.2-0.7,3.3-3.5,5-4.6
			c5.5-3.6,5.9-23.5,2.3-26.5c-3.6-3-27.1-4.4-27.1-4.4c-3.4-0.1-8.1-2-8.5-7.4c-0.2-3.3,2.2-6.5,6.2-8.6l5.1-0.3
			c-4,2.1-6,4.8-6,8.1c0,1.8,0.7,3.1,2.1,4c1.4,0.9,3.8,1.4,7.2,1.5l11,0.3c6.7,0.2,11.9,1.8,15.5,4.8
			C192.7,184.6,194.5,188.9,194.5,194.5z"/>
		<path class="st3" d="M148.4,186.1l4.8-0.2c-1.4,0.5-2.7,1.2-3.8,2.1c-2.4,2-3.6,5-3.5,9c0,3.5,1.4,6.2,4.3,8
			c2.8,1.9,6.9,2.9,12.2,3c5.7,0.2,10.4-0.4,13.9-1.6l-2.5,2.9c-3.6,1.2-9.1,1.8-14.8,1.7c-5.3-0.1-10-1.2-12.9-3.1
			c-2.8-1.9-5.4-5-5.4-8.5c0-4,0-7.5,2.3-9.6C144.1,189,147,186.6,148.4,186.1z"/>
		<path class="st3" d="M171.1,155.9l-1,2.7c-15.3,5.1-24.4-1.1-24.4-14.6c0-12.8,6.4-14.7,13-14.9c-1.7,0.6-3.2,1.5-4.4,2.7
			c-2.4,2.4-3.6,6-3.5,10.9c0,4.5,1.2,7.9,3.7,10.3c2.5,2.4,5.9,3.6,10.2,3.7C167.2,156.8,169.3,156.5,171.1,155.9z"/>
		<path class="st3" d="M195.2,129.5l-4.1,1.4l-21.9-5.3c-2.6-0.9-15.8-2.5-18.8-1.5l4.1-1.4c3-1,6.5-1.5,10.5-1.4
			c3.2,0.1,6.2,0.6,8.8,1.4l21.4,0.6L195.2,129.5z"/>
		<path class="st3" d="M174.9,162.2l-4.1,1.4c8.1-5.4,11.9-26.5,7.4-32.5l5.5-0.5c1.1,1.4,2,3.2,2.8,5.4c0.8,2.2,1.3,4.7,1.3,7.5
			c0,6.3-2.1,11.3-6.2,14.9C179.7,160.1,177.4,161.4,174.9,162.2z"/>
		<path class="st4" d="M191.1,124.7l0,6.2l-11.5,1.1c1.1,1.4,2,3.2,2.8,5.4c0.8,2.2,1.3,4.7,1.3,7.5c0,6.3-2.1,11.3-6.2,14.9
			c-4.1,3.6-9.8,5.4-17.1,5.2c-1.8,0-3.6-0.2-5.2-0.6c-4,2.1-6,4.8-6,8.1c0,1.8,0.7,3.1,2.1,4c1.4,0.9,3.8,1.4,7.2,1.5l11,0.3
			c6.7,0.2,11.9,1.8,15.5,4.8c3.6,3,5.4,7.3,5.4,12.9c0,7.1-2.7,12.5-8.2,16.1c-5.5,3.6-13.5,5.2-24.1,5c-8.1-0.2-14.4-2-18.8-5.2
			c-4.4-3.2-6.6-7.7-6.6-13.4c0-3.9,1.2-7.3,3.6-10c2.4-2.8,5.8-4.6,10.2-5.5c-1.6-0.8-2.9-2-4-3.6c-1.1-1.6-1.6-3.4-1.6-5.5
			c0-2.3,0.6-4.4,1.8-6.1c1.2-1.7,3.1-3.4,5.7-4.9c-3.2-1.5-5.8-3.9-7.9-7.2c-2-3.3-3-7.1-3-11.3c0-7,2-12.4,6.1-16.1
			c4.1-3.7,9.8-5.5,17.3-5.3c3.2,0.1,6.2,0.6,8.8,1.4L191.1,124.7z M155.3,186.5c-4.3-0.1-7.6,0.8-10,2.9c-2.4,2-3.6,5-3.5,9
			c0,3.5,1.4,6.2,4.3,8c2.8,1.9,6.9,2.9,12.2,3c7.9,0.2,13.7-0.9,17.5-3.2c3.8-2.3,5.7-5.6,5.7-9.8c0-3.5-1-5.9-3.1-7.3
			c-2.1-1.4-6-2.2-11.7-2.3L155.3,186.5L155.3,186.5z M160.7,158.1c9.2,0.2,13.7-4.2,13.7-13.5c0-9.6-4.7-14.6-13.9-14.9
			c-4.4-0.1-7.8,1-10.2,3.4c-2.4,2.4-3.6,6-3.6,10.9c0,4.5,1.2,7.9,3.7,10.3C152.9,156.7,156.3,158,160.7,158.1L160.7,158.1z"/>
	</g>
	<path class="st10" d="M199.5,79.3c0.5,0.4,1.1,0.9,1.6,1.3c0,0,0.1,0.1,0.1,0.1c3.5,0.1,6.2,0.7,6.4,0.8c0,0,0,0,0,0
		C207.5,81.4,205.1,79.3,199.5,79.3z"/>
	<line class="st19" x1="201.8" y1="80.7" x2="204.4" y2="113.5"/>
	<g>
		<polygon class="st1" points="128.1,224.2 74,224.4 78.5,222.8 132.1,222.7 		"/>
		<polygon class="st9" points="133.9,221.8 132.1,222.7 88.8,212.3 80.7,126.4 82.5,125.5 92.6,125.5 91.6,210.8 133.6,210.7 		"/>
		<polygon class="st15" points="131.8,211.6 132.1,222.7 78.5,222.8 80.7,126.4 90.8,126.4 89.8,211.7 		"/>
	</g>
</g>
<title>Humaniq Blog</title>
</svg>
