<svg xmlns="http://www.w3.org/2000/svg" width="160" height="160" viewBox="0 0 160 160">
    <g fill="none" fill-rule="nonzero">
        <path fill="#67BCEF" d="M153.4 108.3c0 5.5-4 10.1-9.2 11.1 2.1-.8 3.6-2.9 3.6-5.2 0-3.1-2.5-5.6-5.6-5.6-5.7 0-10.4-4.6-10.4-10.3V55.8c0-15.1-12.3-27.3-27.4-27.3H55.7c-15.1 0-27.4 12.2-27.4 27.3v42.4c0 5.7-4.7 10.3-10.4 10.3-3.1 0-5.6 2.5-5.6 5.6 0 2.4 1.5 4.4 3.6 5.2-5.2-1-9.2-5.5-9.2-11.1 0-6 4.6-10.8 10.5-11.2.4-1.1 1-2.2 1.7-3.1-1.2-1.8-2-4-2-6.4 0-2.5.8-4.8 2.1-6.6-1.3-1.9-2.1-4.2-2.1-6.6 0-2.4.8-4.8 2.1-6.6-1.3-1.9-2.1-4.1-2.1-6.6 0-1.4.2-2.7.7-4 .5-1.2 1.1-2.4 2-3.3-1-1.7-1.6-3.8-1.6-5.8 0-1.1.1-2.1.5-3.2.5-1.7 1.3-3.1 2.4-4.3 1.1-1.2 2.4-2.2 3.9-2.8v-1c0-2.8 1.1-5.7 3.2-7.9 2.2-2.3 5.1-3.4 8-3.4h.8c.6-1.5 1.5-2.8 2.7-3.9 1.2-1.1 2.6-2 4.2-2.5 1.2-.4 2.3-.6 3.5-.6 2 0 4 .5 5.7 1.5 1-.9 2.1-1.6 3.4-2.1 1.3-.5 2.6-.8 4.1-.8 2.5 0 4.8.8 6.6 2.2 1.9-1.4 4.2-2.2 6.6-2.2 2.4 0 4.8.8 6.6 2.2 1.9-1.4 4.2-2.2 6.6-2.2 2.5 0 4.8.8 6.6 2.2 1.9-1.4 4.2-2.2 6.6-2.2 1.4 0 2.8.3 4.1.8 1.3.5 2.4 1.2 3.4 2.1 1.7-1 3.7-1.5 5.7-1.5 1.1 0 2.3.2 3.4.5 1.6.5 3.1 1.4 4.2 2.5 1.2 1.1 2.1 2.4 2.7 3.9h.8c2.9 0 5.8 1.1 8 3.4 2.2 2.2 3.2 5 3.2 7.9v1c1.5.6 2.8 1.6 3.9 2.8 1.1 1.2 1.9 2.7 2.4 4.3.3 1.1.5 2.2.5 3.2 0 2.1-.6 4.1-1.6 5.8.8 1 1.5 2.1 2 3.4.5 1.2.7 2.6.7 4 0 2.5-.8 4.8-2.2 6.6 1.3 1.9 2.2 4.2 2.2 6.6 0 2.4-.8 4.8-2.2 6.6 1.3 1.9 2.2 4.2 2.2 6.6 0 2.4-.7 4.6-2 6.4.7.9 1.3 2 1.7 3.2 5.7.4 10.3 5.2 10.3 11.2z"/>
        <path fill="#3AA3E3" d="M120.3 55.8v48.3c0 4.4-1.8 8.3-4.7 11.2l-71.2.1c-2.9-2.9-4.7-6.8-4.7-11.2V55.8c0-4.3 1.8-8.3 4.7-11.2h71.2c2.9 2.9 4.7 6.9 4.7 11.2z"/>
        <path fill="#67BCEF" d="M115.6 44.6L80 80 44.4 44.6c2.9-2.9 6.9-4.6 11.3-4.6h48.6c4.4 0 8.4 1.8 11.3 4.6zM115.6 115.4c-2.9 2.9-6.9 4.6-11.3 4.6H55.7c-4.4 0-8.4-1.8-11.3-4.6L80 80l35.6 35.4z"/>
        <path fill="#FFF" d="M102.6 65h7.5c2.7 0 4.9-2.2 4.9-4.9V58H97.7v2.1c0 2.7 2.2 4.9 4.9 4.9z"/>
        <path fill="#143C8A" d="M76.3 103.2h7.5c2.7 0 4.9-2.2 4.9-4.9v-2.1H71.4v2.1c0 2.7 2.2 4.9 4.9 4.9z"/>
        <path fill="#FFF" d="M57.6 65h-7.5c-2.7 0-4.9-2.2-4.9-4.9V58h17.3v2.1c-.1 2.7-2.2 4.9-4.9 4.9z"/>
        <path fill="#3AA3E3" d="M81.8 107.7h-3.5c-.4 0-.8-.4-.8-.8v-.1c0-.4.4-.8.8-.8h3.5c.4 0 .8.4.8.8v.1c0 .4-.4.8-.8.8zM88.6 113.1H71.4c-.4 0-.8-.4-.8-.8v-.1c0-.4.4-.8.8-.8h17.1c.4 0 .8.4.8.8v.1c0 .4-.3.8-.7.8z"/>
        <ellipse cx="53.8" cy="76.8" fill="#FFF" rx="8.3" ry="8.2"/>
        <circle cx="53.8" cy="76.8" r="4.5" fill="#1E54A0"/>
        <path fill="#FFF" d="M56.7 76.8h-1.1c0-1-.8-1.9-1.9-1.9v-1.1c1.7.1 3 1.4 3 3z"/>
        <ellipse cx="107" cy="76.8" fill="#FFF" rx="8.3" ry="8.2"/>
        <circle cx="107" cy="76.8" r="4.5" fill="#1E54A0"/>
        <path fill="#FFF" d="M109.9 76.8h-1.1c0-1-.8-1.9-1.9-1.9v-1.1c1.7.1 3 1.4 3 3z"/>
        <path fill="#2978BE" d="M74 130.9H57.1c-1.1 0-2-.9-2-2V124H69c2.8 0 5 2.2 5 5v1.9zM86 130.9h16.9c1.1 0 2-.9 2-2V124H91c-2.8 0-5 2.2-5 5v1.9z"/>
        <path fill="#67BCEF" d="M92.9 141.1c.5.9.2 2-.8 2.5-1.9 1-5.7 2.3-12.1 2.3-6.4 0-10.2-1.3-12.1-2.3-.9-.5-1.3-1.6-.8-2.5l6.8-11.9h12l7 11.9z"/>
    </g>
</svg>
