<?xml version="1.0" encoding="utf-8"?>
<!-- Generator: Adobe Illustrator 21.0.2, SVG Export Plug-In . SVG Version: 6.00 Build 0)  -->
<svg version="1.1" id="Layer_1" xmlns="http://www.w3.org/2000/svg" xmlns:xlink="http://www.w3.org/1999/xlink" x="0px" y="0px"
	 viewBox="0 0 260 260" style="enable-background:new 0 0 260 260;" xml:space="preserve">
<style type="text/css">
	.st0{fill:#3AA3E3;}
	.st1{fill:#90D8F0;}
	.st2{fill:#308DD1;}
	.st3{fill:#67BCEF;}
	.st4{fill:none;stroke:#1E54A0;stroke-width:0.75;stroke-linecap:round;stroke-linejoin:round;stroke-miterlimit:10;}
	.st5{fill:none;stroke:#FFFFFF;stroke-width:0.75;stroke-linecap:round;stroke-linejoin:round;stroke-miterlimit:10;}
	.st6{fill:none;stroke:#89E7F5;stroke-width:0.5;stroke-linecap:round;stroke-linejoin:round;stroke-miterlimit:10;}
	.st7{fill:none;stroke:#3AA3E3;stroke-width:0.5;stroke-linecap:round;stroke-linejoin:round;stroke-miterlimit:10;}
	.st8{fill:#FFFFFF;}
	.st9{fill:none;stroke:#3AA3E3;stroke-width:0.75;stroke-linecap:round;stroke-linejoin:round;stroke-miterlimit:10;}
	.st10{fill:none;stroke:#2978BE;stroke-width:0.75;stroke-linecap:round;stroke-linejoin:round;stroke-miterlimit:10;}
	.st11{fill:#1E54A0;}
	.st12{fill:#2978BE;}
	.st13{fill:#143D8A;}
	.st14{fill:#2266AF;}
</style>
<g>
	<path class="st0" d="M96,220.9h68c11.4,0,22-6.1,27.7-16l34-58.9c5.7-9.9,5.7-22.1,0-32l-34-58.9c-5.7-9.9-16.3-16-27.7-16H96
		c-11.4,0-22,6.1-27.7,16l-34,58.9c-5.7,9.9-5.7,22.1,0,32l34,58.9C74,214.8,84.5,220.9,96,220.9z"/>
	<g>
		<path class="st1" d="M108.1,57.6c-3.1-9.3-7.9-13-16.7-14.2c-9.7-1.4-20,1.7-28.5,6.6c-6.5,3.8-12.6,9.4-14.2,16.8
			c-2.1,9.9,5.1,20.2,14.6,23.8c9.5,3.6,20.4,1.4,29.3-3.4c5.1-2.8,9.9-6.5,12.9-11.4C108.6,70.8,110,63.1,108.1,57.6z"/>
	</g>
	<path class="st2" d="M140.2,108.1c0,8.7-7,16.6-15.7,17.6s-15.7-5.2-15.7-13.9s7-16.6,15.7-17.6S140.2,99.4,140.2,108.1z"/>
	<path class="st3" d="M29.8,113.3c0,10.7,8.7,20.2,19.4,21.1s19.4-7,19.4-17.7s-8.7-20.2-19.4-21.1C38.5,94.6,29.8,102.6,29.8,113.3
		z"/>
	<path class="st4" d="M114,113.6c-0.6-2.8,0-5.6,1.5-7.7c0.6,4,1.3,6.7,2,10.7c-0.5-4.3,1-5.8,3-5.5c2.4,0.4,3.5,2.9,3.7,5.5
		c0.1,1.7-0.4,3.7-1.9,4.6"/>
	<path class="st4" d="M132.4,101.5c-1.8-2-4.5-2.5-6.6-1.5c-2.5,1.3-3.2,4.7-1.6,8.4c0.4,0.8,0.9,1.5,1.4,2.3
		c1.3,1.9,3.4,3.5,5.5,3.3c1.2-0.1,2.2-0.7,2.8-1.6c1.1-1.6,2.1-5.7,0.6-8.1c-0.9,1.2-2.9,3-4.2,3.5"/>
	<path class="st5" d="M53.9,69.7c0.3,6.2,6.3,14.8,16,15.9c0.8-7.1,1.2-6.5,0.6-12"/>
	<path class="st5" d="M65,75.8c2.1,1.6,7.4,3.1,11.5,3.7c0.2-7.7-1.7-17.7-3.8-25.2"/>
	<path class="st5" d="M78.9,49.4c2.5,10.5,3.7,24.6,3.7,35.1"/>
	<path class="st5" d="M78.9,49.4c2.3,5.3,14.2,24.8,15.7,28.7"/>
	<path class="st5" d="M82.3,72.9c2.7-1.3,4.9-2.5,7.4-4.2"/>
	<path class="st5" d="M85.6,48.6c4.8,6.7,11.9,18.5,14.7,24.1"/>
	<path class="st5" d="M86,52.5c5.5-4.5,11.8-4.7,15.1,1.1c2,3.4-2.5,9-6.1,9.1"/>
	<path class="st6" d="M115.7,47c1.1-0.9,5-2.9,6.3-3.3"/>
	<path class="st6" d="M113.4,82.8c0,0,3.1,1.6,5.3,3.3"/>
	<path class="st7" d="M74.1,34.9c-0.5-2.9-1.2-5.8-2.2-8.7"/>
	<path class="st7" d="M41.5,55.6c-2-0.9-4.1-1.5-6.2-1.8"/>
	<path class="st7" d="M97.4,33.5c0.3-1.1,0.9-2.9,1.2-3.9"/>
	<path class="st7" d="M36.8,76.4c0.8-0.2,1.5-0.4,2.3-0.6"/>
	<path class="st6" d="M120.3,63.3c0.8,0.1,1.6,0.2,2.3,0.3"/>
	<path class="st6" d="M95.3,99.2c0.7,1.1,1.3,2.3,1.7,3.5"/>
	<path class="st7" d="M54.3,41.2c0.4,0.3,1.6,2.1,1.8,2.6"/>
	<g>
		<path class="st8" d="M121,172.1c-9.7-3.1-13.8-1.5-23.2-0.9c-19,1.3-31.3-9.5-27.4-28.9c1.9-9.4,12.3-18,21.4-17.7
			c16.2,0.6,18.5,17.5,30.7,30c0,0,4.8,0.7,4.2,9.3S121,172.1,121,172.1z"/>
	</g>
	<path class="st9" d="M87.1,142c1.3-5.4-1.5-10.8-7.4-6.5c-4.2,3.1-5.6,7.6-5.6,12.7c0,5.5,4.1,10.8,9.4,6.1
		c1.3-1.1,3.3-5.5,2.4-7.3c-0.7-1.2-3.7-1.1-4.8-2.3c0,0-0.4,2-0.9,2.8"/>
	<path class="st9" d="M91.2,130.2c0.1,9.4-0.7,19-4,27.8c-0.7,1.9-1.6,3.9-2.7,5.6"/>
	<path class="st9" d="M91.4,132.7c5.2-2.8,7.9,1.5,7.3,6.7c-0.5,4.4-4.4,4.3-8,3.9"/>
	<path class="st9" d="M94.5,148.2c-0.2,5.9-2.4,11.5-4.5,17c0.1-0.2,0.1-0.4,0.2-0.6"/>
	<path class="st9" d="M93.9,148.1c2.5-0.5,5.1,0.6,6.5,2.7c0.6,1,1.2,2.3,1,3.5c-0.1,1.4-1.8,1.9-3,2.3c-1.2,0.4-2.5,0.3-2.5,1.7
		c-0.1,1.3,0.3,2.6,0.8,3.8c1.1,2.4,2.5,4.3,5.2,4.4"/>
	<path class="st9" d="M104.6,166.4c4.7,0.3,6.5-3.6,5.9-7.8c-0.5-3.4-4.2-5.9-5.9-8.7c-1.4-2.4-3.7-7.1-0.7-9.4
		c3.8-2.9,5.8,3.4,6.9,5.9"/>
	<path class="st10" d="M60.2,105.8c-1.2-1.2-3.3-2.5-5.5-2.9c0.5,7.6,2.7,14.6,4.8,21.9c1.6-1.9,2.7-3.5,3-5.9"/>
	<path class="st10" d="M55.1,114.6c0.8-0.4,2.7-0.9,3.5-1.1"/>
	<path class="st10" d="M39.6,103.9c2.3-2,6.9-3.5,10.7-1.9"/>
	<path class="st10" d="M45.2,100.2c1.2,6.6,3.6,19,7,29.2"/>
	<path class="st10" d="M42.5,119.4c0.5,0.5,1,0.7,1.8,0.8c0.1,2.2-1.7,4.1-3.1,5.6c-5.4-2.2-8.1-12.3-5.8-17.2"/>
	<g>
		<path class="st11" d="M122.1,172.3l-0.6,6.1c0,0,0.3,10.7,0.2,11.4c-0.2,2.7-4.9,2.6-6,1.5c-0.7-0.5,1.9-12.3,1.9-12.6l0,0
			l0.7-7.8L122.1,172.3z"/>
	</g>
	<g>
		<path class="st12" d="M125.5,188.3l-0.7,11c-0.1,1.1-0.4,2.1-0.9,3.1l-4.4,9.3l-0.7,2.3l-1.9,6.7l-1.5,0.1l-3.7,0.3l-9.8,0.8l0,0
			c0,0,0,0,0,0c0-0.2-0.2-1.7-0.5-3.8c0-0.2-0.1-0.5-0.1-0.7c0-0.4-0.1-0.8-0.2-1.2c-0.8-5.8-2.2-21.4-0.6-23.8
			c3.2-5,8.9-7.6,10.8-13.5c0.7-2.1,5-3.8,6.2-0.5l0,0c0,0.3-0.5,5.3-0.6,6c-0.1,1-0.2,1.9-0.2,2.2c-0.1,3.6,0.5,4.1,1.2,4.6
			c0.7-1.5,1.3-3.2,1.4-6c0-0.7,0.1-1.4,0-2.2c0-2.7,0.8-4,1.7-4.6c0.2-0.2,0.6-0.3,0.8-0.3c0.8-0.1,1.4,0.1,1.5,0.5
			C124.2,182.9,125.5,188.2,125.5,188.3z"/>
	</g>
	<g>
		<path class="st13" d="M123.7,213.2c0,0-4-1.9-8-1.9c-10.8,0.2-17.1,9.6-17.1,9.6s4.7,3.5,13.7,3.7c0,0,0.1,0,0.1,0
			c3,0.1,5.8-1.6,7.3-4.2L123.7,213.2z"/>
	</g>
	<g>
		<path class="st13" d="M198.4,211c0.1,5.4-17.3,13.8-34.2,14.7c-15.6,0.7-29.9-2.5-30-7.9c0-0.6,7.1-12.4,10.5-17.6
			c0.1,4,8.8,6.3,19.6,5.1c10.8-1.2,19.5-5.4,19.4-9.5C186.3,204.6,198.2,201.3,198.4,211z"/>
	</g>
	<g>
		<g>
			<path class="st12" d="M183.7,195.8C183.7,195.8,183.7,195.8,183.7,195.8c0.1,4-8.6,8.3-19.4,9.5c-10.8,1.2-19.6-1.1-19.6-5.1
				c2.9-4.5,5.3-9.7,5.6-17.2c8,1.2,16.4-0.3,23.9-3.3c1.8-0.7,3.5-1.5,5.2-2.3c1.1-0.5,2.1-1.1,3.2-1.7
				C182,180.2,180.8,186.1,183.7,195.8z"/>
		</g>
	</g>
	<g>
		<path class="st14" d="M124.9,153.2c-1-1.1-2.2-1.8-3.5-1.8c-2.6-0.1-5.1,2.3-6.5,6.2c-1.8,5.3-1.1,11.8,1.6,15
			c1,1.1,2.2,1.8,3.5,1.8c2.6,0.1,5.1-2.3,6.5-6.2C128.3,162.9,127.6,156.3,124.9,153.2z M125.3,167.4c-1.3,3.9-4,5.2-6,3
			c-1.9-2.2-2.4-7.2-1.1-11.1c1.3-3.9,4-5.2,6-3C126.2,158.5,126.7,163.5,125.3,167.4z"/>
	</g>
	<g>
		<g>
			<path class="st2" d="M194.9,134.7l-12,41.3l-0.1,0.2l-0.5,1.9c-1.7,0.9-3.5,1.6-5.2,2.3c-7.6,3-15.9,4.5-23.9,3.3
				c-2.1-0.3-4.3-0.9-6.3-1.6c-2.6-0.9-5.3-2.1-7.5-3.8c-8-5.7-2.8-29.1,5.3-41.7C146.5,133.5,192.7,136.1,194.9,134.7z"/>
		</g>
	</g>
	<g>
		<path class="st1" d="M204.5,160.4c-5.3,6.4-11.8,11.9-19,16c-1,0.6-2.1,1.2-3.2,1.7c3-9.1,2-14.4-0.7-25c-0.5-2-1.2-2.8-2.6-3.1
			c-20.8-5.7-30.7-9.6-34.4-13.4c-1.6-1.6-2-3.2-1.6-4.9c0.6-2.7,2.9-6.6,5.3-8.5c12.2-9.7,29.7-10.6,38.2-8.2
			c10.2,2.9,18.7,7.9,22.7,18.1C211.5,139.2,212.2,151.4,204.5,160.4z"/>
	</g>
</g>
</svg>
