<svg xmlns="http://www.w3.org/2000/svg" width="203" height="200" viewBox="0 0 203 200">
    <g fill="none" fill-rule="nonzero">
        <path fill="#60D5F2" d="M69 194.93h68a32 32 0 0 0 27.71-16l34-58.93a32 32 0 0 0 0-32l-34-58.93a32 32 0 0 0-27.71-16H69a32 32 0 0 0-27.71 16L7.24 88a32 32 0 0 0 0 32l34 58.93a32 32 0 0 0 27.76 16z" opacity=".2"/>
        <path fill="#89E7F5" d="M70.74 109.07a3 3 0 0 1-1.15 2.36c-1.7 1.33-3.88 1.82-6.77 1.5l2.49-9.19a7.58 7.58 0 0 1 3.13 1.26 5.4 5.4 0 0 1 2.3 4.07z"/>
        <path fill="#89E7F5" d="M95.5 128.63a59.23 59.23 0 0 1-6.6-8.25 1.33 1.33 0 0 1-1.69-.49c-3.69-5.78-6.81-7.41-8.36-7.05-1.22.28-1.52 1.82-1.59 2.47-.25 2.29.75 3 2.59 4.33a14.74 14.74 0 0 1 4.07 3.93 12.76 12.76 0 0 1 1.8 7.2c0 4.26-3.24 9.71-8 11.06a9.73 9.73 0 0 1-3.23.35 8.81 8.81 0 0 1-5.64-2.3 4.43 4.43 0 0 1-1.35-4.41 5.65 5.65 0 0 1 4.29-4 6.21 6.21 0 0 1 6.1 1.82 1.332 1.332 0 0 1-2 1.76 3.59 3.59 0 0 0-3.51-1 3 3 0 0 0-2.35 2.1c-.152.69.1 1.407.65 1.85a6.86 6.86 0 0 0 6.29 1.3c3.56-1 6.06-5.31 6.07-8.54A10.29 10.29 0 0 0 81.7 125a12.22 12.22 0 0 0-3.41-3.23c-2-1.45-4.1-2.94-3.66-6.77.28-2.52 1.63-4.29 3.62-4.75a6.41 6.41 0 0 1 5 1.28c-4.56-7-9.25-12.48-18.34-12.78a18.31 18.31 0 0 0-8.75 2.13 4.23 4.23 0 0 1 2.71 3.17c.62 3.06-.5 6.9-1.79 11.33-.32 1.12-.66 2.28-1 3.49a1.322 1.322 0 1 1-2.55-.7c.33-1.22.68-2.39 1-3.53 1.2-4.1 2.23-7.64 1.74-10.06a1.6 1.6 0 0 0-1.06-1.23c-.56-.19-2.18-.36-5 2.15-7.49 6.58-7.8 21.35-4 27.51 1.9 3.12 3.86 2.34 4.5 2.09a7.84 7.84 0 0 0 4.4-4.78h-1A10 10 0 0 1 49.3 129a1.32 1.32 0 1 1 1.46-2.2c1.32.88 4.13 1.11 5.94.78h.65l.14.05.1.05.12.08.09.08.1.09.1.07a.6.6 0 0 1 .08.12l.06.11.05.12v.49a.77.77 0 0 1 0 .12.87.87 0 0 1 0 .14c-1.23 4.41-3.33 7.07-6.6 8.36a5.94 5.94 0 0 1-2.55.44 5.17 5.17 0 0 1-1-.17 20.64 20.64 0 0 0 7.27 5.08c2.76-7.42 5.77-15.72 7.58-24.07v-.06a1 1 0 0 1 0-.14v-.11l.07-.12.07-.09a.53.53 0 0 1 .08-.1l.09-.08.1-.08.1-.06.12-.06h.71c2.42.3 6.77 1.19 8.68 3.91a4.84 4.84 0 0 1 .76 4c-.52 2.32-2.5 3.43-4.26 4.4-1.49.83-2.91 1.61-3.65 3-1 1.91-1.44 5 1.93 8.75a1.33 1.33 0 0 1-.11 1.87 1.34 1.34 0 0 1-1 .33 1.33 1.33 0 0 1-.91-.44c-4.6-5.17-3.43-9.56-2.31-11.72s3-3.21 4.71-4.15c1.71-.94 2.72-1.55 3-2.66a2.16 2.16 0 0 0-.35-1.86c-.84-1.19-2.92-2.15-5.67-2.63a192 192 0 0 1-7.41 23.21 35.87 35.87 0 0 0 13.13 1.33c9.38-.64 13.41-2.29 23.11.82 0 0 5.19.48 5.7-8.07.51-8.55-4.08-9.3-4.08-9.3zm-24.28-15.11a11 11 0 0 1-7.74 2.12c-.44 0-.89-.07-1.35-.13l-1.73 6.4a1.32 1.32 0 0 1-1.35 1h-.28a1.32 1.32 0 0 1-.93-1.62L63 102a.47.47 0 0 1 0-.09v-.13l.07-.12.06-.11.09-.1.08-.08.12-.08.09-.07.12-.06H64.3a10.5 10.5 0 0 1 5.7 2 8 8 0 0 1 3.26 6.1 5.68 5.68 0 0 1-2.04 4.26zM50.34 19.13a213.64 213.64 0 0 1 2.24 45.76 30.46 30.46 0 0 1-17-1.9c-9-4-15.37-14.31-12.81-23.78 1.92-7.07 8.1-12.21 14.63-15.5a53.92 53.92 0 0 1 6.74-2.86 124.86 124.86 0 0 1 2.61 31.28A22.61 22.61 0 0 1 44 51a67.19 67.19 0 0 0 .21-8.64c-.07-1.68-2.7-1.85-2.63-.15a66.78 66.78 0 0 1-.12 7.35 33.93 33.93 0 0 1-4-3c-1.29-1.11-2.73 1.1-1.46 2.2a34 34 0 0 0 5.22 3.76c-.16 1.51-.37 3-.6 4.52-6.1-2.42-12.09-7.41-12.26-14.42 0-1.69-2.68-1.86-2.64-.15.22 8.8 7.7 15 15.51 17.61A1.34 1.34 0 0 0 43 59c.3-1.72.55-3.43.75-5.13a23.07 23.07 0 0 0 3.79 1.29 1.34 1.34 0 0 0 1.75-1.17A126.65 126.65 0 0 0 46.67 20c1.22-.31 2.44-.62 3.67-.87zM55.52 48.34a209.5 209.5 0 0 0-1.36-21c1.49 3 3.06 6 4.56 8.94C60.1 39 61.63 41.77 63 44.56c-2.4 1.44-4.91 2.63-7.48 3.78zM73.24 30.45c2.24 3.76 3.47 10.72-2.34 11.13-2.77-5.74-5.9-11.37-9.2-16.78 4.59-.04 9.04 1.44 11.54 5.65z"/>
        <path fill="#89E7F5" d="M80.66 33.59c-2.48-9.19-7-13-15.32-14.69a36.19 36.19 0 0 0-12.19-.26C57.71 30.16 65.34 40.5 69.2 52.28c.53 1.62-2.06 2.15-2.59.55a50.92 50.92 0 0 0-2.4-5.9 92 92 0 0 1-8.65 4.26c0 4.4-.08 8.79-.3 13.16a43.51 43.51 0 0 0 8.83-3C69.19 59 74 55.65 77.21 51c3.21-4.65 4.91-12 3.45-17.41zm-8.58 10.47c.48 1 .94 2.07 1.39 3.11.68 1.56-1.67 2.76-2.36 1.2a185.39 185.39 0 0 0-12.87-24.16 1.06 1.06 0 0 1-.07-1.14 1 1 0 0 1 1-.75c7.26-.69 14.43 1.6 17.37 8.81 2.21 5.46 1.52 11.82-4.46 12.93zM108.15 89.42c-4 3.57-9.22.27-11.69-3.44-2.68-4-4.66-10.47-.84-14.5a6.81 6.81 0 0 1 1.73-1.34 15.74 15.74 0 0 0-14.3 14.4A11.88 11.88 0 0 0 96 97.35a15.79 15.79 0 0 0 12.89-8.65 7.75 7.75 0 0 1-.74.72zM93.2 95.26c-.72.47-1.31-.72-.6-1.18 2.24-1.47 2.33-5.82.55-7.67-3.08-3.18-4 1.46-3.91 3.6a.67.67 0 0 1-1.31.1c-.35-2.83-.78-5.65-1.12-8.48a9.92 9.92 0 0 0-.78 5.12c.08.84-1.22 1.12-1.29.28a11.29 11.29 0 0 1 1.94-7.85c.3-.43 1.14-.37 1.2.22.22 2.19.52 4.38.82 6.56.85-1.75 2.4-2.73 4.77-1 3.19 2.28 2.91 8.21-.26 10.3h-.01z"/>
        <path fill="#89E7F5" d="M106.07 74a.94.94 0 0 0 1.4 0 11.18 11.18 0 0 1 1.61 2.31 1.11 1.11 0 0 0-.42.32 14.74 14.74 0 0 1-5.43 4c-1.18.48-.27 2.25.9 1.76a15.36 15.36 0 0 0 4.94-3.38 10.51 10.51 0 0 1-1.09 7.31c-2.86 5.1-8.18 1.26-10.33-2.27-1.75-2.87-3.11-7-1.35-10.15 2.22-3.9 7.13-2.77 9.77.1zM20.58 71.44a16.94 16.94 0 0 0-19.74 16c-.417 10.574 7.131 19.793 17.58 21.47 1.39.203 2.8.25 4.2.14a1.64 1.64 0 0 1-.32-1.05c.27-7.54 1-15.07 1.52-22.6a1.67 1.67 0 0 1 2.56-1.29c1.79 1.29 3.91 2.88 5.75.77 1.39-1.6 3.58.89 2.19 2.47-2.19 2.52-4.9 2.22-7.42 1-.18 2.24-.353 4.487-.52 6.74l.32.11.25.06h.08c.207.011.413.011.62 0h.45a1.65 1.65 0 0 1 .61 3.24 8.05 8.05 0 0 1-2.62-.13c-.18 2.53-.33 5.06-.45 7.59 5.13-1.34 9.07-3.89 10.22-9.66a1.35 1.35 0 0 1 1.92-1 16.89 16.89 0 0 0 .31-2.45c.391-10.529-7.113-19.704-17.51-21.41zm-6.17 30.27a1.67 1.67 0 0 1-2.18 1.47c-8.16-3.49-10.79-13.5-7.44-21.29.83-1.95 4-.9 3.13 1.05-2.26 5.3-1.45 12.38 3.29 15.9.05-2.07.1-4.13.29-6.2.19-2.07 3.49-1.93 3.29.18-.27 2.97-.24 5.93-.38 8.89zm13.51-20.42a14.37 14.37 0 0 0-6.29-3.5c-.7 9.21-1.49 18.41-2 27.63a1.652 1.652 0 1 1-3.3-.18c.55-9.31 1.35-18.61 2.06-27.91a13.93 13.93 0 0 0-7.91 2.21c-2.15 1.39-3.93-2.16-1.8-3.53 7.07-4.55 16.28-3 22.22 2.65 1.83 1.75-1.14 4.34-2.98 2.63zM90.4 23.79A13.23 13.23 0 0 1 96 20.7c1.23-.32.82-2.26-.42-1.94a15.31 15.31 0 0 0-6.52 3.55c-.91.87.41 2.35 1.34 1.48zM85.34 55.71a10.26 10.26 0 0 1 4.76 2.51c.92.87 2.41-.44 1.48-1.32A12.22 12.22 0 0 0 86 53.83c-1.25-.29-1.9 1.59-.66 1.88zM48.06 9.9c.15 1.26 2.09.84 1.94-.42A60.77 60.77 0 0 0 48.38 1c-.33-1.23-2.27-.82-1.94.42a60.77 60.77 0 0 1 1.62 8.48zM10.18 26.8a28.12 28.12 0 0 1 5.9 2.11c1.14.56 1.77-1.33.64-1.88a28.12 28.12 0 0 0-5.9-2.11c-1.24-.29-1.88 1.58-.64 1.88zM71.51 11a18.44 18.44 0 0 1 1-3.56c.37-1.22-1.51-1.86-1.88-.64a20.9 20.9 0 0 0-1.07 4.09c-.14 1.25 1.84 1.37 1.95.11zM12.69 46.31l-2.25.46a1 1 0 0 0 .42 1.94l2.25-.46a1 1 0 0 0-.42-1.94zM65 73.47a12.75 12.75 0 0 1 1.33 3.26c.31 1.23 2.25.83 1.94-.42a14.73 14.73 0 0 0-1.5-3.74c-.61-1.1-2.38-.21-1.77.9zM96.49 41.23a1.002 1.002 0 1 0 .11-2 1.002 1.002 0 0 0-.11 2zM30.29 17.71a1 1 0 0 0 1.33.43 1 1 0 0 0 .43-1.33A8.34 8.34 0 0 0 30.29 14c-.88-.92-2.36.4-1.48 1.32a6.92 6.92 0 0 1 1.48 2.39z"/>
        <path fill="#FFBA00" d="M94.65 146.2l-.56 5.81-.12.05-.18.11c-.85.54-1.6 1.8-1.58 4.37v2.1a14 14 0 0 1-1.36 5.67c-.66-.47-1.2-.94-1.13-4.37 0-.2 0-.65.09-1.28v-.73l.46-4.73v-.13c0-.26.05-.53.08-.79l.71-7.43 3.59 1.35z"/>
        <path fill="#89E7F5" d="M75.38 164.11c1-1 2.34-2.27 3.74-3.57 1.74-1.62 3.51-3.26 4.56-4.38 0 0-3.2-1.36-4.51.33a37.32 37.32 0 0 0-3.79 7.62z" opacity=".6"/>
        <path fill="#89E7F5" d="M79.12 160.54c2.63-2.45 5.33-4.94 5.51-5.62.13-.5.27-1 .42-1.64a3 3 0 0 0-1.57-.42c-2 .05-3.62 4.97-4.36 7.68z" opacity=".8"/>
        <path fill="#60D5F2" d="M97.93 161.44l-.65 10.46a10 10 0 0 1-.86 2.93l-4.14 8.86-.63 2.22-1.82 6.39-1.42.12-3.51.3-9.32.79c0-.19-.22-1.6-.49-3.62 0-.21-.06-.43-.09-.66-.03-.23-.1-.75-.15-1.15-.75-5.54-2.05-20.33-.6-22.56a11 11 0 0 1 1.2-1.39c1-1 2.35-2.27 3.74-3.57l.5-.46.49-.45.48-.45.94-.89.13-.13c.79-.76 1.49-1.44 2-2a6.7 6.7 0 0 0 .84-1 .56.56 0 0 0 .06-.11.43.43 0 0 0 0-.1c.13-.5.27-1 .43-1.64.51-2 3.39-4 5.34-1.06 0 .26-.05.53-.08.79v.13l-.26 2.64c-.08.82-.14 1.48-.2 2.09v.73c0 .63-.08 1.07-.09 1.28-.07 3.43.47 3.91 1.13 4.37a14 14 0 0 0 1.36-5.67c0-.64.05-1.33 0-2.1 0-2.57.73-3.83 1.58-4.37l.18-.11.12-.05a1.72 1.72 0 0 1 .36-.12h.09c.72-.14 1.32.14 1.38.44.68 3.99 1.92 9.01 1.96 9.12z" opacity=".8"/>
        <path fill="#0078C5" d="M94.67 185.06a18.64 18.64 0 0 0-7.41-1.74c-10 .18-15.92 8.91-15.92 8.91s4.36 3.24 12.72 3.41h.09a7.58 7.58 0 0 0 6.74-3.88l3.78-6.7z"/>
        <path fill="#60D5F2" d="M161.73 113.16l-11.36 39-.05.2-.52 1.77c-1.61.81-3.26 1.55-4.94 2.21-7.14 2.83-15 4.24-22.58 3.07a32.49 32.49 0 0 1-6-1.5 29.17 29.17 0 0 1-7.11-3.56c-7.58-5.4-2.62-27.49 5-39.4 1.9-2.95 45.51-.5 47.56-1.79z" opacity=".8"/>
        <path fill="#314448" d="M170.78 137.4a64.83 64.83 0 0 1-18 15.13c-1 .56-2 1.09-3 1.6.19-.59.37-1.18.52-1.77v-.2c2-8.29 0-16.75-1.27-21.64-.5-1.93-1.13-2.61-2.43-3-19.63-5.36-29-9-32.48-12.61a4.81 4.81 0 0 1-1.53-4.65 16.49 16.49 0 0 1 5-8c11.49-9.14 28-10 36-7.75 9.63 2.71 17.63 7.43 21.44 17.1 2.34 5.77 3.04 17.34-4.25 25.79z"/>
        <path fill="#0078C5" d="M167.74 185.86c.08 5.11-16.36 13.07-32.3 13.83-14.68.71-28.23-2.34-28.31-7.46 0-.54 6.73-11.75 9.88-16.63.06 3.81 8.34 6 18.53 4.85 10.19-1.15 18.39-5.13 18.34-8.94 2.46 8.34 13.72 5.22 13.86 14.35z"/>
        <path fill="#60D5F2" d="M153.87 171.51c.05 3.81-8.16 7.8-18.34 8.94-10.18 1.14-18.47-1-18.53-4.85a30.71 30.71 0 0 0 5.29-16.2c7.58 1.17 15.45-.24 22.58-3.07 1.68-.66 3.33-1.4 4.94-2.21 1-.51 2-1 3-1.6-.51 4.24-1.66 9.8 1.06 18.99z" opacity=".95"/>
        <path fill="#FFCF32" d="M97.87 127.17a4.8 4.8 0 0 0-3.48-1.81c-2.62-.06-5.1 2.33-6.47 6.23-1.83 5.26-1.14 11.84 1.59 15a4.78 4.78 0 0 0 3.48 1.81c2.63.06 5.1-2.33 6.47-6.23 1.83-5.28 1.14-11.86-1.59-15zm.47 14.19c-1.35 3.88-4 5.2-6 3s-2.42-7.19-1.07-11.06c1.35-3.87 4-5.2 6-3s2.43 7.19 1.08 11.06h-.01z"/>
    </g>
</svg>
