<svg xmlns="http://www.w3.org/2000/svg" width="232" height="227" viewBox="0 0 232 227">
    <defs>
        <linearGradient id="a" x1="45.558%" x2="118.071%" y1="33.101%" y2="91.179%">
            <stop offset="0%" stop-color="#60D5F2"/>
            <stop offset="37%" stop-color="#60D5F2" stop-opacity=".99"/>
            <stop offset="50%" stop-color="#60D5F2" stop-opacity=".96"/>
            <stop offset="59%" stop-color="#60D5F2" stop-opacity=".92"/>
            <stop offset="67%" stop-color="#60D5F2" stop-opacity=".85"/>
            <stop offset="73%" stop-color="#60D5F2" stop-opacity=".75"/>
            <stop offset="79%" stop-color="#60D5F2" stop-opacity=".64"/>
            <stop offset="84%" stop-color="#60D5F2" stop-opacity=".51"/>
            <stop offset="89%" stop-color="#60D5F2" stop-opacity=".35"/>
            <stop offset="93%" stop-color="#60D5F2" stop-opacity=".18"/>
            <stop offset="97%" stop-color="#60D5F2" stop-opacity="0"/>
        </linearGradient>
    </defs>
    <g fill="none" fill-rule="nonzero">
        <path fill="#60D5F2" d="M72.72 76.3a5.11 5.11 0 0 1-5.11 5.11H42.3a5.55 5.55 0 0 1 0-11.09h7.83a8.72 8.72 0 0 1 17 .9h.49a5.11 5.11 0 0 1 5.1 5.08z" opacity=".3"/>
        <path fill="#60D5F2" d="M78.09 224.66h75.81a40 40 0 0 0 34.64-20L226.45 139a40 40 0 0 0 0-40l-37.9-65.66a40 40 0 0 0-34.64-20H78.09a40 40 0 0 0-34.64 20L5.55 99a40 40 0 0 0 0 40l37.91 65.66a40 40 0 0 0 34.63 20z" opacity=".2"/>
        <path fill="#89E7F5" d="M171.76 113.15a4.63 4.63 0 0 0 4.63 4.63h27.3a6.73 6.73 0 1 0-1.59-13.27 6.16 6.16 0 1 0-12.1-2.19 8.22 8.22 0 0 0-12.08 6.46 4.62 4.62 0 0 0-6.17 4.37h.01z" opacity=".4"/>
        <path fill="#00B8F3" d="M102.47 13.38c-1.23-4.61 4.15-8.38 6-9.57a10.15 10.15 0 0 1 6.32-1.53 1 1 0 0 1 .41.1 1 1 0 0 1 .38.78 10.63 10.63 0 0 1-2.65 8.58"/>
        <path fill="#60D5F2" d="M111.13 202a5.79 5.79 0 0 1-5.79 5.79H71.16a8.43 8.43 0 1 1 2-16.62 7.72 7.72 0 1 1 15.13-2.72 10.29 10.29 0 0 1 15.12 8.08 5.79 5.79 0 0 1 7.72 5.47z" opacity=".4"/>
        <path fill="#60D5F2" d="M38.84 199.44a5.11 5.11 0 0 0 5.16 5.11h25.26a5.55 5.55 0 0 0 0-11.09h-7.83a8.72 8.72 0 0 0-17 .9h-.49a5.11 5.11 0 0 0-5.1 5.08z"/>
        <path fill="#00B8F3" d="M33.65 178.47l-1.86-9.64c-.11-.58-1-.34-.89.25l1.86 9.64c.11.58 1 .34.89-.25zM39.29 178.63l2.56-9.48a.462.462 0 0 0-.89-.25l-2.56 9.48a.462.462 0 1 0 .89.25z"/>
        <path fill="#00B8F3" d="M203.05 125.18c.09 1.82-2.71 6.84-3.16 8a163.75 163.75 0 0 0-8.16 26.37c-2.13 10.07-3.64 20.54-6.55 30.41-2.76 9.39-10.94 14.75-19.13 19.19-6.7 3.65-18.14 13.22-25.72 7.25-3.08-2.43-7-5.57-8.07-9.39-1.28-4.7-1.07-9.68-2.55-14.31-1.48-4.63-4.56-9-7.19-13.1-1-1.62-2.51-2.93-3.26-4.72-.85-2-.73-3.73-2.53-5.21-4-3.26-9.85-1.4-14.45-1.51a33.11 33.11 0 0 1-13.19-2.86c-9.62-4.52-3.62-16.67-9.52-23.9-2.69-3.29-6.35-5.47-9.1-8.66-2.75-3.19-5.3-6-8.15-8.89 1.28 1 2.62 1.95 3.92 2.88 2 1.45 4.7 1.83 7.07 2.44 6 1.55 12.05 2.89 18.14 4a276.59 276.59 0 0 0 36.89 4.35 274.49 274.49 0 0 0 37.89-.7c11.41-1 23-2.79 33.17-8.06 1.6-.76 3.28-1.99 3.65-3.58z" opacity=".8"/>
        <path fill="#89E7F5" d="M203.05 125.18c-.37 1.59-2.07 2.82-3.62 3.62-10.17 5.27-21.76 7.07-33.17 8.06a274.49 274.49 0 0 1-37.89.7 276.59 276.59 0 0 1-36.89-4.35 293.03 293.03 0 0 1-18.14-4c-2.37-.61-5.05-1-7.07-2.44-1.29-.93-2.63-1.88-3.92-2.88-.56-.43-1.12-.88-1.65-1.32-4.05-3.35 1-8.37 3.57-10.9a30.38 30.38 0 0 1 10.38-6.23c6-2.3 12.39-3.55 18.1-6.45 4.53-2.29 8.53-5.58 13.21-7.55 4.68-1.97 10.56-2.35 14.45.92 1.18 1 2.12 2.28 3.35 3.21a15.76 15.76 0 0 0 3.27 1.72l1.9.8 9.59 3.58a60.18 60.18 0 0 0 13.15 2.79 137.15 137.15 0 0 1 29.56 5.28c7.66 2.4 15.24 6 20.53 12a5 5 0 0 1 1.34 2.37 3 3 0 0 1-.05 1.07z"/>
        <path fill="url(#a)" d="M161.84 138.12v90.08c0 1.19-12.69 10.22-12.69 9v-95.79a8.16 8.16 0 0 0 0-2.07c-.27-.88.12-.53-.43-1-1.07-.89-4-.66-5.46-1.8a8.14 8.14 0 0 1-2-2.94 12.84 12.84 0 0 0-8-6.11 25.59 25.59 0 0 0-2.49-.61 17.52 17.52 0 0 1-2.69-.54.49.49 0 0 1-.17 0c-2.43-.55-4.26-1.51-5.61-5.08a.77.77 0 0 1-.06-.4c-1.22-3.15-1.18-6.93-1.12-10.08a18 18 0 0 0-2.7-10.49 10.25 10.25 0 0 1-1.52-3.27c-.27-1.39.5-4.3-1-5.08-1.05-.55-.12-2.14.93-1.59 2 1.06 1.63 2.36 1.85 4.36.45 4 3 6.16 3.94 9.94.72 3 .2 6.11.25 9.16a13.8 13.8 0 0 0 1.31 6.49c2.49 4.63 4.67 4.32 8.71 4.56a45.67 45.67 0 0 1 10.48 1.58c3.11 1 4.52 3.93 7.57 4.9 2.79.88 5.92-.37 8.46 1.43a6.17 6.17 0 0 1 2.44 5 .7.7 0 0 1 0 .14c.005.07.005.14 0 .21z" opacity=".8"/>
        <path fill="#FFCF32" d="M64.07 146.18l-.06.37-3 19.89a22.29 22.29 0 0 1-6.66 5.79 17.74 17.74 0 0 1-8.92 2.46 52.33 52.33 0 0 1-16.38-2.82c-9.25-3.24-20.63-11.32-18.4-22.21 1.21-5.63 7.23-8.78 12.83-10.18 12.79-3.17 30.52-.23 40.59 6.7z"/>
        <path fill="#FFF" d="M12.9 153.24a25.92 25.92 0 0 0 7.94 5.2 57.88 57.88 0 0 0 9 3.17 59.14 59.14 0 0 0 9.32 1.73 34.66 34.66 0 0 0 9.33-.2.924.924 0 0 1 .32 1.82 36.23 36.23 0 0 1-9.77-.25 60.28 60.28 0 0 1-9.41-2.22 58.58 58.58 0 0 1-8.91-3.64 26.13 26.13 0 0 1-7.82-5.61z" opacity=".4"/>
        <path fill="#FFF" d="M14 149.43A102.85 102.85 0 0 1 31.48 148 74.1 74.1 0 0 1 49 150.11a.923.923 0 0 1-.45 1.79 72.73 72.73 0 0 0-17.07-2.95 102.4 102.4 0 0 0-17.48.48z" opacity=".3"/>
        <path fill="#00B8F3" d="M126.6 87.64a31.48 31.48 0 0 1 2 8.88 40.57 40.57 0 0 1 0 4.63c0 .84-.09 1.67-.16 2.51 0 .447-.033.893-.1 1.34 0 .06 0 1.17.09 1.15.343-.071.7-.01 1 .17.3.16.57.38.87.55a5.39 5.39 0 0 0 3.6.39 26.69 26.69 0 0 1 3.64-.62 3.14 3.14 0 0 0 1.34-.19.83.83 0 0 0 .36-.33c.3-.54-.32-1.31-.49-1.85-.17-.54-.29-1-.41-1.53a61.74 61.74 0 0 1-1.16-6.8c-.12-1-.22-2-.25-3a4.17 4.17 0 0 1 .13-1.71c2-4.45 9.51-6.63 12.74-10.53 6-7.23-2.57-2-5.39-.48-8 4.22-9.48 6.61-10-3.46-.1-2 .53-18.86-3.8-16.94-3.4 1.51.54 12 .9 14.74.26 1.93 2.36 14.49-2.59 12.12-1.64-.79-2.38-12.13-5.9-11.37-1.78.41 3.5 12.13 3.58 12.33z"/>
        <path fill="#FFBA00" d="M64 146.55l-3 19.89a21.88 21.88 0 0 1-3.65 3.74c-1.8 1.46-4.37 1.22-5.29-2.29-1.65-6.28.09-14.34.09-14.34.42-2.77 3.05-7 6.31-7.47 2.27-.34 3.94-.66 5.54.47z"/>
        <path fill="#00B8F3" d="M61.34 157.36a29.64 29.64 0 0 1-.27-10.94c.11-1 .31-4.19 1.6-4.86 2.32-1.22 3.37.57 3.85 1.72 2.38 5.74-3.18 12.55-6 18.16a24 24 0 0 0-3 9.81c-.07 1.38.73 8 4.53 5.82 2.66-1.51 1.78-6.36 1.53-8.28a72.88 72.88 0 0 0-2.24-11.43z"/>
        <path fill="#00B8F3" d="M58.25 158.34a13.43 13.43 0 0 0 3.46 1.32c.87.2 1.24-1.14.37-1.34a12.05 12.05 0 0 1-3.13-1.19c-.78-.43-1.48.77-.7 1.2v.01z"/>
        <path fill="#FFCF32" d="M35.5 183.08a5.53 5.53 0 0 1-5-4.77 3.21 3.21 0 0 1 .27-1.68c.59-.05 9.14 1.67 9.52 1.71a4 4 0 0 1-4.79 4.74z"/>
        <path fill="#FFBA00" d="M40.31 178.2c0 1-2.24 1.5-4.9 1.09-2.66-.41-4.77-1.57-4.72-2.58a.61.61 0 0 1 .07-.25.56.56 0 0 1 .12-.19c.58-.7 2.49-1 4.72-.65 2.23.35 3.85 1.11 4.47 1.93.066.089.12.187.16.29a.75.75 0 0 1 .08.36z"/>
        <path fill="#00B8F3" d="M35.83 181.47l-.62-9.79c0-.59-1-.59-.92 0l.62 9.79c0 .59 1 .59.92 0zM171.69 23.07c3.29-1.94-1.42-11.49-4.4-11.87-1.87-.24-4.26.65-6.18.74-1.1.05-2.56-.17-3.56.44-2.38 1.45-.54 6.62-.26 8.75.15 1.16 13.38 2.55 14.4 1.94zM120.69 68.75c1.35-.33 2.59.8 3.44 1.9a23.42 23.42 0 0 1 3.82 7.35 15.67 15.67 0 0 1-7.53 3.2 5.57 5.57 0 0 1-2.28-.06 6.77 6.77 0 0 1-1.91-1l-2.82-1.93M200.34 46.46c-1.31 1.47-3.47 1.42-4.65 2.53-1.35 1.26-.36 3.52-1 5.28-.66 2-2.36 2.34-4.2 2.25a.81.81 0 0 1 .17.55c0 1.75-.82 3.52-2.66 3.79a18.8 18.8 0 0 1-8.38-1.13c-1.12-.38-1.44-23.8-.42-24.43 1.87-1.16 6.37-4.8 8.72-4.29 1.78.4 2.4 3 2.72 4.86a5.64 5.64 0 0 1 3.35-.51c1.77.56 3.66 3.29 4.93 4.52 2.36 2.23 3.89 3.81 1.42 6.58zM86.3 19.37c-1.94 4.32-7.79 4.52-10.74 7.74A16.82 16.82 0 0 0 72 33.29a.69.69 0 0 0 .18.67 19 19 0 0 0 3.51 2c2.19 1.3.93 1.53.07 3.65-.62 1.52-1.67 4.22-.88 5.84.41.84 2.08 1.82 2.67 2.44.29.31.12 1 .59 1.25 2.09 1 5.48-1.33 7.39-2.06 25.2-9.67 8.81-45.57.78-27.71h-.01z"/>
        <path fill="#60D5F2" d="M187 55.87c0-1.693.027-3.387.08-5.08a18.54 18.54 0 0 1 0-3.74 11.19 11.19 0 0 1 1.64-2.86c.7-.92 2.57-1.34 3-2.33.62-1.37-1.38-3.37-2.55-4.46-1.93-1.8-1.7-3.89-2.05-6.31a6.18 6.18 0 0 0-.88-2.82c-.71-1-1.44-1.07-2-2.12-1-2 .12-5.71-2.13-7-1.45-.86-3.54 0-5 .37-2 .49-4 1-6 1.61-1.51.43-3 1-4.49.41-2.24-.89-4.43-3.19-6.44-4.53-2.41-1.61-4.87-3.11-7.35-4.63-1.89-1.16-4.16-2.81-6.48-2.83-2.32-.02-4.23 2-6.6 2.31-2.37.31-1.79-1.31-1.84-3.08-.05-1.77.15-6.23-2.57-4.36-1.93 1.33-3.58 3.19-6.19 2.25-3.26-1.17-6.9-9.52-10.19-4.29A12.52 12.52 0 0 1 113.88 7c-1.2.66-2.44 1.26-3.58 2-.65.43-1.61 1.56-2.43 1.47-.23 0-2.39-2-3.13-2.29-2.48-1-5.09-1.45-7.56-2.52C93.17 4 89 8.06 85.62 10c-2.42 1.36-3.25 2.6-2.94 5.42.24 2.21-.11 4.75.53 6.89 1.29 4.31 7 4.16 10.16 6.46l-.19-1.45c-1.62 1.91-3.68 3.53-5 5.72-1.32 2.19-1.09 5-2.5 7.16-1.15 1.77-3.14 2.77-4.29 4.53-1.4 2.15-1.08 4.57 0 6.73.7 1.35 2 2.71 1.68 4.38-.06.39-.26-.05-.4.36a24.47 24.47 0 0 0-1.19 3.74 6.47 6.47 0 0 0 2.15 6.34c1.8 1.62 3.41 3.17 3.8 5.68a10.19 10.19 0 0 1-.09 3.29c-.15.86-1 2.53-.71 3.29.37 1 1.65 1.05 2.55 1.6 1.37.83 1.62 1.6 2.3 2.88 1 1.92 2.3 1.81 4.42 1.62a21.71 21.71 0 0 0 3.45-.59c1-.26 2.58-1.05 3.66-1 1.32.12 2.45 1.87 3.43 2.69 1.44 1.21 3.76 3 5.74 2 1.54-.79 2.09-2.89 2.65-4.38a25 25 0 0 1 4-6.4c1.6-2.08 3.1-4.64 5.07-6.4 1.97-1.76 4.12-3.16 6.13-4.72a21.18 21.18 0 0 1 7-4.06c.73-.2 2.69 0 3.21-.47s.66-1.73-.44-1.75c13.73-.72 27.5-1.39 41.2-2.71.48-.08 6-.39 6-.98z"/>
        <path fill="#60D5F2" d="M186.33 44.19l.67 11.68c.14 2.54-2 10.51-1.89 11.9.11 1.39.62 2.68.35 4a4.62 4.62 0 0 1-2.51 3 15.24 15.24 0 0 1-3.84 1.17 2.11 2.11 0 0 0-.73.26 2 2 0 0 0-.66 1 17.56 17.56 0 0 1-2 4.2 4 4 0 0 1-4.08 1.6c-1-.31-1.85-1.2-2.91-1.21a3.94 3.94 0 0 0-1.61.48 31.13 31.13 0 0 1-4.75 1.73 4.17 4.17 0 0 1-2.53.1c-1.72-.66-2-3-3.4-4.24a11 11 0 0 1-7.11 5 43.32 43.32 0 0 1-2.55-6.93l-3.91-11.86a17.37 17.37 0 0 1-5-7.68c-.19-.61-.3-1.39.2-1.79.248-.16.535-.25.83-.26a22.43 22.43 0 0 1 9.07.76c.172-3 .644-5.975 1.41-8.88"/>
        <path fill="#00B8F3" d="M111.22 56.16c2.3-.87 4.78-.83 5.17-3.34.39-2.51 1.76-8.69 1.06-9-1.87-.9-7.68 1.82-9.87.89-1.6-.68.5-7.5-3.11-4.94-1.74 1.23-2.19 2.79-3.43 4.53a5.13 5.13 0 0 0-1.14 2.67c.04.729.15 1.452.33 2.16a3.48 3.48 0 0 1 0 1.05c-.06.4-.37.79-.29 1.19.12.63 1 1 1.37 1.53.302.5.668.957 1.09 1.36a9.68 9.68 0 0 0 7.69 2.21 6 6 0 0 0 1.13-.31z"/>
        <path fill="#FFCF32" d="M87.27 53.41l.57 9.43a3.33 3.33 0 0 0 1.84 2.78l8.45 4.22a3.33 3.33 0 0 0 3.33-.2l7.88-5.21a3.33 3.33 0 0 0 1.49-3l-.58-9.43a3.33 3.33 0 0 0-1.84-2.78L100 45a3.33 3.33 0 0 0-3.33.2l-7.88 5.21a3.33 3.33 0 0 0-1.52 3z"/>
        <path fill="#F8AE2D" d="M105.22 51.43l-3.14-1.57a1.37 1.37 0 1 0-.41.8l3.14 1.57a2.3 2.3 0 0 1 1.26 1.91l.24 4-2.69-1.34a1.35 1.35 0 1 0-1.24 1.2 1.34 1.34 0 0 0 .85-.38l3.16 1.58v.68a2.3 2.3 0 0 1-1 2l-4 2.64a.45.45 0 1 0 .5.75l4-2.64a3.2 3.2 0 0 0 1.43-2.86l-.32-5.68a3.2 3.2 0 0 0-1.78-2.66zM96.34 48.61a1.34 1.34 0 0 0-1.23 1.68l-2.93 1.94a3.2 3.2 0 0 0-1.42 2.85l.35 5.69a3.2 3.2 0 0 0 1.76 2.66l4.28 2.13a.452.452 0 0 0 .4-.81l-4.28-2.13A2.29 2.29 0 0 1 92 60.71v-.68l2.95-1.95a1.35 1.35 0 1 0-.54-1 1.36 1.36 0 0 0 0 .24L91.9 59l-.24-4a2.3 2.3 0 0 1 1-2l2.95-2a1.35 1.35 0 1 0 .73-2.42v.03z"/>
        <path fill="#00B8F3" d="M129.56 27.47c-5.06-.17-8.16-3.88-7.41-8.88a.52.52 0 0 1 .09-.26.66.66 0 0 1 .58-.2 30 30 0 0 1 6.38 1.09c1.5.43 3 1.25 2.64 3M166.34 48.9a8.82 8.82 0 0 0-5.86 4.94c-1.41 3.14-.54 6.68-1.82 9.77a.93.93 0 0 0 .65 1.14c4.77 1.41 9.88-1.2 13.42-4.35 2.13-1.9 3.58-7.27.22-8.57-1.11-.43-5.46-3.28-6.6-2.92l-.01-.01z"/>
        <path fill="#00B8F3" d="M168.16 62.8c1.94 2.61 5.11 4.21 6.42 7.25a.94.94 0 0 0 1.26.33c5.71-2.73 6.54-13.58.43-16.33-1.08-.48-8.83 7.79-8.12 8.74l.01.01z"/>
        <path fill="#60D5F2" d="M145.88 64.83a7.51 7.51 0 0 0-3.69 2.82 17.19 17.19 0 0 0-2.11 4.22 49.33 49.33 0 0 0-1.65 5.36c2.72.1 5.437.077 8.15-.07.81 0 1.81-.24 2-1M123.5 65.09a12.88 12.88 0 0 0 11.57 3.76.93.93 0 0 0 .68-.89 36.77 36.77 0 0 0-.56-7.95c-1.13-6.38-19.65-3.51-11.69 5.08z"/>
        <path fill="#00B8F3" d="M129.12 26.61c-1.87-3.94-6.83-6-10.94-6.18-1.77-.09-4.6 0-6.13 1-1.35.91-1.07 1.67-.62 3.15 1.15 3.83 4.25 9.21 8.45 10.12 7.47 1.65 12.34-1.55 9.24-8.09z"/>
        <path fill="#FFCF32" d="M123.89 25.74l-2.79 10a3.65 3.65 0 0 0 .91 3.54l7.24 7.41a3.65 3.65 0 0 0 3.52 1l10-2.57a3.65 3.65 0 0 0 2.61-2.55l2.79-10a3.65 3.65 0 0 0-.87-3.57l-7.24-7.41a3.65 3.65 0 0 0-3.52-1l-10 2.57a3.65 3.65 0 0 0-2.65 2.58z"/>
        <path fill="#F8AE2D" d="M143.21 30.14l-2.69-2.75a1.5 1.5 0 1 0-.71.69l2.69 2.75a2.52 2.52 0 0 1 .62 2.43l-1.18 4.2-2.31-2.36a1.48 1.48 0 1 0-1.73.77 1.47 1.47 0 0 0 1-.09l2.71 2.77-.2.72a2.52 2.52 0 0 1-1.8 1.76l-5.08 1.3a.515.515 0 1 0 .25 1l5.08-1.3a3.51 3.51 0 0 0 2.5-2.45l1.69-6a3.51 3.51 0 0 0-.84-3.44zM135 24a1.47 1.47 0 0 0-1.87 1.29l-3.73 1a3.51 3.51 0 0 0-2.5 2.45l-1.69 6a3.51 3.51 0 0 0 .87 3.39l3.66 3.75a.495.495 0 0 0 .71-.69l-3.66-3.75a2.52 2.52 0 0 1-.62-2.43l.2-.72 3.75-1a1.48 1.48 0 1 0-.2-1.22 1.49 1.49 0 0 0 0 .27l-3.2.82 1.18-4.2a2.52 2.52 0 0 1 1.8-1.76l3.73-1A1.48 1.48 0 1 0 135 24z"/>
        <path fill="#60D5F2" d="M131.06 50.47c-5.6-.82-11.41-2.89-12.65-10.17a1.38 1.38 0 0 1 .33-1.13c.91-1.08 3.74-1.57 6-1.57a.92.92 0 0 1 .65.26 17 17 0 0 1 1.94 2.55 15.23 15.23 0 0 0 1.53 2c2.31-3.5 6.91-4.33 7.11-4.36a.92.92 0 0 1 1.06.74 8.36 8.36 0 0 0 2.36 4.31c2.32-.57 4.45.7 6.34 3.78v.07a.92.92 0 0 1 .31.64 1 1 0 0 1-.65 1c-.08.02-11.47 2.3-14.33 1.88zM102.47 34.64c-5.36.58-12.55.65-17.48-1.87-1.06-.54 4.07-6.38 7.2-7.74 3.44-1.48 6.77-2.44 10.44-1.34 4.27 1.31 6.97 10.17-.16 10.95z"/>
        <path fill="#FFCF32" d="M154.81 39.77l.67 11.07a3.91 3.91 0 0 0 2.16 3.26l9.92 5a3.91 3.91 0 0 0 3.91-.24l9.25-6.12a3.91 3.91 0 0 0 1.75-3.5l-.67-11.07a3.91 3.91 0 0 0-2.16-3.26l-9.92-5a3.91 3.91 0 0 0-3.91.24l-9.25 6.12a3.91 3.91 0 0 0-1.75 3.5z"/>
        <path fill="#F8AE2D" d="M175.89 37.44l-3.69-1.84a1.6 1.6 0 1 0-.48.94l3.69 1.84a2.7 2.7 0 0 1 1.48 2.24l.28 4.66-3.17-1.57a1.59 1.59 0 1 0-1.48 1.39 1.57 1.57 0 0 0 1-.45l3.71 1.85v.8a2.7 2.7 0 0 1-1.2 2.41l-4.68 3.1a.53.53 0 1 0 .58.88l4.68-3.09a3.76 3.76 0 0 0 1.67-3.35l-.28-6.69a3.76 3.76 0 0 0-2.11-3.12zM165.46 34.13a1.57 1.57 0 0 0-1.44 2l-3.44 2.27a3.76 3.76 0 0 0-1.67 3.35l.41 6.68a3.75 3.75 0 0 0 2.07 3.12l5 2.51a.53.53 0 1 0 .47-.95l-5-2.51a2.69 2.69 0 0 1-1.48-2.24v-.8l3.46-2.29a1.58 1.58 0 1 0-.63-1.17 1.59 1.59 0 0 0 0 .29l-2.95 1.95-.26-4.68a2.7 2.7 0 0 1 1.2-2.41l3.41-2.25a1.58 1.58 0 1 0 .85-2.85v-.02z"/>
        <path fill="#60D5F2" d="M154.38 60.6a8.82 8.82 0 0 0 3.82-6.6c.25-3.44-1.78-6.46-1.64-9.8a.93.93 0 0 0-1-.85c-5 .31-8.88 4.51-11.12 8.69-1.35 2.51-.87 8.06 2.73 8.12 1.19 0 6.26 1.21 7.2.49l.01-.05zM184.55 35.08c-1.87 1.91-4.64 2.87-6.05 5.2a.77.77 0 0 1-1.07.13c-4.36-2.87-3.83-11.81 1.47-13.37.93-.27 6.34 7.34 5.65 8v.04zM95 70.15c1.31 1.06 2.1 1.07 3.72.67a21.75 21.75 0 0 1 5.77-.87c2 0 4.15.85 6.06.08 2.21-.89 5.37-3.73 5.5-6.23.18-3.4-3.29-5.26-6.33-5.22-1.51 0-1.16.14-1.71 1.21-.65 1.29-.87 1.84-2.38 1.32-1.16-.4-1.64-.47-2.87.58-.66.56-1.18.53-1.5 1.27-1.33 3.14-4.15-1.89-5.79-2.53-2.42-.96-1.32 9-.47 9.72z"/>
    </g>
</svg>
