<svg xmlns="http://www.w3.org/2000/svg" width="202" height="208" viewBox="0 0 202 208">
    <defs>
        <linearGradient id="a" x1="0%" y1="49.981%" y2="49.981%">
            <stop offset="0%" stop-color="#FFF" stop-opacity="0"/>
            <stop offset="12%" stop-color="#B5B5B5" stop-opacity=".29"/>
            <stop offset="100%" stop-color="#FFF"/>
        </linearGradient>
        <linearGradient id="b" x1="12783%" x2="15310%" y1="21281%" y2="21281%">
            <stop offset="0%" stop-color="#FFF" stop-opacity="0"/>
            <stop offset="12%" stop-color="#B5B5B5" stop-opacity=".29"/>
            <stop offset="100%" stop-color="#FFF"/>
        </linearGradient>
        <linearGradient id="c" x1="9263%" x2="11790%" y1="22286%" y2="22286%">
            <stop offset="0%" stop-color="#FFF" stop-opacity="0"/>
            <stop offset="12%" stop-color="#B5B5B5" stop-opacity=".29"/>
            <stop offset="100%" stop-color="#FFF"/>
        </linearGradient>
        <linearGradient id="d" x1="6029%" x2="8555%" y1="21281%" y2="21281%">
            <stop offset="0%" stop-color="#FFF" stop-opacity="0"/>
            <stop offset="12%" stop-color="#B5B5B5" stop-opacity=".29"/>
            <stop offset="100%" stop-color="#FFF"/>
        </linearGradient>
    </defs>
    <g fill="none" fill-rule="evenodd">
        <path fill="#60D5F2" fill-rule="nonzero" d="M68 181.93h68a32 32 0 0 0 27.71-16l34-58.93a32 32 0 0 0 0-32l-34-58.93A32 32 0 0 0 136 .07H68a32 32 0 0 0-27.71 16L6.24 75a32 32 0 0 0 0 32l34 58.93a32 32 0 0 0 27.76 16z" opacity=".2"/>
        <path fill="#314448" fill-rule="nonzero" d="M60.9 84.21c0 2.5 1 4.53.4 6.82-10.17.19-11.66 5.65-9.49 9.9A16.51 16.51 0 0 1 45.58 88c0-9.27 6.72-20 9-21.25 4.25-2.23 6.32 8.18 6.32 17.46z"/>
        <path fill="url(#a)" fill-rule="nonzero" d="M157.87 186.35l-58.73 21.66-6.65-12.35 49.17-13.58z" opacity=".2" transform="translate(1)"/>
        <path fill="url(#b)" fill-rule="nonzero" d="M124.1 171.29l-21.86 5.05-3.41-1.19 22.62-3.86z" opacity=".2" transform="translate(1)"/>
        <path fill="url(#c)" fill-rule="nonzero" d="M88.89 181.33l-21.85 5.05-3.41-1.19 22.62-3.85z" opacity=".2" transform="translate(1)"/>
        <path fill="url(#d)" fill-rule="nonzero" d="M56.55 171.29l-21.85 5.05-3.41-1.19 22.62-3.86z" opacity=".2" transform="translate(1)"/>
        <path fill="#60D5F2" fill-rule="nonzero" d="M85.89 72.17l-.56 10.67-5-1L66 66.21V50.74h.38l-.18 1.93c5.18 9.25 9.76 11.58 13.34 11l.9 3.33 5.45 5.17z" opacity=".8"/>
        <path fill="#7A8D92" fill-rule="nonzero" d="M65.99 63.11l15.79 16.42-1.43-12.59 9.04 2.51 6.57 19.38 7.81 15.32-5.44 6.23-16.17 4.45h-7.81l-3.48-33.32z"/>
        <path fill="#314448" fill-rule="nonzero" d="M126.21 100s-6.82-5.26-9.27-6.75a73.32 73.32 0 0 1-22.65-21.83 2.36 2.36 0 0 0-.3-.58c-1-1.25-13.63-3.9-13.63-3.9l18.05 38.69 27.8-5.63z"/>
        <path fill="#B67E5C" fill-rule="nonzero" d="M78.11 128.08l-23.14 43.21h2.37l25.93-43.21z"/>
        <path fill="#CF8C66" fill-rule="nonzero" d="M87.18 181.33h2.37l3.06-53.25h-3.9z"/>
        <path fill="#B67E5C" fill-rule="nonzero" d="M122.45 171.29h2.65l-21.89-44.33-3.35 1.12z"/>
        <path fill="#0078C5" fill-rule="nonzero" d="M130.74 175.69s1.26.42 6.7-1 5.22-2.93 5.22-2.93l-7.74-53.91-4.18-15h-20.28s-17.57-.34-24.88 5.55c-7.31 5.89-8.16 11.57-2.09 15 6.07 3.43 37.43 4.9 37.43 4.9l9.82 47.39z"/>
        <path fill="#314448" fill-rule="nonzero" d="M130.22 173.07s-1.88 5.75-1.36 7.32c.52 1.57 12.59 5.1 17 5.7 3.21.43 13 .26 13 .26s1.46-1.46-1.25-2.93c-2.71-1.47-9.94-6-10.35-6.48-1.65-1.78-4-7-4-7a11.67 11.67 0 0 0-4.5 2.72c-1.96 1.81-8.54.41-8.54.41zM108.54 126.75l-27.43-.9-4.77-5.39L61 104.65l-.5-3.08-5.07-30.96-.4-2.49 10.96-5.01 13.38 21.26 11.71 17.02 7.53 10.93z"/>
        <path fill="#FF6161" fill-rule="nonzero" d="M87.81 104l29.53-3.87 9.88-7.57-44.75 5.9 1.93 3.64a3.73 3.73 0 0 0 3.41 1.9z"/>
        <path fill="#89E7F5" fill-rule="nonzero" d="M91.07 43.52c-.47 2.76-2 13.33-7.3 18.1a8.25 8.25 0 0 1-4.25 2.14c-3.58.54-8.15-1.79-13.34-11l.18-1.93.65-7 7.13-4.75 16.93 4.44z" opacity=".8"/>
        <path fill="#314448" fill-rule="nonzero" d="M92.7 44.37c-6.81-24.86-28.88-20.51-28.69-4a45.23 45.23 0 0 0 2 11.76c.1.35.17.55.17.55a26.52 26.52 0 0 1 2.09-5.53c2.95-5.27 5.09-6.28 5.09-6.28s22.29 14.24 19.34 3.5z"/>
        <path fill="#FF6161" fill-rule="nonzero" d="M147.25 71.52l-21.94-2.13a5.46 5.46 0 0 0-5.64 3.52l-11.12 29.65 4.74-1 26.19-5.4 9-22.63a1.48 1.48 0 0 0-1.23-2.01z"/>
        <path fill="#0051A7" fill-rule="nonzero" d="M133.74 95.88c12.48 1.39-.07 13.8-3.14 15.06-3.07 1.26-36.74-5.51-36.74-5.51l-1.41-2.05s38.91-7.76 41.29-7.5z"/>
        <path fill="#00B8F3" fill-rule="nonzero" d="M142.22 136.11s.75-22.39-.1-29.35c-.85-6.96-2.86-11.29-9.53-10.85-4.19.27-8.56 4.07-8.21 15.43.15 4.77 5.57 31.5 5.57 31.5a9.1 9.1 0 0 0 6.91-.86 15.5 15.5 0 0 0 5.36-5.87z"/>
        <path fill="#60D5F2" fill-rule="nonzero" d="M104 95.54c-1 .19-47.56 6.4-50.08 6.48a3.68 3.68 0 0 1-3-2.32c-1.68-3.35-1.3-8.77 8.83-10.07a55.67 55.67 0 0 1 13.28.24c3.19.37 15.61 2 15.61 2h.72a16.85 16.85 0 0 1 2.78-1.27c7.42-2.19 11.52 2.47 12.19 3.44.35.39.67 1.31-.33 1.5z" opacity=".95"/>
        <path fill="#FFCF32" fill-rule="nonzero" d="M120.91 128.22s-.31 2.61-15 2.5c-14.69-.11-34.43-.53-37.88-3.76-8.4-7.85-5.28-15.42-7.42-18.64-1.84-2.76-.82-3.42.34-3.67 5.38-1.17 12.08-1.51 15.69 5.72 5.72 11.45 12.78 13.73 18.43 14.46l25.84 3.39z"/>
        <path fill="#314448" fill-rule="nonzero" d="M129.95 142.84s-2.37 11.39 2 11.54c2.25.08 14 0 17 0a98.16 98.16 0 0 0 12.29-1.6c.73-.41.62-2.11-2.34-3.65s-8.27-2.4-12.86-5.81c-3.43-4.08-3.79-7.25-3.79-7.25s-3.4-.28-4.94 4.26c-2.72 1.67-4.46 2.51-7.36 2.51z"/>
        <path fill="#FFCF32" fill-rule="nonzero" d="M20.34 57.38c1.53 2.49 4.12 5.88 4.84 10.34a7.6 7.6 0 0 0-1.61-.27v.22s.76.3 1.67.58c.65.213 1.32.364 2 .45.986.171 2 .039 2.91-.38v-.11c-.34-4.87 2.48-7.91 4-10.17 5.76-8.59.24-18.85-9.64-19.84l-.73-.06c-6.87 1.12-9.14 9.98-3.44 19.24z"/>
        <path fill="#FFBA00" fill-rule="nonzero" d="M17.88 56.4c1.85 2.64 5.22 6.22 5.69 11.05a7.6 7.6 0 0 1 1.61.27c0-4.29-2.91-7.68-4.16-10.32-4.12-8.76-2.22-16.13 2.73-19.25-7.82-.45-12.1 9.37-5.87 18.25z"/>
        <path fill="#7A8D92" fill-rule="nonzero" d="M24.93 72.23c.59.72 3.52 1.16 4.28.43a5.33 5.33 0 0 0 1-2.42 5.55 5.55 0 0 0 .16-2.07h-.23a13 13 0 0 1-4.95-.49 7.6 7.6 0 0 0-1.61-.27c-.2 0-.32.06-.37.18-.32.81 1.12 3.92 1.72 4.64z"/>
        <path stroke="#FFCF32" stroke-linecap="round" stroke-linejoin="round" stroke-width="1.89" d="M17.9 31.63l-1.58-3.83M9.59 36.14l-3.2-2.87M5.47 44.63l-4.33-1.15M7.4 54.9l-4.41 1.26M44.22 57.27l2.83 1.15M43.81 47.15l2.9-.88M37.66 37.99l2.38-2.3M28.17 32.31l.46-3.38"/>
    </g>
</svg>
