<?xml version="1.0" encoding="utf-8"?>
<!-- Generator: Adobe Illustrator 21.1.0, SVG Export Plug-In . SVG Version: 6.00 Build 0)  -->
<svg version="1.1" id="Layer_1" xmlns="http://www.w3.org/2000/svg" xmlns:xlink="http://www.w3.org/1999/xlink" x="0px" y="0px"
	 viewBox="0 0 260 260" style="enable-background:new 0 0 260 260;" xml:space="preserve">
<style type="text/css">
	.st0{opacity:0.3;fill:#90D8F0;}
	.st1{fill:#67BCEF;}
	.st2{fill:#143D8A;}
	.st3{fill:#90D8F0;}
	.st4{fill:#FFFFFF;}
	.st5{fill:#308DD1;}
	.st6{opacity:0.4;}
	.st7{opacity:0.3;}
	.st8{fill:#2978BE;}
	.st9{fill:none;stroke:#143D8A;stroke-width:0.5;stroke-linecap:round;stroke-linejoin:round;stroke-miterlimit:10;}
	.st10{fill:#1E54A0;}
</style>
<g>
	<path class="st0" d="M92.1,235.7h75.8c14.3,0,27.5-7.6,34.6-20l37.9-65.7c7.1-12.4,7.1-27.6,0-40l-37.9-65.7
		c-7.1-12.4-20.4-20-34.6-20l-75.8,0c-14.3,0-27.5,7.6-34.6,20L19.5,110c-7.1,12.4-7.1,27.6,0,40l37.9,65.7
		C64.6,228,77.8,235.7,92.1,235.7z"/>
	<path class="st1" d="M185.8,124.1c0,2.6,2.1,4.6,4.6,4.6h27.3c3.7,0,6.7-3,6.7-6.7c0-3.7-3-6.7-6.7-6.7c-0.5,0-1.1,0.1-1.6,0.2
		c0.1-0.5,0.2-1.1,0.2-1.6c0-3.4-2.8-6.2-6.2-6.2c-3.2,0-5.9,2.5-6.1,5.6c-1.2-0.6-2.5-1-3.9-1c-4.3,0-7.8,3.3-8.2,7.4
		c-0.5-0.2-1-0.3-1.5-0.3C187.8,119.5,185.8,121.6,185.8,124.1z"/>
	<g>
		<g>
			<g>
				<path class="st2" d="M116.5,24.4c-1.2-4.6,4.1-8.4,6-9.6c1.9-1.2,4.1-1.7,6.3-1.5c0.1,0,0.3,0,0.4,0.1c0.3,0.2,0.3,0.5,0.4,0.8
					c0.4,3.1-0.6,6.3-2.7,8.6L116.5,24.4z"/>
			</g>
			<path class="st3" d="M125.1,213c0,3.2-2.6,5.8-5.8,5.8H85.2c-4.7,0-8.4-3.8-8.4-8.4c0-4.7,3.8-8.4,8.4-8.4c0.7,0,1.4,0.1,2,0.2
				c-0.2-0.6-0.3-1.3-0.3-2c0-4.3,3.5-7.7,7.7-7.7c4,0,7.3,3.1,7.7,7c1.5-0.8,3.1-1.2,4.9-1.2c5.4,0,9.8,4.1,10.2,9.3
				c0.6-0.2,1.3-0.3,1.9-0.3C122.5,207.2,125.1,209.8,125.1,213z"/>
			<path class="st1" d="M52.8,210.4c0,2.8,2.3,5.1,5.1,5.1h25.3c3.1,0,5.5-2.5,5.5-5.6s-2.5-5.5-5.5-5.5h-7.8
				c-1-3.7-4.4-6.4-8.4-6.4c-4.3,0-7.9,3.1-8.6,7.3c-0.2,0-0.3,0-0.5,0C55.1,205.3,52.8,207.6,52.8,210.4z"/>
			<g>
				<g>
					<path class="st4" d="M47.4,189.5c-0.6-3.2-1.2-6.4-1.9-9.6c-0.1-0.3-0.5-0.2-0.5,0.1c0.6,3.2,1.2,6.4,1.9,9.6
						C47,190,47.5,189.8,47.4,189.5L47.4,189.5z"/>
				</g>
			</g>
			<g>
				<g>
					<path class="st4" d="M53.1,189.6c0.9-3.2,1.7-6.3,2.6-9.5c0.1-0.3-0.4-0.4-0.5-0.1c-0.9,3.2-1.7,6.3-2.6,9.5
						C52.5,189.7,53,189.9,53.1,189.6L53.1,189.6z"/>
				</g>
			</g>
			<g>
				<path class="st5" d="M217,136.2c0.1,1.8-2.7,6.8-3.2,8c-3.4,8.7-6.2,17.2-8.2,26.4c-2.1,10.1-3.6,20.5-6.5,30.4
					c-2.8,9.4-10.9,14.7-19.1,19.2c-6.7,3.6-18.1,13.2-25.7,7.3c-3.1-2.4-7-5.6-8.1-9.4c-1.3-4.7-1.1-9.7-2.5-14.3
					c-1.5-4.7-4.6-9-7.2-13.1c-1-1.6-2.5-2.9-3.3-4.7c-0.8-2-0.7-3.7-2.5-5.2c-4-3.3-9.9-1.4-14.4-1.5c-4.4-0.1-9.1-1-13.2-2.9
					c-9.6-4.5-3.6-16.7-9.5-23.9c-2.7-3.3-6.3-5.5-9.1-8.7c-2.6-3-5.3-6-8.1-8.9c0,0,0,0,0,0c1.3,1,2.6,1.9,3.9,2.9
					c2,1.5,4.7,1.8,7.1,2.4c6,1.6,12.1,2.9,18.1,4c12.2,2.3,24.5,3.7,36.9,4.4c12.6,0.6,25.3,0.4,37.9-0.7c11.4-1,23-2.8,33.2-8.1
					C215,139,216.7,137.8,217,136.2z"/>
			</g>
			<g>
				<path class="st3" d="M217,136.2c-0.4,1.6-2.1,2.8-3.6,3.6c-10.2,5.3-21.8,7.1-33.2,8.1c-12.6,1.1-25.3,1.3-37.9,0.7
					c-12.4-0.6-24.7-2.1-36.9-4.4c-6.1-1.1-12.1-2.5-18.1-4c-2.4-0.6-5.1-1-7.1-2.4c-1.3-0.9-2.6-1.9-3.9-2.9c0,0,0,0,0,0
					c-0.6-0.4-1.1-0.9-1.7-1.3c-4.1-3.4,1-8.4,3.6-10.9c2.9-2.8,6.6-4.8,10.4-6.2c6-2.3,12.4-3.5,18.1-6.4c4.5-2.3,8.5-5.6,13.2-7.5
					c4.7-2,10.6-2.3,14.4,0.9c1.2,1,2.1,2.3,3.4,3.2c1,0.7,2.1,1.2,3.3,1.7c0.6,0.3,1.3,0.5,1.9,0.8l9.6,3.6
					c4.3,1.4,8.7,2.4,13.2,2.8c10,0.8,20,2.3,29.6,5.3c7.7,2.4,15.2,6,20.5,12c0.6,0.7,1.2,1.5,1.3,2.4
					C217.1,135.5,217.1,135.8,217,136.2z"/>
			</g>
			<g>
				<g>
					<path class="st1" d="M175.8,149.1v90.1c0,1.2-12.7,10.2-12.7,9v-95.8c0-0.6,0.2-1.5,0-2.1c-0.3-0.9,0.1-0.5-0.4-1
						c-1.1-0.9-4-0.7-5.5-1.8c-1.1-0.8-1.4-1.8-2-2.9c-1.8-3.2-4.6-5.1-8-6.1c-0.9-0.3-1.7-0.5-2.5-0.6c-0.9-0.1-1.8-0.3-2.7-0.5
						c-0.1,0-0.1,0-0.2,0c-2.4-0.6-4.3-1.5-5.6-5.1c-0.1-0.1-0.1-0.3-0.1-0.4c-1.2-3.1-1.2-6.9-1.1-10.1c0.1-4-0.6-7-2.7-10.5
						c-0.6-1.1-1.3-2-1.5-3.3c-0.3-1.4,0.5-4.3-1-5.1c-1.1-0.6-0.1-2.1,0.9-1.6c2,1.1,1.6,2.4,1.8,4.4c0.5,4,3,6.2,3.9,9.9
						c0.7,3,0.2,6.1,0.2,9.2c0,2.3,0.2,4.5,1.3,6.5c2.5,4.6,4.7,4.3,8.7,4.6c3.5,0.2,7.1,0.6,10.5,1.6c3.1,1,4.5,3.9,7.6,4.9
						c2.8,0.9,5.9-0.4,8.5,1.4c1.7,1.2,2.3,3,2.4,5c0,0,0,0.1,0,0.1c0,0,0,0,0,0C175.8,149,175.8,149.1,175.8,149.1z"/>
				</g>
			</g>
			<g>
				<path class="st5" d="M78.1,157.2l-0.1,0.4l-3,19.9c-1.7,2.3-4.1,4.3-6.7,5.8c-2.8,1.6-5.8,2.5-8.9,2.5c-5.5-0.1-11.2-1-16.4-2.8
					c-9.2-3.2-20.6-11.3-18.4-22.2c1.2-5.6,7.2-8.8,12.8-10.2C50.3,147.3,68,150.2,78.1,157.2z"/>
			</g>
			<g class="st6">
				<path class="st4" d="M26.9,164.2c2.2,2.3,5.1,3.9,7.9,5.2c2.9,1.3,5.9,2.4,9,3.2c3.1,0.8,6.2,1.4,9.3,1.7
					c3.1,0.3,6.3,0.3,9.3-0.2l0,0c0.5-0.1,1,0.2,1.1,0.8c0.1,0.5-0.2,1-0.8,1.1c0,0,0,0,0,0c-3.3,0.4-6.6,0.2-9.8-0.3
					c-3.2-0.5-6.3-1.2-9.4-2.2c-3.1-1-6.1-2.2-8.9-3.6C31.8,168.4,29,166.7,26.9,164.2z"/>
			</g>
			<g class="st7">
				<path class="st4" d="M28,160.4c5.8-1,11.6-1.5,17.5-1.4c5.9,0.1,11.8,0.6,17.5,2.1c0.5,0.1,0.8,0.6,0.7,1.1
					c-0.1,0.5-0.6,0.8-1.1,0.7c0,0,0,0,0,0c-5.5-1.7-11.3-2.6-17.1-2.9C39.6,159.6,33.8,159.8,28,160.4z"/>
			</g>
			<g>
				<path class="st4" d="M140.6,98.6c1.1,2.9,1.8,5.8,2,8.9c0.1,1.5,0.1,3.1,0,4.6c0,0.8-0.1,1.7-0.2,2.5c0,0.4-0.1,0.9-0.1,1.3
					c0,0.1,0,1.2,0.1,1.1c0.7-0.2,1.4,0.4,1.9,0.7c1.1,0.6,2.4,0.6,3.6,0.4s2.4-0.6,3.6-0.6c0.5,0,0.9,0,1.3-0.2
					c0.1-0.1,0.3-0.2,0.4-0.3c0.3-0.5-0.3-1.3-0.5-1.8c-0.2-0.5-0.3-1-0.4-1.5c-0.5-2.2-0.9-4.5-1.2-6.8c-0.1-1-0.2-2-0.3-3
					c0-0.5-0.1-1.2,0.1-1.7c2-4.5,9.5-6.6,12.7-10.5c6-7.2-2.6-2-5.4-0.5c-8,4.2-9.5,6.6-10-3.5c-0.1-2,0.5-18.9-3.8-16.9
					c-3.4,1.5,0.5,12,0.9,14.7c0.3,1.9,2.4,14.5-2.6,12.1c-1.6-0.8-2.4-12.1-5.9-11.4C135.2,86.7,140.5,98.4,140.6,98.6z"/>
			</g>
			<path class="st8" d="M78,157.5l-3,19.9c-1,1.4-2.3,2.6-3.6,3.7c-1.8,1.5-4.4,1.2-5.3-2.3c-1.7-6.3,0.1-14.3,0.1-14.3
				c0.4-2.8,3.1-7,6.3-7.5C74.7,156.7,76.4,156.4,78,157.5z"/>
			<g>
				<path class="st2" d="M75.7,168.4c-0.9-3.6-0.7-7-0.3-10.9c0.1-1,0.3-4.2,1.6-4.9c2.3-1.2,3.4,0.6,3.8,1.7
					c2.4,5.7-3.2,12.5-6,18.2c-1.6,3.1-2.8,6.3-3,9.8c-0.1,1.4,0.7,8,4.5,5.8c2.7-1.5,1.8-6.4,1.5-8.3
					C77.5,175.8,76.8,172,75.7,168.4z"/>
			</g>
			<path class="st9" d="M72.6,168.7c1.1,0.5,3.2,1.3,4.3,1.5"/>
			<path class="st1" d="M49.5,194.1c-2.8-0.3-4.8-2.4-5-4.8c-0.1-0.6,0-1.2,0.3-1.7c0.6-0.1,9.1,1.7,9.5,1.7
				C54.6,190.3,54.2,194.6,49.5,194.1z"/>
			<path class="st8" d="M54.3,189.2c0,1-2.2,1.5-4.9,1.1c-2.7-0.4-4.8-1.6-4.7-2.6c0-0.1,0-0.2,0.1-0.3c0-0.1,0.1-0.1,0.1-0.2
				c0.6-0.7,2.5-1,4.7-0.6c2.1,0.3,3.9,1.1,4.5,1.9c0,0,0,0,0,0c0.1,0.1,0.1,0.2,0.2,0.3c0,0,0,0,0,0
				C54.3,189,54.3,189.1,54.3,189.2z"/>
			<g>
				<g>
					<path class="st4" d="M49.6,192.5c-0.2-3.3-0.4-6.5-0.6-9.8c0-0.3-0.5-0.3-0.5,0c0.2,3.3,0.4,6.5,0.6,9.8
						C49.1,192.8,49.6,192.8,49.6,192.5L49.6,192.5z"/>
				</g>
			</g>
			<g>
				<path class="st2" d="M185.7,34.1c3.3-1.9-1.4-11.5-4.4-11.9c-1.9-0.2-4.3,0.7-6.2,0.7c-1.1,0.1-2.6-0.2-3.6,0.4
					c-2.4,1.5-0.5,6.6-0.3,8.7C171.4,33.3,184.7,34.7,185.7,34.1z"/>
			</g>
			<g>
				<path class="st2" d="M134.7,79.7c1.3-0.3,2.6,0.8,3.4,1.9c1.7,2.2,3,4.7,3.8,7.4c-2.2,1.7-4.8,2.8-7.5,3.2
					c-0.8,0.1-1.5,0.2-2.3-0.1c-0.7-0.2-1.3-0.6-1.9-1c-0.9-0.6-1.9-1.3-2.8-1.9L134.7,79.7z"/>
			</g>
			<g>
				<path class="st2" d="M214.3,57.5c-1.3,1.5-3.5,1.4-4.6,2.5c-1.3,1.3-0.4,3.5-1,5.3c-0.7,2-2.4,2.3-4.2,2.3
					c0.1,0.1,0.2,0.3,0.2,0.6c0,1.7-0.8,3.5-2.7,3.8c-2.7,0.4-5.8-0.3-8.4-1.1c-1.1-0.4-1.4-23.8-0.4-24.4c1.9-1.2,6.4-4.8,8.7-4.3
					c1.8,0.4,2.4,3,2.7,4.9c1.1-0.4,2.3-0.8,3.4-0.5c1.8,0.6,3.7,3.3,4.9,4.5C215.3,53.1,216.8,54.7,214.3,57.5z"/>
			</g>
			<g>
				<g>
					<path class="st2" d="M100.3,30.4c-1.9,4.3-7.8,4.5-10.7,7.7c-1.5,1.6-3,4.1-3.6,6.2c-0.1,0.2,0,0.5,0.2,0.7c1,1,2.3,1.3,3.5,2
						c2.2,1.3,0.9,1.5,0.1,3.6c-0.6,1.5-1.7,4.2-0.9,5.8c0.4,0.8,2.1,1.8,2.7,2.4c0.3,0.3,0.1,1,0.6,1.2c2.1,1,5.5-1.3,7.4-2.1
						C124.7,48.4,108.3,12.5,100.3,30.4L100.3,30.4z"/>
				</g>
			</g>
			<g>
				<g>
					<path class="st8" d="M201,66.9c0-1.7,0.1-3.4,0.1-5.1c0-1-0.3-2.8,0-3.7c0.2-0.8,1.1-2.2,1.6-2.9c0.7-0.9,2.6-1.3,3-2.3
						c0.6-1.4-1.4-3.4-2.5-4.5c-1.9-1.8-1.7-3.9-2.1-6.3c-0.1-0.9-0.3-2-0.9-2.8c-0.7-1-1.4-1.1-2-2.1c-1-2,0.1-5.7-2.1-7
						c-1.5-0.9-3.5,0-5,0.4c-2,0.5-4,1-6,1.6c-1.5,0.4-3,1-4.5,0.4c-2.2-0.9-4.4-3.2-6.4-4.5c-2.4-1.6-4.9-3.1-7.3-4.6
						c-1.9-1.2-4.2-2.8-6.5-2.8c-2.4,0-4.2,2-6.6,2.3c-2.2,0.3-1.8-1.3-1.8-3.1c-0.1-1.9,0.2-6.2-2.6-4.4c-1.9,1.3-3.6,3.2-6.2,2.3
						c-3.3-1.2-6.9-9.5-10.2-4.3c-1.4,2.2-2.8,3.4-5.2,4.7c-1.2,0.7-2.4,1.3-3.6,2c-0.6,0.4-1.6,1.6-2.4,1.5c-0.2,0-2.4-2-3.1-2.3
						c-2.5-1-5.1-1.5-7.6-2.5c-4-1.7-8.1,2.3-11.6,4.3c-2.4,1.4-3.3,2.6-2.9,5.4c0.2,2.2-0.1,4.8,0.5,6.9c1.3,4.3,7,4.2,10.2,6.5
						c-0.1-0.5-0.1-1-0.2-1.5c-1.6,1.9-3.7,3.5-5,5.7c-1.3,2.2-1.1,5-2.5,7.2c-1.1,1.8-3.1,2.8-4.3,4.5c-1.4,2.1-1.1,4.6,0,6.7
						c0.7,1.3,2,2.7,1.7,4.4c-0.1,0.4-0.3-0.1-0.4,0.4c-0.4,1.2-1,2.4-1.2,3.7c-0.4,2.6,0.3,4.6,2.2,6.3c1.8,1.6,3.4,3.2,3.8,5.7
						c0.2,1.1,0.1,2.2-0.1,3.3c-0.1,0.9-1,2.5-0.7,3.3c0.4,1,1.6,1.1,2.5,1.6c1.4,0.8,1.6,1.6,2.3,2.9c1,1.9,2.3,1.8,4.4,1.6
						c1.2-0.1,2.3-0.3,3.5-0.6c1-0.3,2.6-1.1,3.7-1c1.3,0.1,2.5,1.9,3.4,2.7c1.4,1.2,3.8,3,5.7,2c1.5-0.8,2.1-2.9,2.7-4.4
						c0.9-2.4,2.4-4.3,4-6.4c1.6-2.1,3.1-4.6,5.1-6.4c1.9-1.7,4.1-3.2,6.1-4.7c2.1-1.7,4.4-3.3,7-4.1c0.7-0.2,2.7,0,3.2-0.5
						c0.6-0.5,0.7-1.7-0.4-1.8c13.7-0.7,27.5-1.4,41.2-2.7C195.5,67.8,201,67.5,201,66.9z"/>
				</g>
			</g>
			<g>
				<path class="st8" d="M200.3,55.2l0.7,11.7c0.1,2.5-2,10.5-1.9,11.9c0.1,1.3,0.6,2.7,0.3,4c-0.3,1.3-1.3,2.4-2.5,3
					c-1.2,0.6-2.5,0.9-3.8,1.2c-0.3,0.1-0.5,0.1-0.7,0.3c-0.3,0.2-0.5,0.6-0.7,1c-0.6,1.4-1.1,3-2,4.2c-1,1.2-2.6,2.1-4.1,1.7
					c-1-0.3-1.8-1.2-2.9-1.2c-0.6,0-1.1,0.2-1.6,0.5c-1.5,0.7-3.1,1.3-4.7,1.7c-0.8,0.2-1.7,0.4-2.5,0.1c-1.7-0.7-2-3-3.4-4.2
					c-1.5,2.6-4.2,4.4-7.1,5c-1-2.2-1.9-4.6-2.6-6.9l-3.9-11.9c-2.3-2.1-4-4.7-5-7.7c-0.2-0.6-0.3-1.4,0.2-1.8
					c0.2-0.2,0.5-0.2,0.8-0.3c3-0.4,6.1-0.1,9.1,0.8c0.2-3,0.6-6,1.4-8.9L200.3,55.2z"/>
			</g>
			<g>
				<path class="st2" d="M125.2,67.2c2.3-0.9,4.8-0.8,5.2-3.3c0.4-2.5,1.8-8.7,1.1-9c-1.9-0.9-7.7,1.8-9.9,0.9
					c-1.6-0.7,0.5-7.5-3.1-4.9c-1.7,1.2-2.2,2.8-3.4,4.5c-0.6,0.8-1.1,1.7-1.1,2.7c0,0.7,0.2,1.4,0.3,2.2c0.1,0.3,0.1,0.7,0,1.1
					c-0.1,0.4-0.4,0.8-0.3,1.2c0.1,0.6,1,1,1.4,1.5c0.3,0.5,0.6,0.9,1.1,1.4c2,1.8,5.1,2.7,7.7,2.2
					C124.5,67.4,124.9,67.3,125.2,67.2z"/>
			</g>
			<g>
				<path class="st3" d="M101.3,64.4l0.6,9.4c0.1,1.2,0.8,2.2,1.8,2.8l8.5,4.2c1.1,0.5,2.3,0.5,3.3-0.2l7.9-5.2c1-0.7,1.6-1.8,1.5-3
					l-0.6-9.4c-0.1-1.2-0.8-2.2-1.8-2.8L114,56c-1.1-0.5-2.3-0.5-3.3,0.2l-7.9,5.2C101.8,62.1,101.2,63.2,101.3,64.4z"/>
				<g>
					<path class="st4" d="M119.2,62.4l-3.1-1.6c0-0.1,0-0.2,0-0.2c0-0.7-0.7-1.3-1.4-1.3c-0.7,0-1.3,0.7-1.3,1.4
						c0,0.7,0.7,1.3,1.4,1.3c0.3,0,0.6-0.2,0.9-0.4l3.1,1.6c0.7,0.4,1.2,1.1,1.3,1.9l0.2,4l-2.7-1.3c0-0.1,0-0.2,0-0.2
						c0-0.7-0.7-1.3-1.4-1.3c-0.7,0-1.3,0.7-1.3,1.4c0,0.7,0.7,1.3,1.4,1.3c0.3,0,0.6-0.2,0.9-0.4l3.2,1.6l0,0.7c0,0.8-0.3,1.6-1,2
						l-4,2.6c-0.2,0.1-0.3,0.4-0.1,0.6c0.1,0.1,0.2,0.2,0.4,0.2c0.1,0,0.2,0,0.2-0.1l4-2.6c0.9-0.6,1.5-1.7,1.4-2.9l-0.3-5.7
						C120.9,64,120.2,62.9,119.2,62.4z"/>
					<path class="st4" d="M110.3,59.6c-0.7,0-1.3,0.7-1.3,1.4c0,0.1,0,0.2,0,0.2l-2.9,1.9c-0.9,0.6-1.5,1.7-1.4,2.9l0.3,5.7
						c0.1,1.1,0.7,2.2,1.8,2.7l4.3,2.1c0.1,0,0.2,0.1,0.2,0c0.2,0,0.3-0.1,0.4-0.2c0.1-0.2,0-0.5-0.2-0.6l-4.3-2.1
						c-0.7-0.4-1.2-1.1-1.3-1.9l0-0.7l2.9-1.9c0.2,0.2,0.6,0.3,0.9,0.3c0.7,0,1.3-0.7,1.3-1.4c0-0.7-0.7-1.3-1.4-1.3
						c-0.7,0-1.3,0.7-1.3,1.4c0,0.1,0,0.2,0,0.2l-2.5,1.7l-0.2-4c0-0.8,0.3-1.6,1-2l2.9-1.9c0.2,0.2,0.6,0.3,0.9,0.3
						c0.7,0,1.3-0.7,1.3-1.4C111.7,60.1,111.1,59.6,110.3,59.6z"/>
				</g>
			</g>
			<g>
				<path class="st10" d="M143.6,38.5c-5.1-0.2-8.2-3.9-7.4-8.9c0-0.1,0-0.2,0.1-0.3c0.1-0.2,0.4-0.2,0.6-0.2
					c2.3,0.1,4.4,0.5,6.4,1.1c1.5,0.4,3,1.3,2.6,3L143.6,38.5z"/>
			</g>
			<g>
				<path class="st2" d="M180.3,59.9c-2.7,0.8-4.7,2.3-5.9,4.9c-1.4,3.1-0.5,6.7-1.8,9.8c-0.2,0.5,0.2,1,0.6,1.1
					c4.8,1.4,9.9-1.2,13.4-4.4c2.1-1.9,3.6-7.3,0.2-8.6C185.8,62.4,181.5,59.5,180.3,59.9L180.3,59.9z"/>
			</g>
			<g>
				<path class="st10" d="M182.2,70.7c1,3.1,3.4,5.7,3.6,9c0,0.5,0.6,0.8,1.1,0.7c6.3-0.7,10.7-10.6,5.9-15.2
					C191.9,64.4,181.8,69.6,182.2,70.7L182.2,70.7z"/>
			</g>
			<g>
				<path class="st8" d="M159.9,75.8c-1.5,0.5-2.8,1.6-3.7,2.8c-0.9,1.3-1.6,2.7-2.1,4.2c-0.7,1.8-1.2,3.5-1.6,5.4
					c2.7,0.1,5.4,0.1,8.2-0.1c0.8,0,1.8-0.2,2-1L159.9,75.8z"/>
			</g>
			<g>
				<path class="st8" d="M137.5,76.1c3,3.2,7.3,4.4,11.6,3.8c0.4-0.1,0.7-0.5,0.7-0.9c0.1-2.7-0.1-5.3-0.6-7.9
					C148.1,64.6,129.5,67.5,137.5,76.1z"/>
			</g>
			<g>
				<path class="st2" d="M143.1,37.6c-1.9-3.9-6.8-6-10.9-6.2c-1.8-0.1-4.6,0-6.1,1c-1.3,0.9-1.1,1.7-0.6,3.1
					c1.2,3.8,4.3,9.2,8.4,10.1C141.3,47.3,146.2,44.1,143.1,37.6z"/>
			</g>
			<g>
				<path class="st3" d="M137.9,36.7l-2.8,10c-0.4,1.3,0,2.6,0.9,3.5l7.2,7.4c0.9,0.9,2.3,1.3,3.5,1l10-2.6c1.3-0.3,2.3-1.3,2.6-2.6
					l2.8-10c0.4-1.3,0-2.6-0.9-3.5l-7.2-7.4c-0.9-0.9-2.3-1.3-3.5-1l-10,2.6C139.2,34.5,138.2,35.5,137.9,36.7z"/>
				<g>
					<path class="st4" d="M157.2,41.1l-2.7-2.8c0-0.1,0.1-0.2,0.1-0.3c0.2-0.8-0.2-1.6-1-1.8c-0.8-0.2-1.6,0.2-1.8,1
						c-0.2,0.8,0.2,1.6,1,1.8c0.4,0.1,0.7,0.1,1-0.1l2.7,2.8c0.6,0.6,0.9,1.6,0.6,2.4l-1.2,4.2l-2.3-2.4c0-0.1,0.1-0.2,0.1-0.3
						c0.2-0.8-0.2-1.6-1-1.8c-0.8-0.2-1.6,0.2-1.8,1c-0.2,0.8,0.2,1.6,1,1.8c0.4,0.1,0.7,0.1,1-0.1l2.7,2.8l-0.2,0.7
						c-0.2,0.9-0.9,1.5-1.8,1.8l-5.1,1.3c-0.3,0.1-0.4,0.3-0.4,0.6c0,0.2,0.2,0.3,0.3,0.4c0.1,0,0.2,0,0.3,0l5.1-1.3
						c1.2-0.3,2.2-1.2,2.5-2.4l1.7-6C158.4,43.3,158.1,42,157.2,41.1z"/>
					<path class="st4" d="M149,35c-0.8-0.2-1.6,0.2-1.8,1c0,0.1,0,0.2,0,0.3l-3.7,1c-1.2,0.3-2.2,1.2-2.5,2.4l-1.7,6
						c-0.3,1.2,0,2.5,0.9,3.4l3.7,3.7c0.1,0.1,0.1,0.1,0.2,0.1c0.2,0,0.3,0,0.5-0.1c0.2-0.2,0.2-0.5,0-0.7l-3.7-3.7
						c-0.6-0.6-0.9-1.6-0.6-2.4l0.2-0.7l3.8-1c0.2,0.3,0.5,0.5,0.8,0.6c0.8,0.2,1.6-0.2,1.8-1c0.2-0.8-0.2-1.6-1-1.8
						c-0.8-0.2-1.6,0.2-1.8,1c0,0.1,0,0.2,0,0.3l-3.2,0.8l1.2-4.2c0.2-0.9,0.9-1.5,1.8-1.8l3.7-1c0.2,0.3,0.5,0.5,0.8,0.6
						c0.8,0.2,1.6-0.2,1.8-1C150.3,36.1,149.8,35.2,149,35z"/>
				</g>
			</g>
			<g>
				<path class="st8" d="M145.1,61.5c-5.6-0.8-11.4-2.9-12.7-10.2c-0.1-0.4,0.1-0.8,0.3-1.1c0.9-1.1,3.7-1.6,6-1.6
					c0.2,0,0.5,0.1,0.6,0.3c0.7,0.7,1.3,1.6,1.9,2.5c0.4,0.6,1.1,1.6,1.5,2c2.3-3.5,6.9-4.3,7.1-4.4c0.5-0.1,1,0.2,1.1,0.7
					c0,0,0.6,2.9,2.4,4.3c2.3-0.6,4.4,0.7,6.3,3.8c0,0,0,0,0,0.1c0.2,0.2,0.3,0.4,0.3,0.6c0,0.4-0.2,0.8-0.7,1
					C159.3,59.6,147.9,61.9,145.1,61.5z"/>
			</g>
			<g>
				<path class="st8" d="M116.5,45.6c-5.4,0.6-12.6,0.6-17.5-1.9c-1.1-0.5,4.1-6.4,7.2-7.7c3.4-1.5,6.8-2.4,10.4-1.3
					C120.9,36,123.6,44.9,116.5,45.6z"/>
			</g>
			<g>
				<path class="st3" d="M168.8,50.8l0.7,11.1c0.1,1.4,0.9,2.6,2.2,3.3l9.9,5c1.3,0.6,2.7,0.5,3.9-0.2l9.2-6.1
					c1.2-0.8,1.8-2.1,1.7-3.5l-0.7-11.1c-0.1-1.4-0.9-2.6-2.2-3.3l-9.9-5c-1.3-0.6-2.7-0.5-3.9,0.2l-9.2,6.1
					C169.4,48,168.7,49.4,168.8,50.8z"/>
				<g>
					<path class="st4" d="M189.9,48.4l-3.7-1.8c0-0.1,0-0.2,0-0.3c-0.1-0.9-0.8-1.5-1.7-1.5c-0.9,0.1-1.5,0.8-1.5,1.7
						c0.1,0.9,0.8,1.5,1.7,1.5c0.4,0,0.7-0.2,1-0.4l3.7,1.8c0.9,0.4,1.4,1.3,1.5,2.2l0.3,4.7l-3.2-1.6c0-0.1,0-0.2,0-0.3
						c-0.1-0.9-0.8-1.5-1.7-1.5s-1.5,0.8-1.5,1.7c0.1,0.9,0.8,1.5,1.7,1.5c0.4,0,0.7-0.2,1-0.4l3.7,1.9l0,0.8c0.1,1-0.4,1.9-1.2,2.4
						l-4.7,3.1c-0.2,0.2-0.3,0.5-0.1,0.7c0.1,0.2,0.3,0.2,0.5,0.2c0.1,0,0.2,0,0.3-0.1l4.7-3.1c1.1-0.7,1.8-2,1.7-3.4l-0.4-6.7
						C191.9,50.2,191.1,49,189.9,48.4z"/>
					<path class="st4" d="M179.5,45.1c-0.9,0.1-1.5,0.8-1.5,1.7c0,0.1,0,0.2,0,0.3l-3.4,2.3c-1.1,0.7-1.8,2-1.7,3.4l0.4,6.7
						c0.1,1.3,0.9,2.5,2.1,3.1l5,2.5c0.1,0,0.2,0.1,0.3,0.1c0.2,0,0.4-0.1,0.4-0.3c0.1-0.3,0-0.6-0.2-0.7l-5-2.5
						c-0.9-0.4-1.4-1.3-1.5-2.2l0-0.8l3.5-2.3c0.3,0.2,0.7,0.3,1,0.3c0.9-0.1,1.5-0.8,1.5-1.7c-0.1-0.9-0.8-1.5-1.7-1.5
						c-0.9,0.1-1.5,0.8-1.5,1.7c0,0.1,0,0.2,0,0.3l-2.9,1.9l-0.3-4.7c-0.1-1,0.4-1.9,1.2-2.4l3.4-2.3c0.3,0.2,0.7,0.3,1,0.3
						c0.9-0.1,1.5-0.8,1.5-1.7C181.1,45.7,180.3,45.1,179.5,45.1z"/>
				</g>
			</g>
			<g>
				<path class="st8" d="M168.7,70.9c2.2-1.8,3.5-3.9,3.6-6.8c0.1-3.4-2-6.4-1.9-9.7c0-0.5-0.6-0.9-1-0.8c-5,0.5-8.7,4.8-10.8,9
					c-1.3,2.6-0.6,8.1,3,8C162.7,70.6,167.8,71.6,168.7,70.9L168.7,70.9z"/>
			</g>
			<g>
				<path class="st8" d="M198.5,46.1c-1.9,1.9-4.6,2.9-6.1,5.2c-0.2,0.4-0.8,0.3-1.1,0.1c-4.4-2.9-3.8-11.8,1.5-13.4
					C193.8,37.8,199.2,45.4,198.5,46.1L198.5,46.1z"/>
			</g>
		</g>
		<path class="st8" d="M109,81.1c1.3,1.1,2.1,1.1,3.7,0.7c1.9-0.5,3.8-0.9,5.8-0.9c2,0,4.2,0.8,6.1,0.1c2.2-0.9,5.4-3.7,5.5-6.2
			c0.2-3.4-3.3-5.3-6.3-5.2c-1.5,0-1.2,0.1-1.7,1.2c-0.7,1.3-0.9,1.8-2.4,1.3c-1.2-0.4-1.6-0.5-2.9,0.6c-0.7,0.6-1.2,0.5-1.5,1.3
			c-1.3,3.1-4.1-1.9-5.8-2.5C107,70.5,108.1,80.4,109,81.1z"/>
	</g>
	<path class="st3" d="M86.7,87.3c0,2.8-2.3,5.1-5.1,5.1H56.3c-3.1,0-5.5-2.5-5.5-5.6s2.5-5.5,5.5-5.5h7.8c1-3.7,4.4-6.4,8.4-6.4
		c4.3,0,7.9,3.1,8.6,7.3c0.2,0,0.3,0,0.5,0C84.4,82.2,86.7,84.5,86.7,87.3z"/>
</g>
<title>Open Source</title>
</svg>
