<?xml version="1.0" encoding="utf-8"?>
<!-- Generator: Adobe Illustrator 21.0.2, SVG Export Plug-In . SVG Version: 6.00 Build 0)  -->
<svg version="1.1" id="Layer_1" xmlns="http://www.w3.org/2000/svg" xmlns:xlink="http://www.w3.org/1999/xlink" x="0px" y="0px"
	 viewBox="0 0 260 260" style="enable-background:new 0 0 260 260;" xml:space="preserve">
<style type="text/css">
	.st0{fill:#3AA3E3;}
	.st1{fill:#143D8A;}
	.st2{fill:#2978BE;}
	.st3{fill:#90D8F0;}
	.st4{fill:#FFFFFF;}
	.st5{fill:#67BCEF;}
	.st6{fill:#1E54A0;}
	.st7{fill:#308DD1;}
	.st8{fill:none;stroke:#90D8F0;stroke-linecap:round;stroke-linejoin:round;stroke-miterlimit:10;}
</style>
<g>
	<path class="st0" d="M96,220.9h68c11.4,0,22-6.1,27.7-16l34-58.9c5.7-9.9,5.7-22.1,0-32l-34-58.9c-5.7-9.9-16.3-16-27.7-16H96
		c-11.4,0-22,6.1-27.7,16l-34,58.9c-5.7,9.9-5.7,22.1,0,32l34,58.9C74,214.8,84.5,220.9,96,220.9z"/>
	<g>
		<g>
			<path class="st1" d="M92.8,114.6c0,2.6,1,4.7,0.4,7.1c-10.6,0.2-12.1,5.9-9.9,10.3c-2.6-2.1-6.5-6.5-6.5-13.5
				c0-9.7,7-20.8,9.4-22.1C90.7,94.1,92.8,105,92.8,114.6z"/>
			<g>
				<path class="st2" d="M118.8,102.1l-0.6,11.1l-5.2-1.1L98.1,95.9V79.8l0.4,0l-0.2,2c5.4,9.6,10.2,12.1,13.9,11.5l0.9,3.5
					L118.8,102.1z"/>
				<polygon class="st3" points="98.1,92.7 114.6,109.7 113.1,96.6 122.5,99.3 129.3,119.4 137.4,135.4 131.8,141.8 115,146.5 
					106.8,146.5 103.2,111.8 				"/>
				<path class="st1" d="M160.8,131c0,0-7.1-5.5-9.6-7c-15.5-9.4-23.6-22.7-23.6-22.7l0,0c-0.1-0.3-0.2-0.5-0.3-0.6
					c-1.1-1.3-14.2-4.1-14.2-4.1l18.8,40.3L160.8,131z"/>
				<polygon class="st1" points="110.8,160.3 86.7,205.2 89.1,205.2 116.1,160.3 				"/>
				<polygon class="st1" points="120.2,215.7 122.7,215.7 125.8,160.3 121.8,160.3 				"/>
				<polygon class="st1" points="156.9,205.2 159.6,205.2 136.9,159.1 133.4,160.3 				"/>
				<path class="st2" d="M165.5,209.8c0,0,1.3,0.4,7-1.1s5.4-3,5.4-3l-8.1-56.1l-4.4-15.7h-21.1c0,0-18.3-0.4-25.9,5.8
					c-7.6,6.1-8.5,12-2.2,15.6c6.3,3.6,39,5.1,39,5.1L165.5,209.8z"/>
				<path class="st1" d="M165,207.1c0,0-2,6-1.4,7.6c0.5,1.6,13.1,5.3,17.7,5.9c3.3,0.4,13.5,0.3,13.5,0.3s1.5-1.5-1.3-3
					c-2.8-1.5-10.3-6.3-10.8-6.7c-1.7-1.8-4.1-7.3-4.1-7.3s-2.2,0.5-4.7,2.8C171.8,208.5,165,207.1,165,207.1z"/>
				<polygon class="st1" points="142.4,158.9 113.9,157.9 108.9,152.3 92.9,135.9 92.4,132.7 87.2,100.5 86.7,97.9 98.1,92.7 
					112.1,114.8 124.2,132.5 132.1,143.9 				"/>
				<path class="st4" d="M120.8,135.2l30.7-4l10.3-7.9l-46.6,6.1l2,3.8C118,134.5,119.4,135.3,120.8,135.2z"/>
				<path class="st5" d="M124.2,72.3c-0.5,2.9-2,13.9-7.6,18.8c-1.2,1.1-2.7,2-4.4,2.2c-3.7,0.6-8.5-1.9-13.9-11.5l0.2-2l0.7-7.2
					l7.4-4.9L124.2,72.3z"/>
				<path class="st6" d="M125.9,73.2c-7.1-25.9-30.1-21.3-29.9-4.1c0.1,5.3,1.6,10.5,2.1,12.2c0.1,0.4,0.2,0.6,0.2,0.6
					s0.8-3.3,2.2-5.7c3.1-5.5,5.3-6.5,5.3-6.5S129,84.3,125.9,73.2z"/>
				<path class="st4" d="M182.7,101.4l-22.8-2.2c-2.6-0.2-5,1.3-5.9,3.7l-11.6,30.9l4.9-1l27.2-5.6l9.4-23.5
					C184.4,102.6,183.7,101.5,182.7,101.4z"/>
				<path class="st6" d="M168.6,126.8c13,1.5-0.1,14.4-3.3,15.7c-3.2,1.3-38.2-5.7-38.2-5.7l-1.5-2.1
					C125.7,134.6,166.2,126.5,168.6,126.8z"/>
				<path class="st5" d="M177.5,168.6c0,0,0.8-23.3-0.1-30.5c-0.9-7.2-3-11.7-9.9-11.3c-4.4,0.3-8.9,4.2-8.5,16.1
					c0.2,5,5.8,32.8,5.8,32.8s3.7,1.2,7.2-0.9C175.6,172.5,177.5,168.6,177.5,168.6z"/>
				<path class="st5" d="M137.7,126.4c-1,0.2-49.5,6.7-52.1,6.7c-0.9,0-2.3-0.7-3.1-2.4c-1.8-3.5-1.3-9.1,9.2-10.5
					c3.4-0.4,8-0.4,13.8,0.3c3.3,0.4,16.2,2.1,16.2,2.1l0.7,0c0.9-0.4,1.8-1,2.9-1.3c7.7-2.3,12,2.6,12.7,3.6
					C138.4,125.2,138.8,126.2,137.7,126.4z"/>
				<path class="st3" d="M155.3,160.4c0,0-0.3,2.7-15.6,2.6s-35.8-0.6-39.4-3.9c-8.7-8.2-5.5-16-7.7-19.4c-1.9-2.9-0.9-3.6,0.4-3.8
					c5.6-1.2,12.6-1.6,16.3,6c6,11.9,13.3,14.3,19.2,15S155.3,160.4,155.3,160.4z"/>
				<path class="st1" d="M164.7,175.6c0,0-2.5,11.9,2,12c2.3,0.1,14.6,0,17.7,0s11.6-1.4,12.8-1.7c0.8-0.4,0.6-2.2-2.4-3.8
					c-3.1-1.6-8.6-2.5-13.4-6c-3.6-4.2-3.9-7.5-3.9-7.5s-3.5-0.3-5.1,4.4C169.5,174.8,167.7,175.6,164.7,175.6z"/>
			</g>
		</g>
	</g>
	<g>
		<g>
			<path class="st3" d="M56.3,76.4c1.5,2.5,4.1,5.9,4.8,10.3c-0.7-0.2-1.3-0.3-1.6-0.3c0,0.1,0,0.1,0,0.2c0,0,0.8,0.3,1.7,0.6
				c0.7,0.2,1.4,0.4,2,0.5c2,0.2,2.9-0.4,2.9-0.4c0,0,0-0.1,0-0.1c-0.3-4.9,2.5-7.9,4-10.2c5.8-8.6,0.2-18.9-9.6-19.8
				c-0.3,0-0.5,0-0.7-0.1C52.9,58.3,50.6,67.1,56.3,76.4z"/>
		</g>
		<g>
			<path class="st5" d="M53.9,75.4c1.9,2.6,5.2,6.2,5.7,11.1c0.3,0,0.9,0.1,1.6,0.3c0-4.3-2.9-7.7-4.2-10.3
				c-4.1-8.8-2.2-16.1,2.7-19.3C51.9,56.7,47.6,66.5,53.9,75.4z"/>
		</g>
		<path class="st7" d="M60.9,91.2c0.6,0.7,3.5,1.2,4.3,0.4c0.4-0.4,0.8-1.4,1-2.4c0.2-1,0.3-1.9,0.2-2.1c-0.1,0-0.2,0-0.2,0
			c-1.7,0.3-3.6-0.2-4.9-0.5c-0.7-0.2-1.3-0.3-1.6-0.3c-0.2,0-0.3,0.1-0.4,0.2C58.9,87.4,60.3,90.5,60.9,91.2z"/>
		<line class="st8" x1="53.9" y1="50.6" x2="52.3" y2="46.8"/>
		<line class="st8" x1="45.6" y1="55.1" x2="42.4" y2="52.3"/>
		<line class="st8" x1="41.5" y1="63.6" x2="37.1" y2="62.5"/>
		<line class="st8" x1="43.4" y1="73.9" x2="39" y2="75.2"/>
		<line class="st8" x1="80.2" y1="76.3" x2="83" y2="77.4"/>
		<line class="st8" x1="79.8" y1="66.2" x2="82.7" y2="65.3"/>
		<line class="st8" x1="73.7" y1="57" x2="76" y2="54.7"/>
		<line class="st8" x1="64.2" y1="51.3" x2="64.6" y2="47.9"/>
	</g>
</g>
</svg>
