<?xml version="1.0" encoding="utf-8"?>
<!-- Generator: Adobe Illustrator 21.0.2, SVG Export Plug-In . SVG Version: 6.00 Build 0)  -->
<svg version="1.1" id="Layer_1" xmlns="http://www.w3.org/2000/svg" xmlns:xlink="http://www.w3.org/1999/xlink" x="0px" y="0px"
	 viewBox="0 0 260 260" style="enable-background:new 0 0 260 260;" xml:space="preserve">
<style type="text/css">
	.st0{fill:#3AA3E3;}
	.st1{fill:#143D8A;}
	.st2{fill:#308DD1;}
	.st3{fill:#2978BE;}
	.st4{fill:#90D8F0;}
	.st5{fill:#1E54A0;}
	.st6{fill:#FFFFFF;}
	.st7{fill:#67BCEF;}
	.st8{fill:#526A73;}
	.st9{fill:#2266AF;}
	.st10{fill:#9EB1B4;}
	.st11{display:none;}
	.st12{display:inline;enable-background:new    ;}
	.st13{display:none;fill:#67BCEF;}
</style>
<g>
	<g>
		<path class="st0" d="M95.6,221.6l69.6,0c10.9,0,21-5.8,26.5-15.3l34.8-60.3c5.5-9.5,5.5-21.1,0-30.6l-34.8-60.3
			c-5.5-9.5-15.6-15.3-26.5-15.3H95.6c-10.9,0-21,5.8-26.5,15.3l-34.8,60.3c-5.5,9.5-5.5,21.1,0,30.6l34.8,60.3
			C74.5,215.8,84.6,221.6,95.6,221.6z"/>
		<g>
			<path class="st1" d="M117.5,49.1c-2.6,9.9-9.7,20.6-16,23.8c-2,1-3.6,1.1-4.9,0.6c-1.1-0.5-1.8-1.5-2.3-3
				c0.3-0.1,0.6-0.2,0.9-0.4c6.3-3.2,13.4-13.8,16-23.8c1-3.9,1.2-7.2,0.6-9.5c0-0.1-0.1-0.2-0.1-0.3c2-0.8,3.6-0.6,4.7,0.3
				C118.5,38.4,119.1,42.9,117.5,49.1z"/>
			<path class="st1" d="M123.9,53.8c-2.1,10.2-8.7,19.1-15.1,21.7c-2.3,0.9-7.2,1.1-12.1-2.1c1.3,0.6,2.9,0.5,4.9-0.6
				c1.4-0.7,2.9-1.9,4.4-3.3c4.9-4.8,9.6-12.8,11.6-20.5c0.2-0.8,0.4-1.5,0.5-2.2c0.9-5-0.4-9.1-2.3-10.6c2.1,1.1,5.1,2.6,6.1,3.5
				C124.8,43,125.2,47.1,123.9,53.8z"/>
			<path class="st1" d="M66,144c-1.9,8.1-7.9,16.5-13.4,18.8c-1.7,0.7-3.2,0.8-4.4,0.2c-1-0.5-1.7-1.4-2.2-2.6
				c-0.4-1.5-0.7-4-0.4-4.1c5.5-2.3,9.6-7.5,11.5-15.5c0.8-3.2,1.1-4.1,0.5-6c0-0.1,1.5-1.1,2.6-1.4c1.8-0.6,3.2-0.4,4.3,0.5
				C66.5,135.3,67.2,139,66,144z"/>
			<path class="st1" d="M71.4,147.1c-1.9,8.1-7.9,16.5-13.4,18.8c-1.9,0.8-5.2,0.1-9.7-2.8c1.2,0.5,2.6,0.5,4.4-0.2
				c1.3-0.5,2.6-1.4,3.8-2.5c4.2-3.7,8.1-10.1,9.6-16.3c0.1-0.6,0.3-1.2,0.3-1.8c0.6-4.1-0.1-7.1-1.9-8.4c1.9,1,3.9,2.2,5,2.8
				c0.9,0.5,1.6,1.5,2,2.7C72.1,141.2,72.1,143.9,71.4,147.1z"/>
			<g>
				<polygon class="st2" points="57.4,149.7 70.3,127.4 60.9,122.2 48.1,144.6 				"/>
			</g>
			<path class="st3" d="M57.2,150.1l12.8-22.4l-8.1-5c2.1,2.1,3.2,6.1,1.4,12.9C61.8,141.2,57.2,150.1,57.2,150.1z"/>
			<g>
				<g>
					<path class="st4" d="M58.9,115.4c-3.1,0.3-6.1,1.3-8.2,3.8c-2.3,2.8-1.7,6.1-1.9,9.5c0,0.5,0.7,0.5,0.8,0
						c0.1-2.7-0.4-5.8,1.1-8.2c1.8-2.9,4.9-4.1,8.2-4.4C59.4,116.1,59.4,115.3,58.9,115.4L58.9,115.4z"/>
				</g>
			</g>
			<path class="st5" d="M54.9,137.9c-1.9,8.1-8,16.6-13.6,19c-1.8,0.7-3.3,0.8-4.4,0.2c-2.5-1.2-3.5-5.1-2.2-10.7
				c1.9-8.1,8-16.6,13.6-19c2.1-0.9,3.8-0.8,5.1,0.2C55.4,129.1,56.1,132.8,54.9,137.9z"/>
			<path class="st5" d="M60.4,141c-1.9,8.1-8,16.6-13.6,19c-2.5,1.1-6.1,0.3-10.3-3.1c1.2,0.6,3.2,0.8,4.9,0.1
				c1.3-0.5,2.6-1.4,3.9-2.5c0.2-0.1,0.3-0.3,0.5-0.4c4.1-3.8,7.8-10,9.2-16.1c0.1-0.6,0.3-1.2,0.3-1.8l0,0c0.6-4.1-0.8-7.6-2.6-9
				c5.1,2.3,7.1,3.7,7.8,6C61.1,135,61.1,137.7,60.4,141z"/>
			<path class="st1" d="M43.1,145.3c-0.3,1.1-0.3,2.1-0.2,2.8c-0.4,0.2-0.8,0.3-1.1,0.2c-0.2,0-0.4-0.2-0.6-0.4
				c-0.5-0.7-0.6-2.1-0.2-3.8c0.8-3.5,3.5-7.2,5.8-8.2c0.4-0.2,0.8-0.3,1.1-0.2c0.2,0,0.4,0.2,0.6,0.4c0.2,0.2,0.3,0.6,0.4,1
				C46.6,138.1,44,141.8,43.1,145.3z"/>
			<g>
				<g>
					<path class="st6" d="M85.4,58.8c-7.1,0.7-12.6,5.4-14.8,12.1c-1.5,4.5-2.2,11.5,1.5,15.2c0.3,0.3,0.9-0.2,0.5-0.5
						c-3.4-3.4-2.7-9.9-1.5-14c2-6.6,7.3-11.3,14.2-12C85.8,59.5,85.8,58.8,85.4,58.8L85.4,58.8z"/>
				</g>
			</g>
			<g>
				<g>
					<path class="st4" d="M76.2,79.4c-2.7-4.6-3.3-11.2-1.9-16.3c1.6-6.1,7.9-11.1,13.8-12.5c0.5-0.1,0.3-0.8-0.2-0.7
						c-6,1.4-12.3,6.4-14.2,12.5c-1.7,5.4-1,12.6,1.8,17.5C75.8,80.2,76.4,79.9,76.2,79.4L76.2,79.4z"/>
				</g>
			</g>
			<g>
				<path class="st2" d="M103.5,46.7L87,75.4l9.4,5.1L109,58.4c2.1-3.6,1.5-7.9-1.4-9.5L103.5,46.7z"/>
			</g>
			<path class="st3" d="M100,52.7L87.2,75l8.1,5c-2.1-2.1-3.2-6.1-1.4-12.9C95.4,61.5,100,52.7,100,52.7z"/>
			<path class="st5" d="M112.4,46.5c-2.6,10-9.8,20.8-16.2,24c-0.3,0.2-0.6,0.3-0.9,0.4c-2,0.9-5.7-0.5-10.5-3.7
				c-2.7-1.3-3.6-6-1.8-12.9c2.6-10,9.8-20.8,16.2-24c1.9-1,3.6-1.2,4.8-0.6c0,0,0,0,0,0h0c0.2,0.1,0.3,0.2,0.5,0.3c0,0,0,0,0,0
				c4.3,2.4,7.8,4.5,8.4,7C113.6,39.3,113.4,42.5,112.4,46.5z"/>
			<path class="st1" d="M99.3,42.1c-2.6,1.3-5.8,6.1-6.9,10.4C92,53.8,91.9,55,92,55.9c-0.5,0.3-1,0.4-1.3,0.3
				c-0.3,0-0.5-0.2-0.7-0.5c-0.5-0.8-0.6-2.6,0-4.6c1.1-4.3,4.3-9.1,6.9-10.4c0.5-0.3,0.9-0.4,1.3-0.3c0.3,0,0.5,0.2,0.7,0.5
				C99.1,41.2,99.3,41.6,99.3,42.1z"/>
			<path class="st2" d="M106,89.7l-23.9,38.4c-0.9,1.5-3.9,2.8-11.1-0.1c-1.4-0.6-2.9-1.3-4.7-2.2c-10.6-5.7-11.6-10-10.7-11.8
				l18.7-41.2c0.9-2,3.4-2.9,5.3-1.8l0.2,0.1l24.7,13.2C106.5,85.3,107.2,87.8,106,89.7z"/>
			<path class="st7" d="M106,89.7l-23.9,38.4c-0.9,1.5-3.9,2.8-11.1-0.1c-1.5-5.8-2.3-11.9-2.3-18.1c0-14.3,4.1-27.7,11.2-38.8
				l24.7,13.2C106.5,85.3,107.2,87.8,106,89.7z"/>
			<path class="st2" d="M112,175.9c0,0-0.1,3.7-3.5,8.8c-1.3,2-2.6,3.4-3.7,4.4c-1.7,1.5-2.8,2-2.8,2c-3.5,1.6-6.4,0.4-8.1-0.9
				l-36.9-23.4c-5.5-3.5-8.6-10.5-0.6-22.5c0.4-0.6,0.8-1.2,1.3-1.8c6.6-8.9,18.7,0.9,20.5,2.3l29.9,24.1
				C109.9,169.9,112.3,172.4,112,175.9z"/>
			<path class="st7" d="M112,175.9c0,0-0.1,3.7-3.5,8.8c-1.3,2-2.6,3.4-3.7,4.4c-26-8.4-44.8-25.1-48.4-44.8
				c0.4-0.6,0.8-1.2,1.3-1.8c6.6-8.9,18.7,0.9,20.5,2.3l29.9,24.1C109.9,169.9,112.3,172.4,112,175.9z"/>
			<path class="st1" d="M108.7,182.3c-2.7,5-7.1,8.5-9.8,7.9c-2.7-0.6-2.8-5.1-0.1-10c2.7-5,7.1-8.5,9.8-7.9
				S111.3,177.3,108.7,182.3z"/>
			<path class="st8" d="M143.6,168.1c3.1-4,5.3-6.9,7.2-9.3c1.1-1.5,1.5-2.9,0.5-4c-1-1.2-2.6-0.9-3.7,0.4c-1.6,1.9-3.7,4.6-6.9,8.6
				L143.6,168.1z"/>
			<path class="st8" d="M143.4,192.2c-0.8,0.5-5.2,1.2-6.1,0.9c0,0,0,0,0,0c-0.2,0-0.4-0.1-0.6-0.2c-2.4-0.8-4-4.3-3.7-7.8
				c0.1-1.4,0.6-2.6,1.2-3.5c0,0,0,0,0,0c1.4-2.4,5.9-2.9,8-2.1c2.4,0.8,4.1,4.5,3.8,7.9C145.7,189.5,144.6,191.4,143.4,192.2z"/>
			<path class="st8" d="M142.6,172.2c-0.7,0.4-4.6,0.7-5.5,0.4c0,0,0,0,0,0c-0.2,0-0.4-0.1-0.5-0.2c-2-0.9-3.3-4-2.9-7
				c0.2-1.2,0.6-2.2,1.3-2.9c0,0,0,0,0,0c1.4-2,5.4-2,7.1-1.3c2,0.9,3.3,4,2.8,7C144.6,170,143.7,171.6,142.6,172.2z"/>
			<path class="st8" d="M143.6,168.1l0.8,17.9l-0.8,0.2c-0.4-4.1-2.4-6.1-4.4-6.8l-0.2-6.8c2.1-0.2,3.9-2,4-4.5L143.6,168.1z"/>
			<g>
				<path class="st9" d="M107.5,188.4l-7.1-5c-0.7-0.5-0.6-1.9,0.1-3.2c0.7-1.3,1.9-2,2.6-1.5l7.1,5c0.7,0.5,0.6,1.9-0.1,3.2
					S108.2,188.9,107.5,188.4z"/>
			</g>
			<path class="st5" d="M106.8,200.9l14.8,8.1c5.9,3.2,12.9,4,19.3,2l7.7-2.3c5.7-1.7,6.5-9.4,1.3-12.3l-14.8-8.1
				c-5.9-3.2-12.9-4-19.3-2l-7.1-3.6C103,184.4,101.6,198,106.8,200.9z"/>
			<path class="st5" d="M107.9,194.8l14.8,8.1c5.9,3.2,12.9,4,19.3,2l7.7-2.3c5.7-1.7,6.5-9.4,1.3-12.3l-14.8-8.1
				c-5.9-3.2-12.9-4-19.3-2l-7.7,2.3C103.5,184.2,102.7,191.9,107.9,194.8z"/>
			<g>
				<path class="st3" d="M121.4,202.4c1.3,0.5,2.6,1,3.9,1.5c1.3,0.5,2.6,0.9,3.9,1.2c1.3,0.3,2.7,0.6,4.1,0.7
					c1.4,0.2,2.7,0.2,4.1,0.2c-1.4,0.3-2.8,0.4-4.2,0.3c-1.4-0.1-2.8-0.3-4.1-0.6c-1.4-0.3-2.7-0.8-4-1.4
					C123.8,203.7,122.6,203.1,121.4,202.4z"/>
			</g>
			<g>
				<g>
					<path class="st10" d="M137.9,204.6c0,0.3,0,0.7,0,1c-0.3-0.2-0.5-0.3-0.8-0.5c0-0.1,0-0.2,0-0.3c0.2-2.7,1.8-4.7,3.6-4.8
						C139.3,200.5,138.1,202.2,137.9,204.6z"/>
				</g>
			</g>
			<g>
				<path class="st1" d="M137.1,211.9l0.6-3.3l0.3-1.7l0.2-1.1c-0.1-0.1-0.2-0.1-0.3-0.2c-0.3-0.2-0.5-0.3-0.8-0.5
					c-0.7-0.4-1.3-0.9-1.9-1.3c-1.2-0.8-2.3-1.6-3.5-2.4l0,0c-5.2-3.3-2.9-5,3-6.5c5.1-1.3,6.5-1,10,0.4l1.8,1.1L137.1,211.9z"/>
			</g>
			<g>
				<path class="st7" d="M147.3,211.7c-1,0.7-7.1,2.4-8.4,2.1c0,0,0,0,0,0c-0.3,0-0.6,0-0.8-0.1c-1-0.2-1.9-0.8-2.7-1.6
					c0.2,0,0.4,0,0.6,0c0.6-0.1,1.2-0.5,1.3-1.2l0.9-5.1c-0.9-0.6-1.7-1.1-2.5-1.6c-0.2-0.2-0.5-0.3-0.7-0.5
					c-0.6-0.4-1.2-0.8-1.8-1.3c0.3-1.3,0.8-2.5,1.4-3.4c0,0,0,0,0,0c1.9-3.4,8.1-4.5,10.9-3.9c1.1,0.2,2,0.9,2.8,1.7
					c1.4,1.5,2.4,3.9,2.5,6.4c0,0.5,0,1,0,1.6C150.5,207.8,149,210.6,147.3,211.7z"/>
				<g>
					<path class="st0" d="M142.8,206.2c-0.2,2.3-1.4,4.1-2.8,4.6c0,0,0,0,0,0c0,0,0,0,0,0c-0.2,0.1-0.3,0.1-0.5,0.1
						c-0.2,0-0.4,0-0.5,0c-0.2,0-0.3,0-0.5-0.1c-0.3-0.1-0.7-0.2-1-0.4l0.1-0.7l0.6-3.2c0.1-0.5-0.1-1-0.5-1.2
						c-0.6-0.4-1.2-0.8-1.8-1.2c-0.2-0.2-0.5-0.3-0.7-0.5c0.4-2.4,1.9-4,3.5-4.1c0,0,0,0,0,0c0.3,0,0.5,0,0.8,0.1
						c0.9,0.2,1.7,0.8,2.2,1.7C142.5,202.5,142.9,204.3,142.8,206.2z"/>
				</g>
			</g>
			<path class="st6" d="M187.6,106l2.8,23.8c0.4,3.4-0.4,7-2.2,10.3l-21.9,38.8c-2.9,5.2-6.3,6.9-13.6,8.8c0,0-10.6,2.9-13.9,2.9
				c-16.9-0.2-25-5.5-26-14.5l-2.8-23.8c-0.4-3.4,0.4-7,2.2-10.3l21.9-38.8c2.9-5.2,8.2-9,14.2-10.1l7.3-1.4
				c5.7-1.1,14.1-0.7,20.6,1.6C182.3,94.9,186.8,99.6,187.6,106z"/>
			<path class="st4" d="M184,110l2.5,21.5c0.4,3.1-0.3,6.3-2,9.3l-19.7,35c-2.6,4.7-7.4,8.1-12.8,9.1l-6.6,1.3
				c-1.8,0.4-3.6,0.4-5.4,0.2c-6.5-0.8-11.7-5.4-12.4-11.9l-2.5-21.5c-0.4-3.1,0.3-6.3,2-9.3l19.7-35c2.6-4.7,7.4-8.1,12.8-9.1
				l6.6-1.3c2.6-0.5,5.2-0.4,7.5,0.2C179.2,100,183.3,104.3,184,110z"/>
			<polygon class="st4" points="127,169.5 125.9,160.5 121.5,153.1 116.8,155.4 			"/>
			<g>
				<path class="st7" d="M121.2,157.2c-0.4,0.4-3.2,1.8-3.8,1.8c0,0,0,0,0,0c-0.1,0-0.3,0.1-0.4,0.1c-1.7,0.2-3.3-1.1-3.6-2.8
					c-0.1-0.7,0-1.4,0.3-1.9c0,0,0,0,0,0c0.5-1.5,3.4-2.7,4.8-2.8c1.7-0.2,3.2,1.1,3.5,2.8C122.2,155.5,121.9,156.6,121.2,157.2z"/>
				<path class="st9" d="M116,171.2c1.4-6.3,2.3-10.9,3.1-14.8c0.5-2.3,0-4.2-1.7-4.9c-1.8-0.8-3.5,0.4-4.1,2.6
					c-0.8,3.1-1.7,7.4-3.1,13.8L116,171.2z"/>
				<path class="st7" d="M115.8,206.5c-1,0.6-6.7,1.5-7.9,1.1c0,0,0,0,0,0c-0.3,0-0.5-0.1-0.8-0.2c-3-1.1-5.1-5.6-4.7-10
					c0.2-1.8,0.7-3.4,1.6-4.5c0,0,0,0,0,0c1.8-3.1,7.6-3.7,10.2-2.8c3,1.1,5.3,5.7,4.8,10.2C118.9,203.1,117.4,205.6,115.8,206.5z"
					/>
				<path class="st0" d="M111.6,200.7c-0.2,2.2-1.3,3.8-2.7,4.1c0,0,0,0,0,0c-0.5,0.1-1,0.1-1.5-0.1c-2-0.7-3.4-3.7-3.1-6.7
					c0.2-2.6,1.7-4.3,3.4-4.2h0c0.2,0,0.5,0.1,0.7,0.1C110.5,194.7,111.9,197.7,111.6,200.7z"/>
				<path class="st7" d="M115.4,181c-0.9,0.5-6,0.9-7,0.5c0,0,0,0,0,0c-0.2,0-0.5-0.1-0.7-0.2c-2.6-1.1-4.3-5.1-3.7-9
					c0.2-1.6,0.8-2.9,1.6-3.8c0,0,0,0,0,0c1.8-2.5,6.9-2.6,9.2-1.6c2.6,1.1,4.2,5.1,3.6,8.9C118.1,178.1,116.9,180.3,115.4,181z"/>
				<path class="st0" d="M112.5,175.9c-0.3,2.2-1.5,3.7-3,3.9h0c-0.5,0.1-1,0-1.5-0.2c-2-0.9-3.3-3.9-2.8-6.9c0.4-2.6,2-4.2,3.7-3.9
					c0,0,0,0,0,0c0.2,0,0.5,0.1,0.7,0.2C111.7,169.9,112.9,172.9,112.5,175.9z"/>
				<path class="st9" d="M116.2,175.7l1,23l-1,0.2c-0.6-5.2-3.1-7.8-5.6-8.7l-0.2-8.7c2.6-0.3,5-2.6,5.1-5.8L116.2,175.7z"/>
			</g>
			<g class="st11">
				<g class="st12">
					<g>
						<path class="st3" d="M176.6,165.8l-6.7,0.3c-0.4,0-0.7,0-1,0c-0.2,0-0.3-0.1-0.4-0.1c-0.1,0-0.3-0.1-0.4-0.2
							c0,0-0.1,0-0.1-0.1c-0.4-0.2-0.7-0.6-0.8-1.1c0-0.1,0-0.2-0.1-0.2c0-0.1,0-0.2,0-0.3l6-0.3L176.6,165.8z"/>
					</g>
					<g>
						<path class="st3" d="M190.1,92.2l-9.4,0.5l-7.8,6.1c-1.8,1.4-3.5,2.6-5,3.7c-1.5,1-2.9,1.9-4.2,2.6c-1.3,0.7-2.4,1.3-3.5,1.8
							c-0.2,0.1-0.4,0.2-0.5,0.2c-1.8,0.8-3,2.4-3.2,4.3c0,0,0,0,0,0c-0.1,1,0,1.9,0.2,2.6c0.2,0.7,0.5,1.2,1,1.6
							c0.1,0,0.2,0.1,0.2,0.1c0,0,0,0,0,0c0,0,0,0,0.1,0l-3.7-1.9c-0.1-0.1-0.2-0.1-0.3-0.2c-0.5-0.3-0.8-0.9-1-1.6
							c-0.2-0.7-0.2-1.6-0.2-2.6c0.1-1,0.3-2.1,0.7-3.3c0.9-0.3,1.9-0.7,3-1.2c1.1-0.5,2.2-1,3.5-1.8c1.3-0.7,2.7-1.6,4.2-2.6
							c1.5-1,3.2-2.2,5-3.7l7.8-6.1l9.4-0.5L190.1,92.2z"/>
					</g>
					<g>
						<path class="st3" d="M174,103.9l-18.5,55.8c-0.5,1.4-0.9,2.6-1.4,3.5c-0.5,0.9-1,1.7-1.5,2.2c-0.5,0.6-1.1,1-1.7,1.2
							c-0.6,0.3-1.2,0.4-2,0.4l-6.9,0.3l-2,5.9l-3.7-1.9l2-5.9l6.9-0.3c0.7,0,1.4-0.2,2-0.4c0.6-0.3,1.2-0.7,1.7-1.2
							c0.5-0.6,1-1.3,1.5-2.2c0.5-0.9,0.9-2.1,1.4-3.5l15.6-47.1c0.6-0.6,1.3-1.3,2-2C170.9,107.3,172.4,105.7,174,103.9z"/>
					</g>
					<g>
						<path class="st13" d="M169.9,166.1l6.7-0.3l-2,5.9l-34.6,1.8l2-5.9l6.9-0.3c0.7,0,1.4-0.2,2-0.4c0.6-0.3,1.2-0.7,1.7-1.2
							c0.5-0.6,1-1.3,1.5-2.2c0.5-0.9,0.9-2.1,1.4-3.5l18.5-55.8c-1.6,1.8-3.2,3.4-4.6,4.9c-0.7,0.7-1.3,1.4-2,2
							c-0.7,0.7-1.3,1.3-2,1.8c-1.2,1.1-2.3,1.9-3.3,2.5c-1,0.6-2,0.9-2.8,1c-0.2,0-0.4,0-0.6,0c-0.3,0-0.6-0.1-0.8-0.3c0,0,0,0,0,0
							c-0.1,0-0.2-0.1-0.2-0.1c-0.5-0.4-0.8-0.9-1-1.6c-0.2-0.7-0.3-1.5-0.2-2.6c0.1-1,0.3-2.1,0.7-3.3c0.9-0.3,1.9-0.7,3-1.2
							c1.1-0.5,2.2-1.1,3.5-1.8c1.3-0.7,2.7-1.6,4.2-2.6c1.5-1,3.2-2.2,5-3.7l7.8-6.1l9.4-0.5L168,159.1c-0.4,1.2-0.7,2.2-0.8,3.1
							c-0.2,0.8-0.2,1.4-0.1,2c0,0.1,0,0.2,0,0.3c0,0.1,0,0.2,0.1,0.2c0.1,0.5,0.4,0.8,0.8,1.1c0,0,0.1,0.1,0.1,0.1
							c0.1,0.1,0.2,0.1,0.4,0.2c0.1,0,0.3,0.1,0.4,0.1C169.2,166.1,169.5,166.1,169.9,166.1z"/>
					</g>
				</g>
			</g>
			<polygon class="st1" points="160.1,185.2 164.7,185.1 164,171.2 162.7,172.2 			"/>
			<g>
				<path class="st9" d="M166.5,198.1l-17.5,6.6l-0.8,0.2c0-2.6-0.9-5-2.3-6.6l12.9-5.2c1.2,2.6,4.1,4.2,7.2,3.3L166.5,198.1z"/>
				<g>
					<path class="st7" d="M170.1,199.8c-1,0.7-6.7,1.9-8,1.5c0,0,0,0,0,0c-0.3,0-0.5-0.1-0.8-0.1c-3.1-0.9-5.2-5.2-4.8-9.6
						c0.2-1.8,0.8-3.4,1.6-4.5c0,0,0,0,0,0c1.8-3.1,7.7-4.1,10.3-3.3c3.1,0.9,5.3,5.3,4.9,9.8C173.2,196.2,171.7,198.8,170.1,199.8z
						"/>
					<path class="st0" d="M165.8,194.3c-0.2,2.2-1.3,3.8-2.7,4.2c0,0,0,0,0,0c-0.5,0.1-1,0.2-1.5,0c-2-0.6-3.5-3.5-3.2-6.4
						c0.2-2.6,1.7-4.4,3.4-4.4c0,0,0,0,0,0c0.2,0,0.5,0,0.8,0.1C164.7,188.4,166.1,191.3,165.8,194.3z"/>
				</g>
				<path class="st9" d="M171,189.3c-0.8-2.5-2.4-4.6-4.4-5.1c-0.9-0.3-2.2-0.3-3.6-0.2l0,0c-0.3-6.5-0.3-7.9-0.3-11.1
					c0-2.3,1.9-4.6,3.8-4.3c1.9,0.3,3.2,2.4,3.5,4.7C170.3,176.8,170.7,183.2,171,189.3z"/>
			</g>
		</g>
	</g>
</g>
</svg>
