<svg xmlns="http://www.w3.org/2000/svg" width="201" height="200" viewBox="0 0 201 200">
    <defs>
        <linearGradient id="a" x1="47.9%" x2="-28.793%" y1="78.461%" y2="-116.537%">
            <stop offset="0%" stop-color="#FFF" stop-opacity="0"/>
            <stop offset="100%" stop-color="#FFF"/>
        </linearGradient>
        <linearGradient id="b" x1="-27591%" x2="-28790%" y1="642.987%" y2="240.739%">
            <stop offset="0%" stop-color="#FFF" stop-opacity="0"/>
            <stop offset="100%" stop-color="#FFF"/>
        </linearGradient>
    </defs>
    <g fill="none" fill-rule="nonzero">
        <path fill="#60D5F2" d="M67 181.93h68a32 32 0 0 0 27.71-16l34-58.93a32 32 0 0 0 0-32l-34-58.93A32 32 0 0 0 135 .07H67a32 32 0 0 0-27.71 16L5.24 75a32 32 0 0 0 0 32l34 58.93a32 32 0 0 0 27.76 16z" opacity=".2"/>
        <path fill="#526A73" d="M85.72 35.11c-2.57 9.94-9.72 20.58-16 23.77-2 1-3.63 1.15-4.88.56a4.57 4.57 0 0 1-2.29-3 9 9 0 0 0 .87-.39c6.27-3.19 13.41-13.83 16-23.76 1-3.94 1.16-7.19.57-9.46a2.45 2.45 0 0 0-.09-.3c2-.79 3.58-.65 4.72.28 2.14 1.68 2.69 6.13 1.1 12.3z"/>
        <path fill="#526A73" d="M92.12 39.86C90.07 50.09 83.45 59 77 61.56c-2.31.92-7.21 1.12-12.12-2.13 1.26.59 2.91.45 4.88-.56a18.82 18.82 0 0 0 4.39-3.28c4.92-4.75 9.62-12.83 11.59-20.49.19-.76.36-1.49.49-2.19.94-5-.44-9.09-2.32-10.6C86 23.45 89 24.87 90 25.85c3.06 3.15 3.46 7.32 2.12 14.01z"/>
        <path fill="#7A8D92" d="M71.46 58.06a32.36 32.36 0 0 0 5.85-6.39 55.9 55.9 0 0 0 4.46-7.42 53.68 53.68 0 0 0 3.28-8 28.68 28.68 0 0 0 1.48-8.52 17.77 17.77 0 0 1 0 4.39c-.07.73-.21 1.46-.35 2.18-.14.72-.27 1.45-.46 2.16a41.28 41.28 0 0 1-3.13 8.23 42.62 42.62 0 0 1-4.73 7.43 25.08 25.08 0 0 1-6.4 5.94z" opacity=".2"/>
        <path fill="#314448" d="M34.22 130.05c-1.9 8.05-7.9 16.46-13.42 18.78a5.3 5.3 0 0 1-4.38.22 4.42 4.42 0 0 1-2.19-2.6c-.38-1.49-.67-4-.41-4.1 5.51-2.32 9.63-7.47 11.54-15.52.75-3.2 1.09-4.1.47-6a9.41 9.41 0 0 1 2.62-1.44 4.52 4.52 0 0 1 4.27.46c2 1.52 2.68 5.2 1.5 10.2z"/>
        <path fill="#314448" d="M39.57 133.11c-1.9 8.05-7.9 16.46-13.42 18.78-1.95.83-5.17.08-9.73-2.83a5.3 5.3 0 0 0 4.38-.22 14.68 14.68 0 0 0 3.82-2.49 33.14 33.14 0 0 0 9.6-16.3c.14-.61.26-1.21.35-1.78.64-4.09-.1-7.09-1.85-8.42 1.92 1 3.86 2.16 5 2.79a4.64 4.64 0 0 1 2 2.72 14.75 14.75 0 0 1-.15 7.75z"/>
        <path fill="#9EB1B4" d="M16.76 149.14a5.47 5.47 0 0 0 4.54-.62 15.71 15.71 0 0 0 3.76-2.85 32.23 32.23 0 0 0 5.59-7.67 31.85 31.85 0 0 0 3.35-8.82 16.11 16.11 0 0 0 .44-4.7 6.12 6.12 0 0 0-1.72-4.29 4.47 4.47 0 0 1 1.51 1.88c.335.75.56 1.545.67 2.36a16.51 16.51 0 0 1-.18 4.89 30.29 30.29 0 0 1-3.26 9.17 30.6 30.6 0 0 1-5.93 7.72 16.06 16.06 0 0 1-4.05 2.73 7.89 7.89 0 0 1-2.37.64 4.07 4.07 0 0 1-2.35-.44z" opacity=".3"/>
        <path fill="#60D5F2" d="M25.65 135.78l12.84-22.37-9.35-5.16-12.83 22.36z" opacity=".6"/>
        <path fill="#60D5F2" d="M25.44 136.15l12.84-22.37-8.1-5c2.08 2.11 3.2 6.1 1.36 12.9-1.54 5.61-6.1 14.47-6.1 14.47z" opacity=".7"/>
        <path fill="#FF6161" d="M27.14 101.23c-3.16.31-6.25 1.32-8.31 3.88-2.3 2.86-1.74 6.21-1.91 9.63 0 .71 1.08.71 1.11 0 .13-2.69-.42-5.69 1.08-8.1 1.75-2.81 4.86-4 8-4.3.71-.07.71-1.18 0-1.11h.03z"/>
        <path fill="#526A73" d="M23.17 123.91c-1.92 8.13-8 16.63-13.56 19a5.36 5.36 0 0 1-4.42.23c-2.52-1.19-3.49-5.15-2.18-10.71 1.92-8.13 8-16.63 13.56-19 2.11-.89 3.85-.76 5.08.18 2.02 1.53 2.71 5.25 1.52 10.3z"/>
        <path fill="#526A73" d="M28.57 127c-1.92 8.13-8 16.63-13.56 19-2.49 1.06-6.11.26-10.32-3.13a6.38 6.38 0 0 0 4.91.05 14.83 14.83 0 0 0 3.86-2.51l.45-.4a33.78 33.78 0 0 0 9.24-16.07c.14-.62.26-1.21.35-1.79.65-4.13-.85-7.61-2.62-9 5.05 2.32 7.06 3.66 7.8 6a14.9 14.9 0 0 1-.11 7.85z"/>
        <path fill="#7A8D92" d="M7.92 143.3a9.26 9.26 0 0 0 3.71-1.71 19.16 19.16 0 0 0 3.06-2.73 35.21 35.21 0 0 0 4.76-6.68 36.44 36.44 0 0 0 3.2-7.56 24 24 0 0 0 .82-4 12.17 12.17 0 0 0-.15-4.11 11.07 11.07 0 0 1 .62 4.14 24 24 0 0 1-.57 4.18 30.1 30.1 0 0 1-3.08 7.84 29.35 29.35 0 0 1-5.07 6.73 19.29 19.29 0 0 1-3.33 2.6 8.71 8.71 0 0 1-3.97 1.3z"/>
        <path fill="#314448" d="M11.36 131.33a7.27 7.27 0 0 0-.17 2.83 2 2 0 0 1-1.15.19 1 1 0 0 1-.62-.41c-.53-.71-.6-2.14-.21-3.82.82-3.48 3.48-7.23 5.8-8.21a2 2 0 0 1 1.15-.19 1 1 0 0 1 .61.4c.207.298.34.64.39 1-2.32.98-4.97 4.74-5.8 8.21z"/>
        <path fill="#FF6161" d="M53.59 44.68A17.41 17.41 0 0 0 38.6 57c-1.51 4.54-2.24 11.68 1.56 15.38.51.5 1.3-.29.79-.79-3.39-3.3-2.68-9.79-1.42-13.85 2-6.55 7.17-11.19 14.06-11.91.7-.07.71-1.19 0-1.11v-.04z"/>
        <path fill="#60D5F2" d="M44.55 65.4c-2.69-4.58-3.27-11.08-1.91-16.17 1.6-6 7.82-11 13.72-12.4.7-.16.4-1.23-.3-1.07-6.08 1.4-12.44 6.5-14.33 12.59A23.4 23.4 0 0 0 43.59 66a.573.573 0 0 0 1-.56l-.04-.04z"/>
        <path fill="#60D5F2" d="M71.69 32.7L55.18 61.47l9.37 5.12 12.7-22.13c2.09-3.65 1.46-7.92-1.41-9.49l-4.15-2.27z" opacity=".6"/>
        <path fill="#60D5F2" d="M68.23 38.73L55.4 61.09l8.1 5c-2.08-2.11-3.2-6.1-1.36-12.9 1.5-5.6 6.09-14.46 6.09-14.46z" opacity=".7"/>
        <path fill="#7A8D92" d="M80.63 32.58c-2.59 10-9.82 20.78-16.15 24a8.62 8.62 0 0 1-.88.39c-2 .85-5.74-.52-10.53-3.7-2.74-1.29-3.59-6-1.82-12.92 2.59-10 9.82-20.79 16.15-24 1.94-1 3.57-1.15 4.82-.62l.5.28c4.35 2.39 7.8 4.47 8.41 7 .67 2.3.52 5.58-.5 9.57z"/>
        <path fill="#9EB1B4" d="M53.71 53.06a4.32 4.32 0 0 0 2.83.05 9.54 9.54 0 0 0 2.57-1.24 21.6 21.6 0 0 0 4.3-3.81 45.68 45.68 0 0 0 6.47-9.54A45.69 45.69 0 0 0 74 27.76a22.38 22.38 0 0 0 .78-5.69c0-1.88-.27-4-1.71-5.33a5 5 0 0 1 1.63 2.41c.31.942.495 1.92.55 2.91a22.73 22.73 0 0 1-.53 5.87 44.29 44.29 0 0 1-10.78 20.63 21.87 21.87 0 0 1-4.59 3.7c-.86.5-1.79.868-2.76 1.09a4.2 4.2 0 0 1-2.88-.29z"/>
        <path fill="#526A73" d="M67.53 28.13c-2.64 1.35-5.8 6.1-6.91 10.39a9.72 9.72 0 0 0-.36 3.48 2.27 2.27 0 0 1-1.29.31.94.94 0 0 1-.65-.45c-.55-.83-.55-2.56 0-4.63 1.11-4.29 4.27-9.05 6.91-10.39a2.28 2.28 0 0 1 1.29-.32 1 1 0 0 1 .65.45c.207.354.33.75.36 1.16z"/>
        <path fill="#FFCF32" d="M34.54 111.75c-10.6-5.68-11.54-10-10.69-11.83l18.72-41.15A3.86 3.86 0 0 1 47.9 57l24.88 13.34a3.86 3.86 0 0 1 1.45 5.44l-23.92 38.34c-1.09 1.74-5.18 3.32-15.77-2.37z"/>
        <path fill="#FFF" d="M31.63 93l12-24.46A5.54 5.54 0 0 1 51.15 66a5.54 5.54 0 0 1 2.29 7.6L40.26 97.46a4.87 4.87 0 0 1-6.51 2A4.87 4.87 0 0 1 31.63 93z" opacity=".3"/>
        <path fill="#FFCF32" d="M25.82 128.51c6.55-8.91 18.65.86 20.55 2.26l29.85 24.1c1.88 1.08 4.33 3.62 4 7.12 0 0-.11 3.7-3.53 8.8-3.42 5.1-6.51 6.35-6.51 6.35a7.77 7.77 0 0 1-8.15-.88L25.1 152.83c-5.81-3.63-8.92-11.22.72-24.32z"/>
        <path fill="#FFF" d="M36.37 142.92L59 156.79a5.39 5.39 0 0 1 1.7 7.53 5.39 5.39 0 0 1-7.57 1.51l-21.87-15a4.74 4.74 0 0 1-1.3-6.49 4.74 4.74 0 0 1 6.41-1.42z" opacity=".3"/>
        <path fill="#F8AE2D" d="M76.89 168.35c-2.68 5-7.08 8.5-9.82 7.91-2.74-.59-2.79-5.08-.11-10s7.08-8.5 9.82-7.91c2.74.59 2.79 5.04.11 10z"/>
        <path fill="#526A73" d="M111.86 154.16c3.14-4 5.33-6.85 7.2-9.29 1.13-1.47 1.47-2.93.51-4-.96-1.07-2.56-.94-3.73.4-1.63 1.87-3.69 4.59-6.91 8.56M111.58 178.21c-.76.47-5.19 1.17-6.13.85a3 3 0 0 1-.61-.15c-2.36-.84-4-4.34-3.68-7.81a6.91 6.91 0 0 1 1.23-3.48c1.41-2.38 5.93-2.88 8-2.15 2.36.84 4.11 4.45 3.78 7.92a6.74 6.74 0 0 1-2.59 4.82z"/>
        <path fill="#526A73" d="M110.83 158.23a14.45 14.45 0 0 1-5.46.36 2.74 2.74 0 0 1-.53-.17c-2-.88-3.33-4-2.86-7a5.83 5.83 0 0 1 1.26-2.93c1.37-2 5.37-2 7.14-1.27 2 .88 3.25 4 2.79 7-.3 1.78-1.23 3.44-2.34 4.01z"/>
        <path fill="#526A73" d="M111.86 154.16l.75 17.94-.77.18c-.44-4.05-2.4-6.07-4.36-6.79l-.18-6.78a4.65 4.65 0 0 0 4-4.5l.56-.05zM75.71 174.45l-7.07-5c-.68-.49-.64-1.93.09-3.22.73-1.29 1.88-2 2.57-1.47l7.07 5c.68.49.64 1.93-.09 3.22-.73 1.29-1.89 1.96-2.57 1.47z"/>
        <path fill="#9EB1B4" d="M75 186.93l14.85 8.15a25 25 0 0 0 19.3 2l7.72-2.34a6.69 6.69 0 0 0 1.28-12.27l-14.85-8.15a25 25 0 0 0-19.3-2l-7.1-3.61c-5.69 1.72-7.11 15.37-1.9 18.22z"/>
        <path fill="#9EB1B4" d="M76.1 180.81L91 189a25 25 0 0 0 19.3 2l7.72-2.34a6.69 6.69 0 0 0 1.28-12.27l-14.85-8.15a25 25 0 0 0-19.3-2l-7.72 2.34a6.69 6.69 0 0 0-1.33 12.23z"/>
        <path fill="#D8DFE3" d="M89.59 188.46c1.3.5 2.58 1 3.88 1.49a31.38 31.38 0 0 0 3.94 1.2 34.25 34.25 0 0 0 4.06.71 26.46 26.46 0 0 0 4.13.17 15.84 15.84 0 0 1-4.17.28 25.8 25.8 0 0 1-4.15-.61 24.14 24.14 0 0 1-4-1.36 33.85 33.85 0 0 1-3.69-1.88z" opacity=".3"/>
        <path fill="#9EB1B4" d="M106.1 190.59a6.89 6.89 0 0 0 0 1l-.77-.5v-.34c.24-2.71 1.8-4.67 3.63-4.78-1.48.53-2.64 2.3-2.86 4.62z"/>
        <path fill="#526A73" d="M105.3 197.93l.61-3.34.3-1.67.2-1.11-.35-.22-.77-.5c-.66-.43-1.29-.85-1.89-1.27-1.15-.78-2.26-1.56-3.5-2.42-7.36-5.13 6.63-10.25 13-6.09l1.76 1.08-9.36 15.54z"/>
        <path fill="#C5CDD1" d="M115.55 197.78c-1 .74-7.11 2.35-8.4 2.08a3.76 3.76 0 0 1-.84-.11 5.29 5.29 0 0 1-2.66-1.64h.6a1.42 1.42 0 0 0 1.27-1.16l.93-5.08c-.89-.57-1.7-1.11-2.48-1.63l-.69-.47-1.83-1.25a9.23 9.23 0 0 1 1.44-3.38c1.92-3.39 8.08-4.51 10.88-3.85a5.61 5.61 0 0 1 2.83 1.75 10.18 10.18 0 0 1 2.48 6.43 11.29 11.29 0 0 1 0 1.57 10.1 10.1 0 0 1-3.53 6.74z"/>
        <path fill="#7A8D92" d="M111 192.2c-.21 2.31-1.38 4.08-2.84 4.6a3.07 3.07 0 0 1-.51.13 4.13 4.13 0 0 1-.54 0 2.89 2.89 0 0 1-.51-.08 3.05 3.05 0 0 1-1-.42l.12-.69.59-3.19a1.22 1.22 0 0 0-.53-1.23l-1.81-1.19-.69-.47c.42-2.38 1.87-4 3.54-4.13a3.1 3.1 0 0 1 .79.06 3.88 3.88 0 0 1 2.24 1.67 7.57 7.57 0 0 1 1.15 4.94z"/>
        <path fill="#60D5F2" d="M175.32 66.15l3.7 31.74a22.58 22.58 0 0 1-2.93 13.67L147 163.19a27.94 27.94 0 0 1-18.93 13.47l-9.7 1.85a25.7 25.7 0 0 1-7.89.3c-22.54-.28-33.27-7.29-34.67-19.35l-3.69-31.74A22.55 22.55 0 0 1 75 114l29.09-51.63A27.94 27.94 0 0 1 123.06 49l9.7-1.85a58.45 58.45 0 0 1 27.36 2.12c8.12 2.05 14.21 8.37 15.2 16.88z" opacity=".8"/>
        <path fill="#60D5F2" d="M170.51 71.55l3.34 28.65a20.39 20.39 0 0 1-2.64 12.34l-26.27 46.61a25.22 25.22 0 0 1-17.09 12.16l-8.76 1.69a23.2 23.2 0 0 1-7.13.27c-8.7-1-15.54-7.18-16.55-15.82l-3.33-28.65a20.39 20.39 0 0 1 2.64-12.34L121 69.83a25.24 25.24 0 0 1 17.09-12.16l8.75-1.67a22.59 22.59 0 0 1 10 .26c7.28 1.9 12.77 7.61 13.67 15.29z" opacity=".7"/>
        <path fill="url(#a)" d="M86.07 152.54l5.74-.28-1.55-11.61-4.68.09z" opacity=".4"/>
        <path fill="url(#b)" d="M126.04 168.43l2.86 4.26 3.33-15.48-.24-1.32-2.12 2.52-2.41.12z" opacity=".3"/>
        <path fill="#C5CDD1" d="M89.46 143.28a15.14 15.14 0 0 1-3.83 1.83 2.7 2.7 0 0 1-.42.07 3.44 3.44 0 0 1-3.57-2.82 3 3 0 0 1 .26-1.93c.54-1.45 3.39-2.69 4.82-2.82a3.4 3.4 0 0 1 3.52 2.83 3.24 3.24 0 0 1-.78 2.84z"/>
        <path fill="#526A73" d="M84.24 157.27c1.39-6.33 2.29-10.91 3.08-14.77.47-2.33 0-4.21-1.68-4.94-1.68-.73-3.49.35-4.08 2.56-.83 3.08-1.67 7.37-3.15 13.77"/>
        <path fill="#C5CDD1" d="M84.06 192.59c-1 .6-6.66 1.5-7.87 1.09a3.87 3.87 0 0 1-.78-.2c-3-1.08-5.15-5.57-4.72-10a8.86 8.86 0 0 1 1.58-4.47c1.81-3.06 7.62-3.69 10.24-2.76 3 1.08 5.28 5.72 4.85 10.17-.28 2.69-1.75 5.21-3.3 6.17z"/>
        <path fill="#7A8D92" d="M79.81 186.72c-.21 2.21-1.31 3.79-2.69 4.14a2.48 2.48 0 0 1-1.47-.08c-2-.72-3.43-3.71-3.13-6.67.24-2.59 1.71-4.3 3.42-4.21.252.017.501.068.74.15 2.03.72 3.43 3.7 3.13 6.67z"/>
        <path fill="#C5CDD1" d="M83.67 167c-.89.46-6 .89-7 .46a3.52 3.52 0 0 1-.68-.22c-2.63-1.12-4.27-5.14-3.67-9a7.48 7.48 0 0 1 1.61-3.76c1.75-2.53 6.89-2.61 9.16-1.64 2.63 1.12 4.18 5.12 3.58 8.94-.39 2.39-1.58 4.52-3 5.22z"/>
        <path fill="#7A8D92" d="M80.68 161.9c-.34 2.19-1.55 3.67-3 3.93a2.55 2.55 0 0 1-1.49-.18c-2-.86-3.27-3.93-2.81-6.86.39-2.56 2-4.16 3.71-3.95.259.034.511.104.75.21 2.05.85 3.31 3.95 2.84 6.85z"/>
        <path fill="#526A73" d="M84.42 161.71l1 23-1 .23c-.57-5.2-3.08-7.79-5.6-8.71l-.23-8.7a6 6 0 0 0 5.14-5.77l.69-.05z"/>
        <g opacity=".3">
            <path fill="#FFF" d="M138.13 152.15l-3.65-1.89 6.74-.34 3.65 1.89zM136.26 151.87l-3.65-1.87c.258.128.535.213.82.25a5.27 5.27 0 0 0 1 0l3.65 1.89a5.27 5.27 0 0 1-1 0 2.59 2.59 0 0 1-.82-.27zM117.19 153.21l-3.65-1.89a5.48 5.48 0 0 0 2-.44 5.31 5.31 0 0 0 1.7-1.24 9.39 9.39 0 0 0 1.51-2.24 26.89 26.89 0 0 0 1.41-3.53l3.65 1.89a26.89 26.89 0 0 1-1.41 3.53 9.39 9.39 0 0 1-1.51 2.24 5.31 5.31 0 0 1-1.7 1.24 5.48 5.48 0 0 1-2 .44zM108.36 159.5l-3.65-1.9 1.97-5.93 3.64 1.89z"/>
            <path fill="#FFF" d="M110.32 153.56l-3.64-1.89 6.86-.35 3.65 1.89zM149.01 78.77l-3.65-1.9 9.36-.48 3.65 1.9zM123.76 145.76l-3.65-1.89 18.5-55.85 3.65 1.89z"/>
            <path fill="#FFF" d="M141.21 84.83l-3.65-1.89 7.8-6.07 3.65 1.9zM126.25 101.79l-3.65-1.89a2.23 2.23 0 0 1-.34-.21 2.82 2.82 0 0 1-1-1.58 7.39 7.39 0 0 1-.18-2.56 14.08 14.08 0 0 1 .73-3.35l3.65 1.89a14.08 14.08 0 0 0-.73 3.35 7.39 7.39 0 0 0 .18 2.56 2.82 2.82 0 0 0 1 1.58c.107.08.22.15.34.21zM125.48 94.09l-3.65-1.89c.94-.33 1.94-.73 3-1.2a37 37 0 0 0 3.5-1.78c1.27-.73 2.66-1.6 4.18-2.62 1.52-1.02 3.19-2.24 5-3.66l3.65 1.89a110.794 110.794 0 0 1-5 3.66c-1.52 1-2.91 1.89-4.18 2.62a37 37 0 0 1-3.5 1.78 52 52 0 0 1-3 1.2z"/>
            <path fill="#60D5F2" d="M158.37 78.29l-22.14 66.85a25.27 25.27 0 0 0-.84 3.09 6 6 0 0 0-.1 2.25c.07.545.383 1.03.85 1.32.291.172.615.28.95.32a5.27 5.27 0 0 0 1 0l6.75-.34-2 5.94-34.56 1.75 2-5.93 6.87-.35a5.48 5.48 0 0 0 2-.44 5.31 5.31 0 0 0 1.7-1.24 9.39 9.39 0 0 0 1.51-2.24 26.89 26.89 0 0 0 1.41-3.53l18.5-55.84a283.482 283.482 0 0 1-4.57 4.89c-1.407 1.467-2.717 2.727-3.93 3.78a22.86 22.86 0 0 1-3.34 2.5 6.26 6.26 0 0 1-2.8 1 3.16 3.16 0 0 1-.61 0 2.31 2.31 0 0 1-1.1-.45 2.82 2.82 0 0 1-1-1.58 7.39 7.39 0 0 1-.18-2.56 14.08 14.08 0 0 1 .73-3.35c.94-.33 1.94-.73 3-1.2a37 37 0 0 0 3.5-1.78c1.27-.73 2.66-1.6 4.18-2.62 1.52-1.02 3.19-2.24 5-3.66l7.8-6.07 9.42-.51z" opacity=".7"/>
        </g>
        <path fill="#526A73" d="M134.72 184.11l-17.47 6.62-.84.2a10.38 10.38 0 0 0-2.32-6.56l12.86-5.15a6 6 0 0 0 7.22 3.29l.55 1.6z"/>
        <path fill="#C5CDD1" d="M138.34 185.87c-1 .65-6.73 1.88-8 1.54a3.85 3.85 0 0 1-.79-.15c-3.07-.89-5.21-5.21-4.79-9.65a9.12 9.12 0 0 1 1.59-4.51c1.83-3.13 7.69-4.1 10.34-3.33 3.07.89 5.35 5.35 4.92 9.78a9.09 9.09 0 0 1-3.27 6.32z"/>
        <path fill="#7A8D92" d="M134 180.31c-.21 2.19-1.32 3.82-2.71 4.25a2.57 2.57 0 0 1-1.49 0c-2-.6-3.47-3.47-3.19-6.41.25-2.57 1.72-4.36 3.45-4.37.254-.004.506.03.75.1 2.09.61 3.51 3.48 3.19 6.43z"/>
        <path fill="#526A73" d="M139.19 175.33c-.82-2.54-2.45-4.57-4.41-5.14a9.44 9.44 0 0 0-3.63-.15c-.27-6.47-.28-7.92-.3-11.08 0-2.26 1.87-4.58 3.83-4.29 1.96.29 3.24 2.36 3.5 4.68.39 3.53.76 9.88 1.01 15.98z"/>
    </g>
</svg>
