<?xml version="1.0" encoding="utf-8"?>
<!-- Generator: Adobe Illustrator 21.1.0, SVG Export Plug-In . SVG Version: 6.00 Build 0)  -->
<svg version="1.1" id="Layer_1" xmlns="http://www.w3.org/2000/svg" xmlns:xlink="http://www.w3.org/1999/xlink" x="0px" y="0px"
	 viewBox="0 0 400 280" style="enable-background:new 0 0 400 280;" xml:space="preserve">
<style type="text/css">
	.st0{fill:#90D8F0;}
	.st1{fill:#1E54A0;}
	.st2{fill:#2266AF;}
	.st3{fill:#308DD1;}
	.st4{fill:#67BCEF;}
	.st5{fill:#FFFFFF;}
	.st6{fill:#143D8A;}
	.st7{opacity:0.4;}
</style>
<title>ThePowerOfBlockchain</title>
<g>
	<path class="st0" d="M215.3,6.2L215.3,6.2c-0.4,0.1-0.8-0.1-0.9-0.5l-1.2-4.8c-0.1-0.4,0.1-0.8,0.5-0.9v0c0.4-0.1,0.8,0.1,0.9,0.5
		l1.2,4.8C215.9,5.8,215.7,6.1,215.3,6.2z"/>
	<path class="st0" d="M205.9,11.4L205.9,11.4c-0.3,0.3-0.7,0.3-1,0l-1.8-1.9c-0.3-0.3-0.3-0.7,0-1v0c0.3-0.3,0.7-0.3,1,0l1.8,1.9
		C206.2,10.7,206.2,11.2,205.9,11.4z"/>
	<path class="st0" d="M200.2,31.3L200.2,31.3c0.1,0.4-0.1,0.8-0.5,0.9l-2.5,0.6c-0.4,0.1-0.8-0.1-0.9-0.5l0,0
		c-0.1-0.4,0.1-0.8,0.5-0.9l2.5-0.6C199.7,30.7,200.1,30.9,200.2,31.3z"/>
	<path class="st0" d="M240.4,21.4L240.4,21.4c-0.1-0.4,0.1-0.8,0.5-0.9l2.5-0.6c0.4-0.1,0.8,0.1,0.9,0.5v0c0.1,0.4-0.1,0.8-0.5,0.9
		l-2.5,0.6C240.9,22,240.5,21.7,240.4,21.4z"/>
	<path class="st0" d="M226,6.4L226,6.4c-0.4-0.1-0.6-0.5-0.5-0.9l0.7-2.5c0.1-0.4,0.5-0.6,0.9-0.5v0c0.4,0.1,0.6,0.5,0.5,0.9
		l-0.7,2.5C226.8,6.3,226.4,6.6,226,6.4z"/>
	<path class="st0" d="M200.6,20.6L200.6,20.6c-0.1,0.4-0.5,0.6-0.9,0.5l-4.8-1.4c-0.4-0.1-0.6-0.5-0.5-0.9l0,0
		c0.1-0.4,0.5-0.6,0.9-0.5l4.8,1.4C200.5,19.8,200.7,20.2,200.6,20.6z"/>
	<path class="st0" d="M240.1,31.7L240.1,31.7c0.1-0.4,0.5-0.6,0.9-0.5l4.8,1.4c0.4,0.1,0.6,0.5,0.5,0.9v0c-0.1,0.4-0.5,0.6-0.9,0.5
		l-4.8-1.4C240.2,32.4,240,32.1,240.1,31.7z"/>
	<path class="st0" d="M235,11.8L235,11.8c-0.3-0.3-0.3-0.7,0-1l3.6-3.5c0.3-0.3,0.7-0.3,1,0v0c0.3,0.3,0.3,0.7,0,1l-3.6,3.5
		C235.8,12.1,235.3,12.1,235,11.8z"/>
	<path class="st1" d="M181,237.7l-0.3,20.6c0,1.9,1.3,3.7,3.4,4.7l26,12.2c2.3,1.1,5.1,1.1,7.2,0.2l24.3-10.9c2-0.9,3.1-2.6,2.8-4.5
		l-3.3-20.7c-0.3-1.7-1.7-3.2-3.9-4.1l-24-9.8c-2-0.8-4.4-0.9-6.3-0.2l-22.7,8.7C182.2,234.6,181,236.1,181,237.7z"/>
	<path class="st2" d="M293.8,245.9l1.3,6.5c0.6,2.9-1,5.8-3.7,6.9l-7.4,3c-1.6,0.7-3.4,0.6-5-0.2l-12.4-6.1c-1.7-0.8-3-2.4-3.3-4.3
		l-1.3-6.5c-0.6-2.9,1-5.8,3.7-6.9l7.4-3c1.6-0.7,3.4-0.6,5,0.2l12.4,6.1C292.2,242.4,293.5,244,293.8,245.9z"/>
	<path class="st1" d="M157.4,238.7l1-5c0.5-2.2-0.7-4.5-2.9-5.3l-5.6-2.3c-1.2-0.5-2.6-0.5-3.8,0.1l-9.5,4.6
		c-1.3,0.6-2.3,1.9-2.5,3.3l-1,5c-0.5,2.2,0.7,4.5,2.9,5.3l5.6,2.3c1.2,0.5,2.6,0.5,3.8-0.1l9.5-4.6
		C156.2,241.4,157.2,240.1,157.4,238.7z"/>
	<path class="st2" d="M74.6,251l-3.9,11.8c-0.9,2.7,0.3,5.6,2.9,6.8l9.9,4.8c1.5,0.7,3.3,0.7,4.8,0l18.4-8.5c1.4-0.7,2.5-1.9,3-3.3
		l3.9-11.8c0.9-2.7-0.3-5.6-2.9-6.8l-9.9-4.8c-1.5-0.7-3.3-0.7-4.8,0l-18.4,8.5C76.2,248.3,75.1,249.5,74.6,251z"/>
	<path class="st1" d="M339.2,257.8l2.5,6.5c0.5,1.4,0,3-1.4,3.7l-4.9,2.7c-0.8,0.4-1.8,0.5-2.6,0.1l-9.9-4.3
		c-0.7-0.3-1.3-0.9-1.6-1.7l-2.5-6.5c-0.5-1.4,0-3,1.4-3.7l4.9-2.7c0.8-0.4,1.8-0.5,2.6-0.1l9.9,4.3
		C338.4,256.5,338.9,257.1,339.2,257.8z"/>
	<g>
		<path class="st3" d="M61.5,91.1l-7.6,2.2l-2.1,0.3l-9.3,2.7l-9.9,2.9c9-20.2,6.1-9.4,37.3-50.8c6.1-8.2,12-12.4,20.2-12.4
			C95.5,36,61.5,91.1,61.5,91.1z"/>
		<path class="st0" d="M363.2,93.5L190.6,75.4L61.5,91.1l-7.6,2.2l-11.6,3.4c0.1-0.1,0.1-0.3,0.2-0.4c8.8-19.6,6.2-9.3,37.1-50.4
			c3.4-4.6,6.8-7.9,10.5-9.9c5.4,0,11.8,1.7,19.9,5.3c10.5,4.6,10.3-1.3,29.4,6.1c8.3,3.2,17,9.5,32.5,6.7c2.2-0.4,9.2-2,11.4-1.7
			c4.7,0.7,4.6,4.2,9.2,4.8c14.6,2,28.5,3.3,38.1,3.4c8.7,0.1,15-1.6,20.1-3.4c5.6-2,9.3-3.2,12.7-3.4c3-0.2,6.1,0.5,9.7,2.6
			c13.6,7.7,46,12.6,65.6,21.1C349.4,82.1,360.1,88.5,363.2,93.5z"/>
		<ellipse class="st3" cx="200" cy="101.2" rx="167.7" ry="33.2"/>
		
			<ellipse transform="matrix(0.9951 -9.851279e-02 9.851279e-02 0.9951 -9.5382 10.5344)" class="st1" cx="101.9" cy="101.9" rx="46.8" ry="11.2"/>
		<path class="st3" d="M155.4,182.8c0,0-8.4,6.5-30.2,7.5c-2.4,0.1-5.4,0-8.6-0.3c-9.9-0.9-21.7-3.2-21.7-3.2l-32.5-70.2L78,106.1
			l15.2-4.2l35.9,4l24,14.5l2.1,58L155.4,182.8z"/>
		<path class="st4" d="M155.4,182.8c0,0-8.4,6.5-30.2,7.5c-2.4,0.1-5.4,0-8.6-0.3c3.3-0.4,7.5-1,12.7-1.9c13.1-2.2,21.3-6.5,26-9.8
			L155.4,182.8z"/>
		
			<ellipse transform="matrix(9.851279e-02 -0.9951 0.9951 9.851279e-02 159.08 382.389)" class="st1" cx="290.6" cy="103.4" rx="11.2" ry="51.4"/>
		<path class="st4" d="M330.3,114.7l-36.5,75.2c0,0-3.6,0.2-8.7,0.3c-6.6,0.2-15.7,0.2-22.5-0.3c-12.7-1-24.8-6.5-24.8-6.5l0.2-5.5
			l1.8-59.5l24-14.5l35.9-4l15.2,4.2L330.3,114.7z"/>
		<path class="st2" d="M268.8,188.9c10.3,1,15.1,1.3,17.2,1.2l-1,0.1c-6.6,0.2-15.7,0.2-22.5-0.3c-12.7-1-24.8-6.5-24.8-6.5l0.2-5.5
			C243.5,181.5,254.9,187.5,268.8,188.9z"/>
		<path class="st0" d="M204.9,24.3l2.6,10c0.3,1.3,1.3,2.3,2.6,2.7l10,2.8c1.3,0.4,2.7,0,3.7-0.9l7.4-7.2c1-0.9,1.4-2.3,1-3.6
			l-2.6-10c-0.3-1.3-1.3-2.3-2.6-2.7l-10-2.8c-1.3-0.4-2.7,0-3.7,0.9l-7.4,7.2C205,21.6,204.6,23,204.9,24.3z"/>
		<path class="st0" d="M212.7,46.2L212.7,46.2c0.4,0.1,0.6,0.5,0.5,0.9l-0.7,2.5c-0.1,0.4-0.5,0.6-0.9,0.5l0,0
			c-0.4-0.1-0.6-0.5-0.5-0.9l0.7-2.5C212,46.3,212.4,46.1,212.7,46.2z"/>
		<path class="st0" d="M232.8,41.2L232.8,41.2c0.3-0.3,0.7-0.3,1,0l1.8,1.9c0.3,0.3,0.3,0.7,0,1l0,0c-0.3,0.3-0.7,0.3-1,0l-1.8-1.9
			C232.5,42,232.5,41.5,232.8,41.2z"/>
		<path class="st0" d="M203.9,40.5L203.9,40.5c0.3,0.3,0.3,0.7,0,1l-3.6,3.5c-0.3,0.3-0.7,0.3-1,0l0,0c-0.3-0.3-0.3-0.7,0-1l3.6-3.5
			C203.1,40.2,203.6,40.2,203.9,40.5z"/>
		<path class="st0" d="M223.6,46L223.6,46c0.4-0.1,0.8,0.1,0.9,0.5l1.2,4.8c0.1,0.4-0.1,0.8-0.5,0.9l0,0c-0.4,0.1-0.8-0.1-0.9-0.5
			l-1.2-4.8C223,46.5,223.2,46.1,223.6,46z"/>
		
			<ellipse transform="matrix(1.676185e-02 -0.9999 0.9999 1.676185e-02 103.7296 283.7625)" class="st1" cx="196.1" cy="89.1" rx="14.2" ry="65.2"/>
		<path class="st4" d="M76.8,188.2l-1.5,3.4l-4.6,10c0,0-2,8.6-0.9,17.5c1.4,11-19.5,8.7-19.5,8.7s-3.4-7.4,0-6.9
			c5.4,0.7,8.9-0.8,7.9-4.6c-0.1-0.4-0.3-0.9-0.5-1.4c-0.1-0.2-0.2-0.5-0.3-0.7c-0.2-0.4-0.4-0.8-0.6-1.2c-0.3-0.6-0.6-1.2-1-2
			c-2-4-4.8-9.9-10.2-20c-7-13.2-11.7-16.8-12.9-27.8c-0.8-7.5,8-19.9,13.7-27.1c2.7-3.4,4.7-5.6,4.7-5.6l18.3,40.9l4.2,9.3l1.3,2.9
			L76.8,188.2z"/>
		<path class="st2" d="M120.7,218.2l-5,1.9l-4.7,1.8l-0.7,0.3c-1.9,0.4-1.2-1.8-1.9-3.5l-0.4-1l-22.6-23.8l-2.5-2.7l3.4-11.9l11.9-8
			l2.7,2.4l8.1,7.2c1.3,1.4,10.3,26.5,13.1,34.3C122.6,216.4,121.9,217.8,120.7,218.2z"/>
		<path class="st3" d="M48.3,174.5l0.5-0.1c0.9-0.3,1.8,0.2,2.1,1.1L51,176c0.3,0.9-0.2,1.8-1.1,2.1l-0.5,0.1
			c-0.9,0.3-1.8-0.2-2.1-1.1l-0.1-0.5C46.9,175.7,47.4,174.7,48.3,174.5z"/>
		<path class="st5" d="M78,172.8c0,0-1.9,16.8-14,22c-10.8,4.6-7.1,1.3-3.4-1.7c8.6-6.8,8.6-22.4,8.6-22.4L78,172.8z"/>
		<g>
			<path class="st5" d="M61.6,211.6l-4.7,1.4c0,0-0.1,0-0.1,0c-0.3-0.6-0.6-1.2-1-2c0.1-0.1,0.3-0.2,0.5-0.3l4.7-1.4
				c0.6-0.2,1.2,0.2,1.4,0.8C62.5,210.8,62.2,211.4,61.6,211.6z"/>
		</g>
		<g>
			<path class="st5" d="M57.7,214.9c0.1-0.1,0.2-0.2,0.3-0.2l3.3-1c0.4-0.1,0.9,0.1,1,0.6c0.1,0.4-0.1,0.9-0.6,1l-3.3,1
				c-0.1,0-0.2,0-0.3,0L57.7,214.9z"/>
		</g>
		<path class="st2" d="M156.6,207.7c0.4-0.1,0.7-0.5,0.7-0.9c0.5-7.9,3.5-83-7.1-92.7c-11.4-10.4-35.5-20-63.7-11.6
			s-29.9,29.4-29.9,29.4c1.4-7,5.9-13.2,11.6-17.4c5.8-4.2,12.7-6.7,19.7-8c15.8-3,32.7-0.6,47,6.9c6.5,3.4,12.2,8.3,13.7,19.4
			c4.1,31.7,3.8,68,3.6,74.8c0,0.7,0.7,1.2,1.3,1L156.6,207.7z"/>
		<path class="st3" d="M50.3,160.4l25.6,32c2.7,2.9,6.4,3.4,9.2,1.7c0.6-0.4,1.2-0.9,1.8-1.6l0.3-0.3l9.8-11.8
			c7.2-8.7,7.6-21.1,0.9-30.2l-29.1-39.6c-8.9,5.8-15.6,12.9-20.6,21.8c-0.1,0.2-0.3,0.5-0.4,0.7c-1.1,2.2-1.9,4.4-2.4,6.7
			C43.9,146.9,45.6,154.5,50.3,160.4z"/>
		<path class="st4" d="M45.3,139.7c0.9,4.8,2.9,9.5,6.1,13.5l30.9,38.7c0.9,0.9,1.8,1.6,2.7,2.2c0.6-0.4,1.2-0.9,1.8-1.6l0.3-0.3
			l9.8-11.8c7.2-8.7,7.6-21.1,0.9-30.2l-29.1-39.6c-8.9,5.8-15.6,12.9-20.6,21.8c-0.1,0.2-0.3,0.5-0.4,0.7
			C46.6,135.2,45.8,137.4,45.3,139.7z"/>
		<path class="st4" d="M360.5,162.7c-1.2,11-5.9,14.6-12.9,27.8c-7,13.2-10.6,23-13.1,26.6c0,0.1-0.1,0.2-0.2,0.2
			c-0.4,0.5-0.9,0.9-1.7,1.4c-0.7,0.4-1.5,0.9-2.4,1.3c-0.5,0.2-1,0.4-1.5,0.7c-5.1,2.2-11.5,4-11.5,4s-6-8.6,3.9-13.7
			c5.2-2.8,1.3-9.9,1.3-9.9l-4.6-10l-1.5-3.4l2-4.6l1.3-2.9l4.2-9.3l18.3-40.9c0,0,2,2.2,4.7,5.6
			C352.5,142.9,361.3,155.3,360.5,162.7z"/>
		<path class="st3" d="M311,188.9l-3.8,4l-21.3,22.5l-0.4,1c-0.7,1.8,0,4-1.9,3.5l-0.1,0l-5-1.9l-5.3-2c-1.3-0.5-1.9-1.9-1.5-3.1
			c2.8-7.8,11.8-32.9,13.1-34.3l7.1-6.2l3.8-3.3l11.9,8L311,188.9z"/>
		<g>
			<path class="st5" d="M332.8,218.9c-0.1-0.1-0.2-0.2-0.3-0.3l-2.9-4c-0.4-0.5-0.3-1.2,0.2-1.6c0.5-0.4,1.2-0.3,1.6,0.2l2.9,3.9
				c0.1,0.1,0.1,0.2,0.1,0.3L332.8,218.9z"/>
		</g>
		<g>
			<path class="st5" d="M330.3,220.1c-0.5,0.2-1,0.4-1.5,0.7l-2-2.8c-0.3-0.4-0.2-0.9,0.2-1.1c0.4-0.3,0.9-0.2,1.1,0.2l2.1,2.8
				C330.2,219.9,330.3,220,330.3,220.1z"/>
		</g>
		<path class="st3" d="M344.9,174l-0.5-0.1c-0.9-0.3-1.8,0.2-2.1,1.1l-0.1,0.5c-0.3,0.9,0.2,1.8,1.1,2.1l0.5,0.1
			c0.9,0.3,1.8-0.2,2.1-1.1l0.1-0.5C346.3,175.2,345.8,174.2,344.9,174z"/>
		<path class="st5" d="M315.1,172.3c0,0,1.9,16.8,14,22c10.8,4.6,7.1,1.3,3.4-1.7c-8.6-6.8-8.6-22.4-8.6-22.4L315.1,172.3z"/>
		<path class="st3" d="M236.8,206.7c-0.4-0.1-0.7-0.5-0.7-0.9c-0.5-7.9-3.7-83.6,6.9-93.2c11.4-10.4,35.5-20,63.7-11.6
			s29.9,29.4,29.9,29.4c-1.4-7-5.9-13.2-11.6-17.4s-12.7-6.7-19.7-8c-15.8-3-32.7-0.6-47,6.9c-6.5,3.4-12.2,8.3-13.7,19.4
			c-4.1,31.7-3.6,68.6-3.4,75.4c0,0.7-0.7,1.2-1.3,1L236.8,206.7z"/>
		<path class="st3" d="M342.9,159.9l-25.6,32c-2.7,2.9-6.4,3.4-9.2,1.7c-0.6-0.4-1.2-0.9-1.8-1.6l-0.3-0.3l-9.8-11.8
			c-7.2-8.7-7.6-21.1-0.9-30.2l29.1-39.6c8.9,5.8,15.6,12.9,20.6,21.8c0.1,0.2,0.3,0.5,0.4,0.7c1.1,2.2,1.9,4.4,2.4,6.7
			C349.3,146.4,347.6,154,342.9,159.9z"/>
		<path class="st3" d="M347.8,139.2c-0.9,4.8-2.9,9.5-6.1,13.5l-30.9,38.7c-0.9,0.9-1.8,1.6-2.7,2.2c-0.6-0.4-1.2-0.9-1.8-1.6
			l-0.3-0.3l-15.7-9.7c-7.7-9.3-9.1-19.2,0.4-32.3l33.7-39.6c8.9,5.8,15.6,12.9,20.6,21.8c0.1,0.2,0.3,0.5,0.4,0.7
			C346.6,134.7,347.4,136.9,347.8,139.2z"/>
		<path class="st4" d="M347.8,139.2c-0.9,4.8-2.9,9.5-6.1,13.5l-30.9,38.7c-0.9,0.9-1.8,1.6-2.7,2.2c-0.6-0.4-1.2-0.9-1.8-1.6
			l-0.3-0.3l-9.8-11.8c-7.2-8.7-7.6-21.1-0.9-30.2l29.1-39.6c8.9,5.8,15.6,12.9,20.6,21.8c0.1,0.2,0.3,0.5,0.4,0.7
			C346.6,134.7,347.4,136.9,347.8,139.2z"/>
		<path class="st2" d="M195.6,187.5c0,10.2-1.9,17.1-3.8,17.3c0,0-0.1,0-0.1,0c-0.7,0.1-2.7,0.1-5.1,0.2c-1.6,0-3.3,0.1-5.1,0.1
			h-0.1c-1.6,0-3.1,0.1-4.5,0.1c-0.2,0-1.9,0.9-2.1,0.9c-2-0.2-2.1-0.7-1.8-2.3c0.8-3.7,1.8-11.5-0.1-16.4
			c-3.1-7.8-17.2-52.9-17.2-52.9h25.7C181.5,134.5,195.6,177.3,195.6,187.5z"/>
		<path class="st6" d="M226.1,163.1c-5.6,10.9-5.6,35.9-5.1,37.9c0.5,2.1,1.2,3.4-0.2,4.7c-0.5,0.5-1.7-0.8-2.9-0.6
			c-1.3,0.2-3,0.2-5,0.2h-0.1c-1.5,0-3.2,0-5-0.1c0,0-0.1,0-0.1,0c-0.2,0-0.3,0-0.5,0c-2,0-3.5-0.1-4.6-0.1
			c-2.9-0.1-3.2-0.2-3.2-0.2s1.9-7.5,1.9-10c0-14.1-10.3-55.8-10.3-55.8s38.9-8.4,40.5-2.2C233.1,143,231.7,152.2,226.1,163.1z"/>
		<path class="st2" d="M198.4,91.7L182,155c0,0-14.6,5.7-24.2,1.8c-1.6-0.7-3.2-1.6-4.4-3c-8.6-9-19.7-29.4-17.8-46.5
			c2-18.1,13-23.2,27.7-24.6c5.3-0.5,11.1-0.6,16.5-0.3C190.9,83.2,200,85.9,198.4,91.7z"/>
		<path class="st3" d="M232.9,153.8c-8.6,9-28.6,1.2-28.6,1.2l-11.2-43.2L182,155c0,0-14.6,5.7-24.2,1.8
			c-8.3-11.8-16.4-30.1-14.6-46c2.3-20.6,14.8-26.4,31.5-28c1.7-0.2,3.4-0.3,5.1-0.4c1,0.1,2,0.1,3,0.3c6.7,0.7,13.5,0.7,20.3,0
			c6.2-0.7,13.4-0.6,19.8,0c14.7,1.4,25.7,6.5,27.7,24.6C252.6,124.5,241.6,144.8,232.9,153.8z"/>
		<path class="st5" d="M171,126.6c0,0-4.5,11.3-4,21.3c0.4,8.9,5.9,19.4,12.4,22.6c6.3,3.2-3.8-4.7-5.6-16.6c-3.1-21,8.2-23,8.2-23
			L171,126.6z"/>
		<path class="st5" d="M218.5,126.2c0,0,4.7,11.7,4.3,21.7c-0.4,8.9-5.9,19.4-12.4,22.6c-6.3,3.2,3.8-4.7,5.6-16.6
			c3.1-21-8.2-23-8.2-23L218.5,126.2z"/>
		<path class="st3" d="M222,113.9c0,16.2-5.9,32.1-29.5,32.1s-29.5-15.9-29.5-32.1s13.2-26.6,29.5-26.6S222,97.7,222,113.9z"/>
		<path class="st5" d="M192.9,89.1c-10.8,0-23.5,4.9-26.8,16.2c-2.1,7.5,2.7,8.3,9.5,14.7c1.8,1.7,3.8,3.7,3.7,6.3
			c-0.1,3.3-1.5,6.5-1.5,9.8c-0.1,4.2,0.9,8.3,1.9,12.3c1.7,6.7,3.4,13.4,5,20.2c1.6,6.6,3.3,13.3,5.7,19.7c1.5,3.9,3.4,9,7.1,11.2
			c3.3,2,10,1.7,12.9-1c1-1,2.1-3,1.7-4.5c-0.5-1.6-2.4-2-3.9-2.4c-3-0.8-6.4-1.6-6.5-5.3c-0.1-2.8,0.8-5.7,1.3-8.4
			c1.8-8.4,4-16.7,6.1-25c2.1-8.3,2.6-15.5,0-20.4c-2.5-4.6-4.5-7.6-2-13c2.2-4.6,5.6-6.9,9.2-10c2.6-2.2,3.9-7.9-5.5-14.9
			C205.7,90.9,199.3,89.1,192.9,89.1z"/>
		<path class="st5" d="M213.1,120.4l-0.1,0c-0.9-0.3-1.8,0.2-2.1,1.1l0,0.1c-0.3,0.9,0.2,1.8,1.1,2.1l0.1,0c0.9,0.3,1.8-0.2,2.1-1.1
			l0-0.1C214.5,121.6,214,120.7,213.1,120.4z"/>
		<path class="st5" d="M173.1,123.2l-0.1,0c-0.9-0.3-1.8,0.2-2.1,1.1l0,0.1c-0.3,0.9,0.2,1.8,1.1,2.1l0.1,0c0.9,0.3,1.8-0.2,2.1-1.1
			l0-0.1C174.5,124.4,174,123.5,173.1,123.2z"/>
		<g class="st7">
			<path class="st5" d="M220.9,29.4l1.9-0.5l0.4,1.4l-5.8,1.5l-0.4-1.4l1.9-0.5l-2.1-8.2l-1.9,0.5l-0.4-1.4l3.7-1.5L220.9,29.4z"/>
		</g>
	</g>
	<path class="st6" d="M400,280c-27.4-22.4-58.9-40.4-92.9-52.5c-17-6-34.6-10.7-52.5-13.7c-17.9-3.1-36.1-4.7-54.4-4.7
		c-18.2-0.1-36.5,1.5-54.4,4.5c-17.9,3-35.5,7.6-52.6,13.5c-34.1,12-65.7,29.8-93.2,52.1c25.8-24,57.2-43.2,91.5-56
		c17.1-6.5,35-11.3,53.3-14.6c18.2-3.2,36.8-4.8,55.4-4.9c18.6,0.1,37.2,1.7,55.4,5.1c18.2,3.4,36.1,8.3,53.2,14.8
		C343,236.6,374.3,255.9,400,280z"/>
</g>
</svg>
