<svg xmlns="http://www.w3.org/2000/svg" width="400" height="295" viewBox="0 0 400 295">
    <g fill="none" fill-rule="evenodd" transform="translate(0 -1)">
        <path fill="#00A756" fill-rule="nonzero" d="M359.431 93.21L190.444 78.53 61.436 94.29l-7.57 2.24-2.145.26-9.257 2.73-9.915 2.92c8.967-20.25 6.114-9.44 37.276-50.91 6.135-8.17 11.97-12.39 20.19-12.44 5.357 0 11.74 1.7 19.88 5.27 10.464 4.59 10.285-1.34 29.417 6.1 8.309 3.23 16.957 9.56 32.429 6.76 2.154-.39 9.177-2 11.381-1.7 4.669.74 4.559 4.21 9.217 4.84 14.554 2 28.449 3.29 38.035 3.43a57.217 57.217 0 0 0 20.07-3.25c4.858-1.61 8.728-3.28 12.718-3.52a16.985 16.985 0 0 1 9.736 2.5c13.576 7.67 45.885 12.64 65.586 21.13 10.583 4.56 17.247 9.35 20.947 12.56z"/>
        <path fill="#00D182" fill-rule="nonzero" d="M362.913 96.67l-172.47-18.14L61.437 94.29l-7.57 2.24-11.602 3.42.19-.43C51.202 79.85 48.618 90.24 79.57 49c3.422-4.56 6.753-7.89 10.454-9.95 5.357 0 11.74 1.7 19.88 5.27 10.464 4.59 10.285-1.34 29.417 6.1 8.309 3.23 16.957 9.56 32.429 6.76 2.154-.39 9.177-2 11.381-1.7 4.668.74 4.559 4.21 9.217 4.84 14.554 2 28.449 3.29 38.035 3.43a54.252 54.252 0 0 0 20.07-3.45c5.566-2 9.257-3.2 12.718-3.42a17.045 17.045 0 0 1 9.736 2.6c13.576 7.67 45.885 12.64 65.586 21.13 10.573 4.6 21.297 11.09 24.419 16.06z"/>
        <ellipse cx="199.84" cy="104.36" fill="#FFF" fill-rule="nonzero" rx="167.581" ry="33.25"/>
        <ellipse cx="101.821" cy="105.035" fill="#D8ECEF" fill-rule="nonzero" rx="46.723" ry="11.2" transform="rotate(-5.65 101.821 105.035)"/>
        <path fill="#CAF4F9" fill-rule="nonzero" d="M155.222 186.15s-8.38 6.49-30.155 7.54c-2.877.08-5.756-.03-8.618-.33-9.975-.9-21.646-3.17-21.646-3.17l-32.459-70.3 15.611-10.61L93.117 105l35.91 4 23.94 14.5 2.095 58.11.16 4.54z"/>
        <path fill="#89E7F5" fill-rule="nonzero" d="M155.222 186.15s-8.38 6.49-30.155 7.54c-2.877.08-5.756-.03-8.618-.33 3.302-.39 7.461-1 12.658-1.88 13.088-2.24 21.267-6.5 25.935-9.84l.18 4.51z"/>
        <ellipse cx="290.339" cy="106.568" fill="#D8ECEF" fill-rule="nonzero" rx="11.172" ry="51.48" transform="rotate(-84.35 290.339 106.568)"/>
        <path fill="#CAF4F9" fill-rule="nonzero" d="M329.985 117.93l-36.509 75.34s-3.63.18-8.728.31c-6.613.16-15.71.23-22.524-.31-12.678-1-24.808-6.56-24.808-6.56l.16-5.5 1.825-59.64 23.94-14.5 35.91-4 15.173 4.25 15.561 10.61z"/>
        <path fill="#89E7F5" fill-rule="nonzero" d="M268.539 192.19c10.324 1 15.052 1.26 17.197 1.25l-.998.14c-6.613.16-15.71.23-22.524-.31-12.678-1-24.808-6.56-24.808-6.56l.16-5.5c5.766 3.63 17.087 9.61 30.973 10.98z"/>
        <path fill="#FFCF32" fill-rule="nonzero" d="M204.768 25.3l2.554 10a3.786 3.786 0 0 0 2.633 2.7l9.975 2.8c1.3.364 2.696.006 3.661-.94l7.392-7.23a3.796 3.796 0 0 0 .997-3.65L229.426 19a3.786 3.786 0 0 0-2.643-2.71l-9.975-2.8a3.774 3.774 0 0 0-3.66.94l-7.392 7.23a3.796 3.796 0 0 0-.988 3.64z"/>
        <rect width="1.436" height="6.43" x="211.802" y=".936" fill="#FFCF32" fill-rule="nonzero" rx=".718" transform="rotate(-14.29 212.52 4.15)"/>
        <rect width="1.436" height="4.03" x="201.821" y="8.996" fill="#FFCF32" fill-rule="nonzero" rx=".718" transform="rotate(-44.29 202.539 11.01)"/>
        <rect width="1.436" height="4.03" x="195.566" y="30.855" fill="#FFCF32" fill-rule="nonzero" rx=".718" transform="rotate(-104.29 196.284 32.87)"/>
        <rect width="1.436" height="4.03" x="211.305" y="47.22" fill="#FFCF32" fill-rule="nonzero" rx=".718" transform="rotate(-164.29 212.023 49.235)"/>
        <rect width="1.436" height="4.03" x="233.31" y="41.73" fill="#FFCF32" fill-rule="nonzero" rx=".718" transform="rotate(135.71 234.028 43.745)"/>
        <rect width="1.436" height="4.03" x="239.566" y="19.878" fill="#FFCF32" fill-rule="nonzero" rx=".718" transform="rotate(75.71 240.285 21.893)"/>
        <rect width="1.436" height="4.03" x="223.838" y="3.517" fill="#FFCF32" fill-rule="nonzero" rx=".718" transform="rotate(15.71 224.557 5.532)"/>
        <rect width="1.436" height="6.43" x="194.842" y="17.532" fill="#FFCF32" fill-rule="nonzero" rx=".718" transform="rotate(-74.29 195.56 20.747)"/>
        <rect width="1.436" height="6.43" x="200.698" y="40.542" fill="#FFCF32" fill-rule="nonzero" rx=".718" transform="rotate(-134.29 201.416 43.757)"/>
        <rect width="1.436" height="6.43" x="223.514" y="46.957" fill="#FFCF32" fill-rule="nonzero" rx=".718" transform="rotate(165.71 224.232 50.172)"/>
        <rect width="1.436" height="6.43" x="240.46" y="30.377" fill="#FFCF32" fill-rule="nonzero" rx=".718" transform="rotate(105.71 241.178 33.592)"/>
        <rect width="1.436" height="6.43" x="234.614" y="7.366" fill="#FFCF32" fill-rule="nonzero" rx=".718" transform="rotate(45.71 235.333 10.581)"/>
        <ellipse cx="195.979" cy="92.297" fill="#D8ECEF" fill-rule="nonzero" rx="14.175" ry="65.28" transform="rotate(-89.04 195.979 92.297)"/>
        <path fill="#89E7F5" fill-rule="nonzero" d="M76.728 191.57l-1.536 3.36-4.579 10a55.546 55.546 0 0 0-.857 17.51c1.446 11.06-19.532 8.75-19.532 8.75s-3.401-7.39 0-6.92c5.407.75 8.878-.83 7.92-4.65a7.282 7.282 0 0 0-.508-1.4c-.1-.23-.22-.46-.35-.7-.129-.24-.408-.76-.618-1.17-.309-.6-.638-1.24-.997-2-1.995-4-4.798-10-10.165-20.08-6.982-13.22-11.7-16.8-12.888-27.8-.798-7.48 7.98-19.92 13.666-27.1 2.674-3.38 4.669-5.6 4.669-5.6l18.264 40.92 4.18 9.36 1.286 2.95 2.045 4.57z"/>
        <path fill="#00B8F3" fill-rule="nonzero" d="M120.559 221.61l-5.038 1.89-4.718 1.77-.688.26c-1.866.4-1.227-1.76-1.896-3.55l-.359-1-22.533-23.82-2.534-2.66 3.362-11.9 11.88-8 2.713 2.4 8.14 7.17c1.287 1.37 10.334 26.54 13.107 34.32a2.452 2.452 0 0 1-1.436 3.12z"/>
        <rect width="3.88" height="3.89" x="47.067" y="177.618" fill="#00B8F3" fill-rule="nonzero" rx="1.69" transform="rotate(163.36 49.007 179.563)"/>
        <path fill="#FFF" fill-rule="nonzero" d="M77.955 176s-1.875 16.85-13.965 22.05c-10.753 4.63-7.102 1.26-3.411-1.67 8.638-6.85 8.638-22.4 8.638-22.4l8.738 2.02zM61.506 215l-4.718 1.36h-.12c-.309-.6-.638-1.24-.997-2 .131-.135.297-.231.479-.28l4.698-1.32a1.15 1.15 0 0 1 .638 2.21l.02.03zM57.636 218.23a.698.698 0 0 1 .33-.2l3.34-1a.82.82 0 0 1 .439 1.57l-3.331 1a.826.826 0 0 1-.27 0l-.508-1.37z"/>
        <path fill="#00B8F3" fill-rule="nonzero" d="M156.419 210a1 1 0 0 0 .748-.94c.499-7.92 3.501-83.15-7.092-92.83-11.412-10.43-35.442-20-63.631-11.59-28.19 8.41-29.925 29.43-29.925 29.43 1.356-7 5.865-13.21 11.62-17.46 5.756-4.25 12.669-6.69 19.681-8a72.836 72.836 0 0 1 46.973 6.9c6.534 3.41 12.21 8.31 13.656 19.46 4.12 31.76 3.81 68.12 3.62 74.93-.02.336.13.66.4.862.27.201.622.253.937.138l3.013-.9z"/>
        <path fill="#00B8F3" fill-rule="nonzero" d="M50.274 163.63l25.536 32.08c2.744 2.94 6.385 3.45 9.178 1.69a7.567 7.567 0 0 0 1.795-1.58l.28-.33 9.805-11.85c7.178-8.676 7.544-21.136.888-30.22l-29.088-39.69a61.776 61.776 0 0 0-20.598 21.81 25.191 25.191 0 0 0 2.204 28.09z"/>
        <path fill="#89E7F5" fill-rule="nonzero" d="M45.297 143a30.215 30.215 0 0 0 6.114 13.49l30.853 38.76c.791.86 1.71 1.591 2.724 2.17a7.567 7.567 0 0 0 1.795-1.6l.28-.33 9.805-11.85c7.178-8.676 7.544-21.136.888-30.22l-29.088-39.69a61.776 61.776 0 0 0-20.598 21.81 25.261 25.261 0 0 0-2.773 7.46zM360.22 166c-1.188 11-5.896 14.58-12.888 27.8-6.993 13.22-10.624 23.05-13.068 26.65a1.33 1.33 0 0 1-.19.24 7.126 7.126 0 0 1-1.655 1.39c-.767.495-1.563.942-2.384 1.34-.469.23-.998.45-1.466.67a98.079 98.079 0 0 1-11.502 4s-5.985-8.57 3.85-13.76c5.238-2.76 1.307-9.9 1.307-9.9l-4.578-10-1.536-3.36 1.995-4.58 1.287-2.89 4.18-9.35 18.263-40.93s1.995 2.22 4.669 5.6c5.745 7.18 14.513 19.62 13.715 27.08z"/>
        <path fill="#00B8F3" fill-rule="nonzero" d="M310.733 192.2l-3.79 4-21.257 22.5-.37 1c-.658 1.79 0 4-1.895 3.55h-.1l-4.987-1.88-5.336-2a2.462 2.462 0 0 1-1.457-3.13c2.783-7.78 11.82-33 13.117-34.32l7.103-6.25 3.75-3.31 11.88 8 3.342 11.84z"/>
        <path fill="#FFF" fill-rule="nonzero" d="M332.539 222.24a.998.998 0 0 1-.34-.3l-2.932-4a1.153 1.153 0 0 1 .792-1.829c.408-.046.81.129 1.053.459l2.933 3.95a.89.89 0 0 1 .15.29l-1.656 1.43zM330.035 223.44c-.469.23-.998.45-1.466.67l-1.995-2.76a.822.822 0 0 1 .54-1.313c.29-.039.578.08.756.313l2.075 2.79c.046.095.076.196.09.3z"/>
        <rect width="3.88" height="3.89" x="341.871" y="177.136" fill="#00B8F3" fill-rule="nonzero" rx="1.69" transform="rotate(16.64 343.81 179.081)"/>
        <path fill="#FFF" fill-rule="nonzero" d="M314.883 175.55s1.875 16.85 13.965 22.05c10.753 4.63 7.102 1.26 3.411-1.67-8.638-6.85-8.638-22.4-8.638-22.4l-8.738 2.02z"/>
        <path fill="#00B8F3" fill-rule="nonzero" d="M236.638 210a1 1 0 0 1-.748-.94c-.498-7.92-3.72-83.71 6.873-93.4 11.412-10.43 35.441-20 63.631-11.59 28.19 8.41 29.925 29.43 29.925 29.43-1.356-7-5.865-13.21-11.62-17.46-5.756-4.25-12.67-6.69-19.682-8a72.836 72.836 0 0 0-46.972 6.9c-6.534 3.41-12.21 8.31-13.656 19.46-4.12 31.76-3.591 68.69-3.401 75.5.02.336-.13.66-.4.862a.995.995 0 0 1-.937.138l-3.013-.9z"/>
        <path fill="#00B8F3" fill-rule="nonzero" d="M342.574 163.13l-25.547 32.08c-2.743 2.94-6.384 3.45-9.177 1.69a7.567 7.567 0 0 1-1.765-1.58l-.28-.33L296 183.14c-7.184-8.671-7.559-21.131-.908-30.22l29.098-39.69A61.775 61.775 0 0 1 344.778 135a25.191 25.191 0 0 1-2.204 28.09v.04z"/>
        <path fill="#89E7F5" fill-rule="nonzero" d="M347.541 142.48a30.215 30.215 0 0 1-6.115 13.52l-30.852 38.76c-.791.86-1.71 1.591-2.724 2.17a7.567 7.567 0 0 1-1.765-1.58l-.28-.33L296 183.17c-7.184-8.671-7.559-21.131-.908-30.22l29.098-39.72A61.775 61.775 0 0 1 344.778 135a25.262 25.262 0 0 1 2.763 7.48z"/>
        <path fill="#00B8F3" fill-rule="nonzero" d="M195.431 190.84c0 10.25-1.905 17.14-3.83 17.33h-.14c-.718.06-2.683.12-5.087.19l-5.077.13h-.06l-4.459.1c-.2 0-1.945.89-2.145.87-1.995-.22-2.134-.7-1.745-2.34.848-3.67 1.845-11.49-.12-16.43-3.112-7.83-17.167-53-17.167-53h25.726s14.104 42.9 14.104 53.15zM225.915 166.39c-5.546 10.9-5.616 35.91-5.127 38 .489 2.09 1.187 3.39-.24 4.74-.498.47-1.645-.76-2.922-.59a42.14 42.14 0 0 1-4.988.21h-.17c-1.475 0-3.151 0-4.987-.06a.219.219 0 0 0-.09 0h-.458c-1.995 0-3.482-.07-4.589-.11a15.374 15.374 0 0 1-3.172-.25s1.895-7.49 1.905-10c0-14.12-10.274-55.92-10.274-55.92s38.903-8.39 40.489-2.24c1.586 6.15.19 15.32-5.377 26.22z"/>
        <path fill="#00B8F3" fill-rule="nonzero" d="M198.214 94.84l-16.369 63.45s-14.563 5.74-24.18 1.78a12.487 12.487 0 0 1-4.418-3c-8.599-9.06-19.641-29.44-17.746-46.59 1.995-18.11 12.968-23.22 27.711-24.62 5.484-.525 11-.626 16.499-.3 11.052.74 20.14 3.44 18.503 9.28z"/>
        <path fill="#60D5F2" fill-rule="nonzero" d="M232.748 157.11c-8.608 9.06-28.598 1.19-28.598 1.19l-11.152-43.24-11.153 43.24s-14.563 5.73-24.19 1.78c-8.338-11.82-16.368-30.19-14.603-46.1 2.285-20.61 14.813-26.42 31.522-28 1.675-.16 3.381-.29 5.137-.37.997.07 2.045.15 2.992.25a96.707 96.707 0 0 0 20.24 0 102.677 102.677 0 0 1 19.8 0c14.683 1.4 25.706 6.51 27.7 24.62 1.926 17.19-9.046 37.52-17.695 46.63z"/>
        <path fill="#FFF" fill-rule="nonzero" d="M170.903 129.82s-4.45 11.32-3.99 21.32c.379 8.9 5.935 19.4 12.359 22.67 6.264 3.19-3.79-4.69-5.556-16.68-3.103-21 8.2-23.07 8.2-23.07l-11.013-4.24zM218.334 129.43s4.668 11.71 4.25 21.71c-.38 8.9-5.936 19.4-12.36 22.67-6.264 3.19 3.791-4.69 5.557-16.68 3.102-21-8.2-23.07-8.2-23.07l10.753-4.63z"/>
        <path fill="#60D5F2" fill-rule="nonzero" d="M221.865 117.13c0 16.24-5.875 32.17-29.426 32.17s-29.427-15.92-29.427-32.17 13.178-26.66 29.427-26.66c16.25 0 29.426 10.41 29.426 26.66z"/>
        <path fill="#FFF" fill-rule="nonzero" d="M192.698 92.29c-10.793 0-23.53 4.87-26.783 16.22-2.144 7.49 2.664 8.27 9.496 14.76 1.746 1.66 3.751 3.72 3.651 6.31-.14 3.27-1.456 6.46-1.506 9.83a47.489 47.489 0 0 0 1.935 12.36c1.716 6.73 3.362 13.47 4.988 20.21a166.908 166.908 0 0 0 5.745 19.77c1.477 3.87 3.402 9 7.143 11.23 3.261 2 10.025 1.73 12.847-1 .998-1 2.075-3 1.656-4.48-.469-1.65-2.414-2-3.85-2.35-3.042-.78-6.384-1.57-6.454-5.32-.05-2.79.748-5.72 1.327-8.43 1.785-8.41 4.04-16.72 6.105-25.06 2.064-8.34 2.613-15.55 0-20.39-2.494-4.62-4.54-7.62-1.996-13 2.175-4.56 5.577-7 9.207-10 2.594-2.17 3.91-7.87-5.546-14.94a30.083 30.083 0 0 0-17.965-5.72z"/>
        <rect width="3.491" height="3.5" x="210.607" y="123.548" fill="#FFF" fill-rule="nonzero" rx="1.69" transform="rotate(16.64 212.353 125.298)"/>
        <rect width="3.491" height="3.5" x="170.613" y="126.322" fill="#FFF" fill-rule="nonzero" rx="1.69" transform="rotate(16.64 172.358 128.072)"/>
        <path fill="#00D182" fill-rule="nonzero" d="M399.67 291a305.007 305.007 0 0 0-92.867-57.75 293.422 293.422 0 0 0-52.489-15.1A287.662 287.662 0 0 0 200 213a294.919 294.919 0 0 0-106.883 19.8A305.188 305.188 0 0 0 0 290.19a274.855 274.855 0 0 1 91.382-61.69 280.286 280.286 0 0 1 53.256-16.11A290.818 290.818 0 0 1 200.01 207a287.009 287.009 0 0 1 55.352 5.62A280.242 280.242 0 0 1 308.549 229a275.032 275.032 0 0 1 91.122 62z"/>
        <path fill="#00B8F3" fill-rule="nonzero" d="M170.224 257.08l-2.274 20.62a4.74 4.74 0 0 0 2.993 4.68l24.768 12.17a8.788 8.788 0 0 0 7.182.18l25.336-10.93a4.74 4.74 0 0 0 3.202-4.52l-1.256-20.7c-.1-1.67-1.427-3.23-3.462-4.1l-23.062-9.86a8.738 8.738 0 0 0-6.254-.15l-23.522 8.7c-2.065.76-3.461 2.25-3.65 3.91z"/>
        <path fill="#89E7F5" fill-rule="nonzero" d="M281.796 249.34l1.326 6.55a6.183 6.183 0 0 1-3.73 7l-7.362 3a6.15 6.15 0 0 1-4.988-.18l-12.409-6.08a6.178 6.178 0 0 1-3.331-4.32l-1.327-6.55a6.183 6.183 0 0 1 3.73-7l7.362-3a6.15 6.15 0 0 1 4.988.18l12.409 6.06a6.178 6.178 0 0 1 3.332 4.34zM152.509 242.1l.997-5a4.722 4.722 0 0 0-2.853-5.31l-5.626-2.28a4.698 4.698 0 0 0-3.83.14l-9.476 4.64a4.718 4.718 0 0 0-2.544 3.3l-.997 5a4.722 4.722 0 0 0 2.852 5.31l5.626 2.28c1.24.5 2.632.45 3.83-.14l9.477-4.64a4.718 4.718 0 0 0 2.544-3.3z"/>
        <path fill="#60D5F2" fill-rule="nonzero" d="M72.738 265.29l-3.91 11.79a5.645 5.645 0 0 0 2.893 6.85l9.975 4.82a5.613 5.613 0 0 0 4.808 0l18.364-8.52a5.635 5.635 0 0 0 2.992-3.34l3.89-11.79a5.645 5.645 0 0 0-2.892-6.85l-9.975-4.82a5.613 5.613 0 0 0-4.808 0l-18.364 8.52a5.635 5.635 0 0 0-2.973 3.34zM337.157 273l2.484 6.47a3.003 3.003 0 0 1-1.357 3.71l-4.907 2.68a2.986 2.986 0 0 1-2.634.11l-9.875-4.35a2.997 2.997 0 0 1-1.586-1.67l-2.484-6.47a3.003 3.003 0 0 1 1.357-3.71l4.907-2.68a2.986 2.986 0 0 1 2.634-.11l9.875 4.35c.73.323 1.3.924 1.586 1.67z"/>
        <text fill="#FFF" font-family="AudimatMono, Audimat Mono" font-size="18.86" opacity=".4" transform="rotate(-14.3 218.75 26.775)">
            <tspan x="213.762" y="32.275">1</tspan>
        </text>
    </g>
</svg>
