<?xml version="1.0" encoding="utf-8"?>
<!-- Generator: Adobe Illustrator 21.1.0, SVG Export Plug-In . SVG Version: 6.00 Build 0)  -->
<svg version="1.1" id="Layer_1" xmlns="http://www.w3.org/2000/svg" xmlns:xlink="http://www.w3.org/1999/xlink" x="0px" y="0px"
	 viewBox="0 0 160 160" style="enable-background:new 0 0 160 160;" xml:space="preserve">
<style type="text/css">
	.st0{fill:#67BCEF;}
	.st1{fill:#3AA3E3;}
	.st2{fill:#143D8A;}
	.st3{fill:#2266AF;}
	.st4{fill:#1E54A0;}
	.st5{fill:#2978BE;}
	.st6{fill:#308DD1;}
	.st7{fill:url(#SVGID_1_);}
	.st8{fill:url(#SVGID_2_);}
	.st9{fill:#143C8A;}
	.st10{fill:#FFFFFF;}
	.st11{fill:none;stroke:#FFFFFF;stroke-width:0.578;stroke-miterlimit:10;}
</style>
<title>Asset 1</title>
<g>
	<path class="st0" d="M53.2,63.3c-2.4,4.1-3.5,9.8-7.4,23.6c0,0,0,0,0,0l-3,2L30,97.6l-5-5c0.3-11.2,5.6-25.7,22.5-28.7
		C49.2,63.5,51.1,63.4,53.2,63.3C53.1,63.3,53.2,63.3,53.2,63.3z"/>
	<path class="st0" d="M61.2,117.1c-8.7,7.9-19.6,11.8-29.7,11.4c-0.4-10.1,3.4-21,11.4-29.7l4.2-4.2L65.3,113L61.2,117.1z"/>
	<path class="st1" d="M96.7,106.8C96.7,106.8,96.7,106.9,96.7,106.8c0,2.1-0.2,4-0.6,5.7c-3,16.9-17.5,22.1-28.7,22.5l-5-5l8.7-12.8
		l2-3c0,0,0,0,0,0C86.9,110.4,92.6,109.2,96.7,106.8z"/>
	<path class="st2" d="M133.2,56.7c-4.5,18.9-15.9,36.6-31.6,52.4c-1.4,1.4-2.8,2.5-4.3,3.5c-0.7,0.5-1.5,0.9-2.4,1.3
		c-4.5,2.1-11.1,3.8-24.1,7.9c0,0,0,0,0,0l-2.1-2.1l-3.1-3.1l-7.6-7.6l0,0l-3.4-3.4l64.3-72.1L133.2,56.7z"/>
	<path class="st3" d="M65.4,116.6l-1,1c-0.8,0.8-2,0.8-2.8,0L52,108l2.4-2.4L65.4,116.6z"/>
	<path class="st4" d="M118.2,31.9v9.9L69.5,90.5l0,0l-15.1,15.1l-11-11l-3.1-3.1l-2.1-2.1c0,0,0,0,0,0c4.1-12.9,5.8-19.6,7.9-24.1
		c0.4-0.9,0.8-1.7,1.3-2.4c1-1.6,2.1-2.9,3.5-4.3c15.8-15.8,33.5-27.2,52.4-31.6L118.2,31.9z"/>
	<path class="st0" d="M134.3,25.7l-4.5,11.6l-11.6,4.5l-15-15C113.4,24.4,124.6,24.8,134.3,25.7z"/>
	<path class="st5" d="M54.4,105.6L52,108l-3.2-3.2l-6-6l-0.5-0.5c-0.8-0.8-0.8-2,0-2.8l1-1L54.4,105.6z"/>
	<path class="st6" d="M72.8,96.3l-12.5,10.1l0,0l-2.3,1.9l-10.3,8.4l-2.2-2.2l9.4-9.4l2.1-2.1l14-14l0,0l1.7,1.7
		C74.3,92.4,74.4,95,72.8,96.3z"/>
	<path class="st1" d="M71,89l-14,14l-2.1,2.1l-9.4,9.4l-2.2-2.2l8.4-10.3l1.9-2.3l10.1-12.5c1.3-1.6,3.9-1.5,5.6,0.2L71,89L71,89z"
		/>
	<g>
		<g>
			<path class="st1" d="M95.1,64.9L77.7,82.3c-4.5-4.5-7.2-10.6-7.2-17.4s2.8-12.9,7.2-17.4L95.1,64.9z"/>
			<path class="st0" d="M112.5,47.5L95.1,64.9L77.7,47.5c4.5-4.5,10.6-7.2,17.4-7.2C101.9,40.3,108,43.1,112.5,47.5z"/>
			<path class="st1" d="M119.7,64.9c0,6.8-2.8,12.9-7.2,17.4L95.1,64.9l17.4-17.4h0C116.9,52,119.7,58.1,119.7,64.9z"/>
			
				<linearGradient id="SVGID_1_" gradientUnits="userSpaceOnUse" x1="-459.4251" y1="84.2031" x2="-448.317" y2="95.3112" gradientTransform="matrix(1 0 0 1 537.3516 -33.3617)">
				<stop  offset="0" style="stop-color:#1877D0"/>
				<stop  offset="1" style="stop-color:#1877D0;stop-opacity:0"/>
			</linearGradient>
			<polygon class="st7" points="92.7,59.5 86.3,65.3 77.6,56.6 85.4,52.3 			"/>
			<path class="st0" d="M112.5,82.3c-4.5,4.5-10.6,7.2-17.4,7.2c-6.8,0-12.9-2.8-17.4-7.2l17.4-17.4L112.5,82.3z"/>
			
				<linearGradient id="SVGID_2_" gradientUnits="userSpaceOnUse" x1="-430.8373" y1="85.8208" x2="-423.9822" y2="92.6759" gradientTransform="matrix(1 0 0 1 537.3516 -33.3617)">
				<stop  offset="0" style="stop-color:#1877D0"/>
				<stop  offset="1" style="stop-color:#1877D0;stop-opacity:0"/>
			</linearGradient>
			<polygon class="st8" points="115.7,57 113.6,64.2 105,55.5 113.4,54.7 			"/>
			<path class="st9" d="M106.4,56.5l3.5,1c1.4,0.4,2.9-0.4,3.3-1.8l0.3-1l-8.6-2.5l-0.3,1C104.1,54.6,105,56.1,106.4,56.5z"/>
			<circle class="st10" cx="109" cy="63.3" r="4.3"/>
			<circle class="st10" cx="81.5" cy="63.3" r="4.3"/>
			<path class="st9" d="M83.9,56.5l-3.5,1c-1.4,0.4-2.9-0.4-3.3-1.8l-0.3-1l8.6-2.5l0.3,1C86.1,54.6,85.3,56.1,83.9,56.5z"/>
			<g>
				<circle class="st4" cx="109.7" cy="62.6" r="2.3"/>
				<g>
					<circle class="st4" cx="109.7" cy="62.6" r="1.3"/>
					<path class="st11" d="M111,62.6c0-0.7-0.6-1.3-1.3-1.3"/>
				</g>
			</g>
			<g>
				<circle class="st4" cx="82.2" cy="62.6" r="2.3"/>
				<g>
					<circle class="st4" cx="82.2" cy="62.6" r="1.3"/>
					<path class="st11" d="M83.4,62.6c0-0.7-0.6-1.3-1.3-1.3"/>
				</g>
			</g>
			<path class="st3" d="M113.3,48.4c-4.4-4-10.2-6.4-16.5-6.4c-13.6,0-24.6,11-24.6,24.6c0,6.4,2.4,12.1,6.4,16.5
				c-6-2.2-10.1-11.9-9.9-19.2c0.3-14.7,13.1-25.2,26.7-25.2C102.6,38.8,115.1,46.2,113.3,48.4z"/>
			<path class="st9" d="M95.1,79.6L95.1,79.6c-4.3,0-7.8-3.5-7.8-7.8h15.6C102.9,76.1,99.4,79.6,95.1,79.6z"/>
			<rect x="87.3" y="69.8" class="st4" width="15.6" height="2"/>
		</g>
		<path class="st2" d="M123.8,64.9c0-15.9-12.9-28.8-28.7-28.7c-15.9,0-28.8,12.9-28.8,28.8c0,15.9,12.9,28.7,28.7,28.7
			C111,93.7,123.8,80.8,123.8,64.9z M77.8,82.2c-9.6-9.6-9.6-25.1,0-34.6c9.6-9.6,25.1-9.6,34.6,0c9.6,9.6,9.6,25.1,0,34.6
			C102.8,91.8,87.3,91.8,77.8,82.2z"/>
	</g>
	<path class="st1" d="M133.2,56.7l-15-15l16.1-16.1C135.2,35.4,135.6,46.6,133.2,56.7z"/>
</g>
</svg>
