<svg xmlns="http://www.w3.org/2000/svg" xmlns:xlink="http://www.w3.org/1999/xlink" viewBox="0 0 160 160"><defs><style>.cls-1{fill:#0ba3e0;}.cls-2{fill:#fff;}.cls-3{fill:#85d8ee;}.cls-4{fill:#008dce;}.cls-5{fill:#56bcec;}.cls-6{fill:#60d5f2;}.cls-7{fill:none;stroke:#60d5f2;stroke-linecap:round;stroke-linejoin:round;stroke-width:0.5px;}.cls-8{clip-path:url(#clip-path);}.cls-9{isolation:isolate;}.cls-10{clip-path:url(#clip-path-2);}.cls-11{clip-path:url(#clip-path-3);}.cls-12{clip-path:url(#clip-path-4);}.cls-13{clip-path:url(#clip-path-5);}.cls-14{clip-path:url(#clip-path-6);}</style><clipPath id="clip-path"><path class="cls-1" d="M133,41.4l-.24,2a.38.38,0,0,1-.08.19l.24-2A.38.38,0,0,0,133,41.4Z"/></clipPath><clipPath id="clip-path-2"><path class="cls-1" d="M110.82,45.69l.24-2c0,.31.36.65,1,.83l-.24,2C111.17,46.34,110.78,46,110.82,45.69Z"/></clipPath><clipPath id="clip-path-3"><path class="cls-1" d="M141,50l-.24,2a.39.39,0,0,1-.08.19l.24-2A.39.39,0,0,0,141,50Z"/></clipPath><clipPath id="clip-path-4"><path class="cls-1" d="M140.24,51.09l-.24,2a1.82,1.82,0,0,1-1.53.34l-.39-.07.24-2,.39.07A1.82,1.82,0,0,0,140.24,51.09Z"/></clipPath><clipPath id="clip-path-5"><path class="cls-1" d="M118.76,54.34l.24-2c0,.31.36.65,1,.82l-.24,2C119.12,55,118.72,54.65,118.76,54.34Z"/></clipPath><clipPath id="clip-path-6"><path class="cls-1" d="M123.83,53.4l-.24,2a1.82,1.82,0,0,1-1.53.34l-.4-.08.24-2,.4.08A1.82,1.82,0,0,0,123.83,53.4Z"/></clipPath></defs><title>Roadmap</title><g id="Layer_2" data-name="Layer 2"><g id="Layer_1-2" data-name="Layer 1"><rect class="cls-2" width="160" height="160"/><path class="cls-1" d="M132.9,63.28,143,59.15a8.35,8.35,0,0,0,4.81-10.21l-.84-2.71a8.35,8.35,0,0,0-5.86-5.6l-17-4.46a8.35,8.35,0,0,0-5.29.35l-10.07,4.13a8.35,8.35,0,0,0-4.81,10.21l.84,2.71a8.35,8.35,0,0,0,5.86,5.6l17,4.46A8.35,8.35,0,0,0,132.9,63.28Z"/><path class="cls-3" d="M133,61.6l10.07-4.13a8.35,8.35,0,0,0,4.81-10.21l-.84-2.71a8.35,8.35,0,0,0-5.86-5.6l-17-4.46a8.35,8.35,0,0,0-5.29.35L108.83,39A8.35,8.35,0,0,0,104,49.18l.84,2.71a8.35,8.35,0,0,0,5.86,5.6l17,4.46A8.35,8.35,0,0,0,133,61.6Z"/><path class="cls-1" d="M69.8,89.3c0,4-7.17,7.25-16,7.25-5.48,0-10.33-1.26-13.21-3.17a7.73,7.73,0,0,1-1.82-1.61,4,4,0,0,1-1-2.48,2.37,2.37,0,0,1,.05-.55c.56-3.48,6.51-6.27,14.07-6.66.61,0,1.24-.05,1.88-.05s1.47,0,2.18.08c7.42.45,13.21,3.22,13.77,6.64A2.36,2.36,0,0,1,69.8,89.3Z"/><path class="cls-3" d="M53.8,80.94c-8.84,0-16,3.25-16,7.26a3.94,3.94,0,0,0,.94,2.43,7.7,7.7,0,0,0,1.76,1.6c2.87,1.95,7.75,3.23,13.3,3.23,8.84,0,16-3.25,16-7.26S62.63,80.94,53.8,80.94Z"/><path class="cls-4" d="M59.45,88c0,.74-2.43,2.14-5.44,2.14s-5.44-1.4-5.44-2.14S51,84.89,54,84.89,59.45,87.26,59.45,88Z"/><path class="cls-1" d="M56,36.15H52V86.73a4,4,0,0,0,2.08.7,2.85,2.85,0,0,0,1.92-.7Z"/><ellipse class="cls-3" cx="54.02" cy="36.15" rx="2" ry="0.49"/><path class="cls-4" d="M56.33,61.63a7.13,7.13,0,0,1-2.31.44,7.39,7.39,0,0,1-2.31-.44V38.78a6.6,6.6,0,0,0,2.31.44,5.3,5.3,0,0,0,2.31-.44Z"/><path class="cls-5" d="M90.52,61.63s-18.43-1.48-22.72-1.48a74.78,74.78,0,0,0-11.46,1.48V38.78a74.78,74.78,0,0,1,11.46-1.48c4.29,0,22.72,1.48,22.72,1.48L83,49.09Z"/><path class="cls-1" d="M30.76,65.55c0,3-5.32,5.39-11.88,5.39-4.07,0-7.67-.93-9.81-2.35a5.74,5.74,0,0,1-1.35-1.2A2.93,2.93,0,0,1,7,65.55a1.76,1.76,0,0,1,0-.41c.41-2.58,4.84-4.65,10.45-4.95.45,0,.92,0,1.39,0s1.09,0,1.62.06c5.51.33,9.81,2.39,10.22,4.93A1.76,1.76,0,0,1,30.76,65.55Z"/><path class="cls-3" d="M18.88,59.34C12.32,59.34,7,61.75,7,64.73a2.93,2.93,0,0,0,.7,1.8A5.72,5.72,0,0,0,9,67.73c2.13,1.44,5.76,2.4,9.88,2.4,6.56,0,11.88-2.41,11.88-5.39S25.44,59.34,18.88,59.34Z"/><path class="cls-4" d="M23.09,64.61c0,.56-1.83,1.77-4.09,1.77s-4.09-1.21-4.09-1.77,1.83-2.34,4.09-2.34S23.09,64.05,23.09,64.61Z"/><path class="cls-1" d="M20.5,25.57h-3V63.65a3,3,0,0,0,1.57.53,2.14,2.14,0,0,0,1.45-.53Z"/><ellipse class="cls-3" cx="19" cy="25.57" rx="1.51" ry="0.37"/><path class="cls-4" d="M20.74,44.75a5.36,5.36,0,0,1-1.74.33,5.56,5.56,0,0,1-1.74-.33V27.55a5,5,0,0,0,1.74.33,4,4,0,0,0,1.74-.33Z"/><path class="cls-1" d="M46.48,44.75s-7.44.83-10.67.83-15.07-.83-15.07-.83V27.55s11.84.83,15.07.83,10.67-.83,10.67-.83l-5.65,9.51Z"/><path class="cls-1" d="M106,127.11c0,4.25-7.6,7.69-17,7.69-5.82,0-11-1.33-14-3.36a8.2,8.2,0,0,1-1.93-1.71,4.19,4.19,0,0,1-1-2.63,2.51,2.51,0,0,1,.06-.58c.59-3.69,6.91-6.65,14.92-7.07.65,0,1.32-.06,2-.06s1.56,0,2.31.08c7.86.48,14,3.41,14.6,7A2.51,2.51,0,0,1,106,127.11Z"/><path class="cls-3" d="M89,118.24c-9.37,0-17,3.45-17,7.7a4.18,4.18,0,0,0,1,2.58,8.17,8.17,0,0,0,1.87,1.7c3,2.06,8.22,3.42,14.11,3.42,9.37,0,17-3.45,17-7.7S98.42,118.24,89,118.24Z"/><path class="cls-4" d="M95.31,126.08c0,.85-2.8,2.67-6.26,2.67s-6.26-1.82-6.26-2.67,2.8-3.59,6.26-3.59S95.31,125.23,95.31,126.08Z"/><path class="cls-1" d="M91.35,66.67h-4.6V124.9a5.17,5.17,0,0,0,2.45.73,3.23,3.23,0,0,0,2.16-.73Z"/><ellipse class="cls-6" cx="89.05" cy="66.67" rx="2.3" ry="0.57"/><path class="cls-4" d="M91.71,96a8.2,8.2,0,0,1-2.66.5,8.51,8.51,0,0,1-2.66-.5V69.69a7.6,7.6,0,0,0,2.66.5,6.1,6.1,0,0,0,2.66-.5Z"/><path class="cls-3" d="M131.06,96s-16.59-1.22-21.53-1.22S91.71,96,91.71,96V69.69h39.35l-8.63,14.53Z"/><path class="cls-7" d="M40.2,99.67c0,18.7,25.88,21.79,25.88,21.79"/><path class="cls-7" d="M10.42,72.38C7,91.21,31.95,93.19,31.95,93.19"/><path class="cls-7" d="M116.1,127.1c24.35,1.65,54.08-34.73,23.9-60.73"/><path class="cls-1" d="M133,41.4l-.24,2a.38.38,0,0,1-.08.19l.24-2A.38.38,0,0,0,133,41.4Z"/><g class="cls-8"><g class="cls-9"><path class="cls-1" d="M133,41.4l-.24,2v.06l.24-2V41.4"/><path class="cls-1" d="M133,41.46l-.24,2,0,.06.24-2,0-.06"/><path class="cls-1" d="M133,41.52l-.24,2,0,.06.24-2,0-.06"/><polyline class="cls-1" points="132.96 41.58 132.72 43.57 132.71 43.58 132.95 41.59 132.96 41.58"/></g></g><polygon class="cls-1" points="132.95 41.59 132.71 43.58 128.98 48.41 129.22 46.43 132.95 41.59"/><path class="cls-1" d="M110.82,45.69l.24-2c0,.31.36.65,1,.83l-.24,2C111.17,46.34,110.78,46,110.82,45.69Z"/><g class="cls-10"><g class="cls-9"><path class="cls-1" d="M112.07,44.53l-.24,2h0l.24-2h0"/><path class="cls-1" d="M112,44.52l-.24,2-.13,0,.24-2,.13,0"/><path class="cls-1" d="M111.92,44.48l-.24,2-.13,0,.24-2,.13,0"/><path class="cls-1" d="M111.79,44.44l-.24,2-.13-.06.24-2,.13.06"/><path class="cls-1" d="M111.66,44.38l-.24,2-.15-.08.24-2,.15.08"/><path class="cls-1" d="M111.5,44.31l-.24,2c-.31-.17-.47-.4-.45-.6l.24-2c0,.21.14.43.45.6"/></g></g><polygon class="cls-1" points="122.81 47.32 122.57 49.31 111.83 46.52 112.07 44.53 122.81 47.32"/><path class="cls-1" d="M141,50l-.24,2a.39.39,0,0,1-.08.19l.24-2A.39.39,0,0,0,141,50Z"/><g class="cls-11"><g class="cls-9"><path class="cls-1" d="M141,50l-.24,2v.06l.24-2V50"/><path class="cls-1" d="M141,50.11l-.24,2,0,.06.24-2,0-.06"/><path class="cls-1" d="M140.94,50.17l-.24,2,0,.06.24-2,0-.06"/><polyline class="cls-1" points="140.9 50.23 140.66 52.22 140.66 52.23 140.9 50.24 140.9 50.23"/></g></g><polygon class="cls-1" points="140.9 50.24 140.66 52.23 140 53.08 140.24 51.09 140.9 50.24"/><polygon class="cls-1" points="138.31 51.36 138.07 53.35 127.33 50.55 127.56 48.56 138.31 51.36"/><path class="cls-1" d="M140.24,51.09l-.24,2a1.82,1.82,0,0,1-1.53.34l-.39-.07.24-2,.39.07A1.82,1.82,0,0,0,140.24,51.09Z"/><g class="cls-12"><g class="cls-9"><path class="cls-1" d="M140.24,51.09l-.24,2,0,0,.24-2,0,0"/><path class="cls-1" d="M140.19,51.14l-.24,2-.06.06.24-2,.06-.06"/><path class="cls-1" d="M140.13,51.19l-.24,2-.08.06.24-2,.08-.06"/><path class="cls-1" d="M140,51.25l-.24,2-.11.06.24-2,.11-.06"/><path class="cls-1" d="M139.93,51.31l-.24,2-.2.07.24-2,.2-.07"/><path class="cls-1" d="M139.73,51.38l-.24,2a2.25,2.25,0,0,1-.44.07l.24-2a2.25,2.25,0,0,0,.44-.07"/><path class="cls-1" d="M139.29,51.45l-.24,2h-.27l.24-2h.27"/><path class="cls-1" d="M139,51.46l-.24,2h-.18l.24-2H139"/><path class="cls-1" d="M138.84,51.45l-.24,2h-.16l.24-2h.16"/><path class="cls-1" d="M138.68,51.43l-.24,2-.14,0,.24-2,.14,0"/><path class="cls-1" d="M138.54,51.41l-.24,2-.13,0,.24-2,.13,0"/><path class="cls-1" d="M138.41,51.38l-.24,2-.1,0,.24-2,.1,0"/></g></g><polygon class="cls-1" points="127.56 48.56 127.33 50.55 123.59 55.38 123.83 53.4 127.56 48.56"/><path class="cls-1" d="M118.76,54.34l.24-2c0,.31.36.65,1,.82l-.24,2C119.12,55,118.72,54.65,118.76,54.34Z"/><g class="cls-13"><g class="cls-9"><path class="cls-1" d="M120,53.17l-.24,2h0l.24-2h0"/><path class="cls-1" d="M120,53.16l-.24,2-.13,0,.24-2,.13,0"/><path class="cls-1" d="M119.85,53.12l-.24,2-.13,0,.24-2,.13,0"/><path class="cls-1" d="M119.72,53.07l-.24,2-.13-.06.24-2,.13.06"/><path class="cls-1" d="M119.59,53l-.24,2-.15-.08.24-2,.15.08"/><path class="cls-1" d="M119.44,52.94l-.24,2c-.3-.17-.47-.39-.44-.59l.24-2c0,.21.14.42.44.59"/></g></g><polygon class="cls-1" points="121.91 53.66 121.67 55.65 119.77 55.16 120.01 53.17 121.91 53.66"/><path class="cls-1" d="M123.83,53.4l-.24,2a1.82,1.82,0,0,1-1.53.34l-.4-.08.24-2,.4.08A1.82,1.82,0,0,0,123.83,53.4Z"/><g class="cls-14"><g class="cls-9"><path class="cls-1" d="M123.83,53.4l-.24,2,0,0,.24-2,0,0"/><path class="cls-1" d="M123.79,53.44l-.24,2-.06.06.24-2,.06-.06"/><path class="cls-1" d="M123.73,53.5l-.24,2-.08.06.24-2,.08-.06"/><path class="cls-1" d="M123.65,53.55l-.24,2-.12.06.24-2,.12-.06"/><path class="cls-1" d="M123.53,53.61l-.24,2-.21.07.24-2,.21-.07"/><path class="cls-1" d="M123.33,53.68l-.24,2a2.25,2.25,0,0,1-.44.07l.24-2a2.25,2.25,0,0,0,.44-.07"/><path class="cls-1" d="M122.89,53.76l-.24,2h-.26l.24-2h.26"/><path class="cls-1" d="M122.63,53.76l-.24,2h-.18l.24-2h.18"/><path class="cls-1" d="M122.45,53.75l-.24,2h-.15l.24-2h.15"/><path class="cls-1" d="M122.29,53.74l-.24,2-.14,0,.24-2,.14,0"/><path class="cls-1" d="M122.15,53.71l-.24,2-.13,0,.24-2,.13,0"/><path class="cls-1" d="M122,53.69l-.24,2-.11,0,.24-2,.11,0"/></g></g><path class="cls-2" d="M129.73,40l.39.07,1.9.5c.79.21,1.21.66.93,1l-3.73,4.83L140,49.22c.79.21,1.2.66.93,1l-.66.85a1.82,1.82,0,0,1-1.53.34l-.39-.07-10.75-2.8-3.73,4.83a1.82,1.82,0,0,1-1.53.34l-.4-.08-1.9-.5c-.79-.2-1.21-.66-.93-1l3.73-4.83-10.75-2.8c-.79-.21-1.2-.66-.93-1l.66-.86a1.82,1.82,0,0,1,1.53-.34l.4.08,10.75,2.8,3.73-4.83A1.82,1.82,0,0,1,129.73,40Z"/></g></g></svg>