<svg xmlns="http://www.w3.org/2000/svg" width="260" height="260" viewBox="0 0 260 260">
    <g fill="none" fill-rule="nonzero">
        <path fill="#FFF" d="M0 0h260v260H0z"/>
        <path fill="#04549D" d="M118.33 197c-8.53 3.13-15.48 12.37-15.93 20.95v.88c0 .29 0 .86.07 1.28a12.26 12.26 0 0 0 1.17 4.43c2.41 4.88 8.1 6.84 14.74 4.41l107-39.24a3.69 3.69 0 0 0 2.41-3.55 14.41 14.41 0 0 0-.18-2.35l-109.28 43.41c-6 2.2-11.23.8-14-3.09a9.62 9.62 0 0 1-1.09-8.28c2.2-7.19 8.25-14 15.39-16.62L217.27 163l9.68-3.47a4.53 4.53 0 0 0 3-4v-.14a.74.74 0 0 0-1-.73L118.33 197z"/>
        <path fill="#85D8EE" d="M227.11 182.74l-5.49-8.65c.93-6.16.82-10.24 1.15-11.62l-5.49 2.27-98.62 34.45c-7.46 2.73-13.72 10-15.66 17.57a8.71 8.71 0 0 0 .42 5.66 9.85 9.85 0 0 0 .94 1.68c2.73 3.9 8 5.31 14 3.1l107-39.21a3.57 3.57 0 0 0 1.75-5.25z"/>
        <path fill="#FFF" d="M223.11 180.63a20 20 0 0 0 1.59 4.55l-107.77 39.5c-5.64 2.07-10.59 1-13.51-2.28a8.66 8.66 0 0 1-.44-5.6A27 27 0 0 1 112 203a23.17 23.17 0 0 1 6.63-3.84l13.68-5 94.17-34.3c-4.32 10.27-4.24 16.76-3.37 20.77z"/>
        <path fill="#0BA3E0" d="M229.84 155a3 3 0 0 1-1.82 1.84l-17.35 6.35-84.62 31-7.73 2.81c-8.53 3.12-15.47 12.35-15.93 20.94v.88c0 .45 0 .86.06 1.28a12 12 0 0 0 1.17 4.44l-1.16-1.87L31.2 109.26a12.93 12.93 0 0 1-1.2-5.72c0-6.66 4.07-13.85 9.85-18.37a21.48 21.48 0 0 1 2.1-1.48l.49-.29a21.78 21.78 0 0 1 3.53-1.68l3.9-1.31L70 73.63l11.89-4L90 66.91 95.68 65l4.38-1.48 12.8-4.3 3.49-1.22 4.24-1.43L125.4 55l1.5-.51 5.1-1.75 5-1.67 7-2.36a4.26 4.26 0 0 1 1.74-.23 4.59 4.59 0 0 1 3.39 1.76l47.18 59.87.15.19.17.22.17.22L229.38 152a3 3 0 0 1 .46 3z"/>
        <path fill="#0066AC" d="M126 194.17l-7.68 2.83c-8.53 3.12-15.47 12.35-15.93 20.94v.88c0 .45 0 .86.06 1.28a12 12 0 0 0 1.17 4.44l-1.16-1.87L31.2 109.26a12.93 12.93 0 0 1-1.2-5.72c0-6.66 4.07-13.85 9.85-18.37a21.48 21.48 0 0 1 2.1-1.48l.49-.29a21.78 21.78 0 0 1 3.53-1.68l3.9-1.31 50.41 75.28.52.79 11.66 17.41 1 1.5 1.13 1.68.17.26 1.11 1.63 1.65 2.47 8.48 12.65v.09z"/>
        <path fill="#0178BB" d="M112.52 173.93l1 1.5 1.13 1.68.17.26 1.11 1.63 1.65 2.47 73.27-26.11.68-.25c3.44-1.35 4.3-8.82 4.08-9.22l-4.11.18-78.98 27.86z"/>
        <path fill="#003D87" d="M98.5 178.55c3.1 4.69 9.21 6.46 16.25 4l2.84-1-1.64-2.55-1.11-1.63-.17-.26-1.13-1.68-1-1.5-11.66-17.41-.52-.79L49.88 80.4 46 81.71a21.78 21.78 0 0 0-3.53 1.68l-.49.29a21.48 21.48 0 0 0-2.1 1.48c-.038 2.52.63 5 1.93 7.16l56.69 86.23z"/>
        <path fill="#04549D" d="M195.21 111.17l-78.5 28.5c-9.85 3.51-17.86 14.09-18.37 24v1c0 .34 0 .69.05 1a14.44 14.44 0 0 0 1.39 5.62c2.79 5.62 9.34 7.93 17 5.21l76.11-27.12.69-.25a3.18 3.18 0 0 0 2.11-3v-1.69l-78.93 30.05c-6.95 2.48-13 .78-16.13-3.78-.193-.28-.373-.57-.54-.87a12.21 12.21 0 0 1-.7-9.67c2.53-8.06 9.35-15.62 17.37-18.48L189 116l5.63-2a2.88 2.88 0 0 0 1.87-2.26l.42-2.65s-.79 1.73-1.71 2.08z"/>
        <path fill="#0BA3E0" d="M196.87 109.14v.06a2.8 2.8 0 0 1-.37 1.1 3.37 3.37 0 0 1-1.91 1.67l-.62.22-76.54 27.27-.69.25h-.11a26 26 0 0 0-4.52 2.19c-.26.15-.51.32-.77.49-.52.35-1 .72-1.56 1.11a27.92 27.92 0 0 0-3.05 2.7 23.85 23.85 0 0 0-2.05 2.27c-.43.52-.85 1.06-1.23 1.62-.2.26-.37.52-.56.79a30.28 30.28 0 0 0-2.56 4.81c-.22.48-.42 1-.59 1.47-.22.6-.42 1.22-.59 1.84a24.7 24.7 0 0 0-.43 1.85 21.83 21.83 0 0 0-.32 2.79v2.02c.044.765.138 1.527.28 2.28 0 .25.09.48.15.71.12.48.26.93.42 1.37.155.427.335.845.54 1.25l-1.22-1.84-54.85-83.09a11.88 11.88 0 0 1-1.31-2.95 15.66 15.66 0 0 1-.6-4.38 33.94 33.94 0 0 1 .66-6.77c1.46-7.1 5.43-13.24 12.9-15.91l1.2-.39.54-.17 78.36-25.6a3.49 3.49 0 0 1 3.87 1.2l56.86 75.14a3.44 3.44 0 0 1 .67 2.63z"/>
        <path fill="#008DCE" d="M117.41 139.44l-.69.25h-.11a26 26 0 0 0-4.52 2.19c-.26.15-.51.32-.77.49-.52.35-1 .72-1.56 1.11a27.92 27.92 0 0 0-3.05 2.7 23.85 23.85 0 0 0-2.05 2.27c-.43.52-.85 1.06-1.23 1.62-.2.26-.37.52-.56.79a30.28 30.28 0 0 0-2.56 4.81c-.22.48-.42 1-.59 1.47-.22.6-.42 1.22-.59 1.84a24.7 24.7 0 0 0-.43 1.85 21.83 21.83 0 0 0-.32 2.79v2.02c0 .34.08.65.12 1a24.83 24.83 0 0 0 2 5.89l-3.5-5.15-53.31-81a11.88 11.88 0 0 1-1.31-2.95 15.66 15.66 0 0 1-.6-4.38 33.94 33.94 0 0 1 .66-6.77C43.93 65.14 47.9 59 55.37 56.33l1.2-.39.54-.17 3.12 4.32L70 73.63l47.42 65.79-.01.02z"/>
        <path fill="#85D8EE" d="M193.84 147.11l-77.13 27.45c-6 2.14-11.23 1.2-14.6-2 0 0-.28-.28-.59-.63a12.71 12.71 0 0 1-.91-1.13 8.65 8.65 0 0 1-.56-1 13.87 13.87 0 0 1-.46-10.19 1 1 0 0 1 .06-.2c0-.14.09-.26.15-.4.09-.29.22-.57.32-.86a30.83 30.83 0 0 1 5.27-8.39c.2-.23.4-.46.62-.68.106-.124.22-.24.34-.35.373-.4.76-.787 1.16-1.16.31-.29.63-.59 1-.85a2.58 2.58 0 0 1 .32-.28c.28-.25.56-.46.85-.69l.39-.28c.26-.2.52-.4.79-.57.27-.17.52-.37.8-.54a22.64 22.64 0 0 1 2.5-1.43c.37-.2.76-.37 1.14-.54.38-.17 1-.4 1.48-.59l72.17-25.8 5.52-1.85c-.68 2.16-1.2 4-1.68 5.93-.23.94-.45 1.87-.63 2.75a51.51 51.51 0 0 0-1.26 12.45v.39l4.36 7.48a2.71 2.71 0 0 1-1.42 3.96z"/>
        <path fill="#FFF" d="M192.52 145.68l-77 27.43c-5.21 1.85-10 1.51-13.46-.54 0 0-.28-.28-.59-.63a12.71 12.71 0 0 1-.91-1.13 8.65 8.65 0 0 1-.56-1 13.87 13.87 0 0 1-.46-10.19 1 1 0 0 1 .06-.2c0-.14.09-.26.15-.4.09-.29.22-.57.32-.86a30.83 30.83 0 0 1 5.27-8.39c.2-.23.4-.46.62-.68.106-.124.22-.24.34-.35.373-.4.76-.787 1.16-1.16.31-.29.63-.59 1-.85a2.58 2.58 0 0 1 .32-.28c.28-.25.56-.46.85-.69l.39-.28c.26-.2.52-.4.79-.57.27-.17.52-.37.8-.54a22.64 22.64 0 0 1 2.5-1.43c.37-.2.76-.37 1.14-.54.38-.17 1-.4 1.48-.59l72.24-25.72 5.66-2c-.76 2.14-6.01 21.08-2.11 31.59z"/>
        <path fill="#0BA3E0" d="M132.94 145.51l5.59-2.15 5.62-2.08 11.27-4.07 11.32-3.92 5.67-1.91 5.71-1.84-5.6 2.15-5.61 2.08-11.27 4.07-11.32 3.92-5.68 1.9z"/>
        <path fill="#0BA3E0" d="M132.94 145.51l5.59-2.15 5.62-2.08 11.27-4.07 11.32-3.92 5.67-1.91 5.71-1.84-5.6 2.15-5.61 2.08-11.27 4.07-11.32 3.92-5.68 1.9z"/>
        <path fill="#0BA3E0" d="M168.52 146l-6.78-1.67-2.88 5.21s-2.05-4.82-3.25-6.14l-4-4.35 9.65-3.54 3.56 3.92c1.35 1.4 3.7 6.57 3.7 6.57z"/>
        <path fill="#FFF" d="M113.64 94l-1.48-1.65A10.17 10.17 0 0 1 110 80.81c1.51-3.52 2.24-6.18.32-8.7-2.07-2.71-6-4.11-11.57-3.27-3.44.56-6.83 1.91-8.35 3.54l-7.29-5.2C85.47 65.12 90.28 63 96.47 62c12.19-2 21.35 1.75 25.3 6.92 3.56 4.65 1.7 8.59-.11 12.44-1.56 3.6-1.11 6.5 1.46 9.57l1.14 1.34L113.64 94zM136 111.08c-4.84.89-11-1.24-13.8-4.75-2.8-3.51-1.14-7.06 3.69-8 4.83-.94 11 1.24 13.79 4.75 2.79 3.51 1.13 7.12-3.68 8z"/>
        <path fill="#0066AC" d="M161.09 92.88l-1.9-.76a2 2 0 0 1-1.38-1.42 8.44 8.44 0 0 0-.38-1.84c-.17-.57.13-1.08.82-1.34l1.61-.61a1.06 1.06 0 0 0 .57-1.78l-2.44-3a3.24 3.24 0 0 0-2.8-1l-1.9.26a3.5 3.5 0 0 1-2.35-.55c-.72-.5-1.47-1-2.25-1.39-.78-.39-1.12-1-1-1.51l.25-1.28c.13-.7-.57-1.45-1.66-1.77l-4.68-1.38a2.48 2.48 0 0 0-2.65.5l-.8 1.11a2.17 2.17 0 0 1-2 .63c-.93-.08-1.87-.11-2.81-.1h-.14a3.34 3.34 0 0 1-2.09-.8l-1.28-1.2A3.39 3.39 0 0 0 127 73l-4.19 1c-1 .24-1.38.95-1 1.67l.78 1.32a1 1 0 0 1-.07 1.16 1.14 1.14 0 0 1-.34.28 14.67 14.67 0 0 0-1.72 1.22 2.61 2.61 0 0 1-2.16.38l-2-.41a2.19 2.19 0 0 0-2.45.76l-1.23 2.85c-.29.66.27 1.46 1.29 1.86l1.91.76a2 2 0 0 1 1.38 1.42 8.52 8.52 0 0 0 .37 1.85c.17.56-.13 1.07-.81 1.33l-1.63.61a1.07 1.07 0 0 0-.55 1.79l2.43 3a3.31 3.31 0 0 0 2.8 1l1.91-.26a3.43 3.43 0 0 1 2.35.55 23.79 23.79 0 0 0 2.25 1.38c.71.39 1.12 1 1 1.51l-.25 1.28c-.13.7.58 1.45 1.66 1.77l4.7 1.39a2.54 2.54 0 0 0 2.65-.5l.8-1.12a2.19 2.19 0 0 1 2-.63c.93.08 1.87.12 2.79.11a3.31 3.31 0 0 1 2.25.8l1.27 1.19a3.37 3.37 0 0 0 2.9.72l4.21-1c1-.24 1.37-.95 1-1.66l-.78-1.33a1 1 0 0 1 .41-1.45c.6-.357 1.17-.765 1.7-1.22a2.67 2.67 0 0 1 2.16-.38l2.05.41a2.16 2.16 0 0 0 2.44-.75l1.25-2.86c.15-.72-.4-1.51-1.44-1.92zm-17 4.2c-6.26 1.53-14.27-.83-17.91-5.3-3.64-4.47-1.51-9.33 4.74-10.87 6.25-1.54 14.29.82 17.92 5.29 3.63 4.47 1.5 9.33-4.78 10.88h.03z"/>
        <path fill="#85D8EE" d="M148.82 86.2c-3.64-4.47-11.66-6.84-17.92-5.29-6.26 1.55-8.39 6.41-4.74 10.87 3.65 4.46 11.65 6.84 17.91 5.3s8.39-6.41 4.75-10.88zm-6.93 8.2c-4.19 1-9.56-.55-12-3.54-2.44-2.99-1-6.24 3.18-7.28s9.55.55 12 3.54c2.45 2.99 1 6.25-3.18 7.28z"/>
    </g>
</svg>
