<svg xmlns="http://www.w3.org/2000/svg" width="260" height="260" viewBox="0 0 260 260">
    <g fill="none" fill-rule="evenodd">
        <path fill="#FFF" fill-rule="nonzero" d="M0 0h260v260H0z"/>
        <path fill="#308DD1" fill-rule="nonzero" d="M251.71 143.93l-146.52 76.26L12.3 96.47 7.85 68.43l38.57-1.99 105.22-22.65 8.08 8.08 61.99 62.03z"/>
        <path fill="#003D87" fill-rule="nonzero" d="M118 214.64l-5.91 2.53-6.93 3c3.74 5.83 7.81 9.14 10.57 8.06a2.52 2.52 0 0 0 .54-.28l.15-.09c2.3-1.71 2.82-6.79 1.58-13.22z"/>
        <path fill="#308DD1" fill-rule="nonzero" d="M20.61 82.46a53.2 53.2 0 0 0-.71-2.26c-3.52-10.4-9.37-17.82-13.07-16.57-3.7 1.25-4.49 12.64-.33 22.15 4.4 10.06 9.38 16.75 13.08 15.5 3.42-1.15 3.79-9.35 1.03-18.82z"/>
        <path fill="#0066AC" fill-rule="nonzero" d="M6.83 63.63c-3 1-4.1 8.76-2.15 16.73l13.94-3.58C15.47 66.79 9.87 62.6 6.83 63.63z"/>
        <path fill="#67BCEF" fill-rule="nonzero" d="M19.9 80.19c.26.76.49 1.52.71 2.26l133.75-39s4.06-1 .78-8.1c-2.1-4.55-5.32-3.63-5.32-3.63L6.94 63.59c3.28-.73 9.44 6.2 12.96 16.6z"/>
        <path fill="#0066AC" fill-rule="nonzero" d="M115 204.37c-3.74-9.63-9.2-16.84-13.28-18.1a4.22 4.22 0 0 0-2.71.18c-12.32 6.19 1.5 33.62 2.37 35.42l3.77-1.68 6.93-3 5.92-2.49a56.19 56.19 0 0 0-3-10.33z"/>
        <path stroke="#90D8F0" stroke-linecap="round" stroke-width="1.24" d="M95.55 116.07l-5.72 16.32 21.59 4.88M145.37 125.8l8.48-16.39-20.41-8.2M123.88 100.48l-1.08 37.35"/>
        <path fill="#67BCEF" fill-rule="nonzero" d="M255.64 139.82c-.127-.34-.263-.673-.41-1a11.05 11.05 0 0 0-13.9-5.36L99.7 186.19l-.26.1a4.12 4.12 0 0 1 1.94 0 .82.82 0 0 1 .23.06c4.08 1.26 9.54 8.47 13.28 18.1a56.18 56.18 0 0 1 3 10.33c1.19 6.44.67 11.52-1.58 13.19l6.07-3.32 98-53.69 29.18-16a12.78 12.78 0 0 0 6.61-13.2 10.7 10.7 0 0 0-.53-1.94z"/>
        <path fill="#003D87" fill-rule="nonzero" d="M103.09 76.57L95 76.44 34.61 94.5l-4.32 1.26c-1 .28-.7 3.18-.12 4.31.72 1.41 1.8 2.84 3.33 2.35l4.31-1.42 59.58-20.09 3.32-2.53 2.38-1.81z"/>
        <path fill="#008DCE" fill-rule="nonzero" d="M33.35 95.24l4.18 2.32 61.19-20.49-.56-2.47-1.04.4z"/>
        <path fill="#85D8EE" fill-rule="nonzero" d="M97.12 75l.52-2.7-61.4 18.27-2.69 4.6z"/>
        <path fill="#56BCEC" fill-rule="nonzero" d="M97.12 75l.53-2.71 7.55.26-2.7 1.88-3.78 2.63z"/>
        <path fill="#0066AC" fill-rule="nonzero" d="M102.21 72.45l3 .1-2.7 1.88a7 7 0 0 1-.3-1.98z"/>
        <path fill="#FFF" fill-rule="nonzero" d="M31.25 96.07c.23 1.1.92 3.19 1.87 2.89l4.4-1.4c.39-.25.94-.9.42-3.82s-1.71-3.18-1.71-3.18l-4.39 1.28c-.98.28-.84 3.02-.59 4.23z"/>
        <path stroke="#90D8F0" stroke-linecap="round" stroke-width=".87" d="M58.15 121.13l28.88 38.58"/>
        <path fill="#90D8F0" fill-rule="nonzero" d="M58.37 128.37a.43.43 0 0 0 .4-.47l-.5-6.62 6.21 2.35a.434.434 0 0 0 .31-.81l-6.85-2.59a.43.43 0 0 0-.59.44l.55 7.3a.43.43 0 0 0 .47.4zM80.14 157.46a.43.43 0 0 1 .56-.25l6.21 2.35-.5-6.62a.436.436 0 1 1 .87-.07l.55 7.3a.43.43 0 0 1-.59.44L80.39 158a.43.43 0 0 1-.25-.56v.02z"/>
        <path stroke="#90D8F0" stroke-linecap="round" stroke-width=".87" d="M111.25 164.32l64.83-28.14"/>
        <path fill="#90D8F0" fill-rule="nonzero" d="M118.35 165.78a.43.43 0 0 0-.36-.5l-6.56-1 3.72-5.5a.435.435 0 1 0-.72-.49l-4.1 6.07a.43.43 0 0 0 .29.67l7.23 1.15a.43.43 0 0 0 .5-.36v-.04zM172.3 142.36a.43.43 0 0 1-.12-.6l3.72-5.5-6.56-1a.436.436 0 0 1 .14-.86l7.23 1.15a.43.43 0 0 1 .29.67l-4.1 6.07a.43.43 0 0 1-.6.12v-.05z"/>
        <path fill="#143D8A" fill-rule="nonzero" d="M208.41 87.89c1.06-.24 1.13-1.62 0-3.59-1.42-2.51-4.23-5-6.26-5.57a2.25 2.25 0 0 0-1.08-.07l-1.11.28c-1.06.24-1.13 1.62 0 3.59 1.42 2.51 4.23 5 6.26 5.57.346.11.713.133 1.07.07l1.12-.28z"/>
        <path fill="#85D8EE" fill-rule="nonzero" d="M207.29 82c2.05-.26 3.61-2.24 3.74-5.18.17-3.76-2-7.61-4.92-8.6a3.93 3.93 0 0 0-1.76-.2c-.13 0-2.06.28-2.17.3-1.36 3.24.42 10 2.92 14 .14-.02 2.07-.32 2.19-.32z"/>
        <path fill="#2978BE" fill-rule="nonzero" d="M208.89 77.11c-.17 3.76-2.65 6-5.53 5-2.88-1-5.09-4.84-4.92-8.6.17-3.76 2.65-6 5.53-5 2.88 1 5.09 4.84 4.92 8.6z"/>
        <path fill="#308DD1" fill-rule="nonzero" d="M203.23 78.72a2.13 2.13 0 0 0 1.5-2.2 3.79 3.79 0 0 0-2.1-3.68 1.64 1.64 0 0 0-.75-.08l-5.64 1a2.13 2.13 0 0 0-1.49 2.2 3.79 3.79 0 0 0 2.1 3.68c.24.085.497.112.75.08l5.63-1z"/>
        <path fill="#143D8A" fill-rule="nonzero" d="M232.53 134.4l-20 3.61-30.16-46.15-17.15.73c-6 1.1-22.83.48-29.28-2.87l-2.58-4 1-1.77 39.27-5.49L167 68.3l-41.65 5.15-2.6-4c1.62-6.4 10-10 19.75-11.72l35.74-6.46 7.35 11.25 1.39 2.12 6.68 10.2 2.53 3.86 2.3 3.51 2.51 3.91 1.37 2.14 31.17 44.36-1.01 1.78z"/>
        <path fill="#308DD1" fill-rule="nonzero" d="M143.45 54l35.75-6.46 7.35 9.89v1.36l-18.6 5.73-1.38-.09-40.27 5.25-2.58-4C122.31 60.7 137.4 55.05 143.45 54z"/>
        <path fill="#308DD1" fill-rule="nonzero" d="M194.6 73.09l-19.98 3.63-6.68-10.21-1.38-2.12 19.99-3.61 1.38 2.12zM233.51 132.62l-19.99 3.61-30.16-46.14-1.38-2.12 19.98-3.63 1.38 2.13z"/>
        <path fill="#67BCEF" fill-rule="nonzero" d="M233.51 130.59l-19.99 3.61-30.16-46.15 19.98-3.61z"/>
        <path fill="#FFF" fill-rule="nonzero" d="M143.44 52.6l35.75-6.46 7.35 11.25-60.25 10.89-2.58-4c1.18-4.67 13.69-10.58 19.73-11.68z"/>
        <path fill="#308DD1" fill-rule="nonzero" d="M166.21 88.78L182 88l1.38.09L202 82.32V81l-7.35-9.89L134.35 82l2.58 4c6.45 3.26 23.23 3.88 29.28 2.78z"/>
        <path fill="#2978BE" fill-rule="nonzero" d="M201.96 82.32l-19.99 3.61.01 2.04 1.38 2.12v-2.04l19.98-3.61z"/>
        <path fill="#2266AF" fill-rule="nonzero" d="M195.04 88.68l-8.48 1.54 1.12 1.7 8.48-1.53zM203.26 101.24l-8.49 1.54 1.12 1.7 8.48-1.53zM211.47 113.81l-8.49 1.53 1.12 1.71 8.48-1.54zM219.68 126.37l-8.49 1.53 1.12 1.71 8.48-1.54zM195.99 95.53l-5.32.97 1.11 1.7 5.33-.96zM204.21 108.09l-5.33.97 1.11 1.7 5.33-.96zM212.42 120.66l-5.33.96 1.12 1.71 5.32-.97z"/>
        <path fill="#67BCEF" fill-rule="nonzero" d="M194.6 71.07l-19.98 3.61-6.67-10.2 19.98-3.62z"/>
        <path fill="#2266AF" fill-rule="nonzero" d="M178.77 63.78l-8.48 1.54 1.11 1.7 8.49-1.53zM179.63 70.5l-5.33.96 1.12 1.71 5.33-.96z"/>
        <path fill="#FFF" fill-rule="nonzero" d="M166.21 87.43L202 81l-7.4-11.28-60.25 10.89 2.58 4c6.45 3.29 23.23 3.91 29.28 2.82z"/>
        <path fill="#2978BE" fill-rule="nonzero" d="M186.55 58.75l-19.99 3.61.01 2.03 1.38 2.13v-2.04l19.98-3.61z"/>
        <path fill="#85D8EE" fill-rule="nonzero" d="M33.35 94.32c.39 1.44.34 3.08-.1 3.68-.44.6-1.12-.1-1.5-1.53-.38-1.43-.34-3.08.1-3.68.44-.6 1.15.09 1.5 1.53z"/>
    </g>
</svg>
