<?xml version="1.0" encoding="UTF-8"?>
<svg width="13px" height="13px" viewBox="0 0 13 13" version="1.1" xmlns="http://www.w3.org/2000/svg" xmlns:xlink="http://www.w3.org/1999/xlink">
    <!-- Generator: Sketch 41.2 (35397) - http://www.bohemiancoding.com/sketch -->
    <title>arrow-blue</title>
    <desc>Created with Sketch.</desc>
    <defs></defs>
    <g id="Page-1" stroke="none" stroke-width="1" fill="none" fill-rule="evenodd">
        <g id="arrow-blue" transform="translate(1.000000, 1.000000)" stroke-width="0.5" stroke="#FFFFFF" fill="#FFFFFF">
            <g id="Page-1">
                <g id="iPad-Pro-Landscape-Copy-12">
                    <g id="next">
                        <path d="M8.6878204,6.1479537 L5.0921016,9.7436725 C4.81183,10.0239441 4.8109866,10.4923869 5.0993932,10.7807935 C5.3898105,11.0712108 5.8521346,11.0724646 6.1365142,10.7880851 L10.9089771,6.0156222 C11.0491407,5.8754585 11.1194196,5.6882333 11.1185851,5.5 C11.1194196,5.3117667 11.0491407,5.1245415 10.9089771,4.9843778 L6.1365142,0.2119149 C5.8521346,-0.0724646 5.3898105,-0.0712108 5.0993932,0.2192065 C4.8109866,0.5076131 4.81183,0.9760559 5.0921016,1.2563275 L8.5090535,4.6732795 L0.7468658,4.6732795 C0.3343832,4.6732795 0,5.0005575 0,5.4106166 C0,5.8178366 0.3221912,6.1479537 0.7468658,6.1479537 L8.6878204,6.1479537 L8.6878204,6.1479537 Z" id="Arrow"></path>
                    </g>
                </g>
            </g>
        </g>
    </g>
</svg>
