<?xml version="1.0" encoding="UTF-8"?>
<svg width="14px" height="8px" viewBox="0 0 14 8" version="1.1" xmlns="http://www.w3.org/2000/svg" xmlns:xlink="http://www.w3.org/1999/xlink">
    <!-- Generator: Sketch 46.2 (44496) - http://www.bohemiancoding.com/sketch -->
    <title>done</title>
    <desc>Created with Sketch.</desc>
    <defs></defs>
    <g id="Blockchain-Explorer" stroke="none" stroke-width="1" fill="none" fill-rule="evenodd">
        <g id="BE_TransactionLog_Normal_Desktop" transform="translate(-1001.000000, -1078.000000)">
            <g id="Group-34" transform="translate(0.000000, 962.000000)">
                <g id="Group-10" transform="translate(150.000000, 0.000000)">
                    <g id="Group-2">
                        <g id="Group-3">
                            <g id="Group-12" transform="translate(20.000000, 88.000000)">
                                <g id="Group-15" transform="translate(20.000000, 12.000000)">
                                    <g id="Group-33" transform="translate(810.000000, 10.000000)">
                                        <g id="done" transform="translate(0.000000, 2.000000)">
                                            <polygon id="Shape" points="0 0 15 0 15 15 0 15"></polygon>
                                            <path d="M10.275,4.74285714 L7.00833333,7.94285714 L7.825,8.74285714 L11.0916667,5.54285714 C11.2400165,5.40044142 11.2988641,5.19095458 11.2457804,4.99423962 C11.1926967,4.79752465 11.0358602,4.64388894 10.8350471,4.5918886 C10.6342339,4.53988825 10.4203827,4.59753483 10.275,4.74285714 L10.275,4.74285714 Z M7.825,10.4 L5.78333333,8.4 C5.55716435,8.182878 5.19468922,8.18467137 4.97077062,8.4040202 C4.74685202,8.62336904 4.74502129,8.97844671 4.96666667,9.2 L7.41258333,11.596 C7.64037491,11.8190754 8.00962509,11.8190754 8.23741667,11.596 L14.4020833,5.55714286 C14.5128655,5.44852151 14.5738722,5.30048904 14.5711228,5.1469696 C14.5683734,4.99345017 14.5021035,4.84760505 14.3875,4.74285714 L14.3641667,4.72114286 C14.1334554,4.51034325 13.7734608,4.51743165 13.5515833,4.73714286 L7.825,10.4 Z M4.90833333,11.6 C5.13383334,11.3790795 5.13383334,11.0209205 4.90833333,10.8 L2.45833333,8.4 C2.31295062,8.25467768 2.09909947,8.19703111 1.89828628,8.24903145 C1.69747308,8.3010318 1.54063663,8.45466751 1.48755294,8.65138248 C1.43446925,8.84809744 1.4933168,9.05758428 1.64166667,9.2 L4.09166667,11.6 C4.31718968,11.820898 4.68281032,11.820898 4.90833333,11.6 L4.90833333,11.6 Z" id="Shape" fill="#108FE4"></path>
                                        </g>
                                    </g>
                                </g>
                            </g>
                        </g>
                    </g>
                </g>
            </g>
        </g>
    </g>
</svg>