<?xml version="1.0" encoding="UTF-8"?>
<svg width="11px" height="11px" viewBox="0 0 11 11" version="1.1" xmlns="http://www.w3.org/2000/svg" xmlns:xlink="http://www.w3.org/1999/xlink">
    <!-- Generator: Sketch 46.2 (44496) - http://www.bohemiancoding.com/sketch -->
    <title>wait</title>
    <desc>Created with Sketch.</desc>
    <defs></defs>
    <g id="Blockchain-Explorer" stroke="none" stroke-width="1" fill="none" fill-rule="evenodd">
        <g id="BE_TransactionLog_Normal_Desktop" transform="translate(-1002.000000, -996.000000)">
            <g id="Group-34" transform="translate(0.000000, 962.000000)">
                <g id="Group-10" transform="translate(150.000000, 0.000000)">
                    <g id="Group-2">
                        <g id="Group-3">
                            <g id="Group-9" transform="translate(20.000000, 7.000000)">
                                <g id="Group-15" transform="translate(20.000000, 13.000000)">
                                    <g id="Group-32" transform="translate(810.000000, 10.000000)">
                                        <g id="Group-31">
                                            <g id="wait" transform="translate(0.000000, 2.000000)">
                                                <polygon id="Shape" points="0 0 15 0 15 15 0 15"></polygon>
                                                <path d="M7.5,11.25 C9.57106781,11.25 11.25,9.57106781 11.25,7.5 C11.25,5.42893219 9.57106781,3.75 7.5,3.75 C5.42893219,3.75 3.75,5.42893219 3.75,7.5 C3.75,9.57106781 5.42893219,11.25 7.5,11.25 Z M7.5,12.5 C4.73857625,12.5 2.5,10.2614237 2.5,7.5 C2.5,4.73857625 4.73857625,2.5 7.5,2.5 C10.2614237,2.5 12.5,4.73857625 12.5,7.5 C12.5,10.2614237 10.2614237,12.5 7.5,12.5 Z M7.5,4.375 C7.84517797,4.375 8.125,4.65482203 8.125,5 L8.125,7.5 C8.125,7.84517797 7.84517797,8.125 7.5,8.125 C7.15482203,8.125 6.875,7.84517797 6.875,7.5 L6.875,5 C6.875,4.65482203 7.15482203,4.375 7.5,4.375 Z M8.125,6.875 L9.375,6.875 C9.72017797,6.875 10,7.15482203 10,7.5 C10,7.84517797 9.72017797,8.125 9.375,8.125 L8.125,8.125 C7.77982203,8.125 7.5,7.84517797 7.5,7.5 C7.5,7.15482203 7.77982203,6.875 8.125,6.875 Z" id="Shape" fill="#108FE4" fill-rule="nonzero"></path>
                                            </g>
                                        </g>
                                    </g>
                                </g>
                            </g>
                        </g>
                    </g>
                </g>
            </g>
        </g>
    </g>
</svg>